<?xml version="1.0" encoding="UTF-8" standalone="no"?>
<!DOCTYPE svg PUBLIC "-//W3C//DTD SVG 1.1//EN"
 "http://www.w3.org/Graphics/SVG/1.1/DTD/svg11.dtd">
<!-- Generated by graphviz version 2.40.1 (20161225.0304)
 -->
<!-- Title: aviation Pages: 1 -->
<svg width="404pt" height="604pt"
 viewBox="0.00 0.00 404.00 604.00" xmlns="http://www.w3.org/2000/svg" xmlns:xlink="http://www.w3.org/1999/xlink">
<g id="graph0" class="graph" transform="scale(1 1) rotate(0) translate(4 600)">
<title>aviation</title>
<polygon fill="#ffffff" stroke="transparent" points="-4,4 -4,-600 400,-600 400,4 -4,4"/>
<g id="clust1" class="cluster">
<title>cluster_NASALib</title>
<polygon fill="none" stroke="#000000" points="8,-8 8,-588 292,-588 292,-8 8,-8"/>
<text text-anchor="middle" x="150" y="-572.8" font-family="Times,serif" font-size="14.00" fill="#000000">NASALib</text>
</g>
<g id="clust2" class="cluster">
<title>cluster_PVS Prelude</title>
<polygon fill="none" stroke="#000000" points="300,-152 300,-226 388,-226 388,-152 300,-152"/>
<text text-anchor="middle" x="344" y="-210.8" font-family="Times,serif" font-size="14.00" fill="#000000">PVS Prelude</text>
</g>
<!-- /Users/mmoscato/nasa/pvslib/pvslib&#45;gitlab__pvs7.0/analysis -->
<g id="node1" class="node">
<title>/Users/mmoscato/nasa/pvslib/pvslib&#45;gitlab__pvs7.0/analysis</title>
<polygon fill="#fcfcd7" stroke="#000000" points="177.6036,-270 116.3964,-270 116.3964,-234 177.6036,-234 177.6036,-270"/>
<text text-anchor="middle" x="147" y="-247.8" font-family="Times,serif" font-size="14.00" fill="#000000">analysis</text>
</g>
<!-- /Users/mmoscato/nasa/pvslib/pvslib&#45;gitlab__pvs7.0/ints -->
<g id="node3" class="node">
<title>/Users/mmoscato/nasa/pvslib/pvslib&#45;gitlab__pvs7.0/ints</title>
<polygon fill="#fcfcd7" stroke="#000000" points="117,-52 63,-52 63,-16 117,-16 117,-52"/>
<text text-anchor="middle" x="90" y="-29.8" font-family="Times,serif" font-size="14.00" fill="#000000">ints</text>
</g>
<!-- /Users/mmoscato/nasa/pvslib/pvslib&#45;gitlab__pvs7.0/analysis&#45;&gt;/Users/mmoscato/nasa/pvslib/pvslib&#45;gitlab__pvs7.0/ints -->
<g id="edge1" class="edge">
<title>/Users/mmoscato/nasa/pvslib/pvslib&#45;gitlab__pvs7.0/analysis&#45;&gt;/Users/mmoscato/nasa/pvslib/pvslib&#45;gitlab__pvs7.0/ints</title>
<path fill="none" stroke="#000000" d="M147.6069,-233.925C147.6069,-182.6575 147.6069,-40 147.6069,-40 147.6069,-40 127.1166,-40 127.1166,-40"/>
<polygon fill="#000000" stroke="#000000" points="127.1167,-36.5001 117.1166,-40 127.1166,-43.5001 127.1167,-36.5001"/>
</g>
<!-- /Users/mmoscato/nasa/pvslib/pvslib&#45;gitlab__pvs7.0/orders -->
<g id="node4" class="node">
<title>/Users/mmoscato/nasa/pvslib/pvslib&#45;gitlab__pvs7.0/orders</title>
<polygon fill="#fcfcd7" stroke="#000000" points="224,-196 170,-196 170,-160 224,-160 224,-196"/>
<text text-anchor="middle" x="197" y="-173.8" font-family="Times,serif" font-size="14.00" fill="#000000">orders</text>
</g>
<!-- /Users/mmoscato/nasa/pvslib/pvslib&#45;gitlab__pvs7.0/analysis&#45;&gt;/Users/mmoscato/nasa/pvslib/pvslib&#45;gitlab__pvs7.0/orders -->
<g id="edge2" class="edge">
<title>/Users/mmoscato/nasa/pvslib/pvslib&#45;gitlab__pvs7.0/analysis&#45;&gt;/Users/mmoscato/nasa/pvslib/pvslib&#45;gitlab__pvs7.0/orders</title>
<path fill="none" stroke="#000000" d="M173.7759,-233.7079C173.7759,-233.7079 173.7759,-206.0817 173.7759,-206.0817"/>
<polygon fill="#000000" stroke="#000000" points="177.276,-206.0817 173.7759,-196.0817 170.276,-206.0818 177.276,-206.0817"/>
</g>
<!-- /Users/mmoscato/nasa/pvslib/pvslib&#45;gitlab__pvs7.0/reals -->
<g id="node5" class="node">
<title>/Users/mmoscato/nasa/pvslib/pvslib&#45;gitlab__pvs7.0/reals</title>
<polygon fill="#fcfcd7" stroke="#000000" points="110,-196 56,-196 56,-160 110,-160 110,-196"/>
<text text-anchor="middle" x="83" y="-173.8" font-family="Times,serif" font-size="14.00" fill="#000000">reals</text>
</g>
<!-- /Users/mmoscato/nasa/pvslib/pvslib&#45;gitlab__pvs7.0/analysis&#45;&gt;/Users/mmoscato/nasa/pvslib/pvslib&#45;gitlab__pvs7.0/reals -->
<g id="edge3" class="edge">
<title>/Users/mmoscato/nasa/pvslib/pvslib&#45;gitlab__pvs7.0/analysis&#45;&gt;/Users/mmoscato/nasa/pvslib/pvslib&#45;gitlab__pvs7.0/reals</title>
<path fill="none" stroke="#000000" d="M118.6396,-233.7079C118.6396,-211.7943 118.6396,-178 118.6396,-178 118.6396,-178 117.7769,-178 117.7769,-178"/>
<polygon fill="#000000" stroke="#000000" points="120.0123,-174.5001 110.0123,-178 120.0122,-181.5001 120.0123,-174.5001"/>
</g>
<!-- /Users/mmoscato/nasa/pvslib/pvslib&#45;gitlab__pvs7.0/structures -->
<g id="node7" class="node">
<title>/Users/mmoscato/nasa/pvslib/pvslib&#45;gitlab__pvs7.0/structures</title>
<polygon fill="#fcfcd7" stroke="#000000" points="125.429,-124 54.571,-124 54.571,-88 125.429,-88 125.429,-124"/>
<text text-anchor="middle" x="90" y="-101.8" font-family="Times,serif" font-size="14.00" fill="#000000">structures</text>
</g>
<!-- /Users/mmoscato/nasa/pvslib/pvslib&#45;gitlab__pvs7.0/analysis&#45;&gt;/Users/mmoscato/nasa/pvslib/pvslib&#45;gitlab__pvs7.0/structures -->
<g id="edge4" class="edge">
<title>/Users/mmoscato/nasa/pvslib/pvslib&#45;gitlab__pvs7.0/analysis&#45;&gt;/Users/mmoscato/nasa/pvslib/pvslib&#45;gitlab__pvs7.0/structures</title>
<path fill="none" stroke="#000000" d="M120.8311,-233.8042C120.8311,-233.8042 120.8311,-134.4251 120.8311,-134.4251"/>
<polygon fill="#000000" stroke="#000000" points="124.3312,-134.4251 120.8311,-124.4251 117.3312,-134.4251 124.3312,-134.4251"/>
</g>
<!-- /Users/mmoscato/pvs/7.1&#45;0&#45;g3fb4f25&#45;ix86&#45;MacOSX&#45;allegro/lib/finite_sets -->
<g id="node10" class="node">
<title>/Users/mmoscato/pvs/7.1&#45;0&#45;g3fb4f25&#45;ix86&#45;MacOSX&#45;allegro/lib/finite_sets</title>
<polygon fill="#fcfcd7" stroke="#000000" points="380.2796,-196 307.7204,-196 307.7204,-160 380.2796,-160 380.2796,-196"/>
<text text-anchor="middle" x="344" y="-173.8" font-family="Times,serif" font-size="14.00" fill="#000000">finite_sets</text>
</g>
<!-- /Users/mmoscato/nasa/pvslib/pvslib&#45;gitlab__pvs7.0/analysis&#45;&gt;/Users/mmoscato/pvs/7.1&#45;0&#45;g3fb4f25&#45;ix86&#45;MacOSX&#45;allegro/lib/finite_sets -->
<g id="edge5" class="edge">
<title>/Users/mmoscato/nasa/pvslib/pvslib&#45;gitlab__pvs7.0/analysis&#45;&gt;/Users/mmoscato/pvs/7.1&#45;0&#45;g3fb4f25&#45;ix86&#45;MacOSX&#45;allegro/lib/finite_sets</title>
<path fill="none" stroke="#000000" d="M177.913,-252C228.1997,-252 322.1662,-252 322.1662,-252 322.1662,-252 322.1662,-206.2921 322.1662,-206.2921"/>
<polygon fill="#000000" stroke="#000000" points="325.6663,-206.2921 322.1662,-196.2921 318.6663,-206.2922 325.6663,-206.2921"/>
</g>
<!-- /Users/mmoscato/nasa/pvslib/pvslib&#45;gitlab__pvs7.0/aviation -->
<g id="node2" class="node">
<title>/Users/mmoscato/nasa/pvslib/pvslib&#45;gitlab__pvs7.0/aviation</title>
<polygon fill="#f7e28d" stroke="#000000" points="166.5968,-558 105.4032,-558 105.4032,-522 166.5968,-522 166.5968,-558"/>
<text text-anchor="middle" x="136" y="-535.8" font-family="Times,serif" font-size="14.00" fill="#000000">aviation</text>
</g>
<!-- /Users/mmoscato/nasa/pvslib/pvslib&#45;gitlab__pvs7.0/aviation&#45;&gt;/Users/mmoscato/nasa/pvslib/pvslib&#45;gitlab__pvs7.0/analysis -->
<g id="edge6" class="edge">
<title>/Users/mmoscato/nasa/pvslib/pvslib&#45;gitlab__pvs7.0/aviation&#45;&gt;/Users/mmoscato/nasa/pvslib/pvslib&#45;gitlab__pvs7.0/analysis</title>
<path fill="none" stroke="#000000" d="M105.1308,-529C92.4696,-529 80.7258,-529 80.7258,-529 80.7258,-529 80.7258,-252 80.7258,-252 80.7258,-252 106.1912,-252 106.1912,-252"/>
<polygon fill="#000000" stroke="#000000" points="106.1912,-255.5001 116.1912,-252 106.1911,-248.5001 106.1912,-255.5001"/>
</g>
<!-- /Users/mmoscato/nasa/pvslib/pvslib&#45;gitlab__pvs7.0/aviation&#45;&gt;/Users/mmoscato/nasa/pvslib/pvslib&#45;gitlab__pvs7.0/ints -->
<g id="edge7" class="edge">
<title>/Users/mmoscato/nasa/pvslib/pvslib&#45;gitlab__pvs7.0/aviation&#45;&gt;/Users/mmoscato/nasa/pvslib/pvslib&#45;gitlab__pvs7.0/ints</title>
<path fill="none" stroke="#000000" d="M105.3761,-550C72.1939,-550 23.929,-550 23.929,-550 23.929,-550 23.929,-23 23.929,-23 23.929,-23 52.7449,-23 52.7449,-23"/>
<polygon fill="#000000" stroke="#000000" points="52.745,-26.5001 62.7449,-23 52.7449,-19.5001 52.745,-26.5001"/>
</g>
<!-- /Users/mmoscato/nasa/pvslib/pvslib&#45;gitlab__pvs7.0/aviation&#45;&gt;/Users/mmoscato/nasa/pvslib/pvslib&#45;gitlab__pvs7.0/orders -->
<g id="edge8" class="edge">
<title>/Users/mmoscato/nasa/pvslib/pvslib&#45;gitlab__pvs7.0/aviation&#45;&gt;/Users/mmoscato/nasa/pvslib/pvslib&#45;gitlab__pvs7.0/orders</title>
<path fill="none" stroke="#000000" d="M166.6808,-543C207.8348,-543 275.8052,-543 275.8052,-543 275.8052,-543 275.8052,-184 275.8052,-184 275.8052,-184 234.1203,-184 234.1203,-184"/>
<polygon fill="#000000" stroke="#000000" points="234.1203,-180.5001 224.1203,-184 234.1202,-187.5001 234.1203,-180.5001"/>
</g>
<!-- /Users/mmoscato/nasa/pvslib/pvslib&#45;gitlab__pvs7.0/aviation&#45;&gt;/Users/mmoscato/nasa/pvslib/pvslib&#45;gitlab__pvs7.0/reals -->
<g id="edge9" class="edge">
<title>/Users/mmoscato/nasa/pvslib/pvslib&#45;gitlab__pvs7.0/aviation&#45;&gt;/Users/mmoscato/nasa/pvslib/pvslib&#45;gitlab__pvs7.0/reals</title>
<path fill="none" stroke="#000000" d="M105.1517,-536C85.7028,-536 64.2419,-536 64.2419,-536 64.2419,-536 64.2419,-206.2455 64.2419,-206.2455"/>
<polygon fill="#000000" stroke="#000000" points="67.742,-206.2454 64.2419,-196.2455 60.742,-206.2455 67.742,-206.2454"/>
</g>
<!-- /Users/mmoscato/nasa/pvslib/pvslib&#45;gitlab__pvs7.0/series -->
<g id="node6" class="node">
<title>/Users/mmoscato/nasa/pvslib/pvslib&#45;gitlab__pvs7.0/series</title>
<polygon fill="#fcfcd7" stroke="#000000" points="244,-342 190,-342 190,-306 244,-306 244,-342"/>
<text text-anchor="middle" x="217" y="-319.8" font-family="Times,serif" font-size="14.00" fill="#000000">series</text>
</g>
<!-- /Users/mmoscato/nasa/pvslib/pvslib&#45;gitlab__pvs7.0/aviation&#45;&gt;/Users/mmoscato/nasa/pvslib/pvslib&#45;gitlab__pvs7.0/series -->
<g id="edge10" class="edge">
<title>/Users/mmoscato/nasa/pvslib/pvslib&#45;gitlab__pvs7.0/aviation&#45;&gt;/Users/mmoscato/nasa/pvslib/pvslib&#45;gitlab__pvs7.0/series</title>
<path fill="none" stroke="#000000" d="M166.5548,-536C192.9913,-536 227,-536 227,-536 227,-536 227,-352.075 227,-352.075"/>
<polygon fill="#000000" stroke="#000000" points="230.5001,-352.075 227,-342.075 223.5001,-352.075 230.5001,-352.075"/>
</g>
<!-- /Users/mmoscato/nasa/pvslib/pvslib&#45;gitlab__pvs7.0/aviation&#45;&gt;/Users/mmoscato/nasa/pvslib/pvslib&#45;gitlab__pvs7.0/structures -->
<g id="edge11" class="edge">
<title>/Users/mmoscato/nasa/pvslib/pvslib&#45;gitlab__pvs7.0/aviation&#45;&gt;/Users/mmoscato/nasa/pvslib/pvslib&#45;gitlab__pvs7.0/structures</title>
<path fill="none" stroke="#000000" d="M105.3587,-543C73.7616,-543 29.0718,-543 29.0718,-543 29.0718,-543 29.0718,-100 29.0718,-100 29.0718,-100 44.5578,-100 44.5578,-100"/>
<polygon fill="#000000" stroke="#000000" points="44.5579,-103.5001 54.5578,-100 44.5578,-96.5001 44.5579,-103.5001"/>
</g>
<!-- /Users/mmoscato/nasa/pvslib/pvslib&#45;gitlab__pvs7.0/trig -->
<g id="node8" class="node">
<title>/Users/mmoscato/nasa/pvslib/pvslib&#45;gitlab__pvs7.0/trig</title>
<polygon fill="#fcfcd7" stroke="#000000" points="210,-414 156,-414 156,-378 210,-378 210,-414"/>
<text text-anchor="middle" x="183" y="-391.8" font-family="Times,serif" font-size="14.00" fill="#000000">trig</text>
</g>
<!-- /Users/mmoscato/nasa/pvslib/pvslib&#45;gitlab__pvs7.0/aviation&#45;&gt;/Users/mmoscato/nasa/pvslib/pvslib&#45;gitlab__pvs7.0/trig -->
<g id="edge12" class="edge">
<title>/Users/mmoscato/nasa/pvslib/pvslib&#45;gitlab__pvs7.0/aviation&#45;&gt;/Users/mmoscato/nasa/pvslib/pvslib&#45;gitlab__pvs7.0/trig</title>
<path fill="none" stroke="#000000" d="M166.7105,-529C178.0891,-529 188.2742,-529 188.2742,-529 188.2742,-529 188.2742,-424.2142 188.2742,-424.2142"/>
<polygon fill="#000000" stroke="#000000" points="191.7743,-424.2142 188.2742,-414.2142 184.7743,-424.2142 191.7743,-424.2142"/>
</g>
<!-- /Users/mmoscato/nasa/pvslib/pvslib&#45;gitlab__pvs7.0/vectors -->
<g id="node9" class="node">
<title>/Users/mmoscato/nasa/pvslib/pvslib&#45;gitlab__pvs7.0/vectors</title>
<polygon fill="#fcfcd7" stroke="#000000" points="164.4294,-486 107.5706,-486 107.5706,-450 164.4294,-450 164.4294,-486"/>
<text text-anchor="middle" x="136" y="-463.8" font-family="Times,serif" font-size="14.00" fill="#000000">vectors</text>
</g>
<!-- /Users/mmoscato/nasa/pvslib/pvslib&#45;gitlab__pvs7.0/aviation&#45;&gt;/Users/mmoscato/nasa/pvslib/pvslib&#45;gitlab__pvs7.0/vectors -->
<g id="edge13" class="edge">
<title>/Users/mmoscato/nasa/pvslib/pvslib&#45;gitlab__pvs7.0/aviation&#45;&gt;/Users/mmoscato/nasa/pvslib/pvslib&#45;gitlab__pvs7.0/vectors</title>
<path fill="none" stroke="#000000" d="M136,-521.8314C136,-521.8314 136,-496.4133 136,-496.4133"/>
<polygon fill="#000000" stroke="#000000" points="139.5001,-496.4132 136,-486.4133 132.5001,-496.4133 139.5001,-496.4132"/>
</g>
<!-- /Users/mmoscato/nasa/pvslib/pvslib&#45;gitlab__pvs7.0/aviation&#45;&gt;/Users/mmoscato/pvs/7.1&#45;0&#45;g3fb4f25&#45;ix86&#45;MacOSX&#45;allegro/lib/finite_sets -->
<g id="edge14" class="edge">
<title>/Users/mmoscato/nasa/pvslib/pvslib&#45;gitlab__pvs7.0/aviation&#45;&gt;/Users/mmoscato/pvs/7.1&#45;0&#45;g3fb4f25&#45;ix86&#45;MacOSX&#45;allegro/lib/finite_sets</title>
<path fill="none" stroke="#000000" d="M166.9964,-550C229.7312,-550 365.8338,-550 365.8338,-550 365.8338,-550 365.8338,-206.1942 365.8338,-206.1942"/>
<polygon fill="#000000" stroke="#000000" points="369.3339,-206.1941 365.8338,-196.1942 362.3339,-206.1942 369.3339,-206.1941"/>
</g>
<!-- /Users/mmoscato/nasa/pvslib/pvslib&#45;gitlab__pvs7.0/reals&#45;&gt;/Users/mmoscato/nasa/pvslib/pvslib&#45;gitlab__pvs7.0/ints -->
<g id="edge15" class="edge">
<title>/Users/mmoscato/nasa/pvslib/pvslib&#45;gitlab__pvs7.0/reals&#45;&gt;/Users/mmoscato/nasa/pvslib/pvslib&#45;gitlab__pvs7.0/ints</title>
<path fill="none" stroke="#000000" d="M55.7614,-178C52.1373,-178 49.6433,-178 49.6433,-178 49.6433,-178 49.6433,-44 49.6433,-44 49.6433,-44 52.8576,-44 52.8576,-44"/>
<polygon fill="#000000" stroke="#000000" points="52.8576,-47.5001 62.8576,-44 52.8575,-40.5001 52.8576,-47.5001"/>
</g>
<!-- /Users/mmoscato/nasa/pvslib/pvslib&#45;gitlab__pvs7.0/reals&#45;&gt;/Users/mmoscato/nasa/pvslib/pvslib&#45;gitlab__pvs7.0/structures -->
<g id="edge16" class="edge">
<title>/Users/mmoscato/nasa/pvslib/pvslib&#45;gitlab__pvs7.0/reals&#45;&gt;/Users/mmoscato/nasa/pvslib/pvslib&#45;gitlab__pvs7.0/structures</title>
<path fill="none" stroke="#000000" d="M83,-159.8314C83,-159.8314 83,-134.4133 83,-134.4133"/>
<polygon fill="#000000" stroke="#000000" points="86.5001,-134.4132 83,-124.4133 79.5001,-134.4133 86.5001,-134.4132"/>
</g>
<!-- /Users/mmoscato/nasa/pvslib/pvslib&#45;gitlab__pvs7.0/series&#45;&gt;/Users/mmoscato/nasa/pvslib/pvslib&#45;gitlab__pvs7.0/analysis -->
<g id="edge17" class="edge">
<title>/Users/mmoscato/nasa/pvslib/pvslib&#45;gitlab__pvs7.0/series&#45;&gt;/Users/mmoscato/nasa/pvslib/pvslib&#45;gitlab__pvs7.0/analysis</title>
<path fill="none" stroke="#000000" d="M189.8739,-315C179.6151,-315 170.3678,-315 170.3678,-315 170.3678,-315 170.3678,-280.2222 170.3678,-280.2222"/>
<polygon fill="#000000" stroke="#000000" points="173.8679,-280.2222 170.3678,-270.2222 166.8679,-280.2222 173.8679,-280.2222"/>
</g>
<!-- /Users/mmoscato/nasa/pvslib/pvslib&#45;gitlab__pvs7.0/series&#45;&gt;/Users/mmoscato/nasa/pvslib/pvslib&#45;gitlab__pvs7.0/ints -->
<g id="edge18" class="edge">
<title>/Users/mmoscato/nasa/pvslib/pvslib&#45;gitlab__pvs7.0/series&#45;&gt;/Users/mmoscato/nasa/pvslib/pvslib&#45;gitlab__pvs7.0/ints</title>
<path fill="none" stroke="#000000" d="M234,-305.9295C234,-241.6635 234,-28 234,-28 234,-28 127.0853,-28 127.0853,-28"/>
<polygon fill="#000000" stroke="#000000" points="127.0853,-24.5001 117.0853,-28 127.0853,-31.5001 127.0853,-24.5001"/>
</g>
<!-- /Users/mmoscato/nasa/pvslib/pvslib&#45;gitlab__pvs7.0/series&#45;&gt;/Users/mmoscato/nasa/pvslib/pvslib&#45;gitlab__pvs7.0/orders -->
<g id="edge19" class="edge">
<title>/Users/mmoscato/nasa/pvslib/pvslib&#45;gitlab__pvs7.0/series&#45;&gt;/Users/mmoscato/nasa/pvslib/pvslib&#45;gitlab__pvs7.0/orders</title>
<path fill="none" stroke="#000000" d="M207,-305.8042C207,-305.8042 207,-206.4251 207,-206.4251"/>
<polygon fill="#000000" stroke="#000000" points="210.5001,-206.4251 207,-196.4251 203.5001,-206.4251 210.5001,-206.4251"/>
</g>
<!-- /Users/mmoscato/nasa/pvslib/pvslib&#45;gitlab__pvs7.0/series&#45;&gt;/Users/mmoscato/nasa/pvslib/pvslib&#45;gitlab__pvs7.0/reals -->
<g id="edge20" class="edge">
<title>/Users/mmoscato/nasa/pvslib/pvslib&#45;gitlab__pvs7.0/series&#45;&gt;/Users/mmoscato/nasa/pvslib/pvslib&#45;gitlab__pvs7.0/reals</title>
<path fill="none" stroke="#000000" d="M189.8177,-324C154.4746,-324 97.2097,-324 97.2097,-324 97.2097,-324 97.2097,-206.1958 97.2097,-206.1958"/>
<polygon fill="#000000" stroke="#000000" points="100.7098,-206.1958 97.2097,-196.1958 93.7098,-206.1958 100.7098,-206.1958"/>
</g>
<!-- /Users/mmoscato/nasa/pvslib/pvslib&#45;gitlab__pvs7.0/series&#45;&gt;/Users/mmoscato/nasa/pvslib/pvslib&#45;gitlab__pvs7.0/structures -->
<g id="edge21" class="edge">
<title>/Users/mmoscato/nasa/pvslib/pvslib&#45;gitlab__pvs7.0/series&#45;&gt;/Users/mmoscato/nasa/pvslib/pvslib&#45;gitlab__pvs7.0/structures</title>
<path fill="none" stroke="#000000" d="M229,-305.7884C229,-253.3943 229,-106 229,-106 229,-106 135.4352,-106 135.4352,-106"/>
<polygon fill="#000000" stroke="#000000" points="135.4353,-102.5001 125.4352,-106 135.4352,-109.5001 135.4353,-102.5001"/>
</g>
<!-- /Users/mmoscato/nasa/pvslib/pvslib&#45;gitlab__pvs7.0/series&#45;&gt;/Users/mmoscato/pvs/7.1&#45;0&#45;g3fb4f25&#45;ix86&#45;MacOSX&#45;allegro/lib/finite_sets -->
<g id="edge22" class="edge">
<title>/Users/mmoscato/nasa/pvslib/pvslib&#45;gitlab__pvs7.0/series&#45;&gt;/Users/mmoscato/pvs/7.1&#45;0&#45;g3fb4f25&#45;ix86&#45;MacOSX&#45;allegro/lib/finite_sets</title>
<path fill="none" stroke="#000000" d="M239,-305.9667C239,-265.7035 239,-172 239,-172 239,-172 297.5708,-172 297.5708,-172"/>
<polygon fill="#000000" stroke="#000000" points="297.5708,-175.5001 307.5708,-172 297.5707,-168.5001 297.5708,-175.5001"/>
</g>
<!-- /Users/mmoscato/nasa/pvslib/pvslib&#45;gitlab__pvs7.0/structures&#45;&gt;/Users/mmoscato/nasa/pvslib/pvslib&#45;gitlab__pvs7.0/ints -->
<g id="edge23" class="edge">
<title>/Users/mmoscato/nasa/pvslib/pvslib&#45;gitlab__pvs7.0/structures&#45;&gt;/Users/mmoscato/nasa/pvslib/pvslib&#45;gitlab__pvs7.0/ints</title>
<path fill="none" stroke="#000000" d="M90,-87.8314C90,-87.8314 90,-62.4133 90,-62.4133"/>
<polygon fill="#000000" stroke="#000000" points="93.5001,-62.4132 90,-52.4133 86.5001,-62.4133 93.5001,-62.4132"/>
</g>
<!-- /Users/mmoscato/nasa/pvslib/pvslib&#45;gitlab__pvs7.0/trig&#45;&gt;/Users/mmoscato/nasa/pvslib/pvslib&#45;gitlab__pvs7.0/analysis -->
<g id="edge24" class="edge">
<title>/Users/mmoscato/nasa/pvslib/pvslib&#45;gitlab__pvs7.0/trig&#45;&gt;/Users/mmoscato/nasa/pvslib/pvslib&#45;gitlab__pvs7.0/analysis</title>
<path fill="none" stroke="#000000" d="M163.1839,-377.7623C163.1839,-377.7623 163.1839,-280.0896 163.1839,-280.0896"/>
<polygon fill="#000000" stroke="#000000" points="166.684,-280.0896 163.1839,-270.0896 159.684,-280.0897 166.684,-280.0896"/>
</g>
<!-- /Users/mmoscato/nasa/pvslib/pvslib&#45;gitlab__pvs7.0/trig&#45;&gt;/Users/mmoscato/nasa/pvslib/pvslib&#45;gitlab__pvs7.0/ints -->
<g id="edge25" class="edge">
<title>/Users/mmoscato/nasa/pvslib/pvslib&#45;gitlab__pvs7.0/trig&#45;&gt;/Users/mmoscato/nasa/pvslib/pvslib&#45;gitlab__pvs7.0/ints</title>
<path fill="none" stroke="#000000" d="M155.982,-402C114.3722,-402 39.3576,-402 39.3576,-402 39.3576,-402 39.3576,-37 39.3576,-37 39.3576,-37 52.8997,-37 52.8997,-37"/>
<polygon fill="#000000" stroke="#000000" points="52.8997,-40.5001 62.8997,-37 52.8997,-33.5001 52.8997,-40.5001"/>
</g>
<!-- /Users/mmoscato/nasa/pvslib/pvslib&#45;gitlab__pvs7.0/trig&#45;&gt;/Users/mmoscato/nasa/pvslib/pvslib&#45;gitlab__pvs7.0/orders -->
<g id="edge26" class="edge">
<title>/Users/mmoscato/nasa/pvslib/pvslib&#45;gitlab__pvs7.0/trig&#45;&gt;/Users/mmoscato/nasa/pvslib/pvslib&#45;gitlab__pvs7.0/orders</title>
<path fill="none" stroke="#000000" d="M186.8879,-377.7884C186.8879,-377.7884 186.8879,-206.0064 186.8879,-206.0064"/>
<polygon fill="#000000" stroke="#000000" points="190.388,-206.0064 186.8879,-196.0064 183.388,-206.0065 190.388,-206.0064"/>
</g>
<!-- /Users/mmoscato/nasa/pvslib/pvslib&#45;gitlab__pvs7.0/trig&#45;&gt;/Users/mmoscato/nasa/pvslib/pvslib&#45;gitlab__pvs7.0/reals -->
<g id="edge27" class="edge">
<title>/Users/mmoscato/nasa/pvslib/pvslib&#45;gitlab__pvs7.0/trig&#45;&gt;/Users/mmoscato/nasa/pvslib/pvslib&#45;gitlab__pvs7.0/reals</title>
<path fill="none" stroke="#000000" d="M155.802,-390C128.0307,-390 88.9678,-390 88.9678,-390 88.9678,-390 88.9678,-206.075 88.9678,-206.075"/>
<polygon fill="#000000" stroke="#000000" points="92.4679,-206.075 88.9678,-196.075 85.4679,-206.075 92.4679,-206.075"/>
</g>
<!-- /Users/mmoscato/nasa/pvslib/pvslib&#45;gitlab__pvs7.0/trig&#45;&gt;/Users/mmoscato/nasa/pvslib/pvslib&#45;gitlab__pvs7.0/series -->
<g id="edge28" class="edge">
<title>/Users/mmoscato/nasa/pvslib/pvslib&#45;gitlab__pvs7.0/trig&#45;&gt;/Users/mmoscato/nasa/pvslib/pvslib&#45;gitlab__pvs7.0/series</title>
<path fill="none" stroke="#000000" d="M200,-377.8314C200,-377.8314 200,-352.4133 200,-352.4133"/>
<polygon fill="#000000" stroke="#000000" points="203.5001,-352.4132 200,-342.4133 196.5001,-352.4133 203.5001,-352.4132"/>
</g>
<!-- /Users/mmoscato/nasa/pvslib/pvslib&#45;gitlab__pvs7.0/trig&#45;&gt;/Users/mmoscato/nasa/pvslib/pvslib&#45;gitlab__pvs7.0/structures -->
<g id="edge29" class="edge">
<title>/Users/mmoscato/nasa/pvslib/pvslib&#45;gitlab__pvs7.0/trig&#45;&gt;/Users/mmoscato/nasa/pvslib/pvslib&#45;gitlab__pvs7.0/structures</title>
<path fill="none" stroke="#000000" d="M180.6638,-377.9833C180.6638,-332.2015 180.6638,-215 180.6638,-215 180.6638,-215 123.0225,-215 123.0225,-215 123.0225,-215 123.0225,-134.4904 123.0225,-134.4904"/>
<polygon fill="#000000" stroke="#000000" points="126.5226,-134.4903 123.0225,-124.4904 119.5226,-134.4904 126.5226,-134.4903"/>
</g>
<!-- /Users/mmoscato/nasa/pvslib/pvslib&#45;gitlab__pvs7.0/trig&#45;&gt;/Users/mmoscato/pvs/7.1&#45;0&#45;g3fb4f25&#45;ix86&#45;MacOSX&#45;allegro/lib/finite_sets -->
<g id="edge30" class="edge">
<title>/Users/mmoscato/nasa/pvslib/pvslib&#45;gitlab__pvs7.0/trig&#45;&gt;/Users/mmoscato/pvs/7.1&#45;0&#45;g3fb4f25&#45;ix86&#45;MacOSX&#45;allegro/lib/finite_sets</title>
<path fill="none" stroke="#000000" d="M210.1286,-396C254.2591,-396 336.7221,-396 336.7221,-396 336.7221,-396 336.7221,-206.2116 336.7221,-206.2116"/>
<polygon fill="#000000" stroke="#000000" points="340.2222,-206.2116 336.7221,-196.2116 333.2222,-206.2116 340.2222,-206.2116"/>
</g>
<!-- /Users/mmoscato/nasa/pvslib/pvslib&#45;gitlab__pvs7.0/vectors&#45;&gt;/Users/mmoscato/nasa/pvslib/pvslib&#45;gitlab__pvs7.0/analysis -->
<g id="edge31" class="edge">
<title>/Users/mmoscato/nasa/pvslib/pvslib&#45;gitlab__pvs7.0/vectors&#45;&gt;/Users/mmoscato/nasa/pvslib/pvslib&#45;gitlab__pvs7.0/analysis</title>
<path fill="none" stroke="#000000" d="M126.3362,-449.9555C126.3362,-449.9555 126.3362,-280.1451 126.3362,-280.1451"/>
<polygon fill="#000000" stroke="#000000" points="129.8363,-280.145 126.3362,-270.1451 122.8363,-280.1451 129.8363,-280.145"/>
</g>
<!-- /Users/mmoscato/nasa/pvslib/pvslib&#45;gitlab__pvs7.0/vectors&#45;&gt;/Users/mmoscato/nasa/pvslib/pvslib&#45;gitlab__pvs7.0/ints -->
<g id="edge32" class="edge">
<title>/Users/mmoscato/nasa/pvslib/pvslib&#45;gitlab__pvs7.0/vectors&#45;&gt;/Users/mmoscato/nasa/pvslib/pvslib&#45;gitlab__pvs7.0/ints</title>
<path fill="none" stroke="#000000" d="M107.6471,-477C77.5297,-477 34.2147,-477 34.2147,-477 34.2147,-477 34.2147,-30 34.2147,-30 34.2147,-30 52.761,-30 52.761,-30"/>
<polygon fill="#000000" stroke="#000000" points="52.7611,-33.5001 62.761,-30 52.761,-26.5001 52.7611,-33.5001"/>
</g>
<!-- /Users/mmoscato/nasa/pvslib/pvslib&#45;gitlab__pvs7.0/vectors&#45;&gt;/Users/mmoscato/nasa/pvslib/pvslib&#45;gitlab__pvs7.0/orders -->
<g id="edge33" class="edge">
<title>/Users/mmoscato/nasa/pvslib/pvslib&#45;gitlab__pvs7.0/vectors&#45;&gt;/Users/mmoscato/nasa/pvslib/pvslib&#45;gitlab__pvs7.0/orders</title>
<path fill="none" stroke="#000000" d="M146.1121,-449.6793C146.1121,-418.8664 146.1121,-360 146.1121,-360 146.1121,-360 183.7759,-360 183.7759,-360 183.7759,-360 183.7759,-206.1162 183.7759,-206.1162"/>
<polygon fill="#000000" stroke="#000000" points="187.276,-206.1162 183.7759,-196.1162 180.276,-206.1163 187.276,-206.1162"/>
</g>
<!-- /Users/mmoscato/nasa/pvslib/pvslib&#45;gitlab__pvs7.0/vectors&#45;&gt;/Users/mmoscato/nasa/pvslib/pvslib&#45;gitlab__pvs7.0/reals -->
<g id="edge34" class="edge">
<title>/Users/mmoscato/nasa/pvslib/pvslib&#45;gitlab__pvs7.0/vectors&#45;&gt;/Users/mmoscato/nasa/pvslib/pvslib&#45;gitlab__pvs7.0/reals</title>
<path fill="none" stroke="#000000" d="M107.5859,-459C90.6744,-459 72.4839,-459 72.4839,-459 72.4839,-459 72.4839,-206.0053 72.4839,-206.0053"/>
<polygon fill="#000000" stroke="#000000" points="75.984,-206.0052 72.4839,-196.0053 68.984,-206.0053 75.984,-206.0052"/>
</g>
<!-- /Users/mmoscato/nasa/pvslib/pvslib&#45;gitlab__pvs7.0/vectors&#45;&gt;/Users/mmoscato/nasa/pvslib/pvslib&#45;gitlab__pvs7.0/series -->
<g id="edge35" class="edge">
<title>/Users/mmoscato/nasa/pvslib/pvslib&#45;gitlab__pvs7.0/vectors&#45;&gt;/Users/mmoscato/nasa/pvslib/pvslib&#45;gitlab__pvs7.0/series</title>
<path fill="none" stroke="#000000" d="M136.2241,-449.7933C136.2241,-412.9441 136.2241,-333 136.2241,-333 136.2241,-333 179.653,-333 179.653,-333"/>
<polygon fill="#000000" stroke="#000000" points="179.653,-336.5001 189.653,-333 179.6529,-329.5001 179.653,-336.5001"/>
</g>
<!-- /Users/mmoscato/nasa/pvslib/pvslib&#45;gitlab__pvs7.0/vectors&#45;&gt;/Users/mmoscato/nasa/pvslib/pvslib&#45;gitlab__pvs7.0/structures -->
<g id="edge36" class="edge">
<title>/Users/mmoscato/nasa/pvslib/pvslib&#45;gitlab__pvs7.0/vectors&#45;&gt;/Users/mmoscato/nasa/pvslib/pvslib&#45;gitlab__pvs7.0/structures</title>
<path fill="none" stroke="#000000" d="M107.5505,-468C80.6906,-468 44.5004,-468 44.5004,-468 44.5004,-468 44.5004,-112 44.5004,-112 44.5004,-112 45.5102,-112 45.5102,-112"/>
<polygon fill="#000000" stroke="#000000" points="44.5983,-115.5001 54.5983,-112 44.5982,-108.5001 44.5983,-115.5001"/>
</g>
<!-- /Users/mmoscato/nasa/pvslib/pvslib&#45;gitlab__pvs7.0/vectors&#45;&gt;/Users/mmoscato/nasa/pvslib/pvslib&#45;gitlab__pvs7.0/trig -->
<g id="edge37" class="edge">
<title>/Users/mmoscato/nasa/pvslib/pvslib&#45;gitlab__pvs7.0/vectors&#45;&gt;/Users/mmoscato/nasa/pvslib/pvslib&#45;gitlab__pvs7.0/trig</title>
<path fill="none" stroke="#000000" d="M160.1069,-449.8314C160.1069,-449.8314 160.1069,-424.4133 160.1069,-424.4133"/>
<polygon fill="#000000" stroke="#000000" points="163.607,-424.4132 160.1069,-414.4133 156.607,-424.4133 163.607,-424.4132"/>
</g>
<!-- /Users/mmoscato/nasa/pvslib/pvslib&#45;gitlab__pvs7.0/vectors&#45;&gt;/Users/mmoscato/pvs/7.1&#45;0&#45;g3fb4f25&#45;ix86&#45;MacOSX&#45;allegro/lib/finite_sets -->
<g id="edge38" class="edge">
<title>/Users/mmoscato/nasa/pvslib/pvslib&#45;gitlab__pvs7.0/vectors&#45;&gt;/Users/mmoscato/pvs/7.1&#45;0&#45;g3fb4f25&#45;ix86&#45;MacOSX&#45;allegro/lib/finite_sets</title>
<path fill="none" stroke="#000000" d="M164.5872,-468C223.1471,-468 351.2779,-468 351.2779,-468 351.2779,-468 351.2779,-206.1408 351.2779,-206.1408"/>
<polygon fill="#000000" stroke="#000000" points="354.778,-206.1408 351.2779,-196.1408 347.778,-206.1408 354.778,-206.1408"/>
</g>
</g>
</svg>
