<?xml version="1.0" encoding="UTF-8" standalone="no"?>
<!DOCTYPE svg PUBLIC "-//W3C//DTD SVG 1.1//EN"
 "http://www.w3.org/Graphics/SVG/1.1/DTD/svg11.dtd">
<!-- Generated by graphviz version 2.40.1 (20161225.0304)
 -->
<!-- Title: matrices Pages: 1 -->
<svg width="206pt" height="314pt"
 viewBox="0.00 0.00 206.00 314.00" xmlns="http://www.w3.org/2000/svg" xmlns:xlink="http://www.w3.org/1999/xlink">
<g id="graph0" class="graph" transform="scale(1 1) rotate(0) translate(4 310)">
<title>matrices</title>
<polygon fill="#ffffff" stroke="transparent" points="-4,4 -4,-310 202,-310 202,4 -4,4"/>
<g id="clust1" class="cluster">
<title>cluster_NASALib</title>
<polygon fill="none" stroke="#000000" points="8,-8 8,-298 190,-298 190,-8 8,-8"/>
<text text-anchor="middle" x="99" y="-282.8" font-family="Times,serif" font-size="14.00" fill="#000000">NASALib</text>
</g>
<!-- /Users/mmoscato/nasa/pvslib/pvslib&#45;gitlab__pvs7.0/ints -->
<g id="node1" class="node">
<title>/Users/mmoscato/nasa/pvslib/pvslib&#45;gitlab__pvs7.0/ints</title>
<polygon fill="#fcfcd7" stroke="#000000" points="116,-52 62,-52 62,-16 116,-16 116,-52"/>
<text text-anchor="middle" x="89" y="-29.8" font-family="Times,serif" font-size="14.00" fill="#000000">ints</text>
</g>
<!-- /Users/mmoscato/nasa/pvslib/pvslib&#45;gitlab__pvs7.0/matrices -->
<g id="node2" class="node">
<title>/Users/mmoscato/nasa/pvslib/pvslib&#45;gitlab__pvs7.0/matrices</title>
<polygon fill="#f7e28d" stroke="#000000" points="130.9223,-268 67.0777,-268 67.0777,-232 130.9223,-232 130.9223,-268"/>
<text text-anchor="middle" x="99" y="-245.8" font-family="Times,serif" font-size="14.00" fill="#000000">matrices</text>
</g>
<!-- /Users/mmoscato/nasa/pvslib/pvslib&#45;gitlab__pvs7.0/matrices&#45;&gt;/Users/mmoscato/nasa/pvslib/pvslib&#45;gitlab__pvs7.0/ints -->
<g id="edge1" class="edge">
<title>/Users/mmoscato/nasa/pvslib/pvslib&#45;gitlab__pvs7.0/matrices&#45;&gt;/Users/mmoscato/nasa/pvslib/pvslib&#45;gitlab__pvs7.0/ints</title>
<path fill="none" stroke="#000000" d="M93.262,-231.9555C93.262,-231.9555 93.262,-62.1451 93.262,-62.1451"/>
<polygon fill="#000000" stroke="#000000" points="96.7621,-62.145 93.262,-52.1451 89.7621,-62.1451 96.7621,-62.145"/>
</g>
<!-- /Users/mmoscato/nasa/pvslib/pvslib&#45;gitlab__pvs7.0/orders -->
<g id="node3" class="node">
<title>/Users/mmoscato/nasa/pvslib/pvslib&#45;gitlab__pvs7.0/orders</title>
<polygon fill="#fcfcd7" stroke="#000000" points="90,-196 36,-196 36,-160 90,-160 90,-196"/>
<text text-anchor="middle" x="63" y="-173.8" font-family="Times,serif" font-size="14.00" fill="#000000">orders</text>
</g>
<!-- /Users/mmoscato/nasa/pvslib/pvslib&#45;gitlab__pvs7.0/matrices&#45;&gt;/Users/mmoscato/nasa/pvslib/pvslib&#45;gitlab__pvs7.0/orders -->
<g id="edge2" class="edge">
<title>/Users/mmoscato/nasa/pvslib/pvslib&#45;gitlab__pvs7.0/matrices&#45;&gt;/Users/mmoscato/nasa/pvslib/pvslib&#45;gitlab__pvs7.0/orders</title>
<path fill="none" stroke="#000000" d="M78.6448,-231.8314C78.6448,-231.8314 78.6448,-206.4133 78.6448,-206.4133"/>
<polygon fill="#000000" stroke="#000000" points="82.1449,-206.4132 78.6448,-196.4133 75.1449,-206.4133 82.1449,-206.4132"/>
</g>
<!-- /Users/mmoscato/nasa/pvslib/pvslib&#45;gitlab__pvs7.0/reals -->
<g id="node4" class="node">
<title>/Users/mmoscato/nasa/pvslib/pvslib&#45;gitlab__pvs7.0/reals</title>
<polygon fill="#fcfcd7" stroke="#000000" points="162,-196 108,-196 108,-160 162,-160 162,-196"/>
<text text-anchor="middle" x="135" y="-173.8" font-family="Times,serif" font-size="14.00" fill="#000000">reals</text>
</g>
<!-- /Users/mmoscato/nasa/pvslib/pvslib&#45;gitlab__pvs7.0/matrices&#45;&gt;/Users/mmoscato/nasa/pvslib/pvslib&#45;gitlab__pvs7.0/reals -->
<g id="edge3" class="edge">
<title>/Users/mmoscato/nasa/pvslib/pvslib&#45;gitlab__pvs7.0/matrices&#45;&gt;/Users/mmoscato/nasa/pvslib/pvslib&#45;gitlab__pvs7.0/reals</title>
<path fill="none" stroke="#000000" d="M119.3552,-231.8314C119.3552,-231.8314 119.3552,-206.4133 119.3552,-206.4133"/>
<polygon fill="#000000" stroke="#000000" points="122.8553,-206.4132 119.3552,-196.4133 115.8553,-206.4133 122.8553,-206.4132"/>
</g>
<!-- /Users/mmoscato/nasa/pvslib/pvslib&#45;gitlab__pvs7.0/structures -->
<g id="node5" class="node">
<title>/Users/mmoscato/nasa/pvslib/pvslib&#45;gitlab__pvs7.0/structures</title>
<polygon fill="#fcfcd7" stroke="#000000" points="170.429,-124 99.571,-124 99.571,-88 170.429,-88 170.429,-124"/>
<text text-anchor="middle" x="135" y="-101.8" font-family="Times,serif" font-size="14.00" fill="#000000">structures</text>
</g>
<!-- /Users/mmoscato/nasa/pvslib/pvslib&#45;gitlab__pvs7.0/matrices&#45;&gt;/Users/mmoscato/nasa/pvslib/pvslib&#45;gitlab__pvs7.0/structures -->
<g id="edge4" class="edge">
<title>/Users/mmoscato/nasa/pvslib/pvslib&#45;gitlab__pvs7.0/matrices&#45;&gt;/Users/mmoscato/nasa/pvslib/pvslib&#45;gitlab__pvs7.0/structures</title>
<path fill="none" stroke="#000000" d="M103.8931,-231.7623C103.8931,-231.7623 103.8931,-134.0896 103.8931,-134.0896"/>
<polygon fill="#000000" stroke="#000000" points="107.3932,-134.0896 103.8931,-124.0896 100.3932,-134.0897 107.3932,-134.0896"/>
</g>
<!-- /Users/mmoscato/nasa/pvslib/pvslib&#45;gitlab__pvs7.0/reals&#45;&gt;/Users/mmoscato/nasa/pvslib/pvslib&#45;gitlab__pvs7.0/ints -->
<g id="edge5" class="edge">
<title>/Users/mmoscato/nasa/pvslib/pvslib&#45;gitlab__pvs7.0/reals&#45;&gt;/Users/mmoscato/nasa/pvslib/pvslib&#45;gitlab__pvs7.0/ints</title>
<path fill="none" stroke="#000000" d="M107.86,-178C101.4933,-178 96.5241,-178 96.5241,-178 96.5241,-178 96.5241,-62.2377 96.5241,-62.2377"/>
<polygon fill="#000000" stroke="#000000" points="100.0242,-62.2377 96.5241,-52.2377 93.0242,-62.2377 100.0242,-62.2377"/>
</g>
<!-- /Users/mmoscato/nasa/pvslib/pvslib&#45;gitlab__pvs7.0/reals&#45;&gt;/Users/mmoscato/nasa/pvslib/pvslib&#45;gitlab__pvs7.0/structures -->
<g id="edge6" class="edge">
<title>/Users/mmoscato/nasa/pvslib/pvslib&#45;gitlab__pvs7.0/reals&#45;&gt;/Users/mmoscato/nasa/pvslib/pvslib&#45;gitlab__pvs7.0/structures</title>
<path fill="none" stroke="#000000" d="M135,-159.8314C135,-159.8314 135,-134.4133 135,-134.4133"/>
<polygon fill="#000000" stroke="#000000" points="138.5001,-134.4132 135,-124.4133 131.5001,-134.4133 138.5001,-134.4132"/>
</g>
<!-- /Users/mmoscato/nasa/pvslib/pvslib&#45;gitlab__pvs7.0/structures&#45;&gt;/Users/mmoscato/nasa/pvslib/pvslib&#45;gitlab__pvs7.0/ints -->
<g id="edge7" class="edge">
<title>/Users/mmoscato/nasa/pvslib/pvslib&#45;gitlab__pvs7.0/structures&#45;&gt;/Users/mmoscato/nasa/pvslib/pvslib&#45;gitlab__pvs7.0/ints</title>
<path fill="none" stroke="#000000" d="M107.8931,-87.8314C107.8931,-87.8314 107.8931,-62.4133 107.8931,-62.4133"/>
<polygon fill="#000000" stroke="#000000" points="111.3932,-62.4132 107.8931,-52.4133 104.3932,-62.4133 111.3932,-62.4132"/>
</g>
</g>
</svg>
