<?xml version="1.0" encoding="UTF-8" standalone="no"?>
<!DOCTYPE svg PUBLIC "-//W3C//DTD SVG 1.1//EN"
 "http://www.w3.org/Graphics/SVG/1.1/DTD/svg11.dtd">
<!-- Generated by graphviz version 2.40.1 (20161225.0304)
 -->
<!-- Title: matrices Pages: 1 -->
<svg width="246pt" height="458pt"
 viewBox="0.00 0.00 246.00 458.00" xmlns="http://www.w3.org/2000/svg" xmlns:xlink="http://www.w3.org/1999/xlink">
<g id="graph0" class="graph" transform="scale(1 1) rotate(0) translate(4 454)">
<title>matrices</title>
<polygon fill="#ffffff" stroke="transparent" points="-4,4 -4,-454 242,-454 242,4 -4,4"/>
<g id="clust1" class="cluster">
<title>cluster_NASALib</title>
<polygon fill="none" stroke="#000000" points="8,-8 8,-442 230,-442 230,-8 8,-8"/>
<text text-anchor="middle" x="119" y="-426.8" font-family="Times,serif" font-size="14.00" fill="#000000">NASALib</text>
</g>
<!-- /Users/mmoscato/nasa/pvslib/pvslib&#45;gitlab__pvs7.0/Tarski -->
<g id="node1" class="node">
<title>/Users/mmoscato/nasa/pvslib/pvslib&#45;gitlab__pvs7.0/Tarski</title>
<polygon fill="#fcfcd7" stroke="#000000" points="153,-340 99,-340 99,-304 153,-304 153,-340"/>
<text text-anchor="middle" x="126" y="-317.8" font-family="Times,serif" font-size="14.00" fill="#000000">Tarski</text>
</g>
<!-- /Users/mmoscato/nasa/pvslib/pvslib&#45;gitlab__pvs7.0/ints -->
<g id="node3" class="node">
<title>/Users/mmoscato/nasa/pvslib/pvslib&#45;gitlab__pvs7.0/ints</title>
<polygon fill="#fcfcd7" stroke="#000000" points="102,-52 48,-52 48,-16 102,-16 102,-52"/>
<text text-anchor="middle" x="75" y="-29.8" font-family="Times,serif" font-size="14.00" fill="#000000">ints</text>
</g>
<!-- /Users/mmoscato/nasa/pvslib/pvslib&#45;gitlab__pvs7.0/Tarski&#45;&gt;/Users/mmoscato/nasa/pvslib/pvslib&#45;gitlab__pvs7.0/ints -->
<g id="edge1" class="edge">
<title>/Users/mmoscato/nasa/pvslib/pvslib&#45;gitlab__pvs7.0/Tarski&#45;&gt;/Users/mmoscato/nasa/pvslib/pvslib&#45;gitlab__pvs7.0/ints</title>
<path fill="none" stroke="#000000" d="M98.9836,-331C65.2722,-331 12,-331 12,-331 12,-331 12,-34 12,-34 12,-34 37.9167,-34 37.9167,-34"/>
<polygon fill="#000000" stroke="#000000" points="37.9167,-37.5001 47.9167,-34 37.9167,-30.5001 37.9167,-37.5001"/>
</g>
<!-- /Users/mmoscato/nasa/pvslib/pvslib&#45;gitlab__pvs7.0/matrices -->
<g id="node4" class="node">
<title>/Users/mmoscato/nasa/pvslib/pvslib&#45;gitlab__pvs7.0/matrices</title>
<polygon fill="#f7e28d" stroke="#000000" points="157.9223,-268 94.0777,-268 94.0777,-232 157.9223,-232 157.9223,-268"/>
<text text-anchor="middle" x="126" y="-245.8" font-family="Times,serif" font-size="14.00" fill="#000000">matrices</text>
</g>
<!-- /Users/mmoscato/nasa/pvslib/pvslib&#45;gitlab__pvs7.0/Tarski&#45;&gt;/Users/mmoscato/nasa/pvslib/pvslib&#45;gitlab__pvs7.0/matrices -->
<g id="edge2" class="edge">
<title>/Users/mmoscato/nasa/pvslib/pvslib&#45;gitlab__pvs7.0/Tarski&#45;&gt;/Users/mmoscato/nasa/pvslib/pvslib&#45;gitlab__pvs7.0/matrices</title>
<path fill="none" stroke="#000000" d="M126,-303.8314C126,-303.8314 126,-278.4133 126,-278.4133"/>
<polygon fill="#000000" stroke="#000000" points="129.5001,-278.4132 126,-268.4133 122.5001,-278.4133 129.5001,-278.4132"/>
</g>
<!-- /Users/mmoscato/nasa/pvslib/pvslib&#45;gitlab__pvs7.0/orders -->
<g id="node5" class="node">
<title>/Users/mmoscato/nasa/pvslib/pvslib&#45;gitlab__pvs7.0/orders</title>
<polygon fill="#fcfcd7" stroke="#000000" points="202,-196 148,-196 148,-160 202,-160 202,-196"/>
<text text-anchor="middle" x="175" y="-173.8" font-family="Times,serif" font-size="14.00" fill="#000000">orders</text>
</g>
<!-- /Users/mmoscato/nasa/pvslib/pvslib&#45;gitlab__pvs7.0/Tarski&#45;&gt;/Users/mmoscato/nasa/pvslib/pvslib&#45;gitlab__pvs7.0/orders -->
<g id="edge3" class="edge">
<title>/Users/mmoscato/nasa/pvslib/pvslib&#45;gitlab__pvs7.0/Tarski&#45;&gt;/Users/mmoscato/nasa/pvslib/pvslib&#45;gitlab__pvs7.0/orders</title>
<path fill="none" stroke="#000000" d="M153.1095,-322C162.5497,-322 170.8259,-322 170.8259,-322 170.8259,-322 170.8259,-206.2377 170.8259,-206.2377"/>
<polygon fill="#000000" stroke="#000000" points="174.326,-206.2377 170.8259,-196.2377 167.326,-206.2377 174.326,-206.2377"/>
</g>
<!-- /Users/mmoscato/nasa/pvslib/pvslib&#45;gitlab__pvs7.0/reals -->
<g id="node6" class="node">
<title>/Users/mmoscato/nasa/pvslib/pvslib&#45;gitlab__pvs7.0/reals</title>
<polygon fill="#fcfcd7" stroke="#000000" points="90,-196 36,-196 36,-160 90,-160 90,-196"/>
<text text-anchor="middle" x="63" y="-173.8" font-family="Times,serif" font-size="14.00" fill="#000000">reals</text>
</g>
<!-- /Users/mmoscato/nasa/pvslib/pvslib&#45;gitlab__pvs7.0/Tarski&#45;&gt;/Users/mmoscato/nasa/pvslib/pvslib&#45;gitlab__pvs7.0/reals -->
<g id="edge4" class="edge">
<title>/Users/mmoscato/nasa/pvslib/pvslib&#45;gitlab__pvs7.0/Tarski&#45;&gt;/Users/mmoscato/nasa/pvslib/pvslib&#45;gitlab__pvs7.0/reals</title>
<path fill="none" stroke="#000000" d="M98.6836,-313C85.2899,-313 72,-313 72,-313 72,-313 72,-206.2067 72,-206.2067"/>
<polygon fill="#000000" stroke="#000000" points="75.5001,-206.2067 72,-196.2067 68.5001,-206.2067 75.5001,-206.2067"/>
</g>
<!-- /Users/mmoscato/nasa/pvslib/pvslib&#45;gitlab__pvs7.0/structures -->
<g id="node7" class="node">
<title>/Users/mmoscato/nasa/pvslib/pvslib&#45;gitlab__pvs7.0/structures</title>
<polygon fill="#fcfcd7" stroke="#000000" points="110.429,-124 39.571,-124 39.571,-88 110.429,-88 110.429,-124"/>
<text text-anchor="middle" x="75" y="-101.8" font-family="Times,serif" font-size="14.00" fill="#000000">structures</text>
</g>
<!-- /Users/mmoscato/nasa/pvslib/pvslib&#45;gitlab__pvs7.0/Tarski&#45;&gt;/Users/mmoscato/nasa/pvslib/pvslib&#45;gitlab__pvs7.0/structures -->
<g id="edge5" class="edge">
<title>/Users/mmoscato/nasa/pvslib/pvslib&#45;gitlab__pvs7.0/Tarski&#45;&gt;/Users/mmoscato/nasa/pvslib/pvslib&#45;gitlab__pvs7.0/structures</title>
<path fill="none" stroke="#000000" d="M98.9337,-322C68.7157,-322 24,-322 24,-322 24,-322 24,-112 24,-112 24,-112 29.5788,-112 29.5788,-112"/>
<polygon fill="#000000" stroke="#000000" points="29.5788,-115.5001 39.5788,-112 29.5788,-108.5001 29.5788,-115.5001"/>
</g>
<!-- /Users/mmoscato/nasa/pvslib/pvslib&#45;gitlab__pvs7.0/examples -->
<g id="node2" class="node">
<title>/Users/mmoscato/nasa/pvslib/pvslib&#45;gitlab__pvs7.0/examples</title>
<polygon fill="#fcfcd7" stroke="#000000" points="160.3693,-412 91.6307,-412 91.6307,-376 160.3693,-376 160.3693,-412"/>
<text text-anchor="middle" x="126" y="-389.8" font-family="Times,serif" font-size="14.00" fill="#000000">examples</text>
</g>
<!-- /Users/mmoscato/nasa/pvslib/pvslib&#45;gitlab__pvs7.0/examples&#45;&gt;/Users/mmoscato/nasa/pvslib/pvslib&#45;gitlab__pvs7.0/Tarski -->
<g id="edge6" class="edge">
<title>/Users/mmoscato/nasa/pvslib/pvslib&#45;gitlab__pvs7.0/examples&#45;&gt;/Users/mmoscato/nasa/pvslib/pvslib&#45;gitlab__pvs7.0/Tarski</title>
<path fill="none" stroke="#000000" d="M126,-375.8314C126,-375.8314 126,-350.4133 126,-350.4133"/>
<polygon fill="#000000" stroke="#000000" points="129.5001,-350.4132 126,-340.4133 122.5001,-350.4133 129.5001,-350.4132"/>
</g>
<!-- /Users/mmoscato/nasa/pvslib/pvslib&#45;gitlab__pvs7.0/examples&#45;&gt;/Users/mmoscato/nasa/pvslib/pvslib&#45;gitlab__pvs7.0/ints -->
<g id="edge7" class="edge">
<title>/Users/mmoscato/nasa/pvslib/pvslib&#45;gitlab__pvs7.0/examples&#45;&gt;/Users/mmoscato/nasa/pvslib/pvslib&#45;gitlab__pvs7.0/ints</title>
<path fill="none" stroke="#000000" d="M91.6128,-403C56.153,-403 6,-403 6,-403 6,-403 6,-25 6,-25 6,-25 37.7294,-25 37.7294,-25"/>
<polygon fill="#000000" stroke="#000000" points="37.7294,-28.5001 47.7294,-25 37.7293,-21.5001 37.7294,-28.5001"/>
</g>
<!-- /Users/mmoscato/nasa/pvslib/pvslib&#45;gitlab__pvs7.0/examples&#45;&gt;/Users/mmoscato/nasa/pvslib/pvslib&#45;gitlab__pvs7.0/matrices -->
<g id="edge8" class="edge">
<title>/Users/mmoscato/nasa/pvslib/pvslib&#45;gitlab__pvs7.0/examples&#45;&gt;/Users/mmoscato/nasa/pvslib/pvslib&#45;gitlab__pvs7.0/matrices</title>
<path fill="none" stroke="#000000" d="M160.6564,-388C171.7504,-388 181.2173,-388 181.2173,-388 181.2173,-388 181.2173,-250 181.2173,-250 181.2173,-250 167.8002,-250 167.8002,-250"/>
<polygon fill="#000000" stroke="#000000" points="167.8002,-246.5001 157.8002,-250 167.8002,-253.5001 167.8002,-246.5001"/>
</g>
<!-- /Users/mmoscato/nasa/pvslib/pvslib&#45;gitlab__pvs7.0/examples&#45;&gt;/Users/mmoscato/nasa/pvslib/pvslib&#45;gitlab__pvs7.0/orders -->
<g id="edge9" class="edge">
<title>/Users/mmoscato/nasa/pvslib/pvslib&#45;gitlab__pvs7.0/examples&#45;&gt;/Users/mmoscato/nasa/pvslib/pvslib&#45;gitlab__pvs7.0/orders</title>
<path fill="none" stroke="#000000" d="M160.7255,-400C176.4629,-400 191.6086,-400 191.6086,-400 191.6086,-400 191.6086,-206.1672 191.6086,-206.1672"/>
<polygon fill="#000000" stroke="#000000" points="195.1087,-206.1672 191.6086,-196.1672 188.1087,-206.1672 195.1087,-206.1672"/>
</g>
<!-- /Users/mmoscato/nasa/pvslib/pvslib&#45;gitlab__pvs7.0/examples&#45;&gt;/Users/mmoscato/nasa/pvslib/pvslib&#45;gitlab__pvs7.0/reals -->
<g id="edge10" class="edge">
<title>/Users/mmoscato/nasa/pvslib/pvslib&#45;gitlab__pvs7.0/examples&#45;&gt;/Users/mmoscato/nasa/pvslib/pvslib&#45;gitlab__pvs7.0/reals</title>
<path fill="none" stroke="#000000" d="M91.2654,-385C72.8536,-385 54,-385 54,-385 54,-385 54,-206.0078 54,-206.0078"/>
<polygon fill="#000000" stroke="#000000" points="57.5001,-206.0077 54,-196.0078 50.5001,-206.0078 57.5001,-206.0077"/>
</g>
<!-- /Users/mmoscato/nasa/pvslib/pvslib&#45;gitlab__pvs7.0/examples&#45;&gt;/Users/mmoscato/nasa/pvslib/pvslib&#45;gitlab__pvs7.0/structures -->
<g id="edge11" class="edge">
<title>/Users/mmoscato/nasa/pvslib/pvslib&#45;gitlab__pvs7.0/examples&#45;&gt;/Users/mmoscato/nasa/pvslib/pvslib&#45;gitlab__pvs7.0/structures</title>
<path fill="none" stroke="#000000" d="M91.5312,-394C59.9242,-394 18,-394 18,-394 18,-394 18,-100 18,-100 18,-100 29.5493,-100 29.5493,-100"/>
<polygon fill="#000000" stroke="#000000" points="29.5493,-103.5001 39.5493,-100 29.5492,-96.5001 29.5493,-103.5001"/>
</g>
<!-- /Users/mmoscato/nasa/pvslib/pvslib&#45;gitlab__pvs7.0/matrices&#45;&gt;/Users/mmoscato/nasa/pvslib/pvslib&#45;gitlab__pvs7.0/ints -->
<g id="edge12" class="edge">
<title>/Users/mmoscato/nasa/pvslib/pvslib&#45;gitlab__pvs7.0/matrices&#45;&gt;/Users/mmoscato/nasa/pvslib/pvslib&#45;gitlab__pvs7.0/ints</title>
<path fill="none" stroke="#000000" d="M129.1069,-231.9555C129.1069,-180.0421 129.1069,-34 129.1069,-34 129.1069,-34 112.0535,-34 112.0535,-34"/>
<polygon fill="#000000" stroke="#000000" points="112.0535,-30.5001 102.0535,-34 112.0534,-37.5001 112.0535,-30.5001"/>
</g>
<!-- /Users/mmoscato/nasa/pvslib/pvslib&#45;gitlab__pvs7.0/matrices&#45;&gt;/Users/mmoscato/nasa/pvslib/pvslib&#45;gitlab__pvs7.0/orders -->
<g id="edge13" class="edge">
<title>/Users/mmoscato/nasa/pvslib/pvslib&#45;gitlab__pvs7.0/matrices&#45;&gt;/Users/mmoscato/nasa/pvslib/pvslib&#45;gitlab__pvs7.0/orders</title>
<path fill="none" stroke="#000000" d="M152.8552,-231.8314C152.8552,-231.8314 152.8552,-206.4133 152.8552,-206.4133"/>
<polygon fill="#000000" stroke="#000000" points="156.3553,-206.4132 152.8552,-196.4133 149.3553,-206.4133 156.3553,-206.4132"/>
</g>
<!-- /Users/mmoscato/nasa/pvslib/pvslib&#45;gitlab__pvs7.0/matrices&#45;&gt;/Users/mmoscato/nasa/pvslib/pvslib&#45;gitlab__pvs7.0/reals -->
<g id="edge14" class="edge">
<title>/Users/mmoscato/nasa/pvslib/pvslib&#45;gitlab__pvs7.0/matrices&#45;&gt;/Users/mmoscato/nasa/pvslib/pvslib&#45;gitlab__pvs7.0/reals</title>
<path fill="none" stroke="#000000" d="M99.5977,-231.8314C99.5977,-210.502 99.5977,-178 99.5977,-178 99.5977,-178 98.6741,-178 98.6741,-178"/>
<polygon fill="#000000" stroke="#000000" points="100.3626,-174.5001 90.3625,-178 100.3625,-181.5001 100.3626,-174.5001"/>
</g>
<!-- /Users/mmoscato/nasa/pvslib/pvslib&#45;gitlab__pvs7.0/matrices&#45;&gt;/Users/mmoscato/nasa/pvslib/pvslib&#45;gitlab__pvs7.0/structures -->
<g id="edge15" class="edge">
<title>/Users/mmoscato/nasa/pvslib/pvslib&#45;gitlab__pvs7.0/matrices&#45;&gt;/Users/mmoscato/nasa/pvslib/pvslib&#45;gitlab__pvs7.0/structures</title>
<path fill="none" stroke="#000000" d="M104.9058,-231.7623C104.9058,-231.7623 104.9058,-134.0896 104.9058,-134.0896"/>
<polygon fill="#000000" stroke="#000000" points="108.4059,-134.0896 104.9058,-124.0896 101.4059,-134.0897 108.4059,-134.0896"/>
</g>
<!-- /Users/mmoscato/nasa/pvslib/pvslib&#45;gitlab__pvs7.0/reals&#45;&gt;/Users/mmoscato/nasa/pvslib/pvslib&#45;gitlab__pvs7.0/ints -->
<g id="edge16" class="edge">
<title>/Users/mmoscato/nasa/pvslib/pvslib&#45;gitlab__pvs7.0/reals&#45;&gt;/Users/mmoscato/nasa/pvslib/pvslib&#45;gitlab__pvs7.0/ints</title>
<path fill="none" stroke="#000000" d="M35.7482,-178C32.3284,-178 30,-178 30,-178 30,-178 30,-43 30,-43 30,-43 37.7852,-43 37.7852,-43"/>
<polygon fill="#000000" stroke="#000000" points="37.7852,-46.5001 47.7852,-43 37.7852,-39.5001 37.7852,-46.5001"/>
</g>
<!-- /Users/mmoscato/nasa/pvslib/pvslib&#45;gitlab__pvs7.0/reals&#45;&gt;/Users/mmoscato/nasa/pvslib/pvslib&#45;gitlab__pvs7.0/structures -->
<g id="edge17" class="edge">
<title>/Users/mmoscato/nasa/pvslib/pvslib&#45;gitlab__pvs7.0/reals&#45;&gt;/Users/mmoscato/nasa/pvslib/pvslib&#45;gitlab__pvs7.0/structures</title>
<path fill="none" stroke="#000000" d="M64.8931,-159.8314C64.8931,-159.8314 64.8931,-134.4133 64.8931,-134.4133"/>
<polygon fill="#000000" stroke="#000000" points="68.3932,-134.4132 64.8931,-124.4133 61.3932,-134.4133 68.3932,-134.4132"/>
</g>
<!-- /Users/mmoscato/nasa/pvslib/pvslib&#45;gitlab__pvs7.0/structures&#45;&gt;/Users/mmoscato/nasa/pvslib/pvslib&#45;gitlab__pvs7.0/ints -->
<g id="edge18" class="edge">
<title>/Users/mmoscato/nasa/pvslib/pvslib&#45;gitlab__pvs7.0/structures&#45;&gt;/Users/mmoscato/nasa/pvslib/pvslib&#45;gitlab__pvs7.0/ints</title>
<path fill="none" stroke="#000000" d="M75,-87.8314C75,-87.8314 75,-62.4133 75,-62.4133"/>
<polygon fill="#000000" stroke="#000000" points="78.5001,-62.4132 75,-52.4133 71.5001,-62.4133 78.5001,-62.4132"/>
</g>
</g>
</svg>
