<?xml version="1.0" encoding="UTF-8" standalone="no"?>
<!DOCTYPE svg PUBLIC "-//W3C//DTD SVG 1.1//EN"
 "http://www.w3.org/Graphics/SVG/1.1/DTD/svg11.dtd">
<!-- Generated by graphviz version 2.40.1 (20161225.0304)
 -->
<!-- Title: orders Pages: 1 -->
<svg width="112pt" height="180pt"
 viewBox="0.00 0.00 112.00 180.00" xmlns="http://www.w3.org/2000/svg" xmlns:xlink="http://www.w3.org/1999/xlink">
<g id="graph0" class="graph" transform="scale(1 1) rotate(0) translate(4 176)">
<title>orders</title>
<polygon fill="#ffffff" stroke="transparent" points="-4,4 -4,-176 108,-176 108,4 -4,4"/>
<g id="clust1" class="cluster">
<title>cluster_NASALib</title>
<polygon fill="none" stroke="#000000" points="16,-90 16,-164 89,-164 89,-90 16,-90"/>
<text text-anchor="middle" x="52.5" y="-148.8" font-family="Times,serif" font-size="14.00" fill="#000000">NASALib</text>
</g>
<g id="clust2" class="cluster">
<title>cluster_PVS Prelude</title>
<polygon fill="none" stroke="#000000" points="8,-8 8,-82 96,-82 96,-8 8,-8"/>
<text text-anchor="middle" x="52" y="-66.8" font-family="Times,serif" font-size="14.00" fill="#000000">PVS Prelude</text>
</g>
<!-- /Users/mmoscato/nasa/pvslib/pvslib&#45;gitlab__pvs7.0/orders -->
<g id="node1" class="node">
<title>/Users/mmoscato/nasa/pvslib/pvslib&#45;gitlab__pvs7.0/orders</title>
<polygon fill="#f7e28d" stroke="#000000" points="79,-134 25,-134 25,-98 79,-98 79,-134"/>
<text text-anchor="middle" x="52" y="-111.8" font-family="Times,serif" font-size="14.00" fill="#000000">orders</text>
</g>
<!-- /Users/mmoscato/pvs/7.1&#45;0&#45;gbe4ad5c&#45;ix86&#45;MacOSX&#45;allegro/lib/finite_sets -->
<g id="node2" class="node">
<title>/Users/mmoscato/pvs/7.1&#45;0&#45;gbe4ad5c&#45;ix86&#45;MacOSX&#45;allegro/lib/finite_sets</title>
<polygon fill="#fcfcd7" stroke="#000000" points="88.2796,-52 15.7204,-52 15.7204,-16 88.2796,-16 88.2796,-52"/>
<text text-anchor="middle" x="52" y="-29.8" font-family="Times,serif" font-size="14.00" fill="#000000">finite_sets</text>
</g>
<!-- /Users/mmoscato/nasa/pvslib/pvslib&#45;gitlab__pvs7.0/orders&#45;&gt;/Users/mmoscato/pvs/7.1&#45;0&#45;gbe4ad5c&#45;ix86&#45;MacOSX&#45;allegro/lib/finite_sets -->
<g id="edge1" class="edge">
<title>/Users/mmoscato/nasa/pvslib/pvslib&#45;gitlab__pvs7.0/orders&#45;&gt;/Users/mmoscato/pvs/7.1&#45;0&#45;gbe4ad5c&#45;ix86&#45;MacOSX&#45;allegro/lib/finite_sets</title>
<path fill="none" stroke="#000000" d="M52,-97.8015C52,-97.8015 52,-62.1476 52,-62.1476"/>
<polygon fill="#000000" stroke="#000000" points="55.5001,-62.1476 52,-52.1476 48.5001,-62.1476 55.5001,-62.1476"/>
</g>
</g>
</svg>
