<?xml version="1.0" encoding="UTF-8" standalone="no"?>
<!DOCTYPE svg PUBLIC "-//W3C//DTD SVG 1.1//EN"
 "http://www.w3.org/Graphics/SVG/1.1/DTD/svg11.dtd">
<!-- Generated by graphviz version 2.40.1 (20161225.0304)
 -->
<!-- Title: fault_tolerance Pages: 1 -->
<svg width="236pt" height="244pt"
 viewBox="0.00 0.00 236.00 244.00" xmlns="http://www.w3.org/2000/svg" xmlns:xlink="http://www.w3.org/1999/xlink">
<g id="graph0" class="graph" transform="scale(1 1) rotate(0) translate(4 240)">
<title>fault_tolerance</title>
<polygon fill="#ffffff" stroke="transparent" points="-4,4 -4,-240 232,-240 232,4 -4,4"/>
<g id="clust1" class="cluster">
<title>cluster_NASALib</title>
<polygon fill="none" stroke="#000000" points="8,-8 8,-228 124,-228 124,-8 8,-8"/>
<text text-anchor="middle" x="66" y="-212.8" font-family="Times,serif" font-size="14.00" fill="#000000">NASALib</text>
</g>
<g id="clust2" class="cluster">
<title>cluster_PVS Prelude</title>
<polygon fill="none" stroke="#000000" points="132,-80 132,-154 220,-154 220,-80 132,-80"/>
<text text-anchor="middle" x="176" y="-138.8" font-family="Times,serif" font-size="14.00" fill="#000000">PVS Prelude</text>
</g>
<!-- /Users/mmoscato/nasa/pvslib/pvslib&#45;gitlab__pvs7.0/fault_tolerance -->
<g id="node1" class="node">
<title>/Users/mmoscato/nasa/pvslib/pvslib&#45;gitlab__pvs7.0/fault_tolerance</title>
<polygon fill="#f7e28d" stroke="#000000" points="115.9522,-198 16.0478,-198 16.0478,-162 115.9522,-162 115.9522,-198"/>
<text text-anchor="middle" x="66" y="-175.8" font-family="Times,serif" font-size="14.00" fill="#000000">fault_tolerance</text>
</g>
<!-- /Users/mmoscato/nasa/pvslib/pvslib&#45;gitlab__pvs7.0/reals -->
<g id="node2" class="node">
<title>/Users/mmoscato/nasa/pvslib/pvslib&#45;gitlab__pvs7.0/reals</title>
<polygon fill="#fcfcd7" stroke="#000000" points="74,-124 20,-124 20,-88 74,-88 74,-124"/>
<text text-anchor="middle" x="47" y="-101.8" font-family="Times,serif" font-size="14.00" fill="#000000">reals</text>
</g>
<!-- /Users/mmoscato/nasa/pvslib/pvslib&#45;gitlab__pvs7.0/fault_tolerance&#45;&gt;/Users/mmoscato/nasa/pvslib/pvslib&#45;gitlab__pvs7.0/reals -->
<g id="edge1" class="edge">
<title>/Users/mmoscato/nasa/pvslib/pvslib&#45;gitlab__pvs7.0/fault_tolerance&#45;&gt;/Users/mmoscato/nasa/pvslib/pvslib&#45;gitlab__pvs7.0/reals</title>
<path fill="none" stroke="#000000" d="M47,-161.7079C47,-161.7079 47,-134.0817 47,-134.0817"/>
<polygon fill="#000000" stroke="#000000" points="50.5001,-134.0817 47,-124.0817 43.5001,-134.0818 50.5001,-134.0817"/>
</g>
<!-- /Users/mmoscato/nasa/pvslib/pvslib&#45;gitlab__pvs7.0/structures -->
<g id="node3" class="node">
<title>/Users/mmoscato/nasa/pvslib/pvslib&#45;gitlab__pvs7.0/structures</title>
<polygon fill="#fcfcd7" stroke="#000000" points="101.429,-52 30.571,-52 30.571,-16 101.429,-16 101.429,-52"/>
<text text-anchor="middle" x="66" y="-29.8" font-family="Times,serif" font-size="14.00" fill="#000000">structures</text>
</g>
<!-- /Users/mmoscato/nasa/pvslib/pvslib&#45;gitlab__pvs7.0/fault_tolerance&#45;&gt;/Users/mmoscato/nasa/pvslib/pvslib&#45;gitlab__pvs7.0/structures -->
<g id="edge2" class="edge">
<title>/Users/mmoscato/nasa/pvslib/pvslib&#45;gitlab__pvs7.0/fault_tolerance&#45;&gt;/Users/mmoscato/nasa/pvslib/pvslib&#45;gitlab__pvs7.0/structures</title>
<path fill="none" stroke="#000000" d="M87.6069,-161.8042C87.6069,-161.8042 87.6069,-62.4251 87.6069,-62.4251"/>
<polygon fill="#000000" stroke="#000000" points="91.107,-62.4251 87.6069,-52.4251 84.107,-62.4251 91.107,-62.4251"/>
</g>
<!-- /Users/mmoscato/pvs/7.1&#45;0&#45;g3fb4f25&#45;ix86&#45;MacOSX&#45;allegro/lib/finite_sets -->
<g id="node4" class="node">
<title>/Users/mmoscato/pvs/7.1&#45;0&#45;g3fb4f25&#45;ix86&#45;MacOSX&#45;allegro/lib/finite_sets</title>
<polygon fill="#fcfcd7" stroke="#000000" points="212.2796,-124 139.7204,-124 139.7204,-88 212.2796,-88 212.2796,-124"/>
<text text-anchor="middle" x="176" y="-101.8" font-family="Times,serif" font-size="14.00" fill="#000000">finite_sets</text>
</g>
<!-- /Users/mmoscato/nasa/pvslib/pvslib&#45;gitlab__pvs7.0/fault_tolerance&#45;&gt;/Users/mmoscato/pvs/7.1&#45;0&#45;g3fb4f25&#45;ix86&#45;MacOSX&#45;allegro/lib/finite_sets -->
<g id="edge3" class="edge">
<title>/Users/mmoscato/nasa/pvslib/pvslib&#45;gitlab__pvs7.0/fault_tolerance&#45;&gt;/Users/mmoscato/pvs/7.1&#45;0&#45;g3fb4f25&#45;ix86&#45;MacOSX&#45;allegro/lib/finite_sets</title>
<path fill="none" stroke="#000000" d="M108.595,-161.7079C108.595,-139.7943 108.595,-106 108.595,-106 108.595,-106 129.5356,-106 129.5356,-106"/>
<polygon fill="#000000" stroke="#000000" points="129.5356,-109.5001 139.5356,-106 129.5355,-102.5001 129.5356,-109.5001"/>
</g>
<!-- /Users/mmoscato/nasa/pvslib/pvslib&#45;gitlab__pvs7.0/reals&#45;&gt;/Users/mmoscato/nasa/pvslib/pvslib&#45;gitlab__pvs7.0/structures -->
<g id="edge4" class="edge">
<title>/Users/mmoscato/nasa/pvslib/pvslib&#45;gitlab__pvs7.0/reals&#45;&gt;/Users/mmoscato/nasa/pvslib/pvslib&#45;gitlab__pvs7.0/structures</title>
<path fill="none" stroke="#000000" d="M52.3931,-87.8314C52.3931,-87.8314 52.3931,-62.4133 52.3931,-62.4133"/>
<polygon fill="#000000" stroke="#000000" points="55.8932,-62.4132 52.3931,-52.4133 48.8932,-62.4133 55.8932,-62.4132"/>
</g>
</g>
</svg>
