<?xml version="1.0" encoding="UTF-8" standalone="no"?>
<!DOCTYPE svg PUBLIC "-//W3C//DTD SVG 1.1//EN"
 "http://www.w3.org/Graphics/SVG/1.1/DTD/svg11.dtd">
<!-- Generated by graphviz version 2.40.1 (20161225.0304)
 -->
<!-- Title: structures Pages: 1 -->
<svg width="206pt" height="172pt"
 viewBox="0.00 0.00 206.00 172.00" xmlns="http://www.w3.org/2000/svg" xmlns:xlink="http://www.w3.org/1999/xlink">
<g id="graph0" class="graph" transform="scale(1 1) rotate(0) translate(4 168)">
<title>structures</title>
<polygon fill="#ffffff" stroke="transparent" points="-4,4 -4,-168 202,-168 202,4 -4,4"/>
<g id="clust1" class="cluster">
<title>cluster_NASALib</title>
<polygon fill="none" stroke="#000000" points="8,-8 8,-156 94,-156 94,-8 8,-8"/>
<text text-anchor="middle" x="51" y="-140.8" font-family="Times,serif" font-size="14.00" fill="#000000">NASALib</text>
</g>
<g id="clust2" class="cluster">
<title>cluster_PVS Prelude</title>
<polygon fill="none" stroke="#000000" points="102,-8 102,-82 190,-82 190,-8 102,-8"/>
<text text-anchor="middle" x="146" y="-66.8" font-family="Times,serif" font-size="14.00" fill="#000000">PVS Prelude</text>
</g>
<!-- /Users/mmoscato/nasa/pvslib/pvslib&#45;gitlab__pvs7.0/ints -->
<g id="node1" class="node">
<title>/Users/mmoscato/nasa/pvslib/pvslib&#45;gitlab__pvs7.0/ints</title>
<polygon fill="#fcfcd7" stroke="#000000" points="78,-52 24,-52 24,-16 78,-16 78,-52"/>
<text text-anchor="middle" x="51" y="-29.8" font-family="Times,serif" font-size="14.00" fill="#000000">ints</text>
</g>
<!-- /Users/mmoscato/nasa/pvslib/pvslib&#45;gitlab__pvs7.0/structures -->
<g id="node2" class="node">
<title>/Users/mmoscato/nasa/pvslib/pvslib&#45;gitlab__pvs7.0/structures</title>
<polygon fill="#f7e28d" stroke="#000000" points="86.429,-126 15.571,-126 15.571,-90 86.429,-90 86.429,-126"/>
<text text-anchor="middle" x="51" y="-103.8" font-family="Times,serif" font-size="14.00" fill="#000000">structures</text>
</g>
<!-- /Users/mmoscato/nasa/pvslib/pvslib&#45;gitlab__pvs7.0/structures&#45;&gt;/Users/mmoscato/nasa/pvslib/pvslib&#45;gitlab__pvs7.0/ints -->
<g id="edge1" class="edge">
<title>/Users/mmoscato/nasa/pvslib/pvslib&#45;gitlab__pvs7.0/structures&#45;&gt;/Users/mmoscato/nasa/pvslib/pvslib&#45;gitlab__pvs7.0/ints</title>
<path fill="none" stroke="#000000" d="M51,-89.7079C51,-89.7079 51,-62.0817 51,-62.0817"/>
<polygon fill="#000000" stroke="#000000" points="54.5001,-62.0817 51,-52.0817 47.5001,-62.0818 54.5001,-62.0817"/>
</g>
<!-- /Users/mmoscato/pvs/7.1&#45;0&#45;ge48ceadd&#45;ix86&#45;MacOSX&#45;allegro/lib/finite_sets -->
<g id="node3" class="node">
<title>/Users/mmoscato/pvs/7.1&#45;0&#45;ge48ceadd&#45;ix86&#45;MacOSX&#45;allegro/lib/finite_sets</title>
<polygon fill="#fcfcd7" stroke="#000000" points="182.2796,-52 109.7204,-52 109.7204,-16 182.2796,-16 182.2796,-52"/>
<text text-anchor="middle" x="146" y="-29.8" font-family="Times,serif" font-size="14.00" fill="#000000">finite_sets</text>
</g>
<!-- /Users/mmoscato/nasa/pvslib/pvslib&#45;gitlab__pvs7.0/structures&#45;&gt;/Users/mmoscato/pvs/7.1&#45;0&#45;ge48ceadd&#45;ix86&#45;MacOSX&#45;allegro/lib/finite_sets -->
<g id="edge2" class="edge">
<title>/Users/mmoscato/nasa/pvslib/pvslib&#45;gitlab__pvs7.0/structures&#45;&gt;/Users/mmoscato/pvs/7.1&#45;0&#45;ge48ceadd&#45;ix86&#45;MacOSX&#45;allegro/lib/finite_sets</title>
<path fill="none" stroke="#000000" d="M82.1069,-89.7079C82.1069,-67.7943 82.1069,-34 82.1069,-34 82.1069,-34 99.5741,-34 99.5741,-34"/>
<polygon fill="#000000" stroke="#000000" points="99.5742,-37.5001 109.5741,-34 99.5741,-30.5001 99.5742,-37.5001"/>
</g>
</g>
</svg>
