<?xml version="1.0" encoding="UTF-8" standalone="no"?>
<!DOCTYPE svg PUBLIC "-//W3C//DTD SVG 1.1//EN"
 "http://www.w3.org/Graphics/SVG/1.1/DTD/svg11.dtd">
<!-- Generated by graphviz version 2.40.1 (20161225.0304)
 -->
<!-- Title: trig Pages: 1 -->
<svg width="322pt" height="460pt"
 viewBox="0.00 0.00 322.00 460.00" xmlns="http://www.w3.org/2000/svg" xmlns:xlink="http://www.w3.org/1999/xlink">
<g id="graph0" class="graph" transform="scale(1 1) rotate(0) translate(4 456)">
<title>trig</title>
<polygon fill="#ffffff" stroke="transparent" points="-4,4 -4,-456 318,-456 318,4 -4,4"/>
<g id="clust1" class="cluster">
<title>cluster_NASALib</title>
<polygon fill="none" stroke="#000000" points="8,-8 8,-444 210,-444 210,-8 8,-8"/>
<text text-anchor="middle" x="109" y="-428.8" font-family="Times,serif" font-size="14.00" fill="#000000">NASALib</text>
</g>
<g id="clust2" class="cluster">
<title>cluster_PVS Prelude</title>
<polygon fill="none" stroke="#000000" points="218,-152 218,-226 306,-226 306,-152 218,-152"/>
<text text-anchor="middle" x="262" y="-210.8" font-family="Times,serif" font-size="14.00" fill="#000000">PVS Prelude</text>
</g>
<!-- /Users/mmoscato/nasa/pvslib/pvslib&#45;gitlab__pvs7.0/analysis -->
<g id="node1" class="node">
<title>/Users/mmoscato/nasa/pvslib/pvslib&#45;gitlab__pvs7.0/analysis</title>
<polygon fill="#fcfcd7" stroke="#000000" points="119.6036,-270 58.3964,-270 58.3964,-234 119.6036,-234 119.6036,-270"/>
<text text-anchor="middle" x="89" y="-247.8" font-family="Times,serif" font-size="14.00" fill="#000000">analysis</text>
</g>
<!-- /Users/mmoscato/nasa/pvslib/pvslib&#45;gitlab__pvs7.0/ints -->
<g id="node2" class="node">
<title>/Users/mmoscato/nasa/pvslib/pvslib&#45;gitlab__pvs7.0/ints</title>
<polygon fill="#fcfcd7" stroke="#000000" points="170,-52 116,-52 116,-16 170,-16 170,-52"/>
<text text-anchor="middle" x="143" y="-29.8" font-family="Times,serif" font-size="14.00" fill="#000000">ints</text>
</g>
<!-- /Users/mmoscato/nasa/pvslib/pvslib&#45;gitlab__pvs7.0/analysis&#45;&gt;/Users/mmoscato/nasa/pvslib/pvslib&#45;gitlab__pvs7.0/ints -->
<g id="edge1" class="edge">
<title>/Users/mmoscato/nasa/pvslib/pvslib&#45;gitlab__pvs7.0/analysis&#45;&gt;/Users/mmoscato/nasa/pvslib/pvslib&#45;gitlab__pvs7.0/ints</title>
<path fill="none" stroke="#000000" d="M88.8931,-233.925C88.8931,-182.6575 88.8931,-40 88.8931,-40 88.8931,-40 105.9465,-40 105.9465,-40"/>
<polygon fill="#000000" stroke="#000000" points="105.9466,-43.5001 115.9465,-40 105.9465,-36.5001 105.9466,-43.5001"/>
</g>
<!-- /Users/mmoscato/nasa/pvslib/pvslib&#45;gitlab__pvs7.0/orders -->
<g id="node3" class="node">
<title>/Users/mmoscato/nasa/pvslib/pvslib&#45;gitlab__pvs7.0/orders</title>
<polygon fill="#fcfcd7" stroke="#000000" points="182,-196 128,-196 128,-160 182,-160 182,-196"/>
<text text-anchor="middle" x="155" y="-173.8" font-family="Times,serif" font-size="14.00" fill="#000000">orders</text>
</g>
<!-- /Users/mmoscato/nasa/pvslib/pvslib&#45;gitlab__pvs7.0/analysis&#45;&gt;/Users/mmoscato/nasa/pvslib/pvslib&#45;gitlab__pvs7.0/orders -->
<g id="edge2" class="edge">
<title>/Users/mmoscato/nasa/pvslib/pvslib&#45;gitlab__pvs7.0/analysis&#45;&gt;/Users/mmoscato/nasa/pvslib/pvslib&#45;gitlab__pvs7.0/orders</title>
<path fill="none" stroke="#000000" d="M116.6104,-233.7772C116.6104,-213.6348 116.6104,-184 116.6104,-184 116.6104,-184 117.9209,-184 117.9209,-184"/>
<polygon fill="#000000" stroke="#000000" points="117.9209,-187.5001 127.9209,-184 117.9208,-180.5001 117.9209,-187.5001"/>
</g>
<!-- /Users/mmoscato/nasa/pvslib/pvslib&#45;gitlab__pvs7.0/reals -->
<g id="node4" class="node">
<title>/Users/mmoscato/nasa/pvslib/pvslib&#45;gitlab__pvs7.0/reals</title>
<polygon fill="#fcfcd7" stroke="#000000" points="70,-196 16,-196 16,-160 70,-160 70,-196"/>
<text text-anchor="middle" x="43" y="-173.8" font-family="Times,serif" font-size="14.00" fill="#000000">reals</text>
</g>
<!-- /Users/mmoscato/nasa/pvslib/pvslib&#45;gitlab__pvs7.0/analysis&#45;&gt;/Users/mmoscato/nasa/pvslib/pvslib&#45;gitlab__pvs7.0/reals -->
<g id="edge3" class="edge">
<title>/Users/mmoscato/nasa/pvslib/pvslib&#45;gitlab__pvs7.0/analysis&#45;&gt;/Users/mmoscato/nasa/pvslib/pvslib&#45;gitlab__pvs7.0/reals</title>
<path fill="none" stroke="#000000" d="M64.2241,-233.7079C64.2241,-233.7079 64.2241,-206.0817 64.2241,-206.0817"/>
<polygon fill="#000000" stroke="#000000" points="67.7242,-206.0817 64.2241,-196.0817 60.7242,-206.0818 67.7242,-206.0817"/>
</g>
<!-- /Users/mmoscato/nasa/pvslib/pvslib&#45;gitlab__pvs7.0/structures -->
<g id="node6" class="node">
<title>/Users/mmoscato/nasa/pvslib/pvslib&#45;gitlab__pvs7.0/structures</title>
<polygon fill="#fcfcd7" stroke="#000000" points="178.429,-124 107.571,-124 107.571,-88 178.429,-88 178.429,-124"/>
<text text-anchor="middle" x="143" y="-101.8" font-family="Times,serif" font-size="14.00" fill="#000000">structures</text>
</g>
<!-- /Users/mmoscato/nasa/pvslib/pvslib&#45;gitlab__pvs7.0/analysis&#45;&gt;/Users/mmoscato/nasa/pvslib/pvslib&#45;gitlab__pvs7.0/structures -->
<g id="edge4" class="edge">
<title>/Users/mmoscato/nasa/pvslib/pvslib&#45;gitlab__pvs7.0/analysis&#45;&gt;/Users/mmoscato/nasa/pvslib/pvslib&#45;gitlab__pvs7.0/structures</title>
<path fill="none" stroke="#000000" d="M113.6689,-233.8042C113.6689,-233.8042 113.6689,-134.4251 113.6689,-134.4251"/>
<polygon fill="#000000" stroke="#000000" points="117.169,-134.4251 113.6689,-124.4251 110.169,-134.4251 117.169,-134.4251"/>
</g>
<!-- /Users/mmoscato/pvs/7.1&#45;0&#45;g3fb4f25&#45;ix86&#45;MacOSX&#45;allegro/lib/finite_sets -->
<g id="node8" class="node">
<title>/Users/mmoscato/pvs/7.1&#45;0&#45;g3fb4f25&#45;ix86&#45;MacOSX&#45;allegro/lib/finite_sets</title>
<polygon fill="#fcfcd7" stroke="#000000" points="298.2796,-196 225.7204,-196 225.7204,-160 298.2796,-160 298.2796,-196"/>
<text text-anchor="middle" x="262" y="-173.8" font-family="Times,serif" font-size="14.00" fill="#000000">finite_sets</text>
</g>
<!-- /Users/mmoscato/nasa/pvslib/pvslib&#45;gitlab__pvs7.0/analysis&#45;&gt;/Users/mmoscato/pvs/7.1&#45;0&#45;g3fb4f25&#45;ix86&#45;MacOSX&#45;allegro/lib/finite_sets -->
<g id="edge5" class="edge">
<title>/Users/mmoscato/nasa/pvslib/pvslib&#45;gitlab__pvs7.0/analysis&#45;&gt;/Users/mmoscato/pvs/7.1&#45;0&#45;g3fb4f25&#45;ix86&#45;MacOSX&#45;allegro/lib/finite_sets</title>
<path fill="none" stroke="#000000" d="M119.5845,-246C164.6995,-246 243.8052,-246 243.8052,-246 243.8052,-246 243.8052,-206.2228 243.8052,-206.2228"/>
<polygon fill="#000000" stroke="#000000" points="247.3053,-206.2227 243.8052,-196.2228 240.3053,-206.2228 247.3053,-206.2227"/>
</g>
<!-- /Users/mmoscato/nasa/pvslib/pvslib&#45;gitlab__pvs7.0/reals&#45;&gt;/Users/mmoscato/nasa/pvslib/pvslib&#45;gitlab__pvs7.0/ints -->
<g id="edge6" class="edge">
<title>/Users/mmoscato/nasa/pvslib/pvslib&#45;gitlab__pvs7.0/reals&#45;&gt;/Users/mmoscato/nasa/pvslib/pvslib&#45;gitlab__pvs7.0/ints</title>
<path fill="none" stroke="#000000" d="M43,-159.9065C43,-120.0111 43,-28 43,-28 43,-28 105.9386,-28 105.9386,-28"/>
<polygon fill="#000000" stroke="#000000" points="105.9386,-31.5001 115.9386,-28 105.9385,-24.5001 105.9386,-31.5001"/>
</g>
<!-- /Users/mmoscato/nasa/pvslib/pvslib&#45;gitlab__pvs7.0/reals&#45;&gt;/Users/mmoscato/nasa/pvslib/pvslib&#45;gitlab__pvs7.0/structures -->
<g id="edge7" class="edge">
<title>/Users/mmoscato/nasa/pvslib/pvslib&#45;gitlab__pvs7.0/reals&#45;&gt;/Users/mmoscato/nasa/pvslib/pvslib&#45;gitlab__pvs7.0/structures</title>
<path fill="none" stroke="#000000" d="M70.1571,-172C88.9995,-172 110.7275,-172 110.7275,-172 110.7275,-172 110.7275,-134.0348 110.7275,-134.0348"/>
<polygon fill="#000000" stroke="#000000" points="114.2276,-134.0348 110.7275,-124.0348 107.2276,-134.0348 114.2276,-134.0348"/>
</g>
<!-- /Users/mmoscato/nasa/pvslib/pvslib&#45;gitlab__pvs7.0/series -->
<g id="node5" class="node">
<title>/Users/mmoscato/nasa/pvslib/pvslib&#45;gitlab__pvs7.0/series</title>
<polygon fill="#fcfcd7" stroke="#000000" points="116,-342 62,-342 62,-306 116,-306 116,-342"/>
<text text-anchor="middle" x="89" y="-319.8" font-family="Times,serif" font-size="14.00" fill="#000000">series</text>
</g>
<!-- /Users/mmoscato/nasa/pvslib/pvslib&#45;gitlab__pvs7.0/series&#45;&gt;/Users/mmoscato/nasa/pvslib/pvslib&#45;gitlab__pvs7.0/analysis -->
<g id="edge8" class="edge">
<title>/Users/mmoscato/nasa/pvslib/pvslib&#45;gitlab__pvs7.0/series&#45;&gt;/Users/mmoscato/nasa/pvslib/pvslib&#45;gitlab__pvs7.0/analysis</title>
<path fill="none" stroke="#000000" d="M89,-305.8314C89,-305.8314 89,-280.4133 89,-280.4133"/>
<polygon fill="#000000" stroke="#000000" points="92.5001,-280.4132 89,-270.4133 85.5001,-280.4133 92.5001,-280.4132"/>
</g>
<!-- /Users/mmoscato/nasa/pvslib/pvslib&#45;gitlab__pvs7.0/series&#45;&gt;/Users/mmoscato/nasa/pvslib/pvslib&#45;gitlab__pvs7.0/ints -->
<g id="edge9" class="edge">
<title>/Users/mmoscato/nasa/pvslib/pvslib&#45;gitlab__pvs7.0/series&#45;&gt;/Users/mmoscato/nasa/pvslib/pvslib&#45;gitlab__pvs7.0/ints</title>
<path fill="none" stroke="#000000" d="M116.1361,-327C147.993,-327 196.5368,-327 196.5368,-327 196.5368,-327 196.5368,-40 196.5368,-40 196.5368,-40 180.0821,-40 180.0821,-40"/>
<polygon fill="#000000" stroke="#000000" points="180.0821,-36.5001 170.0821,-40 180.082,-43.5001 180.0821,-36.5001"/>
</g>
<!-- /Users/mmoscato/nasa/pvslib/pvslib&#45;gitlab__pvs7.0/series&#45;&gt;/Users/mmoscato/nasa/pvslib/pvslib&#45;gitlab__pvs7.0/orders -->
<g id="edge10" class="edge">
<title>/Users/mmoscato/nasa/pvslib/pvslib&#45;gitlab__pvs7.0/series&#45;&gt;/Users/mmoscato/nasa/pvslib/pvslib&#45;gitlab__pvs7.0/orders</title>
<path fill="none" stroke="#000000" d="M116.1645,-320C130.8455,-320 146,-320 146,-320 146,-320 146,-206.2733 146,-206.2733"/>
<polygon fill="#000000" stroke="#000000" points="149.5001,-206.2733 146,-196.2733 142.5001,-206.2733 149.5001,-206.2733"/>
</g>
<!-- /Users/mmoscato/nasa/pvslib/pvslib&#45;gitlab__pvs7.0/series&#45;&gt;/Users/mmoscato/nasa/pvslib/pvslib&#45;gitlab__pvs7.0/reals -->
<g id="edge11" class="edge">
<title>/Users/mmoscato/nasa/pvslib/pvslib&#45;gitlab__pvs7.0/series&#45;&gt;/Users/mmoscato/nasa/pvslib/pvslib&#45;gitlab__pvs7.0/reals</title>
<path fill="none" stroke="#000000" d="M61.9659,-324C52.5521,-324 44.2988,-324 44.2988,-324 44.2988,-324 44.2988,-206.1958 44.2988,-206.1958"/>
<polygon fill="#000000" stroke="#000000" points="47.7989,-206.1958 44.2988,-196.1958 40.7989,-206.1958 47.7989,-206.1958"/>
</g>
<!-- /Users/mmoscato/nasa/pvslib/pvslib&#45;gitlab__pvs7.0/series&#45;&gt;/Users/mmoscato/nasa/pvslib/pvslib&#45;gitlab__pvs7.0/structures -->
<g id="edge12" class="edge">
<title>/Users/mmoscato/nasa/pvslib/pvslib&#45;gitlab__pvs7.0/series&#45;&gt;/Users/mmoscato/nasa/pvslib/pvslib&#45;gitlab__pvs7.0/structures</title>
<path fill="none" stroke="#000000" d="M116.2701,-313C119.4927,-313 121.6638,-313 121.6638,-313 121.6638,-313 121.6638,-134.0078 121.6638,-134.0078"/>
<polygon fill="#000000" stroke="#000000" points="125.1639,-134.0077 121.6638,-124.0078 118.1639,-134.0078 125.1639,-134.0077"/>
</g>
<!-- /Users/mmoscato/nasa/pvslib/pvslib&#45;gitlab__pvs7.0/series&#45;&gt;/Users/mmoscato/pvs/7.1&#45;0&#45;g3fb4f25&#45;ix86&#45;MacOSX&#45;allegro/lib/finite_sets -->
<g id="edge13" class="edge">
<title>/Users/mmoscato/nasa/pvslib/pvslib&#45;gitlab__pvs7.0/series&#45;&gt;/Users/mmoscato/pvs/7.1&#45;0&#45;g3fb4f25&#45;ix86&#45;MacOSX&#45;allegro/lib/finite_sets</title>
<path fill="none" stroke="#000000" d="M116.0313,-334C164.6875,-334 262,-334 262,-334 262,-334 262,-206.2005 262,-206.2005"/>
<polygon fill="#000000" stroke="#000000" points="265.5001,-206.2005 262,-196.2005 258.5001,-206.2005 265.5001,-206.2005"/>
</g>
<!-- /Users/mmoscato/nasa/pvslib/pvslib&#45;gitlab__pvs7.0/structures&#45;&gt;/Users/mmoscato/nasa/pvslib/pvslib&#45;gitlab__pvs7.0/ints -->
<g id="edge14" class="edge">
<title>/Users/mmoscato/nasa/pvslib/pvslib&#45;gitlab__pvs7.0/structures&#45;&gt;/Users/mmoscato/nasa/pvslib/pvslib&#45;gitlab__pvs7.0/ints</title>
<path fill="none" stroke="#000000" d="M143,-87.8314C143,-87.8314 143,-62.4133 143,-62.4133"/>
<polygon fill="#000000" stroke="#000000" points="146.5001,-62.4132 143,-52.4133 139.5001,-62.4133 146.5001,-62.4132"/>
</g>
<!-- /Users/mmoscato/nasa/pvslib/pvslib&#45;gitlab__pvs7.0/trig -->
<g id="node7" class="node">
<title>/Users/mmoscato/nasa/pvslib/pvslib&#45;gitlab__pvs7.0/trig</title>
<polygon fill="#f7e28d" stroke="#000000" points="116,-414 62,-414 62,-378 116,-378 116,-414"/>
<text text-anchor="middle" x="89" y="-391.8" font-family="Times,serif" font-size="14.00" fill="#000000">trig</text>
</g>
<!-- /Users/mmoscato/nasa/pvslib/pvslib&#45;gitlab__pvs7.0/trig&#45;&gt;/Users/mmoscato/nasa/pvslib/pvslib&#45;gitlab__pvs7.0/analysis -->
<g id="edge15" class="edge">
<title>/Users/mmoscato/nasa/pvslib/pvslib&#45;gitlab__pvs7.0/trig&#45;&gt;/Users/mmoscato/nasa/pvslib/pvslib&#45;gitlab__pvs7.0/analysis</title>
<path fill="none" stroke="#000000" d="M116.1961,-385C121.725,-385 125.8879,-385 125.8879,-385 125.8879,-385 125.8879,-258 125.8879,-258 125.8879,-258 125.2788,-258 125.2788,-258"/>
<polygon fill="#000000" stroke="#000000" points="129.7967,-254.5002 119.7966,-258 129.7966,-261.5002 129.7967,-254.5002"/>
</g>
<!-- /Users/mmoscato/nasa/pvslib/pvslib&#45;gitlab__pvs7.0/trig&#45;&gt;/Users/mmoscato/nasa/pvslib/pvslib&#45;gitlab__pvs7.0/ints -->
<g id="edge16" class="edge">
<title>/Users/mmoscato/nasa/pvslib/pvslib&#45;gitlab__pvs7.0/trig&#45;&gt;/Users/mmoscato/nasa/pvslib/pvslib&#45;gitlab__pvs7.0/ints</title>
<path fill="none" stroke="#000000" d="M116.0921,-399C152.0559,-399 211.0736,-399 211.0736,-399 211.0736,-399 211.0736,-28 211.0736,-28 211.0736,-28 180.2959,-28 180.2959,-28"/>
<polygon fill="#000000" stroke="#000000" points="180.2959,-24.5001 170.2959,-28 180.2959,-31.5001 180.2959,-24.5001"/>
</g>
<!-- /Users/mmoscato/nasa/pvslib/pvslib&#45;gitlab__pvs7.0/trig&#45;&gt;/Users/mmoscato/nasa/pvslib/pvslib&#45;gitlab__pvs7.0/orders -->
<g id="edge17" class="edge">
<title>/Users/mmoscato/nasa/pvslib/pvslib&#45;gitlab__pvs7.0/trig&#45;&gt;/Users/mmoscato/nasa/pvslib/pvslib&#45;gitlab__pvs7.0/orders</title>
<path fill="none" stroke="#000000" d="M116.0767,-392C137.5596,-392 164,-392 164,-392 164,-392 164,-206.2455 164,-206.2455"/>
<polygon fill="#000000" stroke="#000000" points="167.5001,-206.2455 164,-196.2455 160.5001,-206.2456 167.5001,-206.2455"/>
</g>
<!-- /Users/mmoscato/nasa/pvslib/pvslib&#45;gitlab__pvs7.0/trig&#45;&gt;/Users/mmoscato/nasa/pvslib/pvslib&#45;gitlab__pvs7.0/reals -->
<g id="edge18" class="edge">
<title>/Users/mmoscato/nasa/pvslib/pvslib&#45;gitlab__pvs7.0/trig&#45;&gt;/Users/mmoscato/nasa/pvslib/pvslib&#45;gitlab__pvs7.0/reals</title>
<path fill="none" stroke="#000000" d="M61.9861,-396C46.5153,-396 30.1494,-396 30.1494,-396 30.1494,-396 30.1494,-206.2116 30.1494,-206.2116"/>
<polygon fill="#000000" stroke="#000000" points="33.6495,-206.2116 30.1494,-196.2116 26.6495,-206.2116 33.6495,-206.2116"/>
</g>
<!-- /Users/mmoscato/nasa/pvslib/pvslib&#45;gitlab__pvs7.0/trig&#45;&gt;/Users/mmoscato/nasa/pvslib/pvslib&#45;gitlab__pvs7.0/series -->
<g id="edge19" class="edge">
<title>/Users/mmoscato/nasa/pvslib/pvslib&#45;gitlab__pvs7.0/trig&#45;&gt;/Users/mmoscato/nasa/pvslib/pvslib&#45;gitlab__pvs7.0/series</title>
<path fill="none" stroke="#000000" d="M80,-377.8314C80,-377.8314 80,-352.4133 80,-352.4133"/>
<polygon fill="#000000" stroke="#000000" points="83.5001,-352.4132 80,-342.4133 76.5001,-352.4133 83.5001,-352.4132"/>
</g>
<!-- /Users/mmoscato/nasa/pvslib/pvslib&#45;gitlab__pvs7.0/trig&#45;&gt;/Users/mmoscato/nasa/pvslib/pvslib&#45;gitlab__pvs7.0/structures -->
<g id="edge20" class="edge">
<title>/Users/mmoscato/nasa/pvslib/pvslib&#45;gitlab__pvs7.0/trig&#45;&gt;/Users/mmoscato/nasa/pvslib/pvslib&#45;gitlab__pvs7.0/structures</title>
<path fill="none" stroke="#000000" d="M98,-377.5782C98,-368.7209 98,-360 98,-360 98,-360 123.7759,-360 123.7759,-360 123.7759,-360 123.7759,-134.2671 123.7759,-134.2671"/>
<polygon fill="#000000" stroke="#000000" points="127.276,-134.267 123.7759,-124.2671 120.276,-134.2671 127.276,-134.267"/>
</g>
<!-- /Users/mmoscato/nasa/pvslib/pvslib&#45;gitlab__pvs7.0/trig&#45;&gt;/Users/mmoscato/pvs/7.1&#45;0&#45;g3fb4f25&#45;ix86&#45;MacOSX&#45;allegro/lib/finite_sets -->
<g id="edge21" class="edge">
<title>/Users/mmoscato/nasa/pvslib/pvslib&#45;gitlab__pvs7.0/trig&#45;&gt;/Users/mmoscato/pvs/7.1&#45;0&#45;g3fb4f25&#45;ix86&#45;MacOSX&#45;allegro/lib/finite_sets</title>
<path fill="none" stroke="#000000" d="M116.3936,-406C169.2606,-406 280.1948,-406 280.1948,-406 280.1948,-406 280.1948,-206.2728 280.1948,-206.2728"/>
<polygon fill="#000000" stroke="#000000" points="283.6949,-206.2728 280.1948,-196.2728 276.6949,-206.2728 283.6949,-206.2728"/>
</g>
</g>
</svg>
