<?xml version="1.0" encoding="UTF-8" standalone="no"?>
<!DOCTYPE svg PUBLIC "-//W3C//DTD SVG 1.1//EN"
 "http://www.w3.org/Graphics/SVG/1.1/DTD/svg11.dtd">
<!-- Generated by graphviz version 2.40.1 (20161225.0304)
 -->
<!-- Title: complex_alt Pages: 1 -->
<svg width="430pt" height="604pt"
 viewBox="0.00 0.00 430.00 604.00" xmlns="http://www.w3.org/2000/svg" xmlns:xlink="http://www.w3.org/1999/xlink">
<g id="graph0" class="graph" transform="scale(1 1) rotate(0) translate(4 600)">
<title>complex_alt</title>
<polygon fill="#ffffff" stroke="transparent" points="-4,4 -4,-600 426,-600 426,4 -4,4"/>
<g id="clust1" class="cluster">
<title>cluster_NASALib</title>
<polygon fill="none" stroke="#000000" points="8,-8 8,-588 318,-588 318,-8 8,-8"/>
<text text-anchor="middle" x="163" y="-572.8" font-family="Times,serif" font-size="14.00" fill="#000000">NASALib</text>
</g>
<g id="clust2" class="cluster">
<title>cluster_PVS Prelude</title>
<polygon fill="none" stroke="#000000" points="326,-152 326,-226 414,-226 414,-152 326,-152"/>
<text text-anchor="middle" x="370" y="-210.8" font-family="Times,serif" font-size="14.00" fill="#000000">PVS Prelude</text>
</g>
<!-- /Users/mmoscato/nasa/pvslib/pvslib&#45;gitlab__pvs7.0/analysis -->
<g id="node1" class="node">
<title>/Users/mmoscato/nasa/pvslib/pvslib&#45;gitlab__pvs7.0/analysis</title>
<polygon fill="#fcfcd7" stroke="#000000" points="177.6036,-270 116.3964,-270 116.3964,-234 177.6036,-234 177.6036,-270"/>
<text text-anchor="middle" x="147" y="-247.8" font-family="Times,serif" font-size="14.00" fill="#000000">analysis</text>
</g>
<!-- /Users/mmoscato/nasa/pvslib/pvslib&#45;gitlab__pvs7.0/ints -->
<g id="node3" class="node">
<title>/Users/mmoscato/nasa/pvslib/pvslib&#45;gitlab__pvs7.0/ints</title>
<polygon fill="#fcfcd7" stroke="#000000" points="150,-52 96,-52 96,-16 150,-16 150,-52"/>
<text text-anchor="middle" x="123" y="-29.8" font-family="Times,serif" font-size="14.00" fill="#000000">ints</text>
</g>
<!-- /Users/mmoscato/nasa/pvslib/pvslib&#45;gitlab__pvs7.0/analysis&#45;&gt;/Users/mmoscato/nasa/pvslib/pvslib&#45;gitlab__pvs7.0/ints -->
<g id="edge1" class="edge">
<title>/Users/mmoscato/nasa/pvslib/pvslib&#45;gitlab__pvs7.0/analysis&#45;&gt;/Users/mmoscato/nasa/pvslib/pvslib&#45;gitlab__pvs7.0/ints</title>
<path fill="none" stroke="#000000" d="M164.6598,-233.8182C164.6598,-182.9698 164.6598,-43 164.6598,-43 164.6598,-43 160.0892,-43 160.0892,-43"/>
<polygon fill="#000000" stroke="#000000" points="160.0893,-39.5001 150.0892,-43 160.0892,-46.5001 160.0893,-39.5001"/>
</g>
<!-- /Users/mmoscato/nasa/pvslib/pvslib&#45;gitlab__pvs7.0/orders -->
<g id="node5" class="node">
<title>/Users/mmoscato/nasa/pvslib/pvslib&#45;gitlab__pvs7.0/orders</title>
<polygon fill="#fcfcd7" stroke="#000000" points="270,-196 216,-196 216,-160 270,-160 270,-196"/>
<text text-anchor="middle" x="243" y="-173.8" font-family="Times,serif" font-size="14.00" fill="#000000">orders</text>
</g>
<!-- /Users/mmoscato/nasa/pvslib/pvslib&#45;gitlab__pvs7.0/analysis&#45;&gt;/Users/mmoscato/nasa/pvslib/pvslib&#45;gitlab__pvs7.0/orders -->
<g id="edge2" class="edge">
<title>/Users/mmoscato/nasa/pvslib/pvslib&#45;gitlab__pvs7.0/analysis&#45;&gt;/Users/mmoscato/nasa/pvslib/pvslib&#45;gitlab__pvs7.0/orders</title>
<path fill="none" stroke="#000000" d="M171.1058,-233.7079C171.1058,-211.7943 171.1058,-178 171.1058,-178 171.1058,-178 205.8199,-178 205.8199,-178"/>
<polygon fill="#000000" stroke="#000000" points="205.8199,-181.5001 215.8199,-178 205.8198,-174.5001 205.8199,-181.5001"/>
</g>
<!-- /Users/mmoscato/nasa/pvslib/pvslib&#45;gitlab__pvs7.0/reals -->
<g id="node7" class="node">
<title>/Users/mmoscato/nasa/pvslib/pvslib&#45;gitlab__pvs7.0/reals</title>
<polygon fill="#fcfcd7" stroke="#000000" points="150,-196 96,-196 96,-160 150,-160 150,-196"/>
<text text-anchor="middle" x="123" y="-173.8" font-family="Times,serif" font-size="14.00" fill="#000000">reals</text>
</g>
<!-- /Users/mmoscato/nasa/pvslib/pvslib&#45;gitlab__pvs7.0/analysis&#45;&gt;/Users/mmoscato/nasa/pvslib/pvslib&#45;gitlab__pvs7.0/reals -->
<g id="edge3" class="edge">
<title>/Users/mmoscato/nasa/pvslib/pvslib&#45;gitlab__pvs7.0/analysis&#45;&gt;/Users/mmoscato/nasa/pvslib/pvslib&#45;gitlab__pvs7.0/reals</title>
<path fill="none" stroke="#000000" d="M133.2241,-233.7079C133.2241,-233.7079 133.2241,-206.0817 133.2241,-206.0817"/>
<polygon fill="#000000" stroke="#000000" points="136.7242,-206.0817 133.2241,-196.0817 129.7242,-206.0818 136.7242,-206.0817"/>
</g>
<!-- /Users/mmoscato/nasa/pvslib/pvslib&#45;gitlab__pvs7.0/structures -->
<g id="node9" class="node">
<title>/Users/mmoscato/nasa/pvslib/pvslib&#45;gitlab__pvs7.0/structures</title>
<polygon fill="#fcfcd7" stroke="#000000" points="158.429,-124 87.571,-124 87.571,-88 158.429,-88 158.429,-124"/>
<text text-anchor="middle" x="123" y="-101.8" font-family="Times,serif" font-size="14.00" fill="#000000">structures</text>
</g>
<!-- /Users/mmoscato/nasa/pvslib/pvslib&#45;gitlab__pvs7.0/analysis&#45;&gt;/Users/mmoscato/nasa/pvslib/pvslib&#45;gitlab__pvs7.0/structures -->
<g id="edge4" class="edge">
<title>/Users/mmoscato/nasa/pvslib/pvslib&#45;gitlab__pvs7.0/analysis&#45;&gt;/Users/mmoscato/nasa/pvslib/pvslib&#45;gitlab__pvs7.0/structures</title>
<path fill="none" stroke="#000000" d="M154.1069,-233.8042C154.1069,-233.8042 154.1069,-134.4251 154.1069,-134.4251"/>
<polygon fill="#000000" stroke="#000000" points="157.607,-134.4251 154.1069,-124.4251 150.607,-134.4251 157.607,-134.4251"/>
</g>
<!-- /Users/mmoscato/pvs/7.1&#45;0&#45;g3fb4f25&#45;ix86&#45;MacOSX&#45;allegro/lib/finite_sets -->
<g id="node11" class="node">
<title>/Users/mmoscato/pvs/7.1&#45;0&#45;g3fb4f25&#45;ix86&#45;MacOSX&#45;allegro/lib/finite_sets</title>
<polygon fill="#fcfcd7" stroke="#000000" points="406.2796,-196 333.7204,-196 333.7204,-160 406.2796,-160 406.2796,-196"/>
<text text-anchor="middle" x="370" y="-173.8" font-family="Times,serif" font-size="14.00" fill="#000000">finite_sets</text>
</g>
<!-- /Users/mmoscato/nasa/pvslib/pvslib&#45;gitlab__pvs7.0/analysis&#45;&gt;/Users/mmoscato/pvs/7.1&#45;0&#45;g3fb4f25&#45;ix86&#45;MacOSX&#45;allegro/lib/finite_sets -->
<g id="edge5" class="edge">
<title>/Users/mmoscato/nasa/pvslib/pvslib&#45;gitlab__pvs7.0/analysis&#45;&gt;/Users/mmoscato/pvs/7.1&#45;0&#45;g3fb4f25&#45;ix86&#45;MacOSX&#45;allegro/lib/finite_sets</title>
<path fill="none" stroke="#000000" d="M177.6176,-246C233.3658,-246 345.7402,-246 345.7402,-246 345.7402,-246 345.7402,-206.2228 345.7402,-206.2228"/>
<polygon fill="#000000" stroke="#000000" points="349.2403,-206.2227 345.7402,-196.2228 342.2403,-206.2228 349.2403,-206.2227"/>
</g>
<!-- /Users/mmoscato/nasa/pvslib/pvslib&#45;gitlab__pvs7.0/complex_alt -->
<g id="node2" class="node">
<title>/Users/mmoscato/nasa/pvslib/pvslib&#45;gitlab__pvs7.0/complex_alt</title>
<polygon fill="#f7e28d" stroke="#000000" points="145.7004,-558 60.2996,-558 60.2996,-522 145.7004,-522 145.7004,-558"/>
<text text-anchor="middle" x="103" y="-535.8" font-family="Times,serif" font-size="14.00" fill="#000000">complex_alt</text>
</g>
<!-- /Users/mmoscato/nasa/pvslib/pvslib&#45;gitlab__pvs7.0/complex_alt&#45;&gt;/Users/mmoscato/nasa/pvslib/pvslib&#45;gitlab__pvs7.0/analysis -->
<g id="edge6" class="edge">
<title>/Users/mmoscato/nasa/pvslib/pvslib&#45;gitlab__pvs7.0/complex_alt&#45;&gt;/Users/mmoscato/nasa/pvslib/pvslib&#45;gitlab__pvs7.0/analysis</title>
<path fill="none" stroke="#000000" d="M135.2,-521.9843C135.2,-521.9843 135.2,-280.0089 135.2,-280.0089"/>
<polygon fill="#000000" stroke="#000000" points="138.7001,-280.0088 135.2,-270.0089 131.7001,-280.0089 138.7001,-280.0088"/>
</g>
<!-- /Users/mmoscato/nasa/pvslib/pvslib&#45;gitlab__pvs7.0/complex_alt&#45;&gt;/Users/mmoscato/nasa/pvslib/pvslib&#45;gitlab__pvs7.0/ints -->
<g id="edge7" class="edge">
<title>/Users/mmoscato/nasa/pvslib/pvslib&#45;gitlab__pvs7.0/complex_alt&#45;&gt;/Users/mmoscato/nasa/pvslib/pvslib&#45;gitlab__pvs7.0/ints</title>
<path fill="none" stroke="#000000" d="M62.3499,-521.9028C62.3499,-430.3975 62.3499,-23 62.3499,-23 62.3499,-23 85.868,-23 85.868,-23"/>
<polygon fill="#000000" stroke="#000000" points="85.8681,-26.5001 95.868,-23 85.868,-19.5001 85.8681,-26.5001"/>
</g>
<!-- /Users/mmoscato/nasa/pvslib/pvslib&#45;gitlab__pvs7.0/lnexp -->
<g id="node4" class="node">
<title>/Users/mmoscato/nasa/pvslib/pvslib&#45;gitlab__pvs7.0/lnexp</title>
<polygon fill="#fcfcd7" stroke="#000000" points="130,-414 76,-414 76,-378 130,-378 130,-414"/>
<text text-anchor="middle" x="103" y="-391.8" font-family="Times,serif" font-size="14.00" fill="#000000">lnexp</text>
</g>
<!-- /Users/mmoscato/nasa/pvslib/pvslib&#45;gitlab__pvs7.0/complex_alt&#45;&gt;/Users/mmoscato/nasa/pvslib/pvslib&#45;gitlab__pvs7.0/lnexp -->
<g id="edge8" class="edge">
<title>/Users/mmoscato/nasa/pvslib/pvslib&#45;gitlab__pvs7.0/complex_alt&#45;&gt;/Users/mmoscato/nasa/pvslib/pvslib&#45;gitlab__pvs7.0/lnexp</title>
<path fill="none" stroke="#000000" d="M74.05,-521.7623C74.05,-483.0139 74.05,-396 74.05,-396 74.05,-396 74.2399,-396 74.2399,-396"/>
<polygon fill="#000000" stroke="#000000" points="65.9497,-399.5006 75.9495,-396 65.9493,-392.5006 65.9497,-399.5006"/>
</g>
<!-- /Users/mmoscato/nasa/pvslib/pvslib&#45;gitlab__pvs7.0/complex_alt&#45;&gt;/Users/mmoscato/nasa/pvslib/pvslib&#45;gitlab__pvs7.0/orders -->
<g id="edge9" class="edge">
<title>/Users/mmoscato/nasa/pvslib/pvslib&#45;gitlab__pvs7.0/complex_alt&#45;&gt;/Users/mmoscato/nasa/pvslib/pvslib&#45;gitlab__pvs7.0/orders</title>
<path fill="none" stroke="#000000" d="M137.8,-521.8768C137.8,-464.0955 137.8,-288 137.8,-288 137.8,-288 224,-288 224,-288 224,-288 224,-206.1643 224,-206.1643"/>
<polygon fill="#000000" stroke="#000000" points="227.5001,-206.1642 224,-196.1643 220.5001,-206.1643 227.5001,-206.1642"/>
</g>
<!-- /Users/mmoscato/nasa/pvslib/pvslib&#45;gitlab__pvs7.0/power -->
<g id="node6" class="node">
<title>/Users/mmoscato/nasa/pvslib/pvslib&#45;gitlab__pvs7.0/power</title>
<polygon fill="#fcfcd7" stroke="#000000" points="130,-486 76,-486 76,-450 130,-450 130,-486"/>
<text text-anchor="middle" x="103" y="-463.8" font-family="Times,serif" font-size="14.00" fill="#000000">power</text>
</g>
<!-- /Users/mmoscato/nasa/pvslib/pvslib&#45;gitlab__pvs7.0/complex_alt&#45;&gt;/Users/mmoscato/nasa/pvslib/pvslib&#45;gitlab__pvs7.0/power -->
<g id="edge10" class="edge">
<title>/Users/mmoscato/nasa/pvslib/pvslib&#45;gitlab__pvs7.0/complex_alt&#45;&gt;/Users/mmoscato/nasa/pvslib/pvslib&#45;gitlab__pvs7.0/power</title>
<path fill="none" stroke="#000000" d="M103,-521.8314C103,-521.8314 103,-496.4133 103,-496.4133"/>
<polygon fill="#000000" stroke="#000000" points="106.5001,-496.4132 103,-486.4133 99.5001,-496.4133 106.5001,-496.4132"/>
</g>
<!-- /Users/mmoscato/nasa/pvslib/pvslib&#45;gitlab__pvs7.0/complex_alt&#45;&gt;/Users/mmoscato/nasa/pvslib/pvslib&#45;gitlab__pvs7.0/reals -->
<g id="edge11" class="edge">
<title>/Users/mmoscato/nasa/pvslib/pvslib&#45;gitlab__pvs7.0/complex_alt&#45;&gt;/Users/mmoscato/nasa/pvslib/pvslib&#45;gitlab__pvs7.0/reals</title>
<path fill="none" stroke="#000000" d="M68.2,-521.5507C68.2,-447.7821 68.2,-178 68.2,-178 68.2,-178 85.9211,-178 85.9211,-178"/>
<polygon fill="#000000" stroke="#000000" points="85.9211,-181.5001 95.9211,-178 85.921,-174.5001 85.9211,-181.5001"/>
</g>
<!-- /Users/mmoscato/nasa/pvslib/pvslib&#45;gitlab__pvs7.0/series -->
<g id="node8" class="node">
<title>/Users/mmoscato/nasa/pvslib/pvslib&#45;gitlab__pvs7.0/series</title>
<polygon fill="#fcfcd7" stroke="#000000" points="240,-342 186,-342 186,-306 240,-306 240,-342"/>
<text text-anchor="middle" x="213" y="-319.8" font-family="Times,serif" font-size="14.00" fill="#000000">series</text>
</g>
<!-- /Users/mmoscato/nasa/pvslib/pvslib&#45;gitlab__pvs7.0/complex_alt&#45;&gt;/Users/mmoscato/nasa/pvslib/pvslib&#45;gitlab__pvs7.0/series -->
<g id="edge12" class="edge">
<title>/Users/mmoscato/nasa/pvslib/pvslib&#45;gitlab__pvs7.0/complex_alt&#45;&gt;/Users/mmoscato/nasa/pvslib/pvslib&#45;gitlab__pvs7.0/series</title>
<path fill="none" stroke="#000000" d="M140.4001,-521.7312C140.4001,-470.6395 140.4001,-330 140.4001,-330 140.4001,-330 175.9665,-330 175.9665,-330"/>
<polygon fill="#000000" stroke="#000000" points="175.9665,-333.5001 185.9665,-330 175.9664,-326.5001 175.9665,-333.5001"/>
</g>
<!-- /Users/mmoscato/nasa/pvslib/pvslib&#45;gitlab__pvs7.0/complex_alt&#45;&gt;/Users/mmoscato/nasa/pvslib/pvslib&#45;gitlab__pvs7.0/structures -->
<g id="edge13" class="edge">
<title>/Users/mmoscato/nasa/pvslib/pvslib&#45;gitlab__pvs7.0/complex_alt&#45;&gt;/Users/mmoscato/nasa/pvslib/pvslib&#45;gitlab__pvs7.0/structures</title>
<path fill="none" stroke="#000000" d="M66.2499,-521.9312C66.2499,-439.1346 66.2499,-100 66.2499,-100 66.2499,-100 77.7047,-100 77.7047,-100"/>
<polygon fill="#000000" stroke="#000000" points="77.7047,-103.5001 87.7047,-100 77.7047,-96.5001 77.7047,-103.5001"/>
</g>
<!-- /Users/mmoscato/nasa/pvslib/pvslib&#45;gitlab__pvs7.0/trig -->
<g id="node10" class="node">
<title>/Users/mmoscato/nasa/pvslib/pvslib&#45;gitlab__pvs7.0/trig</title>
<polygon fill="#fcfcd7" stroke="#000000" points="286,-414 232,-414 232,-378 286,-378 286,-414"/>
<text text-anchor="middle" x="259" y="-391.8" font-family="Times,serif" font-size="14.00" fill="#000000">trig</text>
</g>
<!-- /Users/mmoscato/nasa/pvslib/pvslib&#45;gitlab__pvs7.0/complex_alt&#45;&gt;/Users/mmoscato/nasa/pvslib/pvslib&#45;gitlab__pvs7.0/trig -->
<g id="edge14" class="edge">
<title>/Users/mmoscato/nasa/pvslib/pvslib&#45;gitlab__pvs7.0/complex_alt&#45;&gt;/Users/mmoscato/nasa/pvslib/pvslib&#45;gitlab__pvs7.0/trig</title>
<path fill="none" stroke="#000000" d="M143.0001,-521.7933C143.0001,-484.9441 143.0001,-405 143.0001,-405 143.0001,-405 221.8032,-405 221.8032,-405"/>
<polygon fill="#000000" stroke="#000000" points="221.8032,-408.5001 231.8032,-405 221.8031,-401.5001 221.8032,-408.5001"/>
</g>
<!-- /Users/mmoscato/nasa/pvslib/pvslib&#45;gitlab__pvs7.0/complex_alt&#45;&gt;/Users/mmoscato/pvs/7.1&#45;0&#45;g3fb4f25&#45;ix86&#45;MacOSX&#45;allegro/lib/finite_sets -->
<g id="edge15" class="edge">
<title>/Users/mmoscato/nasa/pvslib/pvslib&#45;gitlab__pvs7.0/complex_alt&#45;&gt;/Users/mmoscato/pvs/7.1&#45;0&#45;g3fb4f25&#45;ix86&#45;MacOSX&#45;allegro/lib/finite_sets</title>
<path fill="none" stroke="#000000" d="M145.6636,-540C226.5638,-540 394.2598,-540 394.2598,-540 394.2598,-540 394.2598,-206.4493 394.2598,-206.4493"/>
<polygon fill="#000000" stroke="#000000" points="397.7599,-206.4493 394.2598,-196.4493 390.7599,-206.4493 397.7599,-206.4493"/>
</g>
<!-- /Users/mmoscato/nasa/pvslib/pvslib&#45;gitlab__pvs7.0/lnexp&#45;&gt;/Users/mmoscato/nasa/pvslib/pvslib&#45;gitlab__pvs7.0/analysis -->
<g id="edge16" class="edge">
<title>/Users/mmoscato/nasa/pvslib/pvslib&#45;gitlab__pvs7.0/lnexp&#45;&gt;/Users/mmoscato/nasa/pvslib/pvslib&#45;gitlab__pvs7.0/analysis</title>
<path fill="none" stroke="#000000" d="M123.2241,-377.7623C123.2241,-377.7623 123.2241,-280.0896 123.2241,-280.0896"/>
<polygon fill="#000000" stroke="#000000" points="126.7242,-280.0896 123.2241,-270.0896 119.7242,-280.0897 126.7242,-280.0896"/>
</g>
<!-- /Users/mmoscato/nasa/pvslib/pvslib&#45;gitlab__pvs7.0/lnexp&#45;&gt;/Users/mmoscato/nasa/pvslib/pvslib&#45;gitlab__pvs7.0/ints -->
<g id="edge17" class="edge">
<title>/Users/mmoscato/nasa/pvslib/pvslib&#45;gitlab__pvs7.0/lnexp&#45;&gt;/Users/mmoscato/nasa/pvslib/pvslib&#45;gitlab__pvs7.0/ints</title>
<path fill="none" stroke="#000000" d="M79.9287,-377.7036C79.9287,-304.5464 79.9287,-37 79.9287,-37 79.9287,-37 85.9669,-37 85.9669,-37"/>
<polygon fill="#000000" stroke="#000000" points="85.9669,-40.5001 95.9669,-37 85.9668,-33.5001 85.9669,-40.5001"/>
</g>
<!-- /Users/mmoscato/nasa/pvslib/pvslib&#45;gitlab__pvs7.0/lnexp&#45;&gt;/Users/mmoscato/nasa/pvslib/pvslib&#45;gitlab__pvs7.0/reals -->
<g id="edge18" class="edge">
<title>/Users/mmoscato/nasa/pvslib/pvslib&#45;gitlab__pvs7.0/lnexp&#45;&gt;/Users/mmoscato/nasa/pvslib/pvslib&#45;gitlab__pvs7.0/reals</title>
<path fill="none" stroke="#000000" d="M106.2241,-377.7884C106.2241,-377.7884 106.2241,-206.0064 106.2241,-206.0064"/>
<polygon fill="#000000" stroke="#000000" points="109.7242,-206.0064 106.2241,-196.0064 102.7242,-206.0065 109.7242,-206.0064"/>
</g>
<!-- /Users/mmoscato/nasa/pvslib/pvslib&#45;gitlab__pvs7.0/lnexp&#45;&gt;/Users/mmoscato/nasa/pvslib/pvslib&#45;gitlab__pvs7.0/series -->
<g id="edge19" class="edge">
<title>/Users/mmoscato/nasa/pvslib/pvslib&#45;gitlab__pvs7.0/lnexp&#45;&gt;/Users/mmoscato/nasa/pvslib/pvslib&#45;gitlab__pvs7.0/series</title>
<path fill="none" stroke="#000000" d="M126.6121,-377.9092C126.6121,-354.8672 126.6121,-318 126.6121,-318 126.6121,-318 175.6663,-318 175.6663,-318"/>
<polygon fill="#000000" stroke="#000000" points="175.6664,-321.5001 185.6663,-318 175.6663,-314.5001 175.6664,-321.5001"/>
</g>
<!-- /Users/mmoscato/nasa/pvslib/pvslib&#45;gitlab__pvs7.0/lnexp&#45;&gt;/Users/mmoscato/nasa/pvslib/pvslib&#45;gitlab__pvs7.0/structures -->
<g id="edge20" class="edge">
<title>/Users/mmoscato/nasa/pvslib/pvslib&#45;gitlab__pvs7.0/lnexp&#45;&gt;/Users/mmoscato/nasa/pvslib/pvslib&#45;gitlab__pvs7.0/structures</title>
<path fill="none" stroke="#000000" d="M91.8931,-377.8592C91.8931,-377.8592 91.8931,-134.1339 91.8931,-134.1339"/>
<polygon fill="#000000" stroke="#000000" points="95.3932,-134.1339 91.8931,-124.1339 88.3932,-134.134 95.3932,-134.1339"/>
</g>
<!-- /Users/mmoscato/nasa/pvslib/pvslib&#45;gitlab__pvs7.0/lnexp&#45;&gt;/Users/mmoscato/pvs/7.1&#45;0&#45;g3fb4f25&#45;ix86&#45;MacOSX&#45;allegro/lib/finite_sets -->
<g id="edge21" class="edge">
<title>/Users/mmoscato/nasa/pvslib/pvslib&#45;gitlab__pvs7.0/lnexp&#45;&gt;/Users/mmoscato/pvs/7.1&#45;0&#45;g3fb4f25&#45;ix86&#45;MacOSX&#45;allegro/lib/finite_sets</title>
<path fill="none" stroke="#000000" d="M119.8362,-377.5782C119.8362,-368.7209 119.8362,-360 119.8362,-360 119.8362,-360 370,-360 370,-360 370,-360 370,-206.1162 370,-206.1162"/>
<polygon fill="#000000" stroke="#000000" points="373.5001,-206.1162 370,-196.1162 366.5001,-206.1163 373.5001,-206.1162"/>
</g>
<!-- /Users/mmoscato/nasa/pvslib/pvslib&#45;gitlab__pvs7.0/power&#45;&gt;/Users/mmoscato/nasa/pvslib/pvslib&#45;gitlab__pvs7.0/analysis -->
<g id="edge22" class="edge">
<title>/Users/mmoscato/nasa/pvslib/pvslib&#45;gitlab__pvs7.0/power&#45;&gt;/Users/mmoscato/nasa/pvslib/pvslib&#45;gitlab__pvs7.0/analysis</title>
<path fill="none" stroke="#000000" d="M130.2774,-462C131.7256,-462 132.6,-462 132.6,-462 132.6,-462 132.6,-280.2688 132.6,-280.2688"/>
<polygon fill="#000000" stroke="#000000" points="136.1001,-280.2687 132.6,-270.2688 129.1001,-280.2688 136.1001,-280.2687"/>
</g>
<!-- /Users/mmoscato/nasa/pvslib/pvslib&#45;gitlab__pvs7.0/power&#45;&gt;/Users/mmoscato/nasa/pvslib/pvslib&#45;gitlab__pvs7.0/ints -->
<g id="edge23" class="edge">
<title>/Users/mmoscato/nasa/pvslib/pvslib&#45;gitlab__pvs7.0/power&#45;&gt;/Users/mmoscato/nasa/pvslib/pvslib&#45;gitlab__pvs7.0/ints</title>
<path fill="none" stroke="#000000" d="M75.7019,-477C69.2981,-477 64.2999,-477 64.2999,-477 64.2999,-477 64.2999,-30 64.2999,-30 64.2999,-30 85.7121,-30 85.7121,-30"/>
<polygon fill="#000000" stroke="#000000" points="85.7122,-33.5001 95.7121,-30 85.7121,-26.5001 85.7122,-33.5001"/>
</g>
<!-- /Users/mmoscato/nasa/pvslib/pvslib&#45;gitlab__pvs7.0/power&#45;&gt;/Users/mmoscato/nasa/pvslib/pvslib&#45;gitlab__pvs7.0/lnexp -->
<g id="edge24" class="edge">
<title>/Users/mmoscato/nasa/pvslib/pvslib&#45;gitlab__pvs7.0/power&#45;&gt;/Users/mmoscato/nasa/pvslib/pvslib&#45;gitlab__pvs7.0/lnexp</title>
<path fill="none" stroke="#000000" d="M103,-449.8314C103,-449.8314 103,-424.4133 103,-424.4133"/>
<polygon fill="#000000" stroke="#000000" points="106.5001,-424.4132 103,-414.4133 99.5001,-424.4133 106.5001,-424.4132"/>
</g>
<!-- /Users/mmoscato/nasa/pvslib/pvslib&#45;gitlab__pvs7.0/power&#45;&gt;/Users/mmoscato/nasa/pvslib/pvslib&#45;gitlab__pvs7.0/reals -->
<g id="edge25" class="edge">
<title>/Users/mmoscato/nasa/pvslib/pvslib&#45;gitlab__pvs7.0/power&#45;&gt;/Users/mmoscato/nasa/pvslib/pvslib&#45;gitlab__pvs7.0/reals</title>
<path fill="none" stroke="#000000" d="M75.8889,-459C73.5786,-459 72.1,-459 72.1,-459 72.1,-459 72.1,-187 72.1,-187 72.1,-187 85.7618,-187 85.7618,-187"/>
<polygon fill="#000000" stroke="#000000" points="85.7619,-190.5001 95.7618,-187 85.7618,-183.5001 85.7619,-190.5001"/>
</g>
<!-- /Users/mmoscato/nasa/pvslib/pvslib&#45;gitlab__pvs7.0/power&#45;&gt;/Users/mmoscato/nasa/pvslib/pvslib&#45;gitlab__pvs7.0/structures -->
<g id="edge26" class="edge">
<title>/Users/mmoscato/nasa/pvslib/pvslib&#45;gitlab__pvs7.0/power&#45;&gt;/Users/mmoscato/nasa/pvslib/pvslib&#45;gitlab__pvs7.0/structures</title>
<path fill="none" stroke="#000000" d="M75.872,-468C72.4678,-468 70.15,-468 70.15,-468 70.15,-468 70.15,-112 70.15,-112 70.15,-112 77.7483,-112 77.7483,-112"/>
<polygon fill="#000000" stroke="#000000" points="77.7483,-115.5001 87.7483,-112 77.7482,-108.5001 77.7483,-115.5001"/>
</g>
<!-- /Users/mmoscato/nasa/pvslib/pvslib&#45;gitlab__pvs7.0/power&#45;&gt;/Users/mmoscato/pvs/7.1&#45;0&#45;g3fb4f25&#45;ix86&#45;MacOSX&#45;allegro/lib/finite_sets -->
<g id="edge27" class="edge">
<title>/Users/mmoscato/nasa/pvslib/pvslib&#45;gitlab__pvs7.0/power&#45;&gt;/Users/mmoscato/pvs/7.1&#45;0&#45;g3fb4f25&#45;ix86&#45;MacOSX&#45;allegro/lib/finite_sets</title>
<path fill="none" stroke="#000000" d="M130.0178,-474C200.0687,-474 382.1299,-474 382.1299,-474 382.1299,-474 382.1299,-206.0705 382.1299,-206.0705"/>
<polygon fill="#000000" stroke="#000000" points="385.63,-206.0705 382.1299,-196.0705 378.63,-206.0706 385.63,-206.0705"/>
</g>
<!-- /Users/mmoscato/nasa/pvslib/pvslib&#45;gitlab__pvs7.0/reals&#45;&gt;/Users/mmoscato/nasa/pvslib/pvslib&#45;gitlab__pvs7.0/ints -->
<g id="edge28" class="edge">
<title>/Users/mmoscato/nasa/pvslib/pvslib&#45;gitlab__pvs7.0/reals&#45;&gt;/Users/mmoscato/nasa/pvslib/pvslib&#45;gitlab__pvs7.0/ints</title>
<path fill="none" stroke="#000000" d="M95.8142,-169C89.1349,-169 83.8574,-169 83.8574,-169 83.8574,-169 83.8574,-44 83.8574,-44 83.8574,-44 85.8142,-44 85.8142,-44"/>
<polygon fill="#000000" stroke="#000000" points="85.8142,-47.5001 95.8142,-44 85.8141,-40.5001 85.8142,-47.5001"/>
</g>
<!-- /Users/mmoscato/nasa/pvslib/pvslib&#45;gitlab__pvs7.0/reals&#45;&gt;/Users/mmoscato/nasa/pvslib/pvslib&#45;gitlab__pvs7.0/structures -->
<g id="edge29" class="edge">
<title>/Users/mmoscato/nasa/pvslib/pvslib&#45;gitlab__pvs7.0/reals&#45;&gt;/Users/mmoscato/nasa/pvslib/pvslib&#45;gitlab__pvs7.0/structures</title>
<path fill="none" stroke="#000000" d="M123,-159.8314C123,-159.8314 123,-134.4133 123,-134.4133"/>
<polygon fill="#000000" stroke="#000000" points="126.5001,-134.4132 123,-124.4133 119.5001,-134.4133 126.5001,-134.4132"/>
</g>
<!-- /Users/mmoscato/nasa/pvslib/pvslib&#45;gitlab__pvs7.0/series&#45;&gt;/Users/mmoscato/nasa/pvslib/pvslib&#45;gitlab__pvs7.0/analysis -->
<g id="edge30" class="edge">
<title>/Users/mmoscato/nasa/pvslib/pvslib&#45;gitlab__pvs7.0/series&#45;&gt;/Users/mmoscato/nasa/pvslib/pvslib&#45;gitlab__pvs7.0/analysis</title>
<path fill="none" stroke="#000000" d="M192,-305.9652C192,-286.4238 192,-258 192,-258 192,-258 187.7617,-258 187.7617,-258"/>
<polygon fill="#000000" stroke="#000000" points="187.7618,-254.5001 177.7617,-258 187.7617,-261.5001 187.7618,-254.5001"/>
</g>
<!-- /Users/mmoscato/nasa/pvslib/pvslib&#45;gitlab__pvs7.0/series&#45;&gt;/Users/mmoscato/nasa/pvslib/pvslib&#45;gitlab__pvs7.0/ints -->
<g id="edge31" class="edge">
<title>/Users/mmoscato/nasa/pvslib/pvslib&#45;gitlab__pvs7.0/series&#45;&gt;/Users/mmoscato/nasa/pvslib/pvslib&#45;gitlab__pvs7.0/ints</title>
<path fill="none" stroke="#000000" d="M210,-305.8592C210,-242.3711 210,-34 210,-34 210,-34 160.0504,-34 160.0504,-34"/>
<polygon fill="#000000" stroke="#000000" points="160.0505,-30.5001 150.0504,-34 160.0504,-37.5001 160.0505,-30.5001"/>
</g>
<!-- /Users/mmoscato/nasa/pvslib/pvslib&#45;gitlab__pvs7.0/series&#45;&gt;/Users/mmoscato/nasa/pvslib/pvslib&#45;gitlab__pvs7.0/orders -->
<g id="edge32" class="edge">
<title>/Users/mmoscato/nasa/pvslib/pvslib&#45;gitlab__pvs7.0/series&#45;&gt;/Users/mmoscato/nasa/pvslib/pvslib&#45;gitlab__pvs7.0/orders</title>
<path fill="none" stroke="#000000" d="M232,-305.8042C232,-305.8042 232,-206.4251 232,-206.4251"/>
<polygon fill="#000000" stroke="#000000" points="235.5001,-206.4251 232,-196.4251 228.5001,-206.4251 235.5001,-206.4251"/>
</g>
<!-- /Users/mmoscato/nasa/pvslib/pvslib&#45;gitlab__pvs7.0/series&#45;&gt;/Users/mmoscato/nasa/pvslib/pvslib&#45;gitlab__pvs7.0/reals -->
<g id="edge33" class="edge">
<title>/Users/mmoscato/nasa/pvslib/pvslib&#45;gitlab__pvs7.0/series&#45;&gt;/Users/mmoscato/nasa/pvslib/pvslib&#45;gitlab__pvs7.0/reals</title>
<path fill="none" stroke="#000000" d="M198,-305.9162C198,-265.0289 198,-169 198,-169 198,-169 160.0767,-169 160.0767,-169"/>
<polygon fill="#000000" stroke="#000000" points="160.0768,-165.5001 150.0767,-169 160.0767,-172.5001 160.0768,-165.5001"/>
</g>
<!-- /Users/mmoscato/nasa/pvslib/pvslib&#45;gitlab__pvs7.0/series&#45;&gt;/Users/mmoscato/nasa/pvslib/pvslib&#45;gitlab__pvs7.0/structures -->
<g id="edge34" class="edge">
<title>/Users/mmoscato/nasa/pvslib/pvslib&#45;gitlab__pvs7.0/series&#45;&gt;/Users/mmoscato/nasa/pvslib/pvslib&#45;gitlab__pvs7.0/structures</title>
<path fill="none" stroke="#000000" d="M204,-305.925C204,-254.6575 204,-112 204,-112 204,-112 168.2921,-112 168.2921,-112"/>
<polygon fill="#000000" stroke="#000000" points="168.2922,-108.5001 158.2921,-112 168.2921,-115.5001 168.2922,-108.5001"/>
</g>
<!-- /Users/mmoscato/nasa/pvslib/pvslib&#45;gitlab__pvs7.0/series&#45;&gt;/Users/mmoscato/pvs/7.1&#45;0&#45;g3fb4f25&#45;ix86&#45;MacOSX&#45;allegro/lib/finite_sets -->
<g id="edge35" class="edge">
<title>/Users/mmoscato/nasa/pvslib/pvslib&#45;gitlab__pvs7.0/series&#45;&gt;/Users/mmoscato/pvs/7.1&#45;0&#45;g3fb4f25&#45;ix86&#45;MacOSX&#45;allegro/lib/finite_sets</title>
<path fill="none" stroke="#000000" d="M240.249,-324C282.2143,-324 357.8701,-324 357.8701,-324 357.8701,-324 357.8701,-206.1958 357.8701,-206.1958"/>
<polygon fill="#000000" stroke="#000000" points="361.3702,-206.1958 357.8701,-196.1958 354.3702,-206.1958 361.3702,-206.1958"/>
</g>
<!-- /Users/mmoscato/nasa/pvslib/pvslib&#45;gitlab__pvs7.0/structures&#45;&gt;/Users/mmoscato/nasa/pvslib/pvslib&#45;gitlab__pvs7.0/ints -->
<g id="edge36" class="edge">
<title>/Users/mmoscato/nasa/pvslib/pvslib&#45;gitlab__pvs7.0/structures&#45;&gt;/Users/mmoscato/nasa/pvslib/pvslib&#45;gitlab__pvs7.0/ints</title>
<path fill="none" stroke="#000000" d="M123,-87.8314C123,-87.8314 123,-62.4133 123,-62.4133"/>
<polygon fill="#000000" stroke="#000000" points="126.5001,-62.4132 123,-52.4133 119.5001,-62.4133 126.5001,-62.4132"/>
</g>
<!-- /Users/mmoscato/nasa/pvslib/pvslib&#45;gitlab__pvs7.0/trig&#45;&gt;/Users/mmoscato/nasa/pvslib/pvslib&#45;gitlab__pvs7.0/analysis -->
<g id="edge37" class="edge">
<title>/Users/mmoscato/nasa/pvslib/pvslib&#45;gitlab__pvs7.0/trig&#45;&gt;/Users/mmoscato/nasa/pvslib/pvslib&#45;gitlab__pvs7.0/analysis</title>
<path fill="none" stroke="#000000" d="M231.862,-396C203.035,-396 161.5759,-396 161.5759,-396 161.5759,-396 161.5759,-280.2377 161.5759,-280.2377"/>
<polygon fill="#000000" stroke="#000000" points="165.076,-280.2377 161.5759,-270.2377 158.076,-280.2377 165.076,-280.2377"/>
</g>
<!-- /Users/mmoscato/nasa/pvslib/pvslib&#45;gitlab__pvs7.0/trig&#45;&gt;/Users/mmoscato/nasa/pvslib/pvslib&#45;gitlab__pvs7.0/ints -->
<g id="edge38" class="edge">
<title>/Users/mmoscato/nasa/pvslib/pvslib&#45;gitlab__pvs7.0/trig&#45;&gt;/Users/mmoscato/nasa/pvslib/pvslib&#45;gitlab__pvs7.0/ints</title>
<path fill="none" stroke="#000000" d="M278,-377.8548C278,-303.3692 278,-25 278,-25 278,-25 160.3541,-25 160.3541,-25"/>
<polygon fill="#000000" stroke="#000000" points="160.3541,-21.5001 150.3541,-25 160.3541,-28.5001 160.3541,-21.5001"/>
</g>
<!-- /Users/mmoscato/nasa/pvslib/pvslib&#45;gitlab__pvs7.0/trig&#45;&gt;/Users/mmoscato/nasa/pvslib/pvslib&#45;gitlab__pvs7.0/orders -->
<g id="edge39" class="edge">
<title>/Users/mmoscato/nasa/pvslib/pvslib&#45;gitlab__pvs7.0/trig&#45;&gt;/Users/mmoscato/nasa/pvslib/pvslib&#45;gitlab__pvs7.0/orders</title>
<path fill="none" stroke="#000000" d="M255,-377.7884C255,-377.7884 255,-206.0064 255,-206.0064"/>
<polygon fill="#000000" stroke="#000000" points="258.5001,-206.0064 255,-196.0064 251.5001,-206.0065 258.5001,-206.0064"/>
</g>
<!-- /Users/mmoscato/nasa/pvslib/pvslib&#45;gitlab__pvs7.0/trig&#45;&gt;/Users/mmoscato/nasa/pvslib/pvslib&#45;gitlab__pvs7.0/reals -->
<g id="edge40" class="edge">
<title>/Users/mmoscato/nasa/pvslib/pvslib&#45;gitlab__pvs7.0/trig&#45;&gt;/Users/mmoscato/nasa/pvslib/pvslib&#45;gitlab__pvs7.0/reals</title>
<path fill="none" stroke="#000000" d="M231.9907,-387C209.7215,-387 181.7759,-387 181.7759,-387 181.7759,-387 181.7759,-187 181.7759,-187 181.7759,-187 160.3231,-187 160.3231,-187"/>
<polygon fill="#000000" stroke="#000000" points="160.3231,-183.5001 150.3231,-187 160.3231,-190.5001 160.3231,-183.5001"/>
</g>
<!-- /Users/mmoscato/nasa/pvslib/pvslib&#45;gitlab__pvs7.0/trig&#45;&gt;/Users/mmoscato/nasa/pvslib/pvslib&#45;gitlab__pvs7.0/series -->
<g id="edge41" class="edge">
<title>/Users/mmoscato/nasa/pvslib/pvslib&#45;gitlab__pvs7.0/trig&#45;&gt;/Users/mmoscato/nasa/pvslib/pvslib&#45;gitlab__pvs7.0/series</title>
<path fill="none" stroke="#000000" d="M236,-377.8314C236,-377.8314 236,-352.4133 236,-352.4133"/>
<polygon fill="#000000" stroke="#000000" points="239.5001,-352.4132 236,-342.4133 232.5001,-352.4133 239.5001,-352.4132"/>
</g>
<!-- /Users/mmoscato/nasa/pvslib/pvslib&#45;gitlab__pvs7.0/trig&#45;&gt;/Users/mmoscato/nasa/pvslib/pvslib&#45;gitlab__pvs7.0/structures -->
<g id="edge42" class="edge">
<title>/Users/mmoscato/nasa/pvslib/pvslib&#45;gitlab__pvs7.0/trig&#45;&gt;/Users/mmoscato/nasa/pvslib/pvslib&#45;gitlab__pvs7.0/structures</title>
<path fill="none" stroke="#000000" d="M274,-377.9295C274,-313.6635 274,-100 274,-100 274,-100 168.4028,-100 168.4028,-100"/>
<polygon fill="#000000" stroke="#000000" points="168.4028,-96.5001 158.4028,-100 168.4028,-103.5001 168.4028,-96.5001"/>
</g>
<!-- /Users/mmoscato/nasa/pvslib/pvslib&#45;gitlab__pvs7.0/trig&#45;&gt;/Users/mmoscato/pvs/7.1&#45;0&#45;g3fb4f25&#45;ix86&#45;MacOSX&#45;allegro/lib/finite_sets -->
<g id="edge43" class="edge">
<title>/Users/mmoscato/nasa/pvslib/pvslib&#45;gitlab__pvs7.0/trig&#45;&gt;/Users/mmoscato/pvs/7.1&#45;0&#45;g3fb4f25&#45;ix86&#45;MacOSX&#45;allegro/lib/finite_sets</title>
<path fill="none" stroke="#000000" d="M282,-377.7884C282,-325.3943 282,-178 282,-178 282,-178 323.699,-178 323.699,-178"/>
<polygon fill="#000000" stroke="#000000" points="323.699,-181.5001 333.699,-178 323.6989,-174.5001 323.699,-181.5001"/>
</g>
</g>
</svg>
