<?xml version="1.0" encoding="UTF-8" standalone="no"?>
<!DOCTYPE svg PUBLIC "-//W3C//DTD SVG 1.1//EN"
 "http://www.w3.org/Graphics/SVG/1.1/DTD/svg11.dtd">
<!-- Generated by graphviz version 2.40.1 (20161225.0304)
 -->
<!-- Title: Tarski Pages: 1 -->
<svg width="294pt" height="458pt"
 viewBox="0.00 0.00 294.00 458.00" xmlns="http://www.w3.org/2000/svg" xmlns:xlink="http://www.w3.org/1999/xlink">
<g id="graph0" class="graph" transform="scale(1 1) rotate(0) translate(4 454)">
<title>Tarski</title>
<polygon fill="#ffffff" stroke="transparent" points="-4,4 -4,-454 290,-454 290,4 -4,4"/>
<g id="clust1" class="cluster">
<title>cluster_NASALib</title>
<polygon fill="none" stroke="#000000" points="8,-8 8,-442 278,-442 278,-8 8,-8"/>
<text text-anchor="middle" x="143" y="-426.8" font-family="Times,serif" font-size="14.00" fill="#000000">NASALib</text>
</g>
<!-- /Users/mmoscato/nasa/pvslib/pvslib&#45;gitlab__pvs7.0/Sturm -->
<g id="node1" class="node">
<title>/Users/mmoscato/nasa/pvslib/pvslib&#45;gitlab__pvs7.0/Sturm</title>
<polygon fill="#fcfcd7" stroke="#000000" points="129,-340 75,-340 75,-304 129,-304 129,-340"/>
<text text-anchor="middle" x="102" y="-317.8" font-family="Times,serif" font-size="14.00" fill="#000000">Sturm</text>
</g>
<!-- /Users/mmoscato/nasa/pvslib/pvslib&#45;gitlab__pvs7.0/interval_arith -->
<g id="node3" class="node">
<title>/Users/mmoscato/nasa/pvslib/pvslib&#45;gitlab__pvs7.0/interval_arith</title>
<polygon fill="#fcfcd7" stroke="#000000" points="147.915,-268 56.085,-268 56.085,-232 147.915,-232 147.915,-268"/>
<text text-anchor="middle" x="102" y="-245.8" font-family="Times,serif" font-size="14.00" fill="#000000">interval_arith</text>
</g>
<!-- /Users/mmoscato/nasa/pvslib/pvslib&#45;gitlab__pvs7.0/Sturm&#45;&gt;/Users/mmoscato/nasa/pvslib/pvslib&#45;gitlab__pvs7.0/interval_arith -->
<g id="edge1" class="edge">
<title>/Users/mmoscato/nasa/pvslib/pvslib&#45;gitlab__pvs7.0/Sturm&#45;&gt;/Users/mmoscato/nasa/pvslib/pvslib&#45;gitlab__pvs7.0/interval_arith</title>
<path fill="none" stroke="#000000" d="M102,-303.8314C102,-303.8314 102,-278.4133 102,-278.4133"/>
<polygon fill="#000000" stroke="#000000" points="105.5001,-278.4132 102,-268.4133 98.5001,-278.4133 105.5001,-278.4132"/>
</g>
<!-- /Users/mmoscato/nasa/pvslib/pvslib&#45;gitlab__pvs7.0/ints -->
<g id="node4" class="node">
<title>/Users/mmoscato/nasa/pvslib/pvslib&#45;gitlab__pvs7.0/ints</title>
<polygon fill="#fcfcd7" stroke="#000000" points="136,-52 82,-52 82,-16 136,-16 136,-52"/>
<text text-anchor="middle" x="109" y="-29.8" font-family="Times,serif" font-size="14.00" fill="#000000">ints</text>
</g>
<!-- /Users/mmoscato/nasa/pvslib/pvslib&#45;gitlab__pvs7.0/Sturm&#45;&gt;/Users/mmoscato/nasa/pvslib/pvslib&#45;gitlab__pvs7.0/ints -->
<g id="edge2" class="edge">
<title>/Users/mmoscato/nasa/pvslib/pvslib&#45;gitlab__pvs7.0/Sturm&#45;&gt;/Users/mmoscato/nasa/pvslib/pvslib&#45;gitlab__pvs7.0/ints</title>
<path fill="none" stroke="#000000" d="M74.763,-331C49.0478,-331 14.4,-331 14.4,-331 14.4,-331 14.4,-30 14.4,-30 14.4,-30 71.8914,-30 71.8914,-30"/>
<polygon fill="#000000" stroke="#000000" points="71.8915,-33.5001 81.8914,-30 71.8914,-26.5001 71.8915,-33.5001"/>
</g>
<!-- /Users/mmoscato/nasa/pvslib/pvslib&#45;gitlab__pvs7.0/reals -->
<g id="node7" class="node">
<title>/Users/mmoscato/nasa/pvslib/pvslib&#45;gitlab__pvs7.0/reals</title>
<polygon fill="#fcfcd7" stroke="#000000" points="90,-196 36,-196 36,-160 90,-160 90,-196"/>
<text text-anchor="middle" x="63" y="-173.8" font-family="Times,serif" font-size="14.00" fill="#000000">reals</text>
</g>
<!-- /Users/mmoscato/nasa/pvslib/pvslib&#45;gitlab__pvs7.0/Sturm&#45;&gt;/Users/mmoscato/nasa/pvslib/pvslib&#45;gitlab__pvs7.0/reals -->
<g id="edge3" class="edge">
<title>/Users/mmoscato/nasa/pvslib/pvslib&#45;gitlab__pvs7.0/Sturm&#45;&gt;/Users/mmoscato/nasa/pvslib/pvslib&#45;gitlab__pvs7.0/reals</title>
<path fill="none" stroke="#000000" d="M74.8421,-313C62.0388,-313 49.5286,-313 49.5286,-313 49.5286,-313 49.5286,-206.2067 49.5286,-206.2067"/>
<polygon fill="#000000" stroke="#000000" points="53.0287,-206.2067 49.5286,-196.2067 46.0287,-206.2067 53.0287,-206.2067"/>
</g>
<!-- /Users/mmoscato/nasa/pvslib/pvslib&#45;gitlab__pvs7.0/structures -->
<g id="node8" class="node">
<title>/Users/mmoscato/nasa/pvslib/pvslib&#45;gitlab__pvs7.0/structures</title>
<polygon fill="#fcfcd7" stroke="#000000" points="144.429,-124 73.571,-124 73.571,-88 144.429,-88 144.429,-124"/>
<text text-anchor="middle" x="109" y="-101.8" font-family="Times,serif" font-size="14.00" fill="#000000">structures</text>
</g>
<!-- /Users/mmoscato/nasa/pvslib/pvslib&#45;gitlab__pvs7.0/Sturm&#45;&gt;/Users/mmoscato/nasa/pvslib/pvslib&#45;gitlab__pvs7.0/structures -->
<g id="edge4" class="edge">
<title>/Users/mmoscato/nasa/pvslib/pvslib&#45;gitlab__pvs7.0/Sturm&#45;&gt;/Users/mmoscato/nasa/pvslib/pvslib&#45;gitlab__pvs7.0/structures</title>
<path fill="none" stroke="#000000" d="M74.743,-322C53.9312,-322 28.8,-322 28.8,-322 28.8,-322 28.8,-106 28.8,-106 28.8,-106 63.5897,-106 63.5897,-106"/>
<polygon fill="#000000" stroke="#000000" points="63.5897,-109.5001 73.5897,-106 63.5896,-102.5001 63.5897,-109.5001"/>
</g>
<!-- /Users/mmoscato/nasa/pvslib/pvslib&#45;gitlab__pvs7.0/Tarski -->
<g id="node2" class="node">
<title>/Users/mmoscato/nasa/pvslib/pvslib&#45;gitlab__pvs7.0/Tarski</title>
<polygon fill="#f7e28d" stroke="#000000" points="161,-412 107,-412 107,-376 161,-376 161,-412"/>
<text text-anchor="middle" x="134" y="-389.8" font-family="Times,serif" font-size="14.00" fill="#000000">Tarski</text>
</g>
<!-- /Users/mmoscato/nasa/pvslib/pvslib&#45;gitlab__pvs7.0/Tarski&#45;&gt;/Users/mmoscato/nasa/pvslib/pvslib&#45;gitlab__pvs7.0/Sturm -->
<g id="edge5" class="edge">
<title>/Users/mmoscato/nasa/pvslib/pvslib&#45;gitlab__pvs7.0/Tarski&#45;&gt;/Users/mmoscato/nasa/pvslib/pvslib&#45;gitlab__pvs7.0/Sturm</title>
<path fill="none" stroke="#000000" d="M118,-375.8314C118,-375.8314 118,-350.4133 118,-350.4133"/>
<polygon fill="#000000" stroke="#000000" points="121.5001,-350.4132 118,-340.4133 114.5001,-350.4133 121.5001,-350.4132"/>
</g>
<!-- /Users/mmoscato/nasa/pvslib/pvslib&#45;gitlab__pvs7.0/Tarski&#45;&gt;/Users/mmoscato/nasa/pvslib/pvslib&#45;gitlab__pvs7.0/interval_arith -->
<g id="edge6" class="edge">
<title>/Users/mmoscato/nasa/pvslib/pvslib&#45;gitlab__pvs7.0/Tarski&#45;&gt;/Users/mmoscato/nasa/pvslib/pvslib&#45;gitlab__pvs7.0/interval_arith</title>
<path fill="none" stroke="#000000" d="M138.3535,-375.7623C138.3535,-375.7623 138.3535,-278.0896 138.3535,-278.0896"/>
<polygon fill="#000000" stroke="#000000" points="141.8536,-278.0896 138.3535,-268.0896 134.8536,-278.0897 141.8536,-278.0896"/>
</g>
<!-- /Users/mmoscato/nasa/pvslib/pvslib&#45;gitlab__pvs7.0/Tarski&#45;&gt;/Users/mmoscato/nasa/pvslib/pvslib&#45;gitlab__pvs7.0/ints -->
<g id="edge7" class="edge">
<title>/Users/mmoscato/nasa/pvslib/pvslib&#45;gitlab__pvs7.0/Tarski&#45;&gt;/Users/mmoscato/nasa/pvslib/pvslib&#45;gitlab__pvs7.0/ints</title>
<path fill="none" stroke="#000000" d="M106.7982,-400C69.5402,-400 7.2,-400 7.2,-400 7.2,-400 7.2,-23 7.2,-23 7.2,-23 71.9867,-23 71.9867,-23"/>
<polygon fill="#000000" stroke="#000000" points="71.9868,-26.5001 81.9867,-23 71.9867,-19.5001 71.9868,-26.5001"/>
</g>
<!-- /Users/mmoscato/nasa/pvslib/pvslib&#45;gitlab__pvs7.0/matrices -->
<g id="node5" class="node">
<title>/Users/mmoscato/nasa/pvslib/pvslib&#45;gitlab__pvs7.0/matrices</title>
<polygon fill="#fcfcd7" stroke="#000000" points="249.9223,-268 186.0777,-268 186.0777,-232 249.9223,-232 249.9223,-268"/>
<text text-anchor="middle" x="218" y="-245.8" font-family="Times,serif" font-size="14.00" fill="#000000">matrices</text>
</g>
<!-- /Users/mmoscato/nasa/pvslib/pvslib&#45;gitlab__pvs7.0/Tarski&#45;&gt;/Users/mmoscato/nasa/pvslib/pvslib&#45;gitlab__pvs7.0/matrices -->
<g id="edge8" class="edge">
<title>/Users/mmoscato/nasa/pvslib/pvslib&#45;gitlab__pvs7.0/Tarski&#45;&gt;/Users/mmoscato/nasa/pvslib/pvslib&#45;gitlab__pvs7.0/matrices</title>
<path fill="none" stroke="#000000" d="M158.4,-375.9589C158.4,-338.5524 158.4,-256 158.4,-256 158.4,-256 176.1062,-256 176.1062,-256"/>
<polygon fill="#000000" stroke="#000000" points="176.1063,-259.5001 186.1062,-256 176.1062,-252.5001 176.1063,-259.5001"/>
</g>
<!-- /Users/mmoscato/nasa/pvslib/pvslib&#45;gitlab__pvs7.0/orders -->
<g id="node6" class="node">
<title>/Users/mmoscato/nasa/pvslib/pvslib&#45;gitlab__pvs7.0/orders</title>
<polygon fill="#fcfcd7" stroke="#000000" points="202,-196 148,-196 148,-160 202,-160 202,-196"/>
<text text-anchor="middle" x="175" y="-173.8" font-family="Times,serif" font-size="14.00" fill="#000000">orders</text>
</g>
<!-- /Users/mmoscato/nasa/pvslib/pvslib&#45;gitlab__pvs7.0/Tarski&#45;&gt;/Users/mmoscato/nasa/pvslib/pvslib&#45;gitlab__pvs7.0/orders -->
<g id="edge9" class="edge">
<title>/Users/mmoscato/nasa/pvslib/pvslib&#45;gitlab__pvs7.0/Tarski&#45;&gt;/Users/mmoscato/nasa/pvslib/pvslib&#45;gitlab__pvs7.0/orders</title>
<path fill="none" stroke="#000000" d="M155.8,-375.9555C155.8,-375.9555 155.8,-206.1451 155.8,-206.1451"/>
<polygon fill="#000000" stroke="#000000" points="159.3001,-206.145 155.8,-196.1451 152.3001,-206.1451 159.3001,-206.145"/>
</g>
<!-- /Users/mmoscato/nasa/pvslib/pvslib&#45;gitlab__pvs7.0/Tarski&#45;&gt;/Users/mmoscato/nasa/pvslib/pvslib&#45;gitlab__pvs7.0/reals -->
<g id="edge10" class="edge">
<title>/Users/mmoscato/nasa/pvslib/pvslib&#45;gitlab__pvs7.0/Tarski&#45;&gt;/Users/mmoscato/nasa/pvslib/pvslib&#45;gitlab__pvs7.0/reals</title>
<path fill="none" stroke="#000000" d="M106.6263,-388C79.7522,-388 42.7643,-388 42.7643,-388 42.7643,-388 42.7643,-206.2688 42.7643,-206.2688"/>
<polygon fill="#000000" stroke="#000000" points="46.2644,-206.2687 42.7643,-196.2688 39.2644,-206.2688 46.2644,-206.2687"/>
</g>
<!-- /Users/mmoscato/nasa/pvslib/pvslib&#45;gitlab__pvs7.0/Tarski&#45;&gt;/Users/mmoscato/nasa/pvslib/pvslib&#45;gitlab__pvs7.0/structures -->
<g id="edge11" class="edge">
<title>/Users/mmoscato/nasa/pvslib/pvslib&#45;gitlab__pvs7.0/Tarski&#45;&gt;/Users/mmoscato/nasa/pvslib/pvslib&#45;gitlab__pvs7.0/structures</title>
<path fill="none" stroke="#000000" d="M153.2,-375.7078C153.2,-331.034 153.2,-220 153.2,-220 153.2,-220 126.1426,-220 126.1426,-220 126.1426,-220 126.1426,-134.0636 126.1426,-134.0636"/>
<polygon fill="#000000" stroke="#000000" points="129.6427,-134.0636 126.1426,-124.0636 122.6427,-134.0637 129.6427,-134.0636"/>
</g>
<!-- /Users/mmoscato/nasa/pvslib/pvslib&#45;gitlab__pvs7.0/interval_arith&#45;&gt;/Users/mmoscato/nasa/pvslib/pvslib&#45;gitlab__pvs7.0/ints -->
<g id="edge12" class="edge">
<title>/Users/mmoscato/nasa/pvslib/pvslib&#45;gitlab__pvs7.0/interval_arith&#45;&gt;/Users/mmoscato/nasa/pvslib/pvslib&#45;gitlab__pvs7.0/ints</title>
<path fill="none" stroke="#000000" d="M56.1634,-250C38.1079,-250 21.6,-250 21.6,-250 21.6,-250 21.6,-37 21.6,-37 21.6,-37 71.8252,-37 71.8252,-37"/>
<polygon fill="#000000" stroke="#000000" points="71.8252,-40.5001 81.8252,-37 71.8252,-33.5001 71.8252,-40.5001"/>
</g>
<!-- /Users/mmoscato/nasa/pvslib/pvslib&#45;gitlab__pvs7.0/interval_arith&#45;&gt;/Users/mmoscato/nasa/pvslib/pvslib&#45;gitlab__pvs7.0/orders -->
<g id="edge13" class="edge">
<title>/Users/mmoscato/nasa/pvslib/pvslib&#45;gitlab__pvs7.0/interval_arith&#45;&gt;/Users/mmoscato/nasa/pvslib/pvslib&#45;gitlab__pvs7.0/orders</title>
<path fill="none" stroke="#000000" d="M147.9871,-244C149.6389,-244 150.6,-244 150.6,-244 150.6,-244 150.6,-206.0348 150.6,-206.0348"/>
<polygon fill="#000000" stroke="#000000" points="154.1001,-206.0348 150.6,-196.0348 147.1001,-206.0348 154.1001,-206.0348"/>
</g>
<!-- /Users/mmoscato/nasa/pvslib/pvslib&#45;gitlab__pvs7.0/interval_arith&#45;&gt;/Users/mmoscato/nasa/pvslib/pvslib&#45;gitlab__pvs7.0/reals -->
<g id="edge14" class="edge">
<title>/Users/mmoscato/nasa/pvslib/pvslib&#45;gitlab__pvs7.0/interval_arith&#45;&gt;/Users/mmoscato/nasa/pvslib/pvslib&#45;gitlab__pvs7.0/reals</title>
<path fill="none" stroke="#000000" d="M67.5286,-231.8314C67.5286,-231.8314 67.5286,-206.4133 67.5286,-206.4133"/>
<polygon fill="#000000" stroke="#000000" points="71.0287,-206.4132 67.5286,-196.4133 64.0287,-206.4133 71.0287,-206.4132"/>
</g>
<!-- /Users/mmoscato/nasa/pvslib/pvslib&#45;gitlab__pvs7.0/interval_arith&#45;&gt;/Users/mmoscato/nasa/pvslib/pvslib&#45;gitlab__pvs7.0/structures -->
<g id="edge15" class="edge">
<title>/Users/mmoscato/nasa/pvslib/pvslib&#45;gitlab__pvs7.0/interval_arith&#45;&gt;/Users/mmoscato/nasa/pvslib/pvslib&#45;gitlab__pvs7.0/structures</title>
<path fill="none" stroke="#000000" d="M108.0713,-231.7623C108.0713,-231.7623 108.0713,-134.0896 108.0713,-134.0896"/>
<polygon fill="#000000" stroke="#000000" points="111.5714,-134.0896 108.0713,-124.0896 104.5714,-134.0897 111.5714,-134.0896"/>
</g>
<!-- /Users/mmoscato/nasa/pvslib/pvslib&#45;gitlab__pvs7.0/matrices&#45;&gt;/Users/mmoscato/nasa/pvslib/pvslib&#45;gitlab__pvs7.0/ints -->
<g id="edge16" class="edge">
<title>/Users/mmoscato/nasa/pvslib/pvslib&#45;gitlab__pvs7.0/matrices&#45;&gt;/Users/mmoscato/nasa/pvslib/pvslib&#45;gitlab__pvs7.0/ints</title>
<path fill="none" stroke="#000000" d="M233.807,-231.9555C233.807,-180.0421 233.807,-34 233.807,-34 233.807,-34 146.0813,-34 146.0813,-34"/>
<polygon fill="#000000" stroke="#000000" points="146.0813,-30.5001 136.0813,-34 146.0812,-37.5001 146.0813,-30.5001"/>
</g>
<!-- /Users/mmoscato/nasa/pvslib/pvslib&#45;gitlab__pvs7.0/matrices&#45;&gt;/Users/mmoscato/nasa/pvslib/pvslib&#45;gitlab__pvs7.0/orders -->
<g id="edge17" class="edge">
<title>/Users/mmoscato/nasa/pvslib/pvslib&#45;gitlab__pvs7.0/matrices&#45;&gt;/Users/mmoscato/nasa/pvslib/pvslib&#45;gitlab__pvs7.0/orders</title>
<path fill="none" stroke="#000000" d="M196.7632,-231.8314C196.7632,-231.8314 196.7632,-206.4133 196.7632,-206.4133"/>
<polygon fill="#000000" stroke="#000000" points="200.2633,-206.4132 196.7632,-196.4133 193.2633,-206.4133 200.2633,-206.4132"/>
</g>
<!-- /Users/mmoscato/nasa/pvslib/pvslib&#45;gitlab__pvs7.0/matrices&#45;&gt;/Users/mmoscato/nasa/pvslib/pvslib&#45;gitlab__pvs7.0/reals -->
<g id="edge18" class="edge">
<title>/Users/mmoscato/nasa/pvslib/pvslib&#45;gitlab__pvs7.0/matrices&#45;&gt;/Users/mmoscato/nasa/pvslib/pvslib&#45;gitlab__pvs7.0/reals</title>
<path fill="none" stroke="#000000" d="M191.5264,-231.9445C191.5264,-220.561 191.5264,-208 191.5264,-208 191.5264,-208 78.7643,-208 78.7643,-208 78.7643,-208 78.7643,-206.1432 78.7643,-206.1432"/>
<polygon fill="#000000" stroke="#000000" points="82.2644,-206.1432 78.7643,-196.1432 75.2644,-206.1432 82.2644,-206.1432"/>
</g>
<!-- /Users/mmoscato/nasa/pvslib/pvslib&#45;gitlab__pvs7.0/matrices&#45;&gt;/Users/mmoscato/nasa/pvslib/pvslib&#45;gitlab__pvs7.0/structures -->
<g id="edge19" class="edge">
<title>/Users/mmoscato/nasa/pvslib/pvslib&#45;gitlab__pvs7.0/matrices&#45;&gt;/Users/mmoscato/nasa/pvslib/pvslib&#45;gitlab__pvs7.0/structures</title>
<path fill="none" stroke="#000000" d="M217.9035,-231.7623C217.9035,-193.0139 217.9035,-106 217.9035,-106 217.9035,-106 154.3578,-106 154.3578,-106"/>
<polygon fill="#000000" stroke="#000000" points="154.3579,-102.5001 144.3578,-106 154.3578,-109.5001 154.3579,-102.5001"/>
</g>
<!-- /Users/mmoscato/nasa/pvslib/pvslib&#45;gitlab__pvs7.0/reals&#45;&gt;/Users/mmoscato/nasa/pvslib/pvslib&#45;gitlab__pvs7.0/ints -->
<g id="edge20" class="edge">
<title>/Users/mmoscato/nasa/pvslib/pvslib&#45;gitlab__pvs7.0/reals&#45;&gt;/Users/mmoscato/nasa/pvslib/pvslib&#45;gitlab__pvs7.0/ints</title>
<path fill="none" stroke="#000000" d="M54.8931,-159.9282C54.8931,-123.3519 54.8931,-44 54.8931,-44 54.8931,-44 71.9465,-44 71.9465,-44"/>
<polygon fill="#000000" stroke="#000000" points="71.9466,-47.5001 81.9465,-44 71.9465,-40.5001 71.9466,-47.5001"/>
</g>
<!-- /Users/mmoscato/nasa/pvslib/pvslib&#45;gitlab__pvs7.0/reals&#45;&gt;/Users/mmoscato/nasa/pvslib/pvslib&#45;gitlab__pvs7.0/structures -->
<g id="edge21" class="edge">
<title>/Users/mmoscato/nasa/pvslib/pvslib&#45;gitlab__pvs7.0/reals&#45;&gt;/Users/mmoscato/nasa/pvslib/pvslib&#45;gitlab__pvs7.0/structures</title>
<path fill="none" stroke="#000000" d="M81.8931,-159.8314C81.8931,-159.8314 81.8931,-134.4133 81.8931,-134.4133"/>
<polygon fill="#000000" stroke="#000000" points="85.3932,-134.4132 81.8931,-124.4133 78.3932,-134.4133 85.3932,-134.4132"/>
</g>
<!-- /Users/mmoscato/nasa/pvslib/pvslib&#45;gitlab__pvs7.0/structures&#45;&gt;/Users/mmoscato/nasa/pvslib/pvslib&#45;gitlab__pvs7.0/ints -->
<g id="edge22" class="edge">
<title>/Users/mmoscato/nasa/pvslib/pvslib&#45;gitlab__pvs7.0/structures&#45;&gt;/Users/mmoscato/nasa/pvslib/pvslib&#45;gitlab__pvs7.0/ints</title>
<path fill="none" stroke="#000000" d="M109,-87.8314C109,-87.8314 109,-62.4133 109,-62.4133"/>
<polygon fill="#000000" stroke="#000000" points="112.5001,-62.4132 109,-52.4133 105.5001,-62.4133 112.5001,-62.4132"/>
</g>
</g>
</svg>
