<?xml version="1.0" encoding="UTF-8" standalone="no"?>
<!DOCTYPE svg PUBLIC "-//W3C//DTD SVG 1.1//EN"
 "http://www.w3.org/Graphics/SVG/1.1/DTD/svg11.dtd">
<!-- Generated by graphviz version 2.40.1 (20161225.0304)
 -->
<!-- Title: Tarski Pages: 1 -->
<svg width="374pt" height="530pt"
 viewBox="0.00 0.00 374.00 530.00" xmlns="http://www.w3.org/2000/svg" xmlns:xlink="http://www.w3.org/1999/xlink">
<g id="graph0" class="graph" transform="scale(1 1) rotate(0) translate(4 526)">
<title>Tarski</title>
<polygon fill="#ffffff" stroke="transparent" points="-4,4 -4,-526 370,-526 370,4 -4,4"/>
<g id="clust1" class="cluster">
<title>cluster_NASALib</title>
<polygon fill="none" stroke="#000000" points="8,-8 8,-514 358,-514 358,-8 8,-8"/>
<text text-anchor="middle" x="183" y="-498.8" font-family="Times,serif" font-size="14.00" fill="#000000">NASALib</text>
</g>
<!-- /Users/mmoscato/nasa/pvslib/pvslib&#45;gitlab__pvs7.0/Sturm -->
<g id="node1" class="node">
<title>/Users/mmoscato/nasa/pvslib/pvslib&#45;gitlab__pvs7.0/Sturm</title>
<polygon fill="#fcfcd7" stroke="#000000" points="110,-340 56,-340 56,-304 110,-304 110,-340"/>
<text text-anchor="middle" x="83" y="-317.8" font-family="Times,serif" font-size="14.00" fill="#000000">Sturm</text>
</g>
<!-- /Users/mmoscato/nasa/pvslib/pvslib&#45;gitlab__pvs7.0/interval_arith -->
<g id="node4" class="node">
<title>/Users/mmoscato/nasa/pvslib/pvslib&#45;gitlab__pvs7.0/interval_arith</title>
<polygon fill="#fcfcd7" stroke="#000000" points="167.915,-268 76.085,-268 76.085,-232 167.915,-232 167.915,-268"/>
<text text-anchor="middle" x="122" y="-245.8" font-family="Times,serif" font-size="14.00" fill="#000000">interval_arith</text>
</g>
<!-- /Users/mmoscato/nasa/pvslib/pvslib&#45;gitlab__pvs7.0/Sturm&#45;&gt;/Users/mmoscato/nasa/pvslib/pvslib&#45;gitlab__pvs7.0/interval_arith -->
<g id="edge1" class="edge">
<title>/Users/mmoscato/nasa/pvslib/pvslib&#45;gitlab__pvs7.0/Sturm&#45;&gt;/Users/mmoscato/nasa/pvslib/pvslib&#45;gitlab__pvs7.0/interval_arith</title>
<path fill="none" stroke="#000000" d="M93.1465,-303.8314C93.1465,-303.8314 93.1465,-278.4133 93.1465,-278.4133"/>
<polygon fill="#000000" stroke="#000000" points="96.6466,-278.4132 93.1465,-268.4133 89.6466,-278.4133 96.6466,-278.4132"/>
</g>
<!-- /Users/mmoscato/nasa/pvslib/pvslib&#45;gitlab__pvs7.0/ints -->
<g id="node5" class="node">
<title>/Users/mmoscato/nasa/pvslib/pvslib&#45;gitlab__pvs7.0/ints</title>
<polygon fill="#fcfcd7" stroke="#000000" points="214,-52 160,-52 160,-16 214,-16 214,-52"/>
<text text-anchor="middle" x="187" y="-29.8" font-family="Times,serif" font-size="14.00" fill="#000000">ints</text>
</g>
<!-- /Users/mmoscato/nasa/pvslib/pvslib&#45;gitlab__pvs7.0/Sturm&#45;&gt;/Users/mmoscato/nasa/pvslib/pvslib&#45;gitlab__pvs7.0/ints -->
<g id="edge2" class="edge">
<title>/Users/mmoscato/nasa/pvslib/pvslib&#45;gitlab__pvs7.0/Sturm&#45;&gt;/Users/mmoscato/nasa/pvslib/pvslib&#45;gitlab__pvs7.0/ints</title>
<path fill="none" stroke="#000000" d="M62.7643,-303.609C62.7643,-239.2452 62.7643,-28 62.7643,-28 62.7643,-28 149.736,-28 149.736,-28"/>
<polygon fill="#000000" stroke="#000000" points="149.736,-31.5001 159.736,-28 149.7359,-24.5001 149.736,-31.5001"/>
</g>
<!-- /Users/mmoscato/nasa/pvslib/pvslib&#45;gitlab__pvs7.0/reals -->
<g id="node8" class="node">
<title>/Users/mmoscato/nasa/pvslib/pvslib&#45;gitlab__pvs7.0/reals</title>
<polygon fill="#fcfcd7" stroke="#000000" points="214,-196 160,-196 160,-160 214,-160 214,-196"/>
<text text-anchor="middle" x="187" y="-173.8" font-family="Times,serif" font-size="14.00" fill="#000000">reals</text>
</g>
<!-- /Users/mmoscato/nasa/pvslib/pvslib&#45;gitlab__pvs7.0/Sturm&#45;&gt;/Users/mmoscato/nasa/pvslib/pvslib&#45;gitlab__pvs7.0/reals -->
<g id="edge3" class="edge">
<title>/Users/mmoscato/nasa/pvslib/pvslib&#45;gitlab__pvs7.0/Sturm&#45;&gt;/Users/mmoscato/nasa/pvslib/pvslib&#45;gitlab__pvs7.0/reals</title>
<path fill="none" stroke="#000000" d="M110.2056,-316C139.1044,-316 180.6667,-316 180.6667,-316 180.6667,-316 180.6667,-206.0411 180.6667,-206.0411"/>
<polygon fill="#000000" stroke="#000000" points="184.1668,-206.0411 180.6667,-196.0411 177.1668,-206.0411 184.1668,-206.0411"/>
</g>
<!-- /Users/mmoscato/nasa/pvslib/pvslib&#45;gitlab__pvs7.0/structures -->
<g id="node9" class="node">
<title>/Users/mmoscato/nasa/pvslib/pvslib&#45;gitlab__pvs7.0/structures</title>
<polygon fill="#fcfcd7" stroke="#000000" points="222.429,-124 151.571,-124 151.571,-88 222.429,-88 222.429,-124"/>
<text text-anchor="middle" x="187" y="-101.8" font-family="Times,serif" font-size="14.00" fill="#000000">structures</text>
</g>
<!-- /Users/mmoscato/nasa/pvslib/pvslib&#45;gitlab__pvs7.0/Sturm&#45;&gt;/Users/mmoscato/nasa/pvslib/pvslib&#45;gitlab__pvs7.0/structures -->
<g id="edge4" class="edge">
<title>/Users/mmoscato/nasa/pvslib/pvslib&#45;gitlab__pvs7.0/Sturm&#45;&gt;/Users/mmoscato/nasa/pvslib/pvslib&#45;gitlab__pvs7.0/structures</title>
<path fill="none" stroke="#000000" d="M69.5286,-303.9555C69.5286,-252.0421 69.5286,-106 69.5286,-106 69.5286,-106 141.7547,-106 141.7547,-106"/>
<polygon fill="#000000" stroke="#000000" points="141.7548,-109.5001 151.7547,-106 141.7547,-102.5001 141.7548,-109.5001"/>
</g>
<!-- /Users/mmoscato/nasa/pvslib/pvslib&#45;gitlab__pvs7.0/Tarski -->
<g id="node2" class="node">
<title>/Users/mmoscato/nasa/pvslib/pvslib&#45;gitlab__pvs7.0/Tarski</title>
<polygon fill="#f7e28d" stroke="#000000" points="228,-412 174,-412 174,-376 228,-376 228,-412"/>
<text text-anchor="middle" x="201" y="-389.8" font-family="Times,serif" font-size="14.00" fill="#000000">Tarski</text>
</g>
<!-- /Users/mmoscato/nasa/pvslib/pvslib&#45;gitlab__pvs7.0/Tarski&#45;&gt;/Users/mmoscato/nasa/pvslib/pvslib&#45;gitlab__pvs7.0/Sturm -->
<g id="edge5" class="edge">
<title>/Users/mmoscato/nasa/pvslib/pvslib&#45;gitlab__pvs7.0/Tarski&#45;&gt;/Users/mmoscato/nasa/pvslib/pvslib&#45;gitlab__pvs7.0/Sturm</title>
<path fill="none" stroke="#000000" d="M187.3333,-375.9652C187.3333,-356.4238 187.3333,-328 187.3333,-328 187.3333,-328 120.14,-328 120.14,-328"/>
<polygon fill="#000000" stroke="#000000" points="120.14,-324.5001 110.14,-328 120.14,-331.5001 120.14,-324.5001"/>
</g>
<!-- /Users/mmoscato/nasa/pvslib/pvslib&#45;gitlab__pvs7.0/Tarski&#45;&gt;/Users/mmoscato/nasa/pvslib/pvslib&#45;gitlab__pvs7.0/interval_arith -->
<g id="edge6" class="edge">
<title>/Users/mmoscato/nasa/pvslib/pvslib&#45;gitlab__pvs7.0/Tarski&#45;&gt;/Users/mmoscato/nasa/pvslib/pvslib&#45;gitlab__pvs7.0/interval_arith</title>
<path fill="none" stroke="#000000" d="M194,-375.9282C194,-339.3519 194,-260 194,-260 194,-260 178.0063,-260 178.0063,-260"/>
<polygon fill="#000000" stroke="#000000" points="178.0064,-256.5001 168.0063,-260 178.0063,-263.5001 178.0064,-256.5001"/>
</g>
<!-- /Users/mmoscato/nasa/pvslib/pvslib&#45;gitlab__pvs7.0/Tarski&#45;&gt;/Users/mmoscato/nasa/pvslib/pvslib&#45;gitlab__pvs7.0/ints -->
<g id="edge7" class="edge">
<title>/Users/mmoscato/nasa/pvslib/pvslib&#45;gitlab__pvs7.0/Tarski&#45;&gt;/Users/mmoscato/nasa/pvslib/pvslib&#45;gitlab__pvs7.0/ints</title>
<path fill="none" stroke="#000000" d="M228.0898,-394C263.6792,-394 321.7104,-394 321.7104,-394 321.7104,-394 321.7104,-30 321.7104,-30 321.7104,-30 224.2607,-30 224.2607,-30"/>
<polygon fill="#000000" stroke="#000000" points="224.2607,-26.5001 214.2607,-30 224.2606,-33.5001 224.2607,-26.5001"/>
</g>
<!-- /Users/mmoscato/nasa/pvslib/pvslib&#45;gitlab__pvs7.0/matrices -->
<g id="node6" class="node">
<title>/Users/mmoscato/nasa/pvslib/pvslib&#45;gitlab__pvs7.0/matrices</title>
<polygon fill="#fcfcd7" stroke="#000000" points="309.9223,-268 246.0777,-268 246.0777,-232 309.9223,-232 309.9223,-268"/>
<text text-anchor="middle" x="278" y="-245.8" font-family="Times,serif" font-size="14.00" fill="#000000">matrices</text>
</g>
<!-- /Users/mmoscato/nasa/pvslib/pvslib&#45;gitlab__pvs7.0/Tarski&#45;&gt;/Users/mmoscato/nasa/pvslib/pvslib&#45;gitlab__pvs7.0/matrices -->
<g id="edge8" class="edge">
<title>/Users/mmoscato/nasa/pvslib/pvslib&#45;gitlab__pvs7.0/Tarski&#45;&gt;/Users/mmoscato/nasa/pvslib/pvslib&#45;gitlab__pvs7.0/matrices</title>
<path fill="none" stroke="#000000" d="M220.5711,-375.8554C220.5711,-337.7735 220.5711,-253 220.5711,-253 220.5711,-253 236.2621,-253 236.2621,-253"/>
<polygon fill="#000000" stroke="#000000" points="236.2621,-256.5001 246.2621,-253 236.262,-249.5001 236.2621,-256.5001"/>
</g>
<!-- /Users/mmoscato/nasa/pvslib/pvslib&#45;gitlab__pvs7.0/orders -->
<g id="node7" class="node">
<title>/Users/mmoscato/nasa/pvslib/pvslib&#45;gitlab__pvs7.0/orders</title>
<polygon fill="#fcfcd7" stroke="#000000" points="296,-196 242,-196 242,-160 296,-160 296,-196"/>
<text text-anchor="middle" x="269" y="-173.8" font-family="Times,serif" font-size="14.00" fill="#000000">orders</text>
</g>
<!-- /Users/mmoscato/nasa/pvslib/pvslib&#45;gitlab__pvs7.0/Tarski&#45;&gt;/Users/mmoscato/nasa/pvslib/pvslib&#45;gitlab__pvs7.0/orders -->
<g id="edge9" class="edge">
<title>/Users/mmoscato/nasa/pvslib/pvslib&#45;gitlab__pvs7.0/Tarski&#45;&gt;/Users/mmoscato/nasa/pvslib/pvslib&#45;gitlab__pvs7.0/orders</title>
<path fill="none" stroke="#000000" d="M217.2855,-375.9555C217.2855,-324.0421 217.2855,-178 217.2855,-178 217.2855,-178 231.9311,-178 231.9311,-178"/>
<polygon fill="#000000" stroke="#000000" points="231.9311,-181.5001 241.9311,-178 231.9311,-174.5001 231.9311,-181.5001"/>
</g>
<!-- /Users/mmoscato/nasa/pvslib/pvslib&#45;gitlab__pvs7.0/Tarski&#45;&gt;/Users/mmoscato/nasa/pvslib/pvslib&#45;gitlab__pvs7.0/reals -->
<g id="edge10" class="edge">
<title>/Users/mmoscato/nasa/pvslib/pvslib&#45;gitlab__pvs7.0/Tarski&#45;&gt;/Users/mmoscato/nasa/pvslib/pvslib&#45;gitlab__pvs7.0/reals</title>
<path fill="none" stroke="#000000" d="M200.6667,-375.9555C200.6667,-375.9555 200.6667,-206.1451 200.6667,-206.1451"/>
<polygon fill="#000000" stroke="#000000" points="204.1668,-206.145 200.6667,-196.1451 197.1668,-206.1451 204.1668,-206.145"/>
</g>
<!-- /Users/mmoscato/nasa/pvslib/pvslib&#45;gitlab__pvs7.0/Tarski&#45;&gt;/Users/mmoscato/nasa/pvslib/pvslib&#45;gitlab__pvs7.0/structures -->
<g id="edge11" class="edge">
<title>/Users/mmoscato/nasa/pvslib/pvslib&#45;gitlab__pvs7.0/Tarski&#45;&gt;/Users/mmoscato/nasa/pvslib/pvslib&#45;gitlab__pvs7.0/structures</title>
<path fill="none" stroke="#000000" d="M215.6428,-375.9843C215.6428,-375.9843 215.6428,-134.0089 215.6428,-134.0089"/>
<polygon fill="#000000" stroke="#000000" points="219.1429,-134.0088 215.6428,-124.0089 212.1429,-134.0089 219.1429,-134.0088"/>
</g>
<!-- /Users/mmoscato/nasa/pvslib/pvslib&#45;gitlab__pvs7.0/examples -->
<g id="node3" class="node">
<title>/Users/mmoscato/nasa/pvslib/pvslib&#45;gitlab__pvs7.0/examples</title>
<polygon fill="#fcfcd7" stroke="#000000" points="235.3693,-484 166.6307,-484 166.6307,-448 235.3693,-448 235.3693,-484"/>
<text text-anchor="middle" x="201" y="-461.8" font-family="Times,serif" font-size="14.00" fill="#000000">examples</text>
</g>
<!-- /Users/mmoscato/nasa/pvslib/pvslib&#45;gitlab__pvs7.0/examples&#45;&gt;/Users/mmoscato/nasa/pvslib/pvslib&#45;gitlab__pvs7.0/Sturm -->
<g id="edge12" class="edge">
<title>/Users/mmoscato/nasa/pvslib/pvslib&#45;gitlab__pvs7.0/examples&#45;&gt;/Users/mmoscato/nasa/pvslib/pvslib&#45;gitlab__pvs7.0/Sturm</title>
<path fill="none" stroke="#000000" d="M166.5523,-460C131.723,-460 83,-460 83,-460 83,-460 83,-350.0411 83,-350.0411"/>
<polygon fill="#000000" stroke="#000000" points="86.5001,-350.0411 83,-340.0411 79.5001,-350.0411 86.5001,-350.0411"/>
</g>
<!-- /Users/mmoscato/nasa/pvslib/pvslib&#45;gitlab__pvs7.0/examples&#45;&gt;/Users/mmoscato/nasa/pvslib/pvslib&#45;gitlab__pvs7.0/Tarski -->
<g id="edge13" class="edge">
<title>/Users/mmoscato/nasa/pvslib/pvslib&#45;gitlab__pvs7.0/examples&#45;&gt;/Users/mmoscato/nasa/pvslib/pvslib&#45;gitlab__pvs7.0/Tarski</title>
<path fill="none" stroke="#000000" d="M201,-447.8314C201,-447.8314 201,-422.4133 201,-422.4133"/>
<polygon fill="#000000" stroke="#000000" points="204.5001,-422.4132 201,-412.4133 197.5001,-422.4133 204.5001,-422.4132"/>
</g>
<!-- /Users/mmoscato/nasa/pvslib/pvslib&#45;gitlab__pvs7.0/examples&#45;&gt;/Users/mmoscato/nasa/pvslib/pvslib&#45;gitlab__pvs7.0/interval_arith -->
<g id="edge14" class="edge">
<title>/Users/mmoscato/nasa/pvslib/pvslib&#45;gitlab__pvs7.0/examples&#45;&gt;/Users/mmoscato/nasa/pvslib/pvslib&#45;gitlab__pvs7.0/interval_arith</title>
<path fill="none" stroke="#000000" d="M166.3395,-472C151.8346,-472 138.2827,-472 138.2827,-472 138.2827,-472 138.2827,-278.1672 138.2827,-278.1672"/>
<polygon fill="#000000" stroke="#000000" points="141.7828,-278.1672 138.2827,-268.1672 134.7828,-278.1672 141.7828,-278.1672"/>
</g>
<!-- /Users/mmoscato/nasa/pvslib/pvslib&#45;gitlab__pvs7.0/examples&#45;&gt;/Users/mmoscato/nasa/pvslib/pvslib&#45;gitlab__pvs7.0/ints -->
<g id="edge15" class="edge">
<title>/Users/mmoscato/nasa/pvslib/pvslib&#45;gitlab__pvs7.0/examples&#45;&gt;/Users/mmoscato/nasa/pvslib/pvslib&#45;gitlab__pvs7.0/ints</title>
<path fill="none" stroke="#000000" d="M235.5217,-472C274.8432,-472 333.7104,-472 333.7104,-472 333.7104,-472 333.7104,-23 333.7104,-23 333.7104,-23 224.2513,-23 224.2513,-23"/>
<polygon fill="#000000" stroke="#000000" points="224.2513,-19.5001 214.2513,-23 224.2512,-26.5001 224.2513,-19.5001"/>
</g>
<!-- /Users/mmoscato/nasa/pvslib/pvslib&#45;gitlab__pvs7.0/examples&#45;&gt;/Users/mmoscato/nasa/pvslib/pvslib&#45;gitlab__pvs7.0/matrices -->
<g id="edge16" class="edge">
<title>/Users/mmoscato/nasa/pvslib/pvslib&#45;gitlab__pvs7.0/examples&#45;&gt;/Users/mmoscato/nasa/pvslib/pvslib&#45;gitlab__pvs7.0/matrices</title>
<path fill="none" stroke="#000000" d="M235.4461,-460C255.9478,-460 278,-460 278,-460 278,-460 278,-278.2688 278,-278.2688"/>
<polygon fill="#000000" stroke="#000000" points="281.5001,-278.2687 278,-268.2688 274.5001,-278.2688 281.5001,-278.2687"/>
</g>
<!-- /Users/mmoscato/nasa/pvslib/pvslib&#45;gitlab__pvs7.0/examples&#45;&gt;/Users/mmoscato/nasa/pvslib/pvslib&#45;gitlab__pvs7.0/orders -->
<g id="edge17" class="edge">
<title>/Users/mmoscato/nasa/pvslib/pvslib&#45;gitlab__pvs7.0/examples&#45;&gt;/Users/mmoscato/nasa/pvslib/pvslib&#45;gitlab__pvs7.0/orders</title>
<path fill="none" stroke="#000000" d="M232.4607,-447.911C232.4607,-391.1004 232.4607,-220 232.4607,-220 232.4607,-220 271.1448,-220 271.1448,-220 271.1448,-220 271.1448,-206.0555 271.1448,-206.0555"/>
<polygon fill="#000000" stroke="#000000" points="274.6449,-206.0555 271.1448,-196.0555 267.6449,-206.0556 274.6449,-206.0555"/>
</g>
<!-- /Users/mmoscato/nasa/pvslib/pvslib&#45;gitlab__pvs7.0/examples&#45;&gt;/Users/mmoscato/nasa/pvslib/pvslib&#45;gitlab__pvs7.0/reals -->
<g id="edge18" class="edge">
<title>/Users/mmoscato/nasa/pvslib/pvslib&#45;gitlab__pvs7.0/examples&#45;&gt;/Users/mmoscato/nasa/pvslib/pvslib&#45;gitlab__pvs7.0/reals</title>
<path fill="none" stroke="#000000" d="M229.4869,-447.694C229.4869,-385.624 229.4869,-187 229.4869,-187 229.4869,-187 224.1482,-187 224.1482,-187"/>
<polygon fill="#000000" stroke="#000000" points="224.1482,-183.5001 214.1482,-187 224.1481,-190.5001 224.1482,-183.5001"/>
</g>
<!-- /Users/mmoscato/nasa/pvslib/pvslib&#45;gitlab__pvs7.0/examples&#45;&gt;/Users/mmoscato/nasa/pvslib/pvslib&#45;gitlab__pvs7.0/structures -->
<g id="edge19" class="edge">
<title>/Users/mmoscato/nasa/pvslib/pvslib&#45;gitlab__pvs7.0/examples&#45;&gt;/Users/mmoscato/nasa/pvslib/pvslib&#45;gitlab__pvs7.0/structures</title>
<path fill="none" stroke="#000000" d="M230.9738,-447.6526C230.9738,-374.2916 230.9738,-106 230.9738,-106 230.9738,-106 230.126,-106 230.126,-106"/>
<polygon fill="#000000" stroke="#000000" points="232.4953,-102.5001 222.4952,-106 232.4952,-109.5001 232.4953,-102.5001"/>
</g>
<!-- /Users/mmoscato/nasa/pvslib/pvslib&#45;gitlab__pvs7.0/interval_arith&#45;&gt;/Users/mmoscato/nasa/pvslib/pvslib&#45;gitlab__pvs7.0/ints -->
<g id="edge20" class="edge">
<title>/Users/mmoscato/nasa/pvslib/pvslib&#45;gitlab__pvs7.0/interval_arith&#45;&gt;/Users/mmoscato/nasa/pvslib/pvslib&#45;gitlab__pvs7.0/ints</title>
<path fill="none" stroke="#000000" d="M114.0396,-231.7312C114.0396,-180.6395 114.0396,-40 114.0396,-40 114.0396,-40 149.8322,-40 149.8322,-40"/>
<polygon fill="#000000" stroke="#000000" points="149.8323,-43.5001 159.8322,-40 149.8322,-36.5001 149.8323,-43.5001"/>
</g>
<!-- /Users/mmoscato/nasa/pvslib/pvslib&#45;gitlab__pvs7.0/interval_arith&#45;&gt;/Users/mmoscato/nasa/pvslib/pvslib&#45;gitlab__pvs7.0/orders -->
<g id="edge21" class="edge">
<title>/Users/mmoscato/nasa/pvslib/pvslib&#45;gitlab__pvs7.0/interval_arith&#45;&gt;/Users/mmoscato/nasa/pvslib/pvslib&#45;gitlab__pvs7.0/orders</title>
<path fill="none" stroke="#000000" d="M165.138,-231.9445C165.138,-220.561 165.138,-208 165.138,-208 165.138,-208 258.7172,-208 258.7172,-208 258.7172,-208 258.7172,-206.1432 258.7172,-206.1432"/>
<polygon fill="#000000" stroke="#000000" points="262.2173,-206.1432 258.7172,-196.1432 255.2173,-206.1432 262.2173,-206.1432"/>
</g>
<!-- /Users/mmoscato/nasa/pvslib/pvslib&#45;gitlab__pvs7.0/interval_arith&#45;&gt;/Users/mmoscato/nasa/pvslib/pvslib&#45;gitlab__pvs7.0/reals -->
<g id="edge22" class="edge">
<title>/Users/mmoscato/nasa/pvslib/pvslib&#45;gitlab__pvs7.0/interval_arith&#45;&gt;/Users/mmoscato/nasa/pvslib/pvslib&#45;gitlab__pvs7.0/reals</title>
<path fill="none" stroke="#000000" d="M162.569,-231.8314C162.569,-231.8314 162.569,-206.4133 162.569,-206.4133"/>
<polygon fill="#000000" stroke="#000000" points="166.0691,-206.4132 162.569,-196.4133 159.0691,-206.4133 166.0691,-206.4132"/>
</g>
<!-- /Users/mmoscato/nasa/pvslib/pvslib&#45;gitlab__pvs7.0/interval_arith&#45;&gt;/Users/mmoscato/nasa/pvslib/pvslib&#45;gitlab__pvs7.0/structures -->
<g id="edge23" class="edge">
<title>/Users/mmoscato/nasa/pvslib/pvslib&#45;gitlab__pvs7.0/interval_arith&#45;&gt;/Users/mmoscato/nasa/pvslib/pvslib&#45;gitlab__pvs7.0/structures</title>
<path fill="none" stroke="#000000" d="M155.8931,-231.7623C155.8931,-231.7623 155.8931,-134.0896 155.8931,-134.0896"/>
<polygon fill="#000000" stroke="#000000" points="159.3932,-134.0896 155.8931,-124.0896 152.3932,-134.0897 159.3932,-134.0896"/>
</g>
<!-- /Users/mmoscato/nasa/pvslib/pvslib&#45;gitlab__pvs7.0/matrices&#45;&gt;/Users/mmoscato/nasa/pvslib/pvslib&#45;gitlab__pvs7.0/ints -->
<g id="edge24" class="edge">
<title>/Users/mmoscato/nasa/pvslib/pvslib&#45;gitlab__pvs7.0/matrices&#45;&gt;/Users/mmoscato/nasa/pvslib/pvslib&#45;gitlab__pvs7.0/ints</title>
<path fill="none" stroke="#000000" d="M302.8552,-231.8397C302.8552,-180.3304 302.8552,-37 302.8552,-37 302.8552,-37 224.1629,-37 224.1629,-37"/>
<polygon fill="#000000" stroke="#000000" points="224.1629,-33.5001 214.1629,-37 224.1629,-40.5001 224.1629,-33.5001"/>
</g>
<!-- /Users/mmoscato/nasa/pvslib/pvslib&#45;gitlab__pvs7.0/matrices&#45;&gt;/Users/mmoscato/nasa/pvslib/pvslib&#45;gitlab__pvs7.0/orders -->
<g id="edge25" class="edge">
<title>/Users/mmoscato/nasa/pvslib/pvslib&#45;gitlab__pvs7.0/matrices&#45;&gt;/Users/mmoscato/nasa/pvslib/pvslib&#45;gitlab__pvs7.0/orders</title>
<path fill="none" stroke="#000000" d="M283.5724,-231.8314C283.5724,-231.8314 283.5724,-206.4133 283.5724,-206.4133"/>
<polygon fill="#000000" stroke="#000000" points="287.0725,-206.4132 283.5724,-196.4133 280.0725,-206.4133 287.0725,-206.4132"/>
</g>
<!-- /Users/mmoscato/nasa/pvslib/pvslib&#45;gitlab__pvs7.0/matrices&#45;&gt;/Users/mmoscato/nasa/pvslib/pvslib&#45;gitlab__pvs7.0/reals -->
<g id="edge26" class="edge">
<title>/Users/mmoscato/nasa/pvslib/pvslib&#45;gitlab__pvs7.0/matrices&#45;&gt;/Users/mmoscato/nasa/pvslib/pvslib&#45;gitlab__pvs7.0/reals</title>
<path fill="none" stroke="#000000" d="M245.9749,-246C227.2773,-246 207.3333,-246 207.3333,-246 207.3333,-246 207.3333,-206.2228 207.3333,-206.2228"/>
<polygon fill="#000000" stroke="#000000" points="210.8334,-206.2227 207.3333,-196.2228 203.8334,-206.2228 210.8334,-206.2227"/>
</g>
<!-- /Users/mmoscato/nasa/pvslib/pvslib&#45;gitlab__pvs7.0/matrices&#45;&gt;/Users/mmoscato/nasa/pvslib/pvslib&#45;gitlab__pvs7.0/structures -->
<g id="edge27" class="edge">
<title>/Users/mmoscato/nasa/pvslib/pvslib&#45;gitlab__pvs7.0/matrices&#45;&gt;/Users/mmoscato/nasa/pvslib/pvslib&#45;gitlab__pvs7.0/structures</title>
<path fill="none" stroke="#000000" d="M246.0437,-239C232.1252,-239 218.9283,-239 218.9283,-239 218.9283,-239 218.9283,-134.2142 218.9283,-134.2142"/>
<polygon fill="#000000" stroke="#000000" points="222.4284,-134.2142 218.9283,-124.2142 215.4284,-134.2142 222.4284,-134.2142"/>
</g>
<!-- /Users/mmoscato/nasa/pvslib/pvslib&#45;gitlab__pvs7.0/reals&#45;&gt;/Users/mmoscato/nasa/pvslib/pvslib&#45;gitlab__pvs7.0/ints -->
<g id="edge28" class="edge">
<title>/Users/mmoscato/nasa/pvslib/pvslib&#45;gitlab__pvs7.0/reals&#45;&gt;/Users/mmoscato/nasa/pvslib/pvslib&#45;gitlab__pvs7.0/ints</title>
<path fill="none" stroke="#000000" d="M214.0376,-169C224.4737,-169 233.9477,-169 233.9477,-169 233.9477,-169 233.9477,-44 233.9477,-44 233.9477,-44 224.0376,-44 224.0376,-44"/>
<polygon fill="#000000" stroke="#000000" points="224.0377,-40.5001 214.0376,-44 224.0376,-47.5001 224.0377,-40.5001"/>
</g>
<!-- /Users/mmoscato/nasa/pvslib/pvslib&#45;gitlab__pvs7.0/reals&#45;&gt;/Users/mmoscato/nasa/pvslib/pvslib&#45;gitlab__pvs7.0/structures -->
<g id="edge29" class="edge">
<title>/Users/mmoscato/nasa/pvslib/pvslib&#45;gitlab__pvs7.0/reals&#45;&gt;/Users/mmoscato/nasa/pvslib/pvslib&#45;gitlab__pvs7.0/structures</title>
<path fill="none" stroke="#000000" d="M187,-159.8314C187,-159.8314 187,-134.4133 187,-134.4133"/>
<polygon fill="#000000" stroke="#000000" points="190.5001,-134.4132 187,-124.4133 183.5001,-134.4133 190.5001,-134.4132"/>
</g>
<!-- /Users/mmoscato/nasa/pvslib/pvslib&#45;gitlab__pvs7.0/structures&#45;&gt;/Users/mmoscato/nasa/pvslib/pvslib&#45;gitlab__pvs7.0/ints -->
<g id="edge30" class="edge">
<title>/Users/mmoscato/nasa/pvslib/pvslib&#45;gitlab__pvs7.0/structures&#45;&gt;/Users/mmoscato/nasa/pvslib/pvslib&#45;gitlab__pvs7.0/ints</title>
<path fill="none" stroke="#000000" d="M187,-87.8314C187,-87.8314 187,-62.4133 187,-62.4133"/>
<polygon fill="#000000" stroke="#000000" points="190.5001,-62.4132 187,-52.4133 183.5001,-62.4133 190.5001,-62.4132"/>
</g>
</g>
</svg>
