<?xml version="1.0" encoding="UTF-8" standalone="no"?>
<!DOCTYPE svg PUBLIC "-//W3C//DTD SVG 1.1//EN"
 "http://www.w3.org/Graphics/SVG/1.1/DTD/svg11.dtd">
<!-- Generated by graphviz version 2.40.1 (20161225.0304)
 -->
<!-- Title: extended_nnreal Pages: 1 -->
<svg width="352pt" height="388pt"
 viewBox="0.00 0.00 352.00 388.00" xmlns="http://www.w3.org/2000/svg" xmlns:xlink="http://www.w3.org/1999/xlink">
<g id="graph0" class="graph" transform="scale(1 1) rotate(0) translate(4 384)">
<title>extended_nnreal</title>
<polygon fill="#ffffff" stroke="transparent" points="-4,4 -4,-384 348,-384 348,4 -4,4"/>
<g id="clust1" class="cluster">
<title>cluster_NASALib</title>
<polygon fill="none" stroke="#000000" points="8,-8 8,-372 240,-372 240,-8 8,-8"/>
<text text-anchor="middle" x="124" y="-356.8" font-family="Times,serif" font-size="14.00" fill="#000000">NASALib</text>
</g>
<g id="clust2" class="cluster">
<title>cluster_PVS Prelude</title>
<polygon fill="none" stroke="#000000" points="248,-8 248,-82 336,-82 336,-8 248,-8"/>
<text text-anchor="middle" x="292" y="-66.8" font-family="Times,serif" font-size="14.00" fill="#000000">PVS Prelude</text>
</g>
<!-- /Users/mmoscato/nasa/pvslib/pvslib&#45;gitlab__pvs7.0/analysis -->
<g id="node1" class="node">
<title>/Users/mmoscato/nasa/pvslib/pvslib&#45;gitlab__pvs7.0/analysis</title>
<polygon fill="#fcfcd7" stroke="#000000" points="163.6036,-126 102.3964,-126 102.3964,-90 163.6036,-90 163.6036,-126"/>
<text text-anchor="middle" x="133" y="-103.8" font-family="Times,serif" font-size="14.00" fill="#000000">analysis</text>
</g>
<!-- /Users/mmoscato/nasa/pvslib/pvslib&#45;gitlab__pvs7.0/orders -->
<g id="node3" class="node">
<title>/Users/mmoscato/nasa/pvslib/pvslib&#45;gitlab__pvs7.0/orders</title>
<polygon fill="#fcfcd7" stroke="#000000" points="151,-52 97,-52 97,-16 151,-16 151,-52"/>
<text text-anchor="middle" x="124" y="-29.8" font-family="Times,serif" font-size="14.00" fill="#000000">orders</text>
</g>
<!-- /Users/mmoscato/nasa/pvslib/pvslib&#45;gitlab__pvs7.0/analysis&#45;&gt;/Users/mmoscato/nasa/pvslib/pvslib&#45;gitlab__pvs7.0/orders -->
<g id="edge1" class="edge">
<title>/Users/mmoscato/nasa/pvslib/pvslib&#45;gitlab__pvs7.0/analysis&#45;&gt;/Users/mmoscato/nasa/pvslib/pvslib&#45;gitlab__pvs7.0/orders</title>
<path fill="none" stroke="#000000" d="M134.8161,-89.7079C134.8161,-89.7079 134.8161,-62.0817 134.8161,-62.0817"/>
<polygon fill="#000000" stroke="#000000" points="138.3162,-62.0817 134.8161,-52.0817 131.3162,-62.0818 138.3162,-62.0817"/>
</g>
<!-- /Users/mmoscato/nasa/pvslib/pvslib&#45;gitlab__pvs7.0/reals -->
<g id="node4" class="node">
<title>/Users/mmoscato/nasa/pvslib/pvslib&#45;gitlab__pvs7.0/reals</title>
<polygon fill="#fcfcd7" stroke="#000000" points="79,-52 25,-52 25,-16 79,-16 79,-52"/>
<text text-anchor="middle" x="52" y="-29.8" font-family="Times,serif" font-size="14.00" fill="#000000">reals</text>
</g>
<!-- /Users/mmoscato/nasa/pvslib/pvslib&#45;gitlab__pvs7.0/analysis&#45;&gt;/Users/mmoscato/nasa/pvslib/pvslib&#45;gitlab__pvs7.0/reals -->
<g id="edge2" class="edge">
<title>/Users/mmoscato/nasa/pvslib/pvslib&#45;gitlab__pvs7.0/analysis&#45;&gt;/Users/mmoscato/nasa/pvslib/pvslib&#45;gitlab__pvs7.0/reals</title>
<path fill="none" stroke="#000000" d="M102.4309,-99C84.2368,-99 64.6667,-99 64.6667,-99 64.6667,-99 64.6667,-62.1061 64.6667,-62.1061"/>
<polygon fill="#000000" stroke="#000000" points="68.1668,-62.1061 64.6667,-52.1061 61.1668,-62.1062 68.1668,-62.1061"/>
</g>
<!-- /Users/mmoscato/pvs/7.1&#45;0&#45;g3fb4f25&#45;ix86&#45;MacOSX&#45;allegro/lib/finite_sets -->
<g id="node8" class="node">
<title>/Users/mmoscato/pvs/7.1&#45;0&#45;g3fb4f25&#45;ix86&#45;MacOSX&#45;allegro/lib/finite_sets</title>
<polygon fill="#fcfcd7" stroke="#000000" points="328.2796,-52 255.7204,-52 255.7204,-16 328.2796,-16 328.2796,-52"/>
<text text-anchor="middle" x="292" y="-29.8" font-family="Times,serif" font-size="14.00" fill="#000000">finite_sets</text>
</g>
<!-- /Users/mmoscato/nasa/pvslib/pvslib&#45;gitlab__pvs7.0/analysis&#45;&gt;/Users/mmoscato/pvs/7.1&#45;0&#45;g3fb4f25&#45;ix86&#45;MacOSX&#45;allegro/lib/finite_sets -->
<g id="edge3" class="edge">
<title>/Users/mmoscato/nasa/pvslib/pvslib&#45;gitlab__pvs7.0/analysis&#45;&gt;/Users/mmoscato/pvs/7.1&#45;0&#45;g3fb4f25&#45;ix86&#45;MacOSX&#45;allegro/lib/finite_sets</title>
<path fill="none" stroke="#000000" d="M157.2759,-89.8468C157.2759,-66.2434 157.2759,-28 157.2759,-28 157.2759,-28 245.5417,-28 245.5417,-28"/>
<polygon fill="#000000" stroke="#000000" points="245.5417,-31.5001 255.5417,-28 245.5417,-24.5001 245.5417,-31.5001"/>
</g>
<!-- /Users/mmoscato/nasa/pvslib/pvslib&#45;gitlab__pvs7.0/extended_nnreal -->
<g id="node2" class="node">
<title>/Users/mmoscato/nasa/pvslib/pvslib&#45;gitlab__pvs7.0/extended_nnreal</title>
<polygon fill="#f7e28d" stroke="#000000" points="126.0118,-342 17.9882,-342 17.9882,-306 126.0118,-306 126.0118,-342"/>
<text text-anchor="middle" x="72" y="-319.8" font-family="Times,serif" font-size="14.00" fill="#000000">extended_nnreal</text>
</g>
<!-- /Users/mmoscato/nasa/pvslib/pvslib&#45;gitlab__pvs7.0/extended_nnreal&#45;&gt;/Users/mmoscato/nasa/pvslib/pvslib&#45;gitlab__pvs7.0/analysis -->
<g id="edge4" class="edge">
<title>/Users/mmoscato/nasa/pvslib/pvslib&#45;gitlab__pvs7.0/extended_nnreal&#45;&gt;/Users/mmoscato/nasa/pvslib/pvslib&#45;gitlab__pvs7.0/analysis</title>
<path fill="none" stroke="#000000" d="M114.0828,-305.9555C114.0828,-305.9555 114.0828,-136.1451 114.0828,-136.1451"/>
<polygon fill="#000000" stroke="#000000" points="117.5829,-136.145 114.0828,-126.1451 110.5829,-136.1451 117.5829,-136.145"/>
</g>
<!-- /Users/mmoscato/nasa/pvslib/pvslib&#45;gitlab__pvs7.0/extended_nnreal&#45;&gt;/Users/mmoscato/nasa/pvslib/pvslib&#45;gitlab__pvs7.0/orders -->
<g id="edge5" class="edge">
<title>/Users/mmoscato/nasa/pvslib/pvslib&#45;gitlab__pvs7.0/extended_nnreal&#45;&gt;/Users/mmoscato/nasa/pvslib/pvslib&#45;gitlab__pvs7.0/orders</title>
<path fill="none" stroke="#000000" d="M29.4,-305.8049C29.4,-247.7943 29.4,-71 29.4,-71 29.4,-71 118.6322,-71 118.6322,-71 118.6322,-71 118.6322,-62.0664 118.6322,-62.0664"/>
<polygon fill="#000000" stroke="#000000" points="122.1323,-62.0664 118.6322,-52.0664 115.1323,-62.0665 122.1323,-62.0664"/>
</g>
<!-- /Users/mmoscato/nasa/pvslib/pvslib&#45;gitlab__pvs7.0/extended_nnreal&#45;&gt;/Users/mmoscato/nasa/pvslib/pvslib&#45;gitlab__pvs7.0/reals -->
<g id="edge6" class="edge">
<title>/Users/mmoscato/nasa/pvslib/pvslib&#45;gitlab__pvs7.0/extended_nnreal&#45;&gt;/Users/mmoscato/nasa/pvslib/pvslib&#45;gitlab__pvs7.0/reals</title>
<path fill="none" stroke="#000000" d="M27.2,-305.8592C27.2,-305.8592 27.2,-62.1339 27.2,-62.1339"/>
<polygon fill="#000000" stroke="#000000" points="30.7001,-62.1339 27.2,-52.1339 23.7001,-62.134 30.7001,-62.1339"/>
</g>
<!-- /Users/mmoscato/nasa/pvslib/pvslib&#45;gitlab__pvs7.0/series -->
<g id="node5" class="node">
<title>/Users/mmoscato/nasa/pvslib/pvslib&#45;gitlab__pvs7.0/series</title>
<polygon fill="#fcfcd7" stroke="#000000" points="90,-198 36,-198 36,-162 90,-162 90,-198"/>
<text text-anchor="middle" x="63" y="-175.8" font-family="Times,serif" font-size="14.00" fill="#000000">series</text>
</g>
<!-- /Users/mmoscato/nasa/pvslib/pvslib&#45;gitlab__pvs7.0/extended_nnreal&#45;&gt;/Users/mmoscato/nasa/pvslib/pvslib&#45;gitlab__pvs7.0/series -->
<g id="edge7" class="edge">
<title>/Users/mmoscato/nasa/pvslib/pvslib&#45;gitlab__pvs7.0/extended_nnreal&#45;&gt;/Users/mmoscato/nasa/pvslib/pvslib&#45;gitlab__pvs7.0/series</title>
<path fill="none" stroke="#000000" d="M33.8,-305.7623C33.8,-267.0139 33.8,-180 33.8,-180 33.8,-180 33.9916,-180 33.9916,-180"/>
<polygon fill="#000000" stroke="#000000" points="25.7161,-183.5006 35.7159,-180 25.7157,-176.5006 25.7161,-183.5006"/>
</g>
<!-- /Users/mmoscato/nasa/pvslib/pvslib&#45;gitlab__pvs7.0/sets_aux -->
<g id="node6" class="node">
<title>/Users/mmoscato/nasa/pvslib/pvslib&#45;gitlab__pvs7.0/sets_aux</title>
<polygon fill="#fcfcd7" stroke="#000000" points="212.2142,-198 147.7858,-198 147.7858,-162 212.2142,-162 212.2142,-198"/>
<text text-anchor="middle" x="180" y="-175.8" font-family="Times,serif" font-size="14.00" fill="#000000">sets_aux</text>
</g>
<!-- /Users/mmoscato/nasa/pvslib/pvslib&#45;gitlab__pvs7.0/extended_nnreal&#45;&gt;/Users/mmoscato/nasa/pvslib/pvslib&#45;gitlab__pvs7.0/sets_aux -->
<g id="edge8" class="edge">
<title>/Users/mmoscato/nasa/pvslib/pvslib&#45;gitlab__pvs7.0/extended_nnreal&#45;&gt;/Users/mmoscato/nasa/pvslib/pvslib&#45;gitlab__pvs7.0/sets_aux</title>
<path fill="none" stroke="#000000" d="M120.1691,-305.9589C120.1691,-268.5524 120.1691,-186 120.1691,-186 120.1691,-186 137.633,-186 137.633,-186"/>
<polygon fill="#000000" stroke="#000000" points="137.633,-189.5001 147.633,-186 137.633,-182.5001 137.633,-189.5001"/>
</g>
<!-- /Users/mmoscato/nasa/pvslib/pvslib&#45;gitlab__pvs7.0/sigma_set -->
<g id="node7" class="node">
<title>/Users/mmoscato/nasa/pvslib/pvslib&#45;gitlab__pvs7.0/sigma_set</title>
<polygon fill="#fcfcd7" stroke="#000000" points="107.9932,-270 36.0068,-270 36.0068,-234 107.9932,-234 107.9932,-270"/>
<text text-anchor="middle" x="72" y="-247.8" font-family="Times,serif" font-size="14.00" fill="#000000">sigma_set</text>
</g>
<!-- /Users/mmoscato/nasa/pvslib/pvslib&#45;gitlab__pvs7.0/extended_nnreal&#45;&gt;/Users/mmoscato/nasa/pvslib/pvslib&#45;gitlab__pvs7.0/sigma_set -->
<g id="edge9" class="edge">
<title>/Users/mmoscato/nasa/pvslib/pvslib&#45;gitlab__pvs7.0/extended_nnreal&#45;&gt;/Users/mmoscato/nasa/pvslib/pvslib&#45;gitlab__pvs7.0/sigma_set</title>
<path fill="none" stroke="#000000" d="M72,-305.8314C72,-305.8314 72,-280.4133 72,-280.4133"/>
<polygon fill="#000000" stroke="#000000" points="75.5001,-280.4132 72,-270.4133 68.5001,-280.4133 75.5001,-280.4132"/>
</g>
<!-- /Users/mmoscato/nasa/pvslib/pvslib&#45;gitlab__pvs7.0/extended_nnreal&#45;&gt;/Users/mmoscato/pvs/7.1&#45;0&#45;g3fb4f25&#45;ix86&#45;MacOSX&#45;allegro/lib/finite_sets -->
<g id="edge10" class="edge">
<title>/Users/mmoscato/nasa/pvslib/pvslib&#45;gitlab__pvs7.0/extended_nnreal&#45;&gt;/Users/mmoscato/pvs/7.1&#45;0&#45;g3fb4f25&#45;ix86&#45;MacOSX&#45;allegro/lib/finite_sets</title>
<path fill="none" stroke="#000000" d="M126.0501,-324C196.3276,-324 310.1948,-324 310.1948,-324 310.1948,-324 310.1948,-62.1408 310.1948,-62.1408"/>
<polygon fill="#000000" stroke="#000000" points="313.6949,-62.1408 310.1948,-52.1408 306.6949,-62.1408 313.6949,-62.1408"/>
</g>
<!-- /Users/mmoscato/nasa/pvslib/pvslib&#45;gitlab__pvs7.0/series&#45;&gt;/Users/mmoscato/nasa/pvslib/pvslib&#45;gitlab__pvs7.0/analysis -->
<g id="edge11" class="edge">
<title>/Users/mmoscato/nasa/pvslib/pvslib&#45;gitlab__pvs7.0/series&#45;&gt;/Users/mmoscato/nasa/pvslib/pvslib&#45;gitlab__pvs7.0/analysis</title>
<path fill="none" stroke="#000000" d="M87.25,-161.8314C87.25,-140.502 87.25,-108 87.25,-108 87.25,-108 92.2303,-108 92.2303,-108"/>
<polygon fill="#000000" stroke="#000000" points="92.2303,-111.5001 102.2303,-108 92.2302,-104.5001 92.2303,-111.5001"/>
</g>
<!-- /Users/mmoscato/nasa/pvslib/pvslib&#45;gitlab__pvs7.0/series&#45;&gt;/Users/mmoscato/nasa/pvslib/pvslib&#45;gitlab__pvs7.0/orders -->
<g id="edge12" class="edge">
<title>/Users/mmoscato/nasa/pvslib/pvslib&#45;gitlab__pvs7.0/series&#45;&gt;/Users/mmoscato/nasa/pvslib/pvslib&#45;gitlab__pvs7.0/orders</title>
<path fill="none" stroke="#000000" d="M84.5,-161.9667C84.5,-121.7035 84.5,-28 84.5,-28 84.5,-28 86.998,-28 86.998,-28"/>
<polygon fill="#000000" stroke="#000000" points="86.9981,-31.5001 96.998,-28 86.998,-24.5001 86.9981,-31.5001"/>
</g>
<!-- /Users/mmoscato/nasa/pvslib/pvslib&#45;gitlab__pvs7.0/series&#45;&gt;/Users/mmoscato/nasa/pvslib/pvslib&#45;gitlab__pvs7.0/reals -->
<g id="edge13" class="edge">
<title>/Users/mmoscato/nasa/pvslib/pvslib&#45;gitlab__pvs7.0/series&#45;&gt;/Users/mmoscato/nasa/pvslib/pvslib&#45;gitlab__pvs7.0/reals</title>
<path fill="none" stroke="#000000" d="M50.3333,-161.8042C50.3333,-161.8042 50.3333,-62.4251 50.3333,-62.4251"/>
<polygon fill="#000000" stroke="#000000" points="53.8334,-62.4251 50.3333,-52.4251 46.8334,-62.4251 53.8334,-62.4251"/>
</g>
<!-- /Users/mmoscato/nasa/pvslib/pvslib&#45;gitlab__pvs7.0/series&#45;&gt;/Users/mmoscato/pvs/7.1&#45;0&#45;g3fb4f25&#45;ix86&#45;MacOSX&#45;allegro/lib/finite_sets -->
<g id="edge14" class="edge">
<title>/Users/mmoscato/nasa/pvslib/pvslib&#45;gitlab__pvs7.0/series&#45;&gt;/Users/mmoscato/pvs/7.1&#45;0&#45;g3fb4f25&#45;ix86&#45;MacOSX&#45;allegro/lib/finite_sets</title>
<path fill="none" stroke="#000000" d="M81.75,-161.5782C81.75,-152.7209 81.75,-144 81.75,-144 81.75,-144 273.8052,-144 273.8052,-144 273.8052,-144 273.8052,-62.1643 273.8052,-62.1643"/>
<polygon fill="#000000" stroke="#000000" points="277.3053,-62.1642 273.8052,-52.1643 270.3053,-62.1643 277.3053,-62.1642"/>
</g>
<!-- /Users/mmoscato/nasa/pvslib/pvslib&#45;gitlab__pvs7.0/sets_aux&#45;&gt;/Users/mmoscato/nasa/pvslib/pvslib&#45;gitlab__pvs7.0/orders -->
<g id="edge15" class="edge">
<title>/Users/mmoscato/nasa/pvslib/pvslib&#45;gitlab__pvs7.0/sets_aux&#45;&gt;/Users/mmoscato/nasa/pvslib/pvslib&#45;gitlab__pvs7.0/orders</title>
<path fill="none" stroke="#000000" d="M187.8293,-161.9841C187.8293,-124.1723 187.8293,-40 187.8293,-40 187.8293,-40 161.0694,-40 161.0694,-40"/>
<polygon fill="#000000" stroke="#000000" points="161.0694,-36.5001 151.0694,-40 161.0694,-43.5001 161.0694,-36.5001"/>
</g>
<!-- /Users/mmoscato/nasa/pvslib/pvslib&#45;gitlab__pvs7.0/sigma_set&#45;&gt;/Users/mmoscato/nasa/pvslib/pvslib&#45;gitlab__pvs7.0/analysis -->
<g id="edge16" class="edge">
<title>/Users/mmoscato/nasa/pvslib/pvslib&#45;gitlab__pvs7.0/sigma_set&#45;&gt;/Users/mmoscato/nasa/pvslib/pvslib&#45;gitlab__pvs7.0/analysis</title>
<path fill="none" stroke="#000000" d="M93.5,-233.7933C93.5,-196.9441 93.5,-117 93.5,-117 93.5,-117 94.3766,-117 94.3766,-117"/>
<polygon fill="#000000" stroke="#000000" points="92.2664,-120.5001 102.2663,-117 92.2663,-113.5001 92.2664,-120.5001"/>
</g>
<!-- /Users/mmoscato/nasa/pvslib/pvslib&#45;gitlab__pvs7.0/sigma_set&#45;&gt;/Users/mmoscato/nasa/pvslib/pvslib&#45;gitlab__pvs7.0/orders -->
<g id="edge17" class="edge">
<title>/Users/mmoscato/nasa/pvslib/pvslib&#45;gitlab__pvs7.0/sigma_set&#45;&gt;/Users/mmoscato/nasa/pvslib/pvslib&#45;gitlab__pvs7.0/orders</title>
<path fill="none" stroke="#000000" d="M91.75,-233.925C91.75,-182.6575 91.75,-40 91.75,-40 91.75,-40 92.2539,-40 92.2539,-40"/>
<polygon fill="#000000" stroke="#000000" points="86.7891,-43.5002 96.7891,-40 86.789,-36.5002 86.7891,-43.5002"/>
</g>
<!-- /Users/mmoscato/nasa/pvslib/pvslib&#45;gitlab__pvs7.0/sigma_set&#45;&gt;/Users/mmoscato/nasa/pvslib/pvslib&#45;gitlab__pvs7.0/reals -->
<g id="edge18" class="edge">
<title>/Users/mmoscato/nasa/pvslib/pvslib&#45;gitlab__pvs7.0/sigma_set&#45;&gt;/Users/mmoscato/nasa/pvslib/pvslib&#45;gitlab__pvs7.0/reals</title>
<path fill="none" stroke="#000000" d="M35.9235,-252C33.2669,-252 31.6,-252 31.6,-252 31.6,-252 31.6,-62.2116 31.6,-62.2116"/>
<polygon fill="#000000" stroke="#000000" points="35.1001,-62.2116 31.6,-52.2116 28.1001,-62.2116 35.1001,-62.2116"/>
</g>
<!-- /Users/mmoscato/nasa/pvslib/pvslib&#45;gitlab__pvs7.0/sigma_set&#45;&gt;/Users/mmoscato/nasa/pvslib/pvslib&#45;gitlab__pvs7.0/series -->
<g id="edge19" class="edge">
<title>/Users/mmoscato/nasa/pvslib/pvslib&#45;gitlab__pvs7.0/sigma_set&#45;&gt;/Users/mmoscato/nasa/pvslib/pvslib&#45;gitlab__pvs7.0/series</title>
<path fill="none" stroke="#000000" d="M63.0017,-233.8314C63.0017,-233.8314 63.0017,-208.4133 63.0017,-208.4133"/>
<polygon fill="#000000" stroke="#000000" points="66.5018,-208.4132 63.0017,-198.4133 59.5018,-208.4133 66.5018,-208.4132"/>
</g>
<!-- /Users/mmoscato/nasa/pvslib/pvslib&#45;gitlab__pvs7.0/sigma_set&#45;&gt;/Users/mmoscato/nasa/pvslib/pvslib&#45;gitlab__pvs7.0/sets_aux -->
<g id="edge20" class="edge">
<title>/Users/mmoscato/nasa/pvslib/pvslib&#45;gitlab__pvs7.0/sigma_set&#45;&gt;/Users/mmoscato/nasa/pvslib/pvslib&#45;gitlab__pvs7.0/sets_aux</title>
<path fill="none" stroke="#000000" d="M95.25,-233.9092C95.25,-210.8672 95.25,-174 95.25,-174 95.25,-174 137.4758,-174 137.4758,-174"/>
<polygon fill="#000000" stroke="#000000" points="137.4759,-177.5001 147.4758,-174 137.4758,-170.5001 137.4759,-177.5001"/>
</g>
<!-- /Users/mmoscato/nasa/pvslib/pvslib&#45;gitlab__pvs7.0/sigma_set&#45;&gt;/Users/mmoscato/pvs/7.1&#45;0&#45;g3fb4f25&#45;ix86&#45;MacOSX&#45;allegro/lib/finite_sets -->
<g id="edge21" class="edge">
<title>/Users/mmoscato/nasa/pvslib/pvslib&#45;gitlab__pvs7.0/sigma_set&#45;&gt;/Users/mmoscato/pvs/7.1&#45;0&#45;g3fb4f25&#45;ix86&#45;MacOSX&#45;allegro/lib/finite_sets</title>
<path fill="none" stroke="#000000" d="M108.3285,-252C170.8147,-252 292,-252 292,-252 292,-252 292,-62.2116 292,-62.2116"/>
<polygon fill="#000000" stroke="#000000" points="295.5001,-62.2116 292,-52.2116 288.5001,-62.2116 295.5001,-62.2116"/>
</g>
</g>
</svg>
