<?xml version="1.0" encoding="UTF-8" standalone="no"?>
<!DOCTYPE svg PUBLIC "-//W3C//DTD SVG 1.1//EN"
 "http://www.w3.org/Graphics/SVG/1.1/DTD/svg11.dtd">
<!-- Generated by graphviz version 2.40.1 (20161225.0304)
 -->
<!-- Title: groups Pages: 1 -->
<svg width="488pt" height="532pt"
 viewBox="0.00 0.00 488.00 532.00" xmlns="http://www.w3.org/2000/svg" xmlns:xlink="http://www.w3.org/1999/xlink">
<g id="graph0" class="graph" transform="scale(1 1) rotate(0) translate(4 528)">
<title>groups</title>
<polygon fill="#ffffff" stroke="transparent" points="-4,4 -4,-528 484,-528 484,4 -4,4"/>
<g id="clust1" class="cluster">
<title>cluster_NASALib</title>
<polygon fill="none" stroke="#000000" points="8,-8 8,-516 376,-516 376,-8 8,-8"/>
<text text-anchor="middle" x="192" y="-500.8" font-family="Times,serif" font-size="14.00" fill="#000000">NASALib</text>
</g>
<g id="clust2" class="cluster">
<title>cluster_PVS Prelude</title>
<polygon fill="none" stroke="#000000" points="384,-152 384,-226 472,-226 472,-152 384,-152"/>
<text text-anchor="middle" x="428" y="-210.8" font-family="Times,serif" font-size="14.00" fill="#000000">PVS Prelude</text>
</g>
<!-- /Users/mmoscato/nasa/pvslib/pvslib&#45;gitlab__pvs7.0/algebra -->
<g id="node1" class="node">
<title>/Users/mmoscato/nasa/pvslib/pvslib&#45;gitlab__pvs7.0/algebra</title>
<polygon fill="#fcfcd7" stroke="#000000" points="164.6937,-342 107.3063,-342 107.3063,-306 164.6937,-306 164.6937,-342"/>
<text text-anchor="middle" x="136" y="-319.8" font-family="Times,serif" font-size="14.00" fill="#000000">algebra</text>
</g>
<!-- /Users/mmoscato/nasa/pvslib/pvslib&#45;gitlab__pvs7.0/ints -->
<g id="node4" class="node">
<title>/Users/mmoscato/nasa/pvslib/pvslib&#45;gitlab__pvs7.0/ints</title>
<polygon fill="#fcfcd7" stroke="#000000" points="140,-52 86,-52 86,-16 140,-16 140,-52"/>
<text text-anchor="middle" x="113" y="-29.8" font-family="Times,serif" font-size="14.00" fill="#000000">ints</text>
</g>
<!-- /Users/mmoscato/nasa/pvslib/pvslib&#45;gitlab__pvs7.0/algebra&#45;&gt;/Users/mmoscato/nasa/pvslib/pvslib&#45;gitlab__pvs7.0/ints -->
<g id="edge1" class="edge">
<title>/Users/mmoscato/nasa/pvslib/pvslib&#45;gitlab__pvs7.0/algebra&#45;&gt;/Users/mmoscato/nasa/pvslib/pvslib&#45;gitlab__pvs7.0/ints</title>
<path fill="none" stroke="#000000" d="M160.501,-305.8666C160.501,-243.4055 160.501,-41 160.501,-41 160.501,-41 150.0806,-41 150.0806,-41"/>
<polygon fill="#000000" stroke="#000000" points="150.0807,-37.5001 140.0806,-41 150.0806,-44.5001 150.0807,-37.5001"/>
</g>
<!-- /Users/mmoscato/pvs/7.1&#45;0&#45;g3fb4f25&#45;ix86&#45;MacOSX&#45;allegro/lib/finite_sets -->
<g id="node12" class="node">
<title>/Users/mmoscato/pvs/7.1&#45;0&#45;g3fb4f25&#45;ix86&#45;MacOSX&#45;allegro/lib/finite_sets</title>
<polygon fill="#fcfcd7" stroke="#000000" points="464.2796,-196 391.7204,-196 391.7204,-160 464.2796,-160 464.2796,-196"/>
<text text-anchor="middle" x="428" y="-173.8" font-family="Times,serif" font-size="14.00" fill="#000000">finite_sets</text>
</g>
<!-- /Users/mmoscato/nasa/pvslib/pvslib&#45;gitlab__pvs7.0/algebra&#45;&gt;/Users/mmoscato/pvs/7.1&#45;0&#45;g3fb4f25&#45;ix86&#45;MacOSX&#45;allegro/lib/finite_sets -->
<g id="edge2" class="edge">
<title>/Users/mmoscato/nasa/pvslib/pvslib&#45;gitlab__pvs7.0/algebra&#45;&gt;/Users/mmoscato/pvs/7.1&#45;0&#45;g3fb4f25&#45;ix86&#45;MacOSX&#45;allegro/lib/finite_sets</title>
<path fill="none" stroke="#000000" d="M152.3096,-305.5782C152.3096,-296.7209 152.3096,-288 152.3096,-288 152.3096,-288 415.8701,-288 415.8701,-288 415.8701,-288 415.8701,-206.1643 415.8701,-206.1643"/>
<polygon fill="#000000" stroke="#000000" points="419.3702,-206.1642 415.8701,-196.1643 412.3702,-206.1643 419.3702,-206.1642"/>
</g>
<!-- /Users/mmoscato/nasa/pvslib/pvslib&#45;gitlab__pvs7.0/analysis -->
<g id="node2" class="node">
<title>/Users/mmoscato/nasa/pvslib/pvslib&#45;gitlab__pvs7.0/analysis</title>
<polygon fill="#fcfcd7" stroke="#000000" points="245.6036,-270 184.3964,-270 184.3964,-234 245.6036,-234 245.6036,-270"/>
<text text-anchor="middle" x="215" y="-247.8" font-family="Times,serif" font-size="14.00" fill="#000000">analysis</text>
</g>
<!-- /Users/mmoscato/nasa/pvslib/pvslib&#45;gitlab__pvs7.0/analysis&#45;&gt;/Users/mmoscato/nasa/pvslib/pvslib&#45;gitlab__pvs7.0/ints -->
<g id="edge3" class="edge">
<title>/Users/mmoscato/nasa/pvslib/pvslib&#45;gitlab__pvs7.0/analysis&#45;&gt;/Users/mmoscato/nasa/pvslib/pvslib&#45;gitlab__pvs7.0/ints</title>
<path fill="none" stroke="#000000" d="M218.8161,-233.8875C218.8161,-180.2586 218.8161,-26 218.8161,-26 218.8161,-26 150.2503,-26 150.2503,-26"/>
<polygon fill="#000000" stroke="#000000" points="150.2503,-22.5001 140.2503,-26 150.2502,-29.5001 150.2503,-22.5001"/>
</g>
<!-- /Users/mmoscato/nasa/pvslib/pvslib&#45;gitlab__pvs7.0/orders -->
<g id="node6" class="node">
<title>/Users/mmoscato/nasa/pvslib/pvslib&#45;gitlab__pvs7.0/orders</title>
<polygon fill="#fcfcd7" stroke="#000000" points="290,-196 236,-196 236,-160 290,-160 290,-196"/>
<text text-anchor="middle" x="263" y="-173.8" font-family="Times,serif" font-size="14.00" fill="#000000">orders</text>
</g>
<!-- /Users/mmoscato/nasa/pvslib/pvslib&#45;gitlab__pvs7.0/analysis&#45;&gt;/Users/mmoscato/nasa/pvslib/pvslib&#45;gitlab__pvs7.0/orders -->
<g id="edge4" class="edge">
<title>/Users/mmoscato/nasa/pvslib/pvslib&#45;gitlab__pvs7.0/analysis&#45;&gt;/Users/mmoscato/nasa/pvslib/pvslib&#45;gitlab__pvs7.0/orders</title>
<path fill="none" stroke="#000000" d="M239.1839,-233.7079C239.1839,-233.7079 239.1839,-206.0817 239.1839,-206.0817"/>
<polygon fill="#000000" stroke="#000000" points="242.684,-206.0817 239.1839,-196.0817 235.684,-206.0818 242.684,-206.0817"/>
</g>
<!-- /Users/mmoscato/nasa/pvslib/pvslib&#45;gitlab__pvs7.0/reals -->
<g id="node7" class="node">
<title>/Users/mmoscato/nasa/pvslib/pvslib&#45;gitlab__pvs7.0/reals</title>
<polygon fill="#fcfcd7" stroke="#000000" points="146,-196 92,-196 92,-160 146,-160 146,-196"/>
<text text-anchor="middle" x="119" y="-173.8" font-family="Times,serif" font-size="14.00" fill="#000000">reals</text>
</g>
<!-- /Users/mmoscato/nasa/pvslib/pvslib&#45;gitlab__pvs7.0/analysis&#45;&gt;/Users/mmoscato/nasa/pvslib/pvslib&#45;gitlab__pvs7.0/reals -->
<g id="edge5" class="edge">
<title>/Users/mmoscato/nasa/pvslib/pvslib&#45;gitlab__pvs7.0/analysis&#45;&gt;/Users/mmoscato/nasa/pvslib/pvslib&#45;gitlab__pvs7.0/reals</title>
<path fill="none" stroke="#000000" d="M184.1175,-252C158.6548,-252 126.7017,-252 126.7017,-252 126.7017,-252 126.7017,-206.2921 126.7017,-206.2921"/>
<polygon fill="#000000" stroke="#000000" points="130.2018,-206.2921 126.7017,-196.2921 123.2018,-206.2922 130.2018,-206.2921"/>
</g>
<!-- /Users/mmoscato/nasa/pvslib/pvslib&#45;gitlab__pvs7.0/structures -->
<g id="node11" class="node">
<title>/Users/mmoscato/nasa/pvslib/pvslib&#45;gitlab__pvs7.0/structures</title>
<polygon fill="#fcfcd7" stroke="#000000" points="148.429,-124 77.571,-124 77.571,-88 148.429,-88 148.429,-124"/>
<text text-anchor="middle" x="113" y="-101.8" font-family="Times,serif" font-size="14.00" fill="#000000">structures</text>
</g>
<!-- /Users/mmoscato/nasa/pvslib/pvslib&#45;gitlab__pvs7.0/analysis&#45;&gt;/Users/mmoscato/nasa/pvslib/pvslib&#45;gitlab__pvs7.0/structures -->
<g id="edge6" class="edge">
<title>/Users/mmoscato/nasa/pvslib/pvslib&#45;gitlab__pvs7.0/analysis&#45;&gt;/Users/mmoscato/nasa/pvslib/pvslib&#45;gitlab__pvs7.0/structures</title>
<path fill="none" stroke="#000000" d="M201.6322,-233.9065C201.6322,-194.0111 201.6322,-102 201.6322,-102 201.6322,-102 158.2844,-102 158.2844,-102"/>
<polygon fill="#000000" stroke="#000000" points="158.2845,-98.5001 148.2844,-102 158.2844,-105.5001 158.2845,-98.5001"/>
</g>
<!-- /Users/mmoscato/nasa/pvslib/pvslib&#45;gitlab__pvs7.0/analysis&#45;&gt;/Users/mmoscato/pvs/7.1&#45;0&#45;g3fb4f25&#45;ix86&#45;MacOSX&#45;allegro/lib/finite_sets -->
<g id="edge7" class="edge">
<title>/Users/mmoscato/nasa/pvslib/pvslib&#45;gitlab__pvs7.0/analysis&#45;&gt;/Users/mmoscato/pvs/7.1&#45;0&#45;g3fb4f25&#45;ix86&#45;MacOSX&#45;allegro/lib/finite_sets</title>
<path fill="none" stroke="#000000" d="M242.3678,-233.9336C242.3678,-224.5413 242.3678,-215 242.3678,-215 242.3678,-215 403.7402,-215 403.7402,-215 403.7402,-215 403.7402,-206.0664 403.7402,-206.0664"/>
<polygon fill="#000000" stroke="#000000" points="407.2403,-206.0664 403.7402,-196.0664 400.2403,-206.0665 407.2403,-206.0664"/>
</g>
<!-- /Users/mmoscato/nasa/pvslib/pvslib&#45;gitlab__pvs7.0/groups -->
<g id="node3" class="node">
<title>/Users/mmoscato/nasa/pvslib/pvslib&#45;gitlab__pvs7.0/groups</title>
<polygon fill="#f7e28d" stroke="#000000" points="257.1105,-486 202.8895,-486 202.8895,-450 257.1105,-450 257.1105,-486"/>
<text text-anchor="middle" x="230" y="-463.8" font-family="Times,serif" font-size="14.00" fill="#000000">groups</text>
</g>
<!-- /Users/mmoscato/nasa/pvslib/pvslib&#45;gitlab__pvs7.0/groups&#45;&gt;/Users/mmoscato/nasa/pvslib/pvslib&#45;gitlab__pvs7.0/algebra -->
<g id="edge8" class="edge">
<title>/Users/mmoscato/nasa/pvslib/pvslib&#45;gitlab__pvs7.0/groups&#45;&gt;/Users/mmoscato/nasa/pvslib/pvslib&#45;gitlab__pvs7.0/algebra</title>
<path fill="none" stroke="#000000" d="M202.8113,-472C175.0495,-472 136,-472 136,-472 136,-472 136,-352.1477 136,-352.1477"/>
<polygon fill="#000000" stroke="#000000" points="139.5001,-352.1477 136,-342.1477 132.5001,-352.1477 139.5001,-352.1477"/>
</g>
<!-- /Users/mmoscato/nasa/pvslib/pvslib&#45;gitlab__pvs7.0/groups&#45;&gt;/Users/mmoscato/nasa/pvslib/pvslib&#45;gitlab__pvs7.0/analysis -->
<g id="edge9" class="edge">
<title>/Users/mmoscato/nasa/pvslib/pvslib&#45;gitlab__pvs7.0/groups&#45;&gt;/Users/mmoscato/nasa/pvslib/pvslib&#45;gitlab__pvs7.0/analysis</title>
<path fill="none" stroke="#000000" d="M202.9287,-459C194.6255,-459 187.6333,-459 187.6333,-459 187.6333,-459 187.6333,-280.0078 187.6333,-280.0078"/>
<polygon fill="#000000" stroke="#000000" points="191.1334,-280.0077 187.6333,-270.0078 184.1334,-280.0078 191.1334,-280.0077"/>
</g>
<!-- /Users/mmoscato/nasa/pvslib/pvslib&#45;gitlab__pvs7.0/groups&#45;&gt;/Users/mmoscato/nasa/pvslib/pvslib&#45;gitlab__pvs7.0/ints -->
<g id="edge10" class="edge">
<title>/Users/mmoscato/nasa/pvslib/pvslib&#45;gitlab__pvs7.0/groups&#45;&gt;/Users/mmoscato/nasa/pvslib/pvslib&#45;gitlab__pvs7.0/ints</title>
<path fill="none" stroke="#000000" d="M202.6721,-463C187.3205,-463 171.2139,-463 171.2139,-463 171.2139,-463 171.2139,-36 171.2139,-36 171.2139,-36 150.0619,-36 150.0619,-36"/>
<polygon fill="#000000" stroke="#000000" points="150.0619,-32.5001 140.0619,-36 150.0618,-39.5001 150.0619,-32.5001"/>
</g>
<!-- /Users/mmoscato/nasa/pvslib/pvslib&#45;gitlab__pvs7.0/numbers -->
<g id="node5" class="node">
<title>/Users/mmoscato/nasa/pvslib/pvslib&#45;gitlab__pvs7.0/numbers</title>
<polygon fill="#fcfcd7" stroke="#000000" points="100.2142,-270 35.7858,-270 35.7858,-234 100.2142,-234 100.2142,-270"/>
<text text-anchor="middle" x="68" y="-247.8" font-family="Times,serif" font-size="14.00" fill="#000000">numbers</text>
</g>
<!-- /Users/mmoscato/nasa/pvslib/pvslib&#45;gitlab__pvs7.0/groups&#45;&gt;/Users/mmoscato/nasa/pvslib/pvslib&#45;gitlab__pvs7.0/numbers -->
<g id="edge11" class="edge">
<title>/Users/mmoscato/nasa/pvslib/pvslib&#45;gitlab__pvs7.0/groups&#45;&gt;/Users/mmoscato/nasa/pvslib/pvslib&#45;gitlab__pvs7.0/numbers</title>
<path fill="none" stroke="#000000" d="M202.8848,-481C156.7674,-481 68,-481 68,-481 68,-481 68,-280.3529 68,-280.3529"/>
<polygon fill="#000000" stroke="#000000" points="71.5001,-280.3529 68,-270.3529 64.5001,-280.353 71.5001,-280.3529"/>
</g>
<!-- /Users/mmoscato/nasa/pvslib/pvslib&#45;gitlab__pvs7.0/groups&#45;&gt;/Users/mmoscato/nasa/pvslib/pvslib&#45;gitlab__pvs7.0/orders -->
<g id="edge12" class="edge">
<title>/Users/mmoscato/nasa/pvslib/pvslib&#45;gitlab__pvs7.0/groups&#45;&gt;/Users/mmoscato/nasa/pvslib/pvslib&#45;gitlab__pvs7.0/orders</title>
<path fill="none" stroke="#000000" d="M257.2858,-459C265.3005,-459 271.9621,-459 271.9621,-459 271.9621,-459 271.9621,-206.0053 271.9621,-206.0053"/>
<polygon fill="#000000" stroke="#000000" points="275.4622,-206.0052 271.9621,-196.0053 268.4622,-206.0053 275.4622,-206.0052"/>
</g>
<!-- /Users/mmoscato/nasa/pvslib/pvslib&#45;gitlab__pvs7.0/groups&#45;&gt;/Users/mmoscato/nasa/pvslib/pvslib&#45;gitlab__pvs7.0/reals -->
<g id="edge13" class="edge">
<title>/Users/mmoscato/nasa/pvslib/pvslib&#45;gitlab__pvs7.0/groups&#45;&gt;/Users/mmoscato/nasa/pvslib/pvslib&#45;gitlab__pvs7.0/reals</title>
<path fill="none" stroke="#000000" d="M202.6564,-477C165.2042,-477 102.5391,-477 102.5391,-477 102.5391,-477 102.5391,-206.2537 102.5391,-206.2537"/>
<polygon fill="#000000" stroke="#000000" points="106.0392,-206.2537 102.5391,-196.2537 99.0392,-206.2537 106.0392,-206.2537"/>
</g>
<!-- /Users/mmoscato/nasa/pvslib/pvslib&#45;gitlab__pvs7.0/series -->
<g id="node8" class="node">
<title>/Users/mmoscato/nasa/pvslib/pvslib&#45;gitlab__pvs7.0/series</title>
<polygon fill="#fcfcd7" stroke="#000000" points="257,-342 203,-342 203,-306 257,-306 257,-342"/>
<text text-anchor="middle" x="230" y="-319.8" font-family="Times,serif" font-size="14.00" fill="#000000">series</text>
</g>
<!-- /Users/mmoscato/nasa/pvslib/pvslib&#45;gitlab__pvs7.0/groups&#45;&gt;/Users/mmoscato/nasa/pvslib/pvslib&#45;gitlab__pvs7.0/series -->
<g id="edge14" class="edge">
<title>/Users/mmoscato/nasa/pvslib/pvslib&#45;gitlab__pvs7.0/groups&#45;&gt;/Users/mmoscato/nasa/pvslib/pvslib&#45;gitlab__pvs7.0/series</title>
<path fill="none" stroke="#000000" d="M202.787,-454C196.1011,-454 190.8184,-454 190.8184,-454 190.8184,-454 190.8184,-334 190.8184,-334 190.8184,-334 192.787,-334 192.787,-334"/>
<polygon fill="#000000" stroke="#000000" points="192.7871,-337.5001 202.787,-334 192.787,-330.5001 192.7871,-337.5001"/>
</g>
<!-- /Users/mmoscato/nasa/pvslib/pvslib&#45;gitlab__pvs7.0/sets_aux -->
<g id="node9" class="node">
<title>/Users/mmoscato/nasa/pvslib/pvslib&#45;gitlab__pvs7.0/sets_aux</title>
<polygon fill="#fcfcd7" stroke="#000000" points="348.2142,-270 283.7858,-270 283.7858,-234 348.2142,-234 348.2142,-270"/>
<text text-anchor="middle" x="316" y="-247.8" font-family="Times,serif" font-size="14.00" fill="#000000">sets_aux</text>
</g>
<!-- /Users/mmoscato/nasa/pvslib/pvslib&#45;gitlab__pvs7.0/groups&#45;&gt;/Users/mmoscato/nasa/pvslib/pvslib&#45;gitlab__pvs7.0/sets_aux -->
<g id="edge15" class="edge">
<title>/Users/mmoscato/nasa/pvslib/pvslib&#45;gitlab__pvs7.0/groups&#45;&gt;/Users/mmoscato/nasa/pvslib/pvslib&#45;gitlab__pvs7.0/sets_aux</title>
<path fill="none" stroke="#000000" d="M257.2109,-468C282.4063,-468 316,-468 316,-468 316,-468 316,-280.0445 316,-280.0445"/>
<polygon fill="#000000" stroke="#000000" points="319.5001,-280.0445 316,-270.0445 312.5001,-280.0446 319.5001,-280.0445"/>
</g>
<!-- /Users/mmoscato/nasa/pvslib/pvslib&#45;gitlab__pvs7.0/sigma_set -->
<g id="node10" class="node">
<title>/Users/mmoscato/nasa/pvslib/pvslib&#45;gitlab__pvs7.0/sigma_set</title>
<polygon fill="#fcfcd7" stroke="#000000" points="265.9932,-414 194.0068,-414 194.0068,-378 265.9932,-378 265.9932,-414"/>
<text text-anchor="middle" x="230" y="-391.8" font-family="Times,serif" font-size="14.00" fill="#000000">sigma_set</text>
</g>
<!-- /Users/mmoscato/nasa/pvslib/pvslib&#45;gitlab__pvs7.0/groups&#45;&gt;/Users/mmoscato/nasa/pvslib/pvslib&#45;gitlab__pvs7.0/sigma_set -->
<g id="edge16" class="edge">
<title>/Users/mmoscato/nasa/pvslib/pvslib&#45;gitlab__pvs7.0/groups&#45;&gt;/Users/mmoscato/nasa/pvslib/pvslib&#45;gitlab__pvs7.0/sigma_set</title>
<path fill="none" stroke="#000000" d="M230,-449.8314C230,-449.8314 230,-424.4133 230,-424.4133"/>
<polygon fill="#000000" stroke="#000000" points="233.5001,-424.4132 230,-414.4133 226.5001,-424.4133 233.5001,-424.4132"/>
</g>
<!-- /Users/mmoscato/nasa/pvslib/pvslib&#45;gitlab__pvs7.0/groups&#45;&gt;/Users/mmoscato/nasa/pvslib/pvslib&#45;gitlab__pvs7.0/structures -->
<g id="edge17" class="edge">
<title>/Users/mmoscato/nasa/pvslib/pvslib&#45;gitlab__pvs7.0/groups&#45;&gt;/Users/mmoscato/nasa/pvslib/pvslib&#45;gitlab__pvs7.0/structures</title>
<path fill="none" stroke="#000000" d="M202.5836,-468C185.9493,-468 167.9053,-468 167.9053,-468 167.9053,-468 167.9053,-116 167.9053,-116 167.9053,-116 158.3931,-116 158.3931,-116"/>
<polygon fill="#000000" stroke="#000000" points="158.3932,-112.5001 148.3931,-116 158.3931,-119.5001 158.3932,-112.5001"/>
</g>
<!-- /Users/mmoscato/nasa/pvslib/pvslib&#45;gitlab__pvs7.0/groups&#45;&gt;/Users/mmoscato/pvs/7.1&#45;0&#45;g3fb4f25&#45;ix86&#45;MacOSX&#45;allegro/lib/finite_sets -->
<g id="edge18" class="edge">
<title>/Users/mmoscato/nasa/pvslib/pvslib&#45;gitlab__pvs7.0/groups&#45;&gt;/Users/mmoscato/pvs/7.1&#45;0&#45;g3fb4f25&#45;ix86&#45;MacOSX&#45;allegro/lib/finite_sets</title>
<path fill="none" stroke="#000000" d="M257.2534,-477C316.6032,-477 452.2598,-477 452.2598,-477 452.2598,-477 452.2598,-206.2537 452.2598,-206.2537"/>
<polygon fill="#000000" stroke="#000000" points="455.7599,-206.2537 452.2598,-196.2537 448.7599,-206.2537 455.7599,-206.2537"/>
</g>
<!-- /Users/mmoscato/nasa/pvslib/pvslib&#45;gitlab__pvs7.0/numbers&#45;&gt;/Users/mmoscato/nasa/pvslib/pvslib&#45;gitlab__pvs7.0/ints -->
<g id="edge19" class="edge">
<title>/Users/mmoscato/nasa/pvslib/pvslib&#45;gitlab__pvs7.0/numbers&#45;&gt;/Users/mmoscato/nasa/pvslib/pvslib&#45;gitlab__pvs7.0/ints</title>
<path fill="none" stroke="#000000" d="M56.8396,-233.7884C56.8396,-181.3943 56.8396,-34 56.8396,-34 56.8396,-34 75.9068,-34 75.9068,-34"/>
<polygon fill="#000000" stroke="#000000" points="75.9068,-37.5001 85.9068,-34 75.9068,-30.5001 75.9068,-37.5001"/>
</g>
<!-- /Users/mmoscato/nasa/pvslib/pvslib&#45;gitlab__pvs7.0/numbers&#45;&gt;/Users/mmoscato/nasa/pvslib/pvslib&#45;gitlab__pvs7.0/reals -->
<g id="edge20" class="edge">
<title>/Users/mmoscato/nasa/pvslib/pvslib&#45;gitlab__pvs7.0/numbers&#45;&gt;/Users/mmoscato/nasa/pvslib/pvslib&#45;gitlab__pvs7.0/reals</title>
<path fill="none" stroke="#000000" d="M96.0535,-233.7079C96.0535,-233.7079 96.0535,-206.0817 96.0535,-206.0817"/>
<polygon fill="#000000" stroke="#000000" points="99.5536,-206.0817 96.0535,-196.0817 92.5536,-206.0818 99.5536,-206.0817"/>
</g>
<!-- /Users/mmoscato/nasa/pvslib/pvslib&#45;gitlab__pvs7.0/numbers&#45;&gt;/Users/mmoscato/nasa/pvslib/pvslib&#45;gitlab__pvs7.0/structures -->
<g id="edge21" class="edge">
<title>/Users/mmoscato/nasa/pvslib/pvslib&#45;gitlab__pvs7.0/numbers&#45;&gt;/Users/mmoscato/nasa/pvslib/pvslib&#45;gitlab__pvs7.0/structures</title>
<path fill="none" stroke="#000000" d="M84.8931,-233.8042C84.8931,-233.8042 84.8931,-134.4251 84.8931,-134.4251"/>
<polygon fill="#000000" stroke="#000000" points="88.3932,-134.4251 84.8931,-124.4251 81.3932,-134.4251 88.3932,-134.4251"/>
</g>
<!-- /Users/mmoscato/nasa/pvslib/pvslib&#45;gitlab__pvs7.0/reals&#45;&gt;/Users/mmoscato/nasa/pvslib/pvslib&#45;gitlab__pvs7.0/ints -->
<g id="edge22" class="edge">
<title>/Users/mmoscato/nasa/pvslib/pvslib&#45;gitlab__pvs7.0/reals&#45;&gt;/Users/mmoscato/nasa/pvslib/pvslib&#45;gitlab__pvs7.0/ints</title>
<path fill="none" stroke="#000000" d="M146.1841,-172C151.9853,-172 156.4053,-172 156.4053,-172 156.4053,-172 156.4053,-46 156.4053,-46 156.4053,-46 150.2428,-46 150.2428,-46"/>
<polygon fill="#000000" stroke="#000000" points="150.2428,-42.5001 140.2428,-46 150.2427,-49.5001 150.2428,-42.5001"/>
</g>
<!-- /Users/mmoscato/nasa/pvslib/pvslib&#45;gitlab__pvs7.0/reals&#45;&gt;/Users/mmoscato/nasa/pvslib/pvslib&#45;gitlab__pvs7.0/structures -->
<g id="edge23" class="edge">
<title>/Users/mmoscato/nasa/pvslib/pvslib&#45;gitlab__pvs7.0/reals&#45;&gt;/Users/mmoscato/nasa/pvslib/pvslib&#45;gitlab__pvs7.0/structures</title>
<path fill="none" stroke="#000000" d="M119,-159.8314C119,-159.8314 119,-134.4133 119,-134.4133"/>
<polygon fill="#000000" stroke="#000000" points="122.5001,-134.4132 119,-124.4133 115.5001,-134.4133 122.5001,-134.4132"/>
</g>
<!-- /Users/mmoscato/nasa/pvslib/pvslib&#45;gitlab__pvs7.0/series&#45;&gt;/Users/mmoscato/nasa/pvslib/pvslib&#45;gitlab__pvs7.0/analysis -->
<g id="edge24" class="edge">
<title>/Users/mmoscato/nasa/pvslib/pvslib&#45;gitlab__pvs7.0/series&#45;&gt;/Users/mmoscato/nasa/pvslib/pvslib&#45;gitlab__pvs7.0/analysis</title>
<path fill="none" stroke="#000000" d="M224.2759,-305.8314C224.2759,-305.8314 224.2759,-280.4133 224.2759,-280.4133"/>
<polygon fill="#000000" stroke="#000000" points="227.776,-280.4132 224.2759,-270.4133 220.776,-280.4133 227.776,-280.4132"/>
</g>
<!-- /Users/mmoscato/nasa/pvslib/pvslib&#45;gitlab__pvs7.0/series&#45;&gt;/Users/mmoscato/nasa/pvslib/pvslib&#45;gitlab__pvs7.0/ints -->
<g id="edge25" class="edge">
<title>/Users/mmoscato/nasa/pvslib/pvslib&#45;gitlab__pvs7.0/series&#45;&gt;/Users/mmoscato/nasa/pvslib/pvslib&#45;gitlab__pvs7.0/ints</title>
<path fill="none" stroke="#000000" d="M202.9975,-313C191.6974,-313 181.1396,-313 181.1396,-313 181.1396,-313 181.1396,-31 181.1396,-31 181.1396,-31 150.3224,-31 150.3224,-31"/>
<polygon fill="#000000" stroke="#000000" points="150.3224,-27.5001 140.3224,-31 150.3223,-34.5001 150.3224,-27.5001"/>
</g>
<!-- /Users/mmoscato/nasa/pvslib/pvslib&#45;gitlab__pvs7.0/series&#45;&gt;/Users/mmoscato/nasa/pvslib/pvslib&#45;gitlab__pvs7.0/orders -->
<g id="edge26" class="edge">
<title>/Users/mmoscato/nasa/pvslib/pvslib&#45;gitlab__pvs7.0/series&#45;&gt;/Users/mmoscato/nasa/pvslib/pvslib&#45;gitlab__pvs7.0/orders</title>
<path fill="none" stroke="#000000" d="M251.2759,-305.8042C251.2759,-305.8042 251.2759,-206.4251 251.2759,-206.4251"/>
<polygon fill="#000000" stroke="#000000" points="254.776,-206.4251 251.2759,-196.4251 247.776,-206.4251 254.776,-206.4251"/>
</g>
<!-- /Users/mmoscato/nasa/pvslib/pvslib&#45;gitlab__pvs7.0/series&#45;&gt;/Users/mmoscato/nasa/pvslib/pvslib&#45;gitlab__pvs7.0/reals -->
<g id="edge27" class="edge">
<title>/Users/mmoscato/nasa/pvslib/pvslib&#45;gitlab__pvs7.0/series&#45;&gt;/Users/mmoscato/nasa/pvslib/pvslib&#45;gitlab__pvs7.0/reals</title>
<path fill="none" stroke="#000000" d="M202.9113,-327C188.8287,-327 174.5225,-327 174.5225,-327 174.5225,-327 174.5225,-184 174.5225,-184 174.5225,-184 156.1106,-184 156.1106,-184"/>
<polygon fill="#000000" stroke="#000000" points="156.1107,-180.5001 146.1106,-184 156.1106,-187.5001 156.1107,-180.5001"/>
</g>
<!-- /Users/mmoscato/nasa/pvslib/pvslib&#45;gitlab__pvs7.0/series&#45;&gt;/Users/mmoscato/nasa/pvslib/pvslib&#45;gitlab__pvs7.0/structures -->
<g id="edge28" class="edge">
<title>/Users/mmoscato/nasa/pvslib/pvslib&#45;gitlab__pvs7.0/series&#45;&gt;/Users/mmoscato/nasa/pvslib/pvslib&#45;gitlab__pvs7.0/structures</title>
<path fill="none" stroke="#000000" d="M202.9987,-320C190.2691,-320 177.8311,-320 177.8311,-320 177.8311,-320 177.8311,-109 177.8311,-109 177.8311,-109 158.4505,-109 158.4505,-109"/>
<polygon fill="#000000" stroke="#000000" points="158.4506,-105.5001 148.4505,-109 158.4505,-112.5001 158.4506,-105.5001"/>
</g>
<!-- /Users/mmoscato/nasa/pvslib/pvslib&#45;gitlab__pvs7.0/series&#45;&gt;/Users/mmoscato/pvs/7.1&#45;0&#45;g3fb4f25&#45;ix86&#45;MacOSX&#45;allegro/lib/finite_sets -->
<g id="edge29" class="edge">
<title>/Users/mmoscato/nasa/pvslib/pvslib&#45;gitlab__pvs7.0/series&#45;&gt;/Users/mmoscato/pvs/7.1&#45;0&#45;g3fb4f25&#45;ix86&#45;MacOSX&#45;allegro/lib/finite_sets</title>
<path fill="none" stroke="#000000" d="M257.1159,-324C311.3431,-324 428,-324 428,-324 428,-324 428,-206.1958 428,-206.1958"/>
<polygon fill="#000000" stroke="#000000" points="431.5001,-206.1958 428,-196.1958 424.5001,-206.1958 431.5001,-206.1958"/>
</g>
<!-- /Users/mmoscato/nasa/pvslib/pvslib&#45;gitlab__pvs7.0/sets_aux&#45;&gt;/Users/mmoscato/nasa/pvslib/pvslib&#45;gitlab__pvs7.0/ints -->
<g id="edge30" class="edge">
<title>/Users/mmoscato/nasa/pvslib/pvslib&#45;gitlab__pvs7.0/sets_aux&#45;&gt;/Users/mmoscato/nasa/pvslib/pvslib&#45;gitlab__pvs7.0/ints</title>
<path fill="none" stroke="#000000" d="M328.738,-233.8738C328.738,-179.4177 328.738,-21 328.738,-21 328.738,-21 150.3234,-21 150.3234,-21"/>
<polygon fill="#000000" stroke="#000000" points="150.3234,-17.5001 140.3234,-21 150.3233,-24.5001 150.3234,-17.5001"/>
</g>
<!-- /Users/mmoscato/nasa/pvslib/pvslib&#45;gitlab__pvs7.0/sets_aux&#45;&gt;/Users/mmoscato/nasa/pvslib/pvslib&#45;gitlab__pvs7.0/orders -->
<g id="edge31" class="edge">
<title>/Users/mmoscato/nasa/pvslib/pvslib&#45;gitlab__pvs7.0/sets_aux&#45;&gt;/Users/mmoscato/nasa/pvslib/pvslib&#45;gitlab__pvs7.0/orders</title>
<path fill="none" stroke="#000000" d="M283.8764,-246C280.3071,-246 277.9276,-246 277.9276,-246 277.9276,-246 277.9276,-206.2228 277.9276,-206.2228"/>
<polygon fill="#000000" stroke="#000000" points="281.4277,-206.2227 277.9276,-196.2228 274.4277,-206.2228 281.4277,-206.2227"/>
</g>
<!-- /Users/mmoscato/nasa/pvslib/pvslib&#45;gitlab__pvs7.0/sets_aux&#45;&gt;/Users/mmoscato/nasa/pvslib/pvslib&#45;gitlab__pvs7.0/structures -->
<g id="edge32" class="edge">
<title>/Users/mmoscato/nasa/pvslib/pvslib&#45;gitlab__pvs7.0/sets_aux&#45;&gt;/Users/mmoscato/nasa/pvslib/pvslib&#45;gitlab__pvs7.0/structures</title>
<path fill="none" stroke="#000000" d="M309.369,-233.9901C309.369,-192.7513 309.369,-95 309.369,-95 309.369,-95 158.5609,-95 158.5609,-95"/>
<polygon fill="#000000" stroke="#000000" points="158.561,-91.5001 148.5609,-95 158.5609,-98.5001 158.561,-91.5001"/>
</g>
<!-- /Users/mmoscato/nasa/pvslib/pvslib&#45;gitlab__pvs7.0/sigma_set&#45;&gt;/Users/mmoscato/nasa/pvslib/pvslib&#45;gitlab__pvs7.0/analysis -->
<g id="edge33" class="edge">
<title>/Users/mmoscato/nasa/pvslib/pvslib&#45;gitlab__pvs7.0/sigma_set&#45;&gt;/Users/mmoscato/nasa/pvslib/pvslib&#45;gitlab__pvs7.0/analysis</title>
<path fill="none" stroke="#000000" d="M198.5017,-377.7623C198.5017,-377.7623 198.5017,-280.0896 198.5017,-280.0896"/>
<polygon fill="#000000" stroke="#000000" points="202.0018,-280.0896 198.5017,-270.0896 195.0018,-280.0897 202.0018,-280.0896"/>
</g>
<!-- /Users/mmoscato/nasa/pvslib/pvslib&#45;gitlab__pvs7.0/sigma_set&#45;&gt;/Users/mmoscato/nasa/pvslib/pvslib&#45;gitlab__pvs7.0/orders -->
<g id="edge34" class="edge">
<title>/Users/mmoscato/nasa/pvslib/pvslib&#45;gitlab__pvs7.0/sigma_set&#45;&gt;/Users/mmoscato/nasa/pvslib/pvslib&#45;gitlab__pvs7.0/orders</title>
<path fill="none" stroke="#000000" d="M259.9989,-377.7884C259.9989,-377.7884 259.9989,-206.0064 259.9989,-206.0064"/>
<polygon fill="#000000" stroke="#000000" points="263.499,-206.0064 259.9989,-196.0064 256.499,-206.0065 263.499,-206.0064"/>
</g>
<!-- /Users/mmoscato/nasa/pvslib/pvslib&#45;gitlab__pvs7.0/sigma_set&#45;&gt;/Users/mmoscato/nasa/pvslib/pvslib&#45;gitlab__pvs7.0/reals -->
<g id="edge35" class="edge">
<title>/Users/mmoscato/nasa/pvslib/pvslib&#45;gitlab__pvs7.0/sigma_set&#45;&gt;/Users/mmoscato/nasa/pvslib/pvslib&#45;gitlab__pvs7.0/reals</title>
<path fill="none" stroke="#000000" d="M193.8365,-396C156.9107,-396 104.9712,-396 104.9712,-396 104.9712,-396 104.9712,-206.2116 104.9712,-206.2116"/>
<polygon fill="#000000" stroke="#000000" points="108.4713,-206.2116 104.9712,-196.2116 101.4713,-206.2116 108.4713,-206.2116"/>
</g>
<!-- /Users/mmoscato/nasa/pvslib/pvslib&#45;gitlab__pvs7.0/sigma_set&#45;&gt;/Users/mmoscato/nasa/pvslib/pvslib&#45;gitlab__pvs7.0/series -->
<g id="edge36" class="edge">
<title>/Users/mmoscato/nasa/pvslib/pvslib&#45;gitlab__pvs7.0/sigma_set&#45;&gt;/Users/mmoscato/nasa/pvslib/pvslib&#45;gitlab__pvs7.0/series</title>
<path fill="none" stroke="#000000" d="M230,-377.8314C230,-377.8314 230,-352.4133 230,-352.4133"/>
<polygon fill="#000000" stroke="#000000" points="233.5001,-352.4132 230,-342.4133 226.5001,-352.4133 233.5001,-352.4132"/>
</g>
<!-- /Users/mmoscato/nasa/pvslib/pvslib&#45;gitlab__pvs7.0/sigma_set&#45;&gt;/Users/mmoscato/nasa/pvslib/pvslib&#45;gitlab__pvs7.0/sets_aux -->
<g id="edge37" class="edge">
<title>/Users/mmoscato/nasa/pvslib/pvslib&#45;gitlab__pvs7.0/sigma_set&#45;&gt;/Users/mmoscato/nasa/pvslib/pvslib&#45;gitlab__pvs7.0/sets_aux</title>
<path fill="none" stroke="#000000" d="M262.9977,-377.9589C262.9977,-340.5524 262.9977,-258 262.9977,-258 262.9977,-258 273.6416,-258 273.6416,-258"/>
<polygon fill="#000000" stroke="#000000" points="273.6416,-261.5001 283.6416,-258 273.6415,-254.5001 273.6416,-261.5001"/>
</g>
<!-- /Users/mmoscato/nasa/pvslib/pvslib&#45;gitlab__pvs7.0/sigma_set&#45;&gt;/Users/mmoscato/pvs/7.1&#45;0&#45;g3fb4f25&#45;ix86&#45;MacOSX&#45;allegro/lib/finite_sets -->
<g id="edge38" class="edge">
<title>/Users/mmoscato/nasa/pvslib/pvslib&#45;gitlab__pvs7.0/sigma_set&#45;&gt;/Users/mmoscato/pvs/7.1&#45;0&#45;g3fb4f25&#45;ix86&#45;MacOSX&#45;allegro/lib/finite_sets</title>
<path fill="none" stroke="#000000" d="M266.1226,-396C326.2019,-396 440.1299,-396 440.1299,-396 440.1299,-396 440.1299,-206.2116 440.1299,-206.2116"/>
<polygon fill="#000000" stroke="#000000" points="443.63,-206.2116 440.1299,-196.2116 436.63,-206.2116 443.63,-206.2116"/>
</g>
<!-- /Users/mmoscato/nasa/pvslib/pvslib&#45;gitlab__pvs7.0/structures&#45;&gt;/Users/mmoscato/nasa/pvslib/pvslib&#45;gitlab__pvs7.0/ints -->
<g id="edge39" class="edge">
<title>/Users/mmoscato/nasa/pvslib/pvslib&#45;gitlab__pvs7.0/structures&#45;&gt;/Users/mmoscato/nasa/pvslib/pvslib&#45;gitlab__pvs7.0/ints</title>
<path fill="none" stroke="#000000" d="M113,-87.8314C113,-87.8314 113,-62.4133 113,-62.4133"/>
<polygon fill="#000000" stroke="#000000" points="116.5001,-62.4132 113,-52.4133 109.5001,-62.4133 116.5001,-62.4132"/>
</g>
</g>
</svg>
