<?xml version="1.0" encoding="UTF-8" standalone="no"?>
<!DOCTYPE svg PUBLIC "-//W3C//DTD SVG 1.1//EN"
 "http://www.w3.org/Graphics/SVG/1.1/DTD/svg11.dtd">
<!-- Generated by graphviz version 2.40.1 (20161225.0304)
 -->
<!-- Title: interval_arith Pages: 1 -->
<svg width="402pt" height="532pt"
 viewBox="0.00 0.00 402.00 532.00" xmlns="http://www.w3.org/2000/svg" xmlns:xlink="http://www.w3.org/1999/xlink">
<g id="graph0" class="graph" transform="scale(1 1) rotate(0) translate(4 528)">
<title>interval_arith</title>
<polygon fill="#ffffff" stroke="transparent" points="-4,4 -4,-528 398,-528 398,4 -4,4"/>
<g id="clust1" class="cluster">
<title>cluster_NASALib</title>
<polygon fill="none" stroke="#000000" points="8,-8 8,-516 290,-516 290,-8 8,-8"/>
<text text-anchor="middle" x="149" y="-500.8" font-family="Times,serif" font-size="14.00" fill="#000000">NASALib</text>
</g>
<g id="clust2" class="cluster">
<title>cluster_PVS Prelude</title>
<polygon fill="none" stroke="#000000" points="298,-152 298,-226 386,-226 386,-152 298,-152"/>
<text text-anchor="middle" x="342" y="-210.8" font-family="Times,serif" font-size="14.00" fill="#000000">PVS Prelude</text>
</g>
<!-- /Users/mmoscato/nasa/pvslib/pvslib&#45;gitlab__pvs7.0/analysis -->
<g id="node1" class="node">
<title>/Users/mmoscato/nasa/pvslib/pvslib&#45;gitlab__pvs7.0/analysis</title>
<polygon fill="#fcfcd7" stroke="#000000" points="159.6036,-270 98.3964,-270 98.3964,-234 159.6036,-234 159.6036,-270"/>
<text text-anchor="middle" x="129" y="-247.8" font-family="Times,serif" font-size="14.00" fill="#000000">analysis</text>
</g>
<!-- /Users/mmoscato/nasa/pvslib/pvslib&#45;gitlab__pvs7.0/ints -->
<g id="node3" class="node">
<title>/Users/mmoscato/nasa/pvslib/pvslib&#45;gitlab__pvs7.0/ints</title>
<polygon fill="#fcfcd7" stroke="#000000" points="164,-52 110,-52 110,-16 164,-16 164,-52"/>
<text text-anchor="middle" x="137" y="-29.8" font-family="Times,serif" font-size="14.00" fill="#000000">ints</text>
</g>
<!-- /Users/mmoscato/nasa/pvslib/pvslib&#45;gitlab__pvs7.0/analysis&#45;&gt;/Users/mmoscato/nasa/pvslib/pvslib&#45;gitlab__pvs7.0/ints -->
<g id="edge1" class="edge">
<title>/Users/mmoscato/nasa/pvslib/pvslib&#45;gitlab__pvs7.0/analysis&#45;&gt;/Users/mmoscato/nasa/pvslib/pvslib&#45;gitlab__pvs7.0/ints</title>
<path fill="none" stroke="#000000" d="M98.222,-252C75.6051,-252 48.8,-252 48.8,-252 48.8,-252 48.8,-37 48.8,-37 48.8,-37 99.5764,-37 99.5764,-37"/>
<polygon fill="#000000" stroke="#000000" points="99.5765,-40.5001 109.5764,-37 99.5764,-33.5001 99.5765,-40.5001"/>
</g>
<!-- /Users/mmoscato/nasa/pvslib/pvslib&#45;gitlab__pvs7.0/orders -->
<g id="node5" class="node">
<title>/Users/mmoscato/nasa/pvslib/pvslib&#45;gitlab__pvs7.0/orders</title>
<polygon fill="#fcfcd7" stroke="#000000" points="222,-196 168,-196 168,-160 222,-160 222,-196"/>
<text text-anchor="middle" x="195" y="-173.8" font-family="Times,serif" font-size="14.00" fill="#000000">orders</text>
</g>
<!-- /Users/mmoscato/nasa/pvslib/pvslib&#45;gitlab__pvs7.0/analysis&#45;&gt;/Users/mmoscato/nasa/pvslib/pvslib&#45;gitlab__pvs7.0/orders -->
<g id="edge2" class="edge">
<title>/Users/mmoscato/nasa/pvslib/pvslib&#45;gitlab__pvs7.0/analysis&#45;&gt;/Users/mmoscato/nasa/pvslib/pvslib&#45;gitlab__pvs7.0/orders</title>
<path fill="none" stroke="#000000" d="M159.729,-246C170.2084,-246 179.3333,-246 179.3333,-246 179.3333,-246 179.3333,-206.2228 179.3333,-206.2228"/>
<polygon fill="#000000" stroke="#000000" points="182.8334,-206.2227 179.3333,-196.2228 175.8334,-206.2228 182.8334,-206.2227"/>
</g>
<!-- /Users/mmoscato/nasa/pvslib/pvslib&#45;gitlab__pvs7.0/reals -->
<g id="node6" class="node">
<title>/Users/mmoscato/nasa/pvslib/pvslib&#45;gitlab__pvs7.0/reals</title>
<polygon fill="#fcfcd7" stroke="#000000" points="110,-196 56,-196 56,-160 110,-160 110,-196"/>
<text text-anchor="middle" x="83" y="-173.8" font-family="Times,serif" font-size="14.00" fill="#000000">reals</text>
</g>
<!-- /Users/mmoscato/nasa/pvslib/pvslib&#45;gitlab__pvs7.0/analysis&#45;&gt;/Users/mmoscato/nasa/pvslib/pvslib&#45;gitlab__pvs7.0/reals -->
<g id="edge3" class="edge">
<title>/Users/mmoscato/nasa/pvslib/pvslib&#45;gitlab__pvs7.0/analysis&#45;&gt;/Users/mmoscato/nasa/pvslib/pvslib&#45;gitlab__pvs7.0/reals</title>
<path fill="none" stroke="#000000" d="M104.2241,-233.7079C104.2241,-233.7079 104.2241,-206.0817 104.2241,-206.0817"/>
<polygon fill="#000000" stroke="#000000" points="107.7242,-206.0817 104.2241,-196.0817 100.7242,-206.0818 107.7242,-206.0817"/>
</g>
<!-- /Users/mmoscato/nasa/pvslib/pvslib&#45;gitlab__pvs7.0/structures -->
<g id="node8" class="node">
<title>/Users/mmoscato/nasa/pvslib/pvslib&#45;gitlab__pvs7.0/structures</title>
<polygon fill="#fcfcd7" stroke="#000000" points="172.429,-124 101.571,-124 101.571,-88 172.429,-88 172.429,-124"/>
<text text-anchor="middle" x="137" y="-101.8" font-family="Times,serif" font-size="14.00" fill="#000000">structures</text>
</g>
<!-- /Users/mmoscato/nasa/pvslib/pvslib&#45;gitlab__pvs7.0/analysis&#45;&gt;/Users/mmoscato/nasa/pvslib/pvslib&#45;gitlab__pvs7.0/structures -->
<g id="edge4" class="edge">
<title>/Users/mmoscato/nasa/pvslib/pvslib&#45;gitlab__pvs7.0/analysis&#45;&gt;/Users/mmoscato/nasa/pvslib/pvslib&#45;gitlab__pvs7.0/structures</title>
<path fill="none" stroke="#000000" d="M143.0345,-233.8042C143.0345,-233.8042 143.0345,-134.4251 143.0345,-134.4251"/>
<polygon fill="#000000" stroke="#000000" points="146.5346,-134.4251 143.0345,-124.4251 139.5346,-134.4251 146.5346,-134.4251"/>
</g>
<!-- /Users/mmoscato/pvs/7.1&#45;0&#45;g3fb4f25&#45;ix86&#45;MacOSX&#45;allegro/lib/finite_sets -->
<g id="node10" class="node">
<title>/Users/mmoscato/pvs/7.1&#45;0&#45;g3fb4f25&#45;ix86&#45;MacOSX&#45;allegro/lib/finite_sets</title>
<polygon fill="#fcfcd7" stroke="#000000" points="378.2796,-196 305.7204,-196 305.7204,-160 378.2796,-160 378.2796,-196"/>
<text text-anchor="middle" x="342" y="-173.8" font-family="Times,serif" font-size="14.00" fill="#000000">finite_sets</text>
</g>
<!-- /Users/mmoscato/nasa/pvslib/pvslib&#45;gitlab__pvs7.0/analysis&#45;&gt;/Users/mmoscato/pvs/7.1&#45;0&#45;g3fb4f25&#45;ix86&#45;MacOSX&#45;allegro/lib/finite_sets -->
<g id="edge5" class="edge">
<title>/Users/mmoscato/nasa/pvslib/pvslib&#45;gitlab__pvs7.0/analysis&#45;&gt;/Users/mmoscato/pvs/7.1&#45;0&#45;g3fb4f25&#45;ix86&#45;MacOSX&#45;allegro/lib/finite_sets</title>
<path fill="none" stroke="#000000" d="M159.7444,-258C213.2262,-258 317.7402,-258 317.7402,-258 317.7402,-258 317.7402,-206.1532 317.7402,-206.1532"/>
<polygon fill="#000000" stroke="#000000" points="321.2403,-206.1532 317.7402,-196.1532 314.2403,-206.1533 321.2403,-206.1532"/>
</g>
<!-- /Users/mmoscato/nasa/pvslib/pvslib&#45;gitlab__pvs7.0/interval_arith -->
<g id="node2" class="node">
<title>/Users/mmoscato/nasa/pvslib/pvslib&#45;gitlab__pvs7.0/interval_arith</title>
<polygon fill="#f7e28d" stroke="#000000" points="174.915,-486 83.085,-486 83.085,-450 174.915,-450 174.915,-486"/>
<text text-anchor="middle" x="129" y="-463.8" font-family="Times,serif" font-size="14.00" fill="#000000">interval_arith</text>
</g>
<!-- /Users/mmoscato/nasa/pvslib/pvslib&#45;gitlab__pvs7.0/interval_arith&#45;&gt;/Users/mmoscato/nasa/pvslib/pvslib&#45;gitlab__pvs7.0/analysis -->
<g id="edge6" class="edge">
<title>/Users/mmoscato/nasa/pvslib/pvslib&#45;gitlab__pvs7.0/interval_arith&#45;&gt;/Users/mmoscato/nasa/pvslib/pvslib&#45;gitlab__pvs7.0/analysis</title>
<path fill="none" stroke="#000000" d="M125.2,-449.9555C125.2,-449.9555 125.2,-280.1451 125.2,-280.1451"/>
<polygon fill="#000000" stroke="#000000" points="128.7001,-280.145 125.2,-270.1451 121.7001,-280.1451 128.7001,-280.145"/>
</g>
<!-- /Users/mmoscato/nasa/pvslib/pvslib&#45;gitlab__pvs7.0/interval_arith&#45;&gt;/Users/mmoscato/nasa/pvslib/pvslib&#45;gitlab__pvs7.0/ints -->
<g id="edge7" class="edge">
<title>/Users/mmoscato/nasa/pvslib/pvslib&#45;gitlab__pvs7.0/interval_arith&#45;&gt;/Users/mmoscato/nasa/pvslib/pvslib&#45;gitlab__pvs7.0/ints</title>
<path fill="none" stroke="#000000" d="M83.1627,-474C56.1423,-474 27.2,-474 27.2,-474 27.2,-474 27.2,-23 27.2,-23 27.2,-23 99.8584,-23 99.8584,-23"/>
<polygon fill="#000000" stroke="#000000" points="99.8585,-26.5001 109.8584,-23 99.8584,-19.5001 99.8585,-26.5001"/>
</g>
<!-- /Users/mmoscato/nasa/pvslib/pvslib&#45;gitlab__pvs7.0/lnexp -->
<g id="node4" class="node">
<title>/Users/mmoscato/nasa/pvslib/pvslib&#45;gitlab__pvs7.0/lnexp</title>
<polygon fill="#fcfcd7" stroke="#000000" points="110,-414 56,-414 56,-378 110,-378 110,-414"/>
<text text-anchor="middle" x="83" y="-391.8" font-family="Times,serif" font-size="14.00" fill="#000000">lnexp</text>
</g>
<!-- /Users/mmoscato/nasa/pvslib/pvslib&#45;gitlab__pvs7.0/interval_arith&#45;&gt;/Users/mmoscato/nasa/pvslib/pvslib&#45;gitlab__pvs7.0/lnexp -->
<g id="edge8" class="edge">
<title>/Users/mmoscato/nasa/pvslib/pvslib&#45;gitlab__pvs7.0/interval_arith&#45;&gt;/Users/mmoscato/nasa/pvslib/pvslib&#45;gitlab__pvs7.0/lnexp</title>
<path fill="none" stroke="#000000" d="M96.6465,-449.8314C96.6465,-449.8314 96.6465,-424.4133 96.6465,-424.4133"/>
<polygon fill="#000000" stroke="#000000" points="100.1466,-424.4132 96.6465,-414.4133 93.1466,-424.4133 100.1466,-424.4132"/>
</g>
<!-- /Users/mmoscato/nasa/pvslib/pvslib&#45;gitlab__pvs7.0/interval_arith&#45;&gt;/Users/mmoscato/nasa/pvslib/pvslib&#45;gitlab__pvs7.0/orders -->
<g id="edge9" class="edge">
<title>/Users/mmoscato/nasa/pvslib/pvslib&#45;gitlab__pvs7.0/interval_arith&#45;&gt;/Users/mmoscato/nasa/pvslib/pvslib&#45;gitlab__pvs7.0/orders</title>
<path fill="none" stroke="#000000" d="M174.9472,-462C195.565,-462 215.3333,-462 215.3333,-462 215.3333,-462 215.3333,-206.1975 215.3333,-206.1975"/>
<polygon fill="#000000" stroke="#000000" points="218.8334,-206.1975 215.3333,-196.1975 211.8334,-206.1975 218.8334,-206.1975"/>
</g>
<!-- /Users/mmoscato/nasa/pvslib/pvslib&#45;gitlab__pvs7.0/interval_arith&#45;&gt;/Users/mmoscato/nasa/pvslib/pvslib&#45;gitlab__pvs7.0/reals -->
<g id="edge10" class="edge">
<title>/Users/mmoscato/nasa/pvslib/pvslib&#45;gitlab__pvs7.0/interval_arith&#45;&gt;/Users/mmoscato/nasa/pvslib/pvslib&#45;gitlab__pvs7.0/reals</title>
<path fill="none" stroke="#000000" d="M117.6,-449.7644C117.6,-420.4256 117.6,-366 117.6,-366 117.6,-366 81.4689,-366 81.4689,-366 81.4689,-366 81.4689,-206.0262 81.4689,-206.0262"/>
<polygon fill="#000000" stroke="#000000" points="84.969,-206.0262 81.4689,-196.0262 77.969,-206.0263 84.969,-206.0262"/>
</g>
<!-- /Users/mmoscato/nasa/pvslib/pvslib&#45;gitlab__pvs7.0/series -->
<g id="node7" class="node">
<title>/Users/mmoscato/nasa/pvslib/pvslib&#45;gitlab__pvs7.0/series</title>
<polygon fill="#fcfcd7" stroke="#000000" points="202,-342 148,-342 148,-306 202,-306 202,-342"/>
<text text-anchor="middle" x="175" y="-319.8" font-family="Times,serif" font-size="14.00" fill="#000000">series</text>
</g>
<!-- /Users/mmoscato/nasa/pvslib/pvslib&#45;gitlab__pvs7.0/interval_arith&#45;&gt;/Users/mmoscato/nasa/pvslib/pvslib&#45;gitlab__pvs7.0/series -->
<g id="edge11" class="edge">
<title>/Users/mmoscato/nasa/pvslib/pvslib&#45;gitlab__pvs7.0/interval_arith&#45;&gt;/Users/mmoscato/nasa/pvslib/pvslib&#45;gitlab__pvs7.0/series</title>
<path fill="none" stroke="#000000" d="M140.4,-449.9589C140.4,-412.5524 140.4,-330 140.4,-330 140.4,-330 141.1338,-330 141.1338,-330"/>
<polygon fill="#000000" stroke="#000000" points="137.7378,-333.5002 147.7378,-330 137.7377,-326.5002 137.7378,-333.5002"/>
</g>
<!-- /Users/mmoscato/nasa/pvslib/pvslib&#45;gitlab__pvs7.0/interval_arith&#45;&gt;/Users/mmoscato/nasa/pvslib/pvslib&#45;gitlab__pvs7.0/structures -->
<g id="edge12" class="edge">
<title>/Users/mmoscato/nasa/pvslib/pvslib&#45;gitlab__pvs7.0/interval_arith&#45;&gt;/Users/mmoscato/nasa/pvslib/pvslib&#45;gitlab__pvs7.0/structures</title>
<path fill="none" stroke="#000000" d="M83.2522,-462C62.1057,-462 41.6,-462 41.6,-462 41.6,-462 41.6,-106 41.6,-106 41.6,-106 91.7476,-106 91.7476,-106"/>
<polygon fill="#000000" stroke="#000000" points="91.7476,-109.5001 101.7476,-106 91.7476,-102.5001 91.7476,-109.5001"/>
</g>
<!-- /Users/mmoscato/nasa/pvslib/pvslib&#45;gitlab__pvs7.0/trig -->
<g id="node9" class="node">
<title>/Users/mmoscato/nasa/pvslib/pvslib&#45;gitlab__pvs7.0/trig</title>
<polygon fill="#fcfcd7" stroke="#000000" points="202,-414 148,-414 148,-378 202,-378 202,-414"/>
<text text-anchor="middle" x="175" y="-391.8" font-family="Times,serif" font-size="14.00" fill="#000000">trig</text>
</g>
<!-- /Users/mmoscato/nasa/pvslib/pvslib&#45;gitlab__pvs7.0/interval_arith&#45;&gt;/Users/mmoscato/nasa/pvslib/pvslib&#45;gitlab__pvs7.0/trig -->
<g id="edge13" class="edge">
<title>/Users/mmoscato/nasa/pvslib/pvslib&#45;gitlab__pvs7.0/interval_arith&#45;&gt;/Users/mmoscato/nasa/pvslib/pvslib&#45;gitlab__pvs7.0/trig</title>
<path fill="none" stroke="#000000" d="M161.3535,-449.8314C161.3535,-449.8314 161.3535,-424.4133 161.3535,-424.4133"/>
<polygon fill="#000000" stroke="#000000" points="164.8536,-424.4132 161.3535,-414.4133 157.8536,-424.4133 164.8536,-424.4132"/>
</g>
<!-- /Users/mmoscato/nasa/pvslib/pvslib&#45;gitlab__pvs7.0/interval_arith&#45;&gt;/Users/mmoscato/pvs/7.1&#45;0&#45;g3fb4f25&#45;ix86&#45;MacOSX&#45;allegro/lib/finite_sets -->
<g id="edge14" class="edge">
<title>/Users/mmoscato/nasa/pvslib/pvslib&#45;gitlab__pvs7.0/interval_arith&#45;&gt;/Users/mmoscato/pvs/7.1&#45;0&#45;g3fb4f25&#45;ix86&#45;MacOSX&#45;allegro/lib/finite_sets</title>
<path fill="none" stroke="#000000" d="M174.7461,-474C243.691,-474 366.2598,-474 366.2598,-474 366.2598,-474 366.2598,-206.0705 366.2598,-206.0705"/>
<polygon fill="#000000" stroke="#000000" points="369.7599,-206.0705 366.2598,-196.0705 362.7599,-206.0706 369.7599,-206.0705"/>
</g>
<!-- /Users/mmoscato/nasa/pvslib/pvslib&#45;gitlab__pvs7.0/lnexp&#45;&gt;/Users/mmoscato/nasa/pvslib/pvslib&#45;gitlab__pvs7.0/analysis -->
<g id="edge15" class="edge">
<title>/Users/mmoscato/nasa/pvslib/pvslib&#45;gitlab__pvs7.0/lnexp&#45;&gt;/Users/mmoscato/nasa/pvslib/pvslib&#45;gitlab__pvs7.0/analysis</title>
<path fill="none" stroke="#000000" d="M101.3362,-377.7623C101.3362,-377.7623 101.3362,-280.0896 101.3362,-280.0896"/>
<polygon fill="#000000" stroke="#000000" points="104.8363,-280.0896 101.3362,-270.0896 97.8363,-280.0897 104.8363,-280.0896"/>
</g>
<!-- /Users/mmoscato/nasa/pvslib/pvslib&#45;gitlab__pvs7.0/lnexp&#45;&gt;/Users/mmoscato/nasa/pvslib/pvslib&#45;gitlab__pvs7.0/ints -->
<g id="edge16" class="edge">
<title>/Users/mmoscato/nasa/pvslib/pvslib&#45;gitlab__pvs7.0/lnexp&#45;&gt;/Users/mmoscato/nasa/pvslib/pvslib&#45;gitlab__pvs7.0/ints</title>
<path fill="none" stroke="#000000" d="M55.8581,-396C44.7257,-396 34.4,-396 34.4,-396 34.4,-396 34.4,-30 34.4,-30 34.4,-30 99.7745,-30 99.7745,-30"/>
<polygon fill="#000000" stroke="#000000" points="99.7745,-33.5001 109.7745,-30 99.7744,-26.5001 99.7745,-33.5001"/>
</g>
<!-- /Users/mmoscato/nasa/pvslib/pvslib&#45;gitlab__pvs7.0/lnexp&#45;&gt;/Users/mmoscato/nasa/pvslib/pvslib&#45;gitlab__pvs7.0/reals -->
<g id="edge17" class="edge">
<title>/Users/mmoscato/nasa/pvslib/pvslib&#45;gitlab__pvs7.0/lnexp&#45;&gt;/Users/mmoscato/nasa/pvslib/pvslib&#45;gitlab__pvs7.0/reals</title>
<path fill="none" stroke="#000000" d="M64.4896,-377.7884C64.4896,-377.7884 64.4896,-206.0064 64.4896,-206.0064"/>
<polygon fill="#000000" stroke="#000000" points="67.9897,-206.0064 64.4896,-196.0064 60.9897,-206.0065 67.9897,-206.0064"/>
</g>
<!-- /Users/mmoscato/nasa/pvslib/pvslib&#45;gitlab__pvs7.0/lnexp&#45;&gt;/Users/mmoscato/nasa/pvslib/pvslib&#45;gitlab__pvs7.0/series -->
<g id="edge18" class="edge">
<title>/Users/mmoscato/nasa/pvslib/pvslib&#45;gitlab__pvs7.0/lnexp&#45;&gt;/Users/mmoscato/nasa/pvslib/pvslib&#45;gitlab__pvs7.0/series</title>
<path fill="none" stroke="#000000" d="M107.1121,-377.9092C107.1121,-354.8672 107.1121,-318 107.1121,-318 107.1121,-318 137.7785,-318 137.7785,-318"/>
<polygon fill="#000000" stroke="#000000" points="137.7786,-321.5001 147.7785,-318 137.7785,-314.5001 137.7786,-321.5001"/>
</g>
<!-- /Users/mmoscato/nasa/pvslib/pvslib&#45;gitlab__pvs7.0/lnexp&#45;&gt;/Users/mmoscato/nasa/pvslib/pvslib&#45;gitlab__pvs7.0/structures -->
<g id="edge19" class="edge">
<title>/Users/mmoscato/nasa/pvslib/pvslib&#45;gitlab__pvs7.0/lnexp&#45;&gt;/Users/mmoscato/nasa/pvslib/pvslib&#45;gitlab__pvs7.0/structures</title>
<path fill="none" stroke="#000000" d="M72.9793,-377.9833C72.9793,-332.2015 72.9793,-215 72.9793,-215 72.9793,-215 126.5173,-215 126.5173,-215 126.5173,-215 126.5173,-134.4904 126.5173,-134.4904"/>
<polygon fill="#000000" stroke="#000000" points="130.0174,-134.4903 126.5173,-124.4904 123.0174,-134.4904 130.0174,-134.4903"/>
</g>
<!-- /Users/mmoscato/nasa/pvslib/pvslib&#45;gitlab__pvs7.0/lnexp&#45;&gt;/Users/mmoscato/pvs/7.1&#45;0&#45;g3fb4f25&#45;ix86&#45;MacOSX&#45;allegro/lib/finite_sets -->
<g id="edge20" class="edge">
<title>/Users/mmoscato/nasa/pvslib/pvslib&#45;gitlab__pvs7.0/lnexp&#45;&gt;/Users/mmoscato/pvs/7.1&#45;0&#45;g3fb4f25&#45;ix86&#45;MacOSX&#45;allegro/lib/finite_sets</title>
<path fill="none" stroke="#000000" d="M104.2241,-377.6793C104.2241,-346.8664 104.2241,-288 104.2241,-288 104.2241,-288 329.8701,-288 329.8701,-288 329.8701,-288 329.8701,-206.1643 329.8701,-206.1643"/>
<polygon fill="#000000" stroke="#000000" points="333.3702,-206.1642 329.8701,-196.1643 326.3702,-206.1643 333.3702,-206.1642"/>
</g>
<!-- /Users/mmoscato/nasa/pvslib/pvslib&#45;gitlab__pvs7.0/reals&#45;&gt;/Users/mmoscato/nasa/pvslib/pvslib&#45;gitlab__pvs7.0/ints -->
<g id="edge21" class="edge">
<title>/Users/mmoscato/nasa/pvslib/pvslib&#45;gitlab__pvs7.0/reals&#45;&gt;/Users/mmoscato/nasa/pvslib/pvslib&#45;gitlab__pvs7.0/ints</title>
<path fill="none" stroke="#000000" d="M78.8931,-159.9282C78.8931,-123.3519 78.8931,-44 78.8931,-44 78.8931,-44 99.9879,-44 99.9879,-44"/>
<polygon fill="#000000" stroke="#000000" points="99.9879,-47.5001 109.9879,-44 99.9878,-40.5001 99.9879,-47.5001"/>
</g>
<!-- /Users/mmoscato/nasa/pvslib/pvslib&#45;gitlab__pvs7.0/reals&#45;&gt;/Users/mmoscato/nasa/pvslib/pvslib&#45;gitlab__pvs7.0/structures -->
<g id="edge22" class="edge">
<title>/Users/mmoscato/nasa/pvslib/pvslib&#45;gitlab__pvs7.0/reals&#45;&gt;/Users/mmoscato/nasa/pvslib/pvslib&#45;gitlab__pvs7.0/structures</title>
<path fill="none" stroke="#000000" d="M105.8931,-159.8314C105.8931,-159.8314 105.8931,-134.4133 105.8931,-134.4133"/>
<polygon fill="#000000" stroke="#000000" points="109.3932,-134.4132 105.8931,-124.4133 102.3932,-134.4133 109.3932,-134.4132"/>
</g>
<!-- /Users/mmoscato/nasa/pvslib/pvslib&#45;gitlab__pvs7.0/series&#45;&gt;/Users/mmoscato/nasa/pvslib/pvslib&#45;gitlab__pvs7.0/analysis -->
<g id="edge23" class="edge">
<title>/Users/mmoscato/nasa/pvslib/pvslib&#45;gitlab__pvs7.0/series&#45;&gt;/Users/mmoscato/nasa/pvslib/pvslib&#45;gitlab__pvs7.0/analysis</title>
<path fill="none" stroke="#000000" d="M153.7759,-305.8314C153.7759,-305.8314 153.7759,-280.4133 153.7759,-280.4133"/>
<polygon fill="#000000" stroke="#000000" points="157.276,-280.4132 153.7759,-270.4133 150.276,-280.4133 157.276,-280.4132"/>
</g>
<!-- /Users/mmoscato/nasa/pvslib/pvslib&#45;gitlab__pvs7.0/series&#45;&gt;/Users/mmoscato/nasa/pvslib/pvslib&#45;gitlab__pvs7.0/ints -->
<g id="edge24" class="edge">
<title>/Users/mmoscato/nasa/pvslib/pvslib&#45;gitlab__pvs7.0/series&#45;&gt;/Users/mmoscato/nasa/pvslib/pvslib&#45;gitlab__pvs7.0/ints</title>
<path fill="none" stroke="#000000" d="M202.127,-318C228.243,-318 263.8052,-318 263.8052,-318 263.8052,-318 263.8052,-40 263.8052,-40 263.8052,-40 174.2029,-40 174.2029,-40"/>
<polygon fill="#000000" stroke="#000000" points="174.2029,-36.5001 164.2029,-40 174.2029,-43.5001 174.2029,-36.5001"/>
</g>
<!-- /Users/mmoscato/nasa/pvslib/pvslib&#45;gitlab__pvs7.0/series&#45;&gt;/Users/mmoscato/nasa/pvslib/pvslib&#45;gitlab__pvs7.0/orders -->
<g id="edge25" class="edge">
<title>/Users/mmoscato/nasa/pvslib/pvslib&#45;gitlab__pvs7.0/series&#45;&gt;/Users/mmoscato/nasa/pvslib/pvslib&#45;gitlab__pvs7.0/orders</title>
<path fill="none" stroke="#000000" d="M190.6667,-305.8042C190.6667,-305.8042 190.6667,-206.4251 190.6667,-206.4251"/>
<polygon fill="#000000" stroke="#000000" points="194.1668,-206.4251 190.6667,-196.4251 187.1668,-206.4251 194.1668,-206.4251"/>
</g>
<!-- /Users/mmoscato/nasa/pvslib/pvslib&#45;gitlab__pvs7.0/series&#45;&gt;/Users/mmoscato/nasa/pvslib/pvslib&#45;gitlab__pvs7.0/reals -->
<g id="edge26" class="edge">
<title>/Users/mmoscato/nasa/pvslib/pvslib&#45;gitlab__pvs7.0/series&#45;&gt;/Users/mmoscato/nasa/pvslib/pvslib&#45;gitlab__pvs7.0/reals</title>
<path fill="none" stroke="#000000" d="M162.3678,-305.8042C162.3678,-266.6663 162.3678,-178 162.3678,-178 162.3678,-178 120.3139,-178 120.3139,-178"/>
<polygon fill="#000000" stroke="#000000" points="120.3139,-174.5001 110.3139,-178 120.3139,-181.5001 120.3139,-174.5001"/>
</g>
<!-- /Users/mmoscato/nasa/pvslib/pvslib&#45;gitlab__pvs7.0/series&#45;&gt;/Users/mmoscato/nasa/pvslib/pvslib&#45;gitlab__pvs7.0/structures -->
<g id="edge27" class="edge">
<title>/Users/mmoscato/nasa/pvslib/pvslib&#45;gitlab__pvs7.0/series&#45;&gt;/Users/mmoscato/nasa/pvslib/pvslib&#45;gitlab__pvs7.0/structures</title>
<path fill="none" stroke="#000000" d="M165.1839,-305.7884C165.1839,-305.7884 165.1839,-134.0064 165.1839,-134.0064"/>
<polygon fill="#000000" stroke="#000000" points="168.684,-134.0064 165.1839,-124.0064 161.684,-134.0065 168.684,-134.0064"/>
</g>
<!-- /Users/mmoscato/nasa/pvslib/pvslib&#45;gitlab__pvs7.0/series&#45;&gt;/Users/mmoscato/pvs/7.1&#45;0&#45;g3fb4f25&#45;ix86&#45;MacOSX&#45;allegro/lib/finite_sets -->
<g id="edge28" class="edge">
<title>/Users/mmoscato/nasa/pvslib/pvslib&#45;gitlab__pvs7.0/series&#45;&gt;/Users/mmoscato/pvs/7.1&#45;0&#45;g3fb4f25&#45;ix86&#45;MacOSX&#45;allegro/lib/finite_sets</title>
<path fill="none" stroke="#000000" d="M202.2031,-330C249.5245,-330 342,-330 342,-330 342,-330 342,-206.0333 342,-206.0333"/>
<polygon fill="#000000" stroke="#000000" points="345.5001,-206.0333 342,-196.0333 338.5001,-206.0333 345.5001,-206.0333"/>
</g>
<!-- /Users/mmoscato/nasa/pvslib/pvslib&#45;gitlab__pvs7.0/structures&#45;&gt;/Users/mmoscato/nasa/pvslib/pvslib&#45;gitlab__pvs7.0/ints -->
<g id="edge29" class="edge">
<title>/Users/mmoscato/nasa/pvslib/pvslib&#45;gitlab__pvs7.0/structures&#45;&gt;/Users/mmoscato/nasa/pvslib/pvslib&#45;gitlab__pvs7.0/ints</title>
<path fill="none" stroke="#000000" d="M137,-87.8314C137,-87.8314 137,-62.4133 137,-62.4133"/>
<polygon fill="#000000" stroke="#000000" points="140.5001,-62.4132 137,-52.4133 133.5001,-62.4133 140.5001,-62.4132"/>
</g>
<!-- /Users/mmoscato/nasa/pvslib/pvslib&#45;gitlab__pvs7.0/trig&#45;&gt;/Users/mmoscato/nasa/pvslib/pvslib&#45;gitlab__pvs7.0/analysis -->
<g id="edge30" class="edge">
<title>/Users/mmoscato/nasa/pvslib/pvslib&#45;gitlab__pvs7.0/trig&#45;&gt;/Users/mmoscato/nasa/pvslib/pvslib&#45;gitlab__pvs7.0/analysis</title>
<path fill="none" stroke="#000000" d="M147.5595,-396C139.4994,-396 132.8,-396 132.8,-396 132.8,-396 132.8,-280.2377 132.8,-280.2377"/>
<polygon fill="#000000" stroke="#000000" points="136.3001,-280.2377 132.8,-270.2377 129.3001,-280.2377 136.3001,-280.2377"/>
</g>
<!-- /Users/mmoscato/nasa/pvslib/pvslib&#45;gitlab__pvs7.0/trig&#45;&gt;/Users/mmoscato/nasa/pvslib/pvslib&#45;gitlab__pvs7.0/ints -->
<g id="edge31" class="edge">
<title>/Users/mmoscato/nasa/pvslib/pvslib&#45;gitlab__pvs7.0/trig&#45;&gt;/Users/mmoscato/nasa/pvslib/pvslib&#45;gitlab__pvs7.0/ints</title>
<path fill="none" stroke="#000000" d="M202.1188,-399C234.6064,-399 284.7078,-399 284.7078,-399 284.7078,-399 284.7078,-28 284.7078,-28 284.7078,-28 174.0919,-28 174.0919,-28"/>
<polygon fill="#000000" stroke="#000000" points="174.0919,-24.5001 164.0919,-28 174.0918,-31.5001 174.0919,-24.5001"/>
</g>
<!-- /Users/mmoscato/nasa/pvslib/pvslib&#45;gitlab__pvs7.0/trig&#45;&gt;/Users/mmoscato/nasa/pvslib/pvslib&#45;gitlab__pvs7.0/orders -->
<g id="edge32" class="edge">
<title>/Users/mmoscato/nasa/pvslib/pvslib&#45;gitlab__pvs7.0/trig&#45;&gt;/Users/mmoscato/nasa/pvslib/pvslib&#45;gitlab__pvs7.0/orders</title>
<path fill="none" stroke="#000000" d="M202.1754,-385C206.0036,-385 208.6667,-385 208.6667,-385 208.6667,-385 208.6667,-206.0078 208.6667,-206.0078"/>
<polygon fill="#000000" stroke="#000000" points="212.1668,-206.0077 208.6667,-196.0078 205.1668,-206.0078 212.1668,-206.0077"/>
</g>
<!-- /Users/mmoscato/nasa/pvslib/pvslib&#45;gitlab__pvs7.0/trig&#45;&gt;/Users/mmoscato/nasa/pvslib/pvslib&#45;gitlab__pvs7.0/reals -->
<g id="edge33" class="edge">
<title>/Users/mmoscato/nasa/pvslib/pvslib&#45;gitlab__pvs7.0/trig&#45;&gt;/Users/mmoscato/nasa/pvslib/pvslib&#45;gitlab__pvs7.0/reals</title>
<path fill="none" stroke="#000000" d="M166,-377.9445C166,-366.561 166,-354 166,-354 166,-354 89.9586,-354 89.9586,-354 89.9586,-354 89.9586,-206.1722 89.9586,-206.1722"/>
<polygon fill="#000000" stroke="#000000" points="93.4587,-206.1722 89.9586,-196.1722 86.4587,-206.1722 93.4587,-206.1722"/>
</g>
<!-- /Users/mmoscato/nasa/pvslib/pvslib&#45;gitlab__pvs7.0/trig&#45;&gt;/Users/mmoscato/nasa/pvslib/pvslib&#45;gitlab__pvs7.0/series -->
<g id="edge34" class="edge">
<title>/Users/mmoscato/nasa/pvslib/pvslib&#45;gitlab__pvs7.0/trig&#45;&gt;/Users/mmoscato/nasa/pvslib/pvslib&#45;gitlab__pvs7.0/series</title>
<path fill="none" stroke="#000000" d="M184,-377.8314C184,-377.8314 184,-352.4133 184,-352.4133"/>
<polygon fill="#000000" stroke="#000000" points="187.5001,-352.4132 184,-342.4133 180.5001,-352.4133 187.5001,-352.4132"/>
</g>
<!-- /Users/mmoscato/nasa/pvslib/pvslib&#45;gitlab__pvs7.0/trig&#45;&gt;/Users/mmoscato/nasa/pvslib/pvslib&#45;gitlab__pvs7.0/structures -->
<g id="edge35" class="edge">
<title>/Users/mmoscato/nasa/pvslib/pvslib&#45;gitlab__pvs7.0/trig&#45;&gt;/Users/mmoscato/nasa/pvslib/pvslib&#45;gitlab__pvs7.0/structures</title>
<path fill="none" stroke="#000000" d="M202.2273,-392C221.1183,-392 242.9026,-392 242.9026,-392 242.9026,-392 242.9026,-106 242.9026,-106 242.9026,-106 182.264,-106 182.264,-106"/>
<polygon fill="#000000" stroke="#000000" points="182.2641,-102.5001 172.264,-106 182.264,-109.5001 182.2641,-102.5001"/>
</g>
<!-- /Users/mmoscato/nasa/pvslib/pvslib&#45;gitlab__pvs7.0/trig&#45;&gt;/Users/mmoscato/pvs/7.1&#45;0&#45;g3fb4f25&#45;ix86&#45;MacOSX&#45;allegro/lib/finite_sets -->
<g id="edge36" class="edge">
<title>/Users/mmoscato/nasa/pvslib/pvslib&#45;gitlab__pvs7.0/trig&#45;&gt;/Users/mmoscato/pvs/7.1&#45;0&#45;g3fb4f25&#45;ix86&#45;MacOSX&#45;allegro/lib/finite_sets</title>
<path fill="none" stroke="#000000" d="M202.206,-406C252.317,-406 354.1299,-406 354.1299,-406 354.1299,-406 354.1299,-206.2728 354.1299,-206.2728"/>
<polygon fill="#000000" stroke="#000000" points="357.63,-206.2728 354.1299,-196.2728 350.63,-206.2728 357.63,-206.2728"/>
</g>
</g>
</svg>
