<?xml version="1.0" encoding="UTF-8" standalone="no"?>
<!DOCTYPE svg PUBLIC "-//W3C//DTD SVG 1.1//EN"
 "http://www.w3.org/Graphics/SVG/1.1/DTD/svg11.dtd">
<!-- Generated by graphviz version 2.40.1 (20161225.0304)
 -->
<!-- Title: CCG Pages: 1 -->
<svg width="318pt" height="396pt"
 viewBox="0.00 0.00 318.00 396.00" xmlns="http://www.w3.org/2000/svg" xmlns:xlink="http://www.w3.org/1999/xlink">
<g id="graph0" class="graph" transform="scale(1 1) rotate(0) translate(4 392)">
<title>CCG</title>
<polygon fill="#ffffff" stroke="transparent" points="-4,4 -4,-392 314,-392 314,4 -4,4"/>
<g id="clust1" class="cluster">
<title>cluster_NASALib</title>
<polygon fill="none" stroke="#000000" points="8,-90 8,-380 302,-380 302,-90 8,-90"/>
<text text-anchor="middle" x="155" y="-364.8" font-family="Times,serif" font-size="14.00" fill="#000000">NASALib</text>
</g>
<g id="clust2" class="cluster">
<title>cluster_PVS Prelude</title>
<polygon fill="none" stroke="#000000" points="156,-8 156,-82 244,-82 244,-8 156,-8"/>
<text text-anchor="middle" x="200" y="-66.8" font-family="Times,serif" font-size="14.00" fill="#000000">PVS Prelude</text>
</g>
<!-- /Users/mmoscato/nasa/pvslib/pvslib&#45;gitlab__pvs7.0/CCG -->
<g id="node1" class="node">
<title>/Users/mmoscato/nasa/pvslib/pvslib&#45;gitlab__pvs7.0/CCG</title>
<polygon fill="#f7e28d" stroke="#000000" points="161,-350 107,-350 107,-314 161,-314 161,-350"/>
<text text-anchor="middle" x="134" y="-327.8" font-family="Times,serif" font-size="14.00" fill="#000000">CCG</text>
</g>
<!-- /Users/mmoscato/nasa/pvslib/pvslib&#45;gitlab__pvs7.0/digraphs -->
<g id="node2" class="node">
<title>/Users/mmoscato/nasa/pvslib/pvslib&#45;gitlab__pvs7.0/digraphs</title>
<polygon fill="#fcfcd7" stroke="#000000" points="192.2142,-278 127.7858,-278 127.7858,-242 192.2142,-242 192.2142,-278"/>
<text text-anchor="middle" x="160" y="-255.8" font-family="Times,serif" font-size="14.00" fill="#000000">digraphs</text>
</g>
<!-- /Users/mmoscato/nasa/pvslib/pvslib&#45;gitlab__pvs7.0/CCG&#45;&gt;/Users/mmoscato/nasa/pvslib/pvslib&#45;gitlab__pvs7.0/digraphs -->
<g id="edge1" class="edge">
<title>/Users/mmoscato/nasa/pvslib/pvslib&#45;gitlab__pvs7.0/CCG&#45;&gt;/Users/mmoscato/nasa/pvslib/pvslib&#45;gitlab__pvs7.0/digraphs</title>
<path fill="none" stroke="#000000" d="M144.4465,-313.8314C144.4465,-313.8314 144.4465,-288.4133 144.4465,-288.4133"/>
<polygon fill="#000000" stroke="#000000" points="147.9466,-288.4132 144.4465,-278.4133 140.9466,-288.4133 147.9466,-288.4132"/>
</g>
<!-- /Users/mmoscato/nasa/pvslib/pvslib&#45;gitlab__pvs7.0/ints -->
<g id="node3" class="node">
<title>/Users/mmoscato/nasa/pvslib/pvslib&#45;gitlab__pvs7.0/ints</title>
<polygon fill="#fcfcd7" stroke="#000000" points="169,-134 115,-134 115,-98 169,-98 169,-134"/>
<text text-anchor="middle" x="142" y="-111.8" font-family="Times,serif" font-size="14.00" fill="#000000">ints</text>
</g>
<!-- /Users/mmoscato/nasa/pvslib/pvslib&#45;gitlab__pvs7.0/CCG&#45;&gt;/Users/mmoscato/nasa/pvslib/pvslib&#45;gitlab__pvs7.0/ints -->
<g id="edge2" class="edge">
<title>/Users/mmoscato/nasa/pvslib/pvslib&#45;gitlab__pvs7.0/CCG&#45;&gt;/Users/mmoscato/nasa/pvslib/pvslib&#45;gitlab__pvs7.0/ints</title>
<path fill="none" stroke="#000000" d="M106.6515,-332C101.8703,-332 98.3931,-332 98.3931,-332 98.3931,-332 98.3931,-122 98.3931,-122 98.3931,-122 104.6307,-122 104.6307,-122"/>
<polygon fill="#000000" stroke="#000000" points="104.6307,-125.5001 114.6307,-122 104.6306,-118.5001 104.6307,-125.5001"/>
</g>
<!-- /Users/mmoscato/nasa/pvslib/pvslib&#45;gitlab__pvs7.0/orders -->
<g id="node4" class="node">
<title>/Users/mmoscato/nasa/pvslib/pvslib&#45;gitlab__pvs7.0/orders</title>
<polygon fill="#fcfcd7" stroke="#000000" points="269,-206 215,-206 215,-170 269,-170 269,-206"/>
<text text-anchor="middle" x="242" y="-183.8" font-family="Times,serif" font-size="14.00" fill="#000000">orders</text>
</g>
<!-- /Users/mmoscato/nasa/pvslib/pvslib&#45;gitlab__pvs7.0/CCG&#45;&gt;/Users/mmoscato/nasa/pvslib/pvslib&#45;gitlab__pvs7.0/orders -->
<g id="edge3" class="edge">
<title>/Users/mmoscato/nasa/pvslib/pvslib&#45;gitlab__pvs7.0/CCG&#45;&gt;/Users/mmoscato/nasa/pvslib/pvslib&#45;gitlab__pvs7.0/orders</title>
<path fill="none" stroke="#000000" d="M161.1569,-332C178.6098,-332 198.0356,-332 198.0356,-332 198.0356,-332 198.0356,-197 198.0356,-197 198.0356,-197 204.9077,-197 204.9077,-197"/>
<polygon fill="#000000" stroke="#000000" points="204.9077,-200.5001 214.9077,-197 204.9076,-193.5001 204.9077,-200.5001"/>
</g>
<!-- /Users/mmoscato/nasa/pvslib/pvslib&#45;gitlab__pvs7.0/reals -->
<g id="node5" class="node">
<title>/Users/mmoscato/nasa/pvslib/pvslib&#45;gitlab__pvs7.0/reals</title>
<polygon fill="#fcfcd7" stroke="#000000" points="90,-278 36,-278 36,-242 90,-242 90,-278"/>
<text text-anchor="middle" x="63" y="-255.8" font-family="Times,serif" font-size="14.00" fill="#000000">reals</text>
</g>
<!-- /Users/mmoscato/nasa/pvslib/pvslib&#45;gitlab__pvs7.0/CCG&#45;&gt;/Users/mmoscato/nasa/pvslib/pvslib&#45;gitlab__pvs7.0/reals -->
<g id="edge4" class="edge">
<title>/Users/mmoscato/nasa/pvslib/pvslib&#45;gitlab__pvs7.0/CCG&#45;&gt;/Users/mmoscato/nasa/pvslib/pvslib&#45;gitlab__pvs7.0/reals</title>
<path fill="none" stroke="#000000" d="M117.4465,-313.9652C117.4465,-294.4238 117.4465,-266 117.4465,-266 117.4465,-266 100.2233,-266 100.2233,-266"/>
<polygon fill="#000000" stroke="#000000" points="100.2233,-262.5001 90.2233,-266 100.2232,-269.5001 100.2233,-262.5001"/>
</g>
<!-- /Users/mmoscato/nasa/pvslib/pvslib&#45;gitlab__pvs7.0/sets_aux -->
<g id="node6" class="node">
<title>/Users/mmoscato/nasa/pvslib/pvslib&#45;gitlab__pvs7.0/sets_aux</title>
<polygon fill="#fcfcd7" stroke="#000000" points="274.2142,-278 209.7858,-278 209.7858,-242 274.2142,-242 274.2142,-278"/>
<text text-anchor="middle" x="242" y="-255.8" font-family="Times,serif" font-size="14.00" fill="#000000">sets_aux</text>
</g>
<!-- /Users/mmoscato/nasa/pvslib/pvslib&#45;gitlab__pvs7.0/CCG&#45;&gt;/Users/mmoscato/nasa/pvslib/pvslib&#45;gitlab__pvs7.0/sets_aux -->
<g id="edge5" class="edge">
<title>/Users/mmoscato/nasa/pvslib/pvslib&#45;gitlab__pvs7.0/CCG&#45;&gt;/Users/mmoscato/nasa/pvslib/pvslib&#45;gitlab__pvs7.0/sets_aux</title>
<path fill="none" stroke="#000000" d="M161.253,-341C193.2471,-341 242,-341 242,-341 242,-341 242,-288.3802 242,-288.3802"/>
<polygon fill="#000000" stroke="#000000" points="245.5001,-288.3801 242,-278.3802 238.5001,-288.3802 245.5001,-288.3801"/>
</g>
<!-- /Users/mmoscato/nasa/pvslib/pvslib&#45;gitlab__pvs7.0/structures -->
<g id="node7" class="node">
<title>/Users/mmoscato/nasa/pvslib/pvslib&#45;gitlab__pvs7.0/structures</title>
<polygon fill="#fcfcd7" stroke="#000000" points="177.429,-206 106.571,-206 106.571,-170 177.429,-170 177.429,-206"/>
<text text-anchor="middle" x="142" y="-183.8" font-family="Times,serif" font-size="14.00" fill="#000000">structures</text>
</g>
<!-- /Users/mmoscato/nasa/pvslib/pvslib&#45;gitlab__pvs7.0/CCG&#45;&gt;/Users/mmoscato/nasa/pvslib/pvslib&#45;gitlab__pvs7.0/structures -->
<g id="edge6" class="edge">
<title>/Users/mmoscato/nasa/pvslib/pvslib&#45;gitlab__pvs7.0/CCG&#45;&gt;/Users/mmoscato/nasa/pvslib/pvslib&#45;gitlab__pvs7.0/structures</title>
<path fill="none" stroke="#000000" d="M122.6698,-313.7623C122.6698,-313.7623 122.6698,-216.0896 122.6698,-216.0896"/>
<polygon fill="#000000" stroke="#000000" points="126.1699,-216.0896 122.6698,-206.0896 119.1699,-216.0897 126.1699,-216.0896"/>
</g>
<!-- /Users/mmoscato/pvs/7.1&#45;0&#45;gbe4ad5c&#45;ix86&#45;MacOSX&#45;allegro/lib/finite_sets -->
<g id="node8" class="node">
<title>/Users/mmoscato/pvs/7.1&#45;0&#45;gbe4ad5c&#45;ix86&#45;MacOSX&#45;allegro/lib/finite_sets</title>
<polygon fill="#fcfcd7" stroke="#000000" points="236.2796,-52 163.7204,-52 163.7204,-16 236.2796,-16 236.2796,-52"/>
<text text-anchor="middle" x="200" y="-29.8" font-family="Times,serif" font-size="14.00" fill="#000000">finite_sets</text>
</g>
<!-- /Users/mmoscato/nasa/pvslib/pvslib&#45;gitlab__pvs7.0/CCG&#45;&gt;/Users/mmoscato/pvs/7.1&#45;0&#45;gbe4ad5c&#45;ix86&#45;MacOSX&#45;allegro/lib/finite_sets -->
<g id="edge7" class="edge">
<title>/Users/mmoscato/nasa/pvslib/pvslib&#45;gitlab__pvs7.0/CCG&#45;&gt;/Users/mmoscato/pvs/7.1&#45;0&#45;gbe4ad5c&#45;ix86&#45;MacOSX&#45;allegro/lib/finite_sets</title>
<path fill="none" stroke="#000000" d="M161.3204,-323C177.5809,-323 195.0713,-323 195.0713,-323 195.0713,-323 195.0713,-62.0782 195.0713,-62.0782"/>
<polygon fill="#000000" stroke="#000000" points="198.5714,-62.0782 195.0713,-52.0782 191.5714,-62.0783 198.5714,-62.0782"/>
</g>
<!-- /Users/mmoscato/nasa/pvslib/pvslib&#45;gitlab__pvs7.0/digraphs&#45;&gt;/Users/mmoscato/nasa/pvslib/pvslib&#45;gitlab__pvs7.0/ints -->
<g id="edge8" class="edge">
<title>/Users/mmoscato/nasa/pvslib/pvslib&#45;gitlab__pvs7.0/digraphs&#45;&gt;/Users/mmoscato/nasa/pvslib/pvslib&#45;gitlab__pvs7.0/ints</title>
<path fill="none" stroke="#000000" d="M180.9371,-241.7933C180.9371,-204.9441 180.9371,-125 180.9371,-125 180.9371,-125 179.0431,-125 179.0431,-125"/>
<polygon fill="#000000" stroke="#000000" points="179.0432,-121.5001 169.0431,-125 179.0431,-128.5001 179.0432,-121.5001"/>
</g>
<!-- /Users/mmoscato/nasa/pvslib/pvslib&#45;gitlab__pvs7.0/digraphs&#45;&gt;/Users/mmoscato/nasa/pvslib/pvslib&#45;gitlab__pvs7.0/orders -->
<g id="edge9" class="edge">
<title>/Users/mmoscato/nasa/pvslib/pvslib&#45;gitlab__pvs7.0/digraphs&#45;&gt;/Users/mmoscato/nasa/pvslib/pvslib&#45;gitlab__pvs7.0/orders</title>
<path fill="none" stroke="#000000" d="M188.3837,-241.6198C188.3837,-217.7215 188.3837,-179 188.3837,-179 188.3837,-179 204.8777,-179 204.8777,-179"/>
<polygon fill="#000000" stroke="#000000" points="204.8777,-182.5001 214.8777,-179 204.8776,-175.5001 204.8777,-182.5001"/>
</g>
<!-- /Users/mmoscato/nasa/pvslib/pvslib&#45;gitlab__pvs7.0/digraphs&#45;&gt;/Users/mmoscato/nasa/pvslib/pvslib&#45;gitlab__pvs7.0/structures -->
<g id="edge10" class="edge">
<title>/Users/mmoscato/nasa/pvslib/pvslib&#45;gitlab__pvs7.0/digraphs&#45;&gt;/Users/mmoscato/nasa/pvslib/pvslib&#45;gitlab__pvs7.0/structures</title>
<path fill="none" stroke="#000000" d="M152.5535,-241.8314C152.5535,-241.8314 152.5535,-216.4133 152.5535,-216.4133"/>
<polygon fill="#000000" stroke="#000000" points="156.0536,-216.4132 152.5535,-206.4133 149.0536,-216.4133 156.0536,-216.4132"/>
</g>
<!-- /Users/mmoscato/nasa/pvslib/pvslib&#45;gitlab__pvs7.0/digraphs&#45;&gt;/Users/mmoscato/pvs/7.1&#45;0&#45;gbe4ad5c&#45;ix86&#45;MacOSX&#45;allegro/lib/finite_sets -->
<g id="edge11" class="edge">
<title>/Users/mmoscato/nasa/pvslib/pvslib&#45;gitlab__pvs7.0/digraphs&#45;&gt;/Users/mmoscato/pvs/7.1&#45;0&#45;gbe4ad5c&#45;ix86&#45;MacOSX&#45;allegro/lib/finite_sets</title>
<path fill="none" stroke="#000000" d="M184.6604,-241.8875C184.6604,-241.8875 184.6604,-62.1988 184.6604,-62.1988"/>
<polygon fill="#000000" stroke="#000000" points="188.1605,-62.1987 184.6604,-52.1988 181.1605,-62.1988 188.1605,-62.1987"/>
</g>
<!-- /Users/mmoscato/nasa/pvslib/pvslib&#45;gitlab__pvs7.0/ints&#45;&gt;/Users/mmoscato/pvs/7.1&#45;0&#45;gbe4ad5c&#45;ix86&#45;MacOSX&#45;allegro/lib/finite_sets -->
<g id="edge12" class="edge">
<title>/Users/mmoscato/nasa/pvslib/pvslib&#45;gitlab__pvs7.0/ints&#45;&gt;/Users/mmoscato/pvs/7.1&#45;0&#45;gbe4ad5c&#45;ix86&#45;MacOSX&#45;allegro/lib/finite_sets</title>
<path fill="none" stroke="#000000" d="M169.0402,-107C171.5102,-107 173.1069,-107 173.1069,-107 173.1069,-107 173.1069,-62.0449 173.1069,-62.0449"/>
<polygon fill="#000000" stroke="#000000" points="176.607,-62.0449 173.1069,-52.0449 169.607,-62.045 176.607,-62.0449"/>
</g>
<!-- /Users/mmoscato/nasa/pvslib/pvslib&#45;gitlab__pvs7.0/orders&#45;&gt;/Users/mmoscato/pvs/7.1&#45;0&#45;gbe4ad5c&#45;ix86&#45;MacOSX&#45;allegro/lib/finite_sets -->
<g id="edge13" class="edge">
<title>/Users/mmoscato/nasa/pvslib/pvslib&#45;gitlab__pvs7.0/orders&#45;&gt;/Users/mmoscato/pvs/7.1&#45;0&#45;gbe4ad5c&#45;ix86&#45;MacOSX&#45;allegro/lib/finite_sets</title>
<path fill="none" stroke="#000000" d="M225.6948,-169.7294C225.6948,-169.7294 225.6948,-62.2468 225.6948,-62.2468"/>
<polygon fill="#000000" stroke="#000000" points="229.1949,-62.2468 225.6948,-52.2468 222.1949,-62.2468 229.1949,-62.2468"/>
</g>
<!-- /Users/mmoscato/nasa/pvslib/pvslib&#45;gitlab__pvs7.0/reals&#45;&gt;/Users/mmoscato/nasa/pvslib/pvslib&#45;gitlab__pvs7.0/ints -->
<g id="edge14" class="edge">
<title>/Users/mmoscato/nasa/pvslib/pvslib&#45;gitlab__pvs7.0/reals&#45;&gt;/Users/mmoscato/nasa/pvslib/pvslib&#45;gitlab__pvs7.0/ints</title>
<path fill="none" stroke="#000000" d="M63,-241.9065C63,-202.0111 63,-110 63,-110 63,-110 104.8127,-110 104.8127,-110"/>
<polygon fill="#000000" stroke="#000000" points="104.8127,-113.5001 114.8127,-110 104.8126,-106.5001 104.8127,-113.5001"/>
</g>
<!-- /Users/mmoscato/nasa/pvslib/pvslib&#45;gitlab__pvs7.0/reals&#45;&gt;/Users/mmoscato/nasa/pvslib/pvslib&#45;gitlab__pvs7.0/structures -->
<g id="edge15" class="edge">
<title>/Users/mmoscato/nasa/pvslib/pvslib&#45;gitlab__pvs7.0/reals&#45;&gt;/Users/mmoscato/nasa/pvslib/pvslib&#45;gitlab__pvs7.0/structures</title>
<path fill="none" stroke="#000000" d="M90.2031,-254C101.5871,-254 112.2233,-254 112.2233,-254 112.2233,-254 112.2233,-216.0348 112.2233,-216.0348"/>
<polygon fill="#000000" stroke="#000000" points="115.7234,-216.0348 112.2233,-206.0348 108.7234,-216.0348 115.7234,-216.0348"/>
</g>
<!-- /Users/mmoscato/nasa/pvslib/pvslib&#45;gitlab__pvs7.0/sets_aux&#45;&gt;/Users/mmoscato/nasa/pvslib/pvslib&#45;gitlab__pvs7.0/ints -->
<g id="edge16" class="edge">
<title>/Users/mmoscato/nasa/pvslib/pvslib&#45;gitlab__pvs7.0/sets_aux&#45;&gt;/Users/mmoscato/nasa/pvslib/pvslib&#45;gitlab__pvs7.0/ints</title>
<path fill="none" stroke="#000000" d="M209.5766,-260C206.1953,-260 203.9644,-260 203.9644,-260 203.9644,-260 203.9644,-116 203.9644,-116 203.9644,-116 179.3588,-116 179.3588,-116"/>
<polygon fill="#000000" stroke="#000000" points="179.3589,-112.5001 169.3588,-116 179.3588,-119.5001 179.3589,-112.5001"/>
</g>
<!-- /Users/mmoscato/nasa/pvslib/pvslib&#45;gitlab__pvs7.0/sets_aux&#45;&gt;/Users/mmoscato/nasa/pvslib/pvslib&#45;gitlab__pvs7.0/orders -->
<g id="edge17" class="edge">
<title>/Users/mmoscato/nasa/pvslib/pvslib&#45;gitlab__pvs7.0/sets_aux&#45;&gt;/Users/mmoscato/nasa/pvslib/pvslib&#45;gitlab__pvs7.0/orders</title>
<path fill="none" stroke="#000000" d="M242,-241.8314C242,-241.8314 242,-216.4133 242,-216.4133"/>
<polygon fill="#000000" stroke="#000000" points="245.5001,-216.4132 242,-206.4133 238.5001,-216.4133 245.5001,-216.4132"/>
</g>
<!-- /Users/mmoscato/nasa/pvslib/pvslib&#45;gitlab__pvs7.0/sets_aux&#45;&gt;/Users/mmoscato/nasa/pvslib/pvslib&#45;gitlab__pvs7.0/structures -->
<g id="edge18" class="edge">
<title>/Users/mmoscato/nasa/pvslib/pvslib&#45;gitlab__pvs7.0/sets_aux&#45;&gt;/Users/mmoscato/nasa/pvslib/pvslib&#45;gitlab__pvs7.0/structures</title>
<path fill="none" stroke="#000000" d="M209.695,-269C204.6135,-269 201,-269 201,-269 201,-269 201,-188 201,-188 201,-188 187.3424,-188 187.3424,-188"/>
<polygon fill="#000000" stroke="#000000" points="187.3424,-184.5001 177.3424,-188 187.3424,-191.5001 187.3424,-184.5001"/>
</g>
<!-- /Users/mmoscato/nasa/pvslib/pvslib&#45;gitlab__pvs7.0/sets_aux&#45;&gt;/Users/mmoscato/pvs/7.1&#45;0&#45;gbe4ad5c&#45;ix86&#45;MacOSX&#45;allegro/lib/finite_sets -->
<g id="edge19" class="edge">
<title>/Users/mmoscato/nasa/pvslib/pvslib&#45;gitlab__pvs7.0/sets_aux&#45;&gt;/Users/mmoscato/pvs/7.1&#45;0&#45;gbe4ad5c&#45;ix86&#45;MacOSX&#45;allegro/lib/finite_sets</title>
<path fill="none" stroke="#000000" d="M209.6807,-251C207.9648,-251 206.9287,-251 206.9287,-251 206.9287,-251 206.9287,-62.1281 206.9287,-62.1281"/>
<polygon fill="#000000" stroke="#000000" points="210.4288,-62.128 206.9287,-52.1281 203.4288,-62.1281 210.4288,-62.128"/>
</g>
<!-- /Users/mmoscato/nasa/pvslib/pvslib&#45;gitlab__pvs7.0/structures&#45;&gt;/Users/mmoscato/nasa/pvslib/pvslib&#45;gitlab__pvs7.0/ints -->
<g id="edge20" class="edge">
<title>/Users/mmoscato/nasa/pvslib/pvslib&#45;gitlab__pvs7.0/structures&#45;&gt;/Users/mmoscato/nasa/pvslib/pvslib&#45;gitlab__pvs7.0/ints</title>
<path fill="none" stroke="#000000" d="M142,-169.8314C142,-169.8314 142,-144.4133 142,-144.4133"/>
<polygon fill="#000000" stroke="#000000" points="145.5001,-144.4132 142,-134.4133 138.5001,-144.4133 145.5001,-144.4132"/>
</g>
</g>
</svg>
