<?xml version="1.0" encoding="UTF-8" standalone="no"?>
<!DOCTYPE svg PUBLIC "-//W3C//DTD SVG 1.1//EN"
 "http://www.w3.org/Graphics/SVG/1.1/DTD/svg11.dtd">
<!-- Generated by graphviz version 2.40.1 (20161225.0304)
 -->
<!-- Title: Riemann Pages: 1 -->
<svg width="458pt" height="604pt"
 viewBox="0.00 0.00 458.00 604.00" xmlns="http://www.w3.org/2000/svg" xmlns:xlink="http://www.w3.org/1999/xlink">
<g id="graph0" class="graph" transform="scale(1 1) rotate(0) translate(4 600)">
<title>Riemann</title>
<polygon fill="#ffffff" stroke="transparent" points="-4,4 -4,-600 454,-600 454,4 -4,4"/>
<g id="clust1" class="cluster">
<title>cluster_NASALib</title>
<polygon fill="none" stroke="#000000" points="8,-8 8,-588 346,-588 346,-8 8,-8"/>
<text text-anchor="middle" x="177" y="-572.8" font-family="Times,serif" font-size="14.00" fill="#000000">NASALib</text>
</g>
<g id="clust2" class="cluster">
<title>cluster_PVS Prelude</title>
<polygon fill="none" stroke="#000000" points="354,-152 354,-226 442,-226 442,-152 354,-152"/>
<text text-anchor="middle" x="398" y="-210.8" font-family="Times,serif" font-size="14.00" fill="#000000">PVS Prelude</text>
</g>
<!-- /Users/mmoscato/nasa/pvslib/pvslib&#45;gitlab__pvs7.0/Riemann -->
<g id="node1" class="node">
<title>/Users/mmoscato/nasa/pvslib/pvslib&#45;gitlab__pvs7.0/Riemann</title>
<polygon fill="#f7e28d" stroke="#000000" points="244.0465,-558 177.9535,-558 177.9535,-522 244.0465,-522 244.0465,-558"/>
<text text-anchor="middle" x="211" y="-535.8" font-family="Times,serif" font-size="14.00" fill="#000000">Riemann</text>
</g>
<!-- /Users/mmoscato/nasa/pvslib/pvslib&#45;gitlab__pvs7.0/analysis -->
<g id="node2" class="node">
<title>/Users/mmoscato/nasa/pvslib/pvslib&#45;gitlab__pvs7.0/analysis</title>
<polygon fill="#fcfcd7" stroke="#000000" points="177.6036,-270 116.3964,-270 116.3964,-234 177.6036,-234 177.6036,-270"/>
<text text-anchor="middle" x="147" y="-247.8" font-family="Times,serif" font-size="14.00" fill="#000000">analysis</text>
</g>
<!-- /Users/mmoscato/nasa/pvslib/pvslib&#45;gitlab__pvs7.0/Riemann&#45;&gt;/Users/mmoscato/nasa/pvslib/pvslib&#45;gitlab__pvs7.0/analysis -->
<g id="edge1" class="edge">
<title>/Users/mmoscato/nasa/pvslib/pvslib&#45;gitlab__pvs7.0/Riemann&#45;&gt;/Users/mmoscato/nasa/pvslib/pvslib&#45;gitlab__pvs7.0/analysis</title>
<path fill="none" stroke="#000000" d="M177.9403,-528C161.7306,-528 145.6465,-528 145.6465,-528 145.6465,-528 145.6465,-280.1091 145.6465,-280.1091"/>
<polygon fill="#000000" stroke="#000000" points="149.1466,-280.1091 145.6465,-270.1091 142.1466,-280.1092 149.1466,-280.1091"/>
</g>
<!-- /Users/mmoscato/nasa/pvslib/pvslib&#45;gitlab__pvs7.0/interval_arith -->
<g id="node3" class="node">
<title>/Users/mmoscato/nasa/pvslib/pvslib&#45;gitlab__pvs7.0/interval_arith</title>
<polygon fill="#fcfcd7" stroke="#000000" points="256.915,-486 165.085,-486 165.085,-450 256.915,-450 256.915,-486"/>
<text text-anchor="middle" x="211" y="-463.8" font-family="Times,serif" font-size="14.00" fill="#000000">interval_arith</text>
</g>
<!-- /Users/mmoscato/nasa/pvslib/pvslib&#45;gitlab__pvs7.0/Riemann&#45;&gt;/Users/mmoscato/nasa/pvslib/pvslib&#45;gitlab__pvs7.0/interval_arith -->
<g id="edge2" class="edge">
<title>/Users/mmoscato/nasa/pvslib/pvslib&#45;gitlab__pvs7.0/Riemann&#45;&gt;/Users/mmoscato/nasa/pvslib/pvslib&#45;gitlab__pvs7.0/interval_arith</title>
<path fill="none" stroke="#000000" d="M211,-521.8314C211,-521.8314 211,-496.4133 211,-496.4133"/>
<polygon fill="#000000" stroke="#000000" points="214.5001,-496.4132 211,-486.4133 207.5001,-496.4133 214.5001,-496.4132"/>
</g>
<!-- /Users/mmoscato/nasa/pvslib/pvslib&#45;gitlab__pvs7.0/ints -->
<g id="node4" class="node">
<title>/Users/mmoscato/nasa/pvslib/pvslib&#45;gitlab__pvs7.0/ints</title>
<polygon fill="#fcfcd7" stroke="#000000" points="196,-52 142,-52 142,-16 196,-16 196,-52"/>
<text text-anchor="middle" x="169" y="-29.8" font-family="Times,serif" font-size="14.00" fill="#000000">ints</text>
</g>
<!-- /Users/mmoscato/nasa/pvslib/pvslib&#45;gitlab__pvs7.0/Riemann&#45;&gt;/Users/mmoscato/nasa/pvslib/pvslib&#45;gitlab__pvs7.0/ints -->
<g id="edge3" class="edge">
<title>/Users/mmoscato/nasa/pvslib/pvslib&#45;gitlab__pvs7.0/Riemann&#45;&gt;/Users/mmoscato/nasa/pvslib/pvslib&#45;gitlab__pvs7.0/ints</title>
<path fill="none" stroke="#000000" d="M177.611,-552C128.3593,-552 42,-552 42,-552 42,-552 42,-23 42,-23 42,-23 131.7553,-23 131.7553,-23"/>
<polygon fill="#000000" stroke="#000000" points="131.7553,-26.5001 141.7553,-23 131.7553,-19.5001 131.7553,-26.5001"/>
</g>
<!-- /Users/mmoscato/nasa/pvslib/pvslib&#45;gitlab__pvs7.0/lnexp -->
<g id="node5" class="node">
<title>/Users/mmoscato/nasa/pvslib/pvslib&#45;gitlab__pvs7.0/lnexp</title>
<polygon fill="#fcfcd7" stroke="#000000" points="126,-414 72,-414 72,-378 126,-378 126,-414"/>
<text text-anchor="middle" x="99" y="-391.8" font-family="Times,serif" font-size="14.00" fill="#000000">lnexp</text>
</g>
<!-- /Users/mmoscato/nasa/pvslib/pvslib&#45;gitlab__pvs7.0/Riemann&#45;&gt;/Users/mmoscato/nasa/pvslib/pvslib&#45;gitlab__pvs7.0/lnexp -->
<g id="edge4" class="edge">
<title>/Users/mmoscato/nasa/pvslib/pvslib&#45;gitlab__pvs7.0/Riemann&#45;&gt;/Users/mmoscato/nasa/pvslib/pvslib&#45;gitlab__pvs7.0/lnexp</title>
<path fill="none" stroke="#000000" d="M177.6995,-534C144.685,-534 99,-534 99,-534 99,-534 99,-424.0411 99,-424.0411"/>
<polygon fill="#000000" stroke="#000000" points="102.5001,-424.0411 99,-414.0411 95.5001,-424.0411 102.5001,-424.0411"/>
</g>
<!-- /Users/mmoscato/nasa/pvslib/pvslib&#45;gitlab__pvs7.0/orders -->
<g id="node6" class="node">
<title>/Users/mmoscato/nasa/pvslib/pvslib&#45;gitlab__pvs7.0/orders</title>
<polygon fill="#fcfcd7" stroke="#000000" points="270,-196 216,-196 216,-160 270,-160 270,-196"/>
<text text-anchor="middle" x="243" y="-173.8" font-family="Times,serif" font-size="14.00" fill="#000000">orders</text>
</g>
<!-- /Users/mmoscato/nasa/pvslib/pvslib&#45;gitlab__pvs7.0/Riemann&#45;&gt;/Users/mmoscato/nasa/pvslib/pvslib&#45;gitlab__pvs7.0/orders -->
<g id="edge5" class="edge">
<title>/Users/mmoscato/nasa/pvslib/pvslib&#45;gitlab__pvs7.0/Riemann&#45;&gt;/Users/mmoscato/nasa/pvslib/pvslib&#45;gitlab__pvs7.0/orders</title>
<path fill="none" stroke="#000000" d="M244.166,-536C253.6977,-536 261.569,-536 261.569,-536 261.569,-536 261.569,-206.2455 261.569,-206.2455"/>
<polygon fill="#000000" stroke="#000000" points="265.0691,-206.2454 261.569,-196.2455 258.0691,-206.2455 265.0691,-206.2454"/>
</g>
<!-- /Users/mmoscato/nasa/pvslib/pvslib&#45;gitlab__pvs7.0/reals -->
<g id="node7" class="node">
<title>/Users/mmoscato/nasa/pvslib/pvslib&#45;gitlab__pvs7.0/reals</title>
<polygon fill="#fcfcd7" stroke="#000000" points="130,-196 76,-196 76,-160 130,-160 130,-196"/>
<text text-anchor="middle" x="103" y="-173.8" font-family="Times,serif" font-size="14.00" fill="#000000">reals</text>
</g>
<!-- /Users/mmoscato/nasa/pvslib/pvslib&#45;gitlab__pvs7.0/Riemann&#45;&gt;/Users/mmoscato/nasa/pvslib/pvslib&#45;gitlab__pvs7.0/reals -->
<g id="edge6" class="edge">
<title>/Users/mmoscato/nasa/pvslib/pvslib&#45;gitlab__pvs7.0/Riemann&#45;&gt;/Users/mmoscato/nasa/pvslib/pvslib&#45;gitlab__pvs7.0/reals</title>
<path fill="none" stroke="#000000" d="M177.8624,-540C133.4131,-540 60,-540 60,-540 60,-540 60,-178 60,-178 60,-178 65.524,-178 65.524,-178"/>
<polygon fill="#000000" stroke="#000000" points="65.524,-181.5001 75.524,-178 65.524,-174.5001 65.524,-181.5001"/>
</g>
<!-- /Users/mmoscato/nasa/pvslib/pvslib&#45;gitlab__pvs7.0/series -->
<g id="node8" class="node">
<title>/Users/mmoscato/nasa/pvslib/pvslib&#45;gitlab__pvs7.0/series</title>
<polygon fill="#fcfcd7" stroke="#000000" points="238,-342 184,-342 184,-306 238,-306 238,-342"/>
<text text-anchor="middle" x="211" y="-319.8" font-family="Times,serif" font-size="14.00" fill="#000000">series</text>
</g>
<!-- /Users/mmoscato/nasa/pvslib/pvslib&#45;gitlab__pvs7.0/Riemann&#45;&gt;/Users/mmoscato/nasa/pvslib/pvslib&#45;gitlab__pvs7.0/series -->
<g id="edge7" class="edge">
<title>/Users/mmoscato/nasa/pvslib/pvslib&#45;gitlab__pvs7.0/Riemann&#45;&gt;/Users/mmoscato/nasa/pvslib/pvslib&#45;gitlab__pvs7.0/series</title>
<path fill="none" stroke="#000000" d="M244.1707,-529C252.5089,-529 259.138,-529 259.138,-529 259.138,-529 259.138,-330 259.138,-330 259.138,-330 248.164,-330 248.164,-330"/>
<polygon fill="#000000" stroke="#000000" points="248.1641,-326.5001 238.164,-330 248.164,-333.5001 248.1641,-326.5001"/>
</g>
<!-- /Users/mmoscato/nasa/pvslib/pvslib&#45;gitlab__pvs7.0/structures -->
<g id="node9" class="node">
<title>/Users/mmoscato/nasa/pvslib/pvslib&#45;gitlab__pvs7.0/structures</title>
<polygon fill="#fcfcd7" stroke="#000000" points="204.429,-124 133.571,-124 133.571,-88 204.429,-88 204.429,-124"/>
<text text-anchor="middle" x="169" y="-101.8" font-family="Times,serif" font-size="14.00" fill="#000000">structures</text>
</g>
<!-- /Users/mmoscato/nasa/pvslib/pvslib&#45;gitlab__pvs7.0/Riemann&#45;&gt;/Users/mmoscato/nasa/pvslib/pvslib&#45;gitlab__pvs7.0/structures -->
<g id="edge8" class="edge">
<title>/Users/mmoscato/nasa/pvslib/pvslib&#45;gitlab__pvs7.0/Riemann&#45;&gt;/Users/mmoscato/nasa/pvslib/pvslib&#45;gitlab__pvs7.0/structures</title>
<path fill="none" stroke="#000000" d="M177.7043,-546C131.6184,-546 54,-546 54,-546 54,-546 54,-106 54,-106 54,-106 123.5578,-106 123.5578,-106"/>
<polygon fill="#000000" stroke="#000000" points="123.5579,-109.5001 133.5578,-106 123.5578,-102.5001 123.5579,-109.5001"/>
</g>
<!-- /Users/mmoscato/nasa/pvslib/pvslib&#45;gitlab__pvs7.0/trig -->
<g id="node10" class="node">
<title>/Users/mmoscato/nasa/pvslib/pvslib&#45;gitlab__pvs7.0/trig</title>
<polygon fill="#fcfcd7" stroke="#000000" points="318,-414 264,-414 264,-378 318,-378 318,-414"/>
<text text-anchor="middle" x="291" y="-391.8" font-family="Times,serif" font-size="14.00" fill="#000000">trig</text>
</g>
<!-- /Users/mmoscato/nasa/pvslib/pvslib&#45;gitlab__pvs7.0/Riemann&#45;&gt;/Users/mmoscato/nasa/pvslib/pvslib&#45;gitlab__pvs7.0/trig -->
<g id="edge9" class="edge">
<title>/Users/mmoscato/nasa/pvslib/pvslib&#45;gitlab__pvs7.0/Riemann&#45;&gt;/Users/mmoscato/nasa/pvslib/pvslib&#45;gitlab__pvs7.0/trig</title>
<path fill="none" stroke="#000000" d="M244.4637,-543C266.3857,-543 291,-543 291,-543 291,-543 291,-424.0251 291,-424.0251"/>
<polygon fill="#000000" stroke="#000000" points="294.5001,-424.0251 291,-414.0251 287.5001,-424.0251 294.5001,-424.0251"/>
</g>
<!-- /Users/mmoscato/pvs/7.1&#45;0&#45;g3fb4f25&#45;ix86&#45;MacOSX&#45;allegro/lib/finite_sets -->
<g id="node11" class="node">
<title>/Users/mmoscato/pvs/7.1&#45;0&#45;g3fb4f25&#45;ix86&#45;MacOSX&#45;allegro/lib/finite_sets</title>
<polygon fill="#fcfcd7" stroke="#000000" points="434.2796,-196 361.7204,-196 361.7204,-160 434.2796,-160 434.2796,-196"/>
<text text-anchor="middle" x="398" y="-173.8" font-family="Times,serif" font-size="14.00" fill="#000000">finite_sets</text>
</g>
<!-- /Users/mmoscato/nasa/pvslib/pvslib&#45;gitlab__pvs7.0/Riemann&#45;&gt;/Users/mmoscato/pvs/7.1&#45;0&#45;g3fb4f25&#45;ix86&#45;MacOSX&#45;allegro/lib/finite_sets -->
<g id="edge10" class="edge">
<title>/Users/mmoscato/nasa/pvslib/pvslib&#45;gitlab__pvs7.0/Riemann&#45;&gt;/Users/mmoscato/pvs/7.1&#45;0&#45;g3fb4f25&#45;ix86&#45;MacOSX&#45;allegro/lib/finite_sets</title>
<path fill="none" stroke="#000000" d="M244.4747,-550C304.0443,-550 422.2598,-550 422.2598,-550 422.2598,-550 422.2598,-206.1942 422.2598,-206.1942"/>
<polygon fill="#000000" stroke="#000000" points="425.7599,-206.1941 422.2598,-196.1942 418.7599,-206.1942 425.7599,-206.1941"/>
</g>
<!-- /Users/mmoscato/nasa/pvslib/pvslib&#45;gitlab__pvs7.0/analysis&#45;&gt;/Users/mmoscato/nasa/pvslib/pvslib&#45;gitlab__pvs7.0/ints -->
<g id="edge11" class="edge">
<title>/Users/mmoscato/nasa/pvslib/pvslib&#45;gitlab__pvs7.0/analysis&#45;&gt;/Users/mmoscato/nasa/pvslib/pvslib&#45;gitlab__pvs7.0/ints</title>
<path fill="none" stroke="#000000" d="M177.5713,-243C192.8569,-243 208.1426,-243 208.1426,-243 208.1426,-243 208.1426,-43 208.1426,-43 208.1426,-43 206.1858,-43 206.1858,-43"/>
<polygon fill="#000000" stroke="#000000" points="206.1859,-39.5001 196.1858,-43 206.1858,-46.5001 206.1859,-39.5001"/>
</g>
<!-- /Users/mmoscato/nasa/pvslib/pvslib&#45;gitlab__pvs7.0/analysis&#45;&gt;/Users/mmoscato/nasa/pvslib/pvslib&#45;gitlab__pvs7.0/orders -->
<g id="edge12" class="edge">
<title>/Users/mmoscato/nasa/pvslib/pvslib&#45;gitlab__pvs7.0/analysis&#45;&gt;/Users/mmoscato/nasa/pvslib/pvslib&#45;gitlab__pvs7.0/orders</title>
<path fill="none" stroke="#000000" d="M177.6079,-252C198.8444,-252 223.3333,-252 223.3333,-252 223.3333,-252 223.3333,-206.2921 223.3333,-206.2921"/>
<polygon fill="#000000" stroke="#000000" points="226.8334,-206.2921 223.3333,-196.2921 219.8334,-206.2922 226.8334,-206.2921"/>
</g>
<!-- /Users/mmoscato/nasa/pvslib/pvslib&#45;gitlab__pvs7.0/analysis&#45;&gt;/Users/mmoscato/nasa/pvslib/pvslib&#45;gitlab__pvs7.0/reals -->
<g id="edge13" class="edge">
<title>/Users/mmoscato/nasa/pvslib/pvslib&#45;gitlab__pvs7.0/analysis&#45;&gt;/Users/mmoscato/nasa/pvslib/pvslib&#45;gitlab__pvs7.0/reals</title>
<path fill="none" stroke="#000000" d="M120.9655,-233.7079C120.9655,-233.7079 120.9655,-206.0817 120.9655,-206.0817"/>
<polygon fill="#000000" stroke="#000000" points="124.4656,-206.0817 120.9655,-196.0817 117.4656,-206.0818 124.4656,-206.0817"/>
</g>
<!-- /Users/mmoscato/nasa/pvslib/pvslib&#45;gitlab__pvs7.0/analysis&#45;&gt;/Users/mmoscato/nasa/pvslib/pvslib&#45;gitlab__pvs7.0/structures -->
<g id="edge14" class="edge">
<title>/Users/mmoscato/nasa/pvslib/pvslib&#45;gitlab__pvs7.0/analysis&#45;&gt;/Users/mmoscato/nasa/pvslib/pvslib&#45;gitlab__pvs7.0/structures</title>
<path fill="none" stroke="#000000" d="M166.6104,-233.8042C166.6104,-233.8042 166.6104,-134.4251 166.6104,-134.4251"/>
<polygon fill="#000000" stroke="#000000" points="170.1105,-134.4251 166.6104,-124.4251 163.1105,-134.4251 170.1105,-134.4251"/>
</g>
<!-- /Users/mmoscato/nasa/pvslib/pvslib&#45;gitlab__pvs7.0/analysis&#45;&gt;/Users/mmoscato/pvs/7.1&#45;0&#45;g3fb4f25&#45;ix86&#45;MacOSX&#45;allegro/lib/finite_sets -->
<g id="edge15" class="edge">
<title>/Users/mmoscato/nasa/pvslib/pvslib&#45;gitlab__pvs7.0/analysis&#45;&gt;/Users/mmoscato/pvs/7.1&#45;0&#45;g3fb4f25&#45;ix86&#45;MacOSX&#45;allegro/lib/finite_sets</title>
<path fill="none" stroke="#000000" d="M177.5792,-261C239.4696,-261 373.7402,-261 373.7402,-261 373.7402,-261 373.7402,-206.0098 373.7402,-206.0098"/>
<polygon fill="#000000" stroke="#000000" points="377.2403,-206.0097 373.7402,-196.0098 370.2403,-206.0098 377.2403,-206.0097"/>
</g>
<!-- /Users/mmoscato/nasa/pvslib/pvslib&#45;gitlab__pvs7.0/interval_arith&#45;&gt;/Users/mmoscato/nasa/pvslib/pvslib&#45;gitlab__pvs7.0/analysis -->
<g id="edge16" class="edge">
<title>/Users/mmoscato/nasa/pvslib/pvslib&#45;gitlab__pvs7.0/interval_arith&#45;&gt;/Users/mmoscato/nasa/pvslib/pvslib&#45;gitlab__pvs7.0/analysis</title>
<path fill="none" stroke="#000000" d="M170.5467,-449.9555C170.5467,-449.9555 170.5467,-280.1451 170.5467,-280.1451"/>
<polygon fill="#000000" stroke="#000000" points="174.0468,-280.145 170.5467,-270.1451 167.0468,-280.1451 174.0468,-280.145"/>
</g>
<!-- /Users/mmoscato/nasa/pvslib/pvslib&#45;gitlab__pvs7.0/interval_arith&#45;&gt;/Users/mmoscato/nasa/pvslib/pvslib&#45;gitlab__pvs7.0/ints -->
<g id="edge17" class="edge">
<title>/Users/mmoscato/nasa/pvslib/pvslib&#45;gitlab__pvs7.0/interval_arith&#45;&gt;/Users/mmoscato/nasa/pvslib/pvslib&#45;gitlab__pvs7.0/ints</title>
<path fill="none" stroke="#000000" d="M165.1616,-468C116.9503,-468 48,-468 48,-468 48,-468 48,-30 48,-30 48,-30 131.8452,-30 131.8452,-30"/>
<polygon fill="#000000" stroke="#000000" points="131.8453,-33.5001 141.8452,-30 131.8452,-26.5001 131.8453,-33.5001"/>
</g>
<!-- /Users/mmoscato/nasa/pvslib/pvslib&#45;gitlab__pvs7.0/interval_arith&#45;&gt;/Users/mmoscato/nasa/pvslib/pvslib&#45;gitlab__pvs7.0/lnexp -->
<g id="edge18" class="edge">
<title>/Users/mmoscato/nasa/pvslib/pvslib&#45;gitlab__pvs7.0/interval_arith&#45;&gt;/Users/mmoscato/nasa/pvslib/pvslib&#45;gitlab__pvs7.0/lnexp</title>
<path fill="none" stroke="#000000" d="M167.0442,-449.998C167.0442,-432.3246 167.0442,-408 167.0442,-408 167.0442,-408 136.2841,-408 136.2841,-408"/>
<polygon fill="#000000" stroke="#000000" points="136.2842,-404.5001 126.2841,-408 136.2841,-411.5001 136.2842,-404.5001"/>
</g>
<!-- /Users/mmoscato/nasa/pvslib/pvslib&#45;gitlab__pvs7.0/interval_arith&#45;&gt;/Users/mmoscato/nasa/pvslib/pvslib&#45;gitlab__pvs7.0/orders -->
<g id="edge19" class="edge">
<title>/Users/mmoscato/nasa/pvslib/pvslib&#45;gitlab__pvs7.0/interval_arith&#45;&gt;/Users/mmoscato/nasa/pvslib/pvslib&#45;gitlab__pvs7.0/orders</title>
<path fill="none" stroke="#000000" d="M242.6768,-449.8592C242.6768,-449.8592 242.6768,-206.1339 242.6768,-206.1339"/>
<polygon fill="#000000" stroke="#000000" points="246.1769,-206.1339 242.6768,-196.1339 239.1769,-206.134 246.1769,-206.1339"/>
</g>
<!-- /Users/mmoscato/nasa/pvslib/pvslib&#45;gitlab__pvs7.0/interval_arith&#45;&gt;/Users/mmoscato/nasa/pvslib/pvslib&#45;gitlab__pvs7.0/reals -->
<g id="edge20" class="edge">
<title>/Users/mmoscato/nasa/pvslib/pvslib&#45;gitlab__pvs7.0/interval_arith&#45;&gt;/Users/mmoscato/nasa/pvslib/pvslib&#45;gitlab__pvs7.0/reals</title>
<path fill="none" stroke="#000000" d="M168.7955,-449.6793C168.7955,-418.8664 168.7955,-360 168.7955,-360 168.7955,-360 96.2241,-360 96.2241,-360 96.2241,-360 96.2241,-206.1162 96.2241,-206.1162"/>
<polygon fill="#000000" stroke="#000000" points="99.7242,-206.1162 96.2241,-196.1162 92.7242,-206.1163 99.7242,-206.1162"/>
</g>
<!-- /Users/mmoscato/nasa/pvslib/pvslib&#45;gitlab__pvs7.0/interval_arith&#45;&gt;/Users/mmoscato/nasa/pvslib/pvslib&#45;gitlab__pvs7.0/series -->
<g id="edge21" class="edge">
<title>/Users/mmoscato/nasa/pvslib/pvslib&#45;gitlab__pvs7.0/interval_arith&#45;&gt;/Users/mmoscato/nasa/pvslib/pvslib&#45;gitlab__pvs7.0/series</title>
<path fill="none" stroke="#000000" d="M202,-449.7623C202,-449.7623 202,-352.0896 202,-352.0896"/>
<polygon fill="#000000" stroke="#000000" points="205.5001,-352.0896 202,-342.0896 198.5001,-352.0897 205.5001,-352.0896"/>
</g>
<!-- /Users/mmoscato/nasa/pvslib/pvslib&#45;gitlab__pvs7.0/interval_arith&#45;&gt;/Users/mmoscato/nasa/pvslib/pvslib&#45;gitlab__pvs7.0/structures -->
<g id="edge22" class="edge">
<title>/Users/mmoscato/nasa/pvslib/pvslib&#45;gitlab__pvs7.0/interval_arith&#45;&gt;/Users/mmoscato/nasa/pvslib/pvslib&#45;gitlab__pvs7.0/structures</title>
<path fill="none" stroke="#000000" d="M172.298,-449.8269C172.298,-403.0245 172.298,-282 172.298,-282 172.298,-282 194.1069,-282 194.1069,-282 194.1069,-282 194.1069,-134.1722 194.1069,-134.1722"/>
<polygon fill="#000000" stroke="#000000" points="197.607,-134.1722 194.1069,-124.1722 190.607,-134.1722 197.607,-134.1722"/>
</g>
<!-- /Users/mmoscato/nasa/pvslib/pvslib&#45;gitlab__pvs7.0/interval_arith&#45;&gt;/Users/mmoscato/nasa/pvslib/pvslib&#45;gitlab__pvs7.0/trig -->
<g id="edge23" class="edge">
<title>/Users/mmoscato/nasa/pvslib/pvslib&#45;gitlab__pvs7.0/interval_arith&#45;&gt;/Users/mmoscato/nasa/pvslib/pvslib&#45;gitlab__pvs7.0/trig</title>
<path fill="none" stroke="#000000" d="M252.0303,-449.9652C252.0303,-430.4238 252.0303,-402 252.0303,-402 252.0303,-402 253.9342,-402 253.9342,-402"/>
<polygon fill="#000000" stroke="#000000" points="253.9343,-405.5001 263.9342,-402 253.9342,-398.5001 253.9343,-405.5001"/>
</g>
<!-- /Users/mmoscato/nasa/pvslib/pvslib&#45;gitlab__pvs7.0/interval_arith&#45;&gt;/Users/mmoscato/pvs/7.1&#45;0&#45;g3fb4f25&#45;ix86&#45;MacOSX&#45;allegro/lib/finite_sets -->
<g id="edge24" class="edge">
<title>/Users/mmoscato/nasa/pvslib/pvslib&#45;gitlab__pvs7.0/interval_arith&#45;&gt;/Users/mmoscato/pvs/7.1&#45;0&#45;g3fb4f25&#45;ix86&#45;MacOSX&#45;allegro/lib/finite_sets</title>
<path fill="none" stroke="#000000" d="M257.1849,-468C316.0099,-468 410.1299,-468 410.1299,-468 410.1299,-468 410.1299,-206.1408 410.1299,-206.1408"/>
<polygon fill="#000000" stroke="#000000" points="413.63,-206.1408 410.1299,-196.1408 406.63,-206.1408 413.63,-206.1408"/>
</g>
<!-- /Users/mmoscato/nasa/pvslib/pvslib&#45;gitlab__pvs7.0/lnexp&#45;&gt;/Users/mmoscato/nasa/pvslib/pvslib&#45;gitlab__pvs7.0/analysis -->
<g id="edge25" class="edge">
<title>/Users/mmoscato/nasa/pvslib/pvslib&#45;gitlab__pvs7.0/lnexp&#45;&gt;/Users/mmoscato/nasa/pvslib/pvslib&#45;gitlab__pvs7.0/analysis</title>
<path fill="none" stroke="#000000" d="M118.8362,-377.7623C118.8362,-377.7623 118.8362,-280.0896 118.8362,-280.0896"/>
<polygon fill="#000000" stroke="#000000" points="122.3363,-280.0896 118.8362,-270.0896 115.3363,-280.0897 122.3363,-280.0896"/>
</g>
<!-- /Users/mmoscato/nasa/pvslib/pvslib&#45;gitlab__pvs7.0/lnexp&#45;&gt;/Users/mmoscato/nasa/pvslib/pvslib&#45;gitlab__pvs7.0/ints -->
<g id="edge26" class="edge">
<title>/Users/mmoscato/nasa/pvslib/pvslib&#45;gitlab__pvs7.0/lnexp&#45;&gt;/Users/mmoscato/nasa/pvslib/pvslib&#45;gitlab__pvs7.0/ints</title>
<path fill="none" stroke="#000000" d="M71.7482,-396C68.3284,-396 66,-396 66,-396 66,-396 66,-37 66,-37 66,-37 131.938,-37 131.938,-37"/>
<polygon fill="#000000" stroke="#000000" points="131.938,-40.5001 141.938,-37 131.9379,-33.5001 131.938,-40.5001"/>
</g>
<!-- /Users/mmoscato/nasa/pvslib/pvslib&#45;gitlab__pvs7.0/lnexp&#45;&gt;/Users/mmoscato/nasa/pvslib/pvslib&#45;gitlab__pvs7.0/reals -->
<g id="edge27" class="edge">
<title>/Users/mmoscato/nasa/pvslib/pvslib&#45;gitlab__pvs7.0/lnexp&#45;&gt;/Users/mmoscato/nasa/pvslib/pvslib&#45;gitlab__pvs7.0/reals</title>
<path fill="none" stroke="#000000" d="M86.1121,-377.7884C86.1121,-377.7884 86.1121,-206.0064 86.1121,-206.0064"/>
<polygon fill="#000000" stroke="#000000" points="89.6122,-206.0064 86.1121,-196.0064 82.6122,-206.0065 89.6122,-206.0064"/>
</g>
<!-- /Users/mmoscato/nasa/pvslib/pvslib&#45;gitlab__pvs7.0/lnexp&#45;&gt;/Users/mmoscato/nasa/pvslib/pvslib&#45;gitlab__pvs7.0/series -->
<g id="edge28" class="edge">
<title>/Users/mmoscato/nasa/pvslib/pvslib&#45;gitlab__pvs7.0/lnexp&#45;&gt;/Users/mmoscato/nasa/pvslib/pvslib&#45;gitlab__pvs7.0/series</title>
<path fill="none" stroke="#000000" d="M123.6121,-377.9652C123.6121,-358.4238 123.6121,-330 123.6121,-330 123.6121,-330 173.8289,-330 173.8289,-330"/>
<polygon fill="#000000" stroke="#000000" points="173.829,-333.5001 183.8289,-330 173.8289,-326.5001 173.829,-333.5001"/>
</g>
<!-- /Users/mmoscato/nasa/pvslib/pvslib&#45;gitlab__pvs7.0/lnexp&#45;&gt;/Users/mmoscato/nasa/pvslib/pvslib&#45;gitlab__pvs7.0/structures -->
<g id="edge29" class="edge">
<title>/Users/mmoscato/nasa/pvslib/pvslib&#45;gitlab__pvs7.0/lnexp&#45;&gt;/Users/mmoscato/nasa/pvslib/pvslib&#45;gitlab__pvs7.0/structures</title>
<path fill="none" stroke="#000000" d="M106.3362,-377.9311C106.3362,-333.2189 106.3362,-221 106.3362,-221 106.3362,-221 155.6689,-221 155.6689,-221 155.6689,-221 155.6689,-134.2221 155.6689,-134.2221"/>
<polygon fill="#000000" stroke="#000000" points="159.169,-134.2221 155.6689,-124.2221 152.169,-134.2221 159.169,-134.2221"/>
</g>
<!-- /Users/mmoscato/nasa/pvslib/pvslib&#45;gitlab__pvs7.0/lnexp&#45;&gt;/Users/mmoscato/pvs/7.1&#45;0&#45;g3fb4f25&#45;ix86&#45;MacOSX&#45;allegro/lib/finite_sets -->
<g id="edge30" class="edge">
<title>/Users/mmoscato/nasa/pvslib/pvslib&#45;gitlab__pvs7.0/lnexp&#45;&gt;/Users/mmoscato/pvs/7.1&#45;0&#45;g3fb4f25&#45;ix86&#45;MacOSX&#45;allegro/lib/finite_sets</title>
<path fill="none" stroke="#000000" d="M121.2241,-377.7644C121.2241,-348.4256 121.2241,-294 121.2241,-294 121.2241,-294 385.8701,-294 385.8701,-294 385.8701,-294 385.8701,-206.125 385.8701,-206.125"/>
<polygon fill="#000000" stroke="#000000" points="389.3702,-206.125 385.8701,-196.125 382.3702,-206.125 389.3702,-206.125"/>
</g>
<!-- /Users/mmoscato/nasa/pvslib/pvslib&#45;gitlab__pvs7.0/reals&#45;&gt;/Users/mmoscato/nasa/pvslib/pvslib&#45;gitlab__pvs7.0/ints -->
<g id="edge31" class="edge">
<title>/Users/mmoscato/nasa/pvslib/pvslib&#45;gitlab__pvs7.0/reals&#45;&gt;/Users/mmoscato/nasa/pvslib/pvslib&#45;gitlab__pvs7.0/ints</title>
<path fill="none" stroke="#000000" d="M103,-159.9282C103,-123.3519 103,-44 103,-44 103,-44 131.7742,-44 131.7742,-44"/>
<polygon fill="#000000" stroke="#000000" points="131.7743,-47.5001 141.7742,-44 131.7742,-40.5001 131.7743,-47.5001"/>
</g>
<!-- /Users/mmoscato/nasa/pvslib/pvslib&#45;gitlab__pvs7.0/reals&#45;&gt;/Users/mmoscato/nasa/pvslib/pvslib&#45;gitlab__pvs7.0/structures -->
<g id="edge32" class="edge">
<title>/Users/mmoscato/nasa/pvslib/pvslib&#45;gitlab__pvs7.0/reals&#45;&gt;/Users/mmoscato/nasa/pvslib/pvslib&#45;gitlab__pvs7.0/structures</title>
<path fill="none" stroke="#000000" d="M130.1333,-172C138.1032,-172 144.7275,-172 144.7275,-172 144.7275,-172 144.7275,-134.0348 144.7275,-134.0348"/>
<polygon fill="#000000" stroke="#000000" points="148.2276,-134.0348 144.7275,-124.0348 141.2276,-134.0348 148.2276,-134.0348"/>
</g>
<!-- /Users/mmoscato/nasa/pvslib/pvslib&#45;gitlab__pvs7.0/series&#45;&gt;/Users/mmoscato/nasa/pvslib/pvslib&#45;gitlab__pvs7.0/analysis -->
<g id="edge33" class="edge">
<title>/Users/mmoscato/nasa/pvslib/pvslib&#45;gitlab__pvs7.0/series&#45;&gt;/Users/mmoscato/nasa/pvslib/pvslib&#45;gitlab__pvs7.0/analysis</title>
<path fill="none" stroke="#000000" d="M183.9644,-318C179.238,-318 175.8005,-318 175.8005,-318 175.8005,-318 175.8005,-280.0348 175.8005,-280.0348"/>
<polygon fill="#000000" stroke="#000000" points="179.3006,-280.0348 175.8005,-270.0348 172.3006,-280.0348 179.3006,-280.0348"/>
</g>
<!-- /Users/mmoscato/nasa/pvslib/pvslib&#45;gitlab__pvs7.0/series&#45;&gt;/Users/mmoscato/nasa/pvslib/pvslib&#45;gitlab__pvs7.0/ints -->
<g id="edge34" class="edge">
<title>/Users/mmoscato/nasa/pvslib/pvslib&#45;gitlab__pvs7.0/series&#45;&gt;/Users/mmoscato/nasa/pvslib/pvslib&#45;gitlab__pvs7.0/ints</title>
<path fill="none" stroke="#000000" d="M212.0713,-305.8592C212.0713,-242.3711 212.0713,-34 212.0713,-34 212.0713,-34 206.0331,-34 206.0331,-34"/>
<polygon fill="#000000" stroke="#000000" points="206.0332,-30.5001 196.0331,-34 206.0331,-37.5001 206.0332,-30.5001"/>
</g>
<!-- /Users/mmoscato/nasa/pvslib/pvslib&#45;gitlab__pvs7.0/series&#45;&gt;/Users/mmoscato/nasa/pvslib/pvslib&#45;gitlab__pvs7.0/orders -->
<g id="edge35" class="edge">
<title>/Users/mmoscato/nasa/pvslib/pvslib&#45;gitlab__pvs7.0/series&#45;&gt;/Users/mmoscato/nasa/pvslib/pvslib&#45;gitlab__pvs7.0/orders</title>
<path fill="none" stroke="#000000" d="M230.6667,-305.8042C230.6667,-305.8042 230.6667,-206.4251 230.6667,-206.4251"/>
<polygon fill="#000000" stroke="#000000" points="234.1668,-206.4251 230.6667,-196.4251 227.1668,-206.4251 234.1668,-206.4251"/>
</g>
<!-- /Users/mmoscato/nasa/pvslib/pvslib&#45;gitlab__pvs7.0/series&#45;&gt;/Users/mmoscato/nasa/pvslib/pvslib&#45;gitlab__pvs7.0/reals -->
<g id="edge36" class="edge">
<title>/Users/mmoscato/nasa/pvslib/pvslib&#45;gitlab__pvs7.0/series&#45;&gt;/Users/mmoscato/nasa/pvslib/pvslib&#45;gitlab__pvs7.0/reals</title>
<path fill="none" stroke="#000000" d="M189.0535,-305.9841C189.0535,-268.1723 189.0535,-184 189.0535,-184 189.0535,-184 140.2279,-184 140.2279,-184"/>
<polygon fill="#000000" stroke="#000000" points="140.2279,-180.5001 130.2279,-184 140.2278,-187.5001 140.2279,-180.5001"/>
</g>
<!-- /Users/mmoscato/nasa/pvslib/pvslib&#45;gitlab__pvs7.0/series&#45;&gt;/Users/mmoscato/nasa/pvslib/pvslib&#45;gitlab__pvs7.0/structures -->
<g id="edge37" class="edge">
<title>/Users/mmoscato/nasa/pvslib/pvslib&#45;gitlab__pvs7.0/series&#45;&gt;/Users/mmoscato/nasa/pvslib/pvslib&#45;gitlab__pvs7.0/structures</title>
<path fill="none" stroke="#000000" d="M199.1604,-305.7884C199.1604,-305.7884 199.1604,-134.0064 199.1604,-134.0064"/>
<polygon fill="#000000" stroke="#000000" points="202.6605,-134.0064 199.1604,-124.0064 195.6605,-134.0065 202.6605,-134.0064"/>
</g>
<!-- /Users/mmoscato/nasa/pvslib/pvslib&#45;gitlab__pvs7.0/series&#45;&gt;/Users/mmoscato/pvs/7.1&#45;0&#45;g3fb4f25&#45;ix86&#45;MacOSX&#45;allegro/lib/finite_sets -->
<g id="edge38" class="edge">
<title>/Users/mmoscato/nasa/pvslib/pvslib&#45;gitlab__pvs7.0/series&#45;&gt;/Users/mmoscato/pvs/7.1&#45;0&#45;g3fb4f25&#45;ix86&#45;MacOSX&#45;allegro/lib/finite_sets</title>
<path fill="none" stroke="#000000" d="M238.1914,-318C290.0554,-318 398,-318 398,-318 398,-318 398,-206.0159 398,-206.0159"/>
<polygon fill="#000000" stroke="#000000" points="401.5001,-206.0159 398,-196.0159 394.5001,-206.016 401.5001,-206.0159"/>
</g>
<!-- /Users/mmoscato/nasa/pvslib/pvslib&#45;gitlab__pvs7.0/structures&#45;&gt;/Users/mmoscato/nasa/pvslib/pvslib&#45;gitlab__pvs7.0/ints -->
<g id="edge39" class="edge">
<title>/Users/mmoscato/nasa/pvslib/pvslib&#45;gitlab__pvs7.0/structures&#45;&gt;/Users/mmoscato/nasa/pvslib/pvslib&#45;gitlab__pvs7.0/ints</title>
<path fill="none" stroke="#000000" d="M169,-87.8314C169,-87.8314 169,-62.4133 169,-62.4133"/>
<polygon fill="#000000" stroke="#000000" points="172.5001,-62.4132 169,-52.4133 165.5001,-62.4133 172.5001,-62.4132"/>
</g>
<!-- /Users/mmoscato/nasa/pvslib/pvslib&#45;gitlab__pvs7.0/trig&#45;&gt;/Users/mmoscato/nasa/pvslib/pvslib&#45;gitlab__pvs7.0/analysis -->
<g id="edge40" class="edge">
<title>/Users/mmoscato/nasa/pvslib/pvslib&#45;gitlab__pvs7.0/trig&#45;&gt;/Users/mmoscato/nasa/pvslib/pvslib&#45;gitlab__pvs7.0/analysis</title>
<path fill="none" stroke="#000000" d="M263.8752,-396C229.3268,-396 174.0492,-396 174.0492,-396 174.0492,-396 174.0492,-280.2377 174.0492,-280.2377"/>
<polygon fill="#000000" stroke="#000000" points="177.5493,-280.2377 174.0492,-270.2377 170.5493,-280.2377 177.5493,-280.2377"/>
</g>
<!-- /Users/mmoscato/nasa/pvslib/pvslib&#45;gitlab__pvs7.0/trig&#45;&gt;/Users/mmoscato/nasa/pvslib/pvslib&#45;gitlab__pvs7.0/ints -->
<g id="edge41" class="edge">
<title>/Users/mmoscato/nasa/pvslib/pvslib&#45;gitlab__pvs7.0/trig&#45;&gt;/Users/mmoscato/nasa/pvslib/pvslib&#45;gitlab__pvs7.0/ints</title>
<path fill="none" stroke="#000000" d="M298.8,-377.8548C298.8,-303.3692 298.8,-25 298.8,-25 298.8,-25 206.2103,-25 206.2103,-25"/>
<polygon fill="#000000" stroke="#000000" points="206.2104,-21.5001 196.2103,-25 206.2103,-28.5001 206.2104,-21.5001"/>
</g>
<!-- /Users/mmoscato/nasa/pvslib/pvslib&#45;gitlab__pvs7.0/trig&#45;&gt;/Users/mmoscato/nasa/pvslib/pvslib&#45;gitlab__pvs7.0/orders -->
<g id="edge42" class="edge">
<title>/Users/mmoscato/nasa/pvslib/pvslib&#45;gitlab__pvs7.0/trig&#45;&gt;/Users/mmoscato/nasa/pvslib/pvslib&#45;gitlab__pvs7.0/orders</title>
<path fill="none" stroke="#000000" d="M263.6059,-384C254.8366,-384 247.3535,-384 247.3535,-384 247.3535,-384 247.3535,-206.2811 247.3535,-206.2811"/>
<polygon fill="#000000" stroke="#000000" points="250.8536,-206.2811 247.3535,-196.2811 243.8536,-206.2812 250.8536,-206.2811"/>
</g>
<!-- /Users/mmoscato/nasa/pvslib/pvslib&#45;gitlab__pvs7.0/trig&#45;&gt;/Users/mmoscato/nasa/pvslib/pvslib&#45;gitlab__pvs7.0/reals -->
<g id="edge43" class="edge">
<title>/Users/mmoscato/nasa/pvslib/pvslib&#45;gitlab__pvs7.0/trig&#45;&gt;/Users/mmoscato/nasa/pvslib/pvslib&#45;gitlab__pvs7.0/reals</title>
<path fill="none" stroke="#000000" d="M279.6,-377.9738C279.6,-330.9189 279.6,-208 279.6,-208 279.6,-208 125.4827,-208 125.4827,-208 125.4827,-208 125.4827,-206.1432 125.4827,-206.1432"/>
<polygon fill="#000000" stroke="#000000" points="128.9828,-206.1432 125.4827,-196.1432 121.9828,-206.1432 128.9828,-206.1432"/>
</g>
<!-- /Users/mmoscato/nasa/pvslib/pvslib&#45;gitlab__pvs7.0/trig&#45;&gt;/Users/mmoscato/nasa/pvslib/pvslib&#45;gitlab__pvs7.0/series -->
<g id="edge44" class="edge">
<title>/Users/mmoscato/nasa/pvslib/pvslib&#45;gitlab__pvs7.0/trig&#45;&gt;/Users/mmoscato/nasa/pvslib/pvslib&#45;gitlab__pvs7.0/series</title>
<path fill="none" stroke="#000000" d="M263.7526,-390C243.7302,-390 220,-390 220,-390 220,-390 220,-352.0348 220,-352.0348"/>
<polygon fill="#000000" stroke="#000000" points="223.5001,-352.0348 220,-342.0348 216.5001,-352.0348 223.5001,-352.0348"/>
</g>
<!-- /Users/mmoscato/nasa/pvslib/pvslib&#45;gitlab__pvs7.0/trig&#45;&gt;/Users/mmoscato/nasa/pvslib/pvslib&#45;gitlab__pvs7.0/structures -->
<g id="edge45" class="edge">
<title>/Users/mmoscato/nasa/pvslib/pvslib&#45;gitlab__pvs7.0/trig&#45;&gt;/Users/mmoscato/nasa/pvslib/pvslib&#45;gitlab__pvs7.0/structures</title>
<path fill="none" stroke="#000000" d="M289.2,-377.8592C289.2,-314.3711 289.2,-106 289.2,-106 289.2,-106 214.4138,-106 214.4138,-106"/>
<polygon fill="#000000" stroke="#000000" points="214.4139,-102.5001 204.4138,-106 214.4138,-109.5001 214.4139,-102.5001"/>
</g>
<!-- /Users/mmoscato/nasa/pvslib/pvslib&#45;gitlab__pvs7.0/trig&#45;&gt;/Users/mmoscato/pvs/7.1&#45;0&#45;g3fb4f25&#45;ix86&#45;MacOSX&#45;allegro/lib/finite_sets -->
<g id="edge46" class="edge">
<title>/Users/mmoscato/nasa/pvslib/pvslib&#45;gitlab__pvs7.0/trig&#45;&gt;/Users/mmoscato/pvs/7.1&#45;0&#45;g3fb4f25&#45;ix86&#45;MacOSX&#45;allegro/lib/finite_sets</title>
<path fill="none" stroke="#000000" d="M308.4,-377.7884C308.4,-325.3943 308.4,-178 308.4,-178 308.4,-178 351.5563,-178 351.5563,-178"/>
<polygon fill="#000000" stroke="#000000" points="351.5563,-181.5001 361.5563,-178 351.5562,-174.5001 351.5563,-181.5001"/>
</g>
</g>
</svg>
