<?xml version="1.0" encoding="UTF-8" standalone="no"?>
<!DOCTYPE svg PUBLIC "-//W3C//DTD SVG 1.1//EN"
 "http://www.w3.org/Graphics/SVG/1.1/DTD/svg11.dtd">
<!-- Generated by graphviz version 2.40.1 (20161225.0304)
 -->
<!-- Title: fast_approx Pages: 1 -->
<svg width="362pt" height="532pt"
 viewBox="0.00 0.00 362.00 532.00" xmlns="http://www.w3.org/2000/svg" xmlns:xlink="http://www.w3.org/1999/xlink">
<g id="graph0" class="graph" transform="scale(1 1) rotate(0) translate(4 528)">
<title>fast_approx</title>
<polygon fill="#ffffff" stroke="transparent" points="-4,4 -4,-528 358,-528 358,4 -4,4"/>
<g id="clust1" class="cluster">
<title>cluster_NASALib</title>
<polygon fill="none" stroke="#000000" points="8,-8 8,-516 250,-516 250,-8 8,-8"/>
<text text-anchor="middle" x="129" y="-500.8" font-family="Times,serif" font-size="14.00" fill="#000000">NASALib</text>
</g>
<g id="clust2" class="cluster">
<title>cluster_PVS Prelude</title>
<polygon fill="none" stroke="#000000" points="258,-152 258,-226 346,-226 346,-152 258,-152"/>
<text text-anchor="middle" x="302" y="-210.8" font-family="Times,serif" font-size="14.00" fill="#000000">PVS Prelude</text>
</g>
<!-- /Users/mmoscato/nasa/pvslib/pvslib&#45;gitlab__pvs7.0/analysis -->
<g id="node1" class="node">
<title>/Users/mmoscato/nasa/pvslib/pvslib&#45;gitlab__pvs7.0/analysis</title>
<polygon fill="#fcfcd7" stroke="#000000" points="177.6036,-270 116.3964,-270 116.3964,-234 177.6036,-234 177.6036,-270"/>
<text text-anchor="middle" x="147" y="-247.8" font-family="Times,serif" font-size="14.00" fill="#000000">analysis</text>
</g>
<!-- /Users/mmoscato/nasa/pvslib/pvslib&#45;gitlab__pvs7.0/ints -->
<g id="node3" class="node">
<title>/Users/mmoscato/nasa/pvslib/pvslib&#45;gitlab__pvs7.0/ints</title>
<polygon fill="#fcfcd7" stroke="#000000" points="176,-52 122,-52 122,-16 176,-16 176,-52"/>
<text text-anchor="middle" x="149" y="-29.8" font-family="Times,serif" font-size="14.00" fill="#000000">ints</text>
</g>
<!-- /Users/mmoscato/nasa/pvslib/pvslib&#45;gitlab__pvs7.0/analysis&#45;&gt;/Users/mmoscato/nasa/pvslib/pvslib&#45;gitlab__pvs7.0/ints -->
<g id="edge1" class="edge">
<title>/Users/mmoscato/nasa/pvslib/pvslib&#45;gitlab__pvs7.0/analysis&#45;&gt;/Users/mmoscato/nasa/pvslib/pvslib&#45;gitlab__pvs7.0/ints</title>
<path fill="none" stroke="#000000" d="M177.5631,-246C203.5012,-246 236.5368,-246 236.5368,-246 236.5368,-246 236.5368,-34 236.5368,-34 236.5368,-34 186.2173,-34 186.2173,-34"/>
<polygon fill="#000000" stroke="#000000" points="186.2174,-30.5001 176.2173,-34 186.2173,-37.5001 186.2174,-30.5001"/>
</g>
<!-- /Users/mmoscato/nasa/pvslib/pvslib&#45;gitlab__pvs7.0/orders -->
<g id="node4" class="node">
<title>/Users/mmoscato/nasa/pvslib/pvslib&#45;gitlab__pvs7.0/orders</title>
<polygon fill="#fcfcd7" stroke="#000000" points="110,-196 56,-196 56,-160 110,-160 110,-196"/>
<text text-anchor="middle" x="83" y="-173.8" font-family="Times,serif" font-size="14.00" fill="#000000">orders</text>
</g>
<!-- /Users/mmoscato/nasa/pvslib/pvslib&#45;gitlab__pvs7.0/analysis&#45;&gt;/Users/mmoscato/nasa/pvslib/pvslib&#45;gitlab__pvs7.0/orders -->
<g id="edge2" class="edge">
<title>/Users/mmoscato/nasa/pvslib/pvslib&#45;gitlab__pvs7.0/analysis&#45;&gt;/Users/mmoscato/nasa/pvslib/pvslib&#45;gitlab__pvs7.0/orders</title>
<path fill="none" stroke="#000000" d="M116.2709,-252C111.4373,-252 108,-252 108,-252 108,-252 108,-206.2921 108,-206.2921"/>
<polygon fill="#000000" stroke="#000000" points="111.5001,-206.2921 108,-196.2921 104.5001,-206.2922 111.5001,-206.2921"/>
</g>
<!-- /Users/mmoscato/nasa/pvslib/pvslib&#45;gitlab__pvs7.0/reals -->
<g id="node5" class="node">
<title>/Users/mmoscato/nasa/pvslib/pvslib&#45;gitlab__pvs7.0/reals</title>
<polygon fill="#fcfcd7" stroke="#000000" points="222,-196 168,-196 168,-160 222,-160 222,-196"/>
<text text-anchor="middle" x="195" y="-173.8" font-family="Times,serif" font-size="14.00" fill="#000000">reals</text>
</g>
<!-- /Users/mmoscato/nasa/pvslib/pvslib&#45;gitlab__pvs7.0/analysis&#45;&gt;/Users/mmoscato/nasa/pvslib/pvslib&#45;gitlab__pvs7.0/reals -->
<g id="edge3" class="edge">
<title>/Users/mmoscato/nasa/pvslib/pvslib&#45;gitlab__pvs7.0/analysis&#45;&gt;/Users/mmoscato/nasa/pvslib/pvslib&#45;gitlab__pvs7.0/reals</title>
<path fill="none" stroke="#000000" d="M172.7759,-233.7079C172.7759,-233.7079 172.7759,-206.0817 172.7759,-206.0817"/>
<polygon fill="#000000" stroke="#000000" points="176.276,-206.0817 172.7759,-196.0817 169.276,-206.0818 176.276,-206.0817"/>
</g>
<!-- /Users/mmoscato/nasa/pvslib/pvslib&#45;gitlab__pvs7.0/structures -->
<g id="node7" class="node">
<title>/Users/mmoscato/nasa/pvslib/pvslib&#45;gitlab__pvs7.0/structures</title>
<polygon fill="#fcfcd7" stroke="#000000" points="184.429,-124 113.571,-124 113.571,-88 184.429,-88 184.429,-124"/>
<text text-anchor="middle" x="149" y="-101.8" font-family="Times,serif" font-size="14.00" fill="#000000">structures</text>
</g>
<!-- /Users/mmoscato/nasa/pvslib/pvslib&#45;gitlab__pvs7.0/analysis&#45;&gt;/Users/mmoscato/nasa/pvslib/pvslib&#45;gitlab__pvs7.0/structures -->
<g id="edge4" class="edge">
<title>/Users/mmoscato/nasa/pvslib/pvslib&#45;gitlab__pvs7.0/analysis&#45;&gt;/Users/mmoscato/nasa/pvslib/pvslib&#45;gitlab__pvs7.0/structures</title>
<path fill="none" stroke="#000000" d="M147.3793,-233.8042C147.3793,-233.8042 147.3793,-134.4251 147.3793,-134.4251"/>
<polygon fill="#000000" stroke="#000000" points="150.8794,-134.4251 147.3793,-124.4251 143.8794,-134.4251 150.8794,-134.4251"/>
</g>
<!-- /Users/mmoscato/pvs/7.1&#45;0&#45;g3fb4f25&#45;ix86&#45;MacOSX&#45;allegro/lib/finite_sets -->
<g id="node9" class="node">
<title>/Users/mmoscato/pvs/7.1&#45;0&#45;g3fb4f25&#45;ix86&#45;MacOSX&#45;allegro/lib/finite_sets</title>
<polygon fill="#fcfcd7" stroke="#000000" points="338.2796,-196 265.7204,-196 265.7204,-160 338.2796,-160 338.2796,-196"/>
<text text-anchor="middle" x="302" y="-173.8" font-family="Times,serif" font-size="14.00" fill="#000000">finite_sets</text>
</g>
<!-- /Users/mmoscato/nasa/pvslib/pvslib&#45;gitlab__pvs7.0/analysis&#45;&gt;/Users/mmoscato/pvs/7.1&#45;0&#45;g3fb4f25&#45;ix86&#45;MacOSX&#45;allegro/lib/finite_sets -->
<g id="edge5" class="edge">
<title>/Users/mmoscato/nasa/pvslib/pvslib&#45;gitlab__pvs7.0/analysis&#45;&gt;/Users/mmoscato/pvs/7.1&#45;0&#45;g3fb4f25&#45;ix86&#45;MacOSX&#45;allegro/lib/finite_sets</title>
<path fill="none" stroke="#000000" d="M177.8857,-258C217.2244,-258 280.1662,-258 280.1662,-258 280.1662,-258 280.1662,-206.1532 280.1662,-206.1532"/>
<polygon fill="#000000" stroke="#000000" points="283.6663,-206.1532 280.1662,-196.1532 276.6663,-206.1533 283.6663,-206.1532"/>
</g>
<!-- /Users/mmoscato/nasa/pvslib/pvslib&#45;gitlab__pvs7.0/fast_approx -->
<g id="node2" class="node">
<title>/Users/mmoscato/nasa/pvslib/pvslib&#45;gitlab__pvs7.0/fast_approx</title>
<polygon fill="#f7e28d" stroke="#000000" points="168.0899,-486 85.9101,-486 85.9101,-450 168.0899,-450 168.0899,-486"/>
<text text-anchor="middle" x="127" y="-463.8" font-family="Times,serif" font-size="14.00" fill="#000000">fast_approx</text>
</g>
<!-- /Users/mmoscato/nasa/pvslib/pvslib&#45;gitlab__pvs7.0/fast_approx&#45;&gt;/Users/mmoscato/nasa/pvslib/pvslib&#45;gitlab__pvs7.0/analysis -->
<g id="edge6" class="edge">
<title>/Users/mmoscato/nasa/pvslib/pvslib&#45;gitlab__pvs7.0/fast_approx&#45;&gt;/Users/mmoscato/nasa/pvslib/pvslib&#45;gitlab__pvs7.0/analysis</title>
<path fill="none" stroke="#000000" d="M157,-449.9555C157,-449.9555 157,-280.1451 157,-280.1451"/>
<polygon fill="#000000" stroke="#000000" points="160.5001,-280.145 157,-270.1451 153.5001,-280.1451 160.5001,-280.145"/>
</g>
<!-- /Users/mmoscato/nasa/pvslib/pvslib&#45;gitlab__pvs7.0/fast_approx&#45;&gt;/Users/mmoscato/nasa/pvslib/pvslib&#45;gitlab__pvs7.0/ints -->
<g id="edge7" class="edge">
<title>/Users/mmoscato/nasa/pvslib/pvslib&#45;gitlab__pvs7.0/fast_approx&#45;&gt;/Users/mmoscato/nasa/pvslib/pvslib&#45;gitlab__pvs7.0/ints</title>
<path fill="none" stroke="#000000" d="M85.8841,-468C60.2093,-468 32,-468 32,-468 32,-468 32,-28 32,-28 32,-28 111.8638,-28 111.8638,-28"/>
<polygon fill="#000000" stroke="#000000" points="111.8638,-31.5001 121.8638,-28 111.8637,-24.5001 111.8638,-31.5001"/>
</g>
<!-- /Users/mmoscato/nasa/pvslib/pvslib&#45;gitlab__pvs7.0/fast_approx&#45;&gt;/Users/mmoscato/nasa/pvslib/pvslib&#45;gitlab__pvs7.0/orders -->
<g id="edge8" class="edge">
<title>/Users/mmoscato/nasa/pvslib/pvslib&#45;gitlab__pvs7.0/fast_approx&#45;&gt;/Users/mmoscato/nasa/pvslib/pvslib&#45;gitlab__pvs7.0/orders</title>
<path fill="none" stroke="#000000" d="M90.6367,-449.8592C90.6367,-449.8592 90.6367,-206.1339 90.6367,-206.1339"/>
<polygon fill="#000000" stroke="#000000" points="94.1368,-206.1339 90.6367,-196.1339 87.1368,-206.134 94.1368,-206.1339"/>
</g>
<!-- /Users/mmoscato/nasa/pvslib/pvslib&#45;gitlab__pvs7.0/fast_approx&#45;&gt;/Users/mmoscato/nasa/pvslib/pvslib&#45;gitlab__pvs7.0/reals -->
<g id="edge9" class="edge">
<title>/Users/mmoscato/nasa/pvslib/pvslib&#45;gitlab__pvs7.0/fast_approx&#45;&gt;/Users/mmoscato/nasa/pvslib/pvslib&#45;gitlab__pvs7.0/reals</title>
<path fill="none" stroke="#000000" d="M160,-449.7078C160,-405.034 160,-294 160,-294 160,-294 194.5311,-294 194.5311,-294 194.5311,-294 194.5311,-206.125 194.5311,-206.125"/>
<polygon fill="#000000" stroke="#000000" points="198.0312,-206.125 194.5311,-196.125 191.0312,-206.125 198.0312,-206.125"/>
</g>
<!-- /Users/mmoscato/nasa/pvslib/pvslib&#45;gitlab__pvs7.0/series -->
<g id="node6" class="node">
<title>/Users/mmoscato/nasa/pvslib/pvslib&#45;gitlab__pvs7.0/series</title>
<polygon fill="#fcfcd7" stroke="#000000" points="220,-342 166,-342 166,-306 220,-306 220,-342"/>
<text text-anchor="middle" x="193" y="-319.8" font-family="Times,serif" font-size="14.00" fill="#000000">series</text>
</g>
<!-- /Users/mmoscato/nasa/pvslib/pvslib&#45;gitlab__pvs7.0/fast_approx&#45;&gt;/Users/mmoscato/nasa/pvslib/pvslib&#45;gitlab__pvs7.0/series -->
<g id="edge10" class="edge">
<title>/Users/mmoscato/nasa/pvslib/pvslib&#45;gitlab__pvs7.0/fast_approx&#45;&gt;/Users/mmoscato/nasa/pvslib/pvslib&#45;gitlab__pvs7.0/series</title>
<path fill="none" stroke="#000000" d="M163,-449.7933C163,-412.9441 163,-333 163,-333 163,-333 163.2769,-333 163.2769,-333"/>
<polygon fill="#000000" stroke="#000000" points="155.7687,-336.5004 165.7686,-333 155.7684,-329.5004 155.7687,-336.5004"/>
</g>
<!-- /Users/mmoscato/nasa/pvslib/pvslib&#45;gitlab__pvs7.0/fast_approx&#45;&gt;/Users/mmoscato/nasa/pvslib/pvslib&#45;gitlab__pvs7.0/structures -->
<g id="edge11" class="edge">
<title>/Users/mmoscato/nasa/pvslib/pvslib&#45;gitlab__pvs7.0/fast_approx&#45;&gt;/Users/mmoscato/nasa/pvslib/pvslib&#45;gitlab__pvs7.0/structures</title>
<path fill="none" stroke="#000000" d="M95.3184,-449.8049C95.3184,-391.7943 95.3184,-215 95.3184,-215 95.3184,-215 126.7586,-215 126.7586,-215 126.7586,-215 126.7586,-134.4904 126.7586,-134.4904"/>
<polygon fill="#000000" stroke="#000000" points="130.2587,-134.4903 126.7586,-124.4904 123.2587,-134.4904 130.2587,-134.4903"/>
</g>
<!-- /Users/mmoscato/nasa/pvslib/pvslib&#45;gitlab__pvs7.0/trig -->
<g id="node8" class="node">
<title>/Users/mmoscato/nasa/pvslib/pvslib&#45;gitlab__pvs7.0/trig</title>
<polygon fill="#fcfcd7" stroke="#000000" points="154,-414 100,-414 100,-378 154,-378 154,-414"/>
<text text-anchor="middle" x="127" y="-391.8" font-family="Times,serif" font-size="14.00" fill="#000000">trig</text>
</g>
<!-- /Users/mmoscato/nasa/pvslib/pvslib&#45;gitlab__pvs7.0/fast_approx&#45;&gt;/Users/mmoscato/nasa/pvslib/pvslib&#45;gitlab__pvs7.0/trig -->
<g id="edge12" class="edge">
<title>/Users/mmoscato/nasa/pvslib/pvslib&#45;gitlab__pvs7.0/fast_approx&#45;&gt;/Users/mmoscato/nasa/pvslib/pvslib&#45;gitlab__pvs7.0/trig</title>
<path fill="none" stroke="#000000" d="M127,-449.8314C127,-449.8314 127,-424.4133 127,-424.4133"/>
<polygon fill="#000000" stroke="#000000" points="130.5001,-424.4132 127,-414.4133 123.5001,-424.4133 130.5001,-424.4132"/>
</g>
<!-- /Users/mmoscato/nasa/pvslib/pvslib&#45;gitlab__pvs7.0/fast_approx&#45;&gt;/Users/mmoscato/pvs/7.1&#45;0&#45;g3fb4f25&#45;ix86&#45;MacOSX&#45;allegro/lib/finite_sets -->
<g id="edge13" class="edge">
<title>/Users/mmoscato/nasa/pvslib/pvslib&#45;gitlab__pvs7.0/fast_approx&#45;&gt;/Users/mmoscato/pvs/7.1&#45;0&#45;g3fb4f25&#45;ix86&#45;MacOSX&#45;allegro/lib/finite_sets</title>
<path fill="none" stroke="#000000" d="M168.2628,-468C225.9808,-468 323.8338,-468 323.8338,-468 323.8338,-468 323.8338,-206.1408 323.8338,-206.1408"/>
<polygon fill="#000000" stroke="#000000" points="327.3339,-206.1408 323.8338,-196.1408 320.3339,-206.1408 327.3339,-206.1408"/>
</g>
<!-- /Users/mmoscato/nasa/pvslib/pvslib&#45;gitlab__pvs7.0/reals&#45;&gt;/Users/mmoscato/nasa/pvslib/pvslib&#45;gitlab__pvs7.0/ints -->
<g id="edge14" class="edge">
<title>/Users/mmoscato/nasa/pvslib/pvslib&#45;gitlab__pvs7.0/reals&#45;&gt;/Users/mmoscato/nasa/pvslib/pvslib&#45;gitlab__pvs7.0/ints</title>
<path fill="none" stroke="#000000" d="M203.1069,-159.7933C203.1069,-122.9441 203.1069,-43 203.1069,-43 203.1069,-43 186.0535,-43 186.0535,-43"/>
<polygon fill="#000000" stroke="#000000" points="186.0535,-39.5001 176.0535,-43 186.0534,-46.5001 186.0535,-39.5001"/>
</g>
<!-- /Users/mmoscato/nasa/pvslib/pvslib&#45;gitlab__pvs7.0/reals&#45;&gt;/Users/mmoscato/nasa/pvslib/pvslib&#45;gitlab__pvs7.0/structures -->
<g id="edge15" class="edge">
<title>/Users/mmoscato/nasa/pvslib/pvslib&#45;gitlab__pvs7.0/reals&#45;&gt;/Users/mmoscato/nasa/pvslib/pvslib&#45;gitlab__pvs7.0/structures</title>
<path fill="none" stroke="#000000" d="M176.1069,-159.8314C176.1069,-159.8314 176.1069,-134.4133 176.1069,-134.4133"/>
<polygon fill="#000000" stroke="#000000" points="179.607,-134.4132 176.1069,-124.4133 172.607,-134.4133 179.607,-134.4132"/>
</g>
<!-- /Users/mmoscato/nasa/pvslib/pvslib&#45;gitlab__pvs7.0/series&#45;&gt;/Users/mmoscato/nasa/pvslib/pvslib&#45;gitlab__pvs7.0/analysis -->
<g id="edge16" class="edge">
<title>/Users/mmoscato/nasa/pvslib/pvslib&#45;gitlab__pvs7.0/series&#45;&gt;/Users/mmoscato/nasa/pvslib/pvslib&#45;gitlab__pvs7.0/analysis</title>
<path fill="none" stroke="#000000" d="M171.7759,-305.8314C171.7759,-305.8314 171.7759,-280.4133 171.7759,-280.4133"/>
<polygon fill="#000000" stroke="#000000" points="175.276,-280.4132 171.7759,-270.4133 168.276,-280.4133 175.276,-280.4132"/>
</g>
<!-- /Users/mmoscato/nasa/pvslib/pvslib&#45;gitlab__pvs7.0/series&#45;&gt;/Users/mmoscato/nasa/pvslib/pvslib&#45;gitlab__pvs7.0/ints -->
<g id="edge17" class="edge">
<title>/Users/mmoscato/nasa/pvslib/pvslib&#45;gitlab__pvs7.0/series&#45;&gt;/Users/mmoscato/nasa/pvslib/pvslib&#45;gitlab__pvs7.0/ints</title>
<path fill="none" stroke="#000000" d="M220.3363,-318C235.3988,-318 251.0736,-318 251.0736,-318 251.0736,-318 251.0736,-25 251.0736,-25 251.0736,-25 186.0859,-25 186.0859,-25"/>
<polygon fill="#000000" stroke="#000000" points="186.0859,-21.5001 176.0859,-25 186.0858,-28.5001 186.0859,-21.5001"/>
</g>
<!-- /Users/mmoscato/nasa/pvslib/pvslib&#45;gitlab__pvs7.0/series&#45;&gt;/Users/mmoscato/nasa/pvslib/pvslib&#45;gitlab__pvs7.0/orders -->
<g id="edge18" class="edge">
<title>/Users/mmoscato/nasa/pvslib/pvslib&#45;gitlab__pvs7.0/series&#45;&gt;/Users/mmoscato/nasa/pvslib/pvslib&#45;gitlab__pvs7.0/orders</title>
<path fill="none" stroke="#000000" d="M165.9496,-315C140.4105,-315 106,-315 106,-315 106,-315 106,-206.1925 106,-206.1925"/>
<polygon fill="#000000" stroke="#000000" points="109.5001,-206.1925 106,-196.1925 102.5001,-206.1926 109.5001,-206.1925"/>
</g>
<!-- /Users/mmoscato/nasa/pvslib/pvslib&#45;gitlab__pvs7.0/series&#45;&gt;/Users/mmoscato/nasa/pvslib/pvslib&#45;gitlab__pvs7.0/reals -->
<g id="edge19" class="edge">
<title>/Users/mmoscato/nasa/pvslib/pvslib&#45;gitlab__pvs7.0/series&#45;&gt;/Users/mmoscato/nasa/pvslib/pvslib&#45;gitlab__pvs7.0/reals</title>
<path fill="none" stroke="#000000" d="M211.5104,-305.8042C211.5104,-305.8042 211.5104,-206.4251 211.5104,-206.4251"/>
<polygon fill="#000000" stroke="#000000" points="215.0105,-206.4251 211.5104,-196.4251 208.0105,-206.4251 215.0105,-206.4251"/>
</g>
<!-- /Users/mmoscato/nasa/pvslib/pvslib&#45;gitlab__pvs7.0/series&#45;&gt;/Users/mmoscato/nasa/pvslib/pvslib&#45;gitlab__pvs7.0/structures -->
<g id="edge20" class="edge">
<title>/Users/mmoscato/nasa/pvslib/pvslib&#45;gitlab__pvs7.0/series&#45;&gt;/Users/mmoscato/nasa/pvslib/pvslib&#45;gitlab__pvs7.0/structures</title>
<path fill="none" stroke="#000000" d="M203.0207,-305.9265C203.0207,-272.6366 203.0207,-205 203.0207,-205 203.0207,-205 157.6896,-205 157.6896,-205 157.6896,-205 157.6896,-134.1581 157.6896,-134.1581"/>
<polygon fill="#000000" stroke="#000000" points="161.1897,-134.1581 157.6896,-124.1581 154.1897,-134.1582 161.1897,-134.1581"/>
</g>
<!-- /Users/mmoscato/nasa/pvslib/pvslib&#45;gitlab__pvs7.0/series&#45;&gt;/Users/mmoscato/pvs/7.1&#45;0&#45;g3fb4f25&#45;ix86&#45;MacOSX&#45;allegro/lib/finite_sets -->
<g id="edge21" class="edge">
<title>/Users/mmoscato/nasa/pvslib/pvslib&#45;gitlab__pvs7.0/series&#45;&gt;/Users/mmoscato/pvs/7.1&#45;0&#45;g3fb4f25&#45;ix86&#45;MacOSX&#45;allegro/lib/finite_sets</title>
<path fill="none" stroke="#000000" d="M220.2596,-330C250.391,-330 294.7221,-330 294.7221,-330 294.7221,-330 294.7221,-206.0333 294.7221,-206.0333"/>
<polygon fill="#000000" stroke="#000000" points="298.2222,-206.0333 294.7221,-196.0333 291.2222,-206.0333 298.2222,-206.0333"/>
</g>
<!-- /Users/mmoscato/nasa/pvslib/pvslib&#45;gitlab__pvs7.0/structures&#45;&gt;/Users/mmoscato/nasa/pvslib/pvslib&#45;gitlab__pvs7.0/ints -->
<g id="edge22" class="edge">
<title>/Users/mmoscato/nasa/pvslib/pvslib&#45;gitlab__pvs7.0/structures&#45;&gt;/Users/mmoscato/nasa/pvslib/pvslib&#45;gitlab__pvs7.0/ints</title>
<path fill="none" stroke="#000000" d="M149,-87.8314C149,-87.8314 149,-62.4133 149,-62.4133"/>
<polygon fill="#000000" stroke="#000000" points="152.5001,-62.4132 149,-52.4133 145.5001,-62.4133 152.5001,-62.4132"/>
</g>
<!-- /Users/mmoscato/nasa/pvslib/pvslib&#45;gitlab__pvs7.0/trig&#45;&gt;/Users/mmoscato/nasa/pvslib/pvslib&#45;gitlab__pvs7.0/analysis -->
<g id="edge23" class="edge">
<title>/Users/mmoscato/nasa/pvslib/pvslib&#45;gitlab__pvs7.0/trig&#45;&gt;/Users/mmoscato/nasa/pvslib/pvslib&#45;gitlab__pvs7.0/analysis</title>
<path fill="none" stroke="#000000" d="M125.8362,-377.7623C125.8362,-377.7623 125.8362,-280.0896 125.8362,-280.0896"/>
<polygon fill="#000000" stroke="#000000" points="129.3363,-280.0896 125.8362,-270.0896 122.3363,-280.0897 129.3363,-280.0896"/>
</g>
<!-- /Users/mmoscato/nasa/pvslib/pvslib&#45;gitlab__pvs7.0/trig&#45;&gt;/Users/mmoscato/nasa/pvslib/pvslib&#45;gitlab__pvs7.0/ints -->
<g id="edge24" class="edge">
<title>/Users/mmoscato/nasa/pvslib/pvslib&#45;gitlab__pvs7.0/trig&#45;&gt;/Users/mmoscato/nasa/pvslib/pvslib&#45;gitlab__pvs7.0/ints</title>
<path fill="none" stroke="#000000" d="M99.8227,-396C75.6164,-396 44,-396 44,-396 44,-396 44,-40 44,-40 44,-40 111.9599,-40 111.9599,-40"/>
<polygon fill="#000000" stroke="#000000" points="111.9599,-43.5001 121.9599,-40 111.9599,-36.5001 111.9599,-43.5001"/>
</g>
<!-- /Users/mmoscato/nasa/pvslib/pvslib&#45;gitlab__pvs7.0/trig&#45;&gt;/Users/mmoscato/nasa/pvslib/pvslib&#45;gitlab__pvs7.0/orders -->
<g id="edge25" class="edge">
<title>/Users/mmoscato/nasa/pvslib/pvslib&#45;gitlab__pvs7.0/trig&#45;&gt;/Users/mmoscato/nasa/pvslib/pvslib&#45;gitlab__pvs7.0/orders</title>
<path fill="none" stroke="#000000" d="M102,-377.7884C102,-377.7884 102,-206.0064 102,-206.0064"/>
<polygon fill="#000000" stroke="#000000" points="105.5001,-206.0064 102,-196.0064 98.5001,-206.0065 105.5001,-206.0064"/>
</g>
<!-- /Users/mmoscato/nasa/pvslib/pvslib&#45;gitlab__pvs7.0/trig&#45;&gt;/Users/mmoscato/nasa/pvslib/pvslib&#45;gitlab__pvs7.0/reals -->
<g id="edge26" class="edge">
<title>/Users/mmoscato/nasa/pvslib/pvslib&#45;gitlab__pvs7.0/trig&#45;&gt;/Users/mmoscato/nasa/pvslib/pvslib&#45;gitlab__pvs7.0/reals</title>
<path fill="none" stroke="#000000" d="M135.2241,-377.9364C135.2241,-345.7915 135.2241,-282 135.2241,-282 135.2241,-282 186.0414,-282 186.0414,-282 186.0414,-282 186.0414,-206.1154 186.0414,-206.1154"/>
<polygon fill="#000000" stroke="#000000" points="189.5415,-206.1154 186.0414,-196.1154 182.5415,-206.1155 189.5415,-206.1154"/>
</g>
<!-- /Users/mmoscato/nasa/pvslib/pvslib&#45;gitlab__pvs7.0/trig&#45;&gt;/Users/mmoscato/nasa/pvslib/pvslib&#45;gitlab__pvs7.0/series -->
<g id="edge27" class="edge">
<title>/Users/mmoscato/nasa/pvslib/pvslib&#45;gitlab__pvs7.0/trig&#45;&gt;/Users/mmoscato/nasa/pvslib/pvslib&#45;gitlab__pvs7.0/series</title>
<path fill="none" stroke="#000000" d="M144.6121,-377.8314C144.6121,-356.502 144.6121,-324 144.6121,-324 144.6121,-324 155.9766,-324 155.9766,-324"/>
<polygon fill="#000000" stroke="#000000" points="155.9766,-327.5001 165.9766,-324 155.9765,-320.5001 155.9766,-327.5001"/>
</g>
<!-- /Users/mmoscato/nasa/pvslib/pvslib&#45;gitlab__pvs7.0/trig&#45;&gt;/Users/mmoscato/nasa/pvslib/pvslib&#45;gitlab__pvs7.0/structures -->
<g id="edge28" class="edge">
<title>/Users/mmoscato/nasa/pvslib/pvslib&#45;gitlab__pvs7.0/trig&#45;&gt;/Users/mmoscato/nasa/pvslib/pvslib&#45;gitlab__pvs7.0/structures</title>
<path fill="none" stroke="#000000" d="M104,-377.9181C104,-333.7577 104,-224 104,-224 104,-224 137.0689,-224 137.0689,-224 137.0689,-224 137.0689,-134.1789 137.0689,-134.1789"/>
<polygon fill="#000000" stroke="#000000" points="140.569,-134.1789 137.0689,-124.1789 133.569,-134.1789 140.569,-134.1789"/>
</g>
<!-- /Users/mmoscato/nasa/pvslib/pvslib&#45;gitlab__pvs7.0/trig&#45;&gt;/Users/mmoscato/pvs/7.1&#45;0&#45;g3fb4f25&#45;ix86&#45;MacOSX&#45;allegro/lib/finite_sets -->
<g id="edge29" class="edge">
<title>/Users/mmoscato/nasa/pvslib/pvslib&#45;gitlab__pvs7.0/trig&#45;&gt;/Users/mmoscato/pvs/7.1&#45;0&#45;g3fb4f25&#45;ix86&#45;MacOSX&#45;allegro/lib/finite_sets</title>
<path fill="none" stroke="#000000" d="M154.2888,-396C205.1383,-396 309.2779,-396 309.2779,-396 309.2779,-396 309.2779,-206.2116 309.2779,-206.2116"/>
<polygon fill="#000000" stroke="#000000" points="312.778,-206.2116 309.2779,-196.2116 305.778,-206.2116 312.778,-206.2116"/>
</g>
</g>
</svg>
