<?xml version="1.0" encoding="UTF-8" standalone="no"?>
<!DOCTYPE svg PUBLIC "-//W3C//DTD SVG 1.1//EN"
 "http://www.w3.org/Graphics/SVG/1.1/DTD/svg11.dtd">
<!-- Generated by graphviz version 2.40.1 (20161225.0304)
 -->
<!-- Title: topology Pages: 1 -->
<svg width="312pt" height="244pt"
 viewBox="0.00 0.00 312.00 244.00" xmlns="http://www.w3.org/2000/svg" xmlns:xlink="http://www.w3.org/1999/xlink">
<g id="graph0" class="graph" transform="scale(1 1) rotate(0) translate(4 240)">
<title>topology</title>
<polygon fill="#ffffff" stroke="transparent" points="-4,4 -4,-240 308,-240 308,4 -4,4"/>
<g id="clust1" class="cluster">
<title>cluster_NASALib</title>
<polygon fill="none" stroke="#000000" points="8,-8 8,-228 200,-228 200,-8 8,-8"/>
<text text-anchor="middle" x="104" y="-212.8" font-family="Times,serif" font-size="14.00" fill="#000000">NASALib</text>
</g>
<g id="clust2" class="cluster">
<title>cluster_PVS Prelude</title>
<polygon fill="none" stroke="#000000" points="208,-80 208,-154 296,-154 296,-80 208,-80"/>
<text text-anchor="middle" x="252" y="-138.8" font-family="Times,serif" font-size="14.00" fill="#000000">PVS Prelude</text>
</g>
<!-- /Users/mmoscato/nasa/pvslib/pvslib&#45;gitlab__pvs7.0/orders -->
<g id="node1" class="node">
<title>/Users/mmoscato/nasa/pvslib/pvslib&#45;gitlab__pvs7.0/orders</title>
<polygon fill="#fcfcd7" stroke="#000000" points="81,-52 27,-52 27,-16 81,-16 81,-52"/>
<text text-anchor="middle" x="54" y="-29.8" font-family="Times,serif" font-size="14.00" fill="#000000">orders</text>
</g>
<!-- /Users/mmoscato/nasa/pvslib/pvslib&#45;gitlab__pvs7.0/reals -->
<g id="node2" class="node">
<title>/Users/mmoscato/nasa/pvslib/pvslib&#45;gitlab__pvs7.0/reals</title>
<polygon fill="#fcfcd7" stroke="#000000" points="172,-124 118,-124 118,-88 172,-88 172,-124"/>
<text text-anchor="middle" x="145" y="-101.8" font-family="Times,serif" font-size="14.00" fill="#000000">reals</text>
</g>
<!-- /Users/mmoscato/nasa/pvslib/pvslib&#45;gitlab__pvs7.0/structures -->
<g id="node4" class="node">
<title>/Users/mmoscato/nasa/pvslib/pvslib&#45;gitlab__pvs7.0/structures</title>
<polygon fill="#fcfcd7" stroke="#000000" points="180.429,-52 109.571,-52 109.571,-16 180.429,-16 180.429,-52"/>
<text text-anchor="middle" x="145" y="-29.8" font-family="Times,serif" font-size="14.00" fill="#000000">structures</text>
</g>
<!-- /Users/mmoscato/nasa/pvslib/pvslib&#45;gitlab__pvs7.0/reals&#45;&gt;/Users/mmoscato/nasa/pvslib/pvslib&#45;gitlab__pvs7.0/structures -->
<g id="edge1" class="edge">
<title>/Users/mmoscato/nasa/pvslib/pvslib&#45;gitlab__pvs7.0/reals&#45;&gt;/Users/mmoscato/nasa/pvslib/pvslib&#45;gitlab__pvs7.0/structures</title>
<path fill="none" stroke="#000000" d="M145,-87.8314C145,-87.8314 145,-62.4133 145,-62.4133"/>
<polygon fill="#000000" stroke="#000000" points="148.5001,-62.4132 145,-52.4133 141.5001,-62.4133 148.5001,-62.4132"/>
</g>
<!-- /Users/mmoscato/nasa/pvslib/pvslib&#45;gitlab__pvs7.0/sets_aux -->
<g id="node3" class="node">
<title>/Users/mmoscato/nasa/pvslib/pvslib&#45;gitlab__pvs7.0/sets_aux</title>
<polygon fill="#fcfcd7" stroke="#000000" points="100.2142,-124 35.7858,-124 35.7858,-88 100.2142,-88 100.2142,-124"/>
<text text-anchor="middle" x="68" y="-101.8" font-family="Times,serif" font-size="14.00" fill="#000000">sets_aux</text>
</g>
<!-- /Users/mmoscato/nasa/pvslib/pvslib&#45;gitlab__pvs7.0/sets_aux&#45;&gt;/Users/mmoscato/nasa/pvslib/pvslib&#45;gitlab__pvs7.0/orders -->
<g id="edge2" class="edge">
<title>/Users/mmoscato/nasa/pvslib/pvslib&#45;gitlab__pvs7.0/sets_aux&#45;&gt;/Users/mmoscato/nasa/pvslib/pvslib&#45;gitlab__pvs7.0/orders</title>
<path fill="none" stroke="#000000" d="M58.4465,-87.8314C58.4465,-87.8314 58.4465,-62.4133 58.4465,-62.4133"/>
<polygon fill="#000000" stroke="#000000" points="61.9466,-62.4132 58.4465,-52.4133 54.9466,-62.4133 61.9466,-62.4132"/>
</g>
<!-- /Users/mmoscato/nasa/pvslib/pvslib&#45;gitlab__pvs7.0/sets_aux&#45;&gt;/Users/mmoscato/nasa/pvslib/pvslib&#45;gitlab__pvs7.0/structures -->
<g id="edge3" class="edge">
<title>/Users/mmoscato/nasa/pvslib/pvslib&#45;gitlab__pvs7.0/sets_aux&#45;&gt;/Users/mmoscato/nasa/pvslib/pvslib&#45;gitlab__pvs7.0/structures</title>
<path fill="none" stroke="#000000" d="M90.5535,-87.9092C90.5535,-64.8672 90.5535,-28 90.5535,-28 90.5535,-28 99.5962,-28 99.5962,-28"/>
<polygon fill="#000000" stroke="#000000" points="99.5963,-31.5001 109.5962,-28 99.5962,-24.5001 99.5963,-31.5001"/>
</g>
<!-- /Users/mmoscato/nasa/pvslib/pvslib&#45;gitlab__pvs7.0/topology -->
<g id="node5" class="node">
<title>/Users/mmoscato/nasa/pvslib/pvslib&#45;gitlab__pvs7.0/topology</title>
<polygon fill="#f7e28d" stroke="#000000" points="177.7797,-198 112.2203,-198 112.2203,-162 177.7797,-162 177.7797,-198"/>
<text text-anchor="middle" x="145" y="-175.8" font-family="Times,serif" font-size="14.00" fill="#000000">topology</text>
</g>
<!-- /Users/mmoscato/nasa/pvslib/pvslib&#45;gitlab__pvs7.0/topology&#45;&gt;/Users/mmoscato/nasa/pvslib/pvslib&#45;gitlab__pvs7.0/orders -->
<g id="edge4" class="edge">
<title>/Users/mmoscato/nasa/pvslib/pvslib&#45;gitlab__pvs7.0/topology&#45;&gt;/Users/mmoscato/nasa/pvslib/pvslib&#45;gitlab__pvs7.0/orders</title>
<path fill="none" stroke="#000000" d="M112.1556,-189C78.619,-189 31.4465,-189 31.4465,-189 31.4465,-189 31.4465,-62.0838 31.4465,-62.0838"/>
<polygon fill="#000000" stroke="#000000" points="34.9466,-62.0838 31.4465,-52.0838 27.9466,-62.0839 34.9466,-62.0838"/>
</g>
<!-- /Users/mmoscato/nasa/pvslib/pvslib&#45;gitlab__pvs7.0/topology&#45;&gt;/Users/mmoscato/nasa/pvslib/pvslib&#45;gitlab__pvs7.0/reals -->
<g id="edge5" class="edge">
<title>/Users/mmoscato/nasa/pvslib/pvslib&#45;gitlab__pvs7.0/topology&#45;&gt;/Users/mmoscato/nasa/pvslib/pvslib&#45;gitlab__pvs7.0/reals</title>
<path fill="none" stroke="#000000" d="M145,-161.7079C145,-161.7079 145,-134.0817 145,-134.0817"/>
<polygon fill="#000000" stroke="#000000" points="148.5001,-134.0817 145,-124.0817 141.5001,-134.0818 148.5001,-134.0817"/>
</g>
<!-- /Users/mmoscato/nasa/pvslib/pvslib&#45;gitlab__pvs7.0/topology&#45;&gt;/Users/mmoscato/nasa/pvslib/pvslib&#45;gitlab__pvs7.0/sets_aux -->
<g id="edge6" class="edge">
<title>/Users/mmoscato/nasa/pvslib/pvslib&#45;gitlab__pvs7.0/topology&#45;&gt;/Users/mmoscato/nasa/pvslib/pvslib&#45;gitlab__pvs7.0/sets_aux</title>
<path fill="none" stroke="#000000" d="M111.8982,-180C91.0286,-180 68,-180 68,-180 68,-180 68,-134.2921 68,-134.2921"/>
<polygon fill="#000000" stroke="#000000" points="71.5001,-134.2921 68,-124.2921 64.5001,-134.2922 71.5001,-134.2921"/>
</g>
<!-- /Users/mmoscato/nasa/pvslib/pvslib&#45;gitlab__pvs7.0/topology&#45;&gt;/Users/mmoscato/nasa/pvslib/pvslib&#45;gitlab__pvs7.0/structures -->
<g id="edge7" class="edge">
<title>/Users/mmoscato/nasa/pvslib/pvslib&#45;gitlab__pvs7.0/topology&#45;&gt;/Users/mmoscato/nasa/pvslib/pvslib&#45;gitlab__pvs7.0/structures</title>
<path fill="none" stroke="#000000" d="M111.9233,-171C107.7726,-171 104.9465,-171 104.9465,-171 104.9465,-171 104.9465,-40 104.9465,-40 104.9465,-40 105.406,-40 105.406,-40"/>
<polygon fill="#000000" stroke="#000000" points="99.5413,-43.5002 109.5412,-40 99.5411,-36.5002 99.5413,-43.5002"/>
</g>
<!-- /Users/mmoscato/pvs/7.1&#45;0&#45;g3fb4f25&#45;ix86&#45;MacOSX&#45;allegro/lib/finite_sets -->
<g id="node6" class="node">
<title>/Users/mmoscato/pvs/7.1&#45;0&#45;g3fb4f25&#45;ix86&#45;MacOSX&#45;allegro/lib/finite_sets</title>
<polygon fill="#fcfcd7" stroke="#000000" points="288.2796,-124 215.7204,-124 215.7204,-88 288.2796,-88 288.2796,-124"/>
<text text-anchor="middle" x="252" y="-101.8" font-family="Times,serif" font-size="14.00" fill="#000000">finite_sets</text>
</g>
<!-- /Users/mmoscato/nasa/pvslib/pvslib&#45;gitlab__pvs7.0/topology&#45;&gt;/Users/mmoscato/pvs/7.1&#45;0&#45;g3fb4f25&#45;ix86&#45;MacOSX&#45;allegro/lib/finite_sets -->
<g id="edge8" class="edge">
<title>/Users/mmoscato/nasa/pvslib/pvslib&#45;gitlab__pvs7.0/topology&#45;&gt;/Users/mmoscato/pvs/7.1&#45;0&#45;g3fb4f25&#45;ix86&#45;MacOSX&#45;allegro/lib/finite_sets</title>
<path fill="none" stroke="#000000" d="M177.9766,-180C209.4158,-180 252,-180 252,-180 252,-180 252,-134.2921 252,-134.2921"/>
<polygon fill="#000000" stroke="#000000" points="255.5001,-134.2921 252,-124.2921 248.5001,-134.2922 255.5001,-134.2921"/>
</g>
</g>
</svg>
