<?xml version="1.0" encoding="UTF-8" standalone="no"?>
<!DOCTYPE svg PUBLIC "-//W3C//DTD SVG 1.1//EN"
 "http://www.w3.org/Graphics/SVG/1.1/DTD/svg11.dtd">
<!-- Generated by graphviz version 2.40.1 (20161225.0304)
 -->
<!-- Title: vectors Pages: 1 -->
<svg width="362pt" height="532pt"
 viewBox="0.00 0.00 362.00 532.00" xmlns="http://www.w3.org/2000/svg" xmlns:xlink="http://www.w3.org/1999/xlink">
<g id="graph0" class="graph" transform="scale(1 1) rotate(0) translate(4 528)">
<title>vectors</title>
<polygon fill="#ffffff" stroke="transparent" points="-4,4 -4,-528 358,-528 358,4 -4,4"/>
<g id="clust1" class="cluster">
<title>cluster_NASALib</title>
<polygon fill="none" stroke="#000000" points="8,-8 8,-516 250,-516 250,-8 8,-8"/>
<text text-anchor="middle" x="129" y="-500.8" font-family="Times,serif" font-size="14.00" fill="#000000">NASALib</text>
</g>
<g id="clust2" class="cluster">
<title>cluster_PVS Prelude</title>
<polygon fill="none" stroke="#000000" points="258,-152 258,-226 346,-226 346,-152 258,-152"/>
<text text-anchor="middle" x="302" y="-210.8" font-family="Times,serif" font-size="14.00" fill="#000000">PVS Prelude</text>
</g>
<!-- /Users/mmoscato/nasa/pvslib/pvslib&#45;gitlab__pvs7.0/analysis -->
<g id="node1" class="node">
<title>/Users/mmoscato/nasa/pvslib/pvslib&#45;gitlab__pvs7.0/analysis</title>
<polygon fill="#fcfcd7" stroke="#000000" points="177.6036,-270 116.3964,-270 116.3964,-234 177.6036,-234 177.6036,-270"/>
<text text-anchor="middle" x="147" y="-247.8" font-family="Times,serif" font-size="14.00" fill="#000000">analysis</text>
</g>
<!-- /Users/mmoscato/nasa/pvslib/pvslib&#45;gitlab__pvs7.0/ints -->
<g id="node2" class="node">
<title>/Users/mmoscato/nasa/pvslib/pvslib&#45;gitlab__pvs7.0/ints</title>
<polygon fill="#fcfcd7" stroke="#000000" points="176,-52 122,-52 122,-16 176,-16 176,-52"/>
<text text-anchor="middle" x="149" y="-29.8" font-family="Times,serif" font-size="14.00" fill="#000000">ints</text>
</g>
<!-- /Users/mmoscato/nasa/pvslib/pvslib&#45;gitlab__pvs7.0/analysis&#45;&gt;/Users/mmoscato/nasa/pvslib/pvslib&#45;gitlab__pvs7.0/ints -->
<g id="edge1" class="edge">
<title>/Users/mmoscato/nasa/pvslib/pvslib&#45;gitlab__pvs7.0/analysis&#45;&gt;/Users/mmoscato/nasa/pvslib/pvslib&#45;gitlab__pvs7.0/ints</title>
<path fill="none" stroke="#000000" d="M177.6298,-246C205.9907,-246 243.8052,-246 243.8052,-246 243.8052,-246 243.8052,-34 243.8052,-34 243.8052,-34 186.1674,-34 186.1674,-34"/>
<polygon fill="#000000" stroke="#000000" points="186.1674,-30.5001 176.1674,-34 186.1673,-37.5001 186.1674,-30.5001"/>
</g>
<!-- /Users/mmoscato/nasa/pvslib/pvslib&#45;gitlab__pvs7.0/orders -->
<g id="node3" class="node">
<title>/Users/mmoscato/nasa/pvslib/pvslib&#45;gitlab__pvs7.0/orders</title>
<polygon fill="#fcfcd7" stroke="#000000" points="110,-196 56,-196 56,-160 110,-160 110,-196"/>
<text text-anchor="middle" x="83" y="-173.8" font-family="Times,serif" font-size="14.00" fill="#000000">orders</text>
</g>
<!-- /Users/mmoscato/nasa/pvslib/pvslib&#45;gitlab__pvs7.0/analysis&#45;&gt;/Users/mmoscato/nasa/pvslib/pvslib&#45;gitlab__pvs7.0/orders -->
<g id="edge2" class="edge">
<title>/Users/mmoscato/nasa/pvslib/pvslib&#45;gitlab__pvs7.0/analysis&#45;&gt;/Users/mmoscato/nasa/pvslib/pvslib&#45;gitlab__pvs7.0/orders</title>
<path fill="none" stroke="#000000" d="M116.2709,-252C111.4373,-252 108,-252 108,-252 108,-252 108,-206.2921 108,-206.2921"/>
<polygon fill="#000000" stroke="#000000" points="111.5001,-206.2921 108,-196.2921 104.5001,-206.2922 111.5001,-206.2921"/>
</g>
<!-- /Users/mmoscato/nasa/pvslib/pvslib&#45;gitlab__pvs7.0/reals -->
<g id="node4" class="node">
<title>/Users/mmoscato/nasa/pvslib/pvslib&#45;gitlab__pvs7.0/reals</title>
<polygon fill="#fcfcd7" stroke="#000000" points="222,-196 168,-196 168,-160 222,-160 222,-196"/>
<text text-anchor="middle" x="195" y="-173.8" font-family="Times,serif" font-size="14.00" fill="#000000">reals</text>
</g>
<!-- /Users/mmoscato/nasa/pvslib/pvslib&#45;gitlab__pvs7.0/analysis&#45;&gt;/Users/mmoscato/nasa/pvslib/pvslib&#45;gitlab__pvs7.0/reals -->
<g id="edge3" class="edge">
<title>/Users/mmoscato/nasa/pvslib/pvslib&#45;gitlab__pvs7.0/analysis&#45;&gt;/Users/mmoscato/nasa/pvslib/pvslib&#45;gitlab__pvs7.0/reals</title>
<path fill="none" stroke="#000000" d="M172.7759,-233.7079C172.7759,-233.7079 172.7759,-206.0817 172.7759,-206.0817"/>
<polygon fill="#000000" stroke="#000000" points="176.276,-206.0817 172.7759,-196.0817 169.276,-206.0818 176.276,-206.0817"/>
</g>
<!-- /Users/mmoscato/nasa/pvslib/pvslib&#45;gitlab__pvs7.0/structures -->
<g id="node6" class="node">
<title>/Users/mmoscato/nasa/pvslib/pvslib&#45;gitlab__pvs7.0/structures</title>
<polygon fill="#fcfcd7" stroke="#000000" points="184.429,-124 113.571,-124 113.571,-88 184.429,-88 184.429,-124"/>
<text text-anchor="middle" x="149" y="-101.8" font-family="Times,serif" font-size="14.00" fill="#000000">structures</text>
</g>
<!-- /Users/mmoscato/nasa/pvslib/pvslib&#45;gitlab__pvs7.0/analysis&#45;&gt;/Users/mmoscato/nasa/pvslib/pvslib&#45;gitlab__pvs7.0/structures -->
<g id="edge4" class="edge">
<title>/Users/mmoscato/nasa/pvslib/pvslib&#45;gitlab__pvs7.0/analysis&#45;&gt;/Users/mmoscato/nasa/pvslib/pvslib&#45;gitlab__pvs7.0/structures</title>
<path fill="none" stroke="#000000" d="M142.2241,-233.8042C142.2241,-233.8042 142.2241,-134.4251 142.2241,-134.4251"/>
<polygon fill="#000000" stroke="#000000" points="145.7242,-134.4251 142.2241,-124.4251 138.7242,-134.4251 145.7242,-134.4251"/>
</g>
<!-- /Users/mmoscato/pvs/7.1&#45;0&#45;g3fb4f25&#45;ix86&#45;MacOSX&#45;allegro/lib/finite_sets -->
<g id="node9" class="node">
<title>/Users/mmoscato/pvs/7.1&#45;0&#45;g3fb4f25&#45;ix86&#45;MacOSX&#45;allegro/lib/finite_sets</title>
<polygon fill="#fcfcd7" stroke="#000000" points="338.2796,-196 265.7204,-196 265.7204,-160 338.2796,-160 338.2796,-196"/>
<text text-anchor="middle" x="302" y="-173.8" font-family="Times,serif" font-size="14.00" fill="#000000">finite_sets</text>
</g>
<!-- /Users/mmoscato/nasa/pvslib/pvslib&#45;gitlab__pvs7.0/analysis&#45;&gt;/Users/mmoscato/pvs/7.1&#45;0&#45;g3fb4f25&#45;ix86&#45;MacOSX&#45;allegro/lib/finite_sets -->
<g id="edge5" class="edge">
<title>/Users/mmoscato/nasa/pvslib/pvslib&#45;gitlab__pvs7.0/analysis&#45;&gt;/Users/mmoscato/pvs/7.1&#45;0&#45;g3fb4f25&#45;ix86&#45;MacOSX&#45;allegro/lib/finite_sets</title>
<path fill="none" stroke="#000000" d="M177.8857,-258C217.2244,-258 280.1662,-258 280.1662,-258 280.1662,-258 280.1662,-206.1532 280.1662,-206.1532"/>
<polygon fill="#000000" stroke="#000000" points="283.6663,-206.1532 280.1662,-196.1532 276.6663,-206.1533 283.6663,-206.1532"/>
</g>
<!-- /Users/mmoscato/nasa/pvslib/pvslib&#45;gitlab__pvs7.0/reals&#45;&gt;/Users/mmoscato/nasa/pvslib/pvslib&#45;gitlab__pvs7.0/ints -->
<g id="edge6" class="edge">
<title>/Users/mmoscato/nasa/pvslib/pvslib&#45;gitlab__pvs7.0/reals&#45;&gt;/Users/mmoscato/nasa/pvslib/pvslib&#45;gitlab__pvs7.0/ints</title>
<path fill="none" stroke="#000000" d="M203.1069,-159.7933C203.1069,-122.9441 203.1069,-43 203.1069,-43 203.1069,-43 186.0535,-43 186.0535,-43"/>
<polygon fill="#000000" stroke="#000000" points="186.0535,-39.5001 176.0535,-43 186.0534,-46.5001 186.0535,-39.5001"/>
</g>
<!-- /Users/mmoscato/nasa/pvslib/pvslib&#45;gitlab__pvs7.0/reals&#45;&gt;/Users/mmoscato/nasa/pvslib/pvslib&#45;gitlab__pvs7.0/structures -->
<g id="edge7" class="edge">
<title>/Users/mmoscato/nasa/pvslib/pvslib&#45;gitlab__pvs7.0/reals&#45;&gt;/Users/mmoscato/nasa/pvslib/pvslib&#45;gitlab__pvs7.0/structures</title>
<path fill="none" stroke="#000000" d="M176.1069,-159.8314C176.1069,-159.8314 176.1069,-134.4133 176.1069,-134.4133"/>
<polygon fill="#000000" stroke="#000000" points="179.607,-134.4132 176.1069,-124.4133 172.607,-134.4133 179.607,-134.4132"/>
</g>
<!-- /Users/mmoscato/nasa/pvslib/pvslib&#45;gitlab__pvs7.0/series -->
<g id="node5" class="node">
<title>/Users/mmoscato/nasa/pvslib/pvslib&#45;gitlab__pvs7.0/series</title>
<polygon fill="#fcfcd7" stroke="#000000" points="220,-342 166,-342 166,-306 220,-306 220,-342"/>
<text text-anchor="middle" x="193" y="-319.8" font-family="Times,serif" font-size="14.00" fill="#000000">series</text>
</g>
<!-- /Users/mmoscato/nasa/pvslib/pvslib&#45;gitlab__pvs7.0/series&#45;&gt;/Users/mmoscato/nasa/pvslib/pvslib&#45;gitlab__pvs7.0/analysis -->
<g id="edge8" class="edge">
<title>/Users/mmoscato/nasa/pvslib/pvslib&#45;gitlab__pvs7.0/series&#45;&gt;/Users/mmoscato/nasa/pvslib/pvslib&#45;gitlab__pvs7.0/analysis</title>
<path fill="none" stroke="#000000" d="M171.7759,-305.8314C171.7759,-305.8314 171.7759,-280.4133 171.7759,-280.4133"/>
<polygon fill="#000000" stroke="#000000" points="175.276,-280.4132 171.7759,-270.4133 168.276,-280.4133 175.276,-280.4132"/>
</g>
<!-- /Users/mmoscato/nasa/pvslib/pvslib&#45;gitlab__pvs7.0/series&#45;&gt;/Users/mmoscato/nasa/pvslib/pvslib&#45;gitlab__pvs7.0/ints -->
<g id="edge9" class="edge">
<title>/Users/mmoscato/nasa/pvslib/pvslib&#45;gitlab__pvs7.0/series&#45;&gt;/Users/mmoscato/nasa/pvslib/pvslib&#45;gitlab__pvs7.0/ints</title>
<path fill="none" stroke="#000000" d="M220.2455,-318C236.7762,-318 254.7078,-318 254.7078,-318 254.7078,-318 254.7078,-25 254.7078,-25 254.7078,-25 186.2224,-25 186.2224,-25"/>
<polygon fill="#000000" stroke="#000000" points="186.2224,-21.5001 176.2224,-25 186.2223,-28.5001 186.2224,-21.5001"/>
</g>
<!-- /Users/mmoscato/nasa/pvslib/pvslib&#45;gitlab__pvs7.0/series&#45;&gt;/Users/mmoscato/nasa/pvslib/pvslib&#45;gitlab__pvs7.0/orders -->
<g id="edge10" class="edge">
<title>/Users/mmoscato/nasa/pvslib/pvslib&#45;gitlab__pvs7.0/series&#45;&gt;/Users/mmoscato/nasa/pvslib/pvslib&#45;gitlab__pvs7.0/orders</title>
<path fill="none" stroke="#000000" d="M165.9496,-318C140.4105,-318 106,-318 106,-318 106,-318 106,-206.0159 106,-206.0159"/>
<polygon fill="#000000" stroke="#000000" points="109.5001,-206.0159 106,-196.0159 102.5001,-206.016 109.5001,-206.0159"/>
</g>
<!-- /Users/mmoscato/nasa/pvslib/pvslib&#45;gitlab__pvs7.0/series&#45;&gt;/Users/mmoscato/nasa/pvslib/pvslib&#45;gitlab__pvs7.0/reals -->
<g id="edge11" class="edge">
<title>/Users/mmoscato/nasa/pvslib/pvslib&#45;gitlab__pvs7.0/series&#45;&gt;/Users/mmoscato/nasa/pvslib/pvslib&#45;gitlab__pvs7.0/reals</title>
<path fill="none" stroke="#000000" d="M209.3879,-305.8042C209.3879,-305.8042 209.3879,-206.4251 209.3879,-206.4251"/>
<polygon fill="#000000" stroke="#000000" points="212.888,-206.4251 209.3879,-196.4251 205.888,-206.4251 212.888,-206.4251"/>
</g>
<!-- /Users/mmoscato/nasa/pvslib/pvslib&#45;gitlab__pvs7.0/series&#45;&gt;/Users/mmoscato/nasa/pvslib/pvslib&#45;gitlab__pvs7.0/structures -->
<g id="edge12" class="edge">
<title>/Users/mmoscato/nasa/pvslib/pvslib&#45;gitlab__pvs7.0/series&#45;&gt;/Users/mmoscato/nasa/pvslib/pvslib&#45;gitlab__pvs7.0/structures</title>
<path fill="none" stroke="#000000" d="M198.7759,-305.875C198.7759,-273.25 198.7759,-208 198.7759,-208 198.7759,-208 155.1121,-208 155.1121,-208 155.1121,-208 155.1121,-134.2356 155.1121,-134.2356"/>
<polygon fill="#000000" stroke="#000000" points="158.6122,-134.2355 155.1121,-124.2356 151.6122,-134.2356 158.6122,-134.2355"/>
</g>
<!-- /Users/mmoscato/nasa/pvslib/pvslib&#45;gitlab__pvs7.0/series&#45;&gt;/Users/mmoscato/pvs/7.1&#45;0&#45;g3fb4f25&#45;ix86&#45;MacOSX&#45;allegro/lib/finite_sets -->
<g id="edge13" class="edge">
<title>/Users/mmoscato/nasa/pvslib/pvslib&#45;gitlab__pvs7.0/series&#45;&gt;/Users/mmoscato/pvs/7.1&#45;0&#45;g3fb4f25&#45;ix86&#45;MacOSX&#45;allegro/lib/finite_sets</title>
<path fill="none" stroke="#000000" d="M220.2596,-330C250.391,-330 294.7221,-330 294.7221,-330 294.7221,-330 294.7221,-206.0333 294.7221,-206.0333"/>
<polygon fill="#000000" stroke="#000000" points="298.2222,-206.0333 294.7221,-196.0333 291.2222,-206.0333 298.2222,-206.0333"/>
</g>
<!-- /Users/mmoscato/nasa/pvslib/pvslib&#45;gitlab__pvs7.0/structures&#45;&gt;/Users/mmoscato/nasa/pvslib/pvslib&#45;gitlab__pvs7.0/ints -->
<g id="edge14" class="edge">
<title>/Users/mmoscato/nasa/pvslib/pvslib&#45;gitlab__pvs7.0/structures&#45;&gt;/Users/mmoscato/nasa/pvslib/pvslib&#45;gitlab__pvs7.0/ints</title>
<path fill="none" stroke="#000000" d="M149,-87.8314C149,-87.8314 149,-62.4133 149,-62.4133"/>
<polygon fill="#000000" stroke="#000000" points="152.5001,-62.4132 149,-52.4133 145.5001,-62.4133 152.5001,-62.4132"/>
</g>
<!-- /Users/mmoscato/nasa/pvslib/pvslib&#45;gitlab__pvs7.0/trig -->
<g id="node7" class="node">
<title>/Users/mmoscato/nasa/pvslib/pvslib&#45;gitlab__pvs7.0/trig</title>
<polygon fill="#fcfcd7" stroke="#000000" points="154,-414 100,-414 100,-378 154,-378 154,-414"/>
<text text-anchor="middle" x="127" y="-391.8" font-family="Times,serif" font-size="14.00" fill="#000000">trig</text>
</g>
<!-- /Users/mmoscato/nasa/pvslib/pvslib&#45;gitlab__pvs7.0/trig&#45;&gt;/Users/mmoscato/nasa/pvslib/pvslib&#45;gitlab__pvs7.0/analysis -->
<g id="edge15" class="edge">
<title>/Users/mmoscato/nasa/pvslib/pvslib&#45;gitlab__pvs7.0/trig&#45;&gt;/Users/mmoscato/nasa/pvslib/pvslib&#45;gitlab__pvs7.0/analysis</title>
<path fill="none" stroke="#000000" d="M125.8362,-377.7623C125.8362,-377.7623 125.8362,-280.0896 125.8362,-280.0896"/>
<polygon fill="#000000" stroke="#000000" points="129.3363,-280.0896 125.8362,-270.0896 122.3363,-280.0897 129.3363,-280.0896"/>
</g>
<!-- /Users/mmoscato/nasa/pvslib/pvslib&#45;gitlab__pvs7.0/trig&#45;&gt;/Users/mmoscato/nasa/pvslib/pvslib&#45;gitlab__pvs7.0/ints -->
<g id="edge16" class="edge">
<title>/Users/mmoscato/nasa/pvslib/pvslib&#45;gitlab__pvs7.0/trig&#45;&gt;/Users/mmoscato/nasa/pvslib/pvslib&#45;gitlab__pvs7.0/ints</title>
<path fill="none" stroke="#000000" d="M99.9156,-396C76.707,-396 47,-396 47,-396 47,-396 47,-40 47,-40 47,-40 111.9337,-40 111.9337,-40"/>
<polygon fill="#000000" stroke="#000000" points="111.9337,-43.5001 121.9337,-40 111.9336,-36.5001 111.9337,-43.5001"/>
</g>
<!-- /Users/mmoscato/nasa/pvslib/pvslib&#45;gitlab__pvs7.0/trig&#45;&gt;/Users/mmoscato/nasa/pvslib/pvslib&#45;gitlab__pvs7.0/orders -->
<g id="edge17" class="edge">
<title>/Users/mmoscato/nasa/pvslib/pvslib&#45;gitlab__pvs7.0/trig&#45;&gt;/Users/mmoscato/nasa/pvslib/pvslib&#45;gitlab__pvs7.0/orders</title>
<path fill="none" stroke="#000000" d="M102,-377.7884C102,-377.7884 102,-206.0064 102,-206.0064"/>
<polygon fill="#000000" stroke="#000000" points="105.5001,-206.0064 102,-196.0064 98.5001,-206.0065 105.5001,-206.0064"/>
</g>
<!-- /Users/mmoscato/nasa/pvslib/pvslib&#45;gitlab__pvs7.0/trig&#45;&gt;/Users/mmoscato/nasa/pvslib/pvslib&#45;gitlab__pvs7.0/reals -->
<g id="edge18" class="edge">
<title>/Users/mmoscato/nasa/pvslib/pvslib&#45;gitlab__pvs7.0/trig&#45;&gt;/Users/mmoscato/nasa/pvslib/pvslib&#45;gitlab__pvs7.0/reals</title>
<path fill="none" stroke="#000000" d="M135.2241,-377.6793C135.2241,-346.8664 135.2241,-288 135.2241,-288 135.2241,-288 188.1638,-288 188.1638,-288 188.1638,-288 188.1638,-206.1643 188.1638,-206.1643"/>
<polygon fill="#000000" stroke="#000000" points="191.6639,-206.1642 188.1638,-196.1643 184.6639,-206.1643 191.6639,-206.1642"/>
</g>
<!-- /Users/mmoscato/nasa/pvslib/pvslib&#45;gitlab__pvs7.0/trig&#45;&gt;/Users/mmoscato/nasa/pvslib/pvslib&#45;gitlab__pvs7.0/series -->
<g id="edge19" class="edge">
<title>/Users/mmoscato/nasa/pvslib/pvslib&#45;gitlab__pvs7.0/trig&#45;&gt;/Users/mmoscato/nasa/pvslib/pvslib&#45;gitlab__pvs7.0/series</title>
<path fill="none" stroke="#000000" d="M144.6121,-377.9652C144.6121,-358.4238 144.6121,-330 144.6121,-330 144.6121,-330 155.9766,-330 155.9766,-330"/>
<polygon fill="#000000" stroke="#000000" points="155.9766,-333.5001 165.9766,-330 155.9765,-326.5001 155.9766,-333.5001"/>
</g>
<!-- /Users/mmoscato/nasa/pvslib/pvslib&#45;gitlab__pvs7.0/trig&#45;&gt;/Users/mmoscato/nasa/pvslib/pvslib&#45;gitlab__pvs7.0/structures -->
<g id="edge20" class="edge">
<title>/Users/mmoscato/nasa/pvslib/pvslib&#45;gitlab__pvs7.0/trig&#45;&gt;/Users/mmoscato/nasa/pvslib/pvslib&#45;gitlab__pvs7.0/structures</title>
<path fill="none" stroke="#000000" d="M104,-377.9311C104,-333.2189 104,-221 104,-221 104,-221 129.3362,-221 129.3362,-221 129.3362,-221 129.3362,-134.2221 129.3362,-134.2221"/>
<polygon fill="#000000" stroke="#000000" points="132.8363,-134.2221 129.3362,-124.2221 125.8363,-134.2221 132.8363,-134.2221"/>
</g>
<!-- /Users/mmoscato/nasa/pvslib/pvslib&#45;gitlab__pvs7.0/trig&#45;&gt;/Users/mmoscato/pvs/7.1&#45;0&#45;g3fb4f25&#45;ix86&#45;MacOSX&#45;allegro/lib/finite_sets -->
<g id="edge21" class="edge">
<title>/Users/mmoscato/nasa/pvslib/pvslib&#45;gitlab__pvs7.0/trig&#45;&gt;/Users/mmoscato/pvs/7.1&#45;0&#45;g3fb4f25&#45;ix86&#45;MacOSX&#45;allegro/lib/finite_sets</title>
<path fill="none" stroke="#000000" d="M154.2888,-396C205.1383,-396 309.2779,-396 309.2779,-396 309.2779,-396 309.2779,-206.2116 309.2779,-206.2116"/>
<polygon fill="#000000" stroke="#000000" points="312.778,-206.2116 309.2779,-196.2116 305.778,-206.2116 312.778,-206.2116"/>
</g>
<!-- /Users/mmoscato/nasa/pvslib/pvslib&#45;gitlab__pvs7.0/vectors -->
<g id="node8" class="node">
<title>/Users/mmoscato/nasa/pvslib/pvslib&#45;gitlab__pvs7.0/vectors</title>
<polygon fill="#f7e28d" stroke="#000000" points="155.4294,-486 98.5706,-486 98.5706,-450 155.4294,-450 155.4294,-486"/>
<text text-anchor="middle" x="127" y="-463.8" font-family="Times,serif" font-size="14.00" fill="#000000">vectors</text>
</g>
<!-- /Users/mmoscato/nasa/pvslib/pvslib&#45;gitlab__pvs7.0/vectors&#45;&gt;/Users/mmoscato/nasa/pvslib/pvslib&#45;gitlab__pvs7.0/analysis -->
<g id="edge22" class="edge">
<title>/Users/mmoscato/nasa/pvslib/pvslib&#45;gitlab__pvs7.0/vectors&#45;&gt;/Users/mmoscato/nasa/pvslib/pvslib&#45;gitlab__pvs7.0/analysis</title>
<path fill="none" stroke="#000000" d="M155.3559,-464C158.5065,-464 160.6069,-464 160.6069,-464 160.6069,-464 160.6069,-280.075 160.6069,-280.075"/>
<polygon fill="#000000" stroke="#000000" points="164.107,-280.075 160.6069,-270.075 157.107,-280.075 164.107,-280.075"/>
</g>
<!-- /Users/mmoscato/nasa/pvslib/pvslib&#45;gitlab__pvs7.0/vectors&#45;&gt;/Users/mmoscato/nasa/pvslib/pvslib&#45;gitlab__pvs7.0/ints -->
<g id="edge23" class="edge">
<title>/Users/mmoscato/nasa/pvslib/pvslib&#45;gitlab__pvs7.0/vectors&#45;&gt;/Users/mmoscato/nasa/pvslib/pvslib&#45;gitlab__pvs7.0/ints</title>
<path fill="none" stroke="#000000" d="M98.6543,-477C69.7112,-477 29,-477 29,-477 29,-477 29,-28 29,-28 29,-28 111.7701,-28 111.7701,-28"/>
<polygon fill="#000000" stroke="#000000" points="111.7702,-31.5001 121.7701,-28 111.7701,-24.5001 111.7702,-31.5001"/>
</g>
<!-- /Users/mmoscato/nasa/pvslib/pvslib&#45;gitlab__pvs7.0/vectors&#45;&gt;/Users/mmoscato/nasa/pvslib/pvslib&#45;gitlab__pvs7.0/orders -->
<g id="edge24" class="edge">
<title>/Users/mmoscato/nasa/pvslib/pvslib&#45;gitlab__pvs7.0/vectors&#45;&gt;/Users/mmoscato/nasa/pvslib/pvslib&#45;gitlab__pvs7.0/orders</title>
<path fill="none" stroke="#000000" d="M98.7188,-459C87.5785,-459 77.3931,-459 77.3931,-459 77.3931,-459 77.3931,-206.0053 77.3931,-206.0053"/>
<polygon fill="#000000" stroke="#000000" points="80.8932,-206.0052 77.3931,-196.0053 73.8932,-206.0053 80.8932,-206.0052"/>
</g>
<!-- /Users/mmoscato/nasa/pvslib/pvslib&#45;gitlab__pvs7.0/vectors&#45;&gt;/Users/mmoscato/nasa/pvslib/pvslib&#45;gitlab__pvs7.0/reals -->
<g id="edge25" class="edge">
<title>/Users/mmoscato/nasa/pvslib/pvslib&#45;gitlab__pvs7.0/vectors&#45;&gt;/Users/mmoscato/nasa/pvslib/pvslib&#45;gitlab__pvs7.0/reals</title>
<path fill="none" stroke="#000000" d="M155.38,-471C186.7496,-471 232.9026,-471 232.9026,-471 232.9026,-471 232.9026,-178 232.9026,-178 232.9026,-178 231.8266,-178 231.8266,-178"/>
<polygon fill="#000000" stroke="#000000" points="232.1426,-174.5001 222.1426,-178 232.1426,-181.5001 232.1426,-174.5001"/>
</g>
<!-- /Users/mmoscato/nasa/pvslib/pvslib&#45;gitlab__pvs7.0/vectors&#45;&gt;/Users/mmoscato/nasa/pvslib/pvslib&#45;gitlab__pvs7.0/series -->
<g id="edge26" class="edge">
<title>/Users/mmoscato/nasa/pvslib/pvslib&#45;gitlab__pvs7.0/vectors&#45;&gt;/Users/mmoscato/nasa/pvslib/pvslib&#45;gitlab__pvs7.0/series</title>
<path fill="none" stroke="#000000" d="M155.373,-457C173.2612,-457 193,-457 193,-457 193,-457 193,-352.2142 193,-352.2142"/>
<polygon fill="#000000" stroke="#000000" points="196.5001,-352.2142 193,-342.2142 189.5001,-352.2142 196.5001,-352.2142"/>
</g>
<!-- /Users/mmoscato/nasa/pvslib/pvslib&#45;gitlab__pvs7.0/vectors&#45;&gt;/Users/mmoscato/nasa/pvslib/pvslib&#45;gitlab__pvs7.0/structures -->
<g id="edge27" class="edge">
<title>/Users/mmoscato/nasa/pvslib/pvslib&#45;gitlab__pvs7.0/vectors&#45;&gt;/Users/mmoscato/nasa/pvslib/pvslib&#45;gitlab__pvs7.0/structures</title>
<path fill="none" stroke="#000000" d="M98.3499,-468C72.3324,-468 38,-468 38,-468 38,-468 38,-106 38,-106 38,-106 103.5737,-106 103.5737,-106"/>
<polygon fill="#000000" stroke="#000000" points="103.5738,-109.5001 113.5737,-106 103.5737,-102.5001 103.5738,-109.5001"/>
</g>
<!-- /Users/mmoscato/nasa/pvslib/pvslib&#45;gitlab__pvs7.0/vectors&#45;&gt;/Users/mmoscato/nasa/pvslib/pvslib&#45;gitlab__pvs7.0/trig -->
<g id="edge28" class="edge">
<title>/Users/mmoscato/nasa/pvslib/pvslib&#45;gitlab__pvs7.0/vectors&#45;&gt;/Users/mmoscato/nasa/pvslib/pvslib&#45;gitlab__pvs7.0/trig</title>
<path fill="none" stroke="#000000" d="M127,-449.8314C127,-449.8314 127,-424.4133 127,-424.4133"/>
<polygon fill="#000000" stroke="#000000" points="130.5001,-424.4132 127,-414.4133 123.5001,-424.4133 130.5001,-424.4132"/>
</g>
<!-- /Users/mmoscato/nasa/pvslib/pvslib&#45;gitlab__pvs7.0/vectors&#45;&gt;/Users/mmoscato/pvs/7.1&#45;0&#45;g3fb4f25&#45;ix86&#45;MacOSX&#45;allegro/lib/finite_sets -->
<g id="edge29" class="edge">
<title>/Users/mmoscato/nasa/pvslib/pvslib&#45;gitlab__pvs7.0/vectors&#45;&gt;/Users/mmoscato/pvs/7.1&#45;0&#45;g3fb4f25&#45;ix86&#45;MacOSX&#45;allegro/lib/finite_sets</title>
<path fill="none" stroke="#000000" d="M155.6213,-478C210.2127,-478 323.8338,-478 323.8338,-478 323.8338,-478 323.8338,-206.3147 323.8338,-206.3147"/>
<polygon fill="#000000" stroke="#000000" points="327.3339,-206.3147 323.8338,-196.3147 320.3339,-206.3148 327.3339,-206.3147"/>
</g>
</g>
</svg>
