<?xml version="1.0" encoding="UTF-8" standalone="no"?>
<!DOCTYPE svg PUBLIC "-//W3C//DTD SVG 1.1//EN"
 "http://www.w3.org/Graphics/SVG/1.1/DTD/svg11.dtd">
<!-- Generated by graphviz version 2.40.1 (20161225.0304)
 -->
<!-- Title: while Pages: 1 -->
<svg width="358pt" height="388pt"
 viewBox="0.00 0.00 358.00 388.00" xmlns="http://www.w3.org/2000/svg" xmlns:xlink="http://www.w3.org/1999/xlink">
<g id="graph0" class="graph" transform="scale(1 1) rotate(0) translate(4 384)">
<title>while</title>
<polygon fill="#ffffff" stroke="transparent" points="-4,4 -4,-384 354,-384 354,4 -4,4"/>
<g id="clust1" class="cluster">
<title>cluster_NASALib</title>
<polygon fill="none" stroke="#000000" points="8,-8 8,-372 246,-372 246,-8 8,-8"/>
<text text-anchor="middle" x="127" y="-356.8" font-family="Times,serif" font-size="14.00" fill="#000000">NASALib</text>
</g>
<g id="clust2" class="cluster">
<title>cluster_PVS Prelude</title>
<polygon fill="none" stroke="#000000" points="254,-80 254,-154 342,-154 342,-80 254,-80"/>
<text text-anchor="middle" x="298" y="-138.8" font-family="Times,serif" font-size="14.00" fill="#000000">PVS Prelude</text>
</g>
<!-- /Users/mmoscato/nasa/pvslib/pvslib&#45;gitlab__pvs7.0/algebra -->
<g id="node1" class="node">
<title>/Users/mmoscato/nasa/pvslib/pvslib&#45;gitlab__pvs7.0/algebra</title>
<polygon fill="#fcfcd7" stroke="#000000" points="237.6937,-198 180.3063,-198 180.3063,-162 237.6937,-162 237.6937,-198"/>
<text text-anchor="middle" x="209" y="-175.8" font-family="Times,serif" font-size="14.00" fill="#000000">algebra</text>
</g>
<!-- /Users/mmoscato/pvs/7.1&#45;0&#45;g3fb4f25&#45;ix86&#45;MacOSX&#45;allegro/lib/finite_sets -->
<g id="node8" class="node">
<title>/Users/mmoscato/pvs/7.1&#45;0&#45;g3fb4f25&#45;ix86&#45;MacOSX&#45;allegro/lib/finite_sets</title>
<polygon fill="#fcfcd7" stroke="#000000" points="334.2796,-124 261.7204,-124 261.7204,-88 334.2796,-88 334.2796,-124"/>
<text text-anchor="middle" x="298" y="-101.8" font-family="Times,serif" font-size="14.00" fill="#000000">finite_sets</text>
</g>
<!-- /Users/mmoscato/nasa/pvslib/pvslib&#45;gitlab__pvs7.0/algebra&#45;&gt;/Users/mmoscato/pvs/7.1&#45;0&#45;g3fb4f25&#45;ix86&#45;MacOSX&#45;allegro/lib/finite_sets -->
<g id="edge1" class="edge">
<title>/Users/mmoscato/nasa/pvslib/pvslib&#45;gitlab__pvs7.0/algebra&#45;&gt;/Users/mmoscato/pvs/7.1&#45;0&#45;g3fb4f25&#45;ix86&#45;MacOSX&#45;allegro/lib/finite_sets</title>
<path fill="none" stroke="#000000" d="M209,-161.7772C209,-141.6348 209,-112 209,-112 209,-112 251.5435,-112 251.5435,-112"/>
<polygon fill="#000000" stroke="#000000" points="251.5435,-115.5001 261.5435,-112 251.5435,-108.5001 251.5435,-115.5001"/>
</g>
<!-- /Users/mmoscato/nasa/pvslib/pvslib&#45;gitlab__pvs7.0/orders -->
<g id="node2" class="node">
<title>/Users/mmoscato/nasa/pvslib/pvslib&#45;gitlab__pvs7.0/orders</title>
<polygon fill="#fcfcd7" stroke="#000000" points="75,-52 21,-52 21,-16 75,-16 75,-52"/>
<text text-anchor="middle" x="48" y="-29.8" font-family="Times,serif" font-size="14.00" fill="#000000">orders</text>
</g>
<!-- /Users/mmoscato/nasa/pvslib/pvslib&#45;gitlab__pvs7.0/scott -->
<g id="node3" class="node">
<title>/Users/mmoscato/nasa/pvslib/pvslib&#45;gitlab__pvs7.0/scott</title>
<polygon fill="#fcfcd7" stroke="#000000" points="110,-270 56,-270 56,-234 110,-234 110,-270"/>
<text text-anchor="middle" x="83" y="-247.8" font-family="Times,serif" font-size="14.00" fill="#000000">scott</text>
</g>
<!-- /Users/mmoscato/nasa/pvslib/pvslib&#45;gitlab__pvs7.0/scott&#45;&gt;/Users/mmoscato/nasa/pvslib/pvslib&#45;gitlab__pvs7.0/algebra -->
<g id="edge2" class="edge">
<title>/Users/mmoscato/nasa/pvslib/pvslib&#45;gitlab__pvs7.0/scott&#45;&gt;/Users/mmoscato/nasa/pvslib/pvslib&#45;gitlab__pvs7.0/algebra</title>
<path fill="none" stroke="#000000" d="M110.0128,-252C144.4186,-252 199.4678,-252 199.4678,-252 199.4678,-252 199.4678,-208.1686 199.4678,-208.1686"/>
<polygon fill="#000000" stroke="#000000" points="202.9679,-208.1686 199.4678,-198.1686 195.9679,-208.1687 202.9679,-208.1686"/>
</g>
<!-- /Users/mmoscato/nasa/pvslib/pvslib&#45;gitlab__pvs7.0/scott&#45;&gt;/Users/mmoscato/nasa/pvslib/pvslib&#45;gitlab__pvs7.0/orders -->
<g id="edge3" class="edge">
<title>/Users/mmoscato/nasa/pvslib/pvslib&#45;gitlab__pvs7.0/scott&#45;&gt;/Users/mmoscato/nasa/pvslib/pvslib&#45;gitlab__pvs7.0/orders</title>
<path fill="none" stroke="#000000" d="M55.7709,-258C43.9113,-258 32.6667,-258 32.6667,-258 32.6667,-258 32.6667,-62.3309 32.6667,-62.3309"/>
<polygon fill="#000000" stroke="#000000" points="36.1668,-62.3308 32.6667,-52.3309 29.1668,-62.3309 36.1668,-62.3308"/>
</g>
<!-- /Users/mmoscato/nasa/pvslib/pvslib&#45;gitlab__pvs7.0/sets_aux -->
<g id="node4" class="node">
<title>/Users/mmoscato/nasa/pvslib/pvslib&#45;gitlab__pvs7.0/sets_aux</title>
<polygon fill="#fcfcd7" stroke="#000000" points="121.2142,-124 56.7858,-124 56.7858,-88 121.2142,-88 121.2142,-124"/>
<text text-anchor="middle" x="89" y="-101.8" font-family="Times,serif" font-size="14.00" fill="#000000">sets_aux</text>
</g>
<!-- /Users/mmoscato/nasa/pvslib/pvslib&#45;gitlab__pvs7.0/scott&#45;&gt;/Users/mmoscato/nasa/pvslib/pvslib&#45;gitlab__pvs7.0/sets_aux -->
<g id="edge4" class="edge">
<title>/Users/mmoscato/nasa/pvslib/pvslib&#45;gitlab__pvs7.0/scott&#45;&gt;/Users/mmoscato/nasa/pvslib/pvslib&#45;gitlab__pvs7.0/sets_aux</title>
<path fill="none" stroke="#000000" d="M55.8858,-246C52.4833,-246 50.1667,-246 50.1667,-246 50.1667,-246 50.1667,-112 50.1667,-112 50.1667,-112 50.8079,-112 50.8079,-112"/>
<polygon fill="#000000" stroke="#000000" points="46.5793,-115.5002 56.5792,-112 46.5791,-108.5002 46.5793,-115.5002"/>
</g>
<!-- /Users/mmoscato/nasa/pvslib/pvslib&#45;gitlab__pvs7.0/structures -->
<g id="node5" class="node">
<title>/Users/mmoscato/nasa/pvslib/pvslib&#45;gitlab__pvs7.0/structures</title>
<polygon fill="#fcfcd7" stroke="#000000" points="172.429,-52 101.571,-52 101.571,-16 172.429,-16 172.429,-52"/>
<text text-anchor="middle" x="137" y="-29.8" font-family="Times,serif" font-size="14.00" fill="#000000">structures</text>
</g>
<!-- /Users/mmoscato/nasa/pvslib/pvslib&#45;gitlab__pvs7.0/scott&#45;&gt;/Users/mmoscato/nasa/pvslib/pvslib&#45;gitlab__pvs7.0/structures -->
<g id="edge5" class="edge">
<title>/Users/mmoscato/nasa/pvslib/pvslib&#45;gitlab__pvs7.0/scott&#45;&gt;/Users/mmoscato/nasa/pvslib/pvslib&#45;gitlab__pvs7.0/structures</title>
<path fill="none" stroke="#000000" d="M110.0914,-243C125.6066,-243 142.0193,-243 142.0193,-243 142.0193,-243 142.0193,-62.1818 142.0193,-62.1818"/>
<polygon fill="#000000" stroke="#000000" points="145.5194,-62.1817 142.0193,-52.1818 138.5194,-62.1818 145.5194,-62.1817"/>
</g>
<!-- /Users/mmoscato/nasa/pvslib/pvslib&#45;gitlab__pvs7.0/topology -->
<g id="node6" class="node">
<title>/Users/mmoscato/nasa/pvslib/pvslib&#45;gitlab__pvs7.0/topology</title>
<polygon fill="#fcfcd7" stroke="#000000" points="121.7797,-198 56.2203,-198 56.2203,-162 121.7797,-162 121.7797,-198"/>
<text text-anchor="middle" x="89" y="-175.8" font-family="Times,serif" font-size="14.00" fill="#000000">topology</text>
</g>
<!-- /Users/mmoscato/nasa/pvslib/pvslib&#45;gitlab__pvs7.0/scott&#45;&gt;/Users/mmoscato/nasa/pvslib/pvslib&#45;gitlab__pvs7.0/topology -->
<g id="edge6" class="edge">
<title>/Users/mmoscato/nasa/pvslib/pvslib&#45;gitlab__pvs7.0/scott&#45;&gt;/Users/mmoscato/nasa/pvslib/pvslib&#45;gitlab__pvs7.0/topology</title>
<path fill="none" stroke="#000000" d="M83.0552,-233.8314C83.0552,-233.8314 83.0552,-208.4133 83.0552,-208.4133"/>
<polygon fill="#000000" stroke="#000000" points="86.5553,-208.4132 83.0552,-198.4133 79.5553,-208.4133 86.5553,-208.4132"/>
</g>
<!-- /Users/mmoscato/nasa/pvslib/pvslib&#45;gitlab__pvs7.0/scott&#45;&gt;/Users/mmoscato/pvs/7.1&#45;0&#45;g3fb4f25&#45;ix86&#45;MacOSX&#45;allegro/lib/finite_sets -->
<g id="edge7" class="edge">
<title>/Users/mmoscato/nasa/pvslib/pvslib&#45;gitlab__pvs7.0/scott&#45;&gt;/Users/mmoscato/pvs/7.1&#45;0&#45;g3fb4f25&#45;ix86&#45;MacOSX&#45;allegro/lib/finite_sets</title>
<path fill="none" stroke="#000000" d="M110.36,-261C165.7348,-261 285.8701,-261 285.8701,-261 285.8701,-261 285.8701,-134.0838 285.8701,-134.0838"/>
<polygon fill="#000000" stroke="#000000" points="289.3702,-134.0838 285.8701,-124.0838 282.3702,-134.0839 289.3702,-134.0838"/>
</g>
<!-- /Users/mmoscato/nasa/pvslib/pvslib&#45;gitlab__pvs7.0/sets_aux&#45;&gt;/Users/mmoscato/nasa/pvslib/pvslib&#45;gitlab__pvs7.0/orders -->
<g id="edge8" class="edge">
<title>/Users/mmoscato/nasa/pvslib/pvslib&#45;gitlab__pvs7.0/sets_aux&#45;&gt;/Users/mmoscato/nasa/pvslib/pvslib&#45;gitlab__pvs7.0/orders</title>
<path fill="none" stroke="#000000" d="M65.9465,-87.8314C65.9465,-87.8314 65.9465,-62.4133 65.9465,-62.4133"/>
<polygon fill="#000000" stroke="#000000" points="69.4466,-62.4132 65.9465,-52.4133 62.4466,-62.4133 69.4466,-62.4132"/>
</g>
<!-- /Users/mmoscato/nasa/pvslib/pvslib&#45;gitlab__pvs7.0/sets_aux&#45;&gt;/Users/mmoscato/nasa/pvslib/pvslib&#45;gitlab__pvs7.0/structures -->
<g id="edge9" class="edge">
<title>/Users/mmoscato/nasa/pvslib/pvslib&#45;gitlab__pvs7.0/sets_aux&#45;&gt;/Users/mmoscato/nasa/pvslib/pvslib&#45;gitlab__pvs7.0/structures</title>
<path fill="none" stroke="#000000" d="M111.4465,-87.8314C111.4465,-87.8314 111.4465,-62.4133 111.4465,-62.4133"/>
<polygon fill="#000000" stroke="#000000" points="114.9466,-62.4132 111.4465,-52.4133 107.9466,-62.4133 114.9466,-62.4132"/>
</g>
<!-- /Users/mmoscato/nasa/pvslib/pvslib&#45;gitlab__pvs7.0/topology&#45;&gt;/Users/mmoscato/nasa/pvslib/pvslib&#45;gitlab__pvs7.0/orders -->
<g id="edge10" class="edge">
<title>/Users/mmoscato/nasa/pvslib/pvslib&#45;gitlab__pvs7.0/topology&#45;&gt;/Users/mmoscato/nasa/pvslib/pvslib&#45;gitlab__pvs7.0/orders</title>
<path fill="none" stroke="#000000" d="M56.069,-180C49.3741,-180 44.3333,-180 44.3333,-180 44.3333,-180 44.3333,-62.1958 44.3333,-62.1958"/>
<polygon fill="#000000" stroke="#000000" points="47.8334,-62.1958 44.3333,-52.1958 40.8334,-62.1958 47.8334,-62.1958"/>
</g>
<!-- /Users/mmoscato/nasa/pvslib/pvslib&#45;gitlab__pvs7.0/topology&#45;&gt;/Users/mmoscato/nasa/pvslib/pvslib&#45;gitlab__pvs7.0/sets_aux -->
<g id="edge11" class="edge">
<title>/Users/mmoscato/nasa/pvslib/pvslib&#45;gitlab__pvs7.0/topology&#45;&gt;/Users/mmoscato/nasa/pvslib/pvslib&#45;gitlab__pvs7.0/sets_aux</title>
<path fill="none" stroke="#000000" d="M89,-161.7079C89,-161.7079 89,-134.0817 89,-134.0817"/>
<polygon fill="#000000" stroke="#000000" points="92.5001,-134.0817 89,-124.0817 85.5001,-134.0818 92.5001,-134.0817"/>
</g>
<!-- /Users/mmoscato/nasa/pvslib/pvslib&#45;gitlab__pvs7.0/topology&#45;&gt;/Users/mmoscato/nasa/pvslib/pvslib&#45;gitlab__pvs7.0/structures -->
<g id="edge12" class="edge">
<title>/Users/mmoscato/nasa/pvslib/pvslib&#45;gitlab__pvs7.0/topology&#45;&gt;/Users/mmoscato/nasa/pvslib/pvslib&#45;gitlab__pvs7.0/structures</title>
<path fill="none" stroke="#000000" d="M121.9919,-174C127.7597,-174 131.9545,-174 131.9545,-174 131.9545,-174 131.9545,-62.0159 131.9545,-62.0159"/>
<polygon fill="#000000" stroke="#000000" points="135.4546,-62.0159 131.9545,-52.0159 128.4546,-62.016 135.4546,-62.0159"/>
</g>
<!-- /Users/mmoscato/nasa/pvslib/pvslib&#45;gitlab__pvs7.0/topology&#45;&gt;/Users/mmoscato/pvs/7.1&#45;0&#45;g3fb4f25&#45;ix86&#45;MacOSX&#45;allegro/lib/finite_sets -->
<g id="edge13" class="edge">
<title>/Users/mmoscato/nasa/pvslib/pvslib&#45;gitlab__pvs7.0/topology&#45;&gt;/Users/mmoscato/pvs/7.1&#45;0&#45;g3fb4f25&#45;ix86&#45;MacOSX&#45;allegro/lib/finite_sets</title>
<path fill="none" stroke="#000000" d="M122.1501,-186C141.5044,-186 162.149,-186 162.149,-186 162.149,-186 162.149,-100 162.149,-100 162.149,-100 251.5944,-100 251.5944,-100"/>
<polygon fill="#000000" stroke="#000000" points="251.5945,-103.5001 261.5944,-100 251.5944,-96.5001 251.5945,-103.5001"/>
</g>
<!-- /Users/mmoscato/nasa/pvslib/pvslib&#45;gitlab__pvs7.0/while -->
<g id="node7" class="node">
<title>/Users/mmoscato/nasa/pvslib/pvslib&#45;gitlab__pvs7.0/while</title>
<polygon fill="#f7e28d" stroke="#000000" points="110,-342 56,-342 56,-306 110,-306 110,-342"/>
<text text-anchor="middle" x="83" y="-319.8" font-family="Times,serif" font-size="14.00" fill="#000000">while</text>
</g>
<!-- /Users/mmoscato/nasa/pvslib/pvslib&#45;gitlab__pvs7.0/while&#45;&gt;/Users/mmoscato/nasa/pvslib/pvslib&#45;gitlab__pvs7.0/algebra -->
<g id="edge14" class="edge">
<title>/Users/mmoscato/nasa/pvslib/pvslib&#45;gitlab__pvs7.0/while&#45;&gt;/Users/mmoscato/nasa/pvslib/pvslib&#45;gitlab__pvs7.0/algebra</title>
<path fill="none" stroke="#000000" d="M110.1012,-327C149.653,-327 218.5322,-327 218.5322,-327 218.5322,-327 218.5322,-208.0251 218.5322,-208.0251"/>
<polygon fill="#000000" stroke="#000000" points="222.0323,-208.0251 218.5322,-198.0251 215.0323,-208.0251 222.0323,-208.0251"/>
</g>
<!-- /Users/mmoscato/nasa/pvslib/pvslib&#45;gitlab__pvs7.0/while&#45;&gt;/Users/mmoscato/nasa/pvslib/pvslib&#45;gitlab__pvs7.0/orders -->
<g id="edge15" class="edge">
<title>/Users/mmoscato/nasa/pvslib/pvslib&#45;gitlab__pvs7.0/while&#45;&gt;/Users/mmoscato/nasa/pvslib/pvslib&#45;gitlab__pvs7.0/orders</title>
<path fill="none" stroke="#000000" d="M55.9038,-330C41.5409,-330 26.8333,-330 26.8333,-330 26.8333,-330 26.8333,-62.0705 26.8333,-62.0705"/>
<polygon fill="#000000" stroke="#000000" points="30.3334,-62.0705 26.8333,-52.0705 23.3334,-62.0706 30.3334,-62.0705"/>
</g>
<!-- /Users/mmoscato/nasa/pvslib/pvslib&#45;gitlab__pvs7.0/while&#45;&gt;/Users/mmoscato/nasa/pvslib/pvslib&#45;gitlab__pvs7.0/scott -->
<g id="edge16" class="edge">
<title>/Users/mmoscato/nasa/pvslib/pvslib&#45;gitlab__pvs7.0/while&#45;&gt;/Users/mmoscato/nasa/pvslib/pvslib&#45;gitlab__pvs7.0/scott</title>
<path fill="none" stroke="#000000" d="M83,-305.8314C83,-305.8314 83,-280.4133 83,-280.4133"/>
<polygon fill="#000000" stroke="#000000" points="86.5001,-280.4132 83,-270.4133 79.5001,-280.4133 86.5001,-280.4132"/>
</g>
<!-- /Users/mmoscato/nasa/pvslib/pvslib&#45;gitlab__pvs7.0/while&#45;&gt;/Users/mmoscato/nasa/pvslib/pvslib&#45;gitlab__pvs7.0/sets_aux -->
<g id="edge17" class="edge">
<title>/Users/mmoscato/nasa/pvslib/pvslib&#45;gitlab__pvs7.0/while&#45;&gt;/Users/mmoscato/nasa/pvslib/pvslib&#45;gitlab__pvs7.0/sets_aux</title>
<path fill="none" stroke="#000000" d="M55.8323,-318C46.5674,-318 38.5,-318 38.5,-318 38.5,-318 38.5,-100 38.5,-100 38.5,-100 46.7317,-100 46.7317,-100"/>
<polygon fill="#000000" stroke="#000000" points="46.7317,-103.5001 56.7317,-100 46.7316,-96.5001 46.7317,-103.5001"/>
</g>
<!-- /Users/mmoscato/nasa/pvslib/pvslib&#45;gitlab__pvs7.0/while&#45;&gt;/Users/mmoscato/nasa/pvslib/pvslib&#45;gitlab__pvs7.0/structures -->
<g id="edge18" class="edge">
<title>/Users/mmoscato/nasa/pvslib/pvslib&#45;gitlab__pvs7.0/while&#45;&gt;/Users/mmoscato/nasa/pvslib/pvslib&#45;gitlab__pvs7.0/structures</title>
<path fill="none" stroke="#000000" d="M110.3039,-320C129.6141,-320 152.0842,-320 152.0842,-320 152.0842,-320 152.0842,-62.3257 152.0842,-62.3257"/>
<polygon fill="#000000" stroke="#000000" points="155.5843,-62.3256 152.0842,-52.3257 148.5843,-62.3257 155.5843,-62.3256"/>
</g>
<!-- /Users/mmoscato/nasa/pvslib/pvslib&#45;gitlab__pvs7.0/while&#45;&gt;/Users/mmoscato/nasa/pvslib/pvslib&#45;gitlab__pvs7.0/topology -->
<g id="edge19" class="edge">
<title>/Users/mmoscato/nasa/pvslib/pvslib&#45;gitlab__pvs7.0/while&#45;&gt;/Users/mmoscato/nasa/pvslib/pvslib&#45;gitlab__pvs7.0/topology</title>
<path fill="none" stroke="#000000" d="M110.2063,-313C113.6203,-313 115.9448,-313 115.9448,-313 115.9448,-313 115.9448,-208.2142 115.9448,-208.2142"/>
<polygon fill="#000000" stroke="#000000" points="119.4449,-208.2142 115.9448,-198.2142 112.4449,-208.2142 119.4449,-208.2142"/>
</g>
<!-- /Users/mmoscato/nasa/pvslib/pvslib&#45;gitlab__pvs7.0/while&#45;&gt;/Users/mmoscato/pvs/7.1&#45;0&#45;g3fb4f25&#45;ix86&#45;MacOSX&#45;allegro/lib/finite_sets -->
<g id="edge20" class="edge">
<title>/Users/mmoscato/nasa/pvslib/pvslib&#45;gitlab__pvs7.0/while&#45;&gt;/Users/mmoscato/pvs/7.1&#45;0&#45;g3fb4f25&#45;ix86&#45;MacOSX&#45;allegro/lib/finite_sets</title>
<path fill="none" stroke="#000000" d="M110.3972,-334C170.8068,-334 310.1299,-334 310.1299,-334 310.1299,-334 310.1299,-134.2728 310.1299,-134.2728"/>
<polygon fill="#000000" stroke="#000000" points="313.63,-134.2728 310.1299,-124.2728 306.63,-134.2728 313.63,-134.2728"/>
</g>
</g>
</svg>
