<?xml version="1.0" encoding="UTF-8" standalone="no"?>
<!DOCTYPE svg PUBLIC "-//W3C//DTD SVG 1.1//EN"
 "http://www.w3.org/Graphics/SVG/1.1/DTD/svg11.dtd">
<!-- Generated by graphviz version 2.40.1 (20161225.0304)
 -->
<!-- Title: lnexp Pages: 1 -->
<svg width="284pt" height="460pt"
 viewBox="0.00 0.00 284.00 460.00" xmlns="http://www.w3.org/2000/svg" xmlns:xlink="http://www.w3.org/1999/xlink">
<g id="graph0" class="graph" transform="scale(1 1) rotate(0) translate(4 456)">
<title>lnexp</title>
<polygon fill="#ffffff" stroke="transparent" points="-4,4 -4,-456 280,-456 280,4 -4,4"/>
<g id="clust1" class="cluster">
<title>cluster_NASALib</title>
<polygon fill="none" stroke="#000000" points="8,-8 8,-444 172,-444 172,-8 8,-8"/>
<text text-anchor="middle" x="90" y="-428.8" font-family="Times,serif" font-size="14.00" fill="#000000">NASALib</text>
</g>
<g id="clust2" class="cluster">
<title>cluster_PVS Prelude</title>
<polygon fill="none" stroke="#000000" points="180,-152 180,-226 268,-226 268,-152 180,-152"/>
<text text-anchor="middle" x="224" y="-210.8" font-family="Times,serif" font-size="14.00" fill="#000000">PVS Prelude</text>
</g>
<!-- /Users/mmoscato/nasa/pvslib/pvslib&#45;gitlab__pvs7.0/analysis -->
<g id="node1" class="node">
<title>/Users/mmoscato/nasa/pvslib/pvslib&#45;gitlab__pvs7.0/analysis</title>
<polygon fill="#fcfcd7" stroke="#000000" points="143.6036,-270 82.3964,-270 82.3964,-234 143.6036,-234 143.6036,-270"/>
<text text-anchor="middle" x="113" y="-247.8" font-family="Times,serif" font-size="14.00" fill="#000000">analysis</text>
</g>
<!-- /Users/mmoscato/nasa/pvslib/pvslib&#45;gitlab__pvs7.0/ints -->
<g id="node2" class="node">
<title>/Users/mmoscato/nasa/pvslib/pvslib&#45;gitlab__pvs7.0/ints</title>
<polygon fill="#fcfcd7" stroke="#000000" points="136,-52 82,-52 82,-16 136,-16 136,-52"/>
<text text-anchor="middle" x="109" y="-29.8" font-family="Times,serif" font-size="14.00" fill="#000000">ints</text>
</g>
<!-- /Users/mmoscato/nasa/pvslib/pvslib&#45;gitlab__pvs7.0/analysis&#45;&gt;/Users/mmoscato/nasa/pvslib/pvslib&#45;gitlab__pvs7.0/ints -->
<g id="edge1" class="edge">
<title>/Users/mmoscato/nasa/pvslib/pvslib&#45;gitlab__pvs7.0/analysis&#45;&gt;/Users/mmoscato/nasa/pvslib/pvslib&#45;gitlab__pvs7.0/ints</title>
<path fill="none" stroke="#000000" d="M143.7635,-246C150.9802,-246 156.6129,-246 156.6129,-246 156.6129,-246 156.6129,-43 156.6129,-43 156.6129,-43 146.1444,-43 146.1444,-43"/>
<polygon fill="#000000" stroke="#000000" points="146.1444,-39.5001 136.1444,-43 146.1444,-46.5001 146.1444,-39.5001"/>
</g>
<!-- /Users/mmoscato/nasa/pvslib/pvslib&#45;gitlab__pvs7.0/reals -->
<g id="node4" class="node">
<title>/Users/mmoscato/nasa/pvslib/pvslib&#45;gitlab__pvs7.0/reals</title>
<polygon fill="#fcfcd7" stroke="#000000" points="90,-196 36,-196 36,-160 90,-160 90,-196"/>
<text text-anchor="middle" x="63" y="-173.8" font-family="Times,serif" font-size="14.00" fill="#000000">reals</text>
</g>
<!-- /Users/mmoscato/nasa/pvslib/pvslib&#45;gitlab__pvs7.0/analysis&#45;&gt;/Users/mmoscato/nasa/pvslib/pvslib&#45;gitlab__pvs7.0/reals -->
<g id="edge2" class="edge">
<title>/Users/mmoscato/nasa/pvslib/pvslib&#45;gitlab__pvs7.0/analysis&#45;&gt;/Users/mmoscato/nasa/pvslib/pvslib&#45;gitlab__pvs7.0/reals</title>
<path fill="none" stroke="#000000" d="M86.2241,-233.7079C86.2241,-233.7079 86.2241,-206.0817 86.2241,-206.0817"/>
<polygon fill="#000000" stroke="#000000" points="89.7242,-206.0817 86.2241,-196.0817 82.7242,-206.0818 89.7242,-206.0817"/>
</g>
<!-- /Users/mmoscato/nasa/pvslib/pvslib&#45;gitlab__pvs7.0/structures -->
<g id="node6" class="node">
<title>/Users/mmoscato/nasa/pvslib/pvslib&#45;gitlab__pvs7.0/structures</title>
<polygon fill="#fcfcd7" stroke="#000000" points="144.429,-124 73.571,-124 73.571,-88 144.429,-88 144.429,-124"/>
<text text-anchor="middle" x="109" y="-101.8" font-family="Times,serif" font-size="14.00" fill="#000000">structures</text>
</g>
<!-- /Users/mmoscato/nasa/pvslib/pvslib&#45;gitlab__pvs7.0/analysis&#45;&gt;/Users/mmoscato/nasa/pvslib/pvslib&#45;gitlab__pvs7.0/structures -->
<g id="edge3" class="edge">
<title>/Users/mmoscato/nasa/pvslib/pvslib&#45;gitlab__pvs7.0/analysis&#45;&gt;/Users/mmoscato/nasa/pvslib/pvslib&#45;gitlab__pvs7.0/structures</title>
<path fill="none" stroke="#000000" d="M107.8506,-233.8042C107.8506,-233.8042 107.8506,-134.4251 107.8506,-134.4251"/>
<polygon fill="#000000" stroke="#000000" points="111.3507,-134.4251 107.8506,-124.4251 104.3507,-134.4251 111.3507,-134.4251"/>
</g>
<!-- /Users/mmoscato/pvs/7.1&#45;0&#45;g3fb4f25&#45;ix86&#45;MacOSX&#45;allegro/lib/finite_sets -->
<g id="node7" class="node">
<title>/Users/mmoscato/pvs/7.1&#45;0&#45;g3fb4f25&#45;ix86&#45;MacOSX&#45;allegro/lib/finite_sets</title>
<polygon fill="#fcfcd7" stroke="#000000" points="260.2796,-196 187.7204,-196 187.7204,-160 260.2796,-160 260.2796,-196"/>
<text text-anchor="middle" x="224" y="-173.8" font-family="Times,serif" font-size="14.00" fill="#000000">finite_sets</text>
</g>
<!-- /Users/mmoscato/nasa/pvslib/pvslib&#45;gitlab__pvs7.0/analysis&#45;&gt;/Users/mmoscato/pvs/7.1&#45;0&#45;g3fb4f25&#45;ix86&#45;MacOSX&#45;allegro/lib/finite_sets -->
<g id="edge4" class="edge">
<title>/Users/mmoscato/nasa/pvslib/pvslib&#45;gitlab__pvs7.0/analysis&#45;&gt;/Users/mmoscato/pvs/7.1&#45;0&#45;g3fb4f25&#45;ix86&#45;MacOSX&#45;allegro/lib/finite_sets</title>
<path fill="none" stroke="#000000" d="M125.7012,-233.7079C125.7012,-211.7943 125.7012,-178 125.7012,-178 125.7012,-178 177.6764,-178 177.6764,-178"/>
<polygon fill="#000000" stroke="#000000" points="177.6765,-181.5001 187.6764,-178 177.6764,-174.5001 177.6765,-181.5001"/>
</g>
<!-- /Users/mmoscato/nasa/pvslib/pvslib&#45;gitlab__pvs7.0/lnexp -->
<g id="node3" class="node">
<title>/Users/mmoscato/nasa/pvslib/pvslib&#45;gitlab__pvs7.0/lnexp</title>
<polygon fill="#f7e28d" stroke="#000000" points="140,-414 86,-414 86,-378 140,-378 140,-414"/>
<text text-anchor="middle" x="113" y="-391.8" font-family="Times,serif" font-size="14.00" fill="#000000">lnexp</text>
</g>
<!-- /Users/mmoscato/nasa/pvslib/pvslib&#45;gitlab__pvs7.0/lnexp&#45;&gt;/Users/mmoscato/nasa/pvslib/pvslib&#45;gitlab__pvs7.0/analysis -->
<g id="edge5" class="edge">
<title>/Users/mmoscato/nasa/pvslib/pvslib&#45;gitlab__pvs7.0/lnexp&#45;&gt;/Users/mmoscato/nasa/pvslib/pvslib&#45;gitlab__pvs7.0/analysis</title>
<path fill="none" stroke="#000000" d="M140.0215,-385C154.3448,-385 169.0119,-385 169.0119,-385 169.0119,-385 169.0119,-258 169.0119,-258 169.0119,-258 153.6281,-258 153.6281,-258"/>
<polygon fill="#000000" stroke="#000000" points="153.6281,-254.5001 143.6281,-258 153.628,-261.5001 153.6281,-254.5001"/>
</g>
<!-- /Users/mmoscato/nasa/pvslib/pvslib&#45;gitlab__pvs7.0/lnexp&#45;&gt;/Users/mmoscato/nasa/pvslib/pvslib&#45;gitlab__pvs7.0/ints -->
<g id="edge6" class="edge">
<title>/Users/mmoscato/nasa/pvslib/pvslib&#45;gitlab__pvs7.0/lnexp&#45;&gt;/Users/mmoscato/nasa/pvslib/pvslib&#45;gitlab__pvs7.0/ints</title>
<path fill="none" stroke="#000000" d="M140.0378,-399C159.1598,-399 181.4109,-399 181.4109,-399 181.4109,-399 181.4109,-25 181.4109,-25 181.4109,-25 146.3754,-25 146.3754,-25"/>
<polygon fill="#000000" stroke="#000000" points="146.3755,-21.5001 136.3754,-25 146.3754,-28.5001 146.3755,-21.5001"/>
</g>
<!-- /Users/mmoscato/nasa/pvslib/pvslib&#45;gitlab__pvs7.0/lnexp&#45;&gt;/Users/mmoscato/nasa/pvslib/pvslib&#45;gitlab__pvs7.0/reals -->
<g id="edge7" class="edge">
<title>/Users/mmoscato/nasa/pvslib/pvslib&#45;gitlab__pvs7.0/lnexp&#45;&gt;/Users/mmoscato/nasa/pvslib/pvslib&#45;gitlab__pvs7.0/reals</title>
<path fill="none" stroke="#000000" d="M85.8386,-396C69.3589,-396 51.4827,-396 51.4827,-396 51.4827,-396 51.4827,-206.2116 51.4827,-206.2116"/>
<polygon fill="#000000" stroke="#000000" points="54.9828,-206.2116 51.4827,-196.2116 47.9828,-206.2116 54.9828,-206.2116"/>
</g>
<!-- /Users/mmoscato/nasa/pvslib/pvslib&#45;gitlab__pvs7.0/series -->
<g id="node5" class="node">
<title>/Users/mmoscato/nasa/pvslib/pvslib&#45;gitlab__pvs7.0/series</title>
<polygon fill="#fcfcd7" stroke="#000000" points="140,-342 86,-342 86,-306 140,-306 140,-342"/>
<text text-anchor="middle" x="113" y="-319.8" font-family="Times,serif" font-size="14.00" fill="#000000">series</text>
</g>
<!-- /Users/mmoscato/nasa/pvslib/pvslib&#45;gitlab__pvs7.0/lnexp&#45;&gt;/Users/mmoscato/nasa/pvslib/pvslib&#45;gitlab__pvs7.0/series -->
<g id="edge8" class="edge">
<title>/Users/mmoscato/nasa/pvslib/pvslib&#45;gitlab__pvs7.0/lnexp&#45;&gt;/Users/mmoscato/nasa/pvslib/pvslib&#45;gitlab__pvs7.0/series</title>
<path fill="none" stroke="#000000" d="M113,-377.8314C113,-377.8314 113,-352.4133 113,-352.4133"/>
<polygon fill="#000000" stroke="#000000" points="116.5001,-352.4132 113,-342.4133 109.5001,-352.4133 116.5001,-352.4132"/>
</g>
<!-- /Users/mmoscato/nasa/pvslib/pvslib&#45;gitlab__pvs7.0/lnexp&#45;&gt;/Users/mmoscato/nasa/pvslib/pvslib&#45;gitlab__pvs7.0/structures -->
<g id="edge9" class="edge">
<title>/Users/mmoscato/nasa/pvslib/pvslib&#45;gitlab__pvs7.0/lnexp&#45;&gt;/Users/mmoscato/nasa/pvslib/pvslib&#45;gitlab__pvs7.0/structures</title>
<path fill="none" stroke="#000000" d="M140.1058,-392C156.8705,-392 175.2114,-392 175.2114,-392 175.2114,-392 175.2114,-100 175.2114,-100 175.2114,-100 154.4317,-100 154.4317,-100"/>
<polygon fill="#000000" stroke="#000000" points="154.4318,-96.5001 144.4317,-100 154.4317,-103.5001 154.4318,-96.5001"/>
</g>
<!-- /Users/mmoscato/nasa/pvslib/pvslib&#45;gitlab__pvs7.0/lnexp&#45;&gt;/Users/mmoscato/pvs/7.1&#45;0&#45;g3fb4f25&#45;ix86&#45;MacOSX&#45;allegro/lib/finite_sets -->
<g id="edge10" class="edge">
<title>/Users/mmoscato/nasa/pvslib/pvslib&#45;gitlab__pvs7.0/lnexp&#45;&gt;/Users/mmoscato/pvs/7.1&#45;0&#45;g3fb4f25&#45;ix86&#45;MacOSX&#45;allegro/lib/finite_sets</title>
<path fill="none" stroke="#000000" d="M140.0214,-406C176.2667,-406 236.1299,-406 236.1299,-406 236.1299,-406 236.1299,-206.2728 236.1299,-206.2728"/>
<polygon fill="#000000" stroke="#000000" points="239.63,-206.2728 236.1299,-196.2728 232.63,-206.2728 239.63,-206.2728"/>
</g>
<!-- /Users/mmoscato/nasa/pvslib/pvslib&#45;gitlab__pvs7.0/reals&#45;&gt;/Users/mmoscato/nasa/pvslib/pvslib&#45;gitlab__pvs7.0/ints -->
<g id="edge11" class="edge">
<title>/Users/mmoscato/nasa/pvslib/pvslib&#45;gitlab__pvs7.0/reals&#45;&gt;/Users/mmoscato/nasa/pvslib/pvslib&#45;gitlab__pvs7.0/ints</title>
<path fill="none" stroke="#000000" d="M54.8931,-159.7623C54.8931,-121.0139 54.8931,-34 54.8931,-34 54.8931,-34 71.9465,-34 71.9465,-34"/>
<polygon fill="#000000" stroke="#000000" points="71.9466,-37.5001 81.9465,-34 71.9465,-30.5001 71.9466,-37.5001"/>
</g>
<!-- /Users/mmoscato/nasa/pvslib/pvslib&#45;gitlab__pvs7.0/reals&#45;&gt;/Users/mmoscato/nasa/pvslib/pvslib&#45;gitlab__pvs7.0/structures -->
<g id="edge12" class="edge">
<title>/Users/mmoscato/nasa/pvslib/pvslib&#45;gitlab__pvs7.0/reals&#45;&gt;/Users/mmoscato/nasa/pvslib/pvslib&#45;gitlab__pvs7.0/structures</title>
<path fill="none" stroke="#000000" d="M81.8931,-159.8314C81.8931,-159.8314 81.8931,-134.4133 81.8931,-134.4133"/>
<polygon fill="#000000" stroke="#000000" points="85.3932,-134.4132 81.8931,-124.4133 78.3932,-134.4133 85.3932,-134.4132"/>
</g>
<!-- /Users/mmoscato/nasa/pvslib/pvslib&#45;gitlab__pvs7.0/series&#45;&gt;/Users/mmoscato/nasa/pvslib/pvslib&#45;gitlab__pvs7.0/analysis -->
<g id="edge13" class="edge">
<title>/Users/mmoscato/nasa/pvslib/pvslib&#45;gitlab__pvs7.0/series&#45;&gt;/Users/mmoscato/nasa/pvslib/pvslib&#45;gitlab__pvs7.0/analysis</title>
<path fill="none" stroke="#000000" d="M113,-305.8314C113,-305.8314 113,-280.4133 113,-280.4133"/>
<polygon fill="#000000" stroke="#000000" points="116.5001,-280.4132 113,-270.4133 109.5001,-280.4133 116.5001,-280.4132"/>
</g>
<!-- /Users/mmoscato/nasa/pvslib/pvslib&#45;gitlab__pvs7.0/series&#45;&gt;/Users/mmoscato/nasa/pvslib/pvslib&#45;gitlab__pvs7.0/ints -->
<g id="edge14" class="edge">
<title>/Users/mmoscato/nasa/pvslib/pvslib&#45;gitlab__pvs7.0/series&#45;&gt;/Users/mmoscato/nasa/pvslib/pvslib&#45;gitlab__pvs7.0/ints</title>
<path fill="none" stroke="#000000" d="M140.2381,-324C151.8673,-324 162.8124,-324 162.8124,-324 162.8124,-324 162.8124,-34 162.8124,-34 162.8124,-34 146.2215,-34 146.2215,-34"/>
<polygon fill="#000000" stroke="#000000" points="146.2215,-30.5001 136.2215,-34 146.2214,-37.5001 146.2215,-30.5001"/>
</g>
<!-- /Users/mmoscato/nasa/pvslib/pvslib&#45;gitlab__pvs7.0/series&#45;&gt;/Users/mmoscato/nasa/pvslib/pvslib&#45;gitlab__pvs7.0/reals -->
<g id="edge15" class="edge">
<title>/Users/mmoscato/nasa/pvslib/pvslib&#45;gitlab__pvs7.0/series&#45;&gt;/Users/mmoscato/nasa/pvslib/pvslib&#45;gitlab__pvs7.0/reals</title>
<path fill="none" stroke="#000000" d="M85.9553,-324C75.9348,-324 66.9655,-324 66.9655,-324 66.9655,-324 66.9655,-206.1958 66.9655,-206.1958"/>
<polygon fill="#000000" stroke="#000000" points="70.4656,-206.1958 66.9655,-196.1958 63.4656,-206.1958 70.4656,-206.1958"/>
</g>
<!-- /Users/mmoscato/nasa/pvslib/pvslib&#45;gitlab__pvs7.0/series&#45;&gt;/Users/mmoscato/nasa/pvslib/pvslib&#45;gitlab__pvs7.0/structures -->
<g id="edge16" class="edge">
<title>/Users/mmoscato/nasa/pvslib/pvslib&#45;gitlab__pvs7.0/series&#45;&gt;/Users/mmoscato/nasa/pvslib/pvslib&#45;gitlab__pvs7.0/structures</title>
<path fill="none" stroke="#000000" d="M140.19,-315C145.9924,-315 150.4134,-315 150.4134,-315 150.4134,-315 150.4134,-112 150.4134,-112 150.4134,-112 149.8023,-112 149.8023,-112"/>
<polygon fill="#000000" stroke="#000000" points="154.3027,-108.5002 144.3027,-112 154.3026,-115.5002 154.3027,-108.5002"/>
</g>
<!-- /Users/mmoscato/nasa/pvslib/pvslib&#45;gitlab__pvs7.0/series&#45;&gt;/Users/mmoscato/pvs/7.1&#45;0&#45;g3fb4f25&#45;ix86&#45;MacOSX&#45;allegro/lib/finite_sets -->
<g id="edge17" class="edge">
<title>/Users/mmoscato/nasa/pvslib/pvslib&#45;gitlab__pvs7.0/series&#45;&gt;/Users/mmoscato/pvs/7.1&#45;0&#45;g3fb4f25&#45;ix86&#45;MacOSX&#45;allegro/lib/finite_sets</title>
<path fill="none" stroke="#000000" d="M140.0167,-333C169.2903,-333 211.8701,-333 211.8701,-333 211.8701,-333 211.8701,-206.0838 211.8701,-206.0838"/>
<polygon fill="#000000" stroke="#000000" points="215.3702,-206.0838 211.8701,-196.0838 208.3702,-206.0839 215.3702,-206.0838"/>
</g>
<!-- /Users/mmoscato/nasa/pvslib/pvslib&#45;gitlab__pvs7.0/structures&#45;&gt;/Users/mmoscato/nasa/pvslib/pvslib&#45;gitlab__pvs7.0/ints -->
<g id="edge18" class="edge">
<title>/Users/mmoscato/nasa/pvslib/pvslib&#45;gitlab__pvs7.0/structures&#45;&gt;/Users/mmoscato/nasa/pvslib/pvslib&#45;gitlab__pvs7.0/ints</title>
<path fill="none" stroke="#000000" d="M109,-87.8314C109,-87.8314 109,-62.4133 109,-62.4133"/>
<polygon fill="#000000" stroke="#000000" points="112.5001,-62.4132 109,-52.4133 105.5001,-62.4133 112.5001,-62.4132"/>
</g>
</g>
</svg>
