<?xml version="1.0" encoding="UTF-8" standalone="no"?>
<!DOCTYPE svg PUBLIC "-//W3C//DTD SVG 1.1//EN"
 "http://www.w3.org/Graphics/SVG/1.1/DTD/svg11.dtd">
<!-- Generated by graphviz version 2.40.1 (20161225.0304)
 -->
<!-- Title: all&#45;theories&#45;center_ACCoRD Pages: 1 -->
<svg width="1003pt" height="418pt"
 viewBox="0.00 0.00 1003.39 418.00" xmlns="http://www.w3.org/2000/svg" xmlns:xlink="http://www.w3.org/1999/xlink">
<g id="graph0" class="graph" transform="scale(1 1) rotate(0) translate(4 414)">
<title>all&#45;theories&#45;center_ACCoRD</title>
<polygon fill="#ffffff" stroke="transparent" points="-4,4 -4,-414 999.3936,-414 999.3936,4 -4,4"/>
<g id="clust1" class="cluster">
<title>cluster_NASALib</title>
<polygon fill="none" stroke="#000000" points="8,-8 8,-402 878.6143,-402 878.6143,-8 8,-8"/>
<text text-anchor="middle" x="443.3071" y="-386.8" font-family="Times,serif" font-size="14.00" fill="#000000">NASALib</text>
</g>
<g id="clust2" class="cluster">
<title>cluster_PVS Prelude</title>
<polygon fill="none" stroke="#000000" points="898.6143,-118 898.6143,-192 987.3936,-192 987.3936,-118 898.6143,-118"/>
<text text-anchor="middle" x="943.0039" y="-176.8" font-family="Times,serif" font-size="14.00" fill="#000000">PVS Prelude</text>
</g>
<!-- /Users/mmoscato/nasa/pvslib/pvslib&#45;gitlab__pvs7.0/ACCoRD -->
<g id="node1" class="node">
<title>/Users/mmoscato/nasa/pvslib/pvslib&#45;gitlab__pvs7.0/ACCoRD</title>
<polygon fill="#f7e28d" stroke="#000000" points="87.3519,-226 15.8824,-226 15.8824,-190 87.3519,-190 87.3519,-226"/>
<text text-anchor="middle" x="51.6172" y="-203.8" font-family="Times,serif" font-size="14.00" fill="#000000">ACCoRD</text>
</g>
<!-- /Users/mmoscato/nasa/pvslib/pvslib&#45;gitlab__pvs7.0/analysis -->
<g id="node2" class="node">
<title>/Users/mmoscato/nasa/pvslib/pvslib&#45;gitlab__pvs7.0/analysis</title>
<polygon fill="#fcfcd7" stroke="#000000" points="584.2384,-212 523.0312,-212 523.0312,-176 584.2384,-176 584.2384,-212"/>
<text text-anchor="middle" x="553.6348" y="-189.8" font-family="Times,serif" font-size="14.00" fill="#000000">analysis</text>
</g>
<!-- /Users/mmoscato/nasa/pvslib/pvslib&#45;gitlab__pvs7.0/ACCoRD&#45;&gt;/Users/mmoscato/nasa/pvslib/pvslib&#45;gitlab__pvs7.0/analysis -->
<g id="edge1" class="edge">
<title>/Users/mmoscato/nasa/pvslib/pvslib&#45;gitlab__pvs7.0/ACCoRD&#45;&gt;/Users/mmoscato/nasa/pvslib/pvslib&#45;gitlab__pvs7.0/analysis</title>
<path fill="none" stroke="#000000" d="M87.5861,-202C132.4684,-202 203.3936,-202 203.3936,-202 203.3936,-202 203.3936,-183.4286 203.3936,-183.4286 203.3936,-183.4286 512.8602,-183.4286 512.8602,-183.4286"/>
<polygon fill="#000000" stroke="#000000" points="512.8602,-186.9287 522.8602,-183.4286 512.8601,-179.9287 512.8602,-186.9287"/>
</g>
<!-- /Users/mmoscato/nasa/pvslib/pvslib&#45;gitlab__pvs7.0/aviation -->
<g id="node3" class="node">
<title>/Users/mmoscato/nasa/pvslib/pvslib&#45;gitlab__pvs7.0/aviation</title>
<polygon fill="#fcfcd7" stroke="#000000" points="199.5416,-189 138.3481,-189 138.3481,-153 199.5416,-153 199.5416,-189"/>
<text text-anchor="middle" x="168.9448" y="-166.8" font-family="Times,serif" font-size="14.00" fill="#000000">aviation</text>
</g>
<!-- /Users/mmoscato/nasa/pvslib/pvslib&#45;gitlab__pvs7.0/ACCoRD&#45;&gt;/Users/mmoscato/nasa/pvslib/pvslib&#45;gitlab__pvs7.0/aviation -->
<g id="edge2" class="edge">
<title>/Users/mmoscato/nasa/pvslib/pvslib&#45;gitlab__pvs7.0/ACCoRD&#45;&gt;/Users/mmoscato/nasa/pvslib/pvslib&#45;gitlab__pvs7.0/aviation</title>
<path fill="none" stroke="#000000" d="M87.2736,-196C121.9382,-196 169.3936,-196 169.3936,-196 169.3936,-196 169.3936,-195.3169 169.3936,-195.3169"/>
<polygon fill="#000000" stroke="#000000" points="172.8937,-199.1686 169.3936,-189.1686 165.8937,-199.1687 172.8937,-199.1686"/>
</g>
<!-- /Users/mmoscato/nasa/pvslib/pvslib&#45;gitlab__pvs7.0/ints -->
<g id="node4" class="node">
<title>/Users/mmoscato/nasa/pvslib/pvslib&#45;gitlab__pvs7.0/ints</title>
<polygon fill="#fcfcd7" stroke="#000000" points="870.6143,-212 816.6143,-212 816.6143,-176 870.6143,-176 870.6143,-212"/>
<text text-anchor="middle" x="843.6143" y="-189.8" font-family="Times,serif" font-size="14.00" fill="#000000">ints</text>
</g>
<!-- /Users/mmoscato/nasa/pvslib/pvslib&#45;gitlab__pvs7.0/ACCoRD&#45;&gt;/Users/mmoscato/nasa/pvslib/pvslib&#45;gitlab__pvs7.0/ints -->
<g id="edge3" class="edge">
<title>/Users/mmoscato/nasa/pvslib/pvslib&#45;gitlab__pvs7.0/ACCoRD&#45;&gt;/Users/mmoscato/nasa/pvslib/pvslib&#45;gitlab__pvs7.0/ints</title>
<path fill="none" stroke="#000000" d="M34.3936,-226.3207C34.3936,-257.1336 34.3936,-316 34.3936,-316 34.3936,-316 857.3936,-316 857.3936,-316 857.3936,-316 857.3936,-222.0015 857.3936,-222.0015"/>
<polygon fill="#000000" stroke="#000000" points="860.8937,-222.0015 857.3936,-212.0015 853.8937,-222.0016 860.8937,-222.0015"/>
</g>
<!-- /Users/mmoscato/nasa/pvslib/pvslib&#45;gitlab__pvs7.0/orders -->
<g id="node5" class="node">
<title>/Users/mmoscato/nasa/pvslib/pvslib&#45;gitlab__pvs7.0/orders</title>
<polygon fill="#fcfcd7" stroke="#000000" points="674.1865,-112 620.1865,-112 620.1865,-76 674.1865,-76 674.1865,-112"/>
<text text-anchor="middle" x="647.1865" y="-89.8" font-family="Times,serif" font-size="14.00" fill="#000000">orders</text>
</g>
<!-- /Users/mmoscato/nasa/pvslib/pvslib&#45;gitlab__pvs7.0/ACCoRD&#45;&gt;/Users/mmoscato/nasa/pvslib/pvslib&#45;gitlab__pvs7.0/orders -->
<g id="edge4" class="edge">
<title>/Users/mmoscato/nasa/pvslib/pvslib&#45;gitlab__pvs7.0/ACCoRD&#45;&gt;/Users/mmoscato/nasa/pvslib/pvslib&#45;gitlab__pvs7.0/orders</title>
<path fill="none" stroke="#000000" d="M45.3936,-189.853C45.3936,-155.24 45.3936,-83.2 45.3936,-83.2 45.3936,-83.2 610.1596,-83.2 610.1596,-83.2"/>
<polygon fill="#000000" stroke="#000000" points="610.1597,-86.7001 620.1596,-83.2 610.1596,-79.7001 610.1597,-86.7001"/>
</g>
<!-- /Users/mmoscato/nasa/pvslib/pvslib&#45;gitlab__pvs7.0/reals -->
<g id="node6" class="node">
<title>/Users/mmoscato/nasa/pvslib/pvslib&#45;gitlab__pvs7.0/reals</title>
<polygon fill="#fcfcd7" stroke="#000000" points="674.1865,-292 620.1865,-292 620.1865,-256 674.1865,-256 674.1865,-292"/>
<text text-anchor="middle" x="647.1865" y="-269.8" font-family="Times,serif" font-size="14.00" fill="#000000">reals</text>
</g>
<!-- /Users/mmoscato/nasa/pvslib/pvslib&#45;gitlab__pvs7.0/ACCoRD&#45;&gt;/Users/mmoscato/nasa/pvslib/pvslib&#45;gitlab__pvs7.0/reals -->
<g id="edge5" class="edge">
<title>/Users/mmoscato/nasa/pvslib/pvslib&#45;gitlab__pvs7.0/ACCoRD&#45;&gt;/Users/mmoscato/nasa/pvslib/pvslib&#45;gitlab__pvs7.0/reals</title>
<path fill="none" stroke="#000000" d="M70.3936,-226.2603C70.3936,-246.852 70.3936,-277.5 70.3936,-277.5 70.3936,-277.5 610.1402,-277.5 610.1402,-277.5"/>
<polygon fill="#000000" stroke="#000000" points="610.1403,-281.0001 620.1402,-277.5 610.1402,-274.0001 610.1403,-281.0001"/>
</g>
<!-- /Users/mmoscato/nasa/pvslib/pvslib&#45;gitlab__pvs7.0/series -->
<g id="node7" class="node">
<title>/Users/mmoscato/nasa/pvslib/pvslib&#45;gitlab__pvs7.0/series</title>
<polygon fill="#fcfcd7" stroke="#000000" points="487.083,-152 433.083,-152 433.083,-116 487.083,-116 487.083,-152"/>
<text text-anchor="middle" x="460.083" y="-129.8" font-family="Times,serif" font-size="14.00" fill="#000000">series</text>
</g>
<!-- /Users/mmoscato/nasa/pvslib/pvslib&#45;gitlab__pvs7.0/ACCoRD&#45;&gt;/Users/mmoscato/nasa/pvslib/pvslib&#45;gitlab__pvs7.0/series -->
<g id="edge6" class="edge">
<title>/Users/mmoscato/nasa/pvslib/pvslib&#45;gitlab__pvs7.0/ACCoRD&#45;&gt;/Users/mmoscato/nasa/pvslib/pvslib&#45;gitlab__pvs7.0/series</title>
<path fill="none" stroke="#000000" d="M59.3936,-189.8827C59.3936,-156.895 59.3936,-90.4 59.3936,-90.4 59.3936,-90.4 460.3936,-90.4 460.3936,-90.4 460.3936,-90.4 460.3936,-105.7623 460.3936,-105.7623"/>
<polygon fill="#000000" stroke="#000000" points="456.8937,-105.7623 460.3936,-115.7623 463.8937,-105.7623 456.8937,-105.7623"/>
</g>
<!-- /Users/mmoscato/nasa/pvslib/pvslib&#45;gitlab__pvs7.0/structures -->
<g id="node8" class="node">
<title>/Users/mmoscato/nasa/pvslib/pvslib&#45;gitlab__pvs7.0/structures</title>
<polygon fill="#fcfcd7" stroke="#000000" points="780.8294,-212 709.9713,-212 709.9713,-176 780.8294,-176 780.8294,-212"/>
<text text-anchor="middle" x="745.4004" y="-189.8" font-family="Times,serif" font-size="14.00" fill="#000000">structures</text>
</g>
<!-- /Users/mmoscato/nasa/pvslib/pvslib&#45;gitlab__pvs7.0/ACCoRD&#45;&gt;/Users/mmoscato/nasa/pvslib/pvslib&#45;gitlab__pvs7.0/structures -->
<g id="edge7" class="edge">
<title>/Users/mmoscato/nasa/pvslib/pvslib&#45;gitlab__pvs7.0/ACCoRD&#45;&gt;/Users/mmoscato/nasa/pvslib/pvslib&#45;gitlab__pvs7.0/structures</title>
<path fill="none" stroke="#000000" d="M52.3936,-226.0569C52.3936,-253.8657 52.3936,-304 52.3936,-304 52.3936,-304 757.3936,-304 757.3936,-304 757.3936,-304 757.3936,-222.1643 757.3936,-222.1643"/>
<polygon fill="#000000" stroke="#000000" points="760.8937,-222.1642 757.3936,-212.1643 753.8937,-222.1643 760.8937,-222.1642"/>
</g>
<!-- /Users/mmoscato/nasa/pvslib/pvslib&#45;gitlab__pvs7.0/trig -->
<g id="node9" class="node">
<title>/Users/mmoscato/nasa/pvslib/pvslib&#45;gitlab__pvs7.0/trig</title>
<polygon fill="#fcfcd7" stroke="#000000" points="397.083,-152 343.083,-152 343.083,-116 397.083,-116 397.083,-152"/>
<text text-anchor="middle" x="370.083" y="-129.8" font-family="Times,serif" font-size="14.00" fill="#000000">trig</text>
</g>
<!-- /Users/mmoscato/nasa/pvslib/pvslib&#45;gitlab__pvs7.0/ACCoRD&#45;&gt;/Users/mmoscato/nasa/pvslib/pvslib&#45;gitlab__pvs7.0/trig -->
<g id="edge8" class="edge">
<title>/Users/mmoscato/nasa/pvslib/pvslib&#45;gitlab__pvs7.0/ACCoRD&#45;&gt;/Users/mmoscato/nasa/pvslib/pvslib&#45;gitlab__pvs7.0/trig</title>
<path fill="none" stroke="#000000" d="M73.3936,-189.7079C73.3936,-167.7943 73.3936,-134 73.3936,-134 73.3936,-134 332.9673,-134 332.9673,-134"/>
<polygon fill="#000000" stroke="#000000" points="332.9673,-137.5001 342.9673,-134 332.9672,-130.5001 332.9673,-137.5001"/>
</g>
<!-- /Users/mmoscato/nasa/pvslib/pvslib&#45;gitlab__pvs7.0/vect_analysis -->
<g id="node10" class="node">
<title>/Users/mmoscato/nasa/pvslib/pvslib&#45;gitlab__pvs7.0/vect_analysis</title>
<polygon fill="#fcfcd7" stroke="#000000" points="214.8667,-263 123.023,-263 123.023,-227 214.8667,-227 214.8667,-263"/>
<text text-anchor="middle" x="168.9448" y="-240.8" font-family="Times,serif" font-size="14.00" fill="#000000">vect_analysis</text>
</g>
<!-- /Users/mmoscato/nasa/pvslib/pvslib&#45;gitlab__pvs7.0/ACCoRD&#45;&gt;/Users/mmoscato/nasa/pvslib/pvslib&#45;gitlab__pvs7.0/vect_analysis -->
<g id="edge9" class="edge">
<title>/Users/mmoscato/nasa/pvslib/pvslib&#45;gitlab__pvs7.0/ACCoRD&#45;&gt;/Users/mmoscato/nasa/pvslib/pvslib&#45;gitlab__pvs7.0/vect_analysis</title>
<path fill="none" stroke="#000000" d="M87.3053,-214C108.5462,-214 131.3936,-214 131.3936,-214 131.3936,-214 131.3936,-216.9672 131.3936,-216.9672"/>
<polygon fill="#000000" stroke="#000000" points="127.8937,-216.9671 131.3936,-226.9672 134.8937,-216.9672 127.8937,-216.9671"/>
</g>
<!-- /Users/mmoscato/nasa/pvslib/pvslib&#45;gitlab__pvs7.0/vectors -->
<g id="node11" class="node">
<title>/Users/mmoscato/nasa/pvslib/pvslib&#45;gitlab__pvs7.0/vectors</title>
<polygon fill="#fcfcd7" stroke="#000000" points="307.2985,-226 250.4398,-226 250.4398,-190 307.2985,-190 307.2985,-226"/>
<text text-anchor="middle" x="278.8691" y="-203.8" font-family="Times,serif" font-size="14.00" fill="#000000">vectors</text>
</g>
<!-- /Users/mmoscato/nasa/pvslib/pvslib&#45;gitlab__pvs7.0/ACCoRD&#45;&gt;/Users/mmoscato/nasa/pvslib/pvslib&#45;gitlab__pvs7.0/vectors -->
<g id="edge10" class="edge">
<title>/Users/mmoscato/nasa/pvslib/pvslib&#45;gitlab__pvs7.0/ACCoRD&#45;&gt;/Users/mmoscato/nasa/pvslib/pvslib&#45;gitlab__pvs7.0/vectors</title>
<path fill="none" stroke="#000000" d="M87.3753,-208C87.3753,-208 240.5,-208 240.5,-208"/>
<polygon fill="#000000" stroke="#000000" points="240.5001,-211.5001 250.5,-208 240.5,-204.5001 240.5001,-211.5001"/>
</g>
<!-- /Users/mmoscato/pvs/7.1&#45;0&#45;g3fb4f25&#45;ix86&#45;MacOSX&#45;allegro/lib/finite_sets -->
<g id="node12" class="node">
<title>/Users/mmoscato/pvs/7.1&#45;0&#45;g3fb4f25&#45;ix86&#45;MacOSX&#45;allegro/lib/finite_sets</title>
<polygon fill="#fcfcd7" stroke="#000000" points="979.2835,-162 906.7243,-162 906.7243,-126 979.2835,-126 979.2835,-162"/>
<text text-anchor="middle" x="943.0039" y="-139.8" font-family="Times,serif" font-size="14.00" fill="#000000">finite_sets</text>
</g>
<!-- /Users/mmoscato/nasa/pvslib/pvslib&#45;gitlab__pvs7.0/ACCoRD&#45;&gt;/Users/mmoscato/pvs/7.1&#45;0&#45;g3fb4f25&#45;ix86&#45;MacOSX&#45;allegro/lib/finite_sets -->
<g id="edge11" class="edge">
<title>/Users/mmoscato/nasa/pvslib/pvslib&#45;gitlab__pvs7.0/ACCoRD&#45;&gt;/Users/mmoscato/pvs/7.1&#45;0&#45;g3fb4f25&#45;ix86&#45;MacOSX&#45;allegro/lib/finite_sets</title>
<path fill="none" stroke="#000000" d="M30.3936,-189.9065C30.3936,-150.0111 30.3936,-58 30.3936,-58 30.3936,-58 943.3936,-58 943.3936,-58 943.3936,-58 943.3936,-115.7616 943.3936,-115.7616"/>
<polygon fill="#000000" stroke="#000000" points="939.8937,-115.7616 943.3936,-125.7616 946.8937,-115.7616 939.8937,-115.7616"/>
</g>
<!-- /Users/mmoscato/nasa/pvslib/pvslib&#45;gitlab__pvs7.0/analysis&#45;&gt;/Users/mmoscato/nasa/pvslib/pvslib&#45;gitlab__pvs7.0/ints -->
<g id="edge12" class="edge">
<title>/Users/mmoscato/nasa/pvslib/pvslib&#45;gitlab__pvs7.0/analysis&#45;&gt;/Users/mmoscato/nasa/pvslib/pvslib&#45;gitlab__pvs7.0/ints</title>
<path fill="none" stroke="#000000" d="M564.3936,-175.8457C564.3936,-174.7031 564.3936,-174 564.3936,-174 564.3936,-174 835.3936,-174 835.3936,-174 835.3936,-174 835.3936,-174.1846 835.3936,-174.1846"/>
<polygon fill="#000000" stroke="#000000" points="831.8942,-165.8455 835.3936,-175.8457 838.8942,-165.8459 831.8942,-165.8455"/>
</g>
<!-- /Users/mmoscato/nasa/pvslib/pvslib&#45;gitlab__pvs7.0/analysis&#45;&gt;/Users/mmoscato/nasa/pvslib/pvslib&#45;gitlab__pvs7.0/orders -->
<g id="edge13" class="edge">
<title>/Users/mmoscato/nasa/pvslib/pvslib&#45;gitlab__pvs7.0/analysis&#45;&gt;/Users/mmoscato/nasa/pvslib/pvslib&#45;gitlab__pvs7.0/orders</title>
<path fill="none" stroke="#000000" d="M584.298,-185C612.9675,-185 651.3936,-185 651.3936,-185 651.3936,-185 651.3936,-122.4152 651.3936,-122.4152"/>
<polygon fill="#000000" stroke="#000000" points="654.8937,-122.4152 651.3936,-112.4152 647.8937,-122.4152 654.8937,-122.4152"/>
</g>
<!-- /Users/mmoscato/nasa/pvslib/pvslib&#45;gitlab__pvs7.0/analysis&#45;&gt;/Users/mmoscato/nasa/pvslib/pvslib&#45;gitlab__pvs7.0/reals -->
<g id="edge14" class="edge">
<title>/Users/mmoscato/nasa/pvslib/pvslib&#45;gitlab__pvs7.0/analysis&#45;&gt;/Users/mmoscato/nasa/pvslib/pvslib&#45;gitlab__pvs7.0/reals</title>
<path fill="none" stroke="#000000" d="M554.3936,-212.2704C554.3936,-230.9259 554.3936,-257.1667 554.3936,-257.1667 554.3936,-257.1667 609.8475,-257.1667 609.8475,-257.1667"/>
<polygon fill="#000000" stroke="#000000" points="609.8475,-260.6668 619.8475,-257.1667 609.8474,-253.6668 609.8475,-260.6668"/>
</g>
<!-- /Users/mmoscato/nasa/pvslib/pvslib&#45;gitlab__pvs7.0/analysis&#45;&gt;/Users/mmoscato/nasa/pvslib/pvslib&#45;gitlab__pvs7.0/structures -->
<g id="edge15" class="edge">
<title>/Users/mmoscato/nasa/pvslib/pvslib&#45;gitlab__pvs7.0/analysis&#45;&gt;/Users/mmoscato/nasa/pvslib/pvslib&#45;gitlab__pvs7.0/structures</title>
<path fill="none" stroke="#000000" d="M584.4452,-194C584.4452,-194 700.109,-194 700.109,-194"/>
<polygon fill="#000000" stroke="#000000" points="700.109,-197.5001 710.109,-194 700.1089,-190.5001 700.109,-197.5001"/>
</g>
<!-- /Users/mmoscato/nasa/pvslib/pvslib&#45;gitlab__pvs7.0/analysis&#45;&gt;/Users/mmoscato/pvs/7.1&#45;0&#45;g3fb4f25&#45;ix86&#45;MacOSX&#45;allegro/lib/finite_sets -->
<g id="edge16" class="edge">
<title>/Users/mmoscato/nasa/pvslib/pvslib&#45;gitlab__pvs7.0/analysis&#45;&gt;/Users/mmoscato/pvs/7.1&#45;0&#45;g3fb4f25&#45;ix86&#45;MacOSX&#45;allegro/lib/finite_sets</title>
<path fill="none" stroke="#000000" d="M544.3936,-175.68C544.3936,-167.2117 544.3936,-159 544.3936,-159 544.3936,-159 896.5732,-159 896.5732,-159"/>
<polygon fill="#000000" stroke="#000000" points="896.5732,-162.5001 906.5732,-159 896.5732,-155.5001 896.5732,-162.5001"/>
</g>
<!-- /Users/mmoscato/nasa/pvslib/pvslib&#45;gitlab__pvs7.0/aviation&#45;&gt;/Users/mmoscato/nasa/pvslib/pvslib&#45;gitlab__pvs7.0/analysis -->
<g id="edge17" class="edge">
<title>/Users/mmoscato/nasa/pvslib/pvslib&#45;gitlab__pvs7.0/aviation&#45;&gt;/Users/mmoscato/nasa/pvslib/pvslib&#45;gitlab__pvs7.0/analysis</title>
<path fill="none" stroke="#000000" d="M199.7753,-181.5714C199.7753,-181.5714 512.9249,-181.5714 512.9249,-181.5714"/>
<polygon fill="#000000" stroke="#000000" points="512.9249,-185.0715 522.9249,-181.5714 512.9249,-178.0715 512.9249,-185.0715"/>
</g>
<!-- /Users/mmoscato/nasa/pvslib/pvslib&#45;gitlab__pvs7.0/aviation&#45;&gt;/Users/mmoscato/nasa/pvslib/pvslib&#45;gitlab__pvs7.0/ints -->
<g id="edge18" class="edge">
<title>/Users/mmoscato/nasa/pvslib/pvslib&#45;gitlab__pvs7.0/aviation&#45;&gt;/Users/mmoscato/nasa/pvslib/pvslib&#45;gitlab__pvs7.0/ints</title>
<path fill="none" stroke="#000000" d="M199.7226,-166C331.8601,-166 844.3936,-166 844.3936,-166 844.3936,-166 844.3936,-166.9793 844.3936,-166.9793"/>
<polygon fill="#000000" stroke="#000000" points="840.8937,-165.793 844.3936,-175.793 847.8937,-165.7931 840.8937,-165.793"/>
</g>
<!-- /Users/mmoscato/nasa/pvslib/pvslib&#45;gitlab__pvs7.0/aviation&#45;&gt;/Users/mmoscato/nasa/pvslib/pvslib&#45;gitlab__pvs7.0/orders -->
<g id="edge19" class="edge">
<title>/Users/mmoscato/nasa/pvslib/pvslib&#45;gitlab__pvs7.0/aviation&#45;&gt;/Users/mmoscato/nasa/pvslib/pvslib&#45;gitlab__pvs7.0/orders</title>
<path fill="none" stroke="#000000" d="M199.7092,-157C304.8445,-157 643.3936,-157 643.3936,-157 643.3936,-157 643.3936,-122.2222 643.3936,-122.2222"/>
<polygon fill="#000000" stroke="#000000" points="646.8937,-122.2222 643.3936,-112.2222 639.8937,-122.2222 646.8937,-122.2222"/>
</g>
<!-- /Users/mmoscato/nasa/pvslib/pvslib&#45;gitlab__pvs7.0/aviation&#45;&gt;/Users/mmoscato/nasa/pvslib/pvslib&#45;gitlab__pvs7.0/reals -->
<g id="edge20" class="edge">
<title>/Users/mmoscato/nasa/pvslib/pvslib&#45;gitlab__pvs7.0/aviation&#45;&gt;/Users/mmoscato/nasa/pvslib/pvslib&#45;gitlab__pvs7.0/reals</title>
<path fill="none" stroke="#000000" d="M199.804,-172C302.8181,-172 628.3936,-172 628.3936,-172 628.3936,-172 628.3936,-245.7644 628.3936,-245.7644"/>
<polygon fill="#000000" stroke="#000000" points="624.8937,-245.7644 628.3936,-255.7644 631.8937,-245.7645 624.8937,-245.7644"/>
</g>
<!-- /Users/mmoscato/nasa/pvslib/pvslib&#45;gitlab__pvs7.0/aviation&#45;&gt;/Users/mmoscato/nasa/pvslib/pvslib&#45;gitlab__pvs7.0/series -->
<g id="edge21" class="edge">
<title>/Users/mmoscato/nasa/pvslib/pvslib&#45;gitlab__pvs7.0/aviation&#45;&gt;/Users/mmoscato/nasa/pvslib/pvslib&#45;gitlab__pvs7.0/series</title>
<path fill="none" stroke="#000000" d="M199.7405,-156C271.6179,-156 444.3936,-156 444.3936,-156 444.3936,-156 444.3936,-155.6168 444.3936,-155.6168"/>
<polygon fill="#000000" stroke="#000000" points="447.8938,-162.1678 444.3936,-152.1679 440.8938,-162.168 447.8938,-162.1678"/>
</g>
<!-- /Users/mmoscato/nasa/pvslib/pvslib&#45;gitlab__pvs7.0/aviation&#45;&gt;/Users/mmoscato/nasa/pvslib/pvslib&#45;gitlab__pvs7.0/structures -->
<g id="edge22" class="edge">
<title>/Users/mmoscato/nasa/pvslib/pvslib&#45;gitlab__pvs7.0/aviation&#45;&gt;/Users/mmoscato/nasa/pvslib/pvslib&#45;gitlab__pvs7.0/structures</title>
<path fill="none" stroke="#000000" d="M199.5994,-170C316.043,-170 724.3936,-170 724.3936,-170 724.3936,-170 724.3936,-170.581 724.3936,-170.581"/>
<polygon fill="#000000" stroke="#000000" points="720.8937,-165.8097 724.3936,-175.8097 727.8937,-165.8098 720.8937,-165.8097"/>
</g>
<!-- /Users/mmoscato/nasa/pvslib/pvslib&#45;gitlab__pvs7.0/aviation&#45;&gt;/Users/mmoscato/nasa/pvslib/pvslib&#45;gitlab__pvs7.0/trig -->
<g id="edge23" class="edge">
<title>/Users/mmoscato/nasa/pvslib/pvslib&#45;gitlab__pvs7.0/aviation&#45;&gt;/Users/mmoscato/nasa/pvslib/pvslib&#45;gitlab__pvs7.0/trig</title>
<path fill="none" stroke="#000000" d="M199.8948,-155C251.9482,-155 351.3936,-155 351.3936,-155 351.3936,-155 351.3936,-154.708 351.3936,-154.708"/>
<polygon fill="#000000" stroke="#000000" points="354.8939,-162.0799 351.3936,-152.08 347.8939,-162.0802 354.8939,-162.0799"/>
</g>
<!-- /Users/mmoscato/nasa/pvslib/pvslib&#45;gitlab__pvs7.0/aviation&#45;&gt;/Users/mmoscato/nasa/pvslib/pvslib&#45;gitlab__pvs7.0/vectors -->
<g id="edge24" class="edge">
<title>/Users/mmoscato/nasa/pvslib/pvslib&#45;gitlab__pvs7.0/aviation&#45;&gt;/Users/mmoscato/nasa/pvslib/pvslib&#45;gitlab__pvs7.0/vectors</title>
<path fill="none" stroke="#000000" d="M199.6581,-187.1429C229.5171,-187.1429 270.3936,-187.1429 270.3936,-187.1429 270.3936,-187.1429 270.3936,-187.3986 270.3936,-187.3986"/>
<polygon fill="#000000" stroke="#000000" points="266.894,-179.7002 270.3936,-189.7004 273.894,-179.7005 266.894,-179.7002"/>
</g>
<!-- /Users/mmoscato/nasa/pvslib/pvslib&#45;gitlab__pvs7.0/aviation&#45;&gt;/Users/mmoscato/pvs/7.1&#45;0&#45;g3fb4f25&#45;ix86&#45;MacOSX&#45;allegro/lib/finite_sets -->
<g id="edge25" class="edge">
<title>/Users/mmoscato/nasa/pvslib/pvslib&#45;gitlab__pvs7.0/aviation&#45;&gt;/Users/mmoscato/pvs/7.1&#45;0&#45;g3fb4f25&#45;ix86&#45;MacOSX&#45;allegro/lib/finite_sets</title>
<path fill="none" stroke="#000000" d="M199.7665,-158C199.7665,-158 896.3861,-158 896.3861,-158"/>
<polygon fill="#000000" stroke="#000000" points="896.3862,-161.5001 906.3861,-158 896.3861,-154.5001 896.3862,-161.5001"/>
</g>
<!-- /Users/mmoscato/nasa/pvslib/pvslib&#45;gitlab__pvs7.0/ints&#45;&gt;/Users/mmoscato/pvs/7.1&#45;0&#45;g3fb4f25&#45;ix86&#45;MacOSX&#45;allegro/lib/finite_sets -->
<g id="edge26" class="edge">
<title>/Users/mmoscato/nasa/pvslib/pvslib&#45;gitlab__pvs7.0/ints&#45;&gt;/Users/mmoscato/pvs/7.1&#45;0&#45;g3fb4f25&#45;ix86&#45;MacOSX&#45;allegro/lib/finite_sets</title>
<path fill="none" stroke="#000000" d="M862.3936,-175.9551C862.3936,-168.251 862.3936,-161 862.3936,-161 862.3936,-161 896.4724,-161 896.4724,-161"/>
<polygon fill="#000000" stroke="#000000" points="896.4725,-164.5001 906.4724,-161 896.4724,-157.5001 896.4725,-164.5001"/>
</g>
<!-- /Users/mmoscato/nasa/pvslib/pvslib&#45;gitlab__pvs7.0/orders&#45;&gt;/Users/mmoscato/pvs/7.1&#45;0&#45;g3fb4f25&#45;ix86&#45;MacOSX&#45;allegro/lib/finite_sets -->
<g id="edge27" class="edge">
<title>/Users/mmoscato/nasa/pvslib/pvslib&#45;gitlab__pvs7.0/orders&#45;&gt;/Users/mmoscato/pvs/7.1&#45;0&#45;g3fb4f25&#45;ix86&#45;MacOSX&#45;allegro/lib/finite_sets</title>
<path fill="none" stroke="#000000" d="M659.3936,-112.1641C659.3936,-121.6071 659.3936,-131.2 659.3936,-131.2 659.3936,-131.2 896.5074,-131.2 896.5074,-131.2"/>
<polygon fill="#000000" stroke="#000000" points="896.5075,-134.7001 906.5074,-131.2 896.5074,-127.7001 896.5075,-134.7001"/>
</g>
<!-- /Users/mmoscato/nasa/pvslib/pvslib&#45;gitlab__pvs7.0/reals&#45;&gt;/Users/mmoscato/nasa/pvslib/pvslib&#45;gitlab__pvs7.0/ints -->
<g id="edge28" class="edge">
<title>/Users/mmoscato/nasa/pvslib/pvslib&#45;gitlab__pvs7.0/reals&#45;&gt;/Users/mmoscato/nasa/pvslib/pvslib&#45;gitlab__pvs7.0/ints</title>
<path fill="none" stroke="#000000" d="M674.1938,-274C728.2039,-274 844.3936,-274 844.3936,-274 844.3936,-274 844.3936,-222.1532 844.3936,-222.1532"/>
<polygon fill="#000000" stroke="#000000" points="847.8937,-222.1532 844.3936,-212.1532 840.8937,-222.1533 847.8937,-222.1532"/>
</g>
<!-- /Users/mmoscato/nasa/pvslib/pvslib&#45;gitlab__pvs7.0/reals&#45;&gt;/Users/mmoscato/nasa/pvslib/pvslib&#45;gitlab__pvs7.0/structures -->
<g id="edge29" class="edge">
<title>/Users/mmoscato/nasa/pvslib/pvslib&#45;gitlab__pvs7.0/reals&#45;&gt;/Users/mmoscato/nasa/pvslib/pvslib&#45;gitlab__pvs7.0/structures</title>
<path fill="none" stroke="#000000" d="M667.3936,-255.7157C667.3936,-234.6789 667.3936,-203 667.3936,-203 667.3936,-203 700.0488,-203 700.0488,-203"/>
<polygon fill="#000000" stroke="#000000" points="700.0488,-206.5001 710.0488,-203 700.0487,-199.5001 700.0488,-206.5001"/>
</g>
<!-- /Users/mmoscato/nasa/pvslib/pvslib&#45;gitlab__pvs7.0/series&#45;&gt;/Users/mmoscato/nasa/pvslib/pvslib&#45;gitlab__pvs7.0/analysis -->
<g id="edge30" class="edge">
<title>/Users/mmoscato/nasa/pvslib/pvslib&#45;gitlab__pvs7.0/series&#45;&gt;/Users/mmoscato/nasa/pvslib/pvslib&#45;gitlab__pvs7.0/analysis</title>
<path fill="none" stroke="#000000" d="M476.3936,-152.0916C476.3936,-164.1725 476.3936,-177.8571 476.3936,-177.8571 476.3936,-177.8571 512.6629,-177.8571 512.6629,-177.8571"/>
<polygon fill="#000000" stroke="#000000" points="512.6629,-181.3572 522.6629,-177.8571 512.6628,-174.3572 512.6629,-181.3572"/>
</g>
<!-- /Users/mmoscato/nasa/pvslib/pvslib&#45;gitlab__pvs7.0/series&#45;&gt;/Users/mmoscato/nasa/pvslib/pvslib&#45;gitlab__pvs7.0/ints -->
<g id="edge31" class="edge">
<title>/Users/mmoscato/nasa/pvslib/pvslib&#45;gitlab__pvs7.0/series&#45;&gt;/Users/mmoscato/nasa/pvslib/pvslib&#45;gitlab__pvs7.0/ints</title>
<path fill="none" stroke="#000000" d="M487.3166,-141.6C572.2099,-141.6 826.3936,-141.6 826.3936,-141.6 826.3936,-141.6 826.3936,-165.9669 826.3936,-165.9669"/>
<polygon fill="#000000" stroke="#000000" points="822.8937,-165.9669 826.3936,-175.9669 829.8937,-165.9669 822.8937,-165.9669"/>
</g>
<!-- /Users/mmoscato/nasa/pvslib/pvslib&#45;gitlab__pvs7.0/series&#45;&gt;/Users/mmoscato/nasa/pvslib/pvslib&#45;gitlab__pvs7.0/orders -->
<g id="edge32" class="edge">
<title>/Users/mmoscato/nasa/pvslib/pvslib&#45;gitlab__pvs7.0/series&#45;&gt;/Users/mmoscato/nasa/pvslib/pvslib&#45;gitlab__pvs7.0/orders</title>
<path fill="none" stroke="#000000" d="M487.2451,-121C536.7017,-121 636.3936,-121 636.3936,-121 636.3936,-121 636.3936,-120.1159 636.3936,-120.1159"/>
<polygon fill="#000000" stroke="#000000" points="639.8937,-122.1591 636.3936,-112.1592 632.8937,-122.1592 639.8937,-122.1591"/>
</g>
<!-- /Users/mmoscato/nasa/pvslib/pvslib&#45;gitlab__pvs7.0/series&#45;&gt;/Users/mmoscato/nasa/pvslib/pvslib&#45;gitlab__pvs7.0/reals -->
<g id="edge33" class="edge">
<title>/Users/mmoscato/nasa/pvslib/pvslib&#45;gitlab__pvs7.0/series&#45;&gt;/Users/mmoscato/nasa/pvslib/pvslib&#45;gitlab__pvs7.0/reals</title>
<path fill="none" stroke="#000000" d="M466.3936,-152.0791C466.3936,-186.5627 466.3936,-258.3333 466.3936,-258.3333 466.3936,-258.3333 610.12,-258.3333 610.12,-258.3333"/>
<polygon fill="#000000" stroke="#000000" points="610.12,-261.8334 620.12,-258.3333 610.12,-254.8334 610.12,-261.8334"/>
</g>
<!-- /Users/mmoscato/nasa/pvslib/pvslib&#45;gitlab__pvs7.0/series&#45;&gt;/Users/mmoscato/nasa/pvslib/pvslib&#45;gitlab__pvs7.0/structures -->
<g id="edge34" class="edge">
<title>/Users/mmoscato/nasa/pvslib/pvslib&#45;gitlab__pvs7.0/series&#45;&gt;/Users/mmoscato/nasa/pvslib/pvslib&#45;gitlab__pvs7.0/structures</title>
<path fill="none" stroke="#000000" d="M487.1512,-146.8C559.7628,-146.8 753.3936,-146.8 753.3936,-146.8 753.3936,-146.8 753.3936,-165.8862 753.3936,-165.8862"/>
<polygon fill="#000000" stroke="#000000" points="749.8937,-165.8862 753.3936,-175.8862 756.8937,-165.8863 749.8937,-165.8862"/>
</g>
<!-- /Users/mmoscato/nasa/pvslib/pvslib&#45;gitlab__pvs7.0/series&#45;&gt;/Users/mmoscato/pvs/7.1&#45;0&#45;g3fb4f25&#45;ix86&#45;MacOSX&#45;allegro/lib/finite_sets -->
<g id="edge35" class="edge">
<title>/Users/mmoscato/nasa/pvslib/pvslib&#45;gitlab__pvs7.0/series&#45;&gt;/Users/mmoscato/pvs/7.1&#45;0&#45;g3fb4f25&#45;ix86&#45;MacOSX&#45;allegro/lib/finite_sets</title>
<path fill="none" stroke="#000000" d="M487.4306,-136.4C487.4306,-136.4 896.3875,-136.4 896.3875,-136.4"/>
<polygon fill="#000000" stroke="#000000" points="896.3876,-139.9001 906.3875,-136.4 896.3875,-132.9001 896.3876,-139.9001"/>
</g>
<!-- /Users/mmoscato/nasa/pvslib/pvslib&#45;gitlab__pvs7.0/structures&#45;&gt;/Users/mmoscato/nasa/pvslib/pvslib&#45;gitlab__pvs7.0/ints -->
<g id="edge36" class="edge">
<title>/Users/mmoscato/nasa/pvslib/pvslib&#45;gitlab__pvs7.0/structures&#45;&gt;/Users/mmoscato/nasa/pvslib/pvslib&#45;gitlab__pvs7.0/ints</title>
<path fill="none" stroke="#000000" d="M780.8579,-194C780.8579,-194 806.5332,-194 806.5332,-194"/>
<polygon fill="#000000" stroke="#000000" points="806.5332,-197.5001 816.5332,-194 806.5331,-190.5001 806.5332,-197.5001"/>
</g>
<!-- /Users/mmoscato/nasa/pvslib/pvslib&#45;gitlab__pvs7.0/structures&#45;&gt;/Users/mmoscato/pvs/7.1&#45;0&#45;g3fb4f25&#45;ix86&#45;MacOSX&#45;allegro/lib/finite_sets -->
<g id="edge37" class="edge">
<title>/Users/mmoscato/nasa/pvslib/pvslib&#45;gitlab__pvs7.0/structures&#45;&gt;/Users/mmoscato/pvs/7.1&#45;0&#45;g3fb4f25&#45;ix86&#45;MacOSX&#45;allegro/lib/finite_sets</title>
<path fill="none" stroke="#000000" d="M767.3936,-175.8056C767.3936,-167.7218 767.3936,-160 767.3936,-160 767.3936,-160 896.6173,-160 896.6173,-160"/>
<polygon fill="#000000" stroke="#000000" points="896.6174,-163.5001 906.6173,-160 896.6173,-156.5001 896.6174,-163.5001"/>
</g>
<!-- /Users/mmoscato/nasa/pvslib/pvslib&#45;gitlab__pvs7.0/trig&#45;&gt;/Users/mmoscato/nasa/pvslib/pvslib&#45;gitlab__pvs7.0/analysis -->
<g id="edge38" class="edge">
<title>/Users/mmoscato/nasa/pvslib/pvslib&#45;gitlab__pvs7.0/trig&#45;&gt;/Users/mmoscato/nasa/pvslib/pvslib&#45;gitlab__pvs7.0/analysis</title>
<path fill="none" stroke="#000000" d="M374.3936,-152.0675C374.3936,-164.8454 374.3936,-179.7143 374.3936,-179.7143 374.3936,-179.7143 512.8221,-179.7143 512.8221,-179.7143"/>
<polygon fill="#000000" stroke="#000000" points="512.8221,-183.2144 522.8221,-179.7143 512.8221,-176.2144 512.8221,-183.2144"/>
</g>
<!-- /Users/mmoscato/nasa/pvslib/pvslib&#45;gitlab__pvs7.0/trig&#45;&gt;/Users/mmoscato/nasa/pvslib/pvslib&#45;gitlab__pvs7.0/ints -->
<g id="edge39" class="edge">
<title>/Users/mmoscato/nasa/pvslib/pvslib&#45;gitlab__pvs7.0/trig&#45;&gt;/Users/mmoscato/nasa/pvslib/pvslib&#45;gitlab__pvs7.0/ints</title>
<path fill="none" stroke="#000000" d="M389.3936,-152.1432C389.3936,-158.4611 389.3936,-164 389.3936,-164 389.3936,-164 853.3936,-164 853.3936,-164 853.3936,-164 853.3936,-165.8568 853.3936,-165.8568"/>
<polygon fill="#000000" stroke="#000000" points="849.8937,-165.8568 853.3936,-175.8568 856.8937,-165.8568 849.8937,-165.8568"/>
</g>
<!-- /Users/mmoscato/nasa/pvslib/pvslib&#45;gitlab__pvs7.0/trig&#45;&gt;/Users/mmoscato/nasa/pvslib/pvslib&#45;gitlab__pvs7.0/orders -->
<g id="edge40" class="edge">
<title>/Users/mmoscato/nasa/pvslib/pvslib&#45;gitlab__pvs7.0/trig&#45;&gt;/Users/mmoscato/nasa/pvslib/pvslib&#45;gitlab__pvs7.0/orders</title>
<path fill="none" stroke="#000000" d="M370.3936,-115.673C370.3936,-109.8063 370.3936,-104.8 370.3936,-104.8 370.3936,-104.8 610.1425,-104.8 610.1425,-104.8"/>
<polygon fill="#000000" stroke="#000000" points="610.1425,-108.3001 620.1425,-104.8 610.1424,-101.3001 610.1425,-108.3001"/>
</g>
<!-- /Users/mmoscato/nasa/pvslib/pvslib&#45;gitlab__pvs7.0/trig&#45;&gt;/Users/mmoscato/nasa/pvslib/pvslib&#45;gitlab__pvs7.0/reals -->
<g id="edge41" class="edge">
<title>/Users/mmoscato/nasa/pvslib/pvslib&#45;gitlab__pvs7.0/trig&#45;&gt;/Users/mmoscato/nasa/pvslib/pvslib&#45;gitlab__pvs7.0/reals</title>
<path fill="none" stroke="#000000" d="M366.3936,-152.2488C366.3936,-187.0559 366.3936,-259.5 366.3936,-259.5 366.3936,-259.5 610.0078,-259.5 610.0078,-259.5"/>
<polygon fill="#000000" stroke="#000000" points="610.0078,-263.0001 620.0078,-259.5 610.0077,-256.0001 610.0078,-263.0001"/>
</g>
<!-- /Users/mmoscato/nasa/pvslib/pvslib&#45;gitlab__pvs7.0/trig&#45;&gt;/Users/mmoscato/nasa/pvslib/pvslib&#45;gitlab__pvs7.0/series -->
<g id="edge42" class="edge">
<title>/Users/mmoscato/nasa/pvslib/pvslib&#45;gitlab__pvs7.0/trig&#45;&gt;/Users/mmoscato/nasa/pvslib/pvslib&#45;gitlab__pvs7.0/series</title>
<path fill="none" stroke="#000000" d="M397.086,-128C397.086,-128 422.788,-128 422.788,-128"/>
<polygon fill="#000000" stroke="#000000" points="422.7881,-131.5001 432.788,-128 422.788,-124.5001 422.7881,-131.5001"/>
</g>
<!-- /Users/mmoscato/nasa/pvslib/pvslib&#45;gitlab__pvs7.0/trig&#45;&gt;/Users/mmoscato/nasa/pvslib/pvslib&#45;gitlab__pvs7.0/structures -->
<g id="edge43" class="edge">
<title>/Users/mmoscato/nasa/pvslib/pvslib&#45;gitlab__pvs7.0/trig&#45;&gt;/Users/mmoscato/nasa/pvslib/pvslib&#45;gitlab__pvs7.0/structures</title>
<path fill="none" stroke="#000000" d="M382.3936,-152.1944C382.3936,-160.2782 382.3936,-168 382.3936,-168 382.3936,-168 738.3936,-168 738.3936,-168 738.3936,-168 738.3936,-168.7942 738.3936,-168.7942"/>
<polygon fill="#000000" stroke="#000000" points="734.8937,-165.9421 738.3936,-175.9421 741.8937,-165.9422 734.8937,-165.9421"/>
</g>
<!-- /Users/mmoscato/nasa/pvslib/pvslib&#45;gitlab__pvs7.0/trig&#45;&gt;/Users/mmoscato/pvs/7.1&#45;0&#45;g3fb4f25&#45;ix86&#45;MacOSX&#45;allegro/lib/finite_sets -->
<g id="edge44" class="edge">
<title>/Users/mmoscato/nasa/pvslib/pvslib&#45;gitlab__pvs7.0/trig&#45;&gt;/Users/mmoscato/pvs/7.1&#45;0&#45;g3fb4f25&#45;ix86&#45;MacOSX&#45;allegro/lib/finite_sets</title>
<path fill="none" stroke="#000000" d="M397.2251,-140C406.875,-140 415.3936,-140 415.3936,-140 415.3936,-140 415.3936,-154 415.3936,-154 415.3936,-154 896.3223,-154 896.3223,-154"/>
<polygon fill="#000000" stroke="#000000" points="896.3223,-157.5001 906.3223,-154 896.3222,-150.5001 896.3223,-157.5001"/>
</g>
<!-- /Users/mmoscato/nasa/pvslib/pvslib&#45;gitlab__pvs7.0/vect_analysis&#45;&gt;/Users/mmoscato/nasa/pvslib/pvslib&#45;gitlab__pvs7.0/analysis -->
<g id="edge45" class="edge">
<title>/Users/mmoscato/nasa/pvslib/pvslib&#45;gitlab__pvs7.0/vect_analysis&#45;&gt;/Users/mmoscato/nasa/pvslib/pvslib&#45;gitlab__pvs7.0/analysis</title>
<path fill="none" stroke="#000000" d="M207.3936,-226.7593C207.3936,-209.1984 207.3936,-185.2857 207.3936,-185.2857 207.3936,-185.2857 512.9082,-185.2857 512.9082,-185.2857"/>
<polygon fill="#000000" stroke="#000000" points="512.9082,-188.7858 522.9082,-185.2857 512.9081,-181.7858 512.9082,-188.7858"/>
</g>
<!-- /Users/mmoscato/nasa/pvslib/pvslib&#45;gitlab__pvs7.0/vect_analysis&#45;&gt;/Users/mmoscato/nasa/pvslib/pvslib&#45;gitlab__pvs7.0/reals -->
<g id="edge46" class="edge">
<title>/Users/mmoscato/nasa/pvslib/pvslib&#45;gitlab__pvs7.0/vect_analysis&#45;&gt;/Users/mmoscato/nasa/pvslib/pvslib&#45;gitlab__pvs7.0/reals</title>
<path fill="none" stroke="#000000" d="M214.8006,-261.8333C214.8006,-261.8333 610.1134,-261.8333 610.1134,-261.8333"/>
<polygon fill="#000000" stroke="#000000" points="610.1134,-265.3334 620.1134,-261.8333 610.1134,-258.3334 610.1134,-265.3334"/>
</g>
<!-- /Users/mmoscato/nasa/pvslib/pvslib&#45;gitlab__pvs7.0/vect_analysis&#45;&gt;/Users/mmoscato/nasa/pvslib/pvslib&#45;gitlab__pvs7.0/vectors -->
<g id="edge47" class="edge">
<title>/Users/mmoscato/nasa/pvslib/pvslib&#45;gitlab__pvs7.0/vect_analysis&#45;&gt;/Users/mmoscato/nasa/pvslib/pvslib&#45;gitlab__pvs7.0/vectors</title>
<path fill="none" stroke="#000000" d="M211.3936,-226.8314C211.3936,-222.9541 211.3936,-220 211.3936,-220 211.3936,-220 240.6444,-220 240.6444,-220"/>
<polygon fill="#000000" stroke="#000000" points="240.6444,-223.5001 250.6444,-220 240.6443,-216.5001 240.6444,-223.5001"/>
</g>
<!-- /Users/mmoscato/nasa/pvslib/pvslib&#45;gitlab__pvs7.0/vect_analysis&#45;&gt;/Users/mmoscato/pvs/7.1&#45;0&#45;g3fb4f25&#45;ix86&#45;MacOSX&#45;allegro/lib/finite_sets -->
<g id="edge48" class="edge">
<title>/Users/mmoscato/nasa/pvslib/pvslib&#45;gitlab__pvs7.0/vect_analysis&#45;&gt;/Users/mmoscato/pvs/7.1&#45;0&#45;g3fb4f25&#45;ix86&#45;MacOSX&#45;allegro/lib/finite_sets</title>
<path fill="none" stroke="#000000" d="M214.9154,-241.5C383.1297,-241.5 955.3936,-241.5 955.3936,-241.5 955.3936,-241.5 955.3936,-172.339 955.3936,-172.339"/>
<polygon fill="#000000" stroke="#000000" points="958.8937,-172.339 955.3936,-162.339 951.8937,-172.339 958.8937,-172.339"/>
</g>
<!-- /Users/mmoscato/nasa/pvslib/pvslib&#45;gitlab__pvs7.0/vectors&#45;&gt;/Users/mmoscato/nasa/pvslib/pvslib&#45;gitlab__pvs7.0/analysis -->
<g id="edge49" class="edge">
<title>/Users/mmoscato/nasa/pvslib/pvslib&#45;gitlab__pvs7.0/vectors&#45;&gt;/Users/mmoscato/nasa/pvslib/pvslib&#45;gitlab__pvs7.0/analysis</title>
<path fill="none" stroke="#000000" d="M307.239,-206.5C307.239,-206.5 512.9134,-206.5 512.9134,-206.5"/>
<polygon fill="#000000" stroke="#000000" points="512.9134,-210.0001 522.9134,-206.5 512.9133,-203.0001 512.9134,-210.0001"/>
</g>
<!-- /Users/mmoscato/nasa/pvslib/pvslib&#45;gitlab__pvs7.0/vectors&#45;&gt;/Users/mmoscato/nasa/pvslib/pvslib&#45;gitlab__pvs7.0/ints -->
<g id="edge50" class="edge">
<title>/Users/mmoscato/nasa/pvslib/pvslib&#45;gitlab__pvs7.0/vectors&#45;&gt;/Users/mmoscato/nasa/pvslib/pvslib&#45;gitlab__pvs7.0/ints</title>
<path fill="none" stroke="#000000" d="M307.3601,-219C420.2969,-219 830.3936,-219 830.3936,-219 830.3936,-219 830.3936,-218.3169 830.3936,-218.3169"/>
<polygon fill="#000000" stroke="#000000" points="833.8937,-222.1686 830.3936,-212.1686 826.8937,-222.1687 833.8937,-222.1686"/>
</g>
<!-- /Users/mmoscato/nasa/pvslib/pvslib&#45;gitlab__pvs7.0/vectors&#45;&gt;/Users/mmoscato/nasa/pvslib/pvslib&#45;gitlab__pvs7.0/orders -->
<g id="edge51" class="edge">
<title>/Users/mmoscato/nasa/pvslib/pvslib&#45;gitlab__pvs7.0/vectors&#45;&gt;/Users/mmoscato/nasa/pvslib/pvslib&#45;gitlab__pvs7.0/orders</title>
<path fill="none" stroke="#000000" d="M288.3936,-189.7697C288.3936,-158.413 288.3936,-97.6 288.3936,-97.6 288.3936,-97.6 609.9242,-97.6 609.9242,-97.6"/>
<polygon fill="#000000" stroke="#000000" points="609.9243,-101.1001 619.9242,-97.6 609.9242,-94.1001 609.9243,-101.1001"/>
</g>
<!-- /Users/mmoscato/nasa/pvslib/pvslib&#45;gitlab__pvs7.0/vectors&#45;&gt;/Users/mmoscato/nasa/pvslib/pvslib&#45;gitlab__pvs7.0/reals -->
<g id="edge52" class="edge">
<title>/Users/mmoscato/nasa/pvslib/pvslib&#45;gitlab__pvs7.0/vectors&#45;&gt;/Users/mmoscato/nasa/pvslib/pvslib&#45;gitlab__pvs7.0/reals</title>
<path fill="none" stroke="#000000" d="M279.3936,-226.1249C279.3936,-241.3595 279.3936,-260.6667 279.3936,-260.6667 279.3936,-260.6667 610.1418,-260.6667 610.1418,-260.6667"/>
<polygon fill="#000000" stroke="#000000" points="610.1419,-264.1668 620.1418,-260.6667 610.1418,-257.1668 610.1419,-264.1668"/>
</g>
<!-- /Users/mmoscato/nasa/pvslib/pvslib&#45;gitlab__pvs7.0/vectors&#45;&gt;/Users/mmoscato/nasa/pvslib/pvslib&#45;gitlab__pvs7.0/series -->
<g id="edge53" class="edge">
<title>/Users/mmoscato/nasa/pvslib/pvslib&#45;gitlab__pvs7.0/vectors&#45;&gt;/Users/mmoscato/nasa/pvslib/pvslib&#45;gitlab__pvs7.0/series</title>
<path fill="none" stroke="#000000" d="M307.2308,-201C357.1302,-201 455.3936,-201 455.3936,-201 455.3936,-201 455.3936,-162.308 455.3936,-162.308"/>
<polygon fill="#000000" stroke="#000000" points="458.8937,-162.308 455.3936,-152.308 451.8937,-162.3081 458.8937,-162.308"/>
</g>
<!-- /Users/mmoscato/nasa/pvslib/pvslib&#45;gitlab__pvs7.0/vectors&#45;&gt;/Users/mmoscato/nasa/pvslib/pvslib&#45;gitlab__pvs7.0/structures -->
<g id="edge54" class="edge">
<title>/Users/mmoscato/nasa/pvslib/pvslib&#45;gitlab__pvs7.0/vectors&#45;&gt;/Users/mmoscato/nasa/pvslib/pvslib&#45;gitlab__pvs7.0/structures</title>
<path fill="none" stroke="#000000" d="M307.3642,-215.5C407.0896,-215.5 734.3936,-215.5 734.3936,-215.5 734.3936,-215.5 734.3936,-215.1641 734.3936,-215.1641"/>
<polygon fill="#000000" stroke="#000000" points="737.8939,-222.1405 734.3936,-212.1406 730.8939,-222.1407 737.8939,-222.1405"/>
</g>
<!-- /Users/mmoscato/nasa/pvslib/pvslib&#45;gitlab__pvs7.0/vectors&#45;&gt;/Users/mmoscato/nasa/pvslib/pvslib&#45;gitlab__pvs7.0/trig -->
<g id="edge55" class="edge">
<title>/Users/mmoscato/nasa/pvslib/pvslib&#45;gitlab__pvs7.0/vectors&#45;&gt;/Users/mmoscato/nasa/pvslib/pvslib&#45;gitlab__pvs7.0/trig</title>
<path fill="none" stroke="#000000" d="M307.4858,-195.5C330.6308,-195.5 359.3936,-195.5 359.3936,-195.5 359.3936,-195.5 359.3936,-162.1194 359.3936,-162.1194"/>
<polygon fill="#000000" stroke="#000000" points="362.8937,-162.1194 359.3936,-152.1194 355.8937,-162.1194 362.8937,-162.1194"/>
</g>
<!-- /Users/mmoscato/nasa/pvslib/pvslib&#45;gitlab__pvs7.0/vectors&#45;&gt;/Users/mmoscato/pvs/7.1&#45;0&#45;g3fb4f25&#45;ix86&#45;MacOSX&#45;allegro/lib/finite_sets -->
<g id="edge56" class="edge">
<title>/Users/mmoscato/nasa/pvslib/pvslib&#45;gitlab__pvs7.0/vectors&#45;&gt;/Users/mmoscato/pvs/7.1&#45;0&#45;g3fb4f25&#45;ix86&#45;MacOSX&#45;allegro/lib/finite_sets</title>
<path fill="none" stroke="#000000" d="M307.3269,-222.5C432.9191,-222.5 931.3936,-222.5 931.3936,-222.5 931.3936,-222.5 931.3936,-172.2068 931.3936,-172.2068"/>
<polygon fill="#000000" stroke="#000000" points="934.8937,-172.2068 931.3936,-162.2068 927.8937,-172.2068 934.8937,-172.2068"/>
</g>
</g>
</svg>
