<?xml version="1.0" encoding="UTF-8" standalone="no"?>
<!DOCTYPE svg PUBLIC "-//W3C//DTD SVG 1.1//EN"
 "http://www.w3.org/Graphics/SVG/1.1/DTD/svg11.dtd">
<!-- Generated by graphviz version 2.40.1 (20161225.0304)
 -->
<!-- Title: ACCoRD Pages: 1 -->
<svg width="515pt" height="676pt"
 viewBox="0.00 0.00 515.00 676.00" xmlns="http://www.w3.org/2000/svg" xmlns:xlink="http://www.w3.org/1999/xlink">
<g id="graph0" class="graph" transform="scale(1 1) rotate(0) translate(4 672)">
<title>ACCoRD</title>
<polygon fill="#ffffff" stroke="transparent" points="-4,4 -4,-672 511,-672 511,4 -4,4"/>
<g id="clust1" class="cluster">
<title>cluster_NASALib</title>
<polygon fill="none" stroke="#000000" points="8,-8 8,-660 403,-660 403,-8 8,-8"/>
<text text-anchor="middle" x="205.5" y="-644.8" font-family="Times,serif" font-size="14.00" fill="#000000">NASALib</text>
</g>
<g id="clust2" class="cluster">
<title>cluster_PVS Prelude</title>
<polygon fill="none" stroke="#000000" points="411,-152 411,-226 499,-226 499,-152 411,-152"/>
<text text-anchor="middle" x="455" y="-210.8" font-family="Times,serif" font-size="14.00" fill="#000000">PVS Prelude</text>
</g>
<!-- /Users/mmoscato/nasa/pvslib/pvslib&#45;gitlab__pvs7.0/ACCoRD -->
<g id="node1" class="node">
<title>/Users/mmoscato/nasa/pvslib/pvslib&#45;gitlab__pvs7.0/ACCoRD</title>
<polygon fill="#f7e28d" stroke="#000000" points="299.7348,-630 228.2652,-630 228.2652,-594 299.7348,-594 299.7348,-630"/>
<text text-anchor="middle" x="264" y="-607.8" font-family="Times,serif" font-size="14.00" fill="#000000">ACCoRD</text>
</g>
<!-- /Users/mmoscato/nasa/pvslib/pvslib&#45;gitlab__pvs7.0/analysis -->
<g id="node2" class="node">
<title>/Users/mmoscato/nasa/pvslib/pvslib&#45;gitlab__pvs7.0/analysis</title>
<polygon fill="#fcfcd7" stroke="#000000" points="279.6036,-270 218.3964,-270 218.3964,-234 279.6036,-234 279.6036,-270"/>
<text text-anchor="middle" x="249" y="-247.8" font-family="Times,serif" font-size="14.00" fill="#000000">analysis</text>
</g>
<!-- /Users/mmoscato/nasa/pvslib/pvslib&#45;gitlab__pvs7.0/ACCoRD&#45;&gt;/Users/mmoscato/nasa/pvslib/pvslib&#45;gitlab__pvs7.0/analysis -->
<g id="edge1" class="edge">
<title>/Users/mmoscato/nasa/pvslib/pvslib&#45;gitlab__pvs7.0/ACCoRD&#45;&gt;/Users/mmoscato/nasa/pvslib/pvslib&#45;gitlab__pvs7.0/analysis</title>
<path fill="none" stroke="#000000" d="M271.1695,-593.6526C271.1695,-593.6526 271.1695,-280.3104 271.1695,-280.3104"/>
<polygon fill="#000000" stroke="#000000" points="274.6696,-280.3104 271.1695,-270.3104 267.6696,-280.3105 274.6696,-280.3104"/>
</g>
<!-- /Users/mmoscato/nasa/pvslib/pvslib&#45;gitlab__pvs7.0/aviation -->
<g id="node3" class="node">
<title>/Users/mmoscato/nasa/pvslib/pvslib&#45;gitlab__pvs7.0/aviation</title>
<polygon fill="#fcfcd7" stroke="#000000" points="244.5968,-558 183.4032,-558 183.4032,-522 244.5968,-522 244.5968,-558"/>
<text text-anchor="middle" x="214" y="-535.8" font-family="Times,serif" font-size="14.00" fill="#000000">aviation</text>
</g>
<!-- /Users/mmoscato/nasa/pvslib/pvslib&#45;gitlab__pvs7.0/ACCoRD&#45;&gt;/Users/mmoscato/nasa/pvslib/pvslib&#45;gitlab__pvs7.0/aviation -->
<g id="edge2" class="edge">
<title>/Users/mmoscato/nasa/pvslib/pvslib&#45;gitlab__pvs7.0/ACCoRD&#45;&gt;/Users/mmoscato/nasa/pvslib/pvslib&#45;gitlab__pvs7.0/aviation</title>
<path fill="none" stroke="#000000" d="M236.4656,-593.8314C236.4656,-593.8314 236.4656,-568.4133 236.4656,-568.4133"/>
<polygon fill="#000000" stroke="#000000" points="239.9657,-568.4132 236.4656,-558.4133 232.9657,-568.4133 239.9657,-568.4132"/>
</g>
<!-- /Users/mmoscato/nasa/pvslib/pvslib&#45;gitlab__pvs7.0/ints -->
<g id="node4" class="node">
<title>/Users/mmoscato/nasa/pvslib/pvslib&#45;gitlab__pvs7.0/ints</title>
<polygon fill="#fcfcd7" stroke="#000000" points="230,-52 176,-52 176,-16 230,-16 230,-52"/>
<text text-anchor="middle" x="203" y="-29.8" font-family="Times,serif" font-size="14.00" fill="#000000">ints</text>
</g>
<!-- /Users/mmoscato/nasa/pvslib/pvslib&#45;gitlab__pvs7.0/ACCoRD&#45;&gt;/Users/mmoscato/nasa/pvslib/pvslib&#45;gitlab__pvs7.0/ints -->
<g id="edge3" class="edge">
<title>/Users/mmoscato/nasa/pvslib/pvslib&#45;gitlab__pvs7.0/ACCoRD&#45;&gt;/Users/mmoscato/nasa/pvslib/pvslib&#45;gitlab__pvs7.0/ints</title>
<path fill="none" stroke="#000000" d="M228.234,-621C171.9391,-621 69,-621 69,-621 69,-621 69,-21 69,-21 69,-21 165.8831,-21 165.8831,-21"/>
<polygon fill="#000000" stroke="#000000" points="165.8831,-24.5001 175.8831,-21 165.8831,-17.5001 165.8831,-24.5001"/>
</g>
<!-- /Users/mmoscato/nasa/pvslib/pvslib&#45;gitlab__pvs7.0/orders -->
<g id="node5" class="node">
<title>/Users/mmoscato/nasa/pvslib/pvslib&#45;gitlab__pvs7.0/orders</title>
<polygon fill="#fcfcd7" stroke="#000000" points="150,-196 96,-196 96,-160 150,-160 150,-196"/>
<text text-anchor="middle" x="123" y="-173.8" font-family="Times,serif" font-size="14.00" fill="#000000">orders</text>
</g>
<!-- /Users/mmoscato/nasa/pvslib/pvslib&#45;gitlab__pvs7.0/ACCoRD&#45;&gt;/Users/mmoscato/nasa/pvslib/pvslib&#45;gitlab__pvs7.0/orders -->
<g id="edge4" class="edge">
<title>/Users/mmoscato/nasa/pvslib/pvslib&#45;gitlab__pvs7.0/ACCoRD&#45;&gt;/Users/mmoscato/nasa/pvslib/pvslib&#45;gitlab__pvs7.0/orders</title>
<path fill="none" stroke="#000000" d="M228.1474,-612C181.5307,-612 106,-612 106,-612 106,-612 106,-206.0959 106,-206.0959"/>
<polygon fill="#000000" stroke="#000000" points="109.5001,-206.0959 106,-196.0959 102.5001,-206.0959 109.5001,-206.0959"/>
</g>
<!-- /Users/mmoscato/nasa/pvslib/pvslib&#45;gitlab__pvs7.0/reals -->
<g id="node6" class="node">
<title>/Users/mmoscato/nasa/pvslib/pvslib&#45;gitlab__pvs7.0/reals</title>
<polygon fill="#fcfcd7" stroke="#000000" points="298,-196 244,-196 244,-160 298,-160 298,-196"/>
<text text-anchor="middle" x="271" y="-173.8" font-family="Times,serif" font-size="14.00" fill="#000000">reals</text>
</g>
<!-- /Users/mmoscato/nasa/pvslib/pvslib&#45;gitlab__pvs7.0/ACCoRD&#45;&gt;/Users/mmoscato/nasa/pvslib/pvslib&#45;gitlab__pvs7.0/reals -->
<g id="edge5" class="edge">
<title>/Users/mmoscato/nasa/pvslib/pvslib&#45;gitlab__pvs7.0/ACCoRD&#45;&gt;/Users/mmoscato/nasa/pvslib/pvslib&#45;gitlab__pvs7.0/reals</title>
<path fill="none" stroke="#000000" d="M275.3606,-593.6793C275.3606,-562.8664 275.3606,-504 275.3606,-504 275.3606,-504 293.0965,-504 293.0965,-504 293.0965,-504 293.0965,-206.4612 293.0965,-206.4612"/>
<polygon fill="#000000" stroke="#000000" points="296.5966,-206.4612 293.0965,-196.4612 289.5966,-206.4613 296.5966,-206.4612"/>
</g>
<!-- /Users/mmoscato/nasa/pvslib/pvslib&#45;gitlab__pvs7.0/series -->
<g id="node7" class="node">
<title>/Users/mmoscato/nasa/pvslib/pvslib&#45;gitlab__pvs7.0/series</title>
<polygon fill="#fcfcd7" stroke="#000000" points="190,-342 136,-342 136,-306 190,-306 190,-342"/>
<text text-anchor="middle" x="163" y="-319.8" font-family="Times,serif" font-size="14.00" fill="#000000">series</text>
</g>
<!-- /Users/mmoscato/nasa/pvslib/pvslib&#45;gitlab__pvs7.0/ACCoRD&#45;&gt;/Users/mmoscato/nasa/pvslib/pvslib&#45;gitlab__pvs7.0/series -->
<g id="edge6" class="edge">
<title>/Users/mmoscato/nasa/pvslib/pvslib&#45;gitlab__pvs7.0/ACCoRD&#45;&gt;/Users/mmoscato/nasa/pvslib/pvslib&#45;gitlab__pvs7.0/series</title>
<path fill="none" stroke="#000000" d="M266.9784,-593.9843C266.9784,-530.9341 266.9784,-324 266.9784,-324 266.9784,-324 200.0477,-324 200.0477,-324"/>
<polygon fill="#000000" stroke="#000000" points="200.0477,-320.5001 190.0477,-324 200.0476,-327.5001 200.0477,-320.5001"/>
</g>
<!-- /Users/mmoscato/nasa/pvslib/pvslib&#45;gitlab__pvs7.0/structures -->
<g id="node8" class="node">
<title>/Users/mmoscato/nasa/pvslib/pvslib&#45;gitlab__pvs7.0/structures</title>
<polygon fill="#fcfcd7" stroke="#000000" points="238.429,-124 167.571,-124 167.571,-88 238.429,-88 238.429,-124"/>
<text text-anchor="middle" x="203" y="-101.8" font-family="Times,serif" font-size="14.00" fill="#000000">structures</text>
</g>
<!-- /Users/mmoscato/nasa/pvslib/pvslib&#45;gitlab__pvs7.0/ACCoRD&#45;&gt;/Users/mmoscato/nasa/pvslib/pvslib&#45;gitlab__pvs7.0/structures -->
<g id="edge7" class="edge">
<title>/Users/mmoscato/nasa/pvslib/pvslib&#45;gitlab__pvs7.0/ACCoRD&#45;&gt;/Users/mmoscato/nasa/pvslib/pvslib&#45;gitlab__pvs7.0/structures</title>
<path fill="none" stroke="#000000" d="M262.7872,-593.7078C262.7872,-549.034 262.7872,-438 262.7872,-438 262.7872,-438 213.7487,-438 213.7487,-438 213.7487,-438 213.7487,-134.3227 213.7487,-134.3227"/>
<polygon fill="#000000" stroke="#000000" points="217.2488,-134.3226 213.7487,-124.3227 210.2488,-134.3227 217.2488,-134.3226"/>
</g>
<!-- /Users/mmoscato/nasa/pvslib/pvslib&#45;gitlab__pvs7.0/trig -->
<g id="node9" class="node">
<title>/Users/mmoscato/nasa/pvslib/pvslib&#45;gitlab__pvs7.0/trig</title>
<polygon fill="#fcfcd7" stroke="#000000" points="202,-414 148,-414 148,-378 202,-378 202,-414"/>
<text text-anchor="middle" x="175" y="-391.8" font-family="Times,serif" font-size="14.00" fill="#000000">trig</text>
</g>
<!-- /Users/mmoscato/nasa/pvslib/pvslib&#45;gitlab__pvs7.0/ACCoRD&#45;&gt;/Users/mmoscato/nasa/pvslib/pvslib&#45;gitlab__pvs7.0/trig -->
<g id="edge8" class="edge">
<title>/Users/mmoscato/nasa/pvslib/pvslib&#45;gitlab__pvs7.0/ACCoRD&#45;&gt;/Users/mmoscato/nasa/pvslib/pvslib&#45;gitlab__pvs7.0/trig</title>
<path fill="none" stroke="#000000" d="M228.2428,-603C200.1438,-603 165.7258,-603 165.7258,-603 165.7258,-603 165.7258,-424.0078 165.7258,-424.0078"/>
<polygon fill="#000000" stroke="#000000" points="169.2259,-424.0077 165.7258,-414.0078 162.2259,-424.0078 169.2259,-424.0077"/>
</g>
<!-- /Users/mmoscato/nasa/pvslib/pvslib&#45;gitlab__pvs7.0/vect_analysis -->
<g id="node10" class="node">
<title>/Users/mmoscato/nasa/pvslib/pvslib&#45;gitlab__pvs7.0/vect_analysis</title>
<polygon fill="#fcfcd7" stroke="#000000" points="374.9219,-558 283.0781,-558 283.0781,-522 374.9219,-522 374.9219,-558"/>
<text text-anchor="middle" x="329" y="-535.8" font-family="Times,serif" font-size="14.00" fill="#000000">vect_analysis</text>
</g>
<!-- /Users/mmoscato/nasa/pvslib/pvslib&#45;gitlab__pvs7.0/ACCoRD&#45;&gt;/Users/mmoscato/nasa/pvslib/pvslib&#45;gitlab__pvs7.0/vect_analysis -->
<g id="edge9" class="edge">
<title>/Users/mmoscato/nasa/pvslib/pvslib&#45;gitlab__pvs7.0/ACCoRD&#45;&gt;/Users/mmoscato/nasa/pvslib/pvslib&#45;gitlab__pvs7.0/vect_analysis</title>
<path fill="none" stroke="#000000" d="M291.4534,-593.8314C291.4534,-593.8314 291.4534,-568.4133 291.4534,-568.4133"/>
<polygon fill="#000000" stroke="#000000" points="294.9535,-568.4132 291.4534,-558.4133 287.9535,-568.4133 294.9535,-568.4132"/>
</g>
<!-- /Users/mmoscato/nasa/pvslib/pvslib&#45;gitlab__pvs7.0/vectors -->
<g id="node11" class="node">
<title>/Users/mmoscato/nasa/pvslib/pvslib&#45;gitlab__pvs7.0/vectors</title>
<polygon fill="#fcfcd7" stroke="#000000" points="250.4294,-486 193.5706,-486 193.5706,-450 250.4294,-450 250.4294,-486"/>
<text text-anchor="middle" x="222" y="-463.8" font-family="Times,serif" font-size="14.00" fill="#000000">vectors</text>
</g>
<!-- /Users/mmoscato/nasa/pvslib/pvslib&#45;gitlab__pvs7.0/ACCoRD&#45;&gt;/Users/mmoscato/nasa/pvslib/pvslib&#45;gitlab__pvs7.0/vectors -->
<g id="edge10" class="edge">
<title>/Users/mmoscato/nasa/pvslib/pvslib&#45;gitlab__pvs7.0/ACCoRD&#45;&gt;/Users/mmoscato/nasa/pvslib/pvslib&#45;gitlab__pvs7.0/vectors</title>
<path fill="none" stroke="#000000" d="M258.5961,-593.9282C258.5961,-557.3519 258.5961,-478 258.5961,-478 258.5961,-478 257.7839,-478 257.7839,-478"/>
<polygon fill="#000000" stroke="#000000" points="260.4743,-474.5001 250.4743,-478 260.4742,-481.5001 260.4743,-474.5001"/>
</g>
<!-- /Users/mmoscato/pvs/7.1&#45;0&#45;g3fb4f25&#45;ix86&#45;MacOSX&#45;allegro/lib/finite_sets -->
<g id="node12" class="node">
<title>/Users/mmoscato/pvs/7.1&#45;0&#45;g3fb4f25&#45;ix86&#45;MacOSX&#45;allegro/lib/finite_sets</title>
<polygon fill="#fcfcd7" stroke="#000000" points="491.2796,-196 418.7204,-196 418.7204,-160 491.2796,-160 491.2796,-196"/>
<text text-anchor="middle" x="455" y="-173.8" font-family="Times,serif" font-size="14.00" fill="#000000">finite_sets</text>
</g>
<!-- /Users/mmoscato/nasa/pvslib/pvslib&#45;gitlab__pvs7.0/ACCoRD&#45;&gt;/Users/mmoscato/pvs/7.1&#45;0&#45;g3fb4f25&#45;ix86&#45;MacOSX&#45;allegro/lib/finite_sets -->
<g id="edge11" class="edge">
<title>/Users/mmoscato/nasa/pvslib/pvslib&#45;gitlab__pvs7.0/ACCoRD&#45;&gt;/Users/mmoscato/pvs/7.1&#45;0&#45;g3fb4f25&#45;ix86&#45;MacOSX&#45;allegro/lib/finite_sets</title>
<path fill="none" stroke="#000000" d="M300.0465,-612C362.0476,-612 482.2922,-612 482.2922,-612 482.2922,-612 482.2922,-206.0959 482.2922,-206.0959"/>
<polygon fill="#000000" stroke="#000000" points="485.7923,-206.0959 482.2922,-196.0959 478.7923,-206.0959 485.7923,-206.0959"/>
</g>
<!-- /Users/mmoscato/nasa/pvslib/pvslib&#45;gitlab__pvs7.0/analysis&#45;&gt;/Users/mmoscato/nasa/pvslib/pvslib&#45;gitlab__pvs7.0/ints -->
<g id="edge12" class="edge">
<title>/Users/mmoscato/nasa/pvslib/pvslib&#45;gitlab__pvs7.0/analysis&#45;&gt;/Users/mmoscato/nasa/pvslib/pvslib&#45;gitlab__pvs7.0/ints</title>
<path fill="none" stroke="#000000" d="M218.0314,-241C192.9841,-241 161.8574,-241 161.8574,-241 161.8574,-241 161.8574,-46 161.8574,-46 161.8574,-46 165.7864,-46 165.7864,-46"/>
<polygon fill="#000000" stroke="#000000" points="165.7865,-49.5001 175.7864,-46 165.7864,-42.5001 165.7865,-49.5001"/>
</g>
<!-- /Users/mmoscato/nasa/pvslib/pvslib&#45;gitlab__pvs7.0/analysis&#45;&gt;/Users/mmoscato/nasa/pvslib/pvslib&#45;gitlab__pvs7.0/orders -->
<g id="edge13" class="edge">
<title>/Users/mmoscato/nasa/pvslib/pvslib&#45;gitlab__pvs7.0/analysis&#45;&gt;/Users/mmoscato/nasa/pvslib/pvslib&#45;gitlab__pvs7.0/orders</title>
<path fill="none" stroke="#000000" d="M218.1773,-248C187.6191,-248 145.3333,-248 145.3333,-248 145.3333,-248 145.3333,-206.0267 145.3333,-206.0267"/>
<polygon fill="#000000" stroke="#000000" points="148.8334,-206.0267 145.3333,-196.0267 141.8334,-206.0268 148.8334,-206.0267"/>
</g>
<!-- /Users/mmoscato/nasa/pvslib/pvslib&#45;gitlab__pvs7.0/analysis&#45;&gt;/Users/mmoscato/nasa/pvslib/pvslib&#45;gitlab__pvs7.0/reals -->
<g id="edge14" class="edge">
<title>/Users/mmoscato/nasa/pvslib/pvslib&#45;gitlab__pvs7.0/analysis&#45;&gt;/Users/mmoscato/nasa/pvslib/pvslib&#45;gitlab__pvs7.0/reals</title>
<path fill="none" stroke="#000000" d="M261.7759,-233.7079C261.7759,-233.7079 261.7759,-206.0817 261.7759,-206.0817"/>
<polygon fill="#000000" stroke="#000000" points="265.276,-206.0817 261.7759,-196.0817 258.276,-206.0818 265.276,-206.0817"/>
</g>
<!-- /Users/mmoscato/nasa/pvslib/pvslib&#45;gitlab__pvs7.0/analysis&#45;&gt;/Users/mmoscato/nasa/pvslib/pvslib&#45;gitlab__pvs7.0/structures -->
<g id="edge15" class="edge">
<title>/Users/mmoscato/nasa/pvslib/pvslib&#45;gitlab__pvs7.0/analysis&#45;&gt;/Users/mmoscato/nasa/pvslib/pvslib&#45;gitlab__pvs7.0/structures</title>
<path fill="none" stroke="#000000" d="M225.0368,-233.8042C225.0368,-233.8042 225.0368,-134.4251 225.0368,-134.4251"/>
<polygon fill="#000000" stroke="#000000" points="228.5369,-134.4251 225.0368,-124.4251 221.5369,-134.4251 228.5369,-134.4251"/>
</g>
<!-- /Users/mmoscato/nasa/pvslib/pvslib&#45;gitlab__pvs7.0/analysis&#45;&gt;/Users/mmoscato/pvs/7.1&#45;0&#45;g3fb4f25&#45;ix86&#45;MacOSX&#45;allegro/lib/finite_sets -->
<g id="edge16" class="edge">
<title>/Users/mmoscato/nasa/pvslib/pvslib&#45;gitlab__pvs7.0/analysis&#45;&gt;/Users/mmoscato/pvs/7.1&#45;0&#45;g3fb4f25&#45;ix86&#45;MacOSX&#45;allegro/lib/finite_sets</title>
<path fill="none" stroke="#000000" d="M279.721,-246C330.8161,-246 427.7078,-246 427.7078,-246 427.7078,-246 427.7078,-206.2228 427.7078,-206.2228"/>
<polygon fill="#000000" stroke="#000000" points="431.2079,-206.2227 427.7078,-196.2228 424.2079,-206.2228 431.2079,-206.2227"/>
</g>
<!-- /Users/mmoscato/nasa/pvslib/pvslib&#45;gitlab__pvs7.0/aviation&#45;&gt;/Users/mmoscato/nasa/pvslib/pvslib&#45;gitlab__pvs7.0/analysis -->
<g id="edge17" class="edge">
<title>/Users/mmoscato/nasa/pvslib/pvslib&#45;gitlab__pvs7.0/aviation&#45;&gt;/Users/mmoscato/nasa/pvslib/pvslib&#45;gitlab__pvs7.0/analysis</title>
<path fill="none" stroke="#000000" d="M244.6241,-540C250.2594,-540 254.405,-540 254.405,-540 254.405,-540 254.405,-280.0157 254.405,-280.0157"/>
<polygon fill="#000000" stroke="#000000" points="257.9051,-280.0157 254.405,-270.0157 250.9051,-280.0157 257.9051,-280.0157"/>
</g>
<!-- /Users/mmoscato/nasa/pvslib/pvslib&#45;gitlab__pvs7.0/aviation&#45;&gt;/Users/mmoscato/nasa/pvslib/pvslib&#45;gitlab__pvs7.0/ints -->
<g id="edge18" class="edge">
<title>/Users/mmoscato/nasa/pvslib/pvslib&#45;gitlab__pvs7.0/aviation&#45;&gt;/Users/mmoscato/nasa/pvslib/pvslib&#45;gitlab__pvs7.0/ints</title>
<path fill="none" stroke="#000000" d="M183.1395,-549C143.0138,-549 78,-549 78,-549 78,-549 78,-28 78,-28 78,-28 165.8769,-28 165.8769,-28"/>
<polygon fill="#000000" stroke="#000000" points="165.8769,-31.5001 175.8769,-28 165.8768,-24.5001 165.8769,-31.5001"/>
</g>
<!-- /Users/mmoscato/nasa/pvslib/pvslib&#45;gitlab__pvs7.0/aviation&#45;&gt;/Users/mmoscato/nasa/pvslib/pvslib&#45;gitlab__pvs7.0/orders -->
<g id="edge19" class="edge">
<title>/Users/mmoscato/nasa/pvslib/pvslib&#45;gitlab__pvs7.0/aviation&#45;&gt;/Users/mmoscato/nasa/pvslib/pvslib&#45;gitlab__pvs7.0/orders</title>
<path fill="none" stroke="#000000" d="M183.2611,-540C154.5209,-540 116,-540 116,-540 116,-540 116,-206.4493 116,-206.4493"/>
<polygon fill="#000000" stroke="#000000" points="119.5001,-206.4493 116,-196.4493 112.5001,-206.4493 119.5001,-206.4493"/>
</g>
<!-- /Users/mmoscato/nasa/pvslib/pvslib&#45;gitlab__pvs7.0/aviation&#45;&gt;/Users/mmoscato/nasa/pvslib/pvslib&#45;gitlab__pvs7.0/reals -->
<g id="edge20" class="edge">
<title>/Users/mmoscato/nasa/pvslib/pvslib&#45;gitlab__pvs7.0/aviation&#45;&gt;/Users/mmoscato/nasa/pvslib/pvslib&#45;gitlab__pvs7.0/reals</title>
<path fill="none" stroke="#000000" d="M219.1672,-521.9561C219.1672,-509.4367 219.1672,-495 219.1672,-495 219.1672,-495 290.6448,-495 290.6448,-495 290.6448,-495 290.6448,-206.4134 290.6448,-206.4134"/>
<polygon fill="#000000" stroke="#000000" points="294.1449,-206.4134 290.6448,-196.4134 287.1449,-206.4135 294.1449,-206.4134"/>
</g>
<!-- /Users/mmoscato/nasa/pvslib/pvslib&#45;gitlab__pvs7.0/aviation&#45;&gt;/Users/mmoscato/nasa/pvslib/pvslib&#45;gitlab__pvs7.0/series -->
<g id="edge21" class="edge">
<title>/Users/mmoscato/nasa/pvslib/pvslib&#45;gitlab__pvs7.0/aviation&#45;&gt;/Users/mmoscato/nasa/pvslib/pvslib&#45;gitlab__pvs7.0/series</title>
<path fill="none" stroke="#000000" d="M183.0477,-531C163.5332,-531 142,-531 142,-531 142,-531 142,-352.0078 142,-352.0078"/>
<polygon fill="#000000" stroke="#000000" points="145.5001,-352.0077 142,-342.0078 138.5001,-352.0078 145.5001,-352.0077"/>
</g>
<!-- /Users/mmoscato/nasa/pvslib/pvslib&#45;gitlab__pvs7.0/aviation&#45;&gt;/Users/mmoscato/nasa/pvslib/pvslib&#45;gitlab__pvs7.0/structures -->
<g id="edge22" class="edge">
<title>/Users/mmoscato/nasa/pvslib/pvslib&#45;gitlab__pvs7.0/aviation&#45;&gt;/Users/mmoscato/nasa/pvslib/pvslib&#45;gitlab__pvs7.0/structures</title>
<path fill="none" stroke="#000000" d="M190.3413,-521.9364C190.3413,-489.7915 190.3413,-426 190.3413,-426 190.3413,-426 209.0492,-426 209.0492,-426 209.0492,-426 209.0492,-134.1215 209.0492,-134.1215"/>
<polygon fill="#000000" stroke="#000000" points="212.5493,-134.1214 209.0492,-124.1215 205.5493,-134.1215 212.5493,-134.1214"/>
</g>
<!-- /Users/mmoscato/nasa/pvslib/pvslib&#45;gitlab__pvs7.0/aviation&#45;&gt;/Users/mmoscato/nasa/pvslib/pvslib&#45;gitlab__pvs7.0/trig -->
<g id="edge23" class="edge">
<title>/Users/mmoscato/nasa/pvslib/pvslib&#45;gitlab__pvs7.0/aviation&#45;&gt;/Users/mmoscato/nasa/pvslib/pvslib&#45;gitlab__pvs7.0/trig</title>
<path fill="none" stroke="#000000" d="M186.8965,-521.7623C186.8965,-521.7623 186.8965,-424.0896 186.8965,-424.0896"/>
<polygon fill="#000000" stroke="#000000" points="190.3966,-424.0896 186.8965,-414.0896 183.3966,-424.0897 190.3966,-424.0896"/>
</g>
<!-- /Users/mmoscato/nasa/pvslib/pvslib&#45;gitlab__pvs7.0/aviation&#45;&gt;/Users/mmoscato/nasa/pvslib/pvslib&#45;gitlab__pvs7.0/vectors -->
<g id="edge24" class="edge">
<title>/Users/mmoscato/nasa/pvslib/pvslib&#45;gitlab__pvs7.0/aviation&#45;&gt;/Users/mmoscato/nasa/pvslib/pvslib&#45;gitlab__pvs7.0/vectors</title>
<path fill="none" stroke="#000000" d="M206.4767,-521.8314C206.4767,-521.8314 206.4767,-496.4133 206.4767,-496.4133"/>
<polygon fill="#000000" stroke="#000000" points="209.9768,-496.4132 206.4767,-486.4133 202.9768,-496.4133 209.9768,-496.4132"/>
</g>
<!-- /Users/mmoscato/nasa/pvslib/pvslib&#45;gitlab__pvs7.0/aviation&#45;&gt;/Users/mmoscato/pvs/7.1&#45;0&#45;g3fb4f25&#45;ix86&#45;MacOSX&#45;allegro/lib/finite_sets -->
<g id="edge25" class="edge">
<title>/Users/mmoscato/nasa/pvslib/pvslib&#45;gitlab__pvs7.0/aviation&#45;&gt;/Users/mmoscato/pvs/7.1&#45;0&#45;g3fb4f25&#45;ix86&#45;MacOSX&#45;allegro/lib/finite_sets</title>
<path fill="none" stroke="#000000" d="M231.8578,-521.8408C231.8578,-516.9567 231.8578,-513 231.8578,-513 231.8578,-513 464.0974,-513 464.0974,-513 464.0974,-513 464.0974,-206.0111 464.0974,-206.0111"/>
<polygon fill="#000000" stroke="#000000" points="467.5975,-206.011 464.0974,-196.0111 460.5975,-206.0111 467.5975,-206.011"/>
</g>
<!-- /Users/mmoscato/nasa/pvslib/pvslib&#45;gitlab__pvs7.0/reals&#45;&gt;/Users/mmoscato/nasa/pvslib/pvslib&#45;gitlab__pvs7.0/ints -->
<g id="edge26" class="edge">
<title>/Users/mmoscato/nasa/pvslib/pvslib&#45;gitlab__pvs7.0/reals&#45;&gt;/Users/mmoscato/nasa/pvslib/pvslib&#45;gitlab__pvs7.0/ints</title>
<path fill="none" stroke="#000000" d="M271,-159.9589C271,-122.5524 271,-40 271,-40 271,-40 240.2664,-40 240.2664,-40"/>
<polygon fill="#000000" stroke="#000000" points="240.2664,-36.5001 230.2664,-40 240.2664,-43.5001 240.2664,-36.5001"/>
</g>
<!-- /Users/mmoscato/nasa/pvslib/pvslib&#45;gitlab__pvs7.0/reals&#45;&gt;/Users/mmoscato/nasa/pvslib/pvslib&#45;gitlab__pvs7.0/structures -->
<g id="edge27" class="edge">
<title>/Users/mmoscato/nasa/pvslib/pvslib&#45;gitlab__pvs7.0/reals&#45;&gt;/Users/mmoscato/nasa/pvslib/pvslib&#45;gitlab__pvs7.0/structures</title>
<path fill="none" stroke="#000000" d="M243.653,-166C236.9341,-166 231.6253,-166 231.6253,-166 231.6253,-166 231.6253,-134.002 231.6253,-134.002"/>
<polygon fill="#000000" stroke="#000000" points="235.1254,-134.0019 231.6253,-124.002 228.1254,-134.002 235.1254,-134.0019"/>
</g>
<!-- /Users/mmoscato/nasa/pvslib/pvslib&#45;gitlab__pvs7.0/series&#45;&gt;/Users/mmoscato/nasa/pvslib/pvslib&#45;gitlab__pvs7.0/analysis -->
<g id="edge28" class="edge">
<title>/Users/mmoscato/nasa/pvslib/pvslib&#45;gitlab__pvs7.0/series&#45;&gt;/Users/mmoscato/nasa/pvslib/pvslib&#45;gitlab__pvs7.0/analysis</title>
<path fill="none" stroke="#000000" d="M184.4465,-305.8711C184.4465,-285.4276 184.4465,-255 184.4465,-255 184.4465,-255 208.2357,-255 208.2357,-255"/>
<polygon fill="#000000" stroke="#000000" points="208.2358,-258.5001 218.2357,-255 208.2357,-251.5001 208.2358,-258.5001"/>
</g>
<!-- /Users/mmoscato/nasa/pvslib/pvslib&#45;gitlab__pvs7.0/series&#45;&gt;/Users/mmoscato/nasa/pvslib/pvslib&#45;gitlab__pvs7.0/ints -->
<g id="edge29" class="edge">
<title>/Users/mmoscato/nasa/pvslib/pvslib&#45;gitlab__pvs7.0/series&#45;&gt;/Users/mmoscato/nasa/pvslib/pvslib&#45;gitlab__pvs7.0/ints</title>
<path fill="none" stroke="#000000" d="M155.9287,-305.8025C155.9287,-243.1207 155.9287,-40 155.9287,-40 155.9287,-40 165.8912,-40 165.8912,-40"/>
<polygon fill="#000000" stroke="#000000" points="165.8912,-43.5001 175.8912,-40 165.8911,-36.5001 165.8912,-43.5001"/>
</g>
<!-- /Users/mmoscato/nasa/pvslib/pvslib&#45;gitlab__pvs7.0/series&#45;&gt;/Users/mmoscato/nasa/pvslib/pvslib&#45;gitlab__pvs7.0/orders -->
<g id="edge30" class="edge">
<title>/Users/mmoscato/nasa/pvslib/pvslib&#45;gitlab__pvs7.0/series&#45;&gt;/Users/mmoscato/nasa/pvslib/pvslib&#45;gitlab__pvs7.0/orders</title>
<path fill="none" stroke="#000000" d="M140.6667,-305.8042C140.6667,-305.8042 140.6667,-206.4251 140.6667,-206.4251"/>
<polygon fill="#000000" stroke="#000000" points="144.1668,-206.4251 140.6667,-196.4251 137.1668,-206.4251 144.1668,-206.4251"/>
</g>
<!-- /Users/mmoscato/nasa/pvslib/pvslib&#45;gitlab__pvs7.0/series&#45;&gt;/Users/mmoscato/nasa/pvslib/pvslib&#45;gitlab__pvs7.0/reals -->
<g id="edge31" class="edge">
<title>/Users/mmoscato/nasa/pvslib/pvslib&#45;gitlab__pvs7.0/series&#45;&gt;/Users/mmoscato/nasa/pvslib/pvslib&#45;gitlab__pvs7.0/reals</title>
<path fill="none" stroke="#000000" d="M178.8931,-305.9667C178.8931,-265.7035 178.8931,-172 178.8931,-172 178.8931,-172 233.8631,-172 233.8631,-172"/>
<polygon fill="#000000" stroke="#000000" points="233.8631,-175.5001 243.8631,-172 233.863,-168.5001 233.8631,-175.5001"/>
</g>
<!-- /Users/mmoscato/nasa/pvslib/pvslib&#45;gitlab__pvs7.0/series&#45;&gt;/Users/mmoscato/nasa/pvslib/pvslib&#45;gitlab__pvs7.0/structures -->
<g id="edge32" class="edge">
<title>/Users/mmoscato/nasa/pvslib/pvslib&#45;gitlab__pvs7.0/series&#45;&gt;/Users/mmoscato/nasa/pvslib/pvslib&#45;gitlab__pvs7.0/structures</title>
<path fill="none" stroke="#000000" d="M173.3396,-305.7884C173.3396,-305.7884 173.3396,-134.0064 173.3396,-134.0064"/>
<polygon fill="#000000" stroke="#000000" points="176.8397,-134.0064 173.3396,-124.0064 169.8397,-134.0065 176.8397,-134.0064"/>
</g>
<!-- /Users/mmoscato/nasa/pvslib/pvslib&#45;gitlab__pvs7.0/series&#45;&gt;/Users/mmoscato/pvs/7.1&#45;0&#45;g3fb4f25&#45;ix86&#45;MacOSX&#45;allegro/lib/finite_sets -->
<g id="edge33" class="edge">
<title>/Users/mmoscato/nasa/pvslib/pvslib&#45;gitlab__pvs7.0/series&#45;&gt;/Users/mmoscato/pvs/7.1&#45;0&#45;g3fb4f25&#45;ix86&#45;MacOSX&#45;allegro/lib/finite_sets</title>
<path fill="none" stroke="#000000" d="M190.2545,-315C259.5103,-315 436.8052,-315 436.8052,-315 436.8052,-315 436.8052,-206.1925 436.8052,-206.1925"/>
<polygon fill="#000000" stroke="#000000" points="440.3053,-206.1925 436.8052,-196.1925 433.3053,-206.1926 440.3053,-206.1925"/>
</g>
<!-- /Users/mmoscato/nasa/pvslib/pvslib&#45;gitlab__pvs7.0/structures&#45;&gt;/Users/mmoscato/nasa/pvslib/pvslib&#45;gitlab__pvs7.0/ints -->
<g id="edge34" class="edge">
<title>/Users/mmoscato/nasa/pvslib/pvslib&#45;gitlab__pvs7.0/structures&#45;&gt;/Users/mmoscato/nasa/pvslib/pvslib&#45;gitlab__pvs7.0/ints</title>
<path fill="none" stroke="#000000" d="M203,-87.8314C203,-87.8314 203,-62.4133 203,-62.4133"/>
<polygon fill="#000000" stroke="#000000" points="206.5001,-62.4132 203,-52.4133 199.5001,-62.4133 206.5001,-62.4132"/>
</g>
<!-- /Users/mmoscato/nasa/pvslib/pvslib&#45;gitlab__pvs7.0/trig&#45;&gt;/Users/mmoscato/nasa/pvslib/pvslib&#45;gitlab__pvs7.0/analysis -->
<g id="edge35" class="edge">
<title>/Users/mmoscato/nasa/pvslib/pvslib&#45;gitlab__pvs7.0/trig&#45;&gt;/Users/mmoscato/nasa/pvslib/pvslib&#45;gitlab__pvs7.0/analysis</title>
<path fill="none" stroke="#000000" d="M199,-377.9282C199,-341.3519 199,-262 199,-262 199,-262 208.1883,-262 208.1883,-262"/>
<polygon fill="#000000" stroke="#000000" points="208.1883,-265.5001 218.1883,-262 208.1883,-258.5001 208.1883,-265.5001"/>
</g>
<!-- /Users/mmoscato/nasa/pvslib/pvslib&#45;gitlab__pvs7.0/trig&#45;&gt;/Users/mmoscato/nasa/pvslib/pvslib&#45;gitlab__pvs7.0/ints -->
<g id="edge36" class="edge">
<title>/Users/mmoscato/nasa/pvslib/pvslib&#45;gitlab__pvs7.0/trig&#45;&gt;/Users/mmoscato/nasa/pvslib/pvslib&#45;gitlab__pvs7.0/ints</title>
<path fill="none" stroke="#000000" d="M147.6386,-402C121.806,-402 87,-402 87,-402 87,-402 87,-34 87,-34 87,-34 165.8032,-34 165.8032,-34"/>
<polygon fill="#000000" stroke="#000000" points="165.8032,-37.5001 175.8032,-34 165.8031,-30.5001 165.8032,-37.5001"/>
</g>
<!-- /Users/mmoscato/nasa/pvslib/pvslib&#45;gitlab__pvs7.0/trig&#45;&gt;/Users/mmoscato/nasa/pvslib/pvslib&#45;gitlab__pvs7.0/orders -->
<g id="edge37" class="edge">
<title>/Users/mmoscato/nasa/pvslib/pvslib&#45;gitlab__pvs7.0/trig&#45;&gt;/Users/mmoscato/nasa/pvslib/pvslib&#45;gitlab__pvs7.0/orders</title>
<path fill="none" stroke="#000000" d="M147.9203,-390C136.5879,-390 126,-390 126,-390 126,-390 126,-206.075 126,-206.075"/>
<polygon fill="#000000" stroke="#000000" points="129.5001,-206.075 126,-196.075 122.5001,-206.075 129.5001,-206.075"/>
</g>
<!-- /Users/mmoscato/nasa/pvslib/pvslib&#45;gitlab__pvs7.0/trig&#45;&gt;/Users/mmoscato/nasa/pvslib/pvslib&#45;gitlab__pvs7.0/reals -->
<g id="edge38" class="edge">
<title>/Users/mmoscato/nasa/pvslib/pvslib&#45;gitlab__pvs7.0/trig&#45;&gt;/Users/mmoscato/nasa/pvslib/pvslib&#45;gitlab__pvs7.0/reals</title>
<path fill="none" stroke="#000000" d="M196,-377.7884C196,-325.3943 196,-178 196,-178 196,-178 233.9233,-178 233.9233,-178"/>
<polygon fill="#000000" stroke="#000000" points="233.9233,-181.5001 243.9233,-178 233.9232,-174.5001 233.9233,-181.5001"/>
</g>
<!-- /Users/mmoscato/nasa/pvslib/pvslib&#45;gitlab__pvs7.0/trig&#45;&gt;/Users/mmoscato/nasa/pvslib/pvslib&#45;gitlab__pvs7.0/series -->
<g id="edge39" class="edge">
<title>/Users/mmoscato/nasa/pvslib/pvslib&#45;gitlab__pvs7.0/trig&#45;&gt;/Users/mmoscato/nasa/pvslib/pvslib&#45;gitlab__pvs7.0/series</title>
<path fill="none" stroke="#000000" d="M169,-377.8314C169,-377.8314 169,-352.4133 169,-352.4133"/>
<polygon fill="#000000" stroke="#000000" points="172.5001,-352.4132 169,-342.4133 165.5001,-352.4133 172.5001,-352.4132"/>
</g>
<!-- /Users/mmoscato/nasa/pvslib/pvslib&#45;gitlab__pvs7.0/trig&#45;&gt;/Users/mmoscato/nasa/pvslib/pvslib&#45;gitlab__pvs7.0/structures -->
<g id="edge40" class="edge">
<title>/Users/mmoscato/nasa/pvslib/pvslib&#45;gitlab__pvs7.0/trig&#45;&gt;/Users/mmoscato/nasa/pvslib/pvslib&#45;gitlab__pvs7.0/structures</title>
<path fill="none" stroke="#000000" d="M193,-377.8592C193,-377.8592 193,-134.1339 193,-134.1339"/>
<polygon fill="#000000" stroke="#000000" points="196.5001,-134.1339 193,-124.1339 189.5001,-134.134 196.5001,-134.1339"/>
</g>
<!-- /Users/mmoscato/nasa/pvslib/pvslib&#45;gitlab__pvs7.0/trig&#45;&gt;/Users/mmoscato/pvs/7.1&#45;0&#45;g3fb4f25&#45;ix86&#45;MacOSX&#45;allegro/lib/finite_sets -->
<g id="edge41" class="edge">
<title>/Users/mmoscato/nasa/pvslib/pvslib&#45;gitlab__pvs7.0/trig&#45;&gt;/Users/mmoscato/pvs/7.1&#45;0&#45;g3fb4f25&#45;ix86&#45;MacOSX&#45;allegro/lib/finite_sets</title>
<path fill="none" stroke="#000000" d="M202.2155,-396C270.9127,-396 445.9026,-396 445.9026,-396 445.9026,-396 445.9026,-206.2116 445.9026,-206.2116"/>
<polygon fill="#000000" stroke="#000000" points="449.4027,-206.2116 445.9026,-196.2116 442.4027,-206.2116 449.4027,-206.2116"/>
</g>
<!-- /Users/mmoscato/nasa/pvslib/pvslib&#45;gitlab__pvs7.0/vect_analysis&#45;&gt;/Users/mmoscato/nasa/pvslib/pvslib&#45;gitlab__pvs7.0/analysis -->
<g id="edge42" class="edge">
<title>/Users/mmoscato/nasa/pvslib/pvslib&#45;gitlab__pvs7.0/vect_analysis&#45;&gt;/Users/mmoscato/nasa/pvslib/pvslib&#45;gitlab__pvs7.0/analysis</title>
<path fill="none" stroke="#000000" d="M288.193,-521.9306C288.193,-459.6903 288.193,-258 288.193,-258 288.193,-258 287.3619,-258 287.3619,-258"/>
<polygon fill="#000000" stroke="#000000" points="289.8812,-254.5001 279.8812,-258 289.8812,-261.5001 289.8812,-254.5001"/>
</g>
<!-- /Users/mmoscato/nasa/pvslib/pvslib&#45;gitlab__pvs7.0/vect_analysis&#45;&gt;/Users/mmoscato/nasa/pvslib/pvslib&#45;gitlab__pvs7.0/reals -->
<g id="edge43" class="edge">
<title>/Users/mmoscato/nasa/pvslib/pvslib&#45;gitlab__pvs7.0/vect_analysis&#45;&gt;/Users/mmoscato/nasa/pvslib/pvslib&#45;gitlab__pvs7.0/reals</title>
<path fill="none" stroke="#000000" d="M295.5483,-521.5507C295.5483,-521.5507 295.5483,-206.4122 295.5483,-206.4122"/>
<polygon fill="#000000" stroke="#000000" points="299.0484,-206.4121 295.5483,-196.4122 292.0484,-206.4122 299.0484,-206.4121"/>
</g>
<!-- /Users/mmoscato/nasa/pvslib/pvslib&#45;gitlab__pvs7.0/vect_analysis&#45;&gt;/Users/mmoscato/nasa/pvslib/pvslib&#45;gitlab__pvs7.0/vectors -->
<g id="edge44" class="edge">
<title>/Users/mmoscato/nasa/pvslib/pvslib&#45;gitlab__pvs7.0/vect_analysis&#45;&gt;/Users/mmoscato/nasa/pvslib/pvslib&#45;gitlab__pvs7.0/vectors</title>
<path fill="none" stroke="#000000" d="M285.7413,-521.8711C285.7413,-501.4276 285.7413,-471 285.7413,-471 285.7413,-471 260.5148,-471 260.5148,-471"/>
<polygon fill="#000000" stroke="#000000" points="260.5149,-467.5001 250.5148,-471 260.5148,-474.5001 260.5149,-467.5001"/>
</g>
<!-- /Users/mmoscato/nasa/pvslib/pvslib&#45;gitlab__pvs7.0/vect_analysis&#45;&gt;/Users/mmoscato/pvs/7.1&#45;0&#45;g3fb4f25&#45;ix86&#45;MacOSX&#45;allegro/lib/finite_sets -->
<g id="edge45" class="edge">
<title>/Users/mmoscato/nasa/pvslib/pvslib&#45;gitlab__pvs7.0/vect_analysis&#45;&gt;/Users/mmoscato/pvs/7.1&#45;0&#45;g3fb4f25&#45;ix86&#45;MacOSX&#45;allegro/lib/finite_sets</title>
<path fill="none" stroke="#000000" d="M375.0206,-540C417.2202,-540 473.1948,-540 473.1948,-540 473.1948,-540 473.1948,-206.4493 473.1948,-206.4493"/>
<polygon fill="#000000" stroke="#000000" points="476.6949,-206.4493 473.1948,-196.4493 469.6949,-206.4493 476.6949,-206.4493"/>
</g>
<!-- /Users/mmoscato/nasa/pvslib/pvslib&#45;gitlab__pvs7.0/vectors&#45;&gt;/Users/mmoscato/nasa/pvslib/pvslib&#45;gitlab__pvs7.0/analysis -->
<g id="edge46" class="edge">
<title>/Users/mmoscato/nasa/pvslib/pvslib&#45;gitlab__pvs7.0/vectors&#45;&gt;/Users/mmoscato/nasa/pvslib/pvslib&#45;gitlab__pvs7.0/analysis</title>
<path fill="none" stroke="#000000" d="M234.3311,-449.9555C234.3311,-449.9555 234.3311,-280.1451 234.3311,-280.1451"/>
<polygon fill="#000000" stroke="#000000" points="237.8312,-280.145 234.3311,-270.1451 230.8312,-280.1451 237.8312,-280.145"/>
</g>
<!-- /Users/mmoscato/nasa/pvslib/pvslib&#45;gitlab__pvs7.0/vectors&#45;&gt;/Users/mmoscato/nasa/pvslib/pvslib&#45;gitlab__pvs7.0/ints -->
<g id="edge47" class="edge">
<title>/Users/mmoscato/nasa/pvslib/pvslib&#45;gitlab__pvs7.0/vectors&#45;&gt;/Users/mmoscato/nasa/pvslib/pvslib&#45;gitlab__pvs7.0/ints</title>
<path fill="none" stroke="#000000" d="M250.2676,-457C284.1314,-457 336.3552,-457 336.3552,-457 336.3552,-457 336.3552,-28 336.3552,-28 336.3552,-28 240.3082,-28 240.3082,-28"/>
<polygon fill="#000000" stroke="#000000" points="240.3083,-24.5001 230.3082,-28 240.3082,-31.5001 240.3083,-24.5001"/>
</g>
<!-- /Users/mmoscato/nasa/pvslib/pvslib&#45;gitlab__pvs7.0/vectors&#45;&gt;/Users/mmoscato/nasa/pvslib/pvslib&#45;gitlab__pvs7.0/orders -->
<g id="edge48" class="edge">
<title>/Users/mmoscato/nasa/pvslib/pvslib&#45;gitlab__pvs7.0/vectors&#45;&gt;/Users/mmoscato/nasa/pvslib/pvslib&#45;gitlab__pvs7.0/orders</title>
<path fill="none" stroke="#000000" d="M206.6995,-449.7596C206.6995,-387.9121 206.6995,-190 206.6995,-190 206.6995,-190 160.4063,-190 160.4063,-190"/>
<polygon fill="#000000" stroke="#000000" points="160.4064,-186.5001 150.4063,-190 160.4063,-193.5001 160.4064,-186.5001"/>
</g>
<!-- /Users/mmoscato/nasa/pvslib/pvslib&#45;gitlab__pvs7.0/vectors&#45;&gt;/Users/mmoscato/nasa/pvslib/pvslib&#45;gitlab__pvs7.0/reals -->
<g id="edge49" class="edge">
<title>/Users/mmoscato/nasa/pvslib/pvslib&#45;gitlab__pvs7.0/vectors&#45;&gt;/Users/mmoscato/nasa/pvslib/pvslib&#45;gitlab__pvs7.0/reals</title>
<path fill="none" stroke="#000000" d="M216.0985,-449.8025C216.0985,-387.1207 216.0985,-184 216.0985,-184 216.0985,-184 233.8709,-184 233.8709,-184"/>
<polygon fill="#000000" stroke="#000000" points="233.871,-187.5001 243.8709,-184 233.8709,-180.5001 233.871,-187.5001"/>
</g>
<!-- /Users/mmoscato/nasa/pvslib/pvslib&#45;gitlab__pvs7.0/vectors&#45;&gt;/Users/mmoscato/nasa/pvslib/pvslib&#45;gitlab__pvs7.0/series -->
<g id="edge50" class="edge">
<title>/Users/mmoscato/nasa/pvslib/pvslib&#45;gitlab__pvs7.0/vectors&#45;&gt;/Users/mmoscato/nasa/pvslib/pvslib&#45;gitlab__pvs7.0/series</title>
<path fill="none" stroke="#000000" d="M204.3497,-449.7933C204.3497,-412.9441 204.3497,-333 204.3497,-333 204.3497,-333 200.3506,-333 200.3506,-333"/>
<polygon fill="#000000" stroke="#000000" points="200.3506,-329.5001 190.3506,-333 200.3506,-336.5001 200.3506,-329.5001"/>
</g>
<!-- /Users/mmoscato/nasa/pvslib/pvslib&#45;gitlab__pvs7.0/vectors&#45;&gt;/Users/mmoscato/nasa/pvslib/pvslib&#45;gitlab__pvs7.0/structures -->
<g id="edge51" class="edge">
<title>/Users/mmoscato/nasa/pvslib/pvslib&#45;gitlab__pvs7.0/vectors&#45;&gt;/Users/mmoscato/nasa/pvslib/pvslib&#45;gitlab__pvs7.0/structures</title>
<path fill="none" stroke="#000000" d="M211.399,-449.5507C211.399,-449.5507 211.399,-134.4122 211.399,-134.4122"/>
<polygon fill="#000000" stroke="#000000" points="214.8991,-134.4121 211.399,-124.4122 207.8991,-134.4122 214.8991,-134.4121"/>
</g>
<!-- /Users/mmoscato/nasa/pvslib/pvslib&#45;gitlab__pvs7.0/vectors&#45;&gt;/Users/mmoscato/nasa/pvslib/pvslib&#45;gitlab__pvs7.0/trig -->
<g id="edge52" class="edge">
<title>/Users/mmoscato/nasa/pvslib/pvslib&#45;gitlab__pvs7.0/vectors&#45;&gt;/Users/mmoscato/nasa/pvslib/pvslib&#45;gitlab__pvs7.0/trig</title>
<path fill="none" stroke="#000000" d="M197.8931,-449.8314C197.8931,-449.8314 197.8931,-424.4133 197.8931,-424.4133"/>
<polygon fill="#000000" stroke="#000000" points="201.3932,-424.4132 197.8931,-414.4133 194.3932,-424.4133 201.3932,-424.4132"/>
</g>
<!-- /Users/mmoscato/nasa/pvslib/pvslib&#45;gitlab__pvs7.0/vectors&#45;&gt;/Users/mmoscato/pvs/7.1&#45;0&#45;g3fb4f25&#45;ix86&#45;MacOSX&#45;allegro/lib/finite_sets -->
<g id="edge53" class="edge">
<title>/Users/mmoscato/nasa/pvslib/pvslib&#45;gitlab__pvs7.0/vectors&#45;&gt;/Users/mmoscato/pvs/7.1&#45;0&#45;g3fb4f25&#45;ix86&#45;MacOSX&#45;allegro/lib/finite_sets</title>
<path fill="none" stroke="#000000" d="M250.5704,-464C312.7881,-464 455,-464 455,-464 455,-464 455,-206.3257 455,-206.3257"/>
<polygon fill="#000000" stroke="#000000" points="458.5001,-206.3256 455,-196.3257 451.5001,-206.3257 458.5001,-206.3256"/>
</g>
</g>
</svg>
