<?xml version="1.0" encoding="UTF-8" standalone="no"?>
<!DOCTYPE svg PUBLIC "-//W3C//DTD SVG 1.1//EN"
 "http://www.w3.org/Graphics/SVG/1.1/DTD/svg11.dtd">
<!-- Generated by graphviz version 2.40.1 (20161225.0304)
 -->
<!-- Title: metric_space Pages: 1 -->
<svg width="502pt" height="604pt"
 viewBox="0.00 0.00 502.00 604.00" xmlns="http://www.w3.org/2000/svg" xmlns:xlink="http://www.w3.org/1999/xlink">
<g id="graph0" class="graph" transform="scale(1 1) rotate(0) translate(4 600)">
<title>metric_space</title>
<polygon fill="#ffffff" stroke="transparent" points="-4,4 -4,-600 498,-600 498,4 -4,4"/>
<g id="clust1" class="cluster">
<title>cluster_NASALib</title>
<polygon fill="none" stroke="#000000" points="8,-8 8,-588 390,-588 390,-8 8,-8"/>
<text text-anchor="middle" x="199" y="-572.8" font-family="Times,serif" font-size="14.00" fill="#000000">NASALib</text>
</g>
<g id="clust2" class="cluster">
<title>cluster_PVS Prelude</title>
<polygon fill="none" stroke="#000000" points="398,-152 398,-226 486,-226 486,-152 398,-152"/>
<text text-anchor="middle" x="442" y="-210.8" font-family="Times,serif" font-size="14.00" fill="#000000">PVS Prelude</text>
</g>
<!-- /Users/mmoscato/nasa/pvslib/pvslib&#45;gitlab__pvs7.0/analysis -->
<g id="node1" class="node">
<title>/Users/mmoscato/nasa/pvslib/pvslib&#45;gitlab__pvs7.0/analysis</title>
<polygon fill="#fcfcd7" stroke="#000000" points="197.6036,-270 136.3964,-270 136.3964,-234 197.6036,-234 197.6036,-270"/>
<text text-anchor="middle" x="167" y="-247.8" font-family="Times,serif" font-size="14.00" fill="#000000">analysis</text>
</g>
<!-- /Users/mmoscato/nasa/pvslib/pvslib&#45;gitlab__pvs7.0/ints -->
<g id="node2" class="node">
<title>/Users/mmoscato/nasa/pvslib/pvslib&#45;gitlab__pvs7.0/ints</title>
<polygon fill="#fcfcd7" stroke="#000000" points="98,-52 44,-52 44,-16 98,-16 98,-52"/>
<text text-anchor="middle" x="71" y="-29.8" font-family="Times,serif" font-size="14.00" fill="#000000">ints</text>
</g>
<!-- /Users/mmoscato/nasa/pvslib/pvslib&#45;gitlab__pvs7.0/analysis&#45;&gt;/Users/mmoscato/nasa/pvslib/pvslib&#45;gitlab__pvs7.0/ints -->
<g id="edge1" class="edge">
<title>/Users/mmoscato/nasa/pvslib/pvslib&#45;gitlab__pvs7.0/analysis&#45;&gt;/Users/mmoscato/nasa/pvslib/pvslib&#45;gitlab__pvs7.0/ints</title>
<path fill="none" stroke="#000000" d="M181.7012,-233.925C181.7012,-182.6575 181.7012,-40 181.7012,-40 181.7012,-40 108.0806,-40 108.0806,-40"/>
<polygon fill="#000000" stroke="#000000" points="108.0806,-36.5001 98.0806,-40 108.0805,-43.5001 108.0806,-36.5001"/>
</g>
<!-- /Users/mmoscato/nasa/pvslib/pvslib&#45;gitlab__pvs7.0/orders -->
<g id="node5" class="node">
<title>/Users/mmoscato/nasa/pvslib/pvslib&#45;gitlab__pvs7.0/orders</title>
<polygon fill="#fcfcd7" stroke="#000000" points="307,-196 253,-196 253,-160 307,-160 307,-196"/>
<text text-anchor="middle" x="280" y="-173.8" font-family="Times,serif" font-size="14.00" fill="#000000">orders</text>
</g>
<!-- /Users/mmoscato/nasa/pvslib/pvslib&#45;gitlab__pvs7.0/analysis&#45;&gt;/Users/mmoscato/nasa/pvslib/pvslib&#45;gitlab__pvs7.0/orders -->
<g id="edge2" class="edge">
<title>/Users/mmoscato/nasa/pvslib/pvslib&#45;gitlab__pvs7.0/analysis&#45;&gt;/Users/mmoscato/nasa/pvslib/pvslib&#45;gitlab__pvs7.0/orders</title>
<path fill="none" stroke="#000000" d="M197.6805,-252C223.9707,-252 257.6221,-252 257.6221,-252 257.6221,-252 257.6221,-206.2921 257.6221,-206.2921"/>
<polygon fill="#000000" stroke="#000000" points="261.1222,-206.2921 257.6221,-196.2921 254.1222,-206.2922 261.1222,-206.2921"/>
</g>
<!-- /Users/mmoscato/nasa/pvslib/pvslib&#45;gitlab__pvs7.0/reals -->
<g id="node7" class="node">
<title>/Users/mmoscato/nasa/pvslib/pvslib&#45;gitlab__pvs7.0/reals</title>
<polygon fill="#fcfcd7" stroke="#000000" points="150,-196 96,-196 96,-160 150,-160 150,-196"/>
<text text-anchor="middle" x="123" y="-173.8" font-family="Times,serif" font-size="14.00" fill="#000000">reals</text>
</g>
<!-- /Users/mmoscato/nasa/pvslib/pvslib&#45;gitlab__pvs7.0/analysis&#45;&gt;/Users/mmoscato/nasa/pvslib/pvslib&#45;gitlab__pvs7.0/reals -->
<g id="edge3" class="edge">
<title>/Users/mmoscato/nasa/pvslib/pvslib&#45;gitlab__pvs7.0/analysis&#45;&gt;/Users/mmoscato/nasa/pvslib/pvslib&#45;gitlab__pvs7.0/reals</title>
<path fill="none" stroke="#000000" d="M140.9655,-233.7079C140.9655,-233.7079 140.9655,-206.0817 140.9655,-206.0817"/>
<polygon fill="#000000" stroke="#000000" points="144.4656,-206.0817 140.9655,-196.0817 137.4656,-206.0818 144.4656,-206.0817"/>
</g>
<!-- /Users/mmoscato/nasa/pvslib/pvslib&#45;gitlab__pvs7.0/structures -->
<g id="node10" class="node">
<title>/Users/mmoscato/nasa/pvslib/pvslib&#45;gitlab__pvs7.0/structures</title>
<polygon fill="#fcfcd7" stroke="#000000" points="106.429,-124 35.571,-124 35.571,-88 106.429,-88 106.429,-124"/>
<text text-anchor="middle" x="71" y="-101.8" font-family="Times,serif" font-size="14.00" fill="#000000">structures</text>
</g>
<!-- /Users/mmoscato/nasa/pvslib/pvslib&#45;gitlab__pvs7.0/analysis&#45;&gt;/Users/mmoscato/nasa/pvslib/pvslib&#45;gitlab__pvs7.0/structures -->
<g id="edge4" class="edge">
<title>/Users/mmoscato/nasa/pvslib/pvslib&#45;gitlab__pvs7.0/analysis&#45;&gt;/Users/mmoscato/nasa/pvslib/pvslib&#45;gitlab__pvs7.0/structures</title>
<path fill="none" stroke="#000000" d="M136.1295,-252C113.8749,-252 87.741,-252 87.741,-252 87.741,-252 87.741,-134.1958 87.741,-134.1958"/>
<polygon fill="#000000" stroke="#000000" points="91.2411,-134.1958 87.741,-124.1958 84.2411,-134.1958 91.2411,-134.1958"/>
</g>
<!-- /Users/mmoscato/pvs/7.1&#45;0&#45;g3fb4f25&#45;ix86&#45;MacOSX&#45;allegro/lib/finite_sets -->
<g id="node13" class="node">
<title>/Users/mmoscato/pvs/7.1&#45;0&#45;g3fb4f25&#45;ix86&#45;MacOSX&#45;allegro/lib/finite_sets</title>
<polygon fill="#fcfcd7" stroke="#000000" points="478.2796,-196 405.7204,-196 405.7204,-160 478.2796,-160 478.2796,-196"/>
<text text-anchor="middle" x="442" y="-173.8" font-family="Times,serif" font-size="14.00" fill="#000000">finite_sets</text>
</g>
<!-- /Users/mmoscato/nasa/pvslib/pvslib&#45;gitlab__pvs7.0/analysis&#45;&gt;/Users/mmoscato/pvs/7.1&#45;0&#45;g3fb4f25&#45;ix86&#45;MacOSX&#45;allegro/lib/finite_sets -->
<g id="edge5" class="edge">
<title>/Users/mmoscato/nasa/pvslib/pvslib&#45;gitlab__pvs7.0/analysis&#45;&gt;/Users/mmoscato/pvs/7.1&#45;0&#45;g3fb4f25&#45;ix86&#45;MacOSX&#45;allegro/lib/finite_sets</title>
<path fill="none" stroke="#000000" d="M165.8506,-233.9672C165.8506,-227.1474 165.8506,-221 165.8506,-221 165.8506,-221 414.7078,-221 414.7078,-221 414.7078,-221 414.7078,-206.4854 414.7078,-206.4854"/>
<polygon fill="#000000" stroke="#000000" points="418.2079,-206.4854 414.7078,-196.4854 411.2079,-206.4855 418.2079,-206.4854"/>
</g>
<!-- /Users/mmoscato/nasa/pvslib/pvslib&#45;gitlab__pvs7.0/lnexp -->
<g id="node3" class="node">
<title>/Users/mmoscato/nasa/pvslib/pvslib&#45;gitlab__pvs7.0/lnexp</title>
<polygon fill="#fcfcd7" stroke="#000000" points="145,-414 91,-414 91,-378 145,-378 145,-414"/>
<text text-anchor="middle" x="118" y="-391.8" font-family="Times,serif" font-size="14.00" fill="#000000">lnexp</text>
</g>
<!-- /Users/mmoscato/nasa/pvslib/pvslib&#45;gitlab__pvs7.0/lnexp&#45;&gt;/Users/mmoscato/nasa/pvslib/pvslib&#45;gitlab__pvs7.0/analysis -->
<g id="edge6" class="edge">
<title>/Users/mmoscato/nasa/pvslib/pvslib&#45;gitlab__pvs7.0/lnexp&#45;&gt;/Users/mmoscato/nasa/pvslib/pvslib&#45;gitlab__pvs7.0/analysis</title>
<path fill="none" stroke="#000000" d="M138.5862,-377.7623C138.5862,-377.7623 138.5862,-280.0896 138.5862,-280.0896"/>
<polygon fill="#000000" stroke="#000000" points="142.0863,-280.0896 138.5862,-270.0896 135.0863,-280.0897 142.0863,-280.0896"/>
</g>
<!-- /Users/mmoscato/nasa/pvslib/pvslib&#45;gitlab__pvs7.0/lnexp&#45;&gt;/Users/mmoscato/nasa/pvslib/pvslib&#45;gitlab__pvs7.0/ints -->
<g id="edge7" class="edge">
<title>/Users/mmoscato/nasa/pvslib/pvslib&#45;gitlab__pvs7.0/lnexp&#45;&gt;/Users/mmoscato/nasa/pvslib/pvslib&#45;gitlab__pvs7.0/ints</title>
<path fill="none" stroke="#000000" d="M90.6328,-405C63.7652,-405 26.7861,-405 26.7861,-405 26.7861,-405 26.7861,-43 26.7861,-43 26.7861,-43 33.7539,-43 33.7539,-43"/>
<polygon fill="#000000" stroke="#000000" points="33.754,-46.5001 43.7539,-43 33.7539,-39.5001 33.754,-46.5001"/>
</g>
<!-- /Users/mmoscato/nasa/pvslib/pvslib&#45;gitlab__pvs7.0/lnexp&#45;&gt;/Users/mmoscato/nasa/pvslib/pvslib&#45;gitlab__pvs7.0/reals -->
<g id="edge8" class="edge">
<title>/Users/mmoscato/nasa/pvslib/pvslib&#45;gitlab__pvs7.0/lnexp&#45;&gt;/Users/mmoscato/nasa/pvslib/pvslib&#45;gitlab__pvs7.0/reals</title>
<path fill="none" stroke="#000000" d="M106.1121,-377.7884C106.1121,-377.7884 106.1121,-206.0064 106.1121,-206.0064"/>
<polygon fill="#000000" stroke="#000000" points="109.6122,-206.0064 106.1121,-196.0064 102.6122,-206.0065 109.6122,-206.0064"/>
</g>
<!-- /Users/mmoscato/nasa/pvslib/pvslib&#45;gitlab__pvs7.0/series -->
<g id="node8" class="node">
<title>/Users/mmoscato/nasa/pvslib/pvslib&#45;gitlab__pvs7.0/series</title>
<polygon fill="#fcfcd7" stroke="#000000" points="238,-342 184,-342 184,-306 238,-306 238,-342"/>
<text text-anchor="middle" x="211" y="-319.8" font-family="Times,serif" font-size="14.00" fill="#000000">series</text>
</g>
<!-- /Users/mmoscato/nasa/pvslib/pvslib&#45;gitlab__pvs7.0/lnexp&#45;&gt;/Users/mmoscato/nasa/pvslib/pvslib&#45;gitlab__pvs7.0/series -->
<g id="edge9" class="edge">
<title>/Users/mmoscato/nasa/pvslib/pvslib&#45;gitlab__pvs7.0/lnexp&#45;&gt;/Users/mmoscato/nasa/pvslib/pvslib&#45;gitlab__pvs7.0/series</title>
<path fill="none" stroke="#000000" d="M142.8621,-377.8711C142.8621,-357.4276 142.8621,-327 142.8621,-327 142.8621,-327 173.6783,-327 173.6783,-327"/>
<polygon fill="#000000" stroke="#000000" points="173.6783,-330.5001 183.6783,-327 173.6783,-323.5001 173.6783,-330.5001"/>
</g>
<!-- /Users/mmoscato/nasa/pvslib/pvslib&#45;gitlab__pvs7.0/lnexp&#45;&gt;/Users/mmoscato/nasa/pvslib/pvslib&#45;gitlab__pvs7.0/structures -->
<g id="edge10" class="edge">
<title>/Users/mmoscato/nasa/pvslib/pvslib&#45;gitlab__pvs7.0/lnexp&#45;&gt;/Users/mmoscato/nasa/pvslib/pvslib&#45;gitlab__pvs7.0/structures</title>
<path fill="none" stroke="#000000" d="M90.9091,-387C84.5538,-387 79.5936,-387 79.5936,-387 79.5936,-387 79.5936,-134.0053 79.5936,-134.0053"/>
<polygon fill="#000000" stroke="#000000" points="83.0937,-134.0052 79.5936,-124.0053 76.0937,-134.0053 83.0937,-134.0052"/>
</g>
<!-- /Users/mmoscato/nasa/pvslib/pvslib&#45;gitlab__pvs7.0/lnexp&#45;&gt;/Users/mmoscato/pvs/7.1&#45;0&#45;g3fb4f25&#45;ix86&#45;MacOSX&#45;allegro/lib/finite_sets -->
<g id="edge11" class="edge">
<title>/Users/mmoscato/nasa/pvslib/pvslib&#45;gitlab__pvs7.0/lnexp&#45;&gt;/Users/mmoscato/pvs/7.1&#45;0&#45;g3fb4f25&#45;ix86&#45;MacOSX&#45;allegro/lib/finite_sets</title>
<path fill="none" stroke="#000000" d="M140.7241,-377.9752C140.7241,-345.1557 140.7241,-279 140.7241,-279 140.7241,-279 423.8052,-279 423.8052,-279 423.8052,-279 423.8052,-206.0568 423.8052,-206.0568"/>
<polygon fill="#000000" stroke="#000000" points="427.3053,-206.0567 423.8052,-196.0568 420.3053,-206.0568 427.3053,-206.0567"/>
</g>
<!-- /Users/mmoscato/nasa/pvslib/pvslib&#45;gitlab__pvs7.0/metric_space -->
<g id="node4" class="node">
<title>/Users/mmoscato/nasa/pvslib/pvslib&#45;gitlab__pvs7.0/metric_space</title>
<polygon fill="#f7e28d" stroke="#000000" points="162.8488,-558 73.1512,-558 73.1512,-522 162.8488,-522 162.8488,-558"/>
<text text-anchor="middle" x="118" y="-535.8" font-family="Times,serif" font-size="14.00" fill="#000000">metric_space</text>
</g>
<!-- /Users/mmoscato/nasa/pvslib/pvslib&#45;gitlab__pvs7.0/metric_space&#45;&gt;/Users/mmoscato/nasa/pvslib/pvslib&#45;gitlab__pvs7.0/analysis -->
<g id="edge12" class="edge">
<title>/Users/mmoscato/nasa/pvslib/pvslib&#45;gitlab__pvs7.0/metric_space&#45;&gt;/Users/mmoscato/nasa/pvslib/pvslib&#45;gitlab__pvs7.0/analysis</title>
<path fill="none" stroke="#000000" d="M152.1697,-521.9843C152.1697,-521.9843 152.1697,-280.0089 152.1697,-280.0089"/>
<polygon fill="#000000" stroke="#000000" points="155.6698,-280.0088 152.1697,-270.0089 148.6698,-280.0089 155.6698,-280.0088"/>
</g>
<!-- /Users/mmoscato/nasa/pvslib/pvslib&#45;gitlab__pvs7.0/metric_space&#45;&gt;/Users/mmoscato/nasa/pvslib/pvslib&#45;gitlab__pvs7.0/ints -->
<g id="edge13" class="edge">
<title>/Users/mmoscato/nasa/pvslib/pvslib&#45;gitlab__pvs7.0/metric_space&#45;&gt;/Users/mmoscato/nasa/pvslib/pvslib&#45;gitlab__pvs7.0/ints</title>
<path fill="none" stroke="#000000" d="M72.948,-540C42.8638,-540 8.7861,-540 8.7861,-540 8.7861,-540 8.7861,-25 8.7861,-25 8.7861,-25 33.8931,-25 33.8931,-25"/>
<polygon fill="#000000" stroke="#000000" points="33.8931,-28.5001 43.8931,-25 33.893,-21.5001 33.8931,-28.5001"/>
</g>
<!-- /Users/mmoscato/nasa/pvslib/pvslib&#45;gitlab__pvs7.0/metric_space&#45;&gt;/Users/mmoscato/nasa/pvslib/pvslib&#45;gitlab__pvs7.0/lnexp -->
<g id="edge14" class="edge">
<title>/Users/mmoscato/nasa/pvslib/pvslib&#45;gitlab__pvs7.0/metric_space&#45;&gt;/Users/mmoscato/nasa/pvslib/pvslib&#45;gitlab__pvs7.0/lnexp</title>
<path fill="none" stroke="#000000" d="M89.3705,-521.7623C89.3705,-483.0139 89.3705,-396 89.3705,-396 89.3705,-396 89.5244,-396 89.5244,-396"/>
<polygon fill="#000000" stroke="#000000" points="80.91,-399.5007 90.9098,-396 80.9095,-392.5007 80.91,-399.5007"/>
</g>
<!-- /Users/mmoscato/nasa/pvslib/pvslib&#45;gitlab__pvs7.0/metric_space&#45;&gt;/Users/mmoscato/nasa/pvslib/pvslib&#45;gitlab__pvs7.0/orders -->
<g id="edge15" class="edge">
<title>/Users/mmoscato/nasa/pvslib/pvslib&#45;gitlab__pvs7.0/metric_space&#45;&gt;/Users/mmoscato/nasa/pvslib/pvslib&#45;gitlab__pvs7.0/orders</title>
<path fill="none" stroke="#000000" d="M163.2214,-529C208.4966,-529 271.4883,-529 271.4883,-529 271.4883,-529 271.4883,-206.3771 271.4883,-206.3771"/>
<polygon fill="#000000" stroke="#000000" points="274.9884,-206.3771 271.4883,-196.3771 267.9884,-206.3771 274.9884,-206.3771"/>
</g>
<!-- /Users/mmoscato/nasa/pvslib/pvslib&#45;gitlab__pvs7.0/power -->
<g id="node6" class="node">
<title>/Users/mmoscato/nasa/pvslib/pvslib&#45;gitlab__pvs7.0/power</title>
<polygon fill="#fcfcd7" stroke="#000000" points="145,-486 91,-486 91,-450 145,-450 145,-486"/>
<text text-anchor="middle" x="118" y="-463.8" font-family="Times,serif" font-size="14.00" fill="#000000">power</text>
</g>
<!-- /Users/mmoscato/nasa/pvslib/pvslib&#45;gitlab__pvs7.0/metric_space&#45;&gt;/Users/mmoscato/nasa/pvslib/pvslib&#45;gitlab__pvs7.0/power -->
<g id="edge16" class="edge">
<title>/Users/mmoscato/nasa/pvslib/pvslib&#45;gitlab__pvs7.0/metric_space&#45;&gt;/Users/mmoscato/nasa/pvslib/pvslib&#45;gitlab__pvs7.0/power</title>
<path fill="none" stroke="#000000" d="M118,-521.8314C118,-521.8314 118,-496.4133 118,-496.4133"/>
<polygon fill="#000000" stroke="#000000" points="121.5001,-496.4132 118,-486.4133 114.5001,-496.4133 121.5001,-496.4132"/>
</g>
<!-- /Users/mmoscato/nasa/pvslib/pvslib&#45;gitlab__pvs7.0/metric_space&#45;&gt;/Users/mmoscato/nasa/pvslib/pvslib&#45;gitlab__pvs7.0/reals -->
<g id="edge17" class="edge">
<title>/Users/mmoscato/nasa/pvslib/pvslib&#45;gitlab__pvs7.0/metric_space&#45;&gt;/Users/mmoscato/nasa/pvslib/pvslib&#45;gitlab__pvs7.0/reals</title>
<path fill="none" stroke="#000000" d="M77.9641,-521.7508C77.9641,-447.496 77.9641,-172 77.9641,-172 77.9641,-172 85.7635,-172 85.7635,-172"/>
<polygon fill="#000000" stroke="#000000" points="85.7635,-175.5001 95.7635,-172 85.7635,-168.5001 85.7635,-175.5001"/>
</g>
<!-- /Users/mmoscato/nasa/pvslib/pvslib&#45;gitlab__pvs7.0/metric_space&#45;&gt;/Users/mmoscato/nasa/pvslib/pvslib&#45;gitlab__pvs7.0/series -->
<g id="edge18" class="edge">
<title>/Users/mmoscato/nasa/pvslib/pvslib&#45;gitlab__pvs7.0/metric_space&#45;&gt;/Users/mmoscato/nasa/pvslib/pvslib&#45;gitlab__pvs7.0/series</title>
<path fill="none" stroke="#000000" d="M155.7546,-521.7189C155.7546,-471.3029 155.7546,-334 155.7546,-334 155.7546,-334 173.701,-334 173.701,-334"/>
<polygon fill="#000000" stroke="#000000" points="173.701,-337.5001 183.701,-334 173.701,-330.5001 173.701,-337.5001"/>
</g>
<!-- /Users/mmoscato/nasa/pvslib/pvslib&#45;gitlab__pvs7.0/sets_aux -->
<g id="node9" class="node">
<title>/Users/mmoscato/nasa/pvslib/pvslib&#45;gitlab__pvs7.0/sets_aux</title>
<polygon fill="#fcfcd7" stroke="#000000" points="360.2142,-270 295.7858,-270 295.7858,-234 360.2142,-234 360.2142,-270"/>
<text text-anchor="middle" x="328" y="-247.8" font-family="Times,serif" font-size="14.00" fill="#000000">sets_aux</text>
</g>
<!-- /Users/mmoscato/nasa/pvslib/pvslib&#45;gitlab__pvs7.0/metric_space&#45;&gt;/Users/mmoscato/nasa/pvslib/pvslib&#45;gitlab__pvs7.0/sets_aux -->
<g id="edge19" class="edge">
<title>/Users/mmoscato/nasa/pvslib/pvslib&#45;gitlab__pvs7.0/metric_space&#45;&gt;/Users/mmoscato/nasa/pvslib/pvslib&#45;gitlab__pvs7.0/sets_aux</title>
<path fill="none" stroke="#000000" d="M162.9244,-543C230.631,-543 350.9983,-543 350.9983,-543 350.9983,-543 350.9983,-280.2034 350.9983,-280.2034"/>
<polygon fill="#000000" stroke="#000000" points="354.4984,-280.2033 350.9983,-270.2034 347.4984,-280.2034 354.4984,-280.2033"/>
</g>
<!-- /Users/mmoscato/nasa/pvslib/pvslib&#45;gitlab__pvs7.0/metric_space&#45;&gt;/Users/mmoscato/nasa/pvslib/pvslib&#45;gitlab__pvs7.0/structures -->
<g id="edge20" class="edge">
<title>/Users/mmoscato/nasa/pvslib/pvslib&#45;gitlab__pvs7.0/metric_space&#45;&gt;/Users/mmoscato/nasa/pvslib/pvslib&#45;gitlab__pvs7.0/structures</title>
<path fill="none" stroke="#000000" d="M74.7052,-521.9041C74.7052,-521.9041 74.7052,-134.1731 74.7052,-134.1731"/>
<polygon fill="#000000" stroke="#000000" points="78.2053,-134.1731 74.7052,-124.1731 71.2053,-134.1732 78.2053,-134.1731"/>
</g>
<!-- /Users/mmoscato/nasa/pvslib/pvslib&#45;gitlab__pvs7.0/topology -->
<g id="node11" class="node">
<title>/Users/mmoscato/nasa/pvslib/pvslib&#45;gitlab__pvs7.0/topology</title>
<polygon fill="#fcfcd7" stroke="#000000" points="341.7797,-342 276.2203,-342 276.2203,-306 341.7797,-306 341.7797,-342"/>
<text text-anchor="middle" x="309" y="-319.8" font-family="Times,serif" font-size="14.00" fill="#000000">topology</text>
</g>
<!-- /Users/mmoscato/nasa/pvslib/pvslib&#45;gitlab__pvs7.0/metric_space&#45;&gt;/Users/mmoscato/nasa/pvslib/pvslib&#45;gitlab__pvs7.0/topology -->
<g id="edge21" class="edge">
<title>/Users/mmoscato/nasa/pvslib/pvslib&#45;gitlab__pvs7.0/metric_space&#45;&gt;/Users/mmoscato/nasa/pvslib/pvslib&#45;gitlab__pvs7.0/topology</title>
<path fill="none" stroke="#000000" d="M163.2643,-536C219.7456,-536 309,-536 309,-536 309,-536 309,-352.075 309,-352.075"/>
<polygon fill="#000000" stroke="#000000" points="312.5001,-352.075 309,-342.075 305.5001,-352.075 312.5001,-352.075"/>
</g>
<!-- /Users/mmoscato/nasa/pvslib/pvslib&#45;gitlab__pvs7.0/vectors -->
<g id="node12" class="node">
<title>/Users/mmoscato/nasa/pvslib/pvslib&#45;gitlab__pvs7.0/vectors</title>
<polygon fill="#fcfcd7" stroke="#000000" points="239.4294,-414 182.5706,-414 182.5706,-378 239.4294,-378 239.4294,-414"/>
<text text-anchor="middle" x="211" y="-391.8" font-family="Times,serif" font-size="14.00" fill="#000000">vectors</text>
</g>
<!-- /Users/mmoscato/nasa/pvslib/pvslib&#45;gitlab__pvs7.0/metric_space&#45;&gt;/Users/mmoscato/nasa/pvslib/pvslib&#45;gitlab__pvs7.0/vectors -->
<g id="edge22" class="edge">
<title>/Users/mmoscato/nasa/pvslib/pvslib&#45;gitlab__pvs7.0/metric_space&#45;&gt;/Users/mmoscato/nasa/pvslib/pvslib&#45;gitlab__pvs7.0/vectors</title>
<path fill="none" stroke="#000000" d="M159.3395,-521.9589C159.3395,-484.5524 159.3395,-402 159.3395,-402 159.3395,-402 172.7513,-402 172.7513,-402"/>
<polygon fill="#000000" stroke="#000000" points="172.7513,-405.5001 182.7513,-402 172.7513,-398.5001 172.7513,-405.5001"/>
</g>
<!-- /Users/mmoscato/nasa/pvslib/pvslib&#45;gitlab__pvs7.0/metric_space&#45;&gt;/Users/mmoscato/pvs/7.1&#45;0&#45;g3fb4f25&#45;ix86&#45;MacOSX&#45;allegro/lib/finite_sets -->
<g id="edge23" class="edge">
<title>/Users/mmoscato/nasa/pvslib/pvslib&#45;gitlab__pvs7.0/metric_space&#45;&gt;/Users/mmoscato/pvs/7.1&#45;0&#45;g3fb4f25&#45;ix86&#45;MacOSX&#45;allegro/lib/finite_sets</title>
<path fill="none" stroke="#000000" d="M163.2062,-550C258.0846,-550 469.2922,-550 469.2922,-550 469.2922,-550 469.2922,-206.1942 469.2922,-206.1942"/>
<polygon fill="#000000" stroke="#000000" points="472.7923,-206.1941 469.2922,-196.1942 465.7923,-206.1942 472.7923,-206.1941"/>
</g>
<!-- /Users/mmoscato/nasa/pvslib/pvslib&#45;gitlab__pvs7.0/power&#45;&gt;/Users/mmoscato/nasa/pvslib/pvslib&#45;gitlab__pvs7.0/analysis -->
<g id="edge24" class="edge">
<title>/Users/mmoscato/nasa/pvslib/pvslib&#45;gitlab__pvs7.0/power&#45;&gt;/Users/mmoscato/nasa/pvslib/pvslib&#45;gitlab__pvs7.0/analysis</title>
<path fill="none" stroke="#000000" d="M145.3117,-462C147.3229,-462 148.5849,-462 148.5849,-462 148.5849,-462 148.5849,-280.2688 148.5849,-280.2688"/>
<polygon fill="#000000" stroke="#000000" points="152.085,-280.2687 148.5849,-270.2688 145.085,-280.2688 152.085,-280.2687"/>
</g>
<!-- /Users/mmoscato/nasa/pvslib/pvslib&#45;gitlab__pvs7.0/power&#45;&gt;/Users/mmoscato/nasa/pvslib/pvslib&#45;gitlab__pvs7.0/ints -->
<g id="edge25" class="edge">
<title>/Users/mmoscato/nasa/pvslib/pvslib&#45;gitlab__pvs7.0/power&#45;&gt;/Users/mmoscato/nasa/pvslib/pvslib&#45;gitlab__pvs7.0/ints</title>
<path fill="none" stroke="#000000" d="M90.8807,-477C61.2019,-477 17.7861,-477 17.7861,-477 17.7861,-477 17.7861,-34 17.7861,-34 17.7861,-34 33.7695,-34 33.7695,-34"/>
<polygon fill="#000000" stroke="#000000" points="33.7696,-37.5001 43.7695,-34 33.7695,-30.5001 33.7696,-37.5001"/>
</g>
<!-- /Users/mmoscato/nasa/pvslib/pvslib&#45;gitlab__pvs7.0/power&#45;&gt;/Users/mmoscato/nasa/pvslib/pvslib&#45;gitlab__pvs7.0/lnexp -->
<g id="edge26" class="edge">
<title>/Users/mmoscato/nasa/pvslib/pvslib&#45;gitlab__pvs7.0/power&#45;&gt;/Users/mmoscato/nasa/pvslib/pvslib&#45;gitlab__pvs7.0/lnexp</title>
<path fill="none" stroke="#000000" d="M118,-449.8314C118,-449.8314 118,-424.4133 118,-424.4133"/>
<polygon fill="#000000" stroke="#000000" points="121.5001,-424.4132 118,-414.4133 114.5001,-424.4133 121.5001,-424.4132"/>
</g>
<!-- /Users/mmoscato/nasa/pvslib/pvslib&#45;gitlab__pvs7.0/power&#45;&gt;/Users/mmoscato/nasa/pvslib/pvslib&#45;gitlab__pvs7.0/reals -->
<g id="edge27" class="edge">
<title>/Users/mmoscato/nasa/pvslib/pvslib&#45;gitlab__pvs7.0/power&#45;&gt;/Users/mmoscato/nasa/pvslib/pvslib&#45;gitlab__pvs7.0/reals</title>
<path fill="none" stroke="#000000" d="M90.6529,-459C86.1155,-459 82.8526,-459 82.8526,-459 82.8526,-459 82.8526,-184 82.8526,-184 82.8526,-184 85.9983,-184 85.9983,-184"/>
<polygon fill="#000000" stroke="#000000" points="85.9984,-187.5001 95.9983,-184 85.9983,-180.5001 85.9984,-187.5001"/>
</g>
<!-- /Users/mmoscato/nasa/pvslib/pvslib&#45;gitlab__pvs7.0/power&#45;&gt;/Users/mmoscato/nasa/pvslib/pvslib&#45;gitlab__pvs7.0/structures -->
<g id="edge28" class="edge">
<title>/Users/mmoscato/nasa/pvslib/pvslib&#45;gitlab__pvs7.0/power&#45;&gt;/Users/mmoscato/nasa/pvslib/pvslib&#45;gitlab__pvs7.0/structures</title>
<path fill="none" stroke="#000000" d="M90.9072,-468C82.9491,-468 76.3347,-468 76.3347,-468 76.3347,-468 76.3347,-134.4493 76.3347,-134.4493"/>
<polygon fill="#000000" stroke="#000000" points="79.8348,-134.4493 76.3347,-124.4493 72.8348,-134.4493 79.8348,-134.4493"/>
</g>
<!-- /Users/mmoscato/nasa/pvslib/pvslib&#45;gitlab__pvs7.0/power&#45;&gt;/Users/mmoscato/pvs/7.1&#45;0&#45;g3fb4f25&#45;ix86&#45;MacOSX&#45;allegro/lib/finite_sets -->
<g id="edge29" class="edge">
<title>/Users/mmoscato/nasa/pvslib/pvslib&#45;gitlab__pvs7.0/power&#45;&gt;/Users/mmoscato/pvs/7.1&#45;0&#45;g3fb4f25&#45;ix86&#45;MacOSX&#45;allegro/lib/finite_sets</title>
<path fill="none" stroke="#000000" d="M145.1375,-474C226.0738,-474 460.1948,-474 460.1948,-474 460.1948,-474 460.1948,-206.0705 460.1948,-206.0705"/>
<polygon fill="#000000" stroke="#000000" points="463.6949,-206.0705 460.1948,-196.0705 456.6949,-206.0706 463.6949,-206.0705"/>
</g>
<!-- /Users/mmoscato/nasa/pvslib/pvslib&#45;gitlab__pvs7.0/reals&#45;&gt;/Users/mmoscato/nasa/pvslib/pvslib&#45;gitlab__pvs7.0/ints -->
<g id="edge30" class="edge">
<title>/Users/mmoscato/nasa/pvslib/pvslib&#45;gitlab__pvs7.0/reals&#45;&gt;/Users/mmoscato/nasa/pvslib/pvslib&#45;gitlab__pvs7.0/ints</title>
<path fill="none" stroke="#000000" d="M128.1069,-159.9227C128.1069,-123.7713 128.1069,-46 128.1069,-46 128.1069,-46 108.2155,-46 108.2155,-46"/>
<polygon fill="#000000" stroke="#000000" points="108.2155,-42.5001 98.2155,-46 108.2154,-49.5001 108.2155,-42.5001"/>
</g>
<!-- /Users/mmoscato/nasa/pvslib/pvslib&#45;gitlab__pvs7.0/reals&#45;&gt;/Users/mmoscato/nasa/pvslib/pvslib&#45;gitlab__pvs7.0/structures -->
<g id="edge31" class="edge">
<title>/Users/mmoscato/nasa/pvslib/pvslib&#45;gitlab__pvs7.0/reals&#45;&gt;/Users/mmoscato/nasa/pvslib/pvslib&#45;gitlab__pvs7.0/structures</title>
<path fill="none" stroke="#000000" d="M101.1069,-159.8314C101.1069,-159.8314 101.1069,-134.4133 101.1069,-134.4133"/>
<polygon fill="#000000" stroke="#000000" points="104.607,-134.4132 101.1069,-124.4133 97.607,-134.4133 104.607,-134.4132"/>
</g>
<!-- /Users/mmoscato/nasa/pvslib/pvslib&#45;gitlab__pvs7.0/series&#45;&gt;/Users/mmoscato/nasa/pvslib/pvslib&#45;gitlab__pvs7.0/analysis -->
<g id="edge32" class="edge">
<title>/Users/mmoscato/nasa/pvslib/pvslib&#45;gitlab__pvs7.0/series&#45;&gt;/Users/mmoscato/nasa/pvslib/pvslib&#45;gitlab__pvs7.0/analysis</title>
<path fill="none" stroke="#000000" d="M190.7759,-305.8314C190.7759,-305.8314 190.7759,-280.4133 190.7759,-280.4133"/>
<polygon fill="#000000" stroke="#000000" points="194.276,-280.4132 190.7759,-270.4133 187.276,-280.4133 194.276,-280.4132"/>
</g>
<!-- /Users/mmoscato/nasa/pvslib/pvslib&#45;gitlab__pvs7.0/series&#45;&gt;/Users/mmoscato/nasa/pvslib/pvslib&#45;gitlab__pvs7.0/ints -->
<g id="edge33" class="edge">
<title>/Users/mmoscato/nasa/pvslib/pvslib&#45;gitlab__pvs7.0/series&#45;&gt;/Users/mmoscato/nasa/pvslib/pvslib&#45;gitlab__pvs7.0/ints</title>
<path fill="none" stroke="#000000" d="M211.0345,-305.8592C211.0345,-242.3711 211.0345,-34 211.0345,-34 211.0345,-34 108.0001,-34 108.0001,-34"/>
<polygon fill="#000000" stroke="#000000" points="108.0001,-30.5001 98.0001,-34 108,-37.5001 108.0001,-30.5001"/>
</g>
<!-- /Users/mmoscato/nasa/pvslib/pvslib&#45;gitlab__pvs7.0/series&#45;&gt;/Users/mmoscato/nasa/pvslib/pvslib&#45;gitlab__pvs7.0/orders -->
<g id="edge34" class="edge">
<title>/Users/mmoscato/nasa/pvslib/pvslib&#45;gitlab__pvs7.0/series&#45;&gt;/Users/mmoscato/nasa/pvslib/pvslib&#45;gitlab__pvs7.0/orders</title>
<path fill="none" stroke="#000000" d="M238.1226,-324C250.4144,-324 262.2441,-324 262.2441,-324 262.2441,-324 262.2441,-206.1958 262.2441,-206.1958"/>
<polygon fill="#000000" stroke="#000000" points="265.7442,-206.1958 262.2441,-196.1958 258.7442,-206.1958 265.7442,-206.1958"/>
</g>
<!-- /Users/mmoscato/nasa/pvslib/pvslib&#45;gitlab__pvs7.0/series&#45;&gt;/Users/mmoscato/nasa/pvslib/pvslib&#45;gitlab__pvs7.0/reals -->
<g id="edge35" class="edge">
<title>/Users/mmoscato/nasa/pvslib/pvslib&#45;gitlab__pvs7.0/series&#45;&gt;/Users/mmoscato/nasa/pvslib/pvslib&#45;gitlab__pvs7.0/reals</title>
<path fill="none" stroke="#000000" d="M183.7458,-313C158.9959,-313 126.3362,-313 126.3362,-313 126.3362,-313 126.3362,-206.2067 126.3362,-206.2067"/>
<polygon fill="#000000" stroke="#000000" points="129.8363,-206.2067 126.3362,-196.2067 122.8363,-206.2067 129.8363,-206.2067"/>
</g>
<!-- /Users/mmoscato/nasa/pvslib/pvslib&#45;gitlab__pvs7.0/series&#45;&gt;/Users/mmoscato/nasa/pvslib/pvslib&#45;gitlab__pvs7.0/structures -->
<g id="edge36" class="edge">
<title>/Users/mmoscato/nasa/pvslib/pvslib&#45;gitlab__pvs7.0/series&#45;&gt;/Users/mmoscato/nasa/pvslib/pvslib&#45;gitlab__pvs7.0/structures</title>
<path fill="none" stroke="#000000" d="M183.8587,-320C146.6836,-320 84.4821,-320 84.4821,-320 84.4821,-320 84.4821,-134.2455 84.4821,-134.2455"/>
<polygon fill="#000000" stroke="#000000" points="87.9822,-134.2455 84.4821,-124.2455 80.9822,-134.2456 87.9822,-134.2455"/>
</g>
<!-- /Users/mmoscato/nasa/pvslib/pvslib&#45;gitlab__pvs7.0/series&#45;&gt;/Users/mmoscato/pvs/7.1&#45;0&#45;g3fb4f25&#45;ix86&#45;MacOSX&#45;allegro/lib/finite_sets -->
<g id="edge37" class="edge">
<title>/Users/mmoscato/nasa/pvslib/pvslib&#45;gitlab__pvs7.0/series&#45;&gt;/Users/mmoscato/pvs/7.1&#45;0&#45;g3fb4f25&#45;ix86&#45;MacOSX&#45;allegro/lib/finite_sets</title>
<path fill="none" stroke="#000000" d="M224.5173,-305.5782C224.5173,-296.7209 224.5173,-288 224.5173,-288 224.5173,-288 432.9026,-288 432.9026,-288 432.9026,-288 432.9026,-206.1643 432.9026,-206.1643"/>
<polygon fill="#000000" stroke="#000000" points="436.4027,-206.1642 432.9026,-196.1643 429.4027,-206.1643 436.4027,-206.1642"/>
</g>
<!-- /Users/mmoscato/nasa/pvslib/pvslib&#45;gitlab__pvs7.0/sets_aux&#45;&gt;/Users/mmoscato/nasa/pvslib/pvslib&#45;gitlab__pvs7.0/ints -->
<g id="edge38" class="edge">
<title>/Users/mmoscato/nasa/pvslib/pvslib&#45;gitlab__pvs7.0/sets_aux&#45;&gt;/Users/mmoscato/nasa/pvslib/pvslib&#45;gitlab__pvs7.0/ints</title>
<path fill="none" stroke="#000000" d="M342.4046,-233.8738C342.4046,-179.4177 342.4046,-21 342.4046,-21 342.4046,-21 108.0156,-21 108.0156,-21"/>
<polygon fill="#000000" stroke="#000000" points="108.0156,-17.5001 98.0156,-21 108.0155,-24.5001 108.0156,-17.5001"/>
</g>
<!-- /Users/mmoscato/nasa/pvslib/pvslib&#45;gitlab__pvs7.0/sets_aux&#45;&gt;/Users/mmoscato/nasa/pvslib/pvslib&#45;gitlab__pvs7.0/orders -->
<g id="edge39" class="edge">
<title>/Users/mmoscato/nasa/pvslib/pvslib&#45;gitlab__pvs7.0/sets_aux&#45;&gt;/Users/mmoscato/nasa/pvslib/pvslib&#45;gitlab__pvs7.0/orders</title>
<path fill="none" stroke="#000000" d="M301.4465,-233.7079C301.4465,-233.7079 301.4465,-206.0817 301.4465,-206.0817"/>
<polygon fill="#000000" stroke="#000000" points="304.9466,-206.0817 301.4465,-196.0817 297.9466,-206.0818 304.9466,-206.0817"/>
</g>
<!-- /Users/mmoscato/nasa/pvslib/pvslib&#45;gitlab__pvs7.0/sets_aux&#45;&gt;/Users/mmoscato/nasa/pvslib/pvslib&#45;gitlab__pvs7.0/structures -->
<g id="edge40" class="edge">
<title>/Users/mmoscato/nasa/pvslib/pvslib&#45;gitlab__pvs7.0/sets_aux&#45;&gt;/Users/mmoscato/nasa/pvslib/pvslib&#45;gitlab__pvs7.0/structures</title>
<path fill="none" stroke="#000000" d="M324.7023,-233.8042C324.7023,-194.6663 324.7023,-106 324.7023,-106 324.7023,-106 116.2762,-106 116.2762,-106"/>
<polygon fill="#000000" stroke="#000000" points="116.2763,-102.5001 106.2762,-106 116.2762,-109.5001 116.2763,-102.5001"/>
</g>
<!-- /Users/mmoscato/nasa/pvslib/pvslib&#45;gitlab__pvs7.0/structures&#45;&gt;/Users/mmoscato/nasa/pvslib/pvslib&#45;gitlab__pvs7.0/ints -->
<g id="edge41" class="edge">
<title>/Users/mmoscato/nasa/pvslib/pvslib&#45;gitlab__pvs7.0/structures&#45;&gt;/Users/mmoscato/nasa/pvslib/pvslib&#45;gitlab__pvs7.0/ints</title>
<path fill="none" stroke="#000000" d="M71,-87.8314C71,-87.8314 71,-62.4133 71,-62.4133"/>
<polygon fill="#000000" stroke="#000000" points="74.5001,-62.4132 71,-52.4133 67.5001,-62.4133 74.5001,-62.4132"/>
</g>
<!-- /Users/mmoscato/nasa/pvslib/pvslib&#45;gitlab__pvs7.0/topology&#45;&gt;/Users/mmoscato/nasa/pvslib/pvslib&#45;gitlab__pvs7.0/orders -->
<g id="edge42" class="edge">
<title>/Users/mmoscato/nasa/pvslib/pvslib&#45;gitlab__pvs7.0/topology&#45;&gt;/Users/mmoscato/nasa/pvslib/pvslib&#45;gitlab__pvs7.0/orders</title>
<path fill="none" stroke="#000000" d="M290.9474,-305.8042C290.9474,-305.8042 290.9474,-206.4251 290.9474,-206.4251"/>
<polygon fill="#000000" stroke="#000000" points="294.4475,-206.4251 290.9474,-196.4251 287.4475,-206.4251 294.4475,-206.4251"/>
</g>
<!-- /Users/mmoscato/nasa/pvslib/pvslib&#45;gitlab__pvs7.0/topology&#45;&gt;/Users/mmoscato/nasa/pvslib/pvslib&#45;gitlab__pvs7.0/reals -->
<g id="edge43" class="edge">
<title>/Users/mmoscato/nasa/pvslib/pvslib&#45;gitlab__pvs7.0/topology&#45;&gt;/Users/mmoscato/nasa/pvslib/pvslib&#45;gitlab__pvs7.0/reals</title>
<path fill="none" stroke="#000000" d="M286.0017,-305.875C286.0017,-273.25 286.0017,-208 286.0017,-208 286.0017,-208 145.4827,-208 145.4827,-208 145.4827,-208 145.4827,-206.1432 145.4827,-206.1432"/>
<polygon fill="#000000" stroke="#000000" points="148.9828,-206.1432 145.4827,-196.1432 141.9828,-206.1432 148.9828,-206.1432"/>
</g>
<!-- /Users/mmoscato/nasa/pvslib/pvslib&#45;gitlab__pvs7.0/topology&#45;&gt;/Users/mmoscato/nasa/pvslib/pvslib&#45;gitlab__pvs7.0/sets_aux -->
<g id="edge44" class="edge">
<title>/Users/mmoscato/nasa/pvslib/pvslib&#45;gitlab__pvs7.0/topology&#45;&gt;/Users/mmoscato/nasa/pvslib/pvslib&#45;gitlab__pvs7.0/sets_aux</title>
<path fill="none" stroke="#000000" d="M318.8914,-305.8314C318.8914,-305.8314 318.8914,-280.4133 318.8914,-280.4133"/>
<polygon fill="#000000" stroke="#000000" points="322.3915,-280.4132 318.8914,-270.4133 315.3915,-280.4133 322.3915,-280.4132"/>
</g>
<!-- /Users/mmoscato/nasa/pvslib/pvslib&#45;gitlab__pvs7.0/topology&#45;&gt;/Users/mmoscato/nasa/pvslib/pvslib&#45;gitlab__pvs7.0/structures -->
<g id="edge45" class="edge">
<title>/Users/mmoscato/nasa/pvslib/pvslib&#45;gitlab__pvs7.0/topology&#45;&gt;/Users/mmoscato/nasa/pvslib/pvslib&#45;gitlab__pvs7.0/structures</title>
<path fill="none" stroke="#000000" d="M281.056,-305.8408C281.056,-300.9567 281.056,-297 281.056,-297 281.056,-297 86.1116,-297 86.1116,-297 86.1116,-297 86.1116,-134.3139 86.1116,-134.3139"/>
<polygon fill="#000000" stroke="#000000" points="89.6117,-134.3138 86.1116,-124.3139 82.6117,-134.3139 89.6117,-134.3138"/>
</g>
<!-- /Users/mmoscato/nasa/pvslib/pvslib&#45;gitlab__pvs7.0/topology&#45;&gt;/Users/mmoscato/pvs/7.1&#45;0&#45;g3fb4f25&#45;ix86&#45;MacOSX&#45;allegro/lib/finite_sets -->
<g id="edge46" class="edge">
<title>/Users/mmoscato/nasa/pvslib/pvslib&#45;gitlab__pvs7.0/topology&#45;&gt;/Users/mmoscato/pvs/7.1&#45;0&#45;g3fb4f25&#45;ix86&#45;MacOSX&#45;allegro/lib/finite_sets</title>
<path fill="none" stroke="#000000" d="M341.8764,-324C381.2615,-324 442,-324 442,-324 442,-324 442,-206.1958 442,-206.1958"/>
<polygon fill="#000000" stroke="#000000" points="445.5001,-206.1958 442,-196.1958 438.5001,-206.1958 445.5001,-206.1958"/>
</g>
<!-- /Users/mmoscato/nasa/pvslib/pvslib&#45;gitlab__pvs7.0/vectors&#45;&gt;/Users/mmoscato/nasa/pvslib/pvslib&#45;gitlab__pvs7.0/analysis -->
<g id="edge47" class="edge">
<title>/Users/mmoscato/nasa/pvslib/pvslib&#45;gitlab__pvs7.0/vectors&#45;&gt;/Users/mmoscato/nasa/pvslib/pvslib&#45;gitlab__pvs7.0/analysis</title>
<path fill="none" stroke="#000000" d="M182.4808,-390C176.9621,-390 172.8552,-390 172.8552,-390 172.8552,-390 172.8552,-280.0411 172.8552,-280.0411"/>
<polygon fill="#000000" stroke="#000000" points="176.3553,-280.0411 172.8552,-270.0411 169.3553,-280.0411 176.3553,-280.0411"/>
</g>
<!-- /Users/mmoscato/nasa/pvslib/pvslib&#45;gitlab__pvs7.0/vectors&#45;&gt;/Users/mmoscato/nasa/pvslib/pvslib&#45;gitlab__pvs7.0/ints -->
<g id="edge48" class="edge">
<title>/Users/mmoscato/nasa/pvslib/pvslib&#45;gitlab__pvs7.0/vectors&#45;&gt;/Users/mmoscato/nasa/pvslib/pvslib&#45;gitlab__pvs7.0/ints</title>
<path fill="none" stroke="#000000" d="M239.338,-405C243.3299,-405 246.1069,-405 246.1069,-405 246.1069,-405 246.1069,-28 246.1069,-28 246.1069,-28 108.3605,-28 108.3605,-28"/>
<polygon fill="#000000" stroke="#000000" points="108.3605,-24.5001 98.3605,-28 108.3604,-31.5001 108.3605,-24.5001"/>
</g>
<!-- /Users/mmoscato/nasa/pvslib/pvslib&#45;gitlab__pvs7.0/vectors&#45;&gt;/Users/mmoscato/nasa/pvslib/pvslib&#45;gitlab__pvs7.0/orders -->
<g id="edge49" class="edge">
<title>/Users/mmoscato/nasa/pvslib/pvslib&#45;gitlab__pvs7.0/vectors&#45;&gt;/Users/mmoscato/nasa/pvslib/pvslib&#45;gitlab__pvs7.0/orders</title>
<path fill="none" stroke="#000000" d="M239.2604,-387C253.117,-387 266.8662,-387 266.8662,-387 266.8662,-387 266.8662,-206.1818 266.8662,-206.1818"/>
<polygon fill="#000000" stroke="#000000" points="270.3663,-206.1817 266.8662,-196.1818 263.3663,-206.1818 270.3663,-206.1817"/>
</g>
<!-- /Users/mmoscato/nasa/pvslib/pvslib&#45;gitlab__pvs7.0/vectors&#45;&gt;/Users/mmoscato/nasa/pvslib/pvslib&#45;gitlab__pvs7.0/reals -->
<g id="edge50" class="edge">
<title>/Users/mmoscato/nasa/pvslib/pvslib&#45;gitlab__pvs7.0/vectors&#45;&gt;/Users/mmoscato/nasa/pvslib/pvslib&#45;gitlab__pvs7.0/reals</title>
<path fill="none" stroke="#000000" d="M211,-377.9445C211,-366.561 211,-354 211,-354 211,-354 116.2241,-354 116.2241,-354 116.2241,-354 116.2241,-206.1722 116.2241,-206.1722"/>
<polygon fill="#000000" stroke="#000000" points="119.7242,-206.1722 116.2241,-196.1722 112.7242,-206.1722 119.7242,-206.1722"/>
</g>
<!-- /Users/mmoscato/nasa/pvslib/pvslib&#45;gitlab__pvs7.0/vectors&#45;&gt;/Users/mmoscato/nasa/pvslib/pvslib&#45;gitlab__pvs7.0/series -->
<g id="edge51" class="edge">
<title>/Users/mmoscato/nasa/pvslib/pvslib&#45;gitlab__pvs7.0/vectors&#45;&gt;/Users/mmoscato/nasa/pvslib/pvslib&#45;gitlab__pvs7.0/series</title>
<path fill="none" stroke="#000000" d="M224.5,-377.8314C224.5,-377.8314 224.5,-352.4133 224.5,-352.4133"/>
<polygon fill="#000000" stroke="#000000" points="228.0001,-352.4132 224.5,-342.4133 221.0001,-352.4133 228.0001,-352.4132"/>
</g>
<!-- /Users/mmoscato/nasa/pvslib/pvslib&#45;gitlab__pvs7.0/vectors&#45;&gt;/Users/mmoscato/nasa/pvslib/pvslib&#45;gitlab__pvs7.0/structures -->
<g id="edge52" class="edge">
<title>/Users/mmoscato/nasa/pvslib/pvslib&#45;gitlab__pvs7.0/vectors&#45;&gt;/Users/mmoscato/nasa/pvslib/pvslib&#45;gitlab__pvs7.0/structures</title>
<path fill="none" stroke="#000000" d="M197.5,-377.8568C197.5,-371.5389 197.5,-366 197.5,-366 197.5,-366 81.2231,-366 81.2231,-366 81.2231,-366 81.2231,-134.2827 81.2231,-134.2827"/>
<polygon fill="#000000" stroke="#000000" points="84.7232,-134.2827 81.2231,-124.2827 77.7232,-134.2827 84.7232,-134.2827"/>
</g>
<!-- /Users/mmoscato/nasa/pvslib/pvslib&#45;gitlab__pvs7.0/vectors&#45;&gt;/Users/mmoscato/pvs/7.1&#45;0&#45;g3fb4f25&#45;ix86&#45;MacOSX&#45;allegro/lib/finite_sets -->
<g id="edge53" class="edge">
<title>/Users/mmoscato/nasa/pvslib/pvslib&#45;gitlab__pvs7.0/vectors&#45;&gt;/Users/mmoscato/pvs/7.1&#45;0&#45;g3fb4f25&#45;ix86&#45;MacOSX&#45;allegro/lib/finite_sets</title>
<path fill="none" stroke="#000000" d="M239.4852,-396C303.0845,-396 451.0974,-396 451.0974,-396 451.0974,-396 451.0974,-206.2116 451.0974,-206.2116"/>
<polygon fill="#000000" stroke="#000000" points="454.5975,-206.2116 451.0974,-196.2116 447.5975,-206.2116 454.5975,-206.2116"/>
</g>
</g>
</svg>
