<?xml version="1.0" encoding="UTF-8" standalone="no"?>
<!DOCTYPE svg PUBLIC "-//W3C//DTD SVG 1.1//EN"
 "http://www.w3.org/Graphics/SVG/1.1/DTD/svg11.dtd">
<!-- Generated by graphviz version 2.40.1 (20161225.0304)
 -->
<!-- Title: sigma_set Pages: 1 -->
<svg width="340pt" height="316pt"
 viewBox="0.00 0.00 340.00 316.00" xmlns="http://www.w3.org/2000/svg" xmlns:xlink="http://www.w3.org/1999/xlink">
<g id="graph0" class="graph" transform="scale(1 1) rotate(0) translate(4 312)">
<title>sigma_set</title>
<polygon fill="#ffffff" stroke="transparent" points="-4,4 -4,-312 336,-312 336,4 -4,4"/>
<g id="clust1" class="cluster">
<title>cluster_NASALib</title>
<polygon fill="none" stroke="#000000" points="8,-8 8,-300 228,-300 228,-8 8,-8"/>
<text text-anchor="middle" x="118" y="-284.8" font-family="Times,serif" font-size="14.00" fill="#000000">NASALib</text>
</g>
<g id="clust2" class="cluster">
<title>cluster_PVS Prelude</title>
<polygon fill="none" stroke="#000000" points="236,-8 236,-82 324,-82 324,-8 236,-8"/>
<text text-anchor="middle" x="280" y="-66.8" font-family="Times,serif" font-size="14.00" fill="#000000">PVS Prelude</text>
</g>
<!-- /Users/mmoscato/nasa/pvslib/pvslib&#45;gitlab__pvs7.0/analysis -->
<g id="node1" class="node">
<title>/Users/mmoscato/nasa/pvslib/pvslib&#45;gitlab__pvs7.0/analysis</title>
<polygon fill="#fcfcd7" stroke="#000000" points="199.6036,-126 138.3964,-126 138.3964,-90 199.6036,-90 199.6036,-126"/>
<text text-anchor="middle" x="169" y="-103.8" font-family="Times,serif" font-size="14.00" fill="#000000">analysis</text>
</g>
<!-- /Users/mmoscato/nasa/pvslib/pvslib&#45;gitlab__pvs7.0/orders -->
<g id="node2" class="node">
<title>/Users/mmoscato/nasa/pvslib/pvslib&#45;gitlab__pvs7.0/orders</title>
<polygon fill="#fcfcd7" stroke="#000000" points="109,-52 55,-52 55,-16 109,-16 109,-52"/>
<text text-anchor="middle" x="82" y="-29.8" font-family="Times,serif" font-size="14.00" fill="#000000">orders</text>
</g>
<!-- /Users/mmoscato/nasa/pvslib/pvslib&#45;gitlab__pvs7.0/analysis&#45;&gt;/Users/mmoscato/nasa/pvslib/pvslib&#45;gitlab__pvs7.0/orders -->
<g id="edge1" class="edge">
<title>/Users/mmoscato/nasa/pvslib/pvslib&#45;gitlab__pvs7.0/analysis&#45;&gt;/Users/mmoscato/nasa/pvslib/pvslib&#45;gitlab__pvs7.0/orders</title>
<path fill="none" stroke="#000000" d="M138.2529,-102C122.5766,-102 106.7767,-102 106.7767,-102 106.7767,-102 106.7767,-62.2228 106.7767,-62.2228"/>
<polygon fill="#000000" stroke="#000000" points="110.2768,-62.2227 106.7767,-52.2228 103.2768,-62.2228 110.2768,-62.2227"/>
</g>
<!-- /Users/mmoscato/nasa/pvslib/pvslib&#45;gitlab__pvs7.0/reals -->
<g id="node3" class="node">
<title>/Users/mmoscato/nasa/pvslib/pvslib&#45;gitlab__pvs7.0/reals</title>
<polygon fill="#fcfcd7" stroke="#000000" points="208,-52 154,-52 154,-16 208,-16 208,-52"/>
<text text-anchor="middle" x="181" y="-29.8" font-family="Times,serif" font-size="14.00" fill="#000000">reals</text>
</g>
<!-- /Users/mmoscato/nasa/pvslib/pvslib&#45;gitlab__pvs7.0/analysis&#45;&gt;/Users/mmoscato/nasa/pvslib/pvslib&#45;gitlab__pvs7.0/reals -->
<g id="edge2" class="edge">
<title>/Users/mmoscato/nasa/pvslib/pvslib&#45;gitlab__pvs7.0/analysis&#45;&gt;/Users/mmoscato/nasa/pvslib/pvslib&#45;gitlab__pvs7.0/reals</title>
<path fill="none" stroke="#000000" d="M176.7759,-89.7079C176.7759,-89.7079 176.7759,-62.0817 176.7759,-62.0817"/>
<polygon fill="#000000" stroke="#000000" points="180.276,-62.0817 176.7759,-52.0817 173.276,-62.0818 180.276,-62.0817"/>
</g>
<!-- /Users/mmoscato/pvs/7.1&#45;0&#45;g3fb4f25&#45;ix86&#45;MacOSX&#45;allegro/lib/finite_sets -->
<g id="node7" class="node">
<title>/Users/mmoscato/pvs/7.1&#45;0&#45;g3fb4f25&#45;ix86&#45;MacOSX&#45;allegro/lib/finite_sets</title>
<polygon fill="#fcfcd7" stroke="#000000" points="316.2796,-52 243.7204,-52 243.7204,-16 316.2796,-16 316.2796,-52"/>
<text text-anchor="middle" x="280" y="-29.8" font-family="Times,serif" font-size="14.00" fill="#000000">finite_sets</text>
</g>
<!-- /Users/mmoscato/nasa/pvslib/pvslib&#45;gitlab__pvs7.0/analysis&#45;&gt;/Users/mmoscato/pvs/7.1&#45;0&#45;g3fb4f25&#45;ix86&#45;MacOSX&#45;allegro/lib/finite_sets -->
<g id="edge3" class="edge">
<title>/Users/mmoscato/nasa/pvslib/pvslib&#45;gitlab__pvs7.0/analysis&#45;&gt;/Users/mmoscato/pvs/7.1&#45;0&#45;g3fb4f25&#45;ix86&#45;MacOSX&#45;allegro/lib/finite_sets</title>
<path fill="none" stroke="#000000" d="M199.6451,-108C226.6772,-108 261.8052,-108 261.8052,-108 261.8052,-108 261.8052,-62.2921 261.8052,-62.2921"/>
<polygon fill="#000000" stroke="#000000" points="265.3053,-62.2921 261.8052,-52.2921 258.3053,-62.2922 265.3053,-62.2921"/>
</g>
<!-- /Users/mmoscato/nasa/pvslib/pvslib&#45;gitlab__pvs7.0/series -->
<g id="node4" class="node">
<title>/Users/mmoscato/nasa/pvslib/pvslib&#45;gitlab__pvs7.0/series</title>
<polygon fill="#fcfcd7" stroke="#000000" points="196,-198 142,-198 142,-162 196,-162 196,-198"/>
<text text-anchor="middle" x="169" y="-175.8" font-family="Times,serif" font-size="14.00" fill="#000000">series</text>
</g>
<!-- /Users/mmoscato/nasa/pvslib/pvslib&#45;gitlab__pvs7.0/series&#45;&gt;/Users/mmoscato/nasa/pvslib/pvslib&#45;gitlab__pvs7.0/analysis -->
<g id="edge4" class="edge">
<title>/Users/mmoscato/nasa/pvslib/pvslib&#45;gitlab__pvs7.0/series&#45;&gt;/Users/mmoscato/nasa/pvslib/pvslib&#45;gitlab__pvs7.0/analysis</title>
<path fill="none" stroke="#000000" d="M169,-161.8314C169,-161.8314 169,-136.4133 169,-136.4133"/>
<polygon fill="#000000" stroke="#000000" points="172.5001,-136.4132 169,-126.4133 165.5001,-136.4133 172.5001,-136.4132"/>
</g>
<!-- /Users/mmoscato/nasa/pvslib/pvslib&#45;gitlab__pvs7.0/series&#45;&gt;/Users/mmoscato/nasa/pvslib/pvslib&#45;gitlab__pvs7.0/orders -->
<g id="edge5" class="edge">
<title>/Users/mmoscato/nasa/pvslib/pvslib&#45;gitlab__pvs7.0/series&#45;&gt;/Users/mmoscato/nasa/pvslib/pvslib&#45;gitlab__pvs7.0/orders</title>
<path fill="none" stroke="#000000" d="M141.6689,-180C124.104,-180 104.5535,-180 104.5535,-180 104.5535,-180 104.5535,-62.1958 104.5535,-62.1958"/>
<polygon fill="#000000" stroke="#000000" points="108.0536,-62.1958 104.5535,-52.1958 101.0536,-62.1958 108.0536,-62.1958"/>
</g>
<!-- /Users/mmoscato/nasa/pvslib/pvslib&#45;gitlab__pvs7.0/series&#45;&gt;/Users/mmoscato/nasa/pvslib/pvslib&#45;gitlab__pvs7.0/reals -->
<g id="edge6" class="edge">
<title>/Users/mmoscato/nasa/pvslib/pvslib&#45;gitlab__pvs7.0/series&#45;&gt;/Users/mmoscato/nasa/pvslib/pvslib&#45;gitlab__pvs7.0/reals</title>
<path fill="none" stroke="#000000" d="M196.2222,-174C208.3169,-174 219.8701,-174 219.8701,-174 219.8701,-174 219.8701,-40 219.8701,-40 219.8701,-40 218.418,-40 218.418,-40"/>
<polygon fill="#000000" stroke="#000000" points="218.4181,-36.5001 208.418,-40 218.418,-43.5001 218.4181,-36.5001"/>
</g>
<!-- /Users/mmoscato/nasa/pvslib/pvslib&#45;gitlab__pvs7.0/series&#45;&gt;/Users/mmoscato/pvs/7.1&#45;0&#45;g3fb4f25&#45;ix86&#45;MacOSX&#45;allegro/lib/finite_sets -->
<g id="edge7" class="edge">
<title>/Users/mmoscato/nasa/pvslib/pvslib&#45;gitlab__pvs7.0/series&#45;&gt;/Users/mmoscato/pvs/7.1&#45;0&#45;g3fb4f25&#45;ix86&#45;MacOSX&#45;allegro/lib/finite_sets</title>
<path fill="none" stroke="#000000" d="M196.1537,-186C229.015,-186 280,-186 280,-186 280,-186 280,-62.0333 280,-62.0333"/>
<polygon fill="#000000" stroke="#000000" points="283.5001,-62.0333 280,-52.0333 276.5001,-62.0333 283.5001,-62.0333"/>
</g>
<!-- /Users/mmoscato/nasa/pvslib/pvslib&#45;gitlab__pvs7.0/sets_aux -->
<g id="node5" class="node">
<title>/Users/mmoscato/nasa/pvslib/pvslib&#45;gitlab__pvs7.0/sets_aux</title>
<polygon fill="#fcfcd7" stroke="#000000" points="100.2142,-126 35.7858,-126 35.7858,-90 100.2142,-90 100.2142,-126"/>
<text text-anchor="middle" x="68" y="-103.8" font-family="Times,serif" font-size="14.00" fill="#000000">sets_aux</text>
</g>
<!-- /Users/mmoscato/nasa/pvslib/pvslib&#45;gitlab__pvs7.0/sets_aux&#45;&gt;/Users/mmoscato/nasa/pvslib/pvslib&#45;gitlab__pvs7.0/orders -->
<g id="edge8" class="edge">
<title>/Users/mmoscato/nasa/pvslib/pvslib&#45;gitlab__pvs7.0/sets_aux&#45;&gt;/Users/mmoscato/nasa/pvslib/pvslib&#45;gitlab__pvs7.0/orders</title>
<path fill="none" stroke="#000000" d="M77.5535,-89.7079C77.5535,-89.7079 77.5535,-62.0817 77.5535,-62.0817"/>
<polygon fill="#000000" stroke="#000000" points="81.0536,-62.0817 77.5535,-52.0817 74.0536,-62.0818 81.0536,-62.0817"/>
</g>
<!-- /Users/mmoscato/nasa/pvslib/pvslib&#45;gitlab__pvs7.0/sigma_set -->
<g id="node6" class="node">
<title>/Users/mmoscato/nasa/pvslib/pvslib&#45;gitlab__pvs7.0/sigma_set</title>
<polygon fill="#f7e28d" stroke="#000000" points="204.9932,-270 133.0068,-270 133.0068,-234 204.9932,-234 204.9932,-270"/>
<text text-anchor="middle" x="169" y="-247.8" font-family="Times,serif" font-size="14.00" fill="#000000">sigma_set</text>
</g>
<!-- /Users/mmoscato/nasa/pvslib/pvslib&#45;gitlab__pvs7.0/sigma_set&#45;&gt;/Users/mmoscato/nasa/pvslib/pvslib&#45;gitlab__pvs7.0/analysis -->
<g id="edge9" class="edge">
<title>/Users/mmoscato/nasa/pvslib/pvslib&#45;gitlab__pvs7.0/sigma_set&#45;&gt;/Users/mmoscato/nasa/pvslib/pvslib&#45;gitlab__pvs7.0/analysis</title>
<path fill="none" stroke="#000000" d="M132.6208,-243C125.9263,-243 121.0017,-243 121.0017,-243 121.0017,-243 121.0017,-114 121.0017,-114 121.0017,-114 128.3302,-114 128.3302,-114"/>
<polygon fill="#000000" stroke="#000000" points="128.3302,-117.5001 138.3302,-114 128.3302,-110.5001 128.3302,-117.5001"/>
</g>
<!-- /Users/mmoscato/nasa/pvslib/pvslib&#45;gitlab__pvs7.0/sigma_set&#45;&gt;/Users/mmoscato/nasa/pvslib/pvslib&#45;gitlab__pvs7.0/orders -->
<g id="edge10" class="edge">
<title>/Users/mmoscato/nasa/pvslib/pvslib&#45;gitlab__pvs7.0/sigma_set&#45;&gt;/Users/mmoscato/nasa/pvslib/pvslib&#45;gitlab__pvs7.0/orders</title>
<path fill="none" stroke="#000000" d="M132.9333,-252C117.2245,-252 102.3302,-252 102.3302,-252 102.3302,-252 102.3302,-62.2116 102.3302,-62.2116"/>
<polygon fill="#000000" stroke="#000000" points="105.8303,-62.2116 102.3302,-52.2116 98.8303,-62.2116 105.8303,-62.2116"/>
</g>
<!-- /Users/mmoscato/nasa/pvslib/pvslib&#45;gitlab__pvs7.0/sigma_set&#45;&gt;/Users/mmoscato/nasa/pvslib/pvslib&#45;gitlab__pvs7.0/reals -->
<g id="edge11" class="edge">
<title>/Users/mmoscato/nasa/pvslib/pvslib&#45;gitlab__pvs7.0/sigma_set&#45;&gt;/Users/mmoscato/nasa/pvslib/pvslib&#45;gitlab__pvs7.0/reals</title>
<path fill="none" stroke="#000000" d="M205.1327,-246C219.0794,-246 231.7402,-246 231.7402,-246 231.7402,-246 231.7402,-28 231.7402,-28 231.7402,-28 218.1526,-28 218.1526,-28"/>
<polygon fill="#000000" stroke="#000000" points="218.1527,-24.5001 208.1526,-28 218.1526,-31.5001 218.1527,-24.5001"/>
</g>
<!-- /Users/mmoscato/nasa/pvslib/pvslib&#45;gitlab__pvs7.0/sigma_set&#45;&gt;/Users/mmoscato/nasa/pvslib/pvslib&#45;gitlab__pvs7.0/series -->
<g id="edge12" class="edge">
<title>/Users/mmoscato/nasa/pvslib/pvslib&#45;gitlab__pvs7.0/sigma_set&#45;&gt;/Users/mmoscato/nasa/pvslib/pvslib&#45;gitlab__pvs7.0/series</title>
<path fill="none" stroke="#000000" d="M169,-233.8314C169,-233.8314 169,-208.4133 169,-208.4133"/>
<polygon fill="#000000" stroke="#000000" points="172.5001,-208.4132 169,-198.4133 165.5001,-208.4133 172.5001,-208.4132"/>
</g>
<!-- /Users/mmoscato/nasa/pvslib/pvslib&#45;gitlab__pvs7.0/sigma_set&#45;&gt;/Users/mmoscato/nasa/pvslib/pvslib&#45;gitlab__pvs7.0/sets_aux -->
<g id="edge13" class="edge">
<title>/Users/mmoscato/nasa/pvslib/pvslib&#45;gitlab__pvs7.0/sigma_set&#45;&gt;/Users/mmoscato/nasa/pvslib/pvslib&#45;gitlab__pvs7.0/sets_aux</title>
<path fill="none" stroke="#000000" d="M132.822,-261C103.8411,-261 68,-261 68,-261 68,-261 68,-136.1519 68,-136.1519"/>
<polygon fill="#000000" stroke="#000000" points="71.5001,-136.1519 68,-126.1519 64.5001,-136.152 71.5001,-136.1519"/>
</g>
<!-- /Users/mmoscato/nasa/pvslib/pvslib&#45;gitlab__pvs7.0/sigma_set&#45;&gt;/Users/mmoscato/pvs/7.1&#45;0&#45;g3fb4f25&#45;ix86&#45;MacOSX&#45;allegro/lib/finite_sets -->
<g id="edge14" class="edge">
<title>/Users/mmoscato/nasa/pvslib/pvslib&#45;gitlab__pvs7.0/sigma_set&#45;&gt;/Users/mmoscato/pvs/7.1&#45;0&#45;g3fb4f25&#45;ix86&#45;MacOSX&#45;allegro/lib/finite_sets</title>
<path fill="none" stroke="#000000" d="M205.3318,-258C243.5444,-258 298.1948,-258 298.1948,-258 298.1948,-258 298.1948,-62.3309 298.1948,-62.3309"/>
<polygon fill="#000000" stroke="#000000" points="301.6949,-62.3308 298.1948,-52.3309 294.6949,-62.3309 301.6949,-62.3308"/>
</g>
</g>
</svg>
