<?xml version="1.0" encoding="UTF-8" standalone="no"?>
<!DOCTYPE svg PUBLIC "-//W3C//DTD SVG 1.1//EN"
 "http://www.w3.org/Graphics/SVG/1.1/DTD/svg11.dtd">
<!-- Generated by graphviz version 2.40.1 (20161225.0304)
 -->
<!-- Title: scott Pages: 1 -->
<svg width="336pt" height="316pt"
 viewBox="0.00 0.00 336.00 316.00" xmlns="http://www.w3.org/2000/svg" xmlns:xlink="http://www.w3.org/1999/xlink">
<g id="graph0" class="graph" transform="scale(1 1) rotate(0) translate(4 312)">
<title>scott</title>
<polygon fill="#ffffff" stroke="transparent" points="-4,4 -4,-312 332,-312 332,4 -4,4"/>
<g id="clust1" class="cluster">
<title>cluster_NASALib</title>
<polygon fill="none" stroke="#000000" points="8,-8 8,-300 224,-300 224,-8 8,-8"/>
<text text-anchor="middle" x="116" y="-284.8" font-family="Times,serif" font-size="14.00" fill="#000000">NASALib</text>
</g>
<g id="clust2" class="cluster">
<title>cluster_PVS Prelude</title>
<polygon fill="none" stroke="#000000" points="232,-80 232,-154 320,-154 320,-80 232,-80"/>
<text text-anchor="middle" x="276" y="-138.8" font-family="Times,serif" font-size="14.00" fill="#000000">PVS Prelude</text>
</g>
<!-- /Users/mmoscato/nasa/pvslib/pvslib&#45;gitlab__pvs7.0/algebra -->
<g id="node1" class="node">
<title>/Users/mmoscato/nasa/pvslib/pvslib&#45;gitlab__pvs7.0/algebra</title>
<polygon fill="#fcfcd7" stroke="#000000" points="215.6937,-198 158.3063,-198 158.3063,-162 215.6937,-162 215.6937,-198"/>
<text text-anchor="middle" x="187" y="-175.8" font-family="Times,serif" font-size="14.00" fill="#000000">algebra</text>
</g>
<!-- /Users/mmoscato/pvs/7.1&#45;0&#45;g3fb4f25&#45;ix86&#45;MacOSX&#45;allegro/lib/finite_sets -->
<g id="node7" class="node">
<title>/Users/mmoscato/pvs/7.1&#45;0&#45;g3fb4f25&#45;ix86&#45;MacOSX&#45;allegro/lib/finite_sets</title>
<polygon fill="#fcfcd7" stroke="#000000" points="312.2796,-124 239.7204,-124 239.7204,-88 312.2796,-88 312.2796,-124"/>
<text text-anchor="middle" x="276" y="-101.8" font-family="Times,serif" font-size="14.00" fill="#000000">finite_sets</text>
</g>
<!-- /Users/mmoscato/nasa/pvslib/pvslib&#45;gitlab__pvs7.0/algebra&#45;&gt;/Users/mmoscato/pvs/7.1&#45;0&#45;g3fb4f25&#45;ix86&#45;MacOSX&#45;allegro/lib/finite_sets -->
<g id="edge1" class="edge">
<title>/Users/mmoscato/nasa/pvslib/pvslib&#45;gitlab__pvs7.0/algebra&#45;&gt;/Users/mmoscato/pvs/7.1&#45;0&#45;g3fb4f25&#45;ix86&#45;MacOSX&#45;allegro/lib/finite_sets</title>
<path fill="none" stroke="#000000" d="M187,-161.7157C187,-140.6789 187,-109 187,-109 187,-109 229.5435,-109 229.5435,-109"/>
<polygon fill="#000000" stroke="#000000" points="229.5435,-112.5001 239.5435,-109 229.5435,-105.5001 229.5435,-112.5001"/>
</g>
<!-- /Users/mmoscato/nasa/pvslib/pvslib&#45;gitlab__pvs7.0/orders -->
<g id="node2" class="node">
<title>/Users/mmoscato/nasa/pvslib/pvslib&#45;gitlab__pvs7.0/orders</title>
<polygon fill="#fcfcd7" stroke="#000000" points="70,-52 16,-52 16,-16 70,-16 70,-52"/>
<text text-anchor="middle" x="43" y="-29.8" font-family="Times,serif" font-size="14.00" fill="#000000">orders</text>
</g>
<!-- /Users/mmoscato/nasa/pvslib/pvslib&#45;gitlab__pvs7.0/scott -->
<g id="node3" class="node">
<title>/Users/mmoscato/nasa/pvslib/pvslib&#45;gitlab__pvs7.0/scott</title>
<polygon fill="#f7e28d" stroke="#000000" points="166,-270 112,-270 112,-234 166,-234 166,-270"/>
<text text-anchor="middle" x="139" y="-247.8" font-family="Times,serif" font-size="14.00" fill="#000000">scott</text>
</g>
<!-- /Users/mmoscato/nasa/pvslib/pvslib&#45;gitlab__pvs7.0/scott&#45;&gt;/Users/mmoscato/nasa/pvslib/pvslib&#45;gitlab__pvs7.0/algebra -->
<g id="edge2" class="edge">
<title>/Users/mmoscato/nasa/pvslib/pvslib&#45;gitlab__pvs7.0/scott&#45;&gt;/Users/mmoscato/nasa/pvslib/pvslib&#45;gitlab__pvs7.0/algebra</title>
<path fill="none" stroke="#000000" d="M162.2017,-233.8314C162.2017,-233.8314 162.2017,-208.4133 162.2017,-208.4133"/>
<polygon fill="#000000" stroke="#000000" points="165.7018,-208.4132 162.2017,-198.4133 158.7018,-208.4133 165.7018,-208.4132"/>
</g>
<!-- /Users/mmoscato/nasa/pvslib/pvslib&#45;gitlab__pvs7.0/scott&#45;&gt;/Users/mmoscato/nasa/pvslib/pvslib&#45;gitlab__pvs7.0/orders -->
<g id="edge3" class="edge">
<title>/Users/mmoscato/nasa/pvslib/pvslib&#45;gitlab__pvs7.0/scott&#45;&gt;/Users/mmoscato/nasa/pvslib/pvslib&#45;gitlab__pvs7.0/orders</title>
<path fill="none" stroke="#000000" d="M111.7166,-252C77.3215,-252 22.631,-252 22.631,-252 22.631,-252 22.631,-62.2116 22.631,-62.2116"/>
<polygon fill="#000000" stroke="#000000" points="26.1311,-62.2116 22.631,-52.2116 19.1311,-62.2116 26.1311,-62.2116"/>
</g>
<!-- /Users/mmoscato/nasa/pvslib/pvslib&#45;gitlab__pvs7.0/sets_aux -->
<g id="node4" class="node">
<title>/Users/mmoscato/nasa/pvslib/pvslib&#45;gitlab__pvs7.0/sets_aux</title>
<polygon fill="#fcfcd7" stroke="#000000" points="100.2142,-124 35.7858,-124 35.7858,-88 100.2142,-88 100.2142,-124"/>
<text text-anchor="middle" x="68" y="-101.8" font-family="Times,serif" font-size="14.00" fill="#000000">sets_aux</text>
</g>
<!-- /Users/mmoscato/nasa/pvslib/pvslib&#45;gitlab__pvs7.0/scott&#45;&gt;/Users/mmoscato/nasa/pvslib/pvslib&#45;gitlab__pvs7.0/sets_aux -->
<g id="edge4" class="edge">
<title>/Users/mmoscato/nasa/pvslib/pvslib&#45;gitlab__pvs7.0/scott&#45;&gt;/Users/mmoscato/nasa/pvslib/pvslib&#45;gitlab__pvs7.0/sets_aux</title>
<path fill="none" stroke="#000000" d="M129.4707,-233.9403C129.4707,-196.9456 129.4707,-116 129.4707,-116 129.4707,-116 110.1756,-116 110.1756,-116"/>
<polygon fill="#000000" stroke="#000000" points="110.1756,-112.5001 100.1756,-116 110.1756,-119.5001 110.1756,-112.5001"/>
</g>
<!-- /Users/mmoscato/nasa/pvslib/pvslib&#45;gitlab__pvs7.0/structures -->
<g id="node5" class="node">
<title>/Users/mmoscato/nasa/pvslib/pvslib&#45;gitlab__pvs7.0/structures</title>
<polygon fill="#fcfcd7" stroke="#000000" points="158.429,-52 87.571,-52 87.571,-16 158.429,-16 158.429,-52"/>
<text text-anchor="middle" x="123" y="-29.8" font-family="Times,serif" font-size="14.00" fill="#000000">structures</text>
</g>
<!-- /Users/mmoscato/nasa/pvslib/pvslib&#45;gitlab__pvs7.0/scott&#45;&gt;/Users/mmoscato/nasa/pvslib/pvslib&#45;gitlab__pvs7.0/structures -->
<g id="edge5" class="edge">
<title>/Users/mmoscato/nasa/pvslib/pvslib&#45;gitlab__pvs7.0/scott&#45;&gt;/Users/mmoscato/nasa/pvslib/pvslib&#45;gitlab__pvs7.0/structures</title>
<path fill="none" stroke="#000000" d="M139.0518,-233.7884C139.0518,-233.7884 139.0518,-62.0064 139.0518,-62.0064"/>
<polygon fill="#000000" stroke="#000000" points="142.5519,-62.0064 139.0518,-52.0064 135.5519,-62.0065 142.5519,-62.0064"/>
</g>
<!-- /Users/mmoscato/nasa/pvslib/pvslib&#45;gitlab__pvs7.0/topology -->
<g id="node6" class="node">
<title>/Users/mmoscato/nasa/pvslib/pvslib&#45;gitlab__pvs7.0/topology</title>
<polygon fill="#fcfcd7" stroke="#000000" points="119.7797,-198 54.2203,-198 54.2203,-162 119.7797,-162 119.7797,-198"/>
<text text-anchor="middle" x="87" y="-175.8" font-family="Times,serif" font-size="14.00" fill="#000000">topology</text>
</g>
<!-- /Users/mmoscato/nasa/pvslib/pvslib&#45;gitlab__pvs7.0/scott&#45;&gt;/Users/mmoscato/nasa/pvslib/pvslib&#45;gitlab__pvs7.0/topology -->
<g id="edge6" class="edge">
<title>/Users/mmoscato/nasa/pvslib/pvslib&#45;gitlab__pvs7.0/scott&#45;&gt;/Users/mmoscato/nasa/pvslib/pvslib&#45;gitlab__pvs7.0/topology</title>
<path fill="none" stroke="#000000" d="M115.9448,-233.8314C115.9448,-233.8314 115.9448,-208.4133 115.9448,-208.4133"/>
<polygon fill="#000000" stroke="#000000" points="119.4449,-208.4132 115.9448,-198.4133 112.4449,-208.4133 119.4449,-208.4132"/>
</g>
<!-- /Users/mmoscato/nasa/pvslib/pvslib&#45;gitlab__pvs7.0/scott&#45;&gt;/Users/mmoscato/pvs/7.1&#45;0&#45;g3fb4f25&#45;ix86&#45;MacOSX&#45;allegro/lib/finite_sets -->
<g id="edge7" class="edge">
<title>/Users/mmoscato/nasa/pvslib/pvslib&#45;gitlab__pvs7.0/scott&#45;&gt;/Users/mmoscato/pvs/7.1&#45;0&#45;g3fb4f25&#45;ix86&#45;MacOSX&#45;allegro/lib/finite_sets</title>
<path fill="none" stroke="#000000" d="M148.6328,-233.9065C148.6328,-194.0111 148.6328,-102 148.6328,-102 148.6328,-102 229.5017,-102 229.5017,-102"/>
<polygon fill="#000000" stroke="#000000" points="229.5017,-105.5001 239.5017,-102 229.5016,-98.5001 229.5017,-105.5001"/>
</g>
<!-- /Users/mmoscato/nasa/pvslib/pvslib&#45;gitlab__pvs7.0/sets_aux&#45;&gt;/Users/mmoscato/nasa/pvslib/pvslib&#45;gitlab__pvs7.0/orders -->
<g id="edge8" class="edge">
<title>/Users/mmoscato/nasa/pvslib/pvslib&#45;gitlab__pvs7.0/sets_aux&#45;&gt;/Users/mmoscato/nasa/pvslib/pvslib&#45;gitlab__pvs7.0/orders</title>
<path fill="none" stroke="#000000" d="M52.9465,-87.8314C52.9465,-87.8314 52.9465,-62.4133 52.9465,-62.4133"/>
<polygon fill="#000000" stroke="#000000" points="56.4466,-62.4132 52.9465,-52.4133 49.4466,-62.4133 56.4466,-62.4132"/>
</g>
<!-- /Users/mmoscato/nasa/pvslib/pvslib&#45;gitlab__pvs7.0/sets_aux&#45;&gt;/Users/mmoscato/nasa/pvslib/pvslib&#45;gitlab__pvs7.0/structures -->
<g id="edge9" class="edge">
<title>/Users/mmoscato/nasa/pvslib/pvslib&#45;gitlab__pvs7.0/sets_aux&#45;&gt;/Users/mmoscato/nasa/pvslib/pvslib&#45;gitlab__pvs7.0/structures</title>
<path fill="none" stroke="#000000" d="M93.9465,-87.8314C93.9465,-87.8314 93.9465,-62.4133 93.9465,-62.4133"/>
<polygon fill="#000000" stroke="#000000" points="97.4466,-62.4132 93.9465,-52.4133 90.4466,-62.4133 97.4466,-62.4132"/>
</g>
<!-- /Users/mmoscato/nasa/pvslib/pvslib&#45;gitlab__pvs7.0/topology&#45;&gt;/Users/mmoscato/nasa/pvslib/pvslib&#45;gitlab__pvs7.0/orders -->
<g id="edge10" class="edge">
<title>/Users/mmoscato/nasa/pvslib/pvslib&#45;gitlab__pvs7.0/topology&#45;&gt;/Users/mmoscato/nasa/pvslib/pvslib&#45;gitlab__pvs7.0/orders</title>
<path fill="none" stroke="#000000" d="M54.0832,-180C41.1169,-180 29.262,-180 29.262,-180 29.262,-180 29.262,-62.1958 29.262,-62.1958"/>
<polygon fill="#000000" stroke="#000000" points="32.7621,-62.1958 29.262,-52.1958 25.7621,-62.1958 32.7621,-62.1958"/>
</g>
<!-- /Users/mmoscato/nasa/pvslib/pvslib&#45;gitlab__pvs7.0/topology&#45;&gt;/Users/mmoscato/nasa/pvslib/pvslib&#45;gitlab__pvs7.0/sets_aux -->
<g id="edge11" class="edge">
<title>/Users/mmoscato/nasa/pvslib/pvslib&#45;gitlab__pvs7.0/topology&#45;&gt;/Users/mmoscato/nasa/pvslib/pvslib&#45;gitlab__pvs7.0/sets_aux</title>
<path fill="none" stroke="#000000" d="M77.1086,-161.7079C77.1086,-161.7079 77.1086,-134.0817 77.1086,-134.0817"/>
<polygon fill="#000000" stroke="#000000" points="80.6087,-134.0817 77.1086,-124.0817 73.6087,-134.0818 80.6087,-134.0817"/>
</g>
<!-- /Users/mmoscato/nasa/pvslib/pvslib&#45;gitlab__pvs7.0/topology&#45;&gt;/Users/mmoscato/nasa/pvslib/pvslib&#45;gitlab__pvs7.0/structures -->
<g id="edge12" class="edge">
<title>/Users/mmoscato/nasa/pvslib/pvslib&#45;gitlab__pvs7.0/topology&#45;&gt;/Users/mmoscato/nasa/pvslib/pvslib&#45;gitlab__pvs7.0/structures</title>
<path fill="none" stroke="#000000" d="M106.7012,-161.8042C106.7012,-161.8042 106.7012,-62.4251 106.7012,-62.4251"/>
<polygon fill="#000000" stroke="#000000" points="110.2013,-62.4251 106.7012,-52.4251 103.2013,-62.4251 110.2013,-62.4251"/>
</g>
<!-- /Users/mmoscato/nasa/pvslib/pvslib&#45;gitlab__pvs7.0/topology&#45;&gt;/Users/mmoscato/pvs/7.1&#45;0&#45;g3fb4f25&#45;ix86&#45;MacOSX&#45;allegro/lib/finite_sets -->
<g id="edge13" class="edge">
<title>/Users/mmoscato/nasa/pvslib/pvslib&#45;gitlab__pvs7.0/topology&#45;&gt;/Users/mmoscato/pvs/7.1&#45;0&#45;g3fb4f25&#45;ix86&#45;MacOSX&#45;allegro/lib/finite_sets</title>
<path fill="none" stroke="#000000" d="M113.2954,-161.9737C113.2954,-137.0227 113.2954,-95 113.2954,-95 113.2954,-95 229.4859,-95 229.4859,-95"/>
<polygon fill="#000000" stroke="#000000" points="229.4859,-98.5001 239.4859,-95 229.4859,-91.5001 229.4859,-98.5001"/>
</g>
</g>
</svg>
