<?xml version="1.0" encoding="UTF-8" standalone="no"?>
<!DOCTYPE svg PUBLIC "-//W3C//DTD SVG 1.1//EN"
 "http://www.w3.org/Graphics/SVG/1.1/DTD/svg11.dtd">
<!-- Generated by graphviz version 2.40.1 (20161225.0304)
 -->
<!-- Title: exact_real_arith Pages: 1 -->
<svg width="506pt" height="676pt"
 viewBox="0.00 0.00 506.00 676.00" xmlns="http://www.w3.org/2000/svg" xmlns:xlink="http://www.w3.org/1999/xlink">
<g id="graph0" class="graph" transform="scale(1 1) rotate(0) translate(4 672)">
<title>exact_real_arith</title>
<polygon fill="#ffffff" stroke="transparent" points="-4,4 -4,-672 502,-672 502,4 -4,4"/>
<g id="clust1" class="cluster">
<title>cluster_NASALib</title>
<polygon fill="none" stroke="#000000" points="8,-8 8,-660 394,-660 394,-8 8,-8"/>
<text text-anchor="middle" x="201" y="-644.8" font-family="Times,serif" font-size="14.00" fill="#000000">NASALib</text>
</g>
<g id="clust2" class="cluster">
<title>cluster_PVS Prelude</title>
<polygon fill="none" stroke="#000000" points="402,-152 402,-226 490,-226 490,-152 402,-152"/>
<text text-anchor="middle" x="446" y="-210.8" font-family="Times,serif" font-size="14.00" fill="#000000">PVS Prelude</text>
</g>
<!-- /Users/mmoscato/nasa/pvslib/pvslib&#45;gitlab__pvs7.0/Sturm -->
<g id="node1" class="node">
<title>/Users/mmoscato/nasa/pvslib/pvslib&#45;gitlab__pvs7.0/Sturm</title>
<polygon fill="#fcfcd7" stroke="#000000" points="334,-558 280,-558 280,-522 334,-522 334,-558"/>
<text text-anchor="middle" x="307" y="-535.8" font-family="Times,serif" font-size="14.00" fill="#000000">Sturm</text>
</g>
<!-- /Users/mmoscato/nasa/pvslib/pvslib&#45;gitlab__pvs7.0/interval_arith -->
<g id="node4" class="node">
<title>/Users/mmoscato/nasa/pvslib/pvslib&#45;gitlab__pvs7.0/interval_arith</title>
<polygon fill="#fcfcd7" stroke="#000000" points="279.915,-486 188.085,-486 188.085,-450 279.915,-450 279.915,-486"/>
<text text-anchor="middle" x="234" y="-463.8" font-family="Times,serif" font-size="14.00" fill="#000000">interval_arith</text>
</g>
<!-- /Users/mmoscato/nasa/pvslib/pvslib&#45;gitlab__pvs7.0/Sturm&#45;&gt;/Users/mmoscato/nasa/pvslib/pvslib&#45;gitlab__pvs7.0/interval_arith -->
<g id="edge1" class="edge">
<title>/Users/mmoscato/nasa/pvslib/pvslib&#45;gitlab__pvs7.0/Sturm&#45;&gt;/Users/mmoscato/nasa/pvslib/pvslib&#45;gitlab__pvs7.0/interval_arith</title>
<path fill="none" stroke="#000000" d="M291,-521.9652C291,-502.4238 291,-474 291,-474 291,-474 289.7386,-474 289.7386,-474"/>
<polygon fill="#000000" stroke="#000000" points="289.7387,-470.5001 279.7386,-474 289.7386,-477.5001 289.7387,-470.5001"/>
</g>
<!-- /Users/mmoscato/nasa/pvslib/pvslib&#45;gitlab__pvs7.0/ints -->
<g id="node5" class="node">
<title>/Users/mmoscato/nasa/pvslib/pvslib&#45;gitlab__pvs7.0/ints</title>
<polygon fill="#fcfcd7" stroke="#000000" points="136,-52 82,-52 82,-16 136,-16 136,-52"/>
<text text-anchor="middle" x="109" y="-29.8" font-family="Times,serif" font-size="14.00" fill="#000000">ints</text>
</g>
<!-- /Users/mmoscato/nasa/pvslib/pvslib&#45;gitlab__pvs7.0/Sturm&#45;&gt;/Users/mmoscato/nasa/pvslib/pvslib&#45;gitlab__pvs7.0/ints -->
<g id="edge2" class="edge">
<title>/Users/mmoscato/nasa/pvslib/pvslib&#45;gitlab__pvs7.0/Sturm&#45;&gt;/Users/mmoscato/nasa/pvslib/pvslib&#45;gitlab__pvs7.0/ints</title>
<path fill="none" stroke="#000000" d="M326,-521.7065C326,-430.1429 326,-26 326,-26 326,-26 146.0444,-26 146.0444,-26"/>
<polygon fill="#000000" stroke="#000000" points="146.0445,-22.5001 136.0444,-26 146.0444,-29.5001 146.0445,-22.5001"/>
</g>
<!-- /Users/mmoscato/nasa/pvslib/pvslib&#45;gitlab__pvs7.0/reals -->
<g id="node8" class="node">
<title>/Users/mmoscato/nasa/pvslib/pvslib&#45;gitlab__pvs7.0/reals</title>
<polygon fill="#fcfcd7" stroke="#000000" points="202,-196 148,-196 148,-160 202,-160 202,-196"/>
<text text-anchor="middle" x="175" y="-173.8" font-family="Times,serif" font-size="14.00" fill="#000000">reals</text>
</g>
<!-- /Users/mmoscato/nasa/pvslib/pvslib&#45;gitlab__pvs7.0/Sturm&#45;&gt;/Users/mmoscato/nasa/pvslib/pvslib&#45;gitlab__pvs7.0/reals -->
<g id="edge3" class="edge">
<title>/Users/mmoscato/nasa/pvslib/pvslib&#45;gitlab__pvs7.0/Sturm&#45;&gt;/Users/mmoscato/nasa/pvslib/pvslib&#45;gitlab__pvs7.0/reals</title>
<path fill="none" stroke="#000000" d="M310,-521.8548C310,-447.3692 310,-169 310,-169 310,-169 212.3193,-169 212.3193,-169"/>
<polygon fill="#000000" stroke="#000000" points="212.3193,-165.5001 202.3193,-169 212.3192,-172.5001 212.3193,-165.5001"/>
</g>
<!-- /Users/mmoscato/nasa/pvslib/pvslib&#45;gitlab__pvs7.0/structures -->
<g id="node10" class="node">
<title>/Users/mmoscato/nasa/pvslib/pvslib&#45;gitlab__pvs7.0/structures</title>
<polygon fill="#fcfcd7" stroke="#000000" points="144.429,-124 73.571,-124 73.571,-88 144.429,-88 144.429,-124"/>
<text text-anchor="middle" x="109" y="-101.8" font-family="Times,serif" font-size="14.00" fill="#000000">structures</text>
</g>
<!-- /Users/mmoscato/nasa/pvslib/pvslib&#45;gitlab__pvs7.0/Sturm&#45;&gt;/Users/mmoscato/nasa/pvslib/pvslib&#45;gitlab__pvs7.0/structures -->
<g id="edge4" class="edge">
<title>/Users/mmoscato/nasa/pvslib/pvslib&#45;gitlab__pvs7.0/Sturm&#45;&gt;/Users/mmoscato/nasa/pvslib/pvslib&#45;gitlab__pvs7.0/structures</title>
<path fill="none" stroke="#000000" d="M318,-521.7373C318,-438.8425 318,-102 318,-102 318,-102 154.454,-102 154.454,-102"/>
<polygon fill="#000000" stroke="#000000" points="154.454,-98.5001 144.454,-102 154.454,-105.5001 154.454,-98.5001"/>
</g>
<!-- /Users/mmoscato/nasa/pvslib/pvslib&#45;gitlab__pvs7.0/analysis -->
<g id="node2" class="node">
<title>/Users/mmoscato/nasa/pvslib/pvslib&#45;gitlab__pvs7.0/analysis</title>
<polygon fill="#fcfcd7" stroke="#000000" points="205.6036,-270 144.3964,-270 144.3964,-234 205.6036,-234 205.6036,-270"/>
<text text-anchor="middle" x="175" y="-247.8" font-family="Times,serif" font-size="14.00" fill="#000000">analysis</text>
</g>
<!-- /Users/mmoscato/nasa/pvslib/pvslib&#45;gitlab__pvs7.0/analysis&#45;&gt;/Users/mmoscato/nasa/pvslib/pvslib&#45;gitlab__pvs7.0/ints -->
<g id="edge5" class="edge">
<title>/Users/mmoscato/nasa/pvslib/pvslib&#45;gitlab__pvs7.0/analysis&#45;&gt;/Users/mmoscato/nasa/pvslib/pvslib&#45;gitlab__pvs7.0/ints</title>
<path fill="none" stroke="#000000" d="M205.7252,-246C209.8132,-246 212.6265,-246 212.6265,-246 212.6265,-246 212.6265,-41 212.6265,-41 212.6265,-41 146.2266,-41 146.2266,-41"/>
<polygon fill="#000000" stroke="#000000" points="146.2267,-37.5001 136.2266,-41 146.2266,-44.5001 146.2267,-37.5001"/>
</g>
<!-- /Users/mmoscato/nasa/pvslib/pvslib&#45;gitlab__pvs7.0/orders -->
<g id="node7" class="node">
<title>/Users/mmoscato/nasa/pvslib/pvslib&#45;gitlab__pvs7.0/orders</title>
<polygon fill="#fcfcd7" stroke="#000000" points="90,-196 36,-196 36,-160 90,-160 90,-196"/>
<text text-anchor="middle" x="63" y="-173.8" font-family="Times,serif" font-size="14.00" fill="#000000">orders</text>
</g>
<!-- /Users/mmoscato/nasa/pvslib/pvslib&#45;gitlab__pvs7.0/analysis&#45;&gt;/Users/mmoscato/nasa/pvslib/pvslib&#45;gitlab__pvs7.0/orders -->
<g id="edge6" class="edge">
<title>/Users/mmoscato/nasa/pvslib/pvslib&#45;gitlab__pvs7.0/analysis&#45;&gt;/Users/mmoscato/nasa/pvslib/pvslib&#45;gitlab__pvs7.0/orders</title>
<path fill="none" stroke="#000000" d="M144.3926,-248C118.4169,-248 85.3333,-248 85.3333,-248 85.3333,-248 85.3333,-206.0267 85.3333,-206.0267"/>
<polygon fill="#000000" stroke="#000000" points="88.8334,-206.0267 85.3333,-196.0267 81.8334,-206.0268 88.8334,-206.0267"/>
</g>
<!-- /Users/mmoscato/nasa/pvslib/pvslib&#45;gitlab__pvs7.0/analysis&#45;&gt;/Users/mmoscato/nasa/pvslib/pvslib&#45;gitlab__pvs7.0/reals -->
<g id="edge7" class="edge">
<title>/Users/mmoscato/nasa/pvslib/pvslib&#45;gitlab__pvs7.0/analysis&#45;&gt;/Users/mmoscato/nasa/pvslib/pvslib&#45;gitlab__pvs7.0/reals</title>
<path fill="none" stroke="#000000" d="M175,-233.7079C175,-233.7079 175,-206.0817 175,-206.0817"/>
<polygon fill="#000000" stroke="#000000" points="178.5001,-206.0817 175,-196.0817 171.5001,-206.0818 178.5001,-206.0817"/>
</g>
<!-- /Users/mmoscato/nasa/pvslib/pvslib&#45;gitlab__pvs7.0/analysis&#45;&gt;/Users/mmoscato/nasa/pvslib/pvslib&#45;gitlab__pvs7.0/structures -->
<g id="edge8" class="edge">
<title>/Users/mmoscato/nasa/pvslib/pvslib&#45;gitlab__pvs7.0/analysis&#45;&gt;/Users/mmoscato/nasa/pvslib/pvslib&#45;gitlab__pvs7.0/structures</title>
<path fill="none" stroke="#000000" d="M144.4131,-241C140.1043,-241 137.1069,-241 137.1069,-241 137.1069,-241 137.1069,-134.2067 137.1069,-134.2067"/>
<polygon fill="#000000" stroke="#000000" points="140.607,-134.2067 137.1069,-124.2067 133.607,-134.2067 140.607,-134.2067"/>
</g>
<!-- /Users/mmoscato/pvs/7.1&#45;0&#45;g3fb4f25&#45;ix86&#45;MacOSX&#45;allegro/lib/finite_sets -->
<g id="node12" class="node">
<title>/Users/mmoscato/pvs/7.1&#45;0&#45;g3fb4f25&#45;ix86&#45;MacOSX&#45;allegro/lib/finite_sets</title>
<polygon fill="#fcfcd7" stroke="#000000" points="482.2796,-196 409.7204,-196 409.7204,-160 482.2796,-160 482.2796,-196"/>
<text text-anchor="middle" x="446" y="-173.8" font-family="Times,serif" font-size="14.00" fill="#000000">finite_sets</text>
</g>
<!-- /Users/mmoscato/nasa/pvslib/pvslib&#45;gitlab__pvs7.0/analysis&#45;&gt;/Users/mmoscato/pvs/7.1&#45;0&#45;g3fb4f25&#45;ix86&#45;MacOSX&#45;allegro/lib/finite_sets -->
<g id="edge9" class="edge">
<title>/Users/mmoscato/nasa/pvslib/pvslib&#45;gitlab__pvs7.0/analysis&#45;&gt;/Users/mmoscato/pvs/7.1&#45;0&#45;g3fb4f25&#45;ix86&#45;MacOSX&#45;allegro/lib/finite_sets</title>
<path fill="none" stroke="#000000" d="M205.7461,-258C273.1192,-258 427.8052,-258 427.8052,-258 427.8052,-258 427.8052,-206.1532 427.8052,-206.1532"/>
<polygon fill="#000000" stroke="#000000" points="431.3053,-206.1532 427.8052,-196.1532 424.3053,-206.1533 431.3053,-206.1532"/>
</g>
<!-- /Users/mmoscato/nasa/pvslib/pvslib&#45;gitlab__pvs7.0/exact_real_arith -->
<g id="node3" class="node">
<title>/Users/mmoscato/nasa/pvslib/pvslib&#45;gitlab__pvs7.0/exact_real_arith</title>
<polygon fill="#f7e28d" stroke="#000000" points="360.1661,-630 253.8339,-630 253.8339,-594 360.1661,-594 360.1661,-630"/>
<text text-anchor="middle" x="307" y="-607.8" font-family="Times,serif" font-size="14.00" fill="#000000">exact_real_arith</text>
</g>
<!-- /Users/mmoscato/nasa/pvslib/pvslib&#45;gitlab__pvs7.0/exact_real_arith&#45;&gt;/Users/mmoscato/nasa/pvslib/pvslib&#45;gitlab__pvs7.0/Sturm -->
<g id="edge10" class="edge">
<title>/Users/mmoscato/nasa/pvslib/pvslib&#45;gitlab__pvs7.0/exact_real_arith&#45;&gt;/Users/mmoscato/nasa/pvslib/pvslib&#45;gitlab__pvs7.0/Sturm</title>
<path fill="none" stroke="#000000" d="M307,-593.8314C307,-593.8314 307,-568.4133 307,-568.4133"/>
<polygon fill="#000000" stroke="#000000" points="310.5001,-568.4132 307,-558.4133 303.5001,-568.4133 310.5001,-568.4132"/>
</g>
<!-- /Users/mmoscato/nasa/pvslib/pvslib&#45;gitlab__pvs7.0/exact_real_arith&#45;&gt;/Users/mmoscato/nasa/pvslib/pvslib&#45;gitlab__pvs7.0/analysis -->
<g id="edge11" class="edge">
<title>/Users/mmoscato/nasa/pvslib/pvslib&#45;gitlab__pvs7.0/exact_real_arith&#45;&gt;/Users/mmoscato/nasa/pvslib/pvslib&#45;gitlab__pvs7.0/analysis</title>
<path fill="none" stroke="#000000" d="M253.7022,-601C214.9103,-601 169.1465,-601 169.1465,-601 169.1465,-601 169.1465,-280.2724 169.1465,-280.2724"/>
<polygon fill="#000000" stroke="#000000" points="172.6466,-280.2723 169.1465,-270.2724 165.6466,-280.2724 172.6466,-280.2723"/>
</g>
<!-- /Users/mmoscato/nasa/pvslib/pvslib&#45;gitlab__pvs7.0/exact_real_arith&#45;&gt;/Users/mmoscato/nasa/pvslib/pvslib&#45;gitlab__pvs7.0/interval_arith -->
<g id="edge12" class="edge">
<title>/Users/mmoscato/nasa/pvslib/pvslib&#45;gitlab__pvs7.0/exact_real_arith&#45;&gt;/Users/mmoscato/nasa/pvslib/pvslib&#45;gitlab__pvs7.0/interval_arith</title>
<path fill="none" stroke="#000000" d="M266.812,-593.7623C266.812,-593.7623 266.812,-496.0896 266.812,-496.0896"/>
<polygon fill="#000000" stroke="#000000" points="270.3121,-496.0896 266.812,-486.0896 263.3121,-496.0897 270.3121,-496.0896"/>
</g>
<!-- /Users/mmoscato/nasa/pvslib/pvslib&#45;gitlab__pvs7.0/exact_real_arith&#45;&gt;/Users/mmoscato/nasa/pvslib/pvslib&#45;gitlab__pvs7.0/ints -->
<g id="edge13" class="edge">
<title>/Users/mmoscato/nasa/pvslib/pvslib&#45;gitlab__pvs7.0/exact_real_arith&#45;&gt;/Users/mmoscato/nasa/pvslib/pvslib&#45;gitlab__pvs7.0/ints</title>
<path fill="none" stroke="#000000" d="M351.3887,-593.9898C351.3887,-494.9431 351.3887,-21 351.3887,-21 351.3887,-21 146.3339,-21 146.3339,-21"/>
<polygon fill="#000000" stroke="#000000" points="146.3339,-17.5001 136.3339,-21 146.3339,-24.5001 146.3339,-17.5001"/>
</g>
<!-- /Users/mmoscato/nasa/pvslib/pvslib&#45;gitlab__pvs7.0/lnexp -->
<g id="node6" class="node">
<title>/Users/mmoscato/nasa/pvslib/pvslib&#45;gitlab__pvs7.0/lnexp</title>
<polygon fill="#fcfcd7" stroke="#000000" points="302,-414 248,-414 248,-378 302,-378 302,-414"/>
<text text-anchor="middle" x="275" y="-391.8" font-family="Times,serif" font-size="14.00" fill="#000000">lnexp</text>
</g>
<!-- /Users/mmoscato/nasa/pvslib/pvslib&#45;gitlab__pvs7.0/exact_real_arith&#45;&gt;/Users/mmoscato/nasa/pvslib/pvslib&#45;gitlab__pvs7.0/lnexp -->
<g id="edge14" class="edge">
<title>/Users/mmoscato/nasa/pvslib/pvslib&#45;gitlab__pvs7.0/exact_real_arith&#45;&gt;/Users/mmoscato/nasa/pvslib/pvslib&#45;gitlab__pvs7.0/lnexp</title>
<path fill="none" stroke="#000000" d="M338.3472,-593.9555C338.3472,-542.0421 338.3472,-396 338.3472,-396 338.3472,-396 312.2325,-396 312.2325,-396"/>
<polygon fill="#000000" stroke="#000000" points="312.2326,-392.5001 302.2325,-396 312.2325,-399.5001 312.2326,-392.5001"/>
</g>
<!-- /Users/mmoscato/nasa/pvslib/pvslib&#45;gitlab__pvs7.0/exact_real_arith&#45;&gt;/Users/mmoscato/nasa/pvslib/pvslib&#45;gitlab__pvs7.0/orders -->
<g id="edge15" class="edge">
<title>/Users/mmoscato/nasa/pvslib/pvslib&#45;gitlab__pvs7.0/exact_real_arith&#45;&gt;/Users/mmoscato/nasa/pvslib/pvslib&#45;gitlab__pvs7.0/orders</title>
<path fill="none" stroke="#000000" d="M253.8682,-622C177.5556,-622 46,-622 46,-622 46,-622 46,-206.2331 46,-206.2331"/>
<polygon fill="#000000" stroke="#000000" points="49.5001,-206.233 46,-196.2331 42.5001,-206.2331 49.5001,-206.233"/>
</g>
<!-- /Users/mmoscato/nasa/pvslib/pvslib&#45;gitlab__pvs7.0/exact_real_arith&#45;&gt;/Users/mmoscato/nasa/pvslib/pvslib&#45;gitlab__pvs7.0/reals -->
<g id="edge16" class="edge">
<title>/Users/mmoscato/nasa/pvslib/pvslib&#45;gitlab__pvs7.0/exact_real_arith&#45;&gt;/Users/mmoscato/nasa/pvslib/pvslib&#45;gitlab__pvs7.0/reals</title>
<path fill="none" stroke="#000000" d="M342.6943,-593.883C342.6943,-510.0693 342.6943,-164 342.6943,-164 342.6943,-164 212.3162,-164 212.3162,-164"/>
<polygon fill="#000000" stroke="#000000" points="212.3163,-160.5001 202.3162,-164 212.3162,-167.5001 212.3163,-160.5001"/>
</g>
<!-- /Users/mmoscato/nasa/pvslib/pvslib&#45;gitlab__pvs7.0/series -->
<g id="node9" class="node">
<title>/Users/mmoscato/nasa/pvslib/pvslib&#45;gitlab__pvs7.0/series</title>
<polygon fill="#fcfcd7" stroke="#000000" points="130,-342 76,-342 76,-306 130,-306 130,-342"/>
<text text-anchor="middle" x="103" y="-319.8" font-family="Times,serif" font-size="14.00" fill="#000000">series</text>
</g>
<!-- /Users/mmoscato/nasa/pvslib/pvslib&#45;gitlab__pvs7.0/exact_real_arith&#45;&gt;/Users/mmoscato/nasa/pvslib/pvslib&#45;gitlab__pvs7.0/series -->
<g id="edge17" class="edge">
<title>/Users/mmoscato/nasa/pvslib/pvslib&#45;gitlab__pvs7.0/exact_real_arith&#45;&gt;/Users/mmoscato/nasa/pvslib/pvslib&#45;gitlab__pvs7.0/series</title>
<path fill="none" stroke="#000000" d="M253.7838,-615C188.3901,-615 86,-615 86,-615 86,-615 86,-352.2034 86,-352.2034"/>
<polygon fill="#000000" stroke="#000000" points="89.5001,-352.2033 86,-342.2034 82.5001,-352.2034 89.5001,-352.2033"/>
</g>
<!-- /Users/mmoscato/nasa/pvslib/pvslib&#45;gitlab__pvs7.0/exact_real_arith&#45;&gt;/Users/mmoscato/nasa/pvslib/pvslib&#45;gitlab__pvs7.0/structures -->
<g id="edge18" class="edge">
<title>/Users/mmoscato/nasa/pvslib/pvslib&#45;gitlab__pvs7.0/exact_real_arith&#45;&gt;/Users/mmoscato/nasa/pvslib/pvslib&#45;gitlab__pvs7.0/structures</title>
<path fill="none" stroke="#000000" d="M347.0415,-593.9028C347.0415,-502.3975 347.0415,-95 347.0415,-95 347.0415,-95 154.3802,-95 154.3802,-95"/>
<polygon fill="#000000" stroke="#000000" points="154.3802,-91.5001 144.3802,-95 154.3801,-98.5001 154.3802,-91.5001"/>
</g>
<!-- /Users/mmoscato/nasa/pvslib/pvslib&#45;gitlab__pvs7.0/trig -->
<g id="node11" class="node">
<title>/Users/mmoscato/nasa/pvslib/pvslib&#45;gitlab__pvs7.0/trig</title>
<polygon fill="#fcfcd7" stroke="#000000" points="150,-414 96,-414 96,-378 150,-378 150,-414"/>
<text text-anchor="middle" x="123" y="-391.8" font-family="Times,serif" font-size="14.00" fill="#000000">trig</text>
</g>
<!-- /Users/mmoscato/nasa/pvslib/pvslib&#45;gitlab__pvs7.0/exact_real_arith&#45;&gt;/Users/mmoscato/nasa/pvslib/pvslib&#45;gitlab__pvs7.0/trig -->
<g id="edge19" class="edge">
<title>/Users/mmoscato/nasa/pvslib/pvslib&#45;gitlab__pvs7.0/exact_real_arith&#45;&gt;/Users/mmoscato/nasa/pvslib/pvslib&#45;gitlab__pvs7.0/trig</title>
<path fill="none" stroke="#000000" d="M253.7796,-608C199.4374,-608 123,-608 123,-608 123,-608 123,-424.075 123,-424.075"/>
<polygon fill="#000000" stroke="#000000" points="126.5001,-424.075 123,-414.075 119.5001,-424.075 126.5001,-424.075"/>
</g>
<!-- /Users/mmoscato/nasa/pvslib/pvslib&#45;gitlab__pvs7.0/exact_real_arith&#45;&gt;/Users/mmoscato/pvs/7.1&#45;0&#45;g3fb4f25&#45;ix86&#45;MacOSX&#45;allegro/lib/finite_sets -->
<g id="edge20" class="edge">
<title>/Users/mmoscato/nasa/pvslib/pvslib&#45;gitlab__pvs7.0/exact_real_arith&#45;&gt;/Users/mmoscato/pvs/7.1&#45;0&#45;g3fb4f25&#45;ix86&#45;MacOSX&#45;allegro/lib/finite_sets</title>
<path fill="none" stroke="#000000" d="M355.7358,-593.9102C355.7358,-513.3281 355.7358,-191 355.7358,-191 355.7358,-191 399.5463,-191 399.5463,-191"/>
<polygon fill="#000000" stroke="#000000" points="399.5463,-194.5001 409.5463,-191 399.5463,-187.5001 399.5463,-194.5001"/>
</g>
<!-- /Users/mmoscato/nasa/pvslib/pvslib&#45;gitlab__pvs7.0/interval_arith&#45;&gt;/Users/mmoscato/nasa/pvslib/pvslib&#45;gitlab__pvs7.0/analysis -->
<g id="edge21" class="edge">
<title>/Users/mmoscato/nasa/pvslib/pvslib&#45;gitlab__pvs7.0/interval_arith&#45;&gt;/Users/mmoscato/nasa/pvslib/pvslib&#45;gitlab__pvs7.0/analysis</title>
<path fill="none" stroke="#000000" d="M198.6482,-449.9555C198.6482,-449.9555 198.6482,-280.1451 198.6482,-280.1451"/>
<polygon fill="#000000" stroke="#000000" points="202.1483,-280.145 198.6482,-270.1451 195.1483,-280.1451 202.1483,-280.145"/>
</g>
<!-- /Users/mmoscato/nasa/pvslib/pvslib&#45;gitlab__pvs7.0/interval_arith&#45;&gt;/Users/mmoscato/nasa/pvslib/pvslib&#45;gitlab__pvs7.0/ints -->
<g id="edge22" class="edge">
<title>/Users/mmoscato/nasa/pvslib/pvslib&#45;gitlab__pvs7.0/interval_arith&#45;&gt;/Users/mmoscato/nasa/pvslib/pvslib&#45;gitlab__pvs7.0/ints</title>
<path fill="none" stroke="#000000" d="M240.9253,-449.9875C240.9253,-368.2282 240.9253,-36 240.9253,-36 240.9253,-36 146.0154,-36 146.0154,-36"/>
<polygon fill="#000000" stroke="#000000" points="146.0154,-32.5001 136.0154,-36 146.0154,-39.5001 146.0154,-32.5001"/>
</g>
<!-- /Users/mmoscato/nasa/pvslib/pvslib&#45;gitlab__pvs7.0/interval_arith&#45;&gt;/Users/mmoscato/nasa/pvslib/pvslib&#45;gitlab__pvs7.0/lnexp -->
<g id="edge23" class="edge">
<title>/Users/mmoscato/nasa/pvslib/pvslib&#45;gitlab__pvs7.0/interval_arith&#45;&gt;/Users/mmoscato/nasa/pvslib/pvslib&#45;gitlab__pvs7.0/lnexp</title>
<path fill="none" stroke="#000000" d="M263.8535,-449.8314C263.8535,-449.8314 263.8535,-424.4133 263.8535,-424.4133"/>
<polygon fill="#000000" stroke="#000000" points="267.3536,-424.4132 263.8535,-414.4133 260.3536,-424.4133 267.3536,-424.4132"/>
</g>
<!-- /Users/mmoscato/nasa/pvslib/pvslib&#45;gitlab__pvs7.0/interval_arith&#45;&gt;/Users/mmoscato/nasa/pvslib/pvslib&#45;gitlab__pvs7.0/orders -->
<g id="edge24" class="edge">
<title>/Users/mmoscato/nasa/pvslib/pvslib&#45;gitlab__pvs7.0/interval_arith&#45;&gt;/Users/mmoscato/nasa/pvslib/pvslib&#45;gitlab__pvs7.0/orders</title>
<path fill="none" stroke="#000000" d="M188.1606,-468C135.4204,-468 56,-468 56,-468 56,-468 56,-206.1408 56,-206.1408"/>
<polygon fill="#000000" stroke="#000000" points="59.5001,-206.1408 56,-196.1408 52.5001,-206.1408 59.5001,-206.1408"/>
</g>
<!-- /Users/mmoscato/nasa/pvslib/pvslib&#45;gitlab__pvs7.0/interval_arith&#45;&gt;/Users/mmoscato/nasa/pvslib/pvslib&#45;gitlab__pvs7.0/reals -->
<g id="edge25" class="edge">
<title>/Users/mmoscato/nasa/pvslib/pvslib&#45;gitlab__pvs7.0/interval_arith&#45;&gt;/Users/mmoscato/nasa/pvslib/pvslib&#45;gitlab__pvs7.0/reals</title>
<path fill="none" stroke="#000000" d="M226.7759,-449.9947C226.7759,-387.9751 226.7759,-187 226.7759,-187 226.7759,-187 212.101,-187 212.101,-187"/>
<polygon fill="#000000" stroke="#000000" points="212.1011,-183.5001 202.101,-187 212.101,-190.5001 212.1011,-183.5001"/>
</g>
<!-- /Users/mmoscato/nasa/pvslib/pvslib&#45;gitlab__pvs7.0/interval_arith&#45;&gt;/Users/mmoscato/nasa/pvslib/pvslib&#45;gitlab__pvs7.0/series -->
<g id="edge26" class="edge">
<title>/Users/mmoscato/nasa/pvslib/pvslib&#45;gitlab__pvs7.0/interval_arith&#45;&gt;/Users/mmoscato/nasa/pvslib/pvslib&#45;gitlab__pvs7.0/series</title>
<path fill="none" stroke="#000000" d="M195.1965,-449.7933C195.1965,-412.9441 195.1965,-333 195.1965,-333 195.1965,-333 140.1633,-333 140.1633,-333"/>
<polygon fill="#000000" stroke="#000000" points="140.1634,-329.5001 130.1633,-333 140.1633,-336.5001 140.1634,-329.5001"/>
</g>
<!-- /Users/mmoscato/nasa/pvslib/pvslib&#45;gitlab__pvs7.0/interval_arith&#45;&gt;/Users/mmoscato/nasa/pvslib/pvslib&#45;gitlab__pvs7.0/structures -->
<g id="edge27" class="edge">
<title>/Users/mmoscato/nasa/pvslib/pvslib&#45;gitlab__pvs7.0/interval_arith&#45;&gt;/Users/mmoscato/nasa/pvslib/pvslib&#45;gitlab__pvs7.0/structures</title>
<path fill="none" stroke="#000000" d="M233.8506,-449.5706C233.8506,-377.1439 233.8506,-116 233.8506,-116 233.8506,-116 154.4432,-116 154.4432,-116"/>
<polygon fill="#000000" stroke="#000000" points="154.4432,-112.5001 144.4432,-116 154.4432,-119.5001 154.4432,-112.5001"/>
</g>
<!-- /Users/mmoscato/nasa/pvslib/pvslib&#45;gitlab__pvs7.0/interval_arith&#45;&gt;/Users/mmoscato/nasa/pvslib/pvslib&#45;gitlab__pvs7.0/trig -->
<g id="edge28" class="edge">
<title>/Users/mmoscato/nasa/pvslib/pvslib&#45;gitlab__pvs7.0/interval_arith&#45;&gt;/Users/mmoscato/nasa/pvslib/pvslib&#45;gitlab__pvs7.0/trig</title>
<path fill="none" stroke="#000000" d="M191.7447,-449.7778C191.7447,-431.1715 191.7447,-405 191.7447,-405 191.7447,-405 160.1697,-405 160.1697,-405"/>
<polygon fill="#000000" stroke="#000000" points="160.1698,-401.5001 150.1697,-405 160.1697,-408.5001 160.1698,-401.5001"/>
</g>
<!-- /Users/mmoscato/nasa/pvslib/pvslib&#45;gitlab__pvs7.0/interval_arith&#45;&gt;/Users/mmoscato/pvs/7.1&#45;0&#45;g3fb4f25&#45;ix86&#45;MacOSX&#45;allegro/lib/finite_sets -->
<g id="edge29" class="edge">
<title>/Users/mmoscato/nasa/pvslib/pvslib&#45;gitlab__pvs7.0/interval_arith&#45;&gt;/Users/mmoscato/pvs/7.1&#45;0&#45;g3fb4f25&#45;ix86&#45;MacOSX&#45;allegro/lib/finite_sets</title>
<path fill="none" stroke="#000000" d="M279.7543,-462C346.8861,-462 464.1948,-462 464.1948,-462 464.1948,-462 464.1948,-206.1975 464.1948,-206.1975"/>
<polygon fill="#000000" stroke="#000000" points="467.6949,-206.1975 464.1948,-196.1975 460.6949,-206.1975 467.6949,-206.1975"/>
</g>
<!-- /Users/mmoscato/nasa/pvslib/pvslib&#45;gitlab__pvs7.0/lnexp&#45;&gt;/Users/mmoscato/nasa/pvslib/pvslib&#45;gitlab__pvs7.0/analysis -->
<g id="edge30" class="edge">
<title>/Users/mmoscato/nasa/pvslib/pvslib&#45;gitlab__pvs7.0/lnexp&#45;&gt;/Users/mmoscato/nasa/pvslib/pvslib&#45;gitlab__pvs7.0/analysis</title>
<path fill="none" stroke="#000000" d="M247.8547,-387C227.1282,-387 202.1,-387 202.1,-387 202.1,-387 202.1,-280.2067 202.1,-280.2067"/>
<polygon fill="#000000" stroke="#000000" points="205.6001,-280.2067 202.1,-270.2067 198.6001,-280.2067 205.6001,-280.2067"/>
</g>
<!-- /Users/mmoscato/nasa/pvslib/pvslib&#45;gitlab__pvs7.0/lnexp&#45;&gt;/Users/mmoscato/nasa/pvslib/pvslib&#45;gitlab__pvs7.0/ints -->
<g id="edge31" class="edge">
<title>/Users/mmoscato/nasa/pvslib/pvslib&#45;gitlab__pvs7.0/lnexp&#45;&gt;/Users/mmoscato/nasa/pvslib/pvslib&#45;gitlab__pvs7.0/ints</title>
<path fill="none" stroke="#000000" d="M284,-377.8996C284,-304.2501 284,-31 284,-31 284,-31 146.3438,-31 146.3438,-31"/>
<polygon fill="#000000" stroke="#000000" points="146.3438,-27.5001 136.3438,-31 146.3437,-34.5001 146.3438,-27.5001"/>
</g>
<!-- /Users/mmoscato/nasa/pvslib/pvslib&#45;gitlab__pvs7.0/lnexp&#45;&gt;/Users/mmoscato/nasa/pvslib/pvslib&#45;gitlab__pvs7.0/reals -->
<g id="edge32" class="edge">
<title>/Users/mmoscato/nasa/pvslib/pvslib&#45;gitlab__pvs7.0/lnexp&#45;&gt;/Users/mmoscato/nasa/pvslib/pvslib&#45;gitlab__pvs7.0/reals</title>
<path fill="none" stroke="#000000" d="M266,-377.751C266,-324.4921 266,-173 266,-173 266,-173 212.303,-173 212.303,-173"/>
<polygon fill="#000000" stroke="#000000" points="212.303,-169.5001 202.303,-173 212.303,-176.5001 212.303,-169.5001"/>
</g>
<!-- /Users/mmoscato/nasa/pvslib/pvslib&#45;gitlab__pvs7.0/lnexp&#45;&gt;/Users/mmoscato/nasa/pvslib/pvslib&#45;gitlab__pvs7.0/series -->
<g id="edge33" class="edge">
<title>/Users/mmoscato/nasa/pvslib/pvslib&#45;gitlab__pvs7.0/lnexp&#45;&gt;/Users/mmoscato/nasa/pvslib/pvslib&#45;gitlab__pvs7.0/series</title>
<path fill="none" stroke="#000000" d="M257,-377.8314C257,-356.502 257,-324 257,-324 257,-324 140.1776,-324 140.1776,-324"/>
<polygon fill="#000000" stroke="#000000" points="140.1776,-320.5001 130.1776,-324 140.1776,-327.5001 140.1776,-320.5001"/>
</g>
<!-- /Users/mmoscato/nasa/pvslib/pvslib&#45;gitlab__pvs7.0/lnexp&#45;&gt;/Users/mmoscato/nasa/pvslib/pvslib&#45;gitlab__pvs7.0/structures -->
<g id="edge34" class="edge">
<title>/Users/mmoscato/nasa/pvslib/pvslib&#45;gitlab__pvs7.0/lnexp&#45;&gt;/Users/mmoscato/nasa/pvslib/pvslib&#45;gitlab__pvs7.0/structures</title>
<path fill="none" stroke="#000000" d="M275,-377.6103C275,-314.2664 275,-109 275,-109 275,-109 154.6112,-109 154.6112,-109"/>
<polygon fill="#000000" stroke="#000000" points="154.6112,-105.5001 144.6112,-109 154.6111,-112.5001 154.6112,-105.5001"/>
</g>
<!-- /Users/mmoscato/nasa/pvslib/pvslib&#45;gitlab__pvs7.0/lnexp&#45;&gt;/Users/mmoscato/pvs/7.1&#45;0&#45;g3fb4f25&#45;ix86&#45;MacOSX&#45;allegro/lib/finite_sets -->
<g id="edge35" class="edge">
<title>/Users/mmoscato/nasa/pvslib/pvslib&#45;gitlab__pvs7.0/lnexp&#45;&gt;/Users/mmoscato/pvs/7.1&#45;0&#45;g3fb4f25&#45;ix86&#45;MacOSX&#45;allegro/lib/finite_sets</title>
<path fill="none" stroke="#000000" d="M293,-377.7545C293,-326.0033 293,-182 293,-182 293,-182 399.3527,-182 399.3527,-182"/>
<polygon fill="#000000" stroke="#000000" points="399.3527,-185.5001 409.3527,-182 399.3527,-178.5001 399.3527,-185.5001"/>
</g>
<!-- /Users/mmoscato/nasa/pvslib/pvslib&#45;gitlab__pvs7.0/reals&#45;&gt;/Users/mmoscato/nasa/pvslib/pvslib&#45;gitlab__pvs7.0/ints -->
<g id="edge36" class="edge">
<title>/Users/mmoscato/nasa/pvslib/pvslib&#45;gitlab__pvs7.0/reals&#45;&gt;/Users/mmoscato/nasa/pvslib/pvslib&#45;gitlab__pvs7.0/ints</title>
<path fill="none" stroke="#000000" d="M175,-159.9227C175,-123.7713 175,-46 175,-46 175,-46 146.2258,-46 146.2258,-46"/>
<polygon fill="#000000" stroke="#000000" points="146.2258,-42.5001 136.2258,-46 146.2257,-49.5001 146.2258,-42.5001"/>
</g>
<!-- /Users/mmoscato/nasa/pvslib/pvslib&#45;gitlab__pvs7.0/reals&#45;&gt;/Users/mmoscato/nasa/pvslib/pvslib&#45;gitlab__pvs7.0/structures -->
<g id="edge37" class="edge">
<title>/Users/mmoscato/nasa/pvslib/pvslib&#45;gitlab__pvs7.0/reals&#45;&gt;/Users/mmoscato/nasa/pvslib/pvslib&#45;gitlab__pvs7.0/structures</title>
<path fill="none" stroke="#000000" d="M147.926,-169C144.3238,-169 141.8449,-169 141.8449,-169 141.8449,-169 141.8449,-134.2222 141.8449,-134.2222"/>
<polygon fill="#000000" stroke="#000000" points="145.345,-134.2222 141.8449,-124.2222 138.345,-134.2222 145.345,-134.2222"/>
</g>
<!-- /Users/mmoscato/nasa/pvslib/pvslib&#45;gitlab__pvs7.0/series&#45;&gt;/Users/mmoscato/nasa/pvslib/pvslib&#45;gitlab__pvs7.0/analysis -->
<g id="edge38" class="edge">
<title>/Users/mmoscato/nasa/pvslib/pvslib&#45;gitlab__pvs7.0/series&#45;&gt;/Users/mmoscato/nasa/pvslib/pvslib&#45;gitlab__pvs7.0/analysis</title>
<path fill="none" stroke="#000000" d="M120,-305.8711C120,-285.4276 120,-255 120,-255 120,-255 134.2839,-255 134.2839,-255"/>
<polygon fill="#000000" stroke="#000000" points="134.2839,-258.5001 144.2839,-255 134.2839,-251.5001 134.2839,-258.5001"/>
</g>
<!-- /Users/mmoscato/nasa/pvslib/pvslib&#45;gitlab__pvs7.0/series&#45;&gt;/Users/mmoscato/nasa/pvslib/pvslib&#45;gitlab__pvs7.0/ints -->
<g id="edge39" class="edge">
<title>/Users/mmoscato/nasa/pvslib/pvslib&#45;gitlab__pvs7.0/series&#45;&gt;/Users/mmoscato/nasa/pvslib/pvslib&#45;gitlab__pvs7.0/ints</title>
<path fill="none" stroke="#000000" d="M75.8127,-324C52.9608,-324 24,-324 24,-324 24,-324 24,-40 24,-40 24,-40 71.6376,-40 71.6376,-40"/>
<polygon fill="#000000" stroke="#000000" points="71.6376,-43.5001 81.6376,-40 71.6376,-36.5001 71.6376,-43.5001"/>
</g>
<!-- /Users/mmoscato/nasa/pvslib/pvslib&#45;gitlab__pvs7.0/series&#45;&gt;/Users/mmoscato/nasa/pvslib/pvslib&#45;gitlab__pvs7.0/orders -->
<g id="edge40" class="edge">
<title>/Users/mmoscato/nasa/pvslib/pvslib&#45;gitlab__pvs7.0/series&#45;&gt;/Users/mmoscato/nasa/pvslib/pvslib&#45;gitlab__pvs7.0/orders</title>
<path fill="none" stroke="#000000" d="M80.6667,-305.8042C80.6667,-305.8042 80.6667,-206.4251 80.6667,-206.4251"/>
<polygon fill="#000000" stroke="#000000" points="84.1668,-206.4251 80.6667,-196.4251 77.1668,-206.4251 84.1668,-206.4251"/>
</g>
<!-- /Users/mmoscato/nasa/pvslib/pvslib&#45;gitlab__pvs7.0/series&#45;&gt;/Users/mmoscato/nasa/pvslib/pvslib&#45;gitlab__pvs7.0/reals -->
<g id="edge41" class="edge">
<title>/Users/mmoscato/nasa/pvslib/pvslib&#45;gitlab__pvs7.0/series&#45;&gt;/Users/mmoscato/nasa/pvslib/pvslib&#45;gitlab__pvs7.0/reals</title>
<path fill="none" stroke="#000000" d="M110,-305.8042C110,-266.6663 110,-178 110,-178 110,-178 137.8108,-178 137.8108,-178"/>
<polygon fill="#000000" stroke="#000000" points="137.8108,-181.5001 147.8108,-178 137.8107,-174.5001 137.8108,-181.5001"/>
</g>
<!-- /Users/mmoscato/nasa/pvslib/pvslib&#45;gitlab__pvs7.0/series&#45;&gt;/Users/mmoscato/nasa/pvslib/pvslib&#45;gitlab__pvs7.0/structures -->
<g id="edge42" class="edge">
<title>/Users/mmoscato/nasa/pvslib/pvslib&#45;gitlab__pvs7.0/series&#45;&gt;/Users/mmoscato/nasa/pvslib/pvslib&#45;gitlab__pvs7.0/structures</title>
<path fill="none" stroke="#000000" d="M100,-305.7884C100,-305.7884 100,-134.0064 100,-134.0064"/>
<polygon fill="#000000" stroke="#000000" points="103.5001,-134.0064 100,-124.0064 96.5001,-134.0065 103.5001,-134.0064"/>
</g>
<!-- /Users/mmoscato/nasa/pvslib/pvslib&#45;gitlab__pvs7.0/series&#45;&gt;/Users/mmoscato/pvs/7.1&#45;0&#45;g3fb4f25&#45;ix86&#45;MacOSX&#45;allegro/lib/finite_sets -->
<g id="edge43" class="edge">
<title>/Users/mmoscato/nasa/pvslib/pvslib&#45;gitlab__pvs7.0/series&#45;&gt;/Users/mmoscato/pvs/7.1&#45;0&#45;g3fb4f25&#45;ix86&#45;MacOSX&#45;allegro/lib/finite_sets</title>
<path fill="none" stroke="#000000" d="M130.2013,-315C211.3281,-315 446,-315 446,-315 446,-315 446,-206.1925 446,-206.1925"/>
<polygon fill="#000000" stroke="#000000" points="449.5001,-206.1925 446,-196.1925 442.5001,-206.1926 449.5001,-206.1925"/>
</g>
<!-- /Users/mmoscato/nasa/pvslib/pvslib&#45;gitlab__pvs7.0/structures&#45;&gt;/Users/mmoscato/nasa/pvslib/pvslib&#45;gitlab__pvs7.0/ints -->
<g id="edge44" class="edge">
<title>/Users/mmoscato/nasa/pvslib/pvslib&#45;gitlab__pvs7.0/structures&#45;&gt;/Users/mmoscato/nasa/pvslib/pvslib&#45;gitlab__pvs7.0/ints</title>
<path fill="none" stroke="#000000" d="M109,-87.8314C109,-87.8314 109,-62.4133 109,-62.4133"/>
<polygon fill="#000000" stroke="#000000" points="112.5001,-62.4132 109,-52.4133 105.5001,-62.4133 112.5001,-62.4132"/>
</g>
<!-- /Users/mmoscato/nasa/pvslib/pvslib&#45;gitlab__pvs7.0/trig&#45;&gt;/Users/mmoscato/nasa/pvslib/pvslib&#45;gitlab__pvs7.0/analysis -->
<g id="edge45" class="edge">
<title>/Users/mmoscato/nasa/pvslib/pvslib&#45;gitlab__pvs7.0/trig&#45;&gt;/Users/mmoscato/nasa/pvslib/pvslib&#45;gitlab__pvs7.0/analysis</title>
<path fill="none" stroke="#000000" d="M139.4759,-377.9282C139.4759,-341.3519 139.4759,-262 139.4759,-262 139.4759,-262 139.9699,-262 139.9699,-262"/>
<polygon fill="#000000" stroke="#000000" points="134.4155,-265.5002 144.4154,-262 134.4153,-258.5002 134.4155,-265.5002"/>
</g>
<!-- /Users/mmoscato/nasa/pvslib/pvslib&#45;gitlab__pvs7.0/trig&#45;&gt;/Users/mmoscato/nasa/pvslib/pvslib&#45;gitlab__pvs7.0/ints -->
<g id="edge46" class="edge">
<title>/Users/mmoscato/nasa/pvslib/pvslib&#45;gitlab__pvs7.0/trig&#45;&gt;/Users/mmoscato/nasa/pvslib/pvslib&#45;gitlab__pvs7.0/ints</title>
<path fill="none" stroke="#000000" d="M95.8463,-402C62.985,-402 12,-402 12,-402 12,-402 12,-28 12,-28 12,-28 71.9801,-28 71.9801,-28"/>
<polygon fill="#000000" stroke="#000000" points="71.9801,-31.5001 81.9801,-28 71.9801,-24.5001 71.9801,-31.5001"/>
</g>
<!-- /Users/mmoscato/nasa/pvslib/pvslib&#45;gitlab__pvs7.0/trig&#45;&gt;/Users/mmoscato/nasa/pvslib/pvslib&#45;gitlab__pvs7.0/orders -->
<g id="edge47" class="edge">
<title>/Users/mmoscato/nasa/pvslib/pvslib&#45;gitlab__pvs7.0/trig&#45;&gt;/Users/mmoscato/nasa/pvslib/pvslib&#45;gitlab__pvs7.0/orders</title>
<path fill="none" stroke="#000000" d="M95.8355,-390C81.1545,-390 66,-390 66,-390 66,-390 66,-206.075 66,-206.075"/>
<polygon fill="#000000" stroke="#000000" points="69.5001,-206.075 66,-196.075 62.5001,-206.075 69.5001,-206.075"/>
</g>
<!-- /Users/mmoscato/nasa/pvslib/pvslib&#45;gitlab__pvs7.0/trig&#45;&gt;/Users/mmoscato/nasa/pvslib/pvslib&#45;gitlab__pvs7.0/reals -->
<g id="edge48" class="edge">
<title>/Users/mmoscato/nasa/pvslib/pvslib&#45;gitlab__pvs7.0/trig&#45;&gt;/Users/mmoscato/nasa/pvslib/pvslib&#45;gitlab__pvs7.0/reals</title>
<path fill="none" stroke="#000000" d="M134.738,-377.8182C134.738,-326.9698 134.738,-187 134.738,-187 134.738,-187 137.9213,-187 137.9213,-187"/>
<polygon fill="#000000" stroke="#000000" points="137.9213,-190.5001 147.9213,-187 137.9212,-183.5001 137.9213,-190.5001"/>
</g>
<!-- /Users/mmoscato/nasa/pvslib/pvslib&#45;gitlab__pvs7.0/trig&#45;&gt;/Users/mmoscato/nasa/pvslib/pvslib&#45;gitlab__pvs7.0/series -->
<g id="edge49" class="edge">
<title>/Users/mmoscato/nasa/pvslib/pvslib&#45;gitlab__pvs7.0/trig&#45;&gt;/Users/mmoscato/nasa/pvslib/pvslib&#45;gitlab__pvs7.0/series</title>
<path fill="none" stroke="#000000" d="M113,-377.8314C113,-377.8314 113,-352.4133 113,-352.4133"/>
<polygon fill="#000000" stroke="#000000" points="116.5001,-352.4132 113,-342.4133 109.5001,-352.4133 116.5001,-352.4132"/>
</g>
<!-- /Users/mmoscato/nasa/pvslib/pvslib&#45;gitlab__pvs7.0/trig&#45;&gt;/Users/mmoscato/nasa/pvslib/pvslib&#45;gitlab__pvs7.0/structures -->
<g id="edge50" class="edge">
<title>/Users/mmoscato/nasa/pvslib/pvslib&#45;gitlab__pvs7.0/trig&#45;&gt;/Users/mmoscato/nasa/pvslib/pvslib&#45;gitlab__pvs7.0/structures</title>
<path fill="none" stroke="#000000" d="M132.369,-377.8592C132.369,-377.8592 132.369,-134.1339 132.369,-134.1339"/>
<polygon fill="#000000" stroke="#000000" points="135.8691,-134.1339 132.369,-124.1339 128.8691,-134.134 135.8691,-134.1339"/>
</g>
<!-- /Users/mmoscato/nasa/pvslib/pvslib&#45;gitlab__pvs7.0/trig&#45;&gt;/Users/mmoscato/pvs/7.1&#45;0&#45;g3fb4f25&#45;ix86&#45;MacOSX&#45;allegro/lib/finite_sets -->
<g id="edge51" class="edge">
<title>/Users/mmoscato/nasa/pvslib/pvslib&#45;gitlab__pvs7.0/trig&#45;&gt;/Users/mmoscato/pvs/7.1&#45;0&#45;g3fb4f25&#45;ix86&#45;MacOSX&#45;allegro/lib/finite_sets</title>
<path fill="none" stroke="#000000" d="M150.194,-396C178.7958,-396 219.7012,-396 219.7012,-396 219.7012,-396 219.7012,-178 219.7012,-178 219.7012,-178 399.6412,-178 399.6412,-178"/>
<polygon fill="#000000" stroke="#000000" points="399.6412,-181.5001 409.6412,-178 399.6411,-174.5001 399.6412,-181.5001"/>
</g>
</g>
</svg>
