<?xml version="1.0" encoding="UTF-8" standalone="no"?>
<!DOCTYPE svg PUBLIC "-//W3C//DTD SVG 1.1//EN"
 "http://www.w3.org/Graphics/SVG/1.1/DTD/svg11.dtd">
<!-- Generated by graphviz version 2.40.1 (20161225.0304)
 -->
<!-- Title: sorting Pages: 1 -->
<svg width="230pt" height="316pt"
 viewBox="0.00 0.00 230.00 316.00" xmlns="http://www.w3.org/2000/svg" xmlns:xlink="http://www.w3.org/1999/xlink">
<g id="graph0" class="graph" transform="scale(1 1) rotate(0) translate(4 312)">
<title>sorting</title>
<polygon fill="#ffffff" stroke="transparent" points="-4,4 -4,-312 226,-312 226,4 -4,4"/>
<g id="clust1" class="cluster">
<title>cluster_NASALib</title>
<polygon fill="none" stroke="#000000" points="8,-8 8,-300 118,-300 118,-8 8,-8"/>
<text text-anchor="middle" x="63" y="-284.8" font-family="Times,serif" font-size="14.00" fill="#000000">NASALib</text>
</g>
<g id="clust2" class="cluster">
<title>cluster_PVS Prelude</title>
<polygon fill="none" stroke="#000000" points="126,-8 126,-82 214,-82 214,-8 126,-8"/>
<text text-anchor="middle" x="170" y="-66.8" font-family="Times,serif" font-size="14.00" fill="#000000">PVS Prelude</text>
</g>
<!-- /Users/mmoscato/nasa/pvslib/pvslib&#45;gitlab__pvs7.0/ints -->
<g id="node1" class="node">
<title>/Users/mmoscato/nasa/pvslib/pvslib&#45;gitlab__pvs7.0/ints</title>
<polygon fill="#fcfcd7" stroke="#000000" points="84,-52 30,-52 30,-16 84,-16 84,-52"/>
<text text-anchor="middle" x="57" y="-29.8" font-family="Times,serif" font-size="14.00" fill="#000000">ints</text>
</g>
<!-- /Users/mmoscato/nasa/pvslib/pvslib&#45;gitlab__pvs7.0/reals -->
<g id="node2" class="node">
<title>/Users/mmoscato/nasa/pvslib/pvslib&#45;gitlab__pvs7.0/reals</title>
<polygon fill="#fcfcd7" stroke="#000000" points="90,-198 36,-198 36,-162 90,-162 90,-198"/>
<text text-anchor="middle" x="63" y="-175.8" font-family="Times,serif" font-size="14.00" fill="#000000">reals</text>
</g>
<!-- /Users/mmoscato/nasa/pvslib/pvslib&#45;gitlab__pvs7.0/reals&#45;&gt;/Users/mmoscato/nasa/pvslib/pvslib&#45;gitlab__pvs7.0/ints -->
<g id="edge1" class="edge">
<title>/Users/mmoscato/nasa/pvslib/pvslib&#45;gitlab__pvs7.0/reals&#45;&gt;/Users/mmoscato/nasa/pvslib/pvslib&#45;gitlab__pvs7.0/ints</title>
<path fill="none" stroke="#000000" d="M35.7852,-180C26.3084,-180 18,-180 18,-180 18,-180 18,-40 18,-40 18,-40 19.9132,-40 19.9132,-40"/>
<polygon fill="#000000" stroke="#000000" points="19.9132,-43.5001 29.9132,-40 19.9132,-36.5001 19.9132,-43.5001"/>
</g>
<!-- /Users/mmoscato/nasa/pvslib/pvslib&#45;gitlab__pvs7.0/structures -->
<g id="node4" class="node">
<title>/Users/mmoscato/nasa/pvslib/pvslib&#45;gitlab__pvs7.0/structures</title>
<polygon fill="#fcfcd7" stroke="#000000" points="106.429,-126 35.571,-126 35.571,-90 106.429,-90 106.429,-126"/>
<text text-anchor="middle" x="71" y="-103.8" font-family="Times,serif" font-size="14.00" fill="#000000">structures</text>
</g>
<!-- /Users/mmoscato/nasa/pvslib/pvslib&#45;gitlab__pvs7.0/reals&#45;&gt;/Users/mmoscato/nasa/pvslib/pvslib&#45;gitlab__pvs7.0/structures -->
<g id="edge2" class="edge">
<title>/Users/mmoscato/nasa/pvslib/pvslib&#45;gitlab__pvs7.0/reals&#45;&gt;/Users/mmoscato/nasa/pvslib/pvslib&#45;gitlab__pvs7.0/structures</title>
<path fill="none" stroke="#000000" d="M63,-161.8314C63,-161.8314 63,-136.4133 63,-136.4133"/>
<polygon fill="#000000" stroke="#000000" points="66.5001,-136.4132 63,-126.4133 59.5001,-136.4133 66.5001,-136.4132"/>
</g>
<!-- /Users/mmoscato/nasa/pvslib/pvslib&#45;gitlab__pvs7.0/sorting -->
<g id="node3" class="node">
<title>/Users/mmoscato/nasa/pvslib/pvslib&#45;gitlab__pvs7.0/sorting</title>
<polygon fill="#f7e28d" stroke="#000000" points="90.3898,-270 35.6102,-270 35.6102,-234 90.3898,-234 90.3898,-270"/>
<text text-anchor="middle" x="63" y="-247.8" font-family="Times,serif" font-size="14.00" fill="#000000">sorting</text>
</g>
<!-- /Users/mmoscato/nasa/pvslib/pvslib&#45;gitlab__pvs7.0/sorting&#45;&gt;/Users/mmoscato/nasa/pvslib/pvslib&#45;gitlab__pvs7.0/ints -->
<g id="edge3" class="edge">
<title>/Users/mmoscato/nasa/pvslib/pvslib&#45;gitlab__pvs7.0/sorting&#45;&gt;/Users/mmoscato/nasa/pvslib/pvslib&#45;gitlab__pvs7.0/ints</title>
<path fill="none" stroke="#000000" d="M35.5018,-252C20.9258,-252 6,-252 6,-252 6,-252 6,-28 6,-28 6,-28 19.7083,-28 19.7083,-28"/>
<polygon fill="#000000" stroke="#000000" points="19.7084,-31.5001 29.7083,-28 19.7083,-24.5001 19.7084,-31.5001"/>
</g>
<!-- /Users/mmoscato/nasa/pvslib/pvslib&#45;gitlab__pvs7.0/sorting&#45;&gt;/Users/mmoscato/nasa/pvslib/pvslib&#45;gitlab__pvs7.0/reals -->
<g id="edge4" class="edge">
<title>/Users/mmoscato/nasa/pvslib/pvslib&#45;gitlab__pvs7.0/sorting&#45;&gt;/Users/mmoscato/nasa/pvslib/pvslib&#45;gitlab__pvs7.0/reals</title>
<path fill="none" stroke="#000000" d="M63,-233.8314C63,-233.8314 63,-208.4133 63,-208.4133"/>
<polygon fill="#000000" stroke="#000000" points="66.5001,-208.4132 63,-198.4133 59.5001,-208.4133 66.5001,-208.4132"/>
</g>
<!-- /Users/mmoscato/nasa/pvslib/pvslib&#45;gitlab__pvs7.0/sorting&#45;&gt;/Users/mmoscato/nasa/pvslib/pvslib&#45;gitlab__pvs7.0/structures -->
<g id="edge5" class="edge">
<title>/Users/mmoscato/nasa/pvslib/pvslib&#45;gitlab__pvs7.0/sorting&#45;&gt;/Users/mmoscato/nasa/pvslib/pvslib&#45;gitlab__pvs7.0/structures</title>
<path fill="none" stroke="#000000" d="M90.4886,-246C95.0496,-246 98.3293,-246 98.3293,-246 98.3293,-246 98.3293,-136.0411 98.3293,-136.0411"/>
<polygon fill="#000000" stroke="#000000" points="101.8294,-136.0411 98.3293,-126.0411 94.8294,-136.0411 101.8294,-136.0411"/>
</g>
<!-- /Users/mmoscato/pvs/7.1&#45;0&#45;ge48ceadd&#45;ix86&#45;MacOSX&#45;allegro/lib/finite_sets -->
<g id="node5" class="node">
<title>/Users/mmoscato/pvs/7.1&#45;0&#45;ge48ceadd&#45;ix86&#45;MacOSX&#45;allegro/lib/finite_sets</title>
<polygon fill="#fcfcd7" stroke="#000000" points="206.2796,-52 133.7204,-52 133.7204,-16 206.2796,-16 206.2796,-52"/>
<text text-anchor="middle" x="170" y="-29.8" font-family="Times,serif" font-size="14.00" fill="#000000">finite_sets</text>
</g>
<!-- /Users/mmoscato/nasa/pvslib/pvslib&#45;gitlab__pvs7.0/sorting&#45;&gt;/Users/mmoscato/pvs/7.1&#45;0&#45;ge48ceadd&#45;ix86&#45;MacOSX&#45;allegro/lib/finite_sets -->
<g id="edge6" class="edge">
<title>/Users/mmoscato/nasa/pvslib/pvslib&#45;gitlab__pvs7.0/sorting&#45;&gt;/Users/mmoscato/pvs/7.1&#45;0&#45;ge48ceadd&#45;ix86&#45;MacOSX&#45;allegro/lib/finite_sets</title>
<path fill="none" stroke="#000000" d="M90.5552,-258C122.2585,-258 170,-258 170,-258 170,-258 170,-62.3309 170,-62.3309"/>
<polygon fill="#000000" stroke="#000000" points="173.5001,-62.3308 170,-52.3309 166.5001,-62.3309 173.5001,-62.3308"/>
</g>
<!-- /Users/mmoscato/nasa/pvslib/pvslib&#45;gitlab__pvs7.0/structures&#45;&gt;/Users/mmoscato/nasa/pvslib/pvslib&#45;gitlab__pvs7.0/ints -->
<g id="edge7" class="edge">
<title>/Users/mmoscato/nasa/pvslib/pvslib&#45;gitlab__pvs7.0/structures&#45;&gt;/Users/mmoscato/nasa/pvslib/pvslib&#45;gitlab__pvs7.0/ints</title>
<path fill="none" stroke="#000000" d="M59.8931,-89.7079C59.8931,-89.7079 59.8931,-62.0817 59.8931,-62.0817"/>
<polygon fill="#000000" stroke="#000000" points="63.3932,-62.0817 59.8931,-52.0817 56.3932,-62.0818 63.3932,-62.0817"/>
</g>
<!-- /Users/mmoscato/nasa/pvslib/pvslib&#45;gitlab__pvs7.0/structures&#45;&gt;/Users/mmoscato/pvs/7.1&#45;0&#45;ge48ceadd&#45;ix86&#45;MacOSX&#45;allegro/lib/finite_sets -->
<g id="edge8" class="edge">
<title>/Users/mmoscato/nasa/pvslib/pvslib&#45;gitlab__pvs7.0/structures&#45;&gt;/Users/mmoscato/pvs/7.1&#45;0&#45;ge48ceadd&#45;ix86&#45;MacOSX&#45;allegro/lib/finite_sets</title>
<path fill="none" stroke="#000000" d="M95.1069,-89.7079C95.1069,-67.7943 95.1069,-34 95.1069,-34 95.1069,-34 123.431,-34 123.431,-34"/>
<polygon fill="#000000" stroke="#000000" points="123.4311,-37.5001 133.431,-34 123.431,-30.5001 123.4311,-37.5001"/>
</g>
</g>
</svg>
