<?xml version="1.0" encoding="UTF-8" standalone="no"?>
<!DOCTYPE svg PUBLIC "-//W3C//DTD SVG 1.1//EN"
 "http://www.w3.org/Graphics/SVG/1.1/DTD/svg11.dtd">
<!-- Generated by graphviz version 2.40.1 (20161225.0304)
 -->
<!-- Title: sorting Pages: 1 -->
<svg width="127pt" height="252pt"
 viewBox="0.00 0.00 127.00 252.00" xmlns="http://www.w3.org/2000/svg" xmlns:xlink="http://www.w3.org/1999/xlink">
<g id="graph0" class="graph" transform="scale(1 1) rotate(0) translate(4 248)">
<title>sorting</title>
<polygon fill="#ffffff" stroke="transparent" points="-4,4 -4,-248 123,-248 123,4 -4,4"/>
<g id="clust1" class="cluster">
<title>cluster_NASALib</title>
<polygon fill="none" stroke="#000000" points="8,-90 8,-236 94,-236 94,-90 8,-90"/>
<text text-anchor="middle" x="51" y="-220.8" font-family="Times,serif" font-size="14.00" fill="#000000">NASALib</text>
</g>
<g id="clust2" class="cluster">
<title>cluster_PVS Prelude</title>
<polygon fill="none" stroke="#000000" points="23,-8 23,-82 111,-82 111,-8 23,-8"/>
<text text-anchor="middle" x="67" y="-66.8" font-family="Times,serif" font-size="14.00" fill="#000000">PVS Prelude</text>
</g>
<!-- /Users/mmoscato/nasa/pvslib/pvslib&#45;gitlab__pvs7.0/sorting -->
<g id="node1" class="node">
<title>/Users/mmoscato/nasa/pvslib/pvslib&#45;gitlab__pvs7.0/sorting</title>
<polygon fill="#f7e28d" stroke="#000000" points="78.3898,-206 23.6102,-206 23.6102,-170 78.3898,-170 78.3898,-206"/>
<text text-anchor="middle" x="51" y="-183.8" font-family="Times,serif" font-size="14.00" fill="#000000">sorting</text>
</g>
<!-- /Users/mmoscato/nasa/pvslib/pvslib&#45;gitlab__pvs7.0/structures -->
<g id="node2" class="node">
<title>/Users/mmoscato/nasa/pvslib/pvslib&#45;gitlab__pvs7.0/structures</title>
<polygon fill="#fcfcd7" stroke="#000000" points="86.429,-134 15.571,-134 15.571,-98 86.429,-98 86.429,-134"/>
<text text-anchor="middle" x="51" y="-111.8" font-family="Times,serif" font-size="14.00" fill="#000000">structures</text>
</g>
<!-- /Users/mmoscato/nasa/pvslib/pvslib&#45;gitlab__pvs7.0/sorting&#45;&gt;/Users/mmoscato/nasa/pvslib/pvslib&#45;gitlab__pvs7.0/structures -->
<g id="edge1" class="edge">
<title>/Users/mmoscato/nasa/pvslib/pvslib&#45;gitlab__pvs7.0/sorting&#45;&gt;/Users/mmoscato/nasa/pvslib/pvslib&#45;gitlab__pvs7.0/structures</title>
<path fill="none" stroke="#000000" d="M51,-169.8314C51,-169.8314 51,-144.4133 51,-144.4133"/>
<polygon fill="#000000" stroke="#000000" points="54.5001,-144.4132 51,-134.4133 47.5001,-144.4133 54.5001,-144.4132"/>
</g>
<!-- /Users/mmoscato/pvs/7.1&#45;0&#45;g3fb4f25&#45;ix86&#45;MacOSX&#45;allegro/lib/finite_sets -->
<g id="node3" class="node">
<title>/Users/mmoscato/pvs/7.1&#45;0&#45;g3fb4f25&#45;ix86&#45;MacOSX&#45;allegro/lib/finite_sets</title>
<polygon fill="#fcfcd7" stroke="#000000" points="103.2796,-52 30.7204,-52 30.7204,-16 103.2796,-16 103.2796,-52"/>
<text text-anchor="middle" x="67" y="-29.8" font-family="Times,serif" font-size="14.00" fill="#000000">finite_sets</text>
</g>
<!-- /Users/mmoscato/nasa/pvslib/pvslib&#45;gitlab__pvs7.0/sorting&#45;&gt;/Users/mmoscato/pvs/7.1&#45;0&#45;g3fb4f25&#45;ix86&#45;MacOSX&#45;allegro/lib/finite_sets -->
<g id="edge2" class="edge">
<title>/Users/mmoscato/nasa/pvslib/pvslib&#45;gitlab__pvs7.0/sorting&#45;&gt;/Users/mmoscato/pvs/7.1&#45;0&#45;g3fb4f25&#45;ix86&#45;MacOSX&#45;allegro/lib/finite_sets</title>
<path fill="none" stroke="#000000" d="M78.4916,-188C87.292,-188 94.8018,-188 94.8018,-188 94.8018,-188 94.8018,-62.2706 94.8018,-62.2706"/>
<polygon fill="#000000" stroke="#000000" points="98.3019,-62.2705 94.8018,-52.2706 91.3019,-62.2706 98.3019,-62.2705"/>
</g>
<!-- /Users/mmoscato/nasa/pvslib/pvslib&#45;gitlab__pvs7.0/structures&#45;&gt;/Users/mmoscato/pvs/7.1&#45;0&#45;g3fb4f25&#45;ix86&#45;MacOSX&#45;allegro/lib/finite_sets -->
<g id="edge3" class="edge">
<title>/Users/mmoscato/nasa/pvslib/pvslib&#45;gitlab__pvs7.0/structures&#45;&gt;/Users/mmoscato/pvs/7.1&#45;0&#45;g3fb4f25&#45;ix86&#45;MacOSX&#45;allegro/lib/finite_sets</title>
<path fill="none" stroke="#000000" d="M58.4121,-97.8015C58.4121,-97.8015 58.4121,-62.1476 58.4121,-62.1476"/>
<polygon fill="#000000" stroke="#000000" points="61.9122,-62.1476 58.4121,-52.1476 54.9122,-62.1476 61.9122,-62.1476"/>
</g>
</g>
</svg>
