<?xml version="1.0" encoding="UTF-8" standalone="no"?>
<!DOCTYPE svg PUBLIC "-//W3C//DTD SVG 1.1//EN"
 "http://www.w3.org/Graphics/SVG/1.1/DTD/svg11.dtd">
<!-- Generated by graphviz version 2.40.1 (20161225.0304)
 -->
<!-- Title: numbers Pages: 1 -->
<svg width="134pt" height="396pt"
 viewBox="0.00 0.00 134.00 396.00" xmlns="http://www.w3.org/2000/svg" xmlns:xlink="http://www.w3.org/1999/xlink">
<g id="graph0" class="graph" transform="scale(1 1) rotate(0) translate(4 392)">
<title>numbers</title>
<polygon fill="#ffffff" stroke="transparent" points="-4,4 -4,-392 130,-392 130,4 -4,4"/>
<g id="clust1" class="cluster">
<title>cluster_NASALib</title>
<polygon fill="none" stroke="#000000" points="8,-90 8,-380 118,-380 118,-90 8,-90"/>
<text text-anchor="middle" x="63" y="-364.8" font-family="Times,serif" font-size="14.00" fill="#000000">NASALib</text>
</g>
<g id="clust2" class="cluster">
<title>cluster_PVS Prelude</title>
<polygon fill="none" stroke="#000000" points="28,-8 28,-82 116,-82 116,-8 28,-8"/>
<text text-anchor="middle" x="72" y="-66.8" font-family="Times,serif" font-size="14.00" fill="#000000">PVS Prelude</text>
</g>
<!-- /Users/mmoscato/nasa/pvslib/pvslib&#45;gitlab__pvs7.0/ints -->
<g id="node1" class="node">
<title>/Users/mmoscato/nasa/pvslib/pvslib&#45;gitlab__pvs7.0/ints</title>
<polygon fill="#fcfcd7" stroke="#000000" points="98,-134 44,-134 44,-98 98,-98 98,-134"/>
<text text-anchor="middle" x="71" y="-111.8" font-family="Times,serif" font-size="14.00" fill="#000000">ints</text>
</g>
<!-- /Users/mmoscato/pvs/7.1&#45;0&#45;gbe4ad5c&#45;ix86&#45;MacOSX&#45;allegro/lib/finite_sets -->
<g id="node5" class="node">
<title>/Users/mmoscato/pvs/7.1&#45;0&#45;gbe4ad5c&#45;ix86&#45;MacOSX&#45;allegro/lib/finite_sets</title>
<polygon fill="#fcfcd7" stroke="#000000" points="108.2796,-52 35.7204,-52 35.7204,-16 108.2796,-16 108.2796,-52"/>
<text text-anchor="middle" x="72" y="-29.8" font-family="Times,serif" font-size="14.00" fill="#000000">finite_sets</text>
</g>
<!-- /Users/mmoscato/nasa/pvslib/pvslib&#45;gitlab__pvs7.0/ints&#45;&gt;/Users/mmoscato/pvs/7.1&#45;0&#45;gbe4ad5c&#45;ix86&#45;MacOSX&#45;allegro/lib/finite_sets -->
<g id="edge1" class="edge">
<title>/Users/mmoscato/nasa/pvslib/pvslib&#45;gitlab__pvs7.0/ints&#45;&gt;/Users/mmoscato/pvs/7.1&#45;0&#45;gbe4ad5c&#45;ix86&#45;MacOSX&#45;allegro/lib/finite_sets</title>
<path fill="none" stroke="#000000" d="M71,-97.8015C71,-97.8015 71,-62.1476 71,-62.1476"/>
<polygon fill="#000000" stroke="#000000" points="74.5001,-62.1476 71,-52.1476 67.5001,-62.1476 74.5001,-62.1476"/>
</g>
<!-- /Users/mmoscato/nasa/pvslib/pvslib&#45;gitlab__pvs7.0/numbers -->
<g id="node2" class="node">
<title>/Users/mmoscato/nasa/pvslib/pvslib&#45;gitlab__pvs7.0/numbers</title>
<polygon fill="#f7e28d" stroke="#000000" points="95.2142,-350 30.7858,-350 30.7858,-314 95.2142,-314 95.2142,-350"/>
<text text-anchor="middle" x="63" y="-327.8" font-family="Times,serif" font-size="14.00" fill="#000000">numbers</text>
</g>
<!-- /Users/mmoscato/nasa/pvslib/pvslib&#45;gitlab__pvs7.0/numbers&#45;&gt;/Users/mmoscato/nasa/pvslib/pvslib&#45;gitlab__pvs7.0/ints -->
<g id="edge2" class="edge">
<title>/Users/mmoscato/nasa/pvslib/pvslib&#45;gitlab__pvs7.0/numbers&#45;&gt;/Users/mmoscato/nasa/pvslib/pvslib&#45;gitlab__pvs7.0/ints</title>
<path fill="none" stroke="#000000" d="M30.7,-326C21.0044,-326 12.8931,-326 12.8931,-326 12.8931,-326 12.8931,-110 12.8931,-110 12.8931,-110 33.9879,-110 33.9879,-110"/>
<polygon fill="#000000" stroke="#000000" points="33.9879,-113.5001 43.9879,-110 33.9878,-106.5001 33.9879,-113.5001"/>
</g>
<!-- /Users/mmoscato/nasa/pvslib/pvslib&#45;gitlab__pvs7.0/reals -->
<g id="node3" class="node">
<title>/Users/mmoscato/nasa/pvslib/pvslib&#45;gitlab__pvs7.0/reals</title>
<polygon fill="#fcfcd7" stroke="#000000" points="90,-278 36,-278 36,-242 90,-242 90,-278"/>
<text text-anchor="middle" x="63" y="-255.8" font-family="Times,serif" font-size="14.00" fill="#000000">reals</text>
</g>
<!-- /Users/mmoscato/nasa/pvslib/pvslib&#45;gitlab__pvs7.0/numbers&#45;&gt;/Users/mmoscato/nasa/pvslib/pvslib&#45;gitlab__pvs7.0/reals -->
<g id="edge3" class="edge">
<title>/Users/mmoscato/nasa/pvslib/pvslib&#45;gitlab__pvs7.0/numbers&#45;&gt;/Users/mmoscato/nasa/pvslib/pvslib&#45;gitlab__pvs7.0/reals</title>
<path fill="none" stroke="#000000" d="M63,-313.8314C63,-313.8314 63,-288.4133 63,-288.4133"/>
<polygon fill="#000000" stroke="#000000" points="66.5001,-288.4132 63,-278.4133 59.5001,-288.4133 66.5001,-288.4132"/>
</g>
<!-- /Users/mmoscato/nasa/pvslib/pvslib&#45;gitlab__pvs7.0/structures -->
<g id="node4" class="node">
<title>/Users/mmoscato/nasa/pvslib/pvslib&#45;gitlab__pvs7.0/structures</title>
<polygon fill="#fcfcd7" stroke="#000000" points="106.429,-206 35.571,-206 35.571,-170 106.429,-170 106.429,-206"/>
<text text-anchor="middle" x="71" y="-183.8" font-family="Times,serif" font-size="14.00" fill="#000000">structures</text>
</g>
<!-- /Users/mmoscato/nasa/pvslib/pvslib&#45;gitlab__pvs7.0/numbers&#45;&gt;/Users/mmoscato/nasa/pvslib/pvslib&#45;gitlab__pvs7.0/structures -->
<g id="edge4" class="edge">
<title>/Users/mmoscato/nasa/pvslib/pvslib&#45;gitlab__pvs7.0/numbers&#45;&gt;/Users/mmoscato/nasa/pvslib/pvslib&#45;gitlab__pvs7.0/structures</title>
<path fill="none" stroke="#000000" d="M95.4239,-332C98.5917,-332 100.6604,-332 100.6604,-332 100.6604,-332 100.6604,-216.2377 100.6604,-216.2377"/>
<polygon fill="#000000" stroke="#000000" points="104.1605,-216.2377 100.6604,-206.2377 97.1605,-216.2377 104.1605,-216.2377"/>
</g>
<!-- /Users/mmoscato/nasa/pvslib/pvslib&#45;gitlab__pvs7.0/numbers&#45;&gt;/Users/mmoscato/pvs/7.1&#45;0&#45;gbe4ad5c&#45;ix86&#45;MacOSX&#45;allegro/lib/finite_sets -->
<g id="edge5" class="edge">
<title>/Users/mmoscato/nasa/pvslib/pvslib&#45;gitlab__pvs7.0/numbers&#45;&gt;/Users/mmoscato/pvs/7.1&#45;0&#45;gbe4ad5c&#45;ix86&#45;MacOSX&#45;allegro/lib/finite_sets</title>
<path fill="none" stroke="#000000" d="M30.6795,-338C16.8804,-338 3.8931,-338 3.8931,-338 3.8931,-338 3.8931,-34 3.8931,-34 3.8931,-34 25.5539,-34 25.5539,-34"/>
<polygon fill="#000000" stroke="#000000" points="25.5539,-37.5001 35.5539,-34 25.5539,-30.5001 25.5539,-37.5001"/>
</g>
<!-- /Users/mmoscato/nasa/pvslib/pvslib&#45;gitlab__pvs7.0/reals&#45;&gt;/Users/mmoscato/nasa/pvslib/pvslib&#45;gitlab__pvs7.0/ints -->
<g id="edge6" class="edge">
<title>/Users/mmoscato/nasa/pvslib/pvslib&#45;gitlab__pvs7.0/reals&#45;&gt;/Users/mmoscato/nasa/pvslib/pvslib&#45;gitlab__pvs7.0/ints</title>
<path fill="none" stroke="#000000" d="M35.81,-260C28.1655,-260 21.8931,-260 21.8931,-260 21.8931,-260 21.8931,-122 21.8931,-122 21.8931,-122 33.8612,-122 33.8612,-122"/>
<polygon fill="#000000" stroke="#000000" points="33.8612,-125.5001 43.8612,-122 33.8611,-118.5001 33.8612,-125.5001"/>
</g>
<!-- /Users/mmoscato/nasa/pvslib/pvslib&#45;gitlab__pvs7.0/reals&#45;&gt;/Users/mmoscato/nasa/pvslib/pvslib&#45;gitlab__pvs7.0/structures -->
<g id="edge7" class="edge">
<title>/Users/mmoscato/nasa/pvslib/pvslib&#45;gitlab__pvs7.0/reals&#45;&gt;/Users/mmoscato/nasa/pvslib/pvslib&#45;gitlab__pvs7.0/structures</title>
<path fill="none" stroke="#000000" d="M63,-241.8314C63,-241.8314 63,-216.4133 63,-216.4133"/>
<polygon fill="#000000" stroke="#000000" points="66.5001,-216.4132 63,-206.4133 59.5001,-216.4133 66.5001,-216.4132"/>
</g>
<!-- /Users/mmoscato/nasa/pvslib/pvslib&#45;gitlab__pvs7.0/structures&#45;&gt;/Users/mmoscato/nasa/pvslib/pvslib&#45;gitlab__pvs7.0/ints -->
<g id="edge8" class="edge">
<title>/Users/mmoscato/nasa/pvslib/pvslib&#45;gitlab__pvs7.0/structures&#45;&gt;/Users/mmoscato/nasa/pvslib/pvslib&#45;gitlab__pvs7.0/ints</title>
<path fill="none" stroke="#000000" d="M71,-169.8314C71,-169.8314 71,-144.4133 71,-144.4133"/>
<polygon fill="#000000" stroke="#000000" points="74.5001,-144.4132 71,-134.4133 67.5001,-144.4133 74.5001,-144.4132"/>
</g>
</g>
</svg>
