<?xml version="1.0" encoding="UTF-8" standalone="no"?>
<!DOCTYPE svg PUBLIC "-//W3C//DTD SVG 1.1//EN"
 "http://www.w3.org/Graphics/SVG/1.1/DTD/svg11.dtd">
<!-- Generated by graphviz version 2.40.1 (20161225.0304)
 -->
<!-- Title: complex Pages: 1 -->
<svg width="478pt" height="532pt"
 viewBox="0.00 0.00 478.00 532.00" xmlns="http://www.w3.org/2000/svg" xmlns:xlink="http://www.w3.org/1999/xlink">
<g id="graph0" class="graph" transform="scale(1 1) rotate(0) translate(4 528)">
<title>complex</title>
<polygon fill="#ffffff" stroke="transparent" points="-4,4 -4,-528 474,-528 474,4 -4,4"/>
<g id="clust1" class="cluster">
<title>cluster_NASALib</title>
<polygon fill="none" stroke="#000000" points="8,-8 8,-516 366,-516 366,-8 8,-8"/>
<text text-anchor="middle" x="187" y="-500.8" font-family="Times,serif" font-size="14.00" fill="#000000">NASALib</text>
</g>
<g id="clust2" class="cluster">
<title>cluster_PVS Prelude</title>
<polygon fill="none" stroke="#000000" points="374,-152 374,-226 462,-226 462,-152 374,-152"/>
<text text-anchor="middle" x="418" y="-210.8" font-family="Times,serif" font-size="14.00" fill="#000000">PVS Prelude</text>
</g>
<!-- /Users/mmoscato/nasa/pvslib/pvslib&#45;gitlab__pvs7.0/algebra -->
<g id="node1" class="node">
<title>/Users/mmoscato/nasa/pvslib/pvslib&#45;gitlab__pvs7.0/algebra</title>
<polygon fill="#fcfcd7" stroke="#000000" points="357.6937,-342 300.3063,-342 300.3063,-306 357.6937,-306 357.6937,-342"/>
<text text-anchor="middle" x="329" y="-319.8" font-family="Times,serif" font-size="14.00" fill="#000000">algebra</text>
</g>
<!-- /Users/mmoscato/nasa/pvslib/pvslib&#45;gitlab__pvs7.0/ints -->
<g id="node4" class="node">
<title>/Users/mmoscato/nasa/pvslib/pvslib&#45;gitlab__pvs7.0/ints</title>
<polygon fill="#fcfcd7" stroke="#000000" points="156,-52 102,-52 102,-16 156,-16 156,-52"/>
<text text-anchor="middle" x="129" y="-29.8" font-family="Times,serif" font-size="14.00" fill="#000000">ints</text>
</g>
<!-- /Users/mmoscato/nasa/pvslib/pvslib&#45;gitlab__pvs7.0/algebra&#45;&gt;/Users/mmoscato/nasa/pvslib/pvslib&#45;gitlab__pvs7.0/ints -->
<g id="edge1" class="edge">
<title>/Users/mmoscato/nasa/pvslib/pvslib&#45;gitlab__pvs7.0/algebra&#45;&gt;/Users/mmoscato/nasa/pvslib/pvslib&#45;gitlab__pvs7.0/ints</title>
<path fill="none" stroke="#000000" d="M319.4678,-305.6242C319.4678,-240.2727 319.4678,-23 319.4678,-23 319.4678,-23 166.2894,-23 166.2894,-23"/>
<polygon fill="#000000" stroke="#000000" points="166.2894,-19.5001 156.2894,-23 166.2894,-26.5001 166.2894,-19.5001"/>
</g>
<!-- /Users/mmoscato/pvs/7.1&#45;0&#45;g3fb4f25&#45;ix86&#45;MacOSX&#45;allegro/lib/finite_sets -->
<g id="node11" class="node">
<title>/Users/mmoscato/pvs/7.1&#45;0&#45;g3fb4f25&#45;ix86&#45;MacOSX&#45;allegro/lib/finite_sets</title>
<polygon fill="#fcfcd7" stroke="#000000" points="454.2796,-196 381.7204,-196 381.7204,-160 454.2796,-160 454.2796,-196"/>
<text text-anchor="middle" x="418" y="-173.8" font-family="Times,serif" font-size="14.00" fill="#000000">finite_sets</text>
</g>
<!-- /Users/mmoscato/nasa/pvslib/pvslib&#45;gitlab__pvs7.0/algebra&#45;&gt;/Users/mmoscato/pvs/7.1&#45;0&#45;g3fb4f25&#45;ix86&#45;MacOSX&#45;allegro/lib/finite_sets -->
<g id="edge2" class="edge">
<title>/Users/mmoscato/nasa/pvslib/pvslib&#45;gitlab__pvs7.0/algebra&#45;&gt;/Users/mmoscato/pvs/7.1&#45;0&#45;g3fb4f25&#45;ix86&#45;MacOSX&#45;allegro/lib/finite_sets</title>
<path fill="none" stroke="#000000" d="M338.5322,-305.7297C338.5322,-265.9424 338.5322,-175 338.5322,-175 338.5322,-175 371.5223,-175 371.5223,-175"/>
<polygon fill="#000000" stroke="#000000" points="371.5223,-178.5001 381.5223,-175 371.5222,-171.5001 371.5223,-178.5001"/>
</g>
<!-- /Users/mmoscato/nasa/pvslib/pvslib&#45;gitlab__pvs7.0/analysis -->
<g id="node2" class="node">
<title>/Users/mmoscato/nasa/pvslib/pvslib&#45;gitlab__pvs7.0/analysis</title>
<polygon fill="#fcfcd7" stroke="#000000" points="219.6036,-270 158.3964,-270 158.3964,-234 219.6036,-234 219.6036,-270"/>
<text text-anchor="middle" x="189" y="-247.8" font-family="Times,serif" font-size="14.00" fill="#000000">analysis</text>
</g>
<!-- /Users/mmoscato/nasa/pvslib/pvslib&#45;gitlab__pvs7.0/analysis&#45;&gt;/Users/mmoscato/nasa/pvslib/pvslib&#45;gitlab__pvs7.0/ints -->
<g id="edge3" class="edge">
<title>/Users/mmoscato/nasa/pvslib/pvslib&#45;gitlab__pvs7.0/analysis&#45;&gt;/Users/mmoscato/nasa/pvslib/pvslib&#45;gitlab__pvs7.0/ints</title>
<path fill="none" stroke="#000000" d="M219.6732,-246C223.9941,-246 227,-246 227,-246 227,-246 227,-37 227,-37 227,-37 166.0384,-37 166.0384,-37"/>
<polygon fill="#000000" stroke="#000000" points="166.0384,-33.5001 156.0384,-37 166.0383,-40.5001 166.0384,-33.5001"/>
</g>
<!-- /Users/mmoscato/nasa/pvslib/pvslib&#45;gitlab__pvs7.0/orders -->
<g id="node6" class="node">
<title>/Users/mmoscato/nasa/pvslib/pvslib&#45;gitlab__pvs7.0/orders</title>
<polygon fill="#fcfcd7" stroke="#000000" points="110,-196 56,-196 56,-160 110,-160 110,-196"/>
<text text-anchor="middle" x="83" y="-173.8" font-family="Times,serif" font-size="14.00" fill="#000000">orders</text>
</g>
<!-- /Users/mmoscato/nasa/pvslib/pvslib&#45;gitlab__pvs7.0/analysis&#45;&gt;/Users/mmoscato/nasa/pvslib/pvslib&#45;gitlab__pvs7.0/orders -->
<g id="edge4" class="edge">
<title>/Users/mmoscato/nasa/pvslib/pvslib&#45;gitlab__pvs7.0/analysis&#45;&gt;/Users/mmoscato/nasa/pvslib/pvslib&#45;gitlab__pvs7.0/orders</title>
<path fill="none" stroke="#000000" d="M158.1988,-246C131.2905,-246 96.5,-246 96.5,-246 96.5,-246 96.5,-206.2228 96.5,-206.2228"/>
<polygon fill="#000000" stroke="#000000" points="100.0001,-206.2227 96.5,-196.2228 93.0001,-206.2228 100.0001,-206.2227"/>
</g>
<!-- /Users/mmoscato/nasa/pvslib/pvslib&#45;gitlab__pvs7.0/reals -->
<g id="node7" class="node">
<title>/Users/mmoscato/nasa/pvslib/pvslib&#45;gitlab__pvs7.0/reals</title>
<polygon fill="#fcfcd7" stroke="#000000" points="222,-196 168,-196 168,-160 222,-160 222,-196"/>
<text text-anchor="middle" x="195" y="-173.8" font-family="Times,serif" font-size="14.00" fill="#000000">reals</text>
</g>
<!-- /Users/mmoscato/nasa/pvslib/pvslib&#45;gitlab__pvs7.0/analysis&#45;&gt;/Users/mmoscato/nasa/pvslib/pvslib&#45;gitlab__pvs7.0/reals -->
<g id="edge5" class="edge">
<title>/Users/mmoscato/nasa/pvslib/pvslib&#45;gitlab__pvs7.0/analysis&#45;&gt;/Users/mmoscato/nasa/pvslib/pvslib&#45;gitlab__pvs7.0/reals</title>
<path fill="none" stroke="#000000" d="M193.7759,-233.7079C193.7759,-233.7079 193.7759,-206.0817 193.7759,-206.0817"/>
<polygon fill="#000000" stroke="#000000" points="197.276,-206.0817 193.7759,-196.0817 190.276,-206.0818 197.276,-206.0817"/>
</g>
<!-- /Users/mmoscato/nasa/pvslib/pvslib&#45;gitlab__pvs7.0/structures -->
<g id="node9" class="node">
<title>/Users/mmoscato/nasa/pvslib/pvslib&#45;gitlab__pvs7.0/structures</title>
<polygon fill="#fcfcd7" stroke="#000000" points="164.429,-124 93.571,-124 93.571,-88 164.429,-88 164.429,-124"/>
<text text-anchor="middle" x="129" y="-101.8" font-family="Times,serif" font-size="14.00" fill="#000000">structures</text>
</g>
<!-- /Users/mmoscato/nasa/pvslib/pvslib&#45;gitlab__pvs7.0/analysis&#45;&gt;/Users/mmoscato/nasa/pvslib/pvslib&#45;gitlab__pvs7.0/structures -->
<g id="edge6" class="edge">
<title>/Users/mmoscato/nasa/pvslib/pvslib&#45;gitlab__pvs7.0/analysis&#45;&gt;/Users/mmoscato/nasa/pvslib/pvslib&#45;gitlab__pvs7.0/structures</title>
<path fill="none" stroke="#000000" d="M158.4066,-258C148.6132,-258 140.2561,-258 140.2561,-258 140.2561,-258 140.2561,-134.0333 140.2561,-134.0333"/>
<polygon fill="#000000" stroke="#000000" points="143.7562,-134.0333 140.2561,-124.0333 136.7562,-134.0333 143.7562,-134.0333"/>
</g>
<!-- /Users/mmoscato/nasa/pvslib/pvslib&#45;gitlab__pvs7.0/analysis&#45;&gt;/Users/mmoscato/pvs/7.1&#45;0&#45;g3fb4f25&#45;ix86&#45;MacOSX&#45;allegro/lib/finite_sets -->
<g id="edge7" class="edge">
<title>/Users/mmoscato/nasa/pvslib/pvslib&#45;gitlab__pvs7.0/analysis&#45;&gt;/Users/mmoscato/pvs/7.1&#45;0&#45;g3fb4f25&#45;ix86&#45;MacOSX&#45;allegro/lib/finite_sets</title>
<path fill="none" stroke="#000000" d="M219.6529,-258C278.1192,-258 399.8052,-258 399.8052,-258 399.8052,-258 399.8052,-206.1532 399.8052,-206.1532"/>
<polygon fill="#000000" stroke="#000000" points="403.3053,-206.1532 399.8052,-196.1532 396.3053,-206.1533 403.3053,-206.1532"/>
</g>
<!-- /Users/mmoscato/nasa/pvslib/pvslib&#45;gitlab__pvs7.0/complex -->
<g id="node3" class="node">
<title>/Users/mmoscato/nasa/pvslib/pvslib&#45;gitlab__pvs7.0/complex</title>
<polygon fill="#f7e28d" stroke="#000000" points="221.2074,-486 156.7926,-486 156.7926,-450 221.2074,-450 221.2074,-486"/>
<text text-anchor="middle" x="189" y="-463.8" font-family="Times,serif" font-size="14.00" fill="#000000">complex</text>
</g>
<!-- /Users/mmoscato/nasa/pvslib/pvslib&#45;gitlab__pvs7.0/complex&#45;&gt;/Users/mmoscato/nasa/pvslib/pvslib&#45;gitlab__pvs7.0/algebra -->
<g id="edge8" class="edge">
<title>/Users/mmoscato/nasa/pvslib/pvslib&#45;gitlab__pvs7.0/complex&#45;&gt;/Users/mmoscato/nasa/pvslib/pvslib&#45;gitlab__pvs7.0/algebra</title>
<path fill="none" stroke="#000000" d="M221.1188,-468C262.4516,-468 329,-468 329,-468 329,-468 329,-352.2377 329,-352.2377"/>
<polygon fill="#000000" stroke="#000000" points="332.5001,-352.2377 329,-342.2377 325.5001,-352.2377 332.5001,-352.2377"/>
</g>
<!-- /Users/mmoscato/nasa/pvslib/pvslib&#45;gitlab__pvs7.0/complex&#45;&gt;/Users/mmoscato/nasa/pvslib/pvslib&#45;gitlab__pvs7.0/analysis -->
<g id="edge9" class="edge">
<title>/Users/mmoscato/nasa/pvslib/pvslib&#45;gitlab__pvs7.0/complex&#45;&gt;/Users/mmoscato/nasa/pvslib/pvslib&#45;gitlab__pvs7.0/analysis</title>
<path fill="none" stroke="#000000" d="M200.4,-449.9555C200.4,-449.9555 200.4,-280.1451 200.4,-280.1451"/>
<polygon fill="#000000" stroke="#000000" points="203.9001,-280.145 200.4,-270.1451 196.9001,-280.1451 203.9001,-280.145"/>
</g>
<!-- /Users/mmoscato/nasa/pvslib/pvslib&#45;gitlab__pvs7.0/complex&#45;&gt;/Users/mmoscato/nasa/pvslib/pvslib&#45;gitlab__pvs7.0/ints -->
<g id="edge10" class="edge">
<title>/Users/mmoscato/nasa/pvslib/pvslib&#45;gitlab__pvs7.0/complex&#45;&gt;/Users/mmoscato/nasa/pvslib/pvslib&#45;gitlab__pvs7.0/ints</title>
<path fill="none" stroke="#000000" d="M156.6462,-474C109.4289,-474 27.2,-474 27.2,-474 27.2,-474 27.2,-25 27.2,-25 27.2,-25 91.9867,-25 91.9867,-25"/>
<polygon fill="#000000" stroke="#000000" points="91.9868,-28.5001 101.9867,-25 91.9867,-21.5001 91.9868,-28.5001"/>
</g>
<!-- /Users/mmoscato/nasa/pvslib/pvslib&#45;gitlab__pvs7.0/lnexp -->
<g id="node5" class="node">
<title>/Users/mmoscato/nasa/pvslib/pvslib&#45;gitlab__pvs7.0/lnexp</title>
<polygon fill="#fcfcd7" stroke="#000000" points="262,-414 208,-414 208,-378 262,-378 262,-414"/>
<text text-anchor="middle" x="235" y="-391.8" font-family="Times,serif" font-size="14.00" fill="#000000">lnexp</text>
</g>
<!-- /Users/mmoscato/nasa/pvslib/pvslib&#45;gitlab__pvs7.0/complex&#45;&gt;/Users/mmoscato/nasa/pvslib/pvslib&#45;gitlab__pvs7.0/lnexp -->
<g id="edge11" class="edge">
<title>/Users/mmoscato/nasa/pvslib/pvslib&#45;gitlab__pvs7.0/complex&#45;&gt;/Users/mmoscato/nasa/pvslib/pvslib&#45;gitlab__pvs7.0/lnexp</title>
<path fill="none" stroke="#000000" d="M214.5518,-449.8314C214.5518,-449.8314 214.5518,-424.4133 214.5518,-424.4133"/>
<polygon fill="#000000" stroke="#000000" points="218.0519,-424.4132 214.5518,-414.4133 211.0519,-424.4133 218.0519,-424.4132"/>
</g>
<!-- /Users/mmoscato/nasa/pvslib/pvslib&#45;gitlab__pvs7.0/complex&#45;&gt;/Users/mmoscato/nasa/pvslib/pvslib&#45;gitlab__pvs7.0/orders -->
<g id="edge12" class="edge">
<title>/Users/mmoscato/nasa/pvslib/pvslib&#45;gitlab__pvs7.0/complex&#45;&gt;/Users/mmoscato/nasa/pvslib/pvslib&#45;gitlab__pvs7.0/orders</title>
<path fill="none" stroke="#000000" d="M156.6616,-462C121.2711,-462 69.5,-462 69.5,-462 69.5,-462 69.5,-206.1975 69.5,-206.1975"/>
<polygon fill="#000000" stroke="#000000" points="73.0001,-206.1975 69.5,-196.1975 66.0001,-206.1975 73.0001,-206.1975"/>
</g>
<!-- /Users/mmoscato/nasa/pvslib/pvslib&#45;gitlab__pvs7.0/complex&#45;&gt;/Users/mmoscato/nasa/pvslib/pvslib&#45;gitlab__pvs7.0/reals -->
<g id="edge13" class="edge">
<title>/Users/mmoscato/nasa/pvslib/pvslib&#45;gitlab__pvs7.0/complex&#45;&gt;/Users/mmoscato/nasa/pvslib/pvslib&#45;gitlab__pvs7.0/reals</title>
<path fill="none" stroke="#000000" d="M221.2477,-459C247.836,-459 281.2017,-459 281.2017,-459 281.2017,-459 281.2017,-180 281.2017,-180 281.2017,-180 232.2747,-180 232.2747,-180"/>
<polygon fill="#000000" stroke="#000000" points="232.2748,-176.5001 222.2747,-180 232.2747,-183.5001 232.2748,-176.5001"/>
</g>
<!-- /Users/mmoscato/nasa/pvslib/pvslib&#45;gitlab__pvs7.0/series -->
<g id="node8" class="node">
<title>/Users/mmoscato/nasa/pvslib/pvslib&#45;gitlab__pvs7.0/series</title>
<polygon fill="#fcfcd7" stroke="#000000" points="170,-342 116,-342 116,-306 170,-306 170,-342"/>
<text text-anchor="middle" x="143" y="-319.8" font-family="Times,serif" font-size="14.00" fill="#000000">series</text>
</g>
<!-- /Users/mmoscato/nasa/pvslib/pvslib&#45;gitlab__pvs7.0/complex&#45;&gt;/Users/mmoscato/nasa/pvslib/pvslib&#45;gitlab__pvs7.0/series -->
<g id="edge14" class="edge">
<title>/Users/mmoscato/nasa/pvslib/pvslib&#45;gitlab__pvs7.0/complex&#45;&gt;/Users/mmoscato/nasa/pvslib/pvslib&#45;gitlab__pvs7.0/series</title>
<path fill="none" stroke="#000000" d="M177.6,-449.7933C177.6,-412.9441 177.6,-333 177.6,-333 177.6,-333 176.8662,-333 176.8662,-333"/>
<polygon fill="#000000" stroke="#000000" points="180.2623,-329.5002 170.2622,-333 180.2622,-336.5002 180.2623,-329.5002"/>
</g>
<!-- /Users/mmoscato/nasa/pvslib/pvslib&#45;gitlab__pvs7.0/complex&#45;&gt;/Users/mmoscato/nasa/pvslib/pvslib&#45;gitlab__pvs7.0/structures -->
<g id="edge15" class="edge">
<title>/Users/mmoscato/nasa/pvslib/pvslib&#45;gitlab__pvs7.0/complex&#45;&gt;/Users/mmoscato/nasa/pvslib/pvslib&#45;gitlab__pvs7.0/structures</title>
<path fill="none" stroke="#000000" d="M192.8,-449.7501C192.8,-403.9888 192.8,-288 192.8,-288 192.8,-288 134.1921,-288 134.1921,-288 134.1921,-288 134.1921,-134.1162 134.1921,-134.1162"/>
<polygon fill="#000000" stroke="#000000" points="137.6922,-134.1162 134.1921,-124.1162 130.6922,-134.1163 137.6922,-134.1162"/>
</g>
<!-- /Users/mmoscato/nasa/pvslib/pvslib&#45;gitlab__pvs7.0/trig -->
<g id="node10" class="node">
<title>/Users/mmoscato/nasa/pvslib/pvslib&#45;gitlab__pvs7.0/trig</title>
<polygon fill="#fcfcd7" stroke="#000000" points="170,-414 116,-414 116,-378 170,-378 170,-414"/>
<text text-anchor="middle" x="143" y="-391.8" font-family="Times,serif" font-size="14.00" fill="#000000">trig</text>
</g>
<!-- /Users/mmoscato/nasa/pvslib/pvslib&#45;gitlab__pvs7.0/complex&#45;&gt;/Users/mmoscato/nasa/pvslib/pvslib&#45;gitlab__pvs7.0/trig -->
<g id="edge16" class="edge">
<title>/Users/mmoscato/nasa/pvslib/pvslib&#45;gitlab__pvs7.0/complex&#45;&gt;/Users/mmoscato/nasa/pvslib/pvslib&#45;gitlab__pvs7.0/trig</title>
<path fill="none" stroke="#000000" d="M163.4482,-449.8314C163.4482,-449.8314 163.4482,-424.4133 163.4482,-424.4133"/>
<polygon fill="#000000" stroke="#000000" points="166.9483,-424.4132 163.4482,-414.4133 159.9483,-424.4133 166.9483,-424.4132"/>
</g>
<!-- /Users/mmoscato/nasa/pvslib/pvslib&#45;gitlab__pvs7.0/complex&#45;&gt;/Users/mmoscato/pvs/7.1&#45;0&#45;g3fb4f25&#45;ix86&#45;MacOSX&#45;allegro/lib/finite_sets -->
<g id="edge17" class="edge">
<title>/Users/mmoscato/nasa/pvslib/pvslib&#45;gitlab__pvs7.0/complex&#45;&gt;/Users/mmoscato/pvs/7.1&#45;0&#45;g3fb4f25&#45;ix86&#45;MacOSX&#45;allegro/lib/finite_sets</title>
<path fill="none" stroke="#000000" d="M221.3164,-477C288.3215,-477 436.1948,-477 436.1948,-477 436.1948,-477 436.1948,-206.2537 436.1948,-206.2537"/>
<polygon fill="#000000" stroke="#000000" points="439.6949,-206.2537 436.1948,-196.2537 432.6949,-206.2537 439.6949,-206.2537"/>
</g>
<!-- /Users/mmoscato/nasa/pvslib/pvslib&#45;gitlab__pvs7.0/lnexp&#45;&gt;/Users/mmoscato/nasa/pvslib/pvslib&#45;gitlab__pvs7.0/analysis -->
<g id="edge18" class="edge">
<title>/Users/mmoscato/nasa/pvslib/pvslib&#45;gitlab__pvs7.0/lnexp&#45;&gt;/Users/mmoscato/nasa/pvslib/pvslib&#45;gitlab__pvs7.0/analysis</title>
<path fill="none" stroke="#000000" d="M215.7012,-377.7623C215.7012,-377.7623 215.7012,-280.0896 215.7012,-280.0896"/>
<polygon fill="#000000" stroke="#000000" points="219.2013,-280.0896 215.7012,-270.0896 212.2013,-280.0897 219.2013,-280.0896"/>
</g>
<!-- /Users/mmoscato/nasa/pvslib/pvslib&#45;gitlab__pvs7.0/lnexp&#45;&gt;/Users/mmoscato/nasa/pvslib/pvslib&#45;gitlab__pvs7.0/ints -->
<g id="edge19" class="edge">
<title>/Users/mmoscato/nasa/pvslib/pvslib&#45;gitlab__pvs7.0/lnexp&#45;&gt;/Users/mmoscato/nasa/pvslib/pvslib&#45;gitlab__pvs7.0/ints</title>
<path fill="none" stroke="#000000" d="M252,-377.85C252,-303.9988 252,-30 252,-30 252,-30 166.2977,-30 166.2977,-30"/>
<polygon fill="#000000" stroke="#000000" points="166.2977,-26.5001 156.2977,-30 166.2977,-33.5001 166.2977,-26.5001"/>
</g>
<!-- /Users/mmoscato/nasa/pvslib/pvslib&#45;gitlab__pvs7.0/lnexp&#45;&gt;/Users/mmoscato/nasa/pvslib/pvslib&#45;gitlab__pvs7.0/reals -->
<g id="edge20" class="edge">
<title>/Users/mmoscato/nasa/pvslib/pvslib&#45;gitlab__pvs7.0/lnexp&#45;&gt;/Users/mmoscato/nasa/pvslib/pvslib&#45;gitlab__pvs7.0/reals</title>
<path fill="none" stroke="#000000" d="M242,-377.6442C242,-326.3092 242,-185 242,-185 242,-185 232.0678,-185 232.0678,-185"/>
<polygon fill="#000000" stroke="#000000" points="232.0678,-181.5001 222.0678,-185 232.0677,-188.5001 232.0678,-181.5001"/>
</g>
<!-- /Users/mmoscato/nasa/pvslib/pvslib&#45;gitlab__pvs7.0/lnexp&#45;&gt;/Users/mmoscato/nasa/pvslib/pvslib&#45;gitlab__pvs7.0/series -->
<g id="edge21" class="edge">
<title>/Users/mmoscato/nasa/pvslib/pvslib&#45;gitlab__pvs7.0/lnexp&#45;&gt;/Users/mmoscato/nasa/pvslib/pvslib&#45;gitlab__pvs7.0/series</title>
<path fill="none" stroke="#000000" d="M211.8506,-377.8314C211.8506,-356.502 211.8506,-324 211.8506,-324 211.8506,-324 180.2116,-324 180.2116,-324"/>
<polygon fill="#000000" stroke="#000000" points="180.2116,-320.5001 170.2116,-324 180.2115,-327.5001 180.2116,-320.5001"/>
</g>
<!-- /Users/mmoscato/nasa/pvslib/pvslib&#45;gitlab__pvs7.0/lnexp&#45;&gt;/Users/mmoscato/nasa/pvslib/pvslib&#45;gitlab__pvs7.0/structures -->
<g id="edge22" class="edge">
<title>/Users/mmoscato/nasa/pvslib/pvslib&#45;gitlab__pvs7.0/lnexp&#45;&gt;/Users/mmoscato/nasa/pvslib/pvslib&#45;gitlab__pvs7.0/structures</title>
<path fill="none" stroke="#000000" d="M247,-377.8592C247,-314.3711 247,-106 247,-106 247,-106 174.4039,-106 174.4039,-106"/>
<polygon fill="#000000" stroke="#000000" points="174.4039,-102.5001 164.4039,-106 174.4039,-109.5001 174.4039,-102.5001"/>
</g>
<!-- /Users/mmoscato/nasa/pvslib/pvslib&#45;gitlab__pvs7.0/lnexp&#45;&gt;/Users/mmoscato/pvs/7.1&#45;0&#45;g3fb4f25&#45;ix86&#45;MacOSX&#45;allegro/lib/finite_sets -->
<g id="edge23" class="edge">
<title>/Users/mmoscato/nasa/pvslib/pvslib&#45;gitlab__pvs7.0/lnexp&#45;&gt;/Users/mmoscato/pvs/7.1&#45;0&#45;g3fb4f25&#45;ix86&#45;MacOSX&#45;allegro/lib/finite_sets</title>
<path fill="none" stroke="#000000" d="M257,-377.8875C257,-324.2586 257,-170 257,-170 257,-170 371.4666,-170 371.4666,-170"/>
<polygon fill="#000000" stroke="#000000" points="371.4666,-173.5001 381.4666,-170 371.4666,-166.5001 371.4666,-173.5001"/>
</g>
<!-- /Users/mmoscato/nasa/pvslib/pvslib&#45;gitlab__pvs7.0/reals&#45;&gt;/Users/mmoscato/nasa/pvslib/pvslib&#45;gitlab__pvs7.0/ints -->
<g id="edge24" class="edge">
<title>/Users/mmoscato/nasa/pvslib/pvslib&#45;gitlab__pvs7.0/reals&#45;&gt;/Users/mmoscato/nasa/pvslib/pvslib&#45;gitlab__pvs7.0/ints</title>
<path fill="none" stroke="#000000" d="M195,-159.9282C195,-123.3519 195,-44 195,-44 195,-44 166.2258,-44 166.2258,-44"/>
<polygon fill="#000000" stroke="#000000" points="166.2258,-40.5001 156.2258,-44 166.2257,-47.5001 166.2258,-40.5001"/>
</g>
<!-- /Users/mmoscato/nasa/pvslib/pvslib&#45;gitlab__pvs7.0/reals&#45;&gt;/Users/mmoscato/nasa/pvslib/pvslib&#45;gitlab__pvs7.0/structures -->
<g id="edge25" class="edge">
<title>/Users/mmoscato/nasa/pvslib/pvslib&#45;gitlab__pvs7.0/reals&#45;&gt;/Users/mmoscato/nasa/pvslib/pvslib&#45;gitlab__pvs7.0/structures</title>
<path fill="none" stroke="#000000" d="M167.7695,-169C159.4175,-169 152.3842,-169 152.3842,-169 152.3842,-169 152.3842,-134.2222 152.3842,-134.2222"/>
<polygon fill="#000000" stroke="#000000" points="155.8843,-134.2222 152.3842,-124.2222 148.8843,-134.2222 155.8843,-134.2222"/>
</g>
<!-- /Users/mmoscato/nasa/pvslib/pvslib&#45;gitlab__pvs7.0/series&#45;&gt;/Users/mmoscato/nasa/pvslib/pvslib&#45;gitlab__pvs7.0/analysis -->
<g id="edge26" class="edge">
<title>/Users/mmoscato/nasa/pvslib/pvslib&#45;gitlab__pvs7.0/series&#45;&gt;/Users/mmoscato/nasa/pvslib/pvslib&#45;gitlab__pvs7.0/analysis</title>
<path fill="none" stroke="#000000" d="M164.2241,-305.8314C164.2241,-305.8314 164.2241,-280.4133 164.2241,-280.4133"/>
<polygon fill="#000000" stroke="#000000" points="167.7242,-280.4132 164.2241,-270.4133 160.7242,-280.4133 167.7242,-280.4132"/>
</g>
<!-- /Users/mmoscato/nasa/pvslib/pvslib&#45;gitlab__pvs7.0/series&#45;&gt;/Users/mmoscato/nasa/pvslib/pvslib&#45;gitlab__pvs7.0/ints -->
<g id="edge27" class="edge">
<title>/Users/mmoscato/nasa/pvslib/pvslib&#45;gitlab__pvs7.0/series&#45;&gt;/Users/mmoscato/nasa/pvslib/pvslib&#45;gitlab__pvs7.0/ints</title>
<path fill="none" stroke="#000000" d="M115.7535,-324C87.9326,-324 48.8,-324 48.8,-324 48.8,-324 48.8,-43 48.8,-43 48.8,-43 91.8479,-43 91.8479,-43"/>
<polygon fill="#000000" stroke="#000000" points="91.848,-46.5001 101.8479,-43 91.8479,-39.5001 91.848,-46.5001"/>
</g>
<!-- /Users/mmoscato/nasa/pvslib/pvslib&#45;gitlab__pvs7.0/series&#45;&gt;/Users/mmoscato/nasa/pvslib/pvslib&#45;gitlab__pvs7.0/orders -->
<g id="edge28" class="edge">
<title>/Users/mmoscato/nasa/pvslib/pvslib&#45;gitlab__pvs7.0/series&#45;&gt;/Users/mmoscato/nasa/pvslib/pvslib&#45;gitlab__pvs7.0/orders</title>
<path fill="none" stroke="#000000" d="M122.064,-305.8075C122.064,-268.5408 122.064,-187 122.064,-187 122.064,-187 120.1313,-187 120.1313,-187"/>
<polygon fill="#000000" stroke="#000000" points="120.1313,-183.5001 110.1313,-187 120.1312,-190.5001 120.1313,-183.5001"/>
</g>
<!-- /Users/mmoscato/nasa/pvslib/pvslib&#45;gitlab__pvs7.0/series&#45;&gt;/Users/mmoscato/nasa/pvslib/pvslib&#45;gitlab__pvs7.0/reals -->
<g id="edge29" class="edge">
<title>/Users/mmoscato/nasa/pvslib/pvslib&#45;gitlab__pvs7.0/series&#45;&gt;/Users/mmoscato/nasa/pvslib/pvslib&#45;gitlab__pvs7.0/reals</title>
<path fill="none" stroke="#000000" d="M146.3202,-305.8042C146.3202,-266.6663 146.3202,-178 146.3202,-178 146.3202,-178 157.8136,-178 157.8136,-178"/>
<polygon fill="#000000" stroke="#000000" points="157.8136,-181.5001 167.8136,-178 157.8135,-174.5001 157.8136,-181.5001"/>
</g>
<!-- /Users/mmoscato/nasa/pvslib/pvslib&#45;gitlab__pvs7.0/series&#45;&gt;/Users/mmoscato/nasa/pvslib/pvslib&#45;gitlab__pvs7.0/structures -->
<g id="edge30" class="edge">
<title>/Users/mmoscato/nasa/pvslib/pvslib&#45;gitlab__pvs7.0/series&#45;&gt;/Users/mmoscato/nasa/pvslib/pvslib&#45;gitlab__pvs7.0/structures</title>
<path fill="none" stroke="#000000" d="M128.1281,-305.7884C128.1281,-305.7884 128.1281,-134.0064 128.1281,-134.0064"/>
<polygon fill="#000000" stroke="#000000" points="131.6282,-134.0064 128.1281,-124.0064 124.6282,-134.0065 131.6282,-134.0064"/>
</g>
<!-- /Users/mmoscato/nasa/pvslib/pvslib&#45;gitlab__pvs7.0/series&#45;&gt;/Users/mmoscato/pvs/7.1&#45;0&#45;g3fb4f25&#45;ix86&#45;MacOSX&#45;allegro/lib/finite_sets -->
<g id="edge31" class="edge">
<title>/Users/mmoscato/nasa/pvslib/pvslib&#45;gitlab__pvs7.0/series&#45;&gt;/Users/mmoscato/pvs/7.1&#45;0&#45;g3fb4f25&#45;ix86&#45;MacOSX&#45;allegro/lib/finite_sets</title>
<path fill="none" stroke="#000000" d="M170.1865,-315C196.3598,-315 232,-315 232,-315 232,-315 232,-165 232,-165 232,-165 371.6958,-165 371.6958,-165"/>
<polygon fill="#000000" stroke="#000000" points="371.6958,-168.5001 381.6958,-165 371.6957,-161.5001 371.6958,-168.5001"/>
</g>
<!-- /Users/mmoscato/nasa/pvslib/pvslib&#45;gitlab__pvs7.0/structures&#45;&gt;/Users/mmoscato/nasa/pvslib/pvslib&#45;gitlab__pvs7.0/ints -->
<g id="edge32" class="edge">
<title>/Users/mmoscato/nasa/pvslib/pvslib&#45;gitlab__pvs7.0/structures&#45;&gt;/Users/mmoscato/nasa/pvslib/pvslib&#45;gitlab__pvs7.0/ints</title>
<path fill="none" stroke="#000000" d="M129,-87.8314C129,-87.8314 129,-62.4133 129,-62.4133"/>
<polygon fill="#000000" stroke="#000000" points="132.5001,-62.4132 129,-52.4133 125.5001,-62.4133 132.5001,-62.4132"/>
</g>
<!-- /Users/mmoscato/nasa/pvslib/pvslib&#45;gitlab__pvs7.0/trig&#45;&gt;/Users/mmoscato/nasa/pvslib/pvslib&#45;gitlab__pvs7.0/analysis -->
<g id="edge33" class="edge">
<title>/Users/mmoscato/nasa/pvslib/pvslib&#45;gitlab__pvs7.0/trig&#45;&gt;/Users/mmoscato/nasa/pvslib/pvslib&#45;gitlab__pvs7.0/analysis</title>
<path fill="none" stroke="#000000" d="M170.4405,-396C178.5006,-396 185.2,-396 185.2,-396 185.2,-396 185.2,-280.2377 185.2,-280.2377"/>
<polygon fill="#000000" stroke="#000000" points="188.7001,-280.2377 185.2,-270.2377 181.7001,-280.2377 188.7001,-280.2377"/>
</g>
<!-- /Users/mmoscato/nasa/pvslib/pvslib&#45;gitlab__pvs7.0/trig&#45;&gt;/Users/mmoscato/nasa/pvslib/pvslib&#45;gitlab__pvs7.0/ints -->
<g id="edge34" class="edge">
<title>/Users/mmoscato/nasa/pvslib/pvslib&#45;gitlab__pvs7.0/trig&#45;&gt;/Users/mmoscato/nasa/pvslib/pvslib&#45;gitlab__pvs7.0/ints</title>
<path fill="none" stroke="#000000" d="M115.8758,-405C83.7092,-405 34.4,-405 34.4,-405 34.4,-405 34.4,-34 34.4,-34 34.4,-34 91.8914,-34 91.8914,-34"/>
<polygon fill="#000000" stroke="#000000" points="91.8915,-37.5001 101.8914,-34 91.8914,-30.5001 91.8915,-37.5001"/>
</g>
<!-- /Users/mmoscato/nasa/pvslib/pvslib&#45;gitlab__pvs7.0/trig&#45;&gt;/Users/mmoscato/nasa/pvslib/pvslib&#45;gitlab__pvs7.0/orders -->
<g id="edge35" class="edge">
<title>/Users/mmoscato/nasa/pvslib/pvslib&#45;gitlab__pvs7.0/trig&#45;&gt;/Users/mmoscato/nasa/pvslib/pvslib&#45;gitlab__pvs7.0/orders</title>
<path fill="none" stroke="#000000" d="M115.8088,-387C99.9336,-387 83,-387 83,-387 83,-387 83,-206.1818 83,-206.1818"/>
<polygon fill="#000000" stroke="#000000" points="86.5001,-206.1817 83,-196.1818 79.5001,-206.1818 86.5001,-206.1817"/>
</g>
<!-- /Users/mmoscato/nasa/pvslib/pvslib&#45;gitlab__pvs7.0/trig&#45;&gt;/Users/mmoscato/nasa/pvslib/pvslib&#45;gitlab__pvs7.0/reals -->
<g id="edge36" class="edge">
<title>/Users/mmoscato/nasa/pvslib/pvslib&#45;gitlab__pvs7.0/trig&#45;&gt;/Users/mmoscato/nasa/pvslib/pvslib&#45;gitlab__pvs7.0/reals</title>
<path fill="none" stroke="#000000" d="M143,-377.9445C143,-366.561 143,-354 143,-354 143,-354 237,-354 237,-354 237,-354 237,-190 237,-190 237,-190 232.3104,-190 232.3104,-190"/>
<polygon fill="#000000" stroke="#000000" points="232.3105,-186.5001 222.3104,-190 232.3104,-193.5001 232.3105,-186.5001"/>
</g>
<!-- /Users/mmoscato/nasa/pvslib/pvslib&#45;gitlab__pvs7.0/trig&#45;&gt;/Users/mmoscato/nasa/pvslib/pvslib&#45;gitlab__pvs7.0/series -->
<g id="edge37" class="edge">
<title>/Users/mmoscato/nasa/pvslib/pvslib&#45;gitlab__pvs7.0/trig&#45;&gt;/Users/mmoscato/nasa/pvslib/pvslib&#45;gitlab__pvs7.0/series</title>
<path fill="none" stroke="#000000" d="M129.5,-377.8314C129.5,-377.8314 129.5,-352.4133 129.5,-352.4133"/>
<polygon fill="#000000" stroke="#000000" points="133.0001,-352.4132 129.5,-342.4133 126.0001,-352.4133 133.0001,-352.4132"/>
</g>
<!-- /Users/mmoscato/nasa/pvslib/pvslib&#45;gitlab__pvs7.0/trig&#45;&gt;/Users/mmoscato/nasa/pvslib/pvslib&#45;gitlab__pvs7.0/structures -->
<g id="edge38" class="edge">
<title>/Users/mmoscato/nasa/pvslib/pvslib&#45;gitlab__pvs7.0/trig&#45;&gt;/Users/mmoscato/nasa/pvslib/pvslib&#45;gitlab__pvs7.0/structures</title>
<path fill="none" stroke="#000000" d="M115.8267,-396C85.7908,-396 41.6,-396 41.6,-396 41.6,-396 41.6,-106 41.6,-106 41.6,-106 83.703,-106 83.703,-106"/>
<polygon fill="#000000" stroke="#000000" points="83.703,-109.5001 93.703,-106 83.703,-102.5001 83.703,-109.5001"/>
</g>
<!-- /Users/mmoscato/nasa/pvslib/pvslib&#45;gitlab__pvs7.0/trig&#45;&gt;/Users/mmoscato/pvs/7.1&#45;0&#45;g3fb4f25&#45;ix86&#45;MacOSX&#45;allegro/lib/finite_sets -->
<g id="edge39" class="edge">
<title>/Users/mmoscato/nasa/pvslib/pvslib&#45;gitlab__pvs7.0/trig&#45;&gt;/Users/mmoscato/pvs/7.1&#45;0&#45;g3fb4f25&#45;ix86&#45;MacOSX&#45;allegro/lib/finite_sets</title>
<path fill="none" stroke="#000000" d="M156.5,-377.8568C156.5,-371.5389 156.5,-366 156.5,-366 156.5,-366 418,-366 418,-366 418,-366 418,-206.0262 418,-206.0262"/>
<polygon fill="#000000" stroke="#000000" points="421.5001,-206.0262 418,-196.0262 414.5001,-206.0263 421.5001,-206.0262"/>
</g>
</g>
</svg>
