<?xml version="1.0" encoding="UTF-8" standalone="no"?>
<!DOCTYPE svg PUBLIC "-//W3C//DTD SVG 1.1//EN"
 "http://www.w3.org/Graphics/SVG/1.1/DTD/svg11.dtd">
<!-- Generated by graphviz version 2.40.1 (20161225.0304)
 -->
<!-- Title: Sturm Pages: 1 -->
<svg width="172pt" height="386pt"
 viewBox="0.00 0.00 172.00 386.00" xmlns="http://www.w3.org/2000/svg" xmlns:xlink="http://www.w3.org/1999/xlink">
<g id="graph0" class="graph" transform="scale(1 1) rotate(0) translate(4 382)">
<title>Sturm</title>
<polygon fill="#ffffff" stroke="transparent" points="-4,4 -4,-382 168,-382 168,4 -4,4"/>
<g id="clust1" class="cluster">
<title>cluster_NASALib</title>
<polygon fill="none" stroke="#000000" points="8,-8 8,-370 156,-370 156,-8 8,-8"/>
<text text-anchor="middle" x="82" y="-354.8" font-family="Times,serif" font-size="14.00" fill="#000000">NASALib</text>
</g>
<!-- /Users/mmoscato/nasa/pvslib/pvslib&#45;gitlab__pvs7.0/Sturm -->
<g id="node1" class="node">
<title>/Users/mmoscato/nasa/pvslib/pvslib&#45;gitlab__pvs7.0/Sturm</title>
<polygon fill="#f7e28d" stroke="#000000" points="109,-340 55,-340 55,-304 109,-304 109,-340"/>
<text text-anchor="middle" x="82" y="-317.8" font-family="Times,serif" font-size="14.00" fill="#000000">Sturm</text>
</g>
<!-- /Users/mmoscato/nasa/pvslib/pvslib&#45;gitlab__pvs7.0/interval_arith -->
<g id="node2" class="node">
<title>/Users/mmoscato/nasa/pvslib/pvslib&#45;gitlab__pvs7.0/interval_arith</title>
<polygon fill="#fcfcd7" stroke="#000000" points="127.915,-268 36.085,-268 36.085,-232 127.915,-232 127.915,-268"/>
<text text-anchor="middle" x="82" y="-245.8" font-family="Times,serif" font-size="14.00" fill="#000000">interval_arith</text>
</g>
<!-- /Users/mmoscato/nasa/pvslib/pvslib&#45;gitlab__pvs7.0/Sturm&#45;&gt;/Users/mmoscato/nasa/pvslib/pvslib&#45;gitlab__pvs7.0/interval_arith -->
<g id="edge1" class="edge">
<title>/Users/mmoscato/nasa/pvslib/pvslib&#45;gitlab__pvs7.0/Sturm&#45;&gt;/Users/mmoscato/nasa/pvslib/pvslib&#45;gitlab__pvs7.0/interval_arith</title>
<path fill="none" stroke="#000000" d="M82,-303.8314C82,-303.8314 82,-278.4133 82,-278.4133"/>
<polygon fill="#000000" stroke="#000000" points="85.5001,-278.4132 82,-268.4133 78.5001,-278.4133 85.5001,-278.4132"/>
</g>
<!-- /Users/mmoscato/nasa/pvslib/pvslib&#45;gitlab__pvs7.0/ints -->
<g id="node3" class="node">
<title>/Users/mmoscato/nasa/pvslib/pvslib&#45;gitlab__pvs7.0/ints</title>
<polygon fill="#fcfcd7" stroke="#000000" points="113,-52 59,-52 59,-16 113,-16 113,-52"/>
<text text-anchor="middle" x="86" y="-29.8" font-family="Times,serif" font-size="14.00" fill="#000000">ints</text>
</g>
<!-- /Users/mmoscato/nasa/pvslib/pvslib&#45;gitlab__pvs7.0/Sturm&#45;&gt;/Users/mmoscato/nasa/pvslib/pvslib&#45;gitlab__pvs7.0/ints -->
<g id="edge2" class="edge">
<title>/Users/mmoscato/nasa/pvslib/pvslib&#45;gitlab__pvs7.0/Sturm&#45;&gt;/Users/mmoscato/nasa/pvslib/pvslib&#45;gitlab__pvs7.0/ints</title>
<path fill="none" stroke="#000000" d="M54.7357,-328C35.0809,-328 12,-328 12,-328 12,-328 12,-34 12,-34 12,-34 48.8653,-34 48.8653,-34"/>
<polygon fill="#000000" stroke="#000000" points="48.8654,-37.5001 58.8653,-34 48.8653,-30.5001 48.8654,-37.5001"/>
</g>
<!-- /Users/mmoscato/nasa/pvslib/pvslib&#45;gitlab__pvs7.0/reals -->
<g id="node4" class="node">
<title>/Users/mmoscato/nasa/pvslib/pvslib&#45;gitlab__pvs7.0/reals</title>
<polygon fill="#fcfcd7" stroke="#000000" points="90,-196 36,-196 36,-160 90,-160 90,-196"/>
<text text-anchor="middle" x="63" y="-173.8" font-family="Times,serif" font-size="14.00" fill="#000000">reals</text>
</g>
<!-- /Users/mmoscato/nasa/pvslib/pvslib&#45;gitlab__pvs7.0/Sturm&#45;&gt;/Users/mmoscato/nasa/pvslib/pvslib&#45;gitlab__pvs7.0/reals -->
<g id="edge3" class="edge">
<title>/Users/mmoscato/nasa/pvslib/pvslib&#45;gitlab__pvs7.0/Sturm&#45;&gt;/Users/mmoscato/nasa/pvslib/pvslib&#45;gitlab__pvs7.0/reals</title>
<path fill="none" stroke="#000000" d="M54.6984,-316C39.6549,-316 24,-316 24,-316 24,-316 24,-178 24,-178 24,-178 25.9132,-178 25.9132,-178"/>
<polygon fill="#000000" stroke="#000000" points="25.9132,-181.5001 35.9132,-178 25.9132,-174.5001 25.9132,-181.5001"/>
</g>
<!-- /Users/mmoscato/nasa/pvslib/pvslib&#45;gitlab__pvs7.0/structures -->
<g id="node5" class="node">
<title>/Users/mmoscato/nasa/pvslib/pvslib&#45;gitlab__pvs7.0/structures</title>
<polygon fill="#fcfcd7" stroke="#000000" points="148.429,-124 77.571,-124 77.571,-88 148.429,-88 148.429,-124"/>
<text text-anchor="middle" x="113" y="-101.8" font-family="Times,serif" font-size="14.00" fill="#000000">structures</text>
</g>
<!-- /Users/mmoscato/nasa/pvslib/pvslib&#45;gitlab__pvs7.0/Sturm&#45;&gt;/Users/mmoscato/nasa/pvslib/pvslib&#45;gitlab__pvs7.0/structures -->
<g id="edge4" class="edge">
<title>/Users/mmoscato/nasa/pvslib/pvslib&#45;gitlab__pvs7.0/Sturm&#45;&gt;/Users/mmoscato/nasa/pvslib/pvslib&#45;gitlab__pvs7.0/structures</title>
<path fill="none" stroke="#000000" d="M109.3245,-322C123.5297,-322 137.9604,-322 137.9604,-322 137.9604,-322 137.9604,-134.0445 137.9604,-134.0445"/>
<polygon fill="#000000" stroke="#000000" points="141.4605,-134.0445 137.9604,-124.0445 134.4605,-134.0446 141.4605,-134.0445"/>
</g>
<!-- /Users/mmoscato/nasa/pvslib/pvslib&#45;gitlab__pvs7.0/interval_arith&#45;&gt;/Users/mmoscato/nasa/pvslib/pvslib&#45;gitlab__pvs7.0/ints -->
<g id="edge5" class="edge">
<title>/Users/mmoscato/nasa/pvslib/pvslib&#45;gitlab__pvs7.0/interval_arith&#45;&gt;/Users/mmoscato/nasa/pvslib/pvslib&#45;gitlab__pvs7.0/ints</title>
<path fill="none" stroke="#000000" d="M102.569,-231.6793C102.569,-200.8664 102.569,-142 102.569,-142 102.569,-142 71.5241,-142 71.5241,-142 71.5241,-142 71.5241,-62.3207 71.5241,-62.3207"/>
<polygon fill="#000000" stroke="#000000" points="75.0242,-62.3207 71.5241,-52.3207 68.0242,-62.3208 75.0242,-62.3207"/>
</g>
<!-- /Users/mmoscato/nasa/pvslib/pvslib&#45;gitlab__pvs7.0/interval_arith&#45;&gt;/Users/mmoscato/nasa/pvslib/pvslib&#45;gitlab__pvs7.0/reals -->
<g id="edge6" class="edge">
<title>/Users/mmoscato/nasa/pvslib/pvslib&#45;gitlab__pvs7.0/interval_arith&#45;&gt;/Users/mmoscato/nasa/pvslib/pvslib&#45;gitlab__pvs7.0/reals</title>
<path fill="none" stroke="#000000" d="M63.1465,-231.8314C63.1465,-231.8314 63.1465,-206.4133 63.1465,-206.4133"/>
<polygon fill="#000000" stroke="#000000" points="66.6466,-206.4132 63.1465,-196.4133 59.6466,-206.4133 66.6466,-206.4132"/>
</g>
<!-- /Users/mmoscato/nasa/pvslib/pvslib&#45;gitlab__pvs7.0/interval_arith&#45;&gt;/Users/mmoscato/nasa/pvslib/pvslib&#45;gitlab__pvs7.0/structures -->
<g id="edge7" class="edge">
<title>/Users/mmoscato/nasa/pvslib/pvslib&#45;gitlab__pvs7.0/interval_arith&#45;&gt;/Users/mmoscato/nasa/pvslib/pvslib&#45;gitlab__pvs7.0/structures</title>
<path fill="none" stroke="#000000" d="M115.138,-231.7623C115.138,-231.7623 115.138,-134.0896 115.138,-134.0896"/>
<polygon fill="#000000" stroke="#000000" points="118.6381,-134.0896 115.138,-124.0896 111.6381,-134.0897 118.6381,-134.0896"/>
</g>
<!-- /Users/mmoscato/nasa/pvslib/pvslib&#45;gitlab__pvs7.0/reals&#45;&gt;/Users/mmoscato/nasa/pvslib/pvslib&#45;gitlab__pvs7.0/ints -->
<g id="edge8" class="edge">
<title>/Users/mmoscato/nasa/pvslib/pvslib&#45;gitlab__pvs7.0/reals&#45;&gt;/Users/mmoscato/nasa/pvslib/pvslib&#45;gitlab__pvs7.0/ints</title>
<path fill="none" stroke="#000000" d="M65.262,-159.7623C65.262,-159.7623 65.262,-62.0896 65.262,-62.0896"/>
<polygon fill="#000000" stroke="#000000" points="68.7621,-62.0896 65.262,-52.0896 61.7621,-62.0897 68.7621,-62.0896"/>
</g>
<!-- /Users/mmoscato/nasa/pvslib/pvslib&#45;gitlab__pvs7.0/reals&#45;&gt;/Users/mmoscato/nasa/pvslib/pvslib&#45;gitlab__pvs7.0/structures -->
<g id="edge9" class="edge">
<title>/Users/mmoscato/nasa/pvslib/pvslib&#45;gitlab__pvs7.0/reals&#45;&gt;/Users/mmoscato/nasa/pvslib/pvslib&#45;gitlab__pvs7.0/structures</title>
<path fill="none" stroke="#000000" d="M83.8931,-159.8314C83.8931,-159.8314 83.8931,-134.4133 83.8931,-134.4133"/>
<polygon fill="#000000" stroke="#000000" points="87.3932,-134.4132 83.8931,-124.4133 80.3932,-134.4133 87.3932,-134.4132"/>
</g>
<!-- /Users/mmoscato/nasa/pvslib/pvslib&#45;gitlab__pvs7.0/structures&#45;&gt;/Users/mmoscato/nasa/pvslib/pvslib&#45;gitlab__pvs7.0/ints -->
<g id="edge10" class="edge">
<title>/Users/mmoscato/nasa/pvslib/pvslib&#45;gitlab__pvs7.0/structures&#45;&gt;/Users/mmoscato/nasa/pvslib/pvslib&#45;gitlab__pvs7.0/ints</title>
<path fill="none" stroke="#000000" d="M95.3931,-87.8314C95.3931,-87.8314 95.3931,-62.4133 95.3931,-62.4133"/>
<polygon fill="#000000" stroke="#000000" points="98.8932,-62.4132 95.3931,-52.4133 91.8932,-62.4133 98.8932,-62.4132"/>
</g>
</g>
</svg>
