<?xml version="1.0" encoding="UTF-8" standalone="no"?>
<!DOCTYPE svg PUBLIC "-//W3C//DTD SVG 1.1//EN"
 "http://www.w3.org/Graphics/SVG/1.1/DTD/svg11.dtd">
<!-- Generated by graphviz version 2.40.1 (20161225.0304)
 -->
<!-- Title: PVSioChecker Pages: 1 -->
<svg width="140pt" height="170pt"
 viewBox="0.00 0.00 140.00 170.00" xmlns="http://www.w3.org/2000/svg" xmlns:xlink="http://www.w3.org/1999/xlink">
<g id="graph0" class="graph" transform="scale(1 1) rotate(0) translate(4 166)">
<title>PVSioChecker</title>
<polygon fill="#ffffff" stroke="transparent" points="-4,4 -4,-166 136,-166 136,4 -4,4"/>
<g id="clust1" class="cluster">
<title>cluster_NASALib</title>
<polygon fill="none" stroke="#000000" points="8,-8 8,-154 124,-154 124,-8 8,-8"/>
<text text-anchor="middle" x="66" y="-138.8" font-family="Times,serif" font-size="14.00" fill="#000000">NASALib</text>
</g>
<!-- /Users/mmoscato/nasa/pvslib/pvslib&#45;gitlab__pvs7.0/PVSioChecker -->
<g id="node1" class="node">
<title>/Users/mmoscato/nasa/pvslib/pvslib&#45;gitlab__pvs7.0/PVSioChecker</title>
<polygon fill="#f7e28d" stroke="#000000" points="115.7141,-124 16.2859,-124 16.2859,-88 115.7141,-88 115.7141,-124"/>
<text text-anchor="middle" x="66" y="-101.8" font-family="Times,serif" font-size="14.00" fill="#000000">PVSioChecker</text>
</g>
<!-- /Users/mmoscato/nasa/pvslib/pvslib&#45;gitlab__pvs7.0/reals -->
<g id="node2" class="node">
<title>/Users/mmoscato/nasa/pvslib/pvslib&#45;gitlab__pvs7.0/reals</title>
<polygon fill="#fcfcd7" stroke="#000000" points="93,-52 39,-52 39,-16 93,-16 93,-52"/>
<text text-anchor="middle" x="66" y="-29.8" font-family="Times,serif" font-size="14.00" fill="#000000">reals</text>
</g>
<!-- /Users/mmoscato/nasa/pvslib/pvslib&#45;gitlab__pvs7.0/PVSioChecker&#45;&gt;/Users/mmoscato/nasa/pvslib/pvslib&#45;gitlab__pvs7.0/reals -->
<g id="edge1" class="edge">
<title>/Users/mmoscato/nasa/pvslib/pvslib&#45;gitlab__pvs7.0/PVSioChecker&#45;&gt;/Users/mmoscato/nasa/pvslib/pvslib&#45;gitlab__pvs7.0/reals</title>
<path fill="none" stroke="#000000" d="M66,-87.8314C66,-87.8314 66,-62.4133 66,-62.4133"/>
<polygon fill="#000000" stroke="#000000" points="69.5001,-62.4132 66,-52.4133 62.5001,-62.4133 69.5001,-62.4132"/>
</g>
</g>
</svg>
