<?xml version="1.0" encoding="UTF-8" standalone="no"?>
<!DOCTYPE svg PUBLIC "-//W3C//DTD SVG 1.1//EN"
 "http://www.w3.org/Graphics/SVG/1.1/DTD/svg11.dtd">
<!-- Generated by graphviz version 2.40.1 (20161225.0304)
 -->
<!-- Title: reals Pages: 1 -->
<svg width="130pt" height="242pt"
 viewBox="0.00 0.00 130.00 242.00" xmlns="http://www.w3.org/2000/svg" xmlns:xlink="http://www.w3.org/1999/xlink">
<g id="graph0" class="graph" transform="scale(1 1) rotate(0) translate(4 238)">
<title>reals</title>
<polygon fill="#ffffff" stroke="transparent" points="-4,4 -4,-238 126,-238 126,4 -4,4"/>
<g id="clust1" class="cluster">
<title>cluster_NASALib</title>
<polygon fill="none" stroke="#000000" points="8,-8 8,-226 114,-226 114,-8 8,-8"/>
<text text-anchor="middle" x="61" y="-210.8" font-family="Times,serif" font-size="14.00" fill="#000000">NASALib</text>
</g>
<!-- /Users/mmoscato/nasa/pvslib/pvslib&#45;gitlab__pvs7.0/ints -->
<g id="node1" class="node">
<title>/Users/mmoscato/nasa/pvslib/pvslib&#45;gitlab__pvs7.0/ints</title>
<polygon fill="#fcfcd7" stroke="#000000" points="84,-52 30,-52 30,-16 84,-16 84,-52"/>
<text text-anchor="middle" x="57" y="-29.8" font-family="Times,serif" font-size="14.00" fill="#000000">ints</text>
</g>
<!-- /Users/mmoscato/nasa/pvslib/pvslib&#45;gitlab__pvs7.0/reals -->
<g id="node2" class="node">
<title>/Users/mmoscato/nasa/pvslib/pvslib&#45;gitlab__pvs7.0/reals</title>
<polygon fill="#f7e28d" stroke="#000000" points="84,-196 30,-196 30,-160 84,-160 84,-196"/>
<text text-anchor="middle" x="57" y="-173.8" font-family="Times,serif" font-size="14.00" fill="#000000">reals</text>
</g>
<!-- /Users/mmoscato/nasa/pvslib/pvslib&#45;gitlab__pvs7.0/reals&#45;&gt;/Users/mmoscato/nasa/pvslib/pvslib&#45;gitlab__pvs7.0/ints -->
<g id="edge1" class="edge">
<title>/Users/mmoscato/nasa/pvslib/pvslib&#45;gitlab__pvs7.0/reals&#45;&gt;/Users/mmoscato/nasa/pvslib/pvslib&#45;gitlab__pvs7.0/ints</title>
<path fill="none" stroke="#000000" d="M29.7852,-178C20.3084,-178 12,-178 12,-178 12,-178 12,-34 12,-34 12,-34 19.7852,-34 19.7852,-34"/>
<polygon fill="#000000" stroke="#000000" points="19.7852,-37.5001 29.7852,-34 19.7852,-30.5001 19.7852,-37.5001"/>
</g>
<!-- /Users/mmoscato/nasa/pvslib/pvslib&#45;gitlab__pvs7.0/structures -->
<g id="node3" class="node">
<title>/Users/mmoscato/nasa/pvslib/pvslib&#45;gitlab__pvs7.0/structures</title>
<polygon fill="#fcfcd7" stroke="#000000" points="106.429,-124 35.571,-124 35.571,-88 106.429,-88 106.429,-124"/>
<text text-anchor="middle" x="71" y="-101.8" font-family="Times,serif" font-size="14.00" fill="#000000">structures</text>
</g>
<!-- /Users/mmoscato/nasa/pvslib/pvslib&#45;gitlab__pvs7.0/reals&#45;&gt;/Users/mmoscato/nasa/pvslib/pvslib&#45;gitlab__pvs7.0/structures -->
<g id="edge2" class="edge">
<title>/Users/mmoscato/nasa/pvslib/pvslib&#45;gitlab__pvs7.0/reals&#45;&gt;/Users/mmoscato/nasa/pvslib/pvslib&#45;gitlab__pvs7.0/structures</title>
<path fill="none" stroke="#000000" d="M59.8931,-159.8314C59.8931,-159.8314 59.8931,-134.4133 59.8931,-134.4133"/>
<polygon fill="#000000" stroke="#000000" points="63.3932,-134.4132 59.8931,-124.4133 56.3932,-134.4133 63.3932,-134.4132"/>
</g>
<!-- /Users/mmoscato/nasa/pvslib/pvslib&#45;gitlab__pvs7.0/structures&#45;&gt;/Users/mmoscato/nasa/pvslib/pvslib&#45;gitlab__pvs7.0/ints -->
<g id="edge3" class="edge">
<title>/Users/mmoscato/nasa/pvslib/pvslib&#45;gitlab__pvs7.0/structures&#45;&gt;/Users/mmoscato/nasa/pvslib/pvslib&#45;gitlab__pvs7.0/ints</title>
<path fill="none" stroke="#000000" d="M59.8931,-87.8314C59.8931,-87.8314 59.8931,-62.4133 59.8931,-62.4133"/>
<polygon fill="#000000" stroke="#000000" points="63.3932,-62.4132 59.8931,-52.4133 56.3932,-62.4133 63.3932,-62.4132"/>
</g>
</g>
</svg>
