<?xml version="1.0" encoding="UTF-8" standalone="no"?>
<!DOCTYPE svg PUBLIC "-//W3C//DTD SVG 1.1//EN"
 "http://www.w3.org/Graphics/SVG/1.1/DTD/svg11.dtd">
<!-- Generated by graphviz version 2.40.1 (20161225.0304)
 -->
<!-- Title: vect_analysis Pages: 1 -->
<svg width="232pt" height="316pt"
 viewBox="0.00 0.00 232.00 316.00" xmlns="http://www.w3.org/2000/svg" xmlns:xlink="http://www.w3.org/1999/xlink">
<g id="graph0" class="graph" transform="scale(1 1) rotate(0) translate(4 312)">
<title>vect_analysis</title>
<polygon fill="#ffffff" stroke="transparent" points="-4,4 -4,-312 228,-312 228,4 -4,4"/>
<g id="clust1" class="cluster">
<title>cluster_NASALib</title>
<polygon fill="none" stroke="#000000" points="8,-8 8,-300 120,-300 120,-8 8,-8"/>
<text text-anchor="middle" x="64" y="-284.8" font-family="Times,serif" font-size="14.00" fill="#000000">NASALib</text>
</g>
<g id="clust2" class="cluster">
<title>cluster_PVS Prelude</title>
<polygon fill="none" stroke="#000000" points="128,-8 128,-82 216,-82 216,-8 128,-8"/>
<text text-anchor="middle" x="172" y="-66.8" font-family="Times,serif" font-size="14.00" fill="#000000">PVS Prelude</text>
</g>
<!-- /Users/mmoscato/nasa/pvslib/pvslib&#45;gitlab__pvs7.0/analysis -->
<g id="node1" class="node">
<title>/Users/mmoscato/nasa/pvslib/pvslib&#45;gitlab__pvs7.0/analysis</title>
<polygon fill="#fcfcd7" stroke="#000000" points="97.6036,-126 36.3964,-126 36.3964,-90 97.6036,-90 97.6036,-126"/>
<text text-anchor="middle" x="67" y="-103.8" font-family="Times,serif" font-size="14.00" fill="#000000">analysis</text>
</g>
<!-- /Users/mmoscato/nasa/pvslib/pvslib&#45;gitlab__pvs7.0/reals -->
<g id="node2" class="node">
<title>/Users/mmoscato/nasa/pvslib/pvslib&#45;gitlab__pvs7.0/reals</title>
<polygon fill="#fcfcd7" stroke="#000000" points="82,-52 28,-52 28,-16 82,-16 82,-52"/>
<text text-anchor="middle" x="55" y="-29.8" font-family="Times,serif" font-size="14.00" fill="#000000">reals</text>
</g>
<!-- /Users/mmoscato/nasa/pvslib/pvslib&#45;gitlab__pvs7.0/analysis&#45;&gt;/Users/mmoscato/nasa/pvslib/pvslib&#45;gitlab__pvs7.0/reals -->
<g id="edge1" class="edge">
<title>/Users/mmoscato/nasa/pvslib/pvslib&#45;gitlab__pvs7.0/analysis&#45;&gt;/Users/mmoscato/nasa/pvslib/pvslib&#45;gitlab__pvs7.0/reals</title>
<path fill="none" stroke="#000000" d="M59.2241,-89.7079C59.2241,-89.7079 59.2241,-62.0817 59.2241,-62.0817"/>
<polygon fill="#000000" stroke="#000000" points="62.7242,-62.0817 59.2241,-52.0817 55.7242,-62.0818 62.7242,-62.0817"/>
</g>
<!-- /Users/mmoscato/pvs/7.1&#45;0&#45;g3fb4f25&#45;ix86&#45;MacOSX&#45;allegro/lib/finite_sets -->
<g id="node5" class="node">
<title>/Users/mmoscato/pvs/7.1&#45;0&#45;g3fb4f25&#45;ix86&#45;MacOSX&#45;allegro/lib/finite_sets</title>
<polygon fill="#fcfcd7" stroke="#000000" points="208.2796,-52 135.7204,-52 135.7204,-16 208.2796,-16 208.2796,-52"/>
<text text-anchor="middle" x="172" y="-29.8" font-family="Times,serif" font-size="14.00" fill="#000000">finite_sets</text>
</g>
<!-- /Users/mmoscato/nasa/pvslib/pvslib&#45;gitlab__pvs7.0/analysis&#45;&gt;/Users/mmoscato/pvs/7.1&#45;0&#45;g3fb4f25&#45;ix86&#45;MacOSX&#45;allegro/lib/finite_sets -->
<g id="edge2" class="edge">
<title>/Users/mmoscato/nasa/pvslib/pvslib&#45;gitlab__pvs7.0/analysis&#45;&gt;/Users/mmoscato/pvs/7.1&#45;0&#45;g3fb4f25&#45;ix86&#45;MacOSX&#45;allegro/lib/finite_sets</title>
<path fill="none" stroke="#000000" d="M89.7759,-89.8468C89.7759,-66.2434 89.7759,-28 89.7759,-28 89.7759,-28 125.696,-28 125.696,-28"/>
<polygon fill="#000000" stroke="#000000" points="125.696,-31.5001 135.696,-28 125.6959,-24.5001 125.696,-31.5001"/>
</g>
<!-- /Users/mmoscato/nasa/pvslib/pvslib&#45;gitlab__pvs7.0/vect_analysis -->
<g id="node3" class="node">
<title>/Users/mmoscato/nasa/pvslib/pvslib&#45;gitlab__pvs7.0/vect_analysis</title>
<polygon fill="#f7e28d" stroke="#000000" points="109.9219,-270 18.0781,-270 18.0781,-234 109.9219,-234 109.9219,-270"/>
<text text-anchor="middle" x="64" y="-247.8" font-family="Times,serif" font-size="14.00" fill="#000000">vect_analysis</text>
</g>
<!-- /Users/mmoscato/nasa/pvslib/pvslib&#45;gitlab__pvs7.0/vect_analysis&#45;&gt;/Users/mmoscato/nasa/pvslib/pvslib&#45;gitlab__pvs7.0/analysis -->
<g id="edge3" class="edge">
<title>/Users/mmoscato/nasa/pvslib/pvslib&#45;gitlab__pvs7.0/vect_analysis&#45;&gt;/Users/mmoscato/nasa/pvslib/pvslib&#45;gitlab__pvs7.0/analysis</title>
<path fill="none" stroke="#000000" d="M33.8396,-233.7623C33.8396,-195.0139 33.8396,-108 33.8396,-108 33.8396,-108 34.0998,-108 34.0998,-108"/>
<polygon fill="#000000" stroke="#000000" points="26.4418,-111.5004 36.4416,-108 26.4415,-104.5004 26.4418,-111.5004"/>
</g>
<!-- /Users/mmoscato/nasa/pvslib/pvslib&#45;gitlab__pvs7.0/vect_analysis&#45;&gt;/Users/mmoscato/nasa/pvslib/pvslib&#45;gitlab__pvs7.0/reals -->
<g id="edge4" class="edge">
<title>/Users/mmoscato/nasa/pvslib/pvslib&#45;gitlab__pvs7.0/vect_analysis&#45;&gt;/Users/mmoscato/nasa/pvslib/pvslib&#45;gitlab__pvs7.0/reals</title>
<path fill="none" stroke="#000000" d="M29.9465,-233.7884C29.9465,-233.7884 29.9465,-62.0064 29.9465,-62.0064"/>
<polygon fill="#000000" stroke="#000000" points="33.4466,-62.0064 29.9465,-52.0064 26.4466,-62.0065 33.4466,-62.0064"/>
</g>
<!-- /Users/mmoscato/nasa/pvslib/pvslib&#45;gitlab__pvs7.0/vectors -->
<g id="node4" class="node">
<title>/Users/mmoscato/nasa/pvslib/pvslib&#45;gitlab__pvs7.0/vectors</title>
<polygon fill="#fcfcd7" stroke="#000000" points="92.4294,-198 35.5706,-198 35.5706,-162 92.4294,-162 92.4294,-198"/>
<text text-anchor="middle" x="64" y="-175.8" font-family="Times,serif" font-size="14.00" fill="#000000">vectors</text>
</g>
<!-- /Users/mmoscato/nasa/pvslib/pvslib&#45;gitlab__pvs7.0/vect_analysis&#45;&gt;/Users/mmoscato/nasa/pvslib/pvslib&#45;gitlab__pvs7.0/vectors -->
<g id="edge5" class="edge">
<title>/Users/mmoscato/nasa/pvslib/pvslib&#45;gitlab__pvs7.0/vect_analysis&#45;&gt;/Users/mmoscato/nasa/pvslib/pvslib&#45;gitlab__pvs7.0/vectors</title>
<path fill="none" stroke="#000000" d="M64,-233.8314C64,-233.8314 64,-208.4133 64,-208.4133"/>
<polygon fill="#000000" stroke="#000000" points="67.5001,-208.4132 64,-198.4133 60.5001,-208.4133 67.5001,-208.4132"/>
</g>
<!-- /Users/mmoscato/nasa/pvslib/pvslib&#45;gitlab__pvs7.0/vect_analysis&#45;&gt;/Users/mmoscato/pvs/7.1&#45;0&#45;g3fb4f25&#45;ix86&#45;MacOSX&#45;allegro/lib/finite_sets -->
<g id="edge6" class="edge">
<title>/Users/mmoscato/nasa/pvslib/pvslib&#45;gitlab__pvs7.0/vect_analysis&#45;&gt;/Users/mmoscato/pvs/7.1&#45;0&#45;g3fb4f25&#45;ix86&#45;MacOSX&#45;allegro/lib/finite_sets</title>
<path fill="none" stroke="#000000" d="M103.6311,-233.925C103.6311,-182.6575 103.6311,-40 103.6311,-40 103.6311,-40 125.4137,-40 125.4137,-40"/>
<polygon fill="#000000" stroke="#000000" points="125.4138,-43.5001 135.4137,-40 125.4137,-36.5001 125.4138,-43.5001"/>
</g>
<!-- /Users/mmoscato/nasa/pvslib/pvslib&#45;gitlab__pvs7.0/vectors&#45;&gt;/Users/mmoscato/nasa/pvslib/pvslib&#45;gitlab__pvs7.0/analysis -->
<g id="edge7" class="edge">
<title>/Users/mmoscato/nasa/pvslib/pvslib&#45;gitlab__pvs7.0/vectors&#45;&gt;/Users/mmoscato/nasa/pvslib/pvslib&#45;gitlab__pvs7.0/analysis</title>
<path fill="none" stroke="#000000" d="M64.3311,-161.8314C64.3311,-161.8314 64.3311,-136.4133 64.3311,-136.4133"/>
<polygon fill="#000000" stroke="#000000" points="67.8312,-136.4132 64.3311,-126.4133 60.8312,-136.4133 67.8312,-136.4132"/>
</g>
<!-- /Users/mmoscato/nasa/pvslib/pvslib&#45;gitlab__pvs7.0/vectors&#45;&gt;/Users/mmoscato/nasa/pvslib/pvslib&#45;gitlab__pvs7.0/reals -->
<g id="edge8" class="edge">
<title>/Users/mmoscato/nasa/pvslib/pvslib&#45;gitlab__pvs7.0/vectors&#45;&gt;/Users/mmoscato/nasa/pvslib/pvslib&#45;gitlab__pvs7.0/reals</title>
<path fill="none" stroke="#000000" d="M35.5761,-180C33.3217,-180 31.8931,-180 31.8931,-180 31.8931,-180 31.8931,-62.1958 31.8931,-62.1958"/>
<polygon fill="#000000" stroke="#000000" points="35.3932,-62.1958 31.8931,-52.1958 28.3932,-62.1958 35.3932,-62.1958"/>
</g>
<!-- /Users/mmoscato/nasa/pvslib/pvslib&#45;gitlab__pvs7.0/vectors&#45;&gt;/Users/mmoscato/pvs/7.1&#45;0&#45;g3fb4f25&#45;ix86&#45;MacOSX&#45;allegro/lib/finite_sets -->
<g id="edge9" class="edge">
<title>/Users/mmoscato/nasa/pvslib/pvslib&#45;gitlab__pvs7.0/vectors&#45;&gt;/Users/mmoscato/pvs/7.1&#45;0&#45;g3fb4f25&#45;ix86&#45;MacOSX&#45;allegro/lib/finite_sets</title>
<path fill="none" stroke="#000000" d="M92.3757,-180C124.3743,-180 172,-180 172,-180 172,-180 172,-62.1958 172,-62.1958"/>
<polygon fill="#000000" stroke="#000000" points="175.5001,-62.1958 172,-52.1958 168.5001,-62.1958 175.5001,-62.1958"/>
</g>
</g>
</svg>
