<?xml version="1.0" encoding="UTF-8" standalone="no"?>
<!DOCTYPE svg PUBLIC "-//W3C//DTD SVG 1.1//EN"
 "http://www.w3.org/Graphics/SVG/1.1/DTD/svg11.dtd">
<!-- Generated by graphviz version 2.40.1 (20161225.0304)
 -->
<!-- Title: sets_aux Pages: 1 -->
<svg width="202pt" height="324pt"
 viewBox="0.00 0.00 202.00 324.00" xmlns="http://www.w3.org/2000/svg" xmlns:xlink="http://www.w3.org/1999/xlink">
<g id="graph0" class="graph" transform="scale(1 1) rotate(0) translate(4 320)">
<title>sets_aux</title>
<polygon fill="#ffffff" stroke="transparent" points="-4,4 -4,-320 198,-320 198,4 -4,4"/>
<g id="clust1" class="cluster">
<title>cluster_NASALib</title>
<polygon fill="none" stroke="#000000" points="8,-90 8,-308 186,-308 186,-90 8,-90"/>
<text text-anchor="middle" x="97" y="-292.8" font-family="Times,serif" font-size="14.00" fill="#000000">NASALib</text>
</g>
<g id="clust2" class="cluster">
<title>cluster_PVS Prelude</title>
<polygon fill="none" stroke="#000000" points="62,-8 62,-82 150,-82 150,-8 62,-8"/>
<text text-anchor="middle" x="106" y="-66.8" font-family="Times,serif" font-size="14.00" fill="#000000">PVS Prelude</text>
</g>
<!-- /Users/mmoscato/nasa/pvslib/pvslib&#45;gitlab__pvs7.0/ints -->
<g id="node1" class="node">
<title>/Users/mmoscato/nasa/pvslib/pvslib&#45;gitlab__pvs7.0/ints</title>
<polygon fill="#fcfcd7" stroke="#000000" points="98,-134 44,-134 44,-98 98,-98 98,-134"/>
<text text-anchor="middle" x="71" y="-111.8" font-family="Times,serif" font-size="14.00" fill="#000000">ints</text>
</g>
<!-- /Users/mmoscato/pvs/7.1&#45;0&#45;gbe4ad5c&#45;ix86&#45;MacOSX&#45;allegro/lib/finite_sets -->
<g id="node5" class="node">
<title>/Users/mmoscato/pvs/7.1&#45;0&#45;gbe4ad5c&#45;ix86&#45;MacOSX&#45;allegro/lib/finite_sets</title>
<polygon fill="#fcfcd7" stroke="#000000" points="142.2796,-52 69.7204,-52 69.7204,-16 142.2796,-16 142.2796,-52"/>
<text text-anchor="middle" x="106" y="-29.8" font-family="Times,serif" font-size="14.00" fill="#000000">finite_sets</text>
</g>
<!-- /Users/mmoscato/nasa/pvslib/pvslib&#45;gitlab__pvs7.0/ints&#45;&gt;/Users/mmoscato/pvs/7.1&#45;0&#45;gbe4ad5c&#45;ix86&#45;MacOSX&#45;allegro/lib/finite_sets -->
<g id="edge1" class="edge">
<title>/Users/mmoscato/nasa/pvslib/pvslib&#45;gitlab__pvs7.0/ints&#45;&gt;/Users/mmoscato/pvs/7.1&#45;0&#45;gbe4ad5c&#45;ix86&#45;MacOSX&#45;allegro/lib/finite_sets</title>
<path fill="none" stroke="#000000" d="M83.8052,-97.8015C83.8052,-97.8015 83.8052,-62.1476 83.8052,-62.1476"/>
<polygon fill="#000000" stroke="#000000" points="87.3053,-62.1476 83.8052,-52.1476 80.3053,-62.1476 87.3053,-62.1476"/>
</g>
<!-- /Users/mmoscato/nasa/pvslib/pvslib&#45;gitlab__pvs7.0/orders -->
<g id="node2" class="node">
<title>/Users/mmoscato/nasa/pvslib/pvslib&#45;gitlab__pvs7.0/orders</title>
<polygon fill="#fcfcd7" stroke="#000000" points="178,-206 124,-206 124,-170 178,-170 178,-206"/>
<text text-anchor="middle" x="151" y="-183.8" font-family="Times,serif" font-size="14.00" fill="#000000">orders</text>
</g>
<!-- /Users/mmoscato/nasa/pvslib/pvslib&#45;gitlab__pvs7.0/orders&#45;&gt;/Users/mmoscato/pvs/7.1&#45;0&#45;gbe4ad5c&#45;ix86&#45;MacOSX&#45;allegro/lib/finite_sets -->
<g id="edge2" class="edge">
<title>/Users/mmoscato/nasa/pvslib/pvslib&#45;gitlab__pvs7.0/orders&#45;&gt;/Users/mmoscato/pvs/7.1&#45;0&#45;gbe4ad5c&#45;ix86&#45;MacOSX&#45;allegro/lib/finite_sets</title>
<path fill="none" stroke="#000000" d="M133.1948,-169.7294C133.1948,-169.7294 133.1948,-62.2468 133.1948,-62.2468"/>
<polygon fill="#000000" stroke="#000000" points="136.6949,-62.2468 133.1948,-52.2468 129.6949,-62.2468 136.6949,-62.2468"/>
</g>
<!-- /Users/mmoscato/nasa/pvslib/pvslib&#45;gitlab__pvs7.0/sets_aux -->
<g id="node3" class="node">
<title>/Users/mmoscato/nasa/pvslib/pvslib&#45;gitlab__pvs7.0/sets_aux</title>
<polygon fill="#f7e28d" stroke="#000000" points="103.2142,-278 38.7858,-278 38.7858,-242 103.2142,-242 103.2142,-278"/>
<text text-anchor="middle" x="71" y="-255.8" font-family="Times,serif" font-size="14.00" fill="#000000">sets_aux</text>
</g>
<!-- /Users/mmoscato/nasa/pvslib/pvslib&#45;gitlab__pvs7.0/sets_aux&#45;&gt;/Users/mmoscato/nasa/pvslib/pvslib&#45;gitlab__pvs7.0/ints -->
<g id="edge3" class="edge">
<title>/Users/mmoscato/nasa/pvslib/pvslib&#45;gitlab__pvs7.0/sets_aux&#45;&gt;/Users/mmoscato/nasa/pvslib/pvslib&#45;gitlab__pvs7.0/ints</title>
<path fill="none" stroke="#000000" d="M103.4173,-251C108.5165,-251 112.1426,-251 112.1426,-251 112.1426,-251 112.1426,-116 112.1426,-116 112.1426,-116 108.2136,-116 108.2136,-116"/>
<polygon fill="#000000" stroke="#000000" points="108.2136,-112.5001 98.2136,-116 108.2135,-119.5001 108.2136,-112.5001"/>
</g>
<!-- /Users/mmoscato/nasa/pvslib/pvslib&#45;gitlab__pvs7.0/sets_aux&#45;&gt;/Users/mmoscato/nasa/pvslib/pvslib&#45;gitlab__pvs7.0/orders -->
<g id="edge4" class="edge">
<title>/Users/mmoscato/nasa/pvslib/pvslib&#45;gitlab__pvs7.0/sets_aux&#45;&gt;/Users/mmoscato/nasa/pvslib/pvslib&#45;gitlab__pvs7.0/orders</title>
<path fill="none" stroke="#000000" d="M103.5391,-269C125.6875,-269 151,-269 151,-269 151,-269 151,-216.3802 151,-216.3802"/>
<polygon fill="#000000" stroke="#000000" points="154.5001,-216.3801 151,-206.3802 147.5001,-216.3802 154.5001,-216.3801"/>
</g>
<!-- /Users/mmoscato/nasa/pvslib/pvslib&#45;gitlab__pvs7.0/structures -->
<g id="node4" class="node">
<title>/Users/mmoscato/nasa/pvslib/pvslib&#45;gitlab__pvs7.0/structures</title>
<polygon fill="#fcfcd7" stroke="#000000" points="106.429,-206 35.571,-206 35.571,-170 106.429,-170 106.429,-206"/>
<text text-anchor="middle" x="71" y="-183.8" font-family="Times,serif" font-size="14.00" fill="#000000">structures</text>
</g>
<!-- /Users/mmoscato/nasa/pvslib/pvslib&#45;gitlab__pvs7.0/sets_aux&#45;&gt;/Users/mmoscato/nasa/pvslib/pvslib&#45;gitlab__pvs7.0/structures -->
<g id="edge5" class="edge">
<title>/Users/mmoscato/nasa/pvslib/pvslib&#45;gitlab__pvs7.0/sets_aux&#45;&gt;/Users/mmoscato/nasa/pvslib/pvslib&#45;gitlab__pvs7.0/structures</title>
<path fill="none" stroke="#000000" d="M71,-241.8314C71,-241.8314 71,-216.4133 71,-216.4133"/>
<polygon fill="#000000" stroke="#000000" points="74.5001,-216.4132 71,-206.4133 67.5001,-216.4133 74.5001,-216.4132"/>
</g>
<!-- /Users/mmoscato/nasa/pvslib/pvslib&#45;gitlab__pvs7.0/sets_aux&#45;&gt;/Users/mmoscato/pvs/7.1&#45;0&#45;gbe4ad5c&#45;ix86&#45;MacOSX&#45;allegro/lib/finite_sets -->
<g id="edge6" class="edge">
<title>/Users/mmoscato/nasa/pvslib/pvslib&#45;gitlab__pvs7.0/sets_aux&#45;&gt;/Users/mmoscato/pvs/7.1&#45;0&#45;gbe4ad5c&#45;ix86&#45;MacOSX&#45;allegro/lib/finite_sets</title>
<path fill="none" stroke="#000000" d="M103.1776,-260C111.4519,-260 118.0713,-260 118.0713,-260 118.0713,-260 118.0713,-62.1125 118.0713,-62.1125"/>
<polygon fill="#000000" stroke="#000000" points="121.5714,-62.1125 118.0713,-52.1125 114.5714,-62.1125 121.5714,-62.1125"/>
</g>
<!-- /Users/mmoscato/nasa/pvslib/pvslib&#45;gitlab__pvs7.0/structures&#45;&gt;/Users/mmoscato/nasa/pvslib/pvslib&#45;gitlab__pvs7.0/ints -->
<g id="edge7" class="edge">
<title>/Users/mmoscato/nasa/pvslib/pvslib&#45;gitlab__pvs7.0/structures&#45;&gt;/Users/mmoscato/nasa/pvslib/pvslib&#45;gitlab__pvs7.0/ints</title>
<path fill="none" stroke="#000000" d="M71,-169.8314C71,-169.8314 71,-144.4133 71,-144.4133"/>
<polygon fill="#000000" stroke="#000000" points="74.5001,-144.4132 71,-134.4133 67.5001,-144.4133 74.5001,-144.4132"/>
</g>
</g>
</svg>
